
<svg xmlns="http://www.w3.org/2000/svg" version="1.1" xmlns:xlink="http://www.w3.org/1999/xlink" preserveAspectRatio="none" x="0px" y="0px" width="340px" height="340px" viewBox="0 0 340 340">
<defs>
<linearGradient id="Gradient_1" gradientUnits="userSpaceOnUse" x1="-0.07500000000004547" y1="164.9" x2="552.475" y2="164.9" spreadMethod="pad">
<stop  offset="0%" stop-color="#EF2E67"/>

<stop  offset="100%" stop-color="#1FB5C3"/>
</linearGradient>

<g id="Layer0_0_FILL">
<path fill="#1B1B21" stroke="none" d="
M 340 340
L 340 0 0 0 0 340 340 340 Z"/>
</g>

<g id="Layer0_1_FILL">
<path fill="#FFFFFF" stroke="none" d="
M 96.7 235.3
L 96.7 218.2 27 218.2 27 235.3 52.05 235.3 52.05 306.45 71.65 306.45 71.65 235.3 96.7 235.3
M 131.65 235.85
Q 134.55 233.5 139.45 233.5 151.7 233.5 163.15 242.25
L 173.15 227.85
Q 166.55 222.25 157.75 219.25 148.9 216.25 140.1 216.25 126.55 216.25 117.6 223.05 108.55 229.9 108.55 242.45 108.55 248.7 110.3 253.3 112.1 257.9 115.7 260.9 122.85 266.7 138.1 270.35 147.85 272.75 151.15 275.1 154.45 277.45 154.45 281.35 154.45 285.35 151.3 287.75 148.3 290.05 142.8 290.05 130.75 290.05 116.45 277.55
L 104.75 291.95
Q 121.5 307.45 142.45 307.45 149.75 307.45 155.55 305.6 161.45 303.7 165.85 300.1 174.7 292.7 174.7 280.8 174.7 274.9 173 270.4 171.25 265.95 167.85 262.8 160.9 256.6 148.3 253.55 135.8 250.45 132.3 248.2 128.85 245.9 128.85 242.05 128.85 238.2 131.65 235.85
M 27 126.1
L 27 143.2 52.05 143.2 52.05 214.35 71.65 214.35 71.65 143.2 96.7 143.2 96.7 126.1 27 126.1
M 99.5 62.45
L 111.75 48.55
Q 97.05 32 75.4 32 55.9 32 42.5 45.15 29.05 58.3 29.05 77.85 29.05 97.55 42.2 110.3 55.4 123.2 75.8 123.2 85.95 123.2 94.85 119 103.65 114.8 111.2 106.3
L 98.6 93.35
Q 89.4 104.8 74.9 104.8 69.55 104.8 65 102.95 60.5 101.15 56.8 97.4 53.1 93.65 51.25 88.75 49.35 83.8 49.35 77.65 49.35 71.5 51.35 66.6 53.3 61.65 57.3 58.1 65.15 50.8 76.2 50.8 90.1 50.8 99.5 62.45
M 211.95 126.1
L 193.55 126.1 193.55 214.35 213.25 214.35 213.25 159.1 255.25 214.35 274.95 214.35 274.95 126.1 255.25 126.1 255.25 182.95 211.95 126.1
M 174.65 143.7
L 174.65 126.1 111.05 126.1 111.05 214.35 176.05 214.35 176.05 196.9 130.75 196.9 130.75 178.6 170.2 178.6 170.2 161.85 130.75 161.85 130.75 143.7 174.65 143.7
M 200.85 45.15
Q 187.45 32 168 32 148.35 32 134.95 45.15 128.3 51.65 124.95 59.7 121.65 67.85 121.65 77.6 121.65 97 134.95 110.05 148.35 123.1 168 123.1 187.45 123.1 200.85 110.05 207.6 103.5 210.9 95.45 214.25 87.35 214.25 77.6 214.25 67.85 210.9 59.7 207.6 51.65 200.85 45.15
M 186.6 57.45
Q 194.2 65.9 194.2 77.65 194.2 89.45 186.6 97.7 179.05 105.95 168 105.95 162.45 105.95 157.8 103.85 153.2 101.85 149.4 97.7 141.85 89.45 141.85 77.65 141.85 65.9 149.4 57.45 153.2 53.35 157.8 51.3 162.45 49.2 168 49.2 179.05 49.2 186.6 57.45
M 312.25 34
L 292.55 34 292.55 90.85 249.2 34 230.85 34 230.85 122.25 250.55 122.25 250.55 67 292.55 122.25 312.25 122.25 312.25 34 Z"/>
</g>

<path id="Layer0_0_1_STROKES" stroke="url(#Gradient_1)" stroke-width="2" stroke-linejoin="round" stroke-linecap="round" fill="none" d="
M 340 340
L 0 340 0 0 340 0 340 340 Z"/>
</defs>

<g transform="matrix( 1, 0, 0, 1, 0,0) ">
<use xlink:href="#Layer0_0_FILL"/>

<use xlink:href="#Layer0_0_1_STROKES"/>
</g>

<g transform="matrix( 1, 0, 0, 1, 0,0) ">
<use xlink:href="#Layer0_1_FILL"/>
</g>
</svg>
