
<svg xmlns="http://www.w3.org/2000/svg" version="1.1" xmlns:xlink="http://www.w3.org/1999/xlink" preserveAspectRatio="none" x="0px" y="0px" width="340px" height="340px" viewBox="0 0 340 340">
<defs>
<linearGradient id="Gradient_1" gradientUnits="userSpaceOnUse" x1="-0.07500000000004547" y1="164.9" x2="552.475" y2="164.9" spreadMethod="pad">
<stop  offset="0%" stop-color="#EF2E67"/>

<stop  offset="100%" stop-color="#1FB5C3"/>
</linearGradient>

<g id="Layer3_0_FILL">
<path fill="#1B1B21" stroke="none" d="
M 340 340
L 340 0 0 0 0 340 340 340 Z"/>
</g>

<g id="Layer1_0_FILL">
<path fill="#FFFFFF" stroke="none" d="
M 97.75 238.7
L 97.75 220.85 26 220.85 26 238.7 52.6 238.7 52.6 310 71.15 310 71.15 238.7 97.75 238.7
M 160.5 226.95
Q 152.05 219.5 137.25 219.5 124.45 219.55 115.05 227.35 105.75 235.45 105.75 247.25 105.75 257.3 112.05 264.05 118.7 270.85 129.45 272.8
L 142.05 275.35
Q 146.7 276.2 149.45 278.85 152.2 281.35 152.2 284.7 152.2 289 148.55 291.9 145.2 294.7 138.75 294.7 131.2 294.7 126.05 290.8 120.8 286.85 119.65 279.65
L 102.45 283.75
Q 104.6 296.65 113.7 304.05 122.7 311.35 138.15 311.35 153.5 311.35 162.6 302.65 170.9 294.2 170.9 283.6 170.9 273.95 164.45 266.7 157.85 259.6 145.75 257.4
L 133.25 255.1
Q 124.05 253.3 124.05 245.8 124.05 241.9 127.75 238.95 131.6 236.05 137.05 236.05 150.05 236.05 152.65 248.15
L 169.45 243.25
Q 168.15 234.05 160.5 226.95
M 26 127.1
L 26 144.95 52.6 144.95 52.6 216.25 71.15 216.25 71.15 144.95 97.75 144.95 97.75 127.1 26 127.1
M 107.45 45.5
Q 103.65 41.35 99.35 38.75 89.15 32 74.75 32 65.95 32.05 57.15 35.45 48.5 39.05 42.35 45 36.1 51.1 32.2 59.5 28.45 68.65 28.45 78 28.45 87.8 32.2 96.7 36.15 105.55 42.25 111.3 55.75 123.7 74.3 123.7 82 123.7 88.6 121.8 95.55 119.5 99.95 116.55 104.55 113.35 108.25 109.3 114.9 102 116.75 94.25
L 99.15 88.15
Q 97.9 92.9 94.1 97.3
L 89.35 101.6
Q 83.25 106 74.55 106 66.95 106 60.6 102.1 47.5 94 47.5 77.85 47.5 70.3 51.05 63.8 54.4 57.5 60.75 53.8 66.85 50 74.55 50 83.15 50 89.35 54.25 97.3 59.95 98.75 66.85
L 116.2 60.9
Q 114.05 52.65 107.45 45.5
M 207.3 127.1
L 185.95 127.1 185.95 216.25 204.15 216.25 204.15 155 243 216.25 263.95 216.25 263.95 127.1 245.75 127.1 245.75 187.4 207.3 127.1
M 168.85 144.35
L 168.85 127.1 110.55 127.1 110.55 216.25 169.2 216.25 169.2 199 128.75 199 128.75 179.85 164.7 179.85 164.7 162.6 128.75 162.6 128.75 144.35 168.85 144.35
M 189.1 35.6
Q 180.8 32 171 32 161.8 32.05 153 35.6 144.05 39.4 138.1 45.35 131.9 51.4 128.2 60 124.55 68.65 124.55 78 124.55 97.3 138 110.6 151.35 123.85 170.65 123.85 180.15 123.85 188.7 120.15 197.15 116.75 203.55 110.4 209.7 104.4 213.45 95.55 217.1 87.15 217.1 77.6 217.1 68.25 213.55 59.65 209.85 51.2 203.75 45.15 197.55 39.05 189.1 35.6
M 198.3 77.85
Q 198.3 85.45 194.7 91.95 191 98.4 184.7 102.2 178.55 106 170.85 106 163.25 106 156.95 102.2 150.7 98.4 147.05 91.95 143.45 85.45 143.45 77.85 143.45 70.3 147.05 63.8 150.75 57.3 156.95 53.65 163.25 49.9 170.85 49.9 182.15 49.65 190.35 58.1 198.5 66.5 198.3 77.85
M 310.4 33.35
L 292.2 33.35 292.2 93.65 253.75 33.35 232.4 33.35 232.4 122.5 250.6 122.5 250.6 61.25 289.45 122.5 310.4 122.5 310.4 33.35 Z"/>
</g>

<path id="Layer3_0_1_STROKES" stroke="url(#Gradient_1)" stroke-width="2" stroke-linejoin="round" stroke-linecap="round" fill="none" d="
M 340 340
L 0 340 0 0 340 0 340 340 Z"/>
</defs>

<g transform="matrix( 1, 0, 0, 1, 0,0) ">
<use xlink:href="#Layer3_0_FILL"/>

<use xlink:href="#Layer3_0_1_STROKES"/>
</g>

<g transform="matrix( 1, 0, 0, 1, 1.8,-1.65) ">
<use xlink:href="#Layer1_0_FILL"/>
</g>
</svg>
