<?xml version="1.0" standalone="no"?>
<!DOCTYPE svg PUBLIC "-//W3C//DTD SVG 1.1//EN" "http://www.w3.org/Graphics/SVG/1.1/DTD/svg11.dtd" >
<svg xmlns="http://www.w3.org/2000/svg" width="100%" height="100%">
<metadata>
Created by FontXChange 20110222 at Sat Feb 23 11:16:39 2019
 By Mitchell Warren
Copyright (c) 2016 by THOMAS GILLETT. All rights reserved.
</metadata>
<defs>
<font id="Gordita-LightItalic" horiz-adv-x="589" >
  <font-face 
    font-family="Gordita"
    font-weight="300"
    font-style="italic"
    font-stretch="normal"
    units-per-em="1000"
    panose-1="0 0 0 0 0 0 0 0 0 0"
    ascent="800"
    descent="-200"
    x-height="497"
    cap-height="729"
    bbox="-164 -249 1295 1030"
    underline-thickness="46"
    underline-position="-47"
    stemh="35"
    stemv="38"
    unicode-range="U+000D-FB04"
  />
<missing-glyph horiz-adv-x="744" 
d="M698 729v-729h-614v729h614zM660 34v657h-542z" />
    <glyph glyph-name="ff" unicode="ff" horiz-adv-x="568" 
d="M699 751l-9 -34c-13 6 -29 9 -49 9c-57 0 -97 -26 -115 -96l-35 -133h134l-9 -33h-134l-122 -464h-36l121 464h-234l-122 -464h-36l122 464h-94l9 33h94l37 142c22 81 69 121 151 121c23 0 42 -3 56 -9l-9 -34c-13 6 -29 9 -49 9c-57 0 -97 -26 -115 -96l-35 -133h235
l37 142c22 81 69 121 151 121c23 0 42 -3 56 -9z" />
    <glyph glyph-name="fi" unicode="fi" horiz-adv-x="534" 
d="M380 0h-37l122 464h-254l-122 -464h-36l122 464h-94l9 33h94l37 142c22 81 69 121 151 121c23 0 42 -3 55 -9l-8 -34c-13 6 -29 9 -49 9c-57 0 -97 -26 -115 -96l-35 -133h291zM534 632c-19 0 -33 13 -33 33c0 23 18 41 40 41c20 0 34 -13 34 -33c0 -23 -18 -41 -41 -41z
" />
    <glyph glyph-name="fl" unicode="fl" horiz-adv-x="515" 
d="M325 0l121 464h-235l-122 -464h-36l122 464h-94l9 33h94l37 142c22 81 69 121 151 121c23 0 42 -3 55 -9l-8 -34c-13 6 -29 9 -49 9c-57 0 -97 -26 -115 -96l-35 -133h235l69 261h37l-200 -758h-36z" />
    <glyph glyph-name="ffi" unicode="ffi" horiz-adv-x="786" 
d="M633 0h-37l122 464h-235l-122 -464h-36l121 464h-235l-122 -464h-36l122 464h-94l9 33h94l37 142c22 81 69 121 151 121c23 0 42 -3 56 -9l-9 -34c-13 6 -29 9 -49 9c-57 0 -97 -26 -115 -96l-35 -133h235l38 142c22 81 69 121 151 121c23 0 41 -3 56 -9l-10 -34
c-12 6 -28 9 -48 9c-57 0 -97 -26 -115 -96l-35 -133h272zM787 632c-20 0 -33 13 -33 33c0 23 18 41 40 41c20 0 34 -13 34 -33c0 -23 -18 -41 -41 -41z" />
    <glyph glyph-name="ffl" unicode="ffl" horiz-adv-x="786" 
d="M596 0l123 464h-236l-122 -464h-36l121 464h-235l-122 -464h-36l122 464h-94l9 33h94l37 142c22 81 69 121 151 121c23 0 42 -3 56 -9l-9 -34c-13 6 -29 9 -49 9c-57 0 -97 -26 -115 -96l-35 -133h235l38 142c22 81 69 121 151 121c23 0 41 -3 56 -9l-10 -34
c-12 6 -28 9 -48 9c-57 0 -97 -26 -115 -96l-35 -133h235l69 261h37l-200 -758h-37z" />
    <glyph glyph-name=".notdef" horiz-adv-x="744" 
d="M698 729v-729h-614v729h614zM660 34v657h-542z" />
    <glyph glyph-name="_1" horiz-adv-x="0" 
 />
    <glyph glyph-name="nonmarkingreturn" horiz-adv-x="310" 
 />
    <glyph glyph-name="NULL" horiz-adv-x="0" 
 />
    <glyph glyph-name="NULL" horiz-adv-x="0" 
 />
    <glyph glyph-name="CR" unicode="&#xd;" horiz-adv-x="273" 
 />
    <glyph glyph-name="space" unicode=" " horiz-adv-x="273" 
 />
    <glyph glyph-name="exclam" unicode="!" horiz-adv-x="246" 
d="M127 194h-33l139 535h37zM63 -8c-20 0 -33 13 -33 33c0 23 17 41 40 41c20 0 34 -14 34 -33c0 -23 -18 -41 -41 -41z" />
    <glyph glyph-name="quotedbl" unicode="&#x22;" horiz-adv-x="332" 
d="M230 659l-59 -168h-17l34 179c1 5 2 15 4 23c2 7 3 9 6 15c4 10 12 17 22 17c14 0 21 -8 21 -24c0 -9 -4 -23 -11 -42zM368 659l-58 -168h-17l33 179c4 22 9 37 14 44s11 11 19 11c13 0 20 -8 20 -24c0 -9 -4 -23 -11 -42z" />
    <glyph glyph-name="numbersign" unicode="#" horiz-adv-x="715" 
d="M651 237l-8 -34h-143l-78 -203h-35l76 203h-260l-78 -203h-36l77 203h-123l9 34h127l97 255h-145l9 34h149l77 203h36l-76 -203h260l78 203h36l-77 -203h117l-9 -34h-121l-97 -255h138zM216 237h260l98 255h-261z" />
    <glyph glyph-name="dollar" unicode="$" horiz-adv-x="584" 
d="M252 -3l-24 -92h-37l26 100c-49 14 -89 42 -120 85c-32 42 -47 90 -47 144l37 6c-1 -48 12 -90 38 -126c25 -37 59 -62 101 -75l84 318l-17 8c-32 16 -48 25 -79 48c-15 11 -27 22 -37 33c-18 22 -34 55 -34 89c0 62 28 114 72 147c44 32 101 50 162 50c8 0 18 0 31 -2
l26 100h37l-27 -106c56 -14 98 -46 126 -95c17 -31 25 -61 25 -90l-36 -7c1 24 -9 67 -37 103c-18 24 -50 46 -88 55l-83 -313l14 -7c36 -18 56 -28 87 -52c14 -11 26 -22 36 -33c18 -23 32 -56 32 -91c0 -64 -28 -117 -72 -149s-102 -50 -163 -50c-11 0 -22 1 -33 2z
M287 30c98 0 194 53 194 162c0 30 -13 58 -29 76c-8 9 -19 19 -33 29c-14 9 -26 17 -35 23c-10 5 -23 11 -39 20l-3 1l-82 -310c9 -1 18 -1 27 -1zM376 698c-99 0 -195 -53 -195 -161c0 -34 16 -63 45 -87c14 -12 28 -21 40 -29c13 -8 28 -16 47 -25l7 -4l80 304
c-8 1 -16 2 -24 2z" />
    <glyph glyph-name="percent" unicode="%" horiz-adv-x="889" 
d="M828 175c0 -50 -17 -92 -51 -127c-35 -35 -77 -53 -127 -53c-41 0 -76 14 -104 40c-27 27 -41 63 -41 106c0 49 17 92 51 128s76 53 125 53c42 0 77 -13 105 -41s42 -63 42 -106zM451 590c0 -51 -17 -93 -51 -128s-76 -53 -126 -53c-42 0 -76 14 -104 41
c-28 26 -42 62 -42 105c0 50 17 92 52 128c34 36 75 53 125 53c42 0 77 -13 105 -41c27 -28 41 -63 41 -105zM140 0l632 729h42l-630 -729h-44zM796 176c0 32 -11 59 -32 81c-22 23 -50 33 -83 33c-42 0 -77 -15 -104 -45s-40 -65 -40 -105c0 -33 11 -60 33 -81
c21 -21 49 -32 82 -32c42 0 76 15 103 44c28 30 41 64 41 105zM420 590c0 32 -11 59 -33 81c-22 23 -50 34 -83 34c-84 1 -146 -77 -144 -151c0 -33 11 -60 33 -81c22 -22 49 -33 82 -33c42 0 76 15 104 45c27 30 41 65 41 105z" />
    <glyph glyph-name="ampersand" unicode="&#x26;" horiz-adv-x="653" 
d="M531 578c0 -45 -20 -83 -55 -112c-17 -15 -34 -27 -51 -37c-16 -10 -36 -20 -59 -31l-55 -25l158 -224c51 48 93 102 126 161l30 -16c-35 -63 -80 -121 -136 -173l86 -121h-42l-70 98c-83 -69 -163 -104 -242 -104c-92 0 -182 49 -182 160c0 43 17 84 41 113
c11 14 26 28 44 42c34 27 65 44 106 62l30 14l-18 28c-37 54 -56 103 -56 145c0 49 18 91 53 126s77 52 126 52s89 -15 120 -45c30 -30 46 -67 46 -113zM223 28c71 0 144 32 221 98l-165 232l-30 -14c-48 -22 -80 -41 -116 -72c-37 -31 -57 -71 -57 -117
c0 -40 14 -71 43 -93c28 -23 63 -34 104 -34zM223 559c0 -44 18 -84 56 -140l12 -19l64 29c30 13 49 24 76 42c14 10 25 19 34 29c17 20 30 47 30 76c0 37 -11 67 -35 92c-25 24 -56 36 -96 36c-41 0 -74 -14 -101 -42c-27 -29 -40 -63 -40 -103z" />
    <glyph glyph-name="quotesingle" unicode="'" horiz-adv-x="194" 
d="M230 659l-59 -168h-17l34 179c3 22 8 37 13 44c5 6 12 10 19 11c14 0 21 -8 21 -24c0 -7 -2 -16 -3 -21c-2 -5 -7 -18 -8 -21z" />
    <glyph glyph-name="parenleft" unicode="(" horiz-adv-x="395" 
d="M502 805l13 -29c-132 -51 -237 -128 -302 -217c-66 -89 -100 -189 -100 -292c0 -80 19 -153 52 -212c34 -58 71 -102 121 -146l-21 -23c-126 104 -190 230 -190 379c0 150 64 289 194 403c65 57 143 102 233 137z" />
    <glyph glyph-name="parenright" unicode=")" horiz-adv-x="395" 
d="M-51 -116l-12 28c160 61 274 160 337 272c43 75 64 155 64 237c0 138 -58 257 -173 358l21 23c127 -104 190 -230 190 -380c0 -149 -63 -288 -193 -402c-65 -57 -143 -102 -234 -136z" />
    <glyph glyph-name="asterisk" unicode="*" horiz-adv-x="494" 
d="M379 357l-59 161l-133 -108l-19 25l141 103l-150 96l18 26l143 -102l43 175l32 -9l-54 -172l175 13l2 -31l-178 -5l68 -160z" />
    <glyph glyph-name="plus" unicode="+" horiz-adv-x="546" 
d="M533 366l-8 -33h-205l-56 -211h-36l55 211h-210l8 33h211l55 209h36l-55 -209h205z" />
    <glyph glyph-name="comma" unicode="," horiz-adv-x="246" 
d="M-2 -125l7 25c46 9 81 44 88 101c-7 -4 -16 -6 -27 -6c-21 0 -36 12 -36 32c0 12 5 23 15 32c9 8 20 13 32 13c29 0 44 -21 44 -52c0 -42 -12 -76 -36 -102c-25 -25 -54 -39 -87 -43z" />
    <glyph glyph-name="hyphen" unicode="-" horiz-adv-x="427" 
d="M369 313l-9 -36h-274l9 36h274z" />
    <glyph glyph-name="period" unicode="." horiz-adv-x="229" 
d="M65 -7c-21 0 -36 14 -36 36c0 25 20 45 44 45c22 0 37 -15 37 -37c0 -25 -20 -44 -45 -44z" />
    <glyph glyph-name="slash" unicode="/" horiz-adv-x="454" 
d="M498 758h39l-505 -763h-40z" />
    <glyph glyph-name="zero" unicode="0" horiz-adv-x="710" 
d="M324 -8c-51 0 -95 12 -132 36c-36 24 -63 56 -80 96c-18 40 -27 86 -27 139c0 58 10 116 28 173c19 57 44 107 76 152c31 44 70 80 116 108c46 27 95 41 147 41c51 0 95 -12 132 -36c36 -24 63 -56 81 -96s26 -87 26 -139c2 -140 -56 -284 -145 -374
c-59 -62 -139 -100 -222 -100zM326 27c45 0 89 13 129 38c41 26 76 59 105 100c28 41 50 88 67 141c17 52 25 105 25 159c0 92 -27 163 -89 205c-32 21 -69 32 -113 32c-45 0 -89 -13 -130 -38c-40 -26 -75 -59 -104 -100c-28 -42 -51 -89 -67 -141
c-17 -53 -25 -106 -25 -159c0 -134 65 -237 202 -237z" />
    <glyph glyph-name="one" unicode="1" horiz-adv-x="385" 
d="M373 729h31l-194 -729h-39l182 680l-230 -114l-13 30z" />
    <glyph glyph-name="two" unicode="2" horiz-adv-x="576" 
d="M52 35h423l-10 -35h-462c14 68 42 125 83 169c42 44 89 77 153 107l145 68c50 24 87 48 121 80c32 32 51 72 51 117c0 49 -15 87 -46 117c-30 29 -73 44 -129 44c-57 0 -106 -18 -145 -55c-38 -37 -58 -84 -58 -142l-37 4c0 55 22 110 60 154s104 74 181 74
c66 0 118 -18 155 -54c38 -36 57 -83 57 -141c0 -93 -64 -167 -195 -229l-146 -69c-69 -33 -120 -70 -149 -108s-42 -66 -52 -101z" />
    <glyph glyph-name="three" unicode="3" horiz-adv-x="581" 
d="M253 -8c-62 0 -115 21 -148 52c-16 15 -30 32 -40 51c-23 39 -30 77 -28 112l38 7c-2 -45 13 -102 55 -142c26 -26 71 -45 125 -45c58 0 113 20 155 54c41 34 67 89 67 150c0 49 -18 86 -55 112s-86 38 -146 38h-20l-7 29l322 284h-399l9 35h449l-10 -37l-316 -277
c65 -2 117 -20 156 -55c38 -35 58 -77 58 -127c0 -49 -13 -92 -37 -129c-25 -37 -57 -65 -97 -84c-39 -18 -83 -28 -131 -28z" />
    <glyph glyph-name="four" unicode="4" horiz-adv-x="611" 
d="M570 215l-10 -35h-115l-48 -180h-38l48 180h-396l11 40l526 509h44l-137 -514h115zM65 215h351l123 460z" />
    <glyph glyph-name="five" unicode="5" horiz-adv-x="579" 
d="M259 -8c-127 -2 -226 92 -221 198l36 8c-2 -49 16 -90 52 -122c37 -32 82 -49 135 -49c66 0 120 22 163 66c42 43 63 99 63 166c0 48 -15 88 -45 121s-70 50 -120 50c-37 0 -72 -8 -106 -23s-64 -34 -88 -57l-29 15l156 364h357l-9 -35h-325l-128 -294h1
c24 19 52 35 83 47s61 18 90 18c61 0 114 -25 148 -62c34 -38 54 -89 54 -143c0 -52 -12 -98 -36 -139s-55 -73 -96 -95c-40 -22 -85 -34 -135 -34z" />
    <glyph glyph-name="six" unicode="6" horiz-adv-x="625" 
d="M639 700l-17 -31c-47 23 -94 35 -139 35c-103 0 -192 -49 -256 -129c-28 -35 -51 -75 -69 -120s-30 -89 -37 -132h2c16 35 47 69 87 97c39 28 94 46 150 46c46 0 87 -11 124 -36c57 -37 93 -100 93 -173c0 -46 -11 -89 -34 -130c-23 -40 -56 -73 -98 -97
c-41 -25 -87 -38 -137 -38c-73 0 -136 31 -174 77c-36 43 -54 99 -54 169c-1 138 53 291 149 391c31 33 69 60 113 80c44 19 91 29 142 29c26 0 54 -3 82 -10c29 -7 53 -17 73 -28zM539 256c0 52 -18 95 -52 127s-77 49 -129 49c-40 0 -79 -9 -115 -28
c-37 -19 -67 -44 -89 -78c-23 -33 -34 -70 -34 -110c0 -56 18 -102 54 -136c36 -35 81 -53 136 -53c67 0 127 28 166 70s63 99 63 159z" />
    <glyph glyph-name="seven" unicode="7" horiz-adv-x="518" 
d="M618 729l-9 -35l-498 -694h-46l500 694h-430l10 35h473z" />
    <glyph glyph-name="eight" unicode="8" horiz-adv-x="634" 
d="M617 560c0 -48 -19 -90 -57 -125c-38 -36 -85 -59 -142 -68c42 -12 76 -34 103 -64c28 -31 41 -66 41 -105c0 -38 -11 -73 -34 -104s-54 -56 -95 -75c-40 -19 -86 -28 -135 -28c-73 0 -132 18 -178 53s-69 80 -69 134c0 53 22 99 64 136c43 36 99 60 167 68
c-37 13 -66 34 -88 61s-34 59 -34 95c0 38 12 73 34 104s52 54 88 71c36 16 76 24 118 24c63 0 115 -17 156 -49c41 -33 61 -75 61 -128zM578 559c0 41 -17 76 -51 103s-76 40 -127 40c-58 0 -105 -16 -144 -47c-38 -31 -57 -70 -57 -118c0 -42 16 -77 50 -105
c32 -28 73 -42 121 -42c59 0 109 16 149 49c39 32 59 72 59 120zM523 197c0 46 -19 84 -56 114c-38 31 -87 46 -146 46c-68 0 -123 -17 -166 -51s-65 -76 -65 -125c0 -31 10 -59 30 -83c19 -24 45 -42 76 -53c32 -13 66 -19 103 -19c63 0 116 16 159 49c43 31 65 72 65 122z
" />
    <glyph glyph-name="nine" unicode="9" horiz-adv-x="625" 
d="M51 32l18 31c50 -24 97 -37 141 -37c102 0 190 51 255 131c56 69 93 161 105 247h-1c-16 -35 -46 -69 -86 -96c-40 -28 -95 -47 -151 -47c-46 0 -87 12 -124 36c-57 37 -93 102 -93 174c0 69 30 138 77 187c47 48 117 80 192 80c36 0 70 -7 101 -21c32 -14 57 -32 75 -55
c35 -42 52 -98 52 -169c0 -64 -10 -127 -30 -190s-49 -119 -87 -167c-70 -90 -168 -144 -286 -144c-59 0 -112 13 -158 40zM153 473c0 -53 17 -95 52 -128s79 -49 130 -49c40 0 79 9 115 29c36 18 66 45 89 79c22 33 33 70 33 110c0 49 -13 90 -40 123
c-34 42 -89 66 -151 66c-66 0 -126 -28 -165 -70c-39 -43 -63 -100 -63 -160z" />
    <glyph glyph-name="colon" unicode=":" horiz-adv-x="235" 
d="M59 -7c-21 0 -36 14 -36 36c0 25 20 45 44 45c21 0 37 -15 37 -37c0 -25 -20 -44 -45 -44zM173 424c-22 0 -37 14 -37 36c0 25 19 45 44 45c22 0 37 -15 37 -36c0 -25 -19 -45 -44 -45z" />
    <glyph glyph-name="semicolon" unicode=";" horiz-adv-x="268" 
d="M182 424c-22 0 -37 14 -37 36c0 25 20 45 45 45c21 0 36 -15 36 -36c0 -25 -19 -45 -44 -45zM-1 -125l6 25c47 9 83 45 89 101c-8 -5 -17 -7 -27 -7c-20 0 -36 13 -36 33c0 12 5 23 14 32c10 8 21 13 33 13c29 0 43 -21 43 -51c0 -43 -12 -77 -36 -103
c-25 -25 -53 -40 -86 -43z" />
    <glyph glyph-name="less" unicode="&#x3c;" horiz-adv-x="602" 
d="M64 330l10 37l546 243l-11 -43l-504 -222l386 -224l-9 -35z" />
    <glyph glyph-name="equal" unicode="=" horiz-adv-x="591" 
d="M570 477l-9 -35h-428l9 35h428zM512 258l-9 -35h-428l10 35h427z" />
    <glyph glyph-name="greater" unicode="&#x3e;" horiz-adv-x="603" 
d="M598 365l-10 -36l-546 -243l11 43l504 222l-386 224l9 35z" />
    <glyph glyph-name="question" unicode="?" horiz-adv-x="515" 
d="M173 3c-14 14 -14 38 0 52c14 15 37 15 51 0c14 -14 14 -38 0 -52c-14 -15 -37 -15 -51 0zM261 194h-39c11 72 71 132 124 173c18 14 38 29 59 46s38 31 51 43c36 36 54 75 54 117c0 37 -14 68 -44 92c-29 24 -66 36 -108 36c-58 0 -112 -23 -145 -58
c-34 -35 -54 -81 -54 -126l-39 3c2 60 26 111 72 154c45 42 102 63 168 63c53 0 98 -16 135 -47c36 -31 55 -70 55 -115c0 -50 -21 -97 -64 -141c-12 -13 -29 -28 -48 -43c-20 -16 -38 -30 -55 -43s-34 -27 -51 -42c-33 -31 -60 -69 -71 -112z" />
    <glyph glyph-name="at" unicode="@" horiz-adv-x="819" 
d="M607 116c-24 0 -44 7 -59 22c-16 14 -23 32 -19 55h-2c-17 -24 -39 -43 -67 -56c-27 -14 -55 -21 -84 -21c-39 0 -71 13 -96 39c-26 27 -39 60 -39 98c0 40 9 77 28 112c19 34 45 61 79 81c33 21 71 31 111 31c32 0 59 -9 80 -28s35 -40 41 -65h1l28 89h34l-78 -258
c-3 -10 -4 -19 -4 -27c0 -26 20 -41 48 -41c30 0 58 13 84 41c26 27 46 60 61 99c13 35 20 68 20 98c1 155 -143 254 -288 254c-51 0 -101 -11 -148 -32c-47 -22 -88 -50 -121 -86c-34 -35 -61 -77 -81 -125c-21 -47 -31 -97 -31 -148c0 -57 14 -107 40 -152
c25 -45 61 -79 106 -104c45 -24 96 -36 153 -36c35 0 72 6 111 19c38 13 72 30 101 51l14 -26c-30 -22 -66 -40 -108 -55c-42 -13 -82 -20 -119 -20c-62 0 -118 14 -168 40c-50 28 -89 66 -118 115c-28 50 -43 105 -43 167c0 55 11 108 33 160s51 97 88 136
c37 38 80 69 132 92c51 24 104 35 160 35c82 0 161 -29 220 -77c30 -24 53 -55 71 -91s27 -75 27 -116c0 -32 -7 -68 -21 -106c-15 -42 -38 -80 -67 -112s-69 -52 -110 -52zM455 445c-97 2 -183 -91 -180 -185c0 -34 10 -61 30 -81c21 -21 47 -31 79 -31c31 0 61 9 90 28
c28 19 50 43 67 73c16 30 24 60 24 91c0 30 -10 55 -32 75s-48 30 -78 30z" />
    <glyph glyph-name="A" unicode="A" horiz-adv-x="704" 
d="M508 729l127 -729h-38l-36 208h-421l-148 -208h-43l518 729h41zM556 243l-76 445l-315 -445h391z" />
    <glyph glyph-name="B" unicode="B" horiz-adv-x="681" 
d="M242 729h211c64 0 116 -14 156 -43s60 -69 60 -120c0 -56 -24 -104 -62 -136c-38 -31 -86 -51 -139 -59c92 -21 148 -73 148 -156c0 -63 -26 -114 -79 -155c-53 -40 -127 -60 -222 -60h-267zM449 694h-178l-81 -304h188c77 0 139 15 184 46s68 74 68 127
c0 42 -17 74 -49 97c-33 23 -77 34 -132 34zM371 354h-191l-85 -319h221c83 0 147 17 193 51s69 78 69 132c0 43 -19 77 -57 101c-38 23 -88 35 -150 35z" />
    <glyph glyph-name="C" unicode="C" horiz-adv-x="790" 
d="M720 247l35 -14c-30 -73 -76 -132 -139 -175c-62 -44 -136 -66 -221 -66c-58 0 -110 14 -157 41s-84 65 -110 114c-27 48 -40 103 -40 164c0 55 11 109 32 161c22 53 52 98 89 137c36 38 81 70 133 93c51 23 105 35 162 35c95 0 183 -41 241 -116c30 -37 48 -80 55 -128
l-35 -11c-10 65 -40 118 -90 158c-50 41 -109 62 -176 62c-50 0 -99 -11 -145 -33s-86 -50 -119 -86s-59 -78 -78 -125c-20 -48 -30 -96 -30 -146c0 -108 46 -198 129 -248c42 -25 90 -38 144 -38c74 0 138 20 193 61c55 40 97 93 127 160z" />
    <glyph glyph-name="D" unicode="D" horiz-adv-x="750" 
d="M245 0h-197l194 729h119c126 0 226 -36 289 -99c54 -53 80 -122 80 -207c0 -113 -41 -212 -114 -284c-44 -44 -98 -79 -163 -103s-134 -36 -208 -36zM691 420c0 75 -23 137 -70 185c-56 57 -147 89 -258 89h-92l-176 -659h155c140 0 251 42 336 125
c68 68 105 159 105 260z" />
    <glyph glyph-name="E" unicode="E" horiz-adv-x="608" 
d="M95 35h401l-9 -35h-439l194 729h435l-9 -35h-398l-80 -304h365l-10 -36h-365z" />
    <glyph glyph-name="F" unicode="F" horiz-adv-x="585" 
d="M242 729h432l-10 -35h-393l-84 -314h363l-10 -35h-362l-92 -345h-38z" />
    <glyph glyph-name="G" unicode="G" horiz-adv-x="805" 
d="M743 305h-340l9 35h375c-7 -54 -22 -103 -46 -147s-54 -81 -89 -109c-72 -59 -162 -92 -257 -92c-180 -2 -311 132 -308 311c0 238 189 434 410 434c73 0 139 -22 182 -53c21 -16 41 -34 57 -54c33 -41 49 -82 56 -120l-35 -11c-6 26 -14 53 -41 93c-13 21 -29 38 -46 54
c-19 15 -43 28 -73 39c-31 11 -64 17 -101 17c-132 1 -242 -73 -304 -172c-44 -68 -67 -148 -67 -226c0 -82 25 -149 75 -200c51 -52 116 -78 197 -78c60 0 114 13 162 38c46 24 86 57 117 98c35 45 57 92 67 143z" />
    <glyph glyph-name="H" unicode="H" horiz-adv-x="771" 
d="M790 729l-194 -729h-39l94 354h-470l-95 -354h-38l194 729h39l-91 -339h470l92 339h38z" />
    <glyph glyph-name="I" unicode="I" horiz-adv-x="261" 
d="M281 729l-195 -729h-38l194 729h39z" />
    <glyph glyph-name="J" unicode="J" horiz-adv-x="567" 
d="M219 -8c-59 0 -105 18 -139 52c-33 35 -50 79 -50 132c0 26 5 55 13 89l8 30l38 2l-11 -44c-7 -29 -10 -52 -10 -70c0 -47 14 -85 42 -113c28 -29 65 -43 110 -43c52 0 94 17 126 49c33 33 56 76 70 129l140 524h39l-141 -529c-37 -138 -115 -208 -235 -208z" />
    <glyph glyph-name="K" unicode="K" horiz-adv-x="601" 
d="M543 0h-50l-303 370h-5l-99 -370h-38l194 729h39l-91 -339h5l464 339h57l-485 -354z" />
    <glyph glyph-name="L" unicode="L" horiz-adv-x="528" 
d="M95 35h365l-10 -35h-402l194 729h39z" />
    <glyph glyph-name="M" unicode="M" horiz-adv-x="965" 
d="M790 0h-38l179 674l-494 -674h-34l-138 674l-180 -674h-37l194 729h48l139 -684l503 684h53z" />
    <glyph glyph-name="N" unicode="N" horiz-adv-x="796" 
d="M816 729l-195 -729h-42l-311 684l-183 -684h-37l194 729h46l309 -679l181 679h38z" />
    <glyph glyph-name="O" unicode="O" horiz-adv-x="825" 
d="M525 16c-126 -49 -275 -19 -353 66c-54 56 -86 135 -86 221c-1 133 67 265 167 346c67 55 154 88 243 88c60 0 114 -14 161 -42c48 -27 84 -65 110 -111c26 -48 39 -100 39 -158c0 -88 -29 -177 -79 -250c-51 -72 -118 -129 -202 -160zM396 26c51 0 99 12 146 34
c46 22 86 52 118 89c33 36 59 79 78 127c19 49 29 98 29 149c0 103 -47 191 -130 240c-42 25 -89 37 -142 37c-125 1 -235 -71 -300 -169c-46 -66 -71 -148 -71 -229c0 -52 11 -99 34 -140c22 -43 55 -76 97 -100c41 -25 88 -38 141 -38z" />
    <glyph glyph-name="P" unicode="P" horiz-adv-x="622" 
d="M321 300h-155l-80 -300h-38l194 729h175c77 0 137 -16 178 -49c41 -34 62 -79 62 -138c0 -74 -30 -133 -89 -177c-60 -43 -143 -65 -247 -65zM619 540c0 42 -13 76 -39 102c-35 35 -90 52 -165 52h-145l-95 -359h150c93 0 165 19 217 56c51 38 77 87 77 149z" />
    <glyph glyph-name="Q" unicode="Q" horiz-adv-x="827" 
d="M655 95l75 -82l-27 -23l-74 83c-72 -54 -149 -81 -234 -81c-90 0 -170 34 -223 90c-54 56 -86 135 -86 221c-1 133 67 265 167 346c67 55 154 88 243 88c60 0 114 -14 161 -42c48 -27 84 -65 110 -111c26 -48 39 -100 39 -158c0 -62 -13 -122 -40 -181
c-27 -58 -64 -108 -111 -150zM767 425c0 103 -47 191 -130 240c-42 25 -89 37 -142 37c-125 1 -235 -71 -300 -169c-46 -66 -71 -148 -71 -229c0 -52 11 -99 34 -140c22 -43 55 -76 97 -100c41 -25 88 -38 141 -38c77 0 147 24 210 73l-127 141l28 23l125 -142
c42 39 75 84 99 138c24 53 36 108 36 166z" />
    <glyph glyph-name="R" unicode="R" horiz-adv-x="653" 
d="M383 312l170 -312h-45l-166 309h-173l-83 -309h-38l194 729h182c76 0 136 -16 178 -48s63 -77 63 -135c0 -64 -26 -116 -62 -151c-50 -50 -124 -78 -220 -83zM626 543c0 96 -72 151 -205 151h-150l-93 -349h169c104 0 180 24 229 73c33 34 50 76 50 125z" />
    <glyph glyph-name="S" unicode="S" 
d="M286 -9c-130 -2 -239 110 -236 241l36 7c0 -60 19 -110 58 -151c38 -41 86 -62 144 -62c51 0 98 14 136 40s61 70 61 124c0 22 -7 43 -15 59c-10 15 -28 32 -41 43c-13 9 -41 26 -54 33c-7 4 -16 8 -28 14l-52 26c-16 8 -29 15 -40 22c-12 6 -25 15 -40 26
c-15 12 -27 22 -37 34c-19 22 -35 56 -35 90c0 62 29 115 73 148s102 51 164 51c48 0 88 -10 120 -29c33 -20 57 -45 75 -76c16 -30 25 -61 25 -90l-36 -7c-1 25 -8 64 -36 101c-27 35 -75 67 -149 66c-69 0 -130 -22 -168 -72c-20 -25 -29 -55 -29 -90c0 -28 13 -54 29 -73
c8 -9 19 -18 32 -28c28 -20 41 -26 72 -42l52 -26c23 -11 42 -22 58 -31c15 -10 31 -22 48 -37c33 -29 51 -66 51 -110c0 -64 -28 -117 -73 -150c-44 -33 -102 -51 -165 -51z" />
    <glyph glyph-name="T" unicode="T" horiz-adv-x="566" 
d="M674 729l-10 -35h-241l-185 -694h-38l185 694h-246l10 35h525z" />
    <glyph glyph-name="U" unicode="U" horiz-adv-x="729" 
d="M601 283l119 446h39l-121 -452c-24 -90 -59 -158 -105 -204c-54 -54 -120 -81 -198 -81c-71 0 -127 18 -169 54c-41 36 -62 87 -62 153c0 33 5 69 16 108l111 422h39l-116 -434c-9 -32 -13 -62 -13 -93c0 -55 18 -98 53 -129c35 -30 82 -46 143 -46c66 0 122 23 168 70
c42 42 74 104 96 186z" />
    <glyph glyph-name="V" unicode="V" horiz-adv-x="704" 
d="M759 729h43l-495 -729h-42l-111 729h39l102 -687z" />
    <glyph glyph-name="W" unicode="W" horiz-adv-x="1033" 
d="M691 46l397 683h42l-429 -729h-41l-34 670l-383 -670h-42l-47 729h38l42 -683l386 683h37z" />
    <glyph glyph-name="X" unicode="X" horiz-adv-x="641" 
d="M378 369l193 -369h-41l-179 345l-349 -345h-49l381 376l-185 353h40l172 -329l335 329h49z" />
    <glyph glyph-name="Y" unicode="Y" horiz-adv-x="668" 
d="M714 729h51l-402 -421l-82 -308h-39l85 317l-172 412h42l157 -381z" />
    <glyph glyph-name="Z" unicode="Z" horiz-adv-x="565" 
d="M653 695l-631 -660h458l-10 -35h-507l9 34l632 660h-441l9 35h491z" />
    <glyph glyph-name="bracketleft" unicode="[" horiz-adv-x="379" 
d="M265 -72l-9 -32h-242l237 899h242l-8 -33h-206l-220 -834h206z" />
    <glyph glyph-name="backslash" unicode="\" horiz-adv-x="438" 
d="M334 -5h-35l-122 763h35z" />
    <glyph glyph-name="bracketright" unicode="]" horiz-adv-x="379" 
d="M421 795l-236 -899h-242l8 32h206l220 834h-206l9 33h241z" />
    <glyph glyph-name="asciicircum" unicode="^" horiz-adv-x="514" 
d="M410 729l102 -309h-37l-89 274l-234 -274h-44l265 309h37z" />
    <glyph glyph-name="underscore" unicode="_" horiz-adv-x="487" 
d="M-85 -78h487l-9 -32h-486z" />
    <glyph glyph-name="grave" unicode="`" horiz-adv-x="87" 
d="M195 582h-29l-71 160h38z" />
    <glyph glyph-name="a" unicode="a" horiz-adv-x="635" 
d="M473 108l2 9v0c-21 -32 -51 -62 -92 -87c-40 -25 -84 -38 -132 -38c-58 0 -106 20 -143 59c-38 39 -57 89 -57 149c-1 157 118 306 276 306c60 0 111 -20 144 -51s54 -69 63 -110v0l41 152h36l-100 -381c-13 -51 -20 -90 -19 -116h-37c0 28 6 64 18 108zM330 472
c-69 0 -133 -34 -175 -84c-41 -51 -66 -118 -66 -183c0 -52 16 -95 47 -129c32 -33 72 -50 121 -50c34 0 68 8 101 24c32 16 60 37 82 62c23 25 41 53 55 84c14 30 20 60 20 89c0 54 -16 99 -50 134c-35 36 -80 53 -135 53z" />
    <glyph glyph-name="b" unicode="b" horiz-adv-x="634" 
d="M588 298c0 -78 -30 -156 -78 -212c-25 -28 -54 -51 -89 -68c-34 -17 -71 -26 -109 -26c-60 0 -112 20 -144 52c-33 31 -54 68 -63 109v0l-42 -153h-36l200 758h36l-99 -378v0c21 33 51 62 92 88c40 25 84 38 131 38c59 0 107 -20 144 -59c38 -40 57 -89 57 -149zM309 26
c35 0 67 8 98 24c30 15 56 35 77 60c41 51 66 117 66 183c0 52 -16 95 -47 129c-32 33 -72 50 -121 50c-35 0 -68 -8 -101 -24c-32 -16 -60 -37 -83 -62s-41 -53 -54 -83c-14 -31 -21 -61 -21 -90c0 -54 17 -98 52 -134c34 -35 79 -53 134 -53z" />
    <glyph glyph-name="c" unicode="c" horiz-adv-x="575" 
d="M273 -9c-65 0 -118 21 -159 62s-62 94 -62 160c0 50 13 97 38 142s60 81 104 109s91 42 141 42c55 0 102 -16 140 -46c38 -31 60 -71 69 -121l-35 -12c-6 43 -25 78 -57 105s-72 40 -122 40c-31 0 -62 -7 -91 -22c-30 -15 -56 -34 -77 -57c-43 -48 -71 -114 -71 -179
c0 -56 17 -101 51 -136s79 -52 135 -52c45 0 86 13 123 38c38 25 66 58 85 100l32 -14c-22 -50 -55 -89 -98 -116c-43 -29 -92 -43 -146 -43z" />
    <glyph glyph-name="d" unicode="d" horiz-adv-x="635" 
d="M644 758h36l-169 -642c-13 -49 -19 -88 -19 -116h-36c0 29 5 65 17 108l2 9v0c-21 -32 -51 -62 -92 -87c-40 -25 -84 -38 -132 -38c-58 0 -106 20 -143 59c-38 39 -57 89 -57 149c-1 157 118 306 276 306c60 0 112 -21 145 -52s53 -69 62 -110h1zM330 472
c-69 0 -133 -34 -175 -84c-41 -51 -66 -118 -66 -183c0 -52 16 -95 47 -129c32 -33 72 -50 121 -50c34 0 68 8 101 24c32 16 60 37 82 62c23 25 41 53 55 84c14 30 20 60 20 89c0 54 -16 99 -50 134c-35 36 -80 53 -135 53z" />
    <glyph glyph-name="e" unicode="e" horiz-adv-x="569" 
d="M520 242h-428c-1 -8 -2 -16 -2 -25c0 -55 17 -101 51 -137s79 -54 133 -54c88 0 154 42 199 125l30 -17c-52 -95 -129 -142 -232 -142c-64 0 -117 21 -157 63c-41 43 -61 96 -61 161c0 36 7 72 22 107c14 35 34 66 58 93s52 48 86 65s68 25 104 25c65 0 115 -19 150 -56
c34 -38 52 -90 52 -155c0 -12 -2 -30 -5 -53zM96 275h390c1 10 1 16 1 20c0 55 -14 98 -42 130c-29 31 -70 47 -125 47c-32 0 -64 -9 -97 -27c-33 -19 -60 -44 -83 -74c-24 -31 -38 -62 -44 -96z" />
    <glyph glyph-name="f" unicode="f" horiz-adv-x="297" 
d="M428 751l-9 -34c-13 6 -29 9 -49 9c-57 0 -97 -26 -115 -96l-35 -133h135l-10 -33h-134l-122 -464h-36l122 464h-94l9 33h94l37 142c22 81 69 121 151 121c23 0 42 -3 56 -9z" />
    <glyph glyph-name="g" unicode="g" horiz-adv-x="635" 
d="M537 351l39 146h36l-135 -514c-19 -73 -52 -130 -101 -171c-49 -40 -109 -61 -182 -61c-94 1 -157 41 -189 94c-23 35 -33 71 -34 107l35 8c0 -26 5 -53 23 -85c8 -17 20 -31 33 -44c27 -26 75 -45 133 -45c125 0 213 71 248 205l36 136h-1c-20 -31 -51 -58 -92 -82
c-41 -25 -85 -37 -131 -37c-56 0 -104 20 -142 60c-39 39 -58 87 -58 145c0 53 12 102 36 147s58 80 100 106c43 27 90 40 142 40c54 0 105 -20 139 -49s57 -67 65 -106v0zM520 294c0 50 -18 92 -53 126c-35 35 -79 51 -134 51c-71 0 -133 -30 -174 -77
c-41 -48 -66 -111 -66 -178c0 -50 16 -91 48 -124c33 -33 73 -49 121 -49c35 0 68 7 101 23c32 15 60 35 82 59c45 48 75 111 75 169z" />
    <glyph glyph-name="h" unicode="h" horiz-adv-x="587" 
d="M365 506c51 0 90 -15 119 -43c27 -29 41 -67 41 -113c0 -21 -4 -47 -12 -77l-71 -273h-37l74 276c6 22 8 46 8 72c0 77 -43 124 -131 124c-46 0 -90 -18 -132 -53s-71 -82 -87 -139l-74 -280h-36l200 758h36l-99 -377c22 36 50 66 84 89c33 24 72 36 117 36z" />
    <glyph glyph-name="i" unicode="i" horiz-adv-x="218" 
d="M158 497h37l-130 -497h-37zM218 632c-19 0 -33 13 -33 33c0 23 18 41 40 41c20 0 35 -13 35 -33c0 -23 -19 -41 -42 -41z" />
    <glyph glyph-name="j" unicode="j" horiz-adv-x="225" 
d="M166 497h36l-164 -625c-10 -38 -23 -65 -47 -87c-22 -22 -56 -33 -101 -33c-16 0 -30 2 -41 7l9 33c11 -4 22 -6 34 -6c35 0 62 10 78 29c17 18 26 36 33 62zM226 632c-20 0 -34 13 -34 33c0 23 19 41 41 41c20 0 34 -13 34 -33c0 -23 -18 -41 -41 -41z" />
    <glyph glyph-name="k" unicode="k" horiz-adv-x="470" 
d="M227 758h36l-125 -477h2l321 216h62l-348 -229l230 -268h-47l-223 262h-2l-69 -262h-37z" />
    <glyph glyph-name="l" unicode="l" horiz-adv-x="218" 
d="M264 758l-199 -758h-38l200 758h37z" />
    <glyph glyph-name="m" unicode="m" horiz-adv-x="904" 
d="M485 278l-74 -278h-36l72 273c8 32 13 58 13 78c0 76 -46 121 -119 121c-45 0 -87 -19 -125 -57c-38 -39 -64 -84 -78 -136l-74 -279h-36l130 497h37l-30 -116c21 34 40 59 71 85c30 25 70 40 114 40c43 0 77 -13 103 -39c25 -27 39 -60 40 -102c20 37 45 69 78 97
c33 27 78 44 125 44c44 0 79 -14 107 -42c27 -29 40 -65 40 -110c0 -21 -4 -48 -13 -81l-72 -273h-36l73 276c7 27 10 52 10 75c0 90 -60 121 -117 121c-45 0 -87 -19 -125 -58s-64 -84 -78 -136z" />
    <glyph glyph-name="n" unicode="n" horiz-adv-x="587" 
d="M365 506c51 0 91 -15 119 -43c28 -29 42 -67 42 -113c0 -21 -4 -47 -12 -77l-72 -273h-36l73 276c6 22 9 46 9 72c0 77 -44 124 -132 124c-58 0 -120 -31 -167 -90c-24 -30 -41 -64 -51 -102l-74 -280h-36l130 497h37l-31 -116c22 36 50 66 84 89c34 24 73 36 117 36z
" />
    <glyph glyph-name="o" unicode="o" horiz-adv-x="610" 
d="M273 -8c-65 0 -118 20 -159 62c-42 41 -63 93 -63 156c0 73 32 148 83 204c25 27 56 50 92 66c36 17 74 26 114 26c65 0 119 -21 161 -62s63 -93 63 -156c0 -50 -13 -98 -38 -143c-26 -45 -61 -82 -106 -110c-45 -29 -94 -43 -147 -43zM277 26c45 0 87 12 125 37
s68 57 90 97c22 39 33 81 33 125c0 55 -17 100 -51 135c-35 35 -80 52 -136 52c-45 0 -87 -12 -125 -37c-39 -25 -69 -57 -91 -97c-22 -39 -32 -81 -32 -124c0 -56 17 -101 51 -136c35 -35 80 -52 136 -52z" />
    <glyph glyph-name="p" unicode="p" horiz-adv-x="634" 
d="M588 298c0 -78 -30 -156 -78 -212c-24 -28 -54 -51 -88 -68c-35 -17 -71 -26 -110 -26c-124 0 -191 83 -207 162v0l-105 -399h-37l196 742h36l-31 -117h1c20 33 51 62 91 88c40 25 84 38 132 38c58 0 106 -20 144 -59c38 -40 56 -89 56 -149zM309 26c35 0 68 8 98 24
c31 15 57 35 77 60c41 51 66 117 66 183c0 52 -15 95 -47 129c-31 33 -72 50 -121 50c-34 0 -68 -8 -100 -24c-33 -16 -61 -37 -83 -62c-23 -25 -41 -53 -55 -83c-14 -31 -20 -61 -20 -90c0 -54 17 -98 51 -134c34 -35 79 -53 134 -53z" />
    <glyph glyph-name="q" unicode="q" horiz-adv-x="634" 
d="M51 200c-1 157 118 306 276 306c60 0 111 -20 144 -51s54 -69 63 -110v0l41 152h36l-195 -742h-36l95 363v0c-21 -33 -51 -62 -92 -88c-40 -25 -84 -38 -132 -38c-58 0 -106 20 -143 59c-38 39 -57 89 -57 149zM330 472c-69 0 -133 -34 -175 -84
c-41 -51 -66 -118 -66 -183c0 -52 16 -95 47 -129c32 -33 72 -50 121 -50c34 0 68 8 101 24c32 16 60 37 82 62c23 25 41 53 55 84c14 30 20 60 20 89c0 54 -16 99 -50 134c-35 36 -80 53 -135 53z" />
    <glyph glyph-name="r" unicode="r" horiz-adv-x="328" 
d="M387 504l-9 -38h-3c-59 0 -116 -26 -157 -66s-71 -90 -85 -141l-69 -259h-36l130 497h37l-34 -127h1c22 39 54 71 97 97s86 38 128 37z" />
    <glyph glyph-name="s" unicode="s" horiz-adv-x="456" 
d="M262 506c118 0 164 -82 170 -135l-34 -9c-6 39 -37 109 -137 109c-44 0 -85 -13 -112 -46c-14 -16 -21 -35 -21 -58c0 -22 9 -40 26 -53c16 -13 31 -21 53 -31l68 -28c69 -30 104 -70 104 -120c0 -46 -21 -85 -54 -108c-34 -23 -75 -36 -120 -36c-63 0 -113 23 -140 56
c-28 33 -41 70 -41 106l36 8c-1 -31 10 -62 31 -89c22 -27 63 -46 115 -46c46 0 88 14 115 47c14 17 21 37 21 60s-10 43 -28 58c-19 15 -35 24 -59 34l-64 27c-28 13 -48 24 -68 43c-20 17 -32 41 -32 69c0 30 9 56 26 78s38 38 64 48c25 11 52 16 81 16z" />
    <glyph glyph-name="t" unicode="t" horiz-adv-x="315" 
d="M346 497l-9 -33h-127l-87 -330c-5 -18 -7 -34 -7 -48c0 -43 27 -56 73 -56c11 0 24 1 40 5l-9 -35c-16 -3 -29 -5 -39 -5c-68 0 -102 30 -102 88c0 15 3 34 9 57l85 324h-95l9 33h94l38 142h37l-38 -142h128z" />
    <glyph glyph-name="u" unicode="u" 
d="M426 108l3 7c-23 -35 -51 -65 -84 -88c-35 -24 -73 -36 -117 -36c-52 0 -91 14 -119 44c-28 28 -42 66 -42 112c0 23 3 49 11 77l72 273h37l-73 -277c-7 -23 -10 -47 -10 -70c0 -78 45 -125 132 -125c46 0 89 18 132 53c42 35 71 82 86 139l74 280h37l-100 -381
c-13 -49 -20 -87 -19 -116h-36c0 29 5 65 16 108z" />
    <glyph glyph-name="v" unicode="v" horiz-adv-x="522" 
d="M523 497h42l-348 -497h-37l-88 497h37l77 -456z" />
    <glyph glyph-name="w" unicode="w" horiz-adv-x="797" 
d="M523 45l274 452h40l-305 -497h-38l-42 446l-276 -446h-37l-46 497h37l39 -452l277 452h37z" />
    <glyph glyph-name="x" unicode="x" horiz-adv-x="486" 
d="M525 497l-257 -244l136 -253h-39l-122 230l-238 -230h-48l271 258l-129 239h40l113 -217l225 217h48z" />
    <glyph glyph-name="y" unicode="y" horiz-adv-x="537" 
d="M538 497h43l-515 -742h-44l173 246l-106 496h39l94 -459z" />
    <glyph glyph-name="z" unicode="z" horiz-adv-x="457" 
d="M27 32h341l-9 -32h-389l8 31l454 434h-332l9 32h379l-8 -31z" />
    <glyph glyph-name="braceleft" unicode="{" horiz-adv-x="374" 
d="M165 170l-40 -97c-11 -28 -18 -46 -22 -66c-4 -21 -3 -32 4 -45c13 -24 56 -34 134 -34h19l-9 -32h-22c-110 0 -152 27 -161 69c-5 20 1 49 8 75c4 12 10 27 17 44l40 98c22 52 21 92 3 114s-45 33 -81 33h-12l9 32h8c36 0 70 11 100 34c30 22 53 62 59 113l12 106
c5 47 12 76 33 109c10 17 23 30 39 39c32 20 84 33 156 33h29l-8 -33h-17c-96 -2 -143 -15 -168 -54c-17 -27 -24 -52 -29 -98l-12 -100c-11 -96 -59 -151 -145 -164v-1c51 -10 70 -43 74 -77c3 -22 -3 -49 -8 -69c-3 -9 -6 -19 -10 -29z" />
    <glyph glyph-name="bar" unicode="|" horiz-adv-x="244" 
d="M49 -108h-36l247 938h35z" />
    <glyph glyph-name="braceright" unicode="}" horiz-adv-x="374" 
d="M265 520l40 98c14 32 20 52 24 74s-1 33 -13 46c-17 18 -59 24 -126 24h-19l9 33h22c109 0 151 -27 161 -69c5 -20 -1 -50 -8 -75c-5 -13 -10 -27 -17 -44l-40 -99c-44 -106 9 -147 78 -147h11l-8 -32h-8c-36 0 -70 -11 -101 -33c-30 -22 -52 -62 -58 -114l-12 -106
c-6 -47 -13 -76 -33 -109c-10 -16 -23 -29 -39 -39c-32 -19 -84 -32 -157 -32h-28l8 32h16c97 2 143 16 169 54c17 27 23 53 29 98l11 100c11 96 60 151 146 165v1c-60 14 -78 54 -75 98c2 31 9 53 18 76z" />
    <glyph glyph-name="asciitilde" unicode="~" horiz-adv-x="582" 
d="M200 360c29 0 62 -14 82 -25c9 -6 22 -15 37 -25s26 -18 32 -22c7 -5 16 -9 29 -14c12 -5 23 -8 33 -8c32 0 54 14 81 39l21 -22c-25 -32 -64 -53 -104 -53c-23 0 -52 13 -70 23c-8 5 -20 12 -34 22c-31 21 -53 34 -66 40c-16 6 -30 10 -44 10c-31 0 -53 -15 -80 -40
l-22 22c25 32 65 53 105 53z" />
    <glyph glyph-name="uni00A0" unicode="&#xa0;" horiz-adv-x="273" 
 />
    <glyph glyph-name="exclamdown" unicode="&#xa1;" horiz-adv-x="220" 
d="M175 506c19 0 33 -13 33 -33c0 -23 -18 -42 -41 -42c-20 0 -34 14 -34 34c0 23 18 41 42 41zM5 -231h-38l143 535h34z" />
    <glyph glyph-name="cent" unicode="&#xa2;" horiz-adv-x="588" 
d="M252 -7l-23 -88h-37l25 94c-49 12 -87 37 -116 76c-29 37 -44 84 -44 138c0 50 13 97 38 142s60 81 104 109s91 42 141 42c5 0 8 0 10 -1l23 88h37l-24 -91c44 -8 80 -27 109 -56s47 -65 54 -107l-34 -12c-11 73 -62 127 -139 142l-116 -442c10 -1 17 -1 22 -1
c45 0 86 13 124 38c37 25 65 58 84 100l32 -14c-22 -50 -54 -89 -97 -116c-44 -29 -92 -43 -146 -43c-9 0 -18 1 -27 2zM96 214c0 -46 12 -84 36 -117c23 -32 55 -54 95 -64l115 439h-6c-31 0 -62 -7 -92 -22s-55 -34 -77 -57c-42 -48 -71 -114 -71 -179z" />
    <glyph glyph-name="sterling" unicode="&#xa3;" horiz-adv-x="582" 
d="M485 173l37 -7c-9 -48 -31 -88 -66 -119c-36 -32 -78 -47 -128 -47h-330l10 36c70 46 119 90 149 134c29 44 44 90 44 139c0 10 -1 19 -1 29h-111l9 35h98c-1 7 -3 17 -5 32s-4 27 -6 35c-2 17 -5 45 -5 66c0 68 20 123 59 165c38 43 91 64 157 64c40 0 75 -8 105 -26
s51 -42 63 -74c8 -22 12 -44 11 -64v-9l-36 -5v10c0 42 -14 75 -39 99c-27 24 -62 35 -105 35c-56 0 -100 -18 -130 -55c-30 -36 -46 -83 -46 -140c0 -27 3 -52 10 -92c3 -20 5 -34 6 -41h205l-10 -35h-191c0 -12 1 -21 1 -27c0 -62 -25 -123 -62 -169
c-38 -47 -75 -78 -119 -107h266c41 0 76 13 105 39s47 59 55 99z" />
    <glyph glyph-name="currency" unicode="&#xa4;" horiz-adv-x="699" 
d="M214 85l-90 -90l-25 25l89 89c-37 41 -56 88 -56 142s19 102 56 143l-89 89l25 26l90 -90c41 32 87 48 140 48c52 0 98 -16 140 -48l89 90l25 -26l-88 -88c39 -41 58 -89 58 -144c0 -54 -19 -102 -58 -143l88 -88l-25 -25l-90 90c-41 -32 -87 -47 -139 -47
c-53 0 -99 16 -140 47zM485 123c36 33 54 76 54 128c0 53 -18 96 -54 130c-36 35 -80 52 -131 52c-52 0 -95 -17 -130 -51c-36 -35 -54 -78 -54 -131c0 -52 18 -95 53 -128c36 -34 79 -51 131 -51c51 0 95 17 131 51z" />
    <glyph glyph-name="yen" unicode="&#xa5;" horiz-adv-x="666" 
d="M758 729l-364 -390h191l-9 -34h-211l-35 -131h211l-9 -34h-212l-37 -140h-38l37 140h-213l9 34h213l35 131h-213l9 34h199l-155 390h42l148 -381l351 381h51z" />
    <glyph glyph-name="brokenbar" unicode="&#xa6;" horiz-adv-x="240" 
d="M163 466l96 364h35l-95 -364h-36zM47 -108h-35l95 363h36z" />
    <glyph glyph-name="section" unicode="&#xa7;" horiz-adv-x="593" 
d="M458 119c0 -37 -16 -67 -49 -91c-34 -24 -75 -36 -125 -36c-59 0 -108 15 -149 43c-41 29 -66 65 -75 107l36 9c7 -35 28 -64 61 -88c33 -25 77 -37 129 -37c39 0 72 9 98 27c25 17 37 39 37 65c0 29 -17 53 -52 74c-9 5 -18 10 -29 15c-12 5 -20 9 -26 12
c-6 2 -17 6 -33 12s-25 9 -27 10c-21 8 -38 14 -51 19s-28 13 -44 21c-16 9 -29 18 -39 27c-18 17 -34 44 -34 73c0 38 19 69 55 92c37 23 86 33 148 31v1c-55 28 -83 62 -83 104c0 36 16 66 49 91c34 24 75 35 125 35s95 -12 133 -37c39 -25 63 -57 73 -94l-36 -9
c-9 29 -28 55 -60 76c-31 21 -68 31 -111 31c-40 0 -73 -8 -98 -26s-37 -40 -37 -66c0 -29 17 -53 52 -74c8 -5 18 -10 29 -15s20 -9 25 -11c6 -2 17 -7 34 -13c16 -6 25 -9 27 -10c29 -11 42 -15 69 -27c26 -12 40 -21 58 -35c26 -21 38 -45 40 -78c0 -38 -18 -68 -54 -91
c-37 -23 -86 -34 -148 -32v-1c55 -28 82 -62 82 -104zM542 344c0 21 -11 41 -32 58c-20 18 -58 35 -112 54c-42 14 -81 21 -118 21c-49 0 -87 -9 -115 -27c-29 -19 -43 -40 -43 -66c0 -22 11 -41 32 -58s59 -35 113 -54c41 -14 80 -21 118 -21c49 0 87 9 115 28
c28 18 42 40 42 65z" />
    <glyph glyph-name="dieresis" unicode="&#xa8;" horiz-adv-x="195" 
d="M128 622c-20 0 -33 14 -33 33c0 24 17 42 40 42c20 0 33 -14 33 -33c0 -24 -18 -42 -40 -42zM274 622c-19 0 -33 14 -33 33c0 24 18 42 40 42c20 0 34 -14 34 -33c0 -24 -19 -42 -41 -42z" />
    <glyph glyph-name="copyright" unicode="&#xa9;" horiz-adv-x="868" 
d="M650 44c-56 -34 -117 -50 -183 -50s-127 16 -183 50c-56 33 -101 78 -133 135c-33 56 -49 119 -49 186c0 50 9 99 29 145c19 45 45 85 78 118c32 33 71 60 116 79c45 20 92 29 142 29c49 0 97 -9 142 -29c45 -19 84 -46 117 -79s59 -73 79 -118c19 -46 29 -95 29 -145
c0 -67 -17 -130 -49 -186c-34 -57 -78 -102 -135 -135zM467 705c-61 0 -116 -15 -167 -45s-92 -71 -121 -124c-30 -52 -45 -109 -45 -171c0 -46 9 -90 26 -132c18 -42 42 -78 71 -108c30 -30 65 -54 107 -72c41 -18 84 -27 129 -27s88 9 130 27c41 18 76 42 106 72
c29 30 53 66 71 108c17 42 26 86 26 132c0 62 -15 119 -45 171c-29 53 -70 94 -120 124c-52 30 -108 45 -168 45zM645 292l33 -11c-13 -37 -36 -71 -69 -98c-33 -28 -81 -46 -135 -46c-62 0 -114 22 -157 66s-64 98 -64 161c-3 124 100 232 222 229c48 0 91 -13 129 -41
c37 -27 61 -61 72 -100l-32 -11c-5 21 -21 47 -48 74c-26 26 -72 45 -122 45c-35 0 -66 -9 -95 -27s-51 -42 -67 -71c-16 -30 -23 -62 -23 -96c0 -67 32 -130 90 -168c28 -18 61 -28 96 -28c41 0 80 14 104 32c11 9 22 19 32 31c20 23 29 41 34 59z" />
    <glyph glyph-name="ordfeminine" unicode="&#xaa;" horiz-adv-x="534" 
d="M550 706l-70 -265c-8 -34 -13 -61 -12 -82h-33c0 22 4 49 12 80h-2c-16 -24 -36 -44 -60 -60c-25 -17 -53 -25 -86 -25c-41 0 -75 14 -102 41c-27 28 -40 63 -40 105c0 36 8 70 25 103c17 32 40 58 70 79c30 20 63 30 99 30c42 0 75 -13 96 -34c22 -22 34 -46 41 -75h2
l27 103h33zM353 680c-30 0 -58 -8 -83 -25c-25 -18 -45 -40 -58 -67s-20 -55 -20 -85c0 -34 11 -62 32 -84c20 -22 46 -33 79 -33c30 0 59 9 87 27c26 18 48 40 63 67c15 26 22 52 22 78c0 35 -11 65 -33 88s-52 34 -89 34zM449 244l-9 -32h-344l9 32h344z" />
    <glyph glyph-name="guillemotleft" unicode="&#xab;" horiz-adv-x="515" 
d="M188 118l-127 162l214 166l20 -26l-186 -145l106 -137zM383 118l-127 162l214 166l20 -26l-186 -145l106 -137z" />
    <glyph glyph-name="logicalnot" unicode="&#xac;" horiz-adv-x="601" 
d="M490 250l52 199h-433l7 28h463l-59 -227h-30z" />
    <glyph glyph-name="uni00AD" unicode="&#xad;" horiz-adv-x="427" 
d="M369 313l-9 -36h-274l9 36h274z" />
    <glyph glyph-name="registered" unicode="&#xae;" horiz-adv-x="593" 
d="M362 256c-42 0 -82 11 -118 32c-37 22 -65 51 -86 88c-22 37 -32 77 -32 120c0 66 27 128 69 170c42 43 103 70 167 70c128 3 240 -110 238 -240c2 -130 -110 -243 -238 -240zM362 710c-112 3 -209 -99 -207 -214c0 -58 20 -109 61 -151c40 -42 89 -63 146 -63
c58 0 107 21 147 63c41 42 61 92 61 151s-20 109 -61 152c-40 42 -89 62 -147 62zM475 358h-35l-76 112h-57v-112h-29v276h96c63 0 96 -34 96 -80c0 -45 -32 -74 -75 -79zM424 513c11 11 17 24 17 39c0 16 -6 29 -16 39c-12 11 -30 16 -54 16h-64v-111h64c23 0 41 5 53 17z
" />
    <glyph glyph-name="degree" unicode="&#xb0;" horiz-adv-x="434" 
d="M464 590c0 -50 -17 -92 -51 -127s-76 -53 -126 -53c-42 0 -76 14 -103 41c-28 27 -42 62 -42 105c0 49 18 91 52 127s75 53 124 53c42 0 77 -13 105 -41c27 -27 41 -62 41 -105zM432 590c0 32 -11 59 -32 81c-22 22 -50 33 -83 33c-84 1 -145 -75 -142 -149
c0 -33 10 -60 32 -81c21 -21 48 -32 82 -32c41 0 75 15 102 44c27 30 41 64 41 104z" />
    <glyph glyph-name="plusminus" unicode="&#xb1;" horiz-adv-x="594" 
d="M345 342l-53 -202h-37l54 202h-206l8 33h206l53 200h36l-52 -200h200l-9 -33h-200zM464 33l-9 -33h-442l8 33h443z" />
    <glyph glyph-name="uni00B2" unicode="&#xb2;" horiz-adv-x="429" 
d="M404 396h-290c14 67 62 121 145 162l87 42c61 30 92 67 92 109c0 26 -8 47 -25 64s-40 25 -72 25c-39 0 -71 -17 -87 -41c-17 -24 -25 -50 -25 -74l-35 4c0 30 12 63 36 92c23 29 65 50 113 50c41 0 72 -12 96 -35c23 -24 34 -52 34 -84c0 -56 -41 -102 -110 -136
l-88 -44c-53 -26 -91 -56 -111 -102h248z" />
    <glyph glyph-name="uni00B3" unicode="&#xb3;" horiz-adv-x="402" 
d="M255 386c-45 0 -82 19 -102 45s-30 55 -29 81l34 7c-2 -31 9 -62 41 -84c16 -11 35 -17 57 -17c34 0 63 10 87 30c24 19 36 46 36 79c0 57 -37 85 -110 85h-8l-8 29l176 148h-228l9 31h272l-9 -33l-173 -146c23 -1 44 -7 62 -18c34 -19 52 -51 52 -95
c0 -29 -8 -55 -24 -77c-15 -22 -35 -38 -58 -49c-24 -10 -49 -16 -77 -16z" />
    <glyph glyph-name="acute" unicode="&#xb4;" horiz-adv-x="173" 
d="M132 582h-37l147 160h45z" />
    <glyph glyph-name="uni00B5" unicode="&#xb5;" horiz-adv-x="620" 
d="M169 497h36l-73 -277c-7 -25 -10 -49 -10 -70c0 -77 44 -125 133 -125c45 0 90 18 132 53s71 82 86 139l74 280h37l-100 -381c-14 -49 -20 -87 -19 -116h-37c0 11 1 21 2 33c2 12 2 18 5 31c4 15 3 13 7 30c2 7 3 12 3 14l2 7c-22 -35 -50 -65 -84 -88
c-34 -24 -73 -36 -117 -36c-81 0 -130 39 -146 104h-1l-65 -248h-36z" />
    <glyph glyph-name="paragraph" unicode="&#xb6;" horiz-adv-x="451" 
d="M270 0h-39l92 349c-64 1 -114 16 -149 45s-53 68 -53 119c0 67 26 120 77 158c50 39 119 58 207 58h57z" />
    <glyph glyph-name="middot" unicode="&#xb7;" horiz-adv-x="235" 
d="M127 253c-22 0 -37 15 -37 36c0 25 20 45 45 45c21 0 36 -14 36 -36c0 -25 -19 -45 -44 -45z" />
    <glyph glyph-name="uni00B9" unicode="&#xb9;" horiz-adv-x="294" 
d="M365 820l-112 -424h-35l101 387l-153 -68l-11 26l175 79h35z" />
    <glyph glyph-name="ordmasculine" unicode="&#xba;" horiz-adv-x="528" 
d="M523 560c0 -35 -8 -68 -26 -100c-18 -31 -42 -57 -73 -76c-32 -20 -66 -30 -103 -30c-45 0 -82 14 -111 43c-30 28 -44 65 -44 109c0 51 22 104 57 142s89 64 145 64c45 0 82 -14 112 -43c29 -29 43 -65 43 -109zM487 556c0 37 -11 67 -33 90c-22 24 -52 35 -89 35
c-45 0 -83 -17 -115 -52c-33 -35 -49 -74 -49 -119c0 -36 11 -66 34 -90c23 -23 53 -35 90 -35c45 0 83 18 115 52c31 35 47 74 47 119zM443 244l-9 -32h-348l9 32h348z" />
    <glyph glyph-name="guillemotright" unicode="&#xbb;" horiz-adv-x="514" 
d="M154 446l126 -163l-212 -165l-21 26l187 145l-107 136zM349 446l127 -163l-213 -165l-21 26l187 145l-106 136z" />
    <glyph glyph-name="onequarter" unicode="&#xbc;" horiz-adv-x="770" 
d="M741 729l-630 -729h-44l632 729h42zM353 729l-111 -424h-35l101 387l-153 -69l-11 27l175 79h34zM690 94h-72l-25 -94h-34l25 94h-234l9 34l310 297h36l-80 -300h73zM592 125l66 250l-261 -250h195z" />
    <glyph glyph-name="onehalf" unicode="&#xbd;" horiz-adv-x="828" 
d="M741 729l-630 -729h-44l632 729h42zM353 729l-111 -424h-35l101 387l-153 -69l-11 27l175 79h34zM720 0h-290c14 67 62 121 145 162l87 43c62 30 93 66 93 108c0 26 -9 47 -25 64c-17 17 -41 25 -72 25c-84 0 -113 -72 -113 -115l-34 4c0 30 12 63 35 92
c24 29 65 50 114 50c40 0 72 -12 95 -36c24 -23 35 -51 35 -83c0 -55 -42 -102 -111 -136l-88 -43c-56 -28 -92 -62 -110 -103h248z" />
    <glyph glyph-name="threequarters" unicode="&#xbe;" horiz-adv-x="861" 
d="M222 295c-45 0 -82 19 -102 45c-20 25 -30 55 -29 81l34 7c-2 -32 9 -63 40 -84c16 -12 35 -17 58 -17c34 0 63 10 87 29c24 20 35 47 35 80c0 57 -36 85 -109 85h-8l-8 29l176 147h-228l8 32h273l-9 -34l-174 -145c24 -2 45 -8 63 -18c34 -20 51 -51 51 -95
s-15 -78 -47 -104c-31 -25 -68 -38 -111 -38zM835 729l-630 -729h-44l632 729h42zM784 94h-72l-25 -94h-34l25 94h-234l9 34l310 297h36l-79 -300h72zM686 125l66 250l-261 -250h195z" />
    <glyph glyph-name="questiondown" unicode="&#xbf;" horiz-adv-x="501" 
d="M338 495c14 -15 14 -38 0 -52c-14 -15 -37 -15 -51 0c-14 14 -14 37 0 52s37 15 51 0zM250 304h39c-12 -72 -72 -132 -125 -173c-18 -14 -37 -29 -58 -46s-39 -31 -51 -44c-37 -36 -55 -74 -55 -116c0 -37 15 -68 45 -92c29 -24 65 -37 108 -37c58 0 112 24 145 59
c34 35 54 80 54 125l38 -3c-2 -60 -26 -111 -71 -153c-46 -42 -102 -63 -169 -63c-52 0 -97 15 -134 46c-37 32 -56 70 -56 116c0 50 22 97 64 141c13 13 29 27 49 43s38 30 55 43c17 12 34 26 51 42c33 30 59 69 71 112z" />
    <glyph glyph-name="Agrave" unicode="&#xc0;" horiz-adv-x="704" 
d="M408 956h37l63 -161h-29zM597 0l-36 208h-421l-148 -208h-43l518 729h41l127 -729h-38zM165 243h391l-76 445z" />
    <glyph glyph-name="Aacute" unicode="&#xc1;" horiz-adv-x="704" 
d="M507 795h-37l147 161h45zM597 0l-36 208h-421l-148 -208h-43l518 729h41l127 -729h-38zM165 243h391l-76 445z" />
    <glyph glyph-name="Acircumflex" unicode="&#xc2;" horiz-adv-x="704" 
d="M597 0l-36 208h-421l-148 -208h-43l518 729h41l127 -729h-38zM165 243h391l-76 445zM604 796l-72 132l-143 -133h-40l166 161h40l82 -160h-33z" />
    <glyph glyph-name="Atilde" unicode="&#xc3;" horiz-adv-x="704" 
d="M665 885l24 -8c-10 -22 -23 -42 -39 -57c-16 -16 -34 -24 -54 -24c-24 0 -50 16 -66 32c-17 16 -41 31 -63 31c-25 0 -48 -19 -67 -57l-25 11c26 52 58 78 96 78c26 0 53 -16 69 -31c17 -15 40 -31 60 -31c27 0 50 26 65 56zM597 0l-36 208h-421l-148 -208h-43l518 729
h41l127 -729h-38zM165 243h391l-76 445z" />
    <glyph glyph-name="Adieresis" unicode="&#xc4;" horiz-adv-x="704" 
d="M409 847c-14 14 -14 38 0 53c14 14 36 14 51 0c14 -15 14 -39 0 -53c-15 -15 -37 -15 -51 0zM565 847c-25 21 -6 65 25 63c20 0 36 -16 36 -37c0 -20 -16 -37 -36 -37c-10 0 -19 4 -25 11zM597 0l-36 208h-421l-148 -208h-43l518 729h41l127 -729h-38zM165 243h391
l-76 445z" />
    <glyph glyph-name="Aring" unicode="&#xc5;" horiz-adv-x="704" 
d="M586 798c0 -23 -6 -44 -20 -62c-14 -17 -31 -30 -53 -36l122 -700h-38l-36 208h-421l-148 -208h-43l500 703c-29 13 -47 41 -47 76c0 28 10 52 29 72c20 20 44 30 72 30c24 0 44 -7 60 -23s23 -36 23 -60zM554 797c0 30 -23 54 -54 54c-18 0 -34 -7 -47 -22
c-13 -14 -19 -31 -19 -49c0 -31 22 -54 53 -54c19 0 35 7 48 21s19 31 19 50zM480 688l-315 -445h391z" />
    <glyph glyph-name="AE" unicode="&#xc6;" horiz-adv-x="957" 
d="M469 208h-304l-181 -208h-47l636 729h453l-9 -35h-380l-81 -304h348l-10 -36h-348l-85 -319h384l-9 -35h-423zM478 243l121 451h-12l-392 -451h283z" />
    <glyph glyph-name="Ccedilla" unicode="&#xc7;" horiz-adv-x="790" 
d="M407 0h-36c4 -3 7 -5 8 -7c-84 3 -158 39 -209 94s-82 135 -82 224c0 55 11 109 32 161c22 53 52 98 89 137c36 38 81 70 133 93c51 23 105 35 162 35c95 0 183 -41 241 -116c30 -37 48 -80 55 -128l-35 -11c-10 65 -40 118 -90 158c-50 41 -109 62 -176 62
c-50 0 -99 -11 -145 -33s-86 -50 -119 -86s-59 -78 -78 -125c-20 -48 -30 -96 -30 -146c0 -108 46 -198 129 -248c42 -25 90 -38 144 -38c74 0 138 20 193 61c55 40 97 93 127 160l35 -14c-29 -70 -73 -127 -132 -170c-58 -43 -128 -67 -208 -70c-1 2 -4 4 -8 7zM395 -8
c-3 0 -12 1 -16 1c26 -25 38 -53 38 -82c0 -31 -10 -55 -32 -74c-21 -19 -48 -29 -80 -29c-25 0 -50 5 -75 14l-7 -28c21 -13 50 -19 87 -19c40 0 74 12 102 36c27 24 41 57 41 97c0 29 -16 62 -38 85c-4 0 -15 -1 -20 -1z" />
    <glyph glyph-name="Egrave" unicode="&#xc8;" horiz-adv-x="608" 
d="M388 956h37l63 -161h-30zM95 35h401l-9 -35h-439l194 729h435l-9 -35h-398l-80 -304h365l-10 -36h-365z" />
    <glyph glyph-name="Eacute" unicode="&#xc9;" horiz-adv-x="608" 
d="M480 795h-37l147 161h45zM487 0h-439l194 729h435l-9 -35h-398l-80 -304h365l-10 -36h-365l-85 -319h401z" />
    <glyph glyph-name="Ecircumflex" unicode="&#xca;" horiz-adv-x="608" 
d="M487 0h-439l194 729h435l-9 -35h-398l-80 -304h365l-10 -36h-365l-85 -319h401zM582 796l-72 132l-143 -133h-40l166 161h40l82 -160h-33z" />
    <glyph glyph-name="Edieresis" unicode="&#xcb;" horiz-adv-x="608" 
d="M385 847c-24 21 -6 65 25 63c20 0 36 -16 36 -37c0 -20 -16 -37 -36 -37c-10 0 -19 4 -25 11zM540 847c-14 14 -14 38 0 53c14 14 37 14 51 0c14 -15 14 -39 0 -53c-14 -15 -37 -15 -51 0zM487 0h-439l194 729h435l-9 -35h-398l-80 -304h365l-10 -36h-365l-85 -319h401z
" />
    <glyph glyph-name="Igrave" unicode="&#xcc;" horiz-adv-x="261" 
d="M185 956h37l63 -161h-30zM281 729l-195 -729h-38l194 729h39z" />
    <glyph glyph-name="Iacute" unicode="&#xcd;" horiz-adv-x="261" 
d="M294 795h-37l147 161h45zM48 0l194 729h39l-195 -729h-38z" />
    <glyph glyph-name="Icircumflex" unicode="&#xce;" horiz-adv-x="261" 
d="M48 0l194 729h39l-195 -729h-38zM385 796l-72 132l-143 -133h-40l166 161h40l83 -160h-34z" />
    <glyph glyph-name="Idieresis" unicode="&#xcf;" horiz-adv-x="261" 
d="M199 847c-14 14 -14 38 0 53c14 14 37 14 51 0c14 -15 14 -39 0 -53c-14 -15 -37 -15 -51 0zM342 847c-24 21 -6 65 25 63c20 0 36 -16 36 -37c0 -20 -16 -37 -36 -37c-10 0 -18 4 -25 11zM48 0l194 729h39l-195 -729h-38z" />
    <glyph glyph-name="Eth" unicode="&#xd0;" horiz-adv-x="763" 
d="M258 0h-198l95 354h-76l9 36h77l90 339h119c126 0 226 -36 289 -99c53 -53 80 -122 80 -207c0 -113 -42 -212 -114 -284c-44 -44 -99 -79 -163 -103c-65 -24 -134 -36 -208 -36zM704 420c0 75 -24 137 -70 185c-56 57 -147 89 -258 89h-92l-81 -304h253l-9 -36h-253
l-86 -319h155c139 0 251 42 336 125c67 68 105 159 105 260z" />
    <glyph glyph-name="Ntilde" unicode="&#xd1;" horiz-adv-x="796" 
d="M688 885l24 -8c-10 -22 -23 -42 -39 -57c-16 -16 -33 -24 -54 -24c-24 0 -50 16 -66 32c-17 16 -41 31 -63 31c-25 0 -48 -19 -67 -57l-25 11c26 52 58 78 96 78c26 0 53 -16 70 -31c16 -15 39 -31 59 -31c27 0 50 26 65 56zM816 729l-195 -729h-42l-311 684l-183 -684
h-37l194 729h46l309 -679l181 679h38z" />
    <glyph glyph-name="Ograve" unicode="&#xd2;" horiz-adv-x="825" 
d="M421 956h38l62 -161h-29zM525 16c-126 -49 -275 -19 -353 66c-54 56 -86 135 -86 221c-1 133 67 265 167 346c67 55 154 88 243 88c60 0 114 -14 161 -42c48 -27 84 -65 110 -111c26 -48 39 -100 39 -158c0 -88 -29 -177 -79 -250c-51 -72 -118 -129 -202 -160zM396 26
c51 0 99 12 146 34c46 22 86 52 118 89c33 36 59 79 78 127c19 49 29 98 29 149c0 103 -47 191 -130 240c-42 25 -89 37 -142 37c-125 1 -235 -71 -300 -169c-46 -66 -71 -148 -71 -229c0 -52 11 -99 34 -140c22 -43 55 -76 97 -100c41 -25 88 -38 141 -38z" />
    <glyph glyph-name="Oacute" unicode="&#xd3;" horiz-adv-x="825" 
d="M520 795h-37l147 161h45zM525 16c-126 -49 -275 -19 -353 66c-54 56 -86 135 -86 221c-1 133 67 265 167 346c67 55 154 88 243 88c60 0 114 -14 161 -42c48 -27 84 -65 110 -111c26 -48 39 -100 39 -158c0 -88 -29 -177 -79 -250c-51 -72 -118 -129 -202 -160zM396 26
c51 0 99 12 146 34c46 22 86 52 118 89c33 36 59 79 78 127c19 49 29 98 29 149c0 103 -47 191 -130 240c-42 25 -89 37 -142 37c-125 1 -235 -71 -300 -169c-46 -66 -71 -148 -71 -229c0 -52 11 -99 34 -140c22 -43 55 -76 97 -100c41 -25 88 -38 141 -38z" />
    <glyph glyph-name="Ocircumflex" unicode="&#xd4;" horiz-adv-x="825" 
d="M525 16c-126 -49 -275 -19 -353 66c-54 56 -86 135 -86 221c-1 133 67 265 167 346c67 55 154 88 243 88c60 0 114 -14 161 -42c48 -27 84 -65 110 -111c26 -48 39 -100 39 -158c0 -88 -29 -177 -79 -250c-51 -72 -118 -129 -202 -160zM396 26c51 0 99 12 146 34
c46 22 86 52 118 89c33 36 59 79 78 127c19 49 29 98 29 149c0 103 -47 191 -130 240c-42 25 -89 37 -142 37c-125 1 -235 -71 -300 -169c-46 -66 -71 -148 -71 -229c0 -52 11 -99 34 -140c22 -43 55 -76 97 -100c41 -25 88 -38 141 -38zM615 796l-73 132l-143 -133h-39
l165 161h40l83 -160h-33z" />
    <glyph glyph-name="Otilde" unicode="&#xd5;" horiz-adv-x="825" 
d="M653 885l24 -8c-10 -22 -23 -42 -39 -57c-16 -16 -33 -24 -54 -24c-24 0 -50 16 -66 32c-17 16 -41 31 -63 31c-25 0 -48 -19 -67 -57l-25 11c26 52 58 78 96 78c26 0 53 -16 70 -31c16 -15 39 -31 59 -31c27 0 50 26 65 56zM525 16c-126 -49 -275 -19 -353 66
c-54 56 -86 135 -86 221c-1 133 67 265 167 346c67 55 154 88 243 88c60 0 114 -14 161 -42c48 -27 84 -65 110 -111c26 -48 39 -100 39 -158c0 -88 -29 -177 -79 -250c-51 -72 -118 -129 -202 -160zM396 26c51 0 99 12 146 34c46 22 86 52 118 89c33 36 59 79 78 127
c19 49 29 98 29 149c0 103 -47 191 -130 240c-42 25 -89 37 -142 37c-125 1 -235 -71 -300 -169c-46 -66 -71 -148 -71 -229c0 -52 11 -99 34 -140c22 -43 55 -76 97 -100c41 -25 88 -38 141 -38z" />
    <glyph glyph-name="Odieresis" unicode="&#xd6;" horiz-adv-x="825" 
d="M427 847c-23 21 -5 65 25 63c20 0 37 -16 37 -37c0 -20 -17 -37 -37 -37c-9 0 -18 4 -25 11zM583 847c-14 14 -14 38 0 53c14 14 37 14 51 0c14 -15 14 -39 0 -53c-14 -15 -37 -15 -51 0zM525 16c-126 -49 -275 -19 -353 66c-54 56 -86 135 -86 221
c-1 133 67 265 167 346c67 55 154 88 243 88c60 0 114 -14 161 -42c48 -27 84 -65 110 -111c26 -48 39 -100 39 -158c0 -88 -29 -177 -79 -250c-51 -72 -118 -129 -202 -160zM396 26c51 0 99 12 146 34c46 22 86 52 118 89c33 36 59 79 78 127c19 49 29 98 29 149
c0 103 -47 191 -130 240c-42 25 -89 37 -142 37c-125 1 -235 -71 -300 -169c-46 -66 -71 -148 -71 -229c0 -52 11 -99 34 -140c22 -43 55 -76 97 -100c41 -25 88 -38 141 -38z" />
    <glyph glyph-name="multiply" unicode="&#xd7;" horiz-adv-x="530" 
d="M531 484l-230 -191l134 -184l-26 -20l-134 182l-220 -182l-21 26l221 184l-140 191l26 21l140 -191l229 191z" />
    <glyph glyph-name="Oslash" unicode="&#xd8;" horiz-adv-x="825" 
d="M806 718l-77 -80c49 -56 77 -130 77 -212c1 -133 -67 -265 -168 -345c-67 -56 -154 -89 -243 -89c-88 0 -160 28 -218 85l-88 -90l-25 25l90 91c-45 56 -68 123 -68 200c-1 133 67 265 167 346c67 55 154 88 243 88c82 0 151 -25 207 -74l78 79zM495 702
c-125 1 -235 -71 -300 -169c-46 -66 -71 -148 -71 -229c0 -68 19 -126 56 -174l498 506c-49 44 -110 66 -183 66zM396 26c51 0 99 12 146 34c46 22 86 52 118 89c33 36 59 79 78 127c19 49 29 98 29 149c0 74 -22 136 -65 187l-500 -509c51 -51 116 -77 194 -77z" />
    <glyph glyph-name="Ugrave" unicode="&#xd9;" horiz-adv-x="729" 
d="M423 956h37l63 -161h-29zM601 283l119 446h39l-121 -452c-24 -90 -59 -158 -105 -204c-54 -54 -120 -81 -198 -81c-71 0 -127 18 -169 54c-41 36 -62 87 -62 153c0 31 5 67 16 108l111 422h39l-116 -434c-9 -32 -13 -62 -13 -93c0 -55 18 -98 53 -129
c35 -30 82 -46 143 -46c66 0 122 23 168 70c42 43 75 104 96 186z" />
    <glyph glyph-name="Uacute" unicode="&#xda;" horiz-adv-x="729" 
d="M518 795h-37l147 161h45zM720 729h39l-121 -452c-24 -90 -59 -158 -105 -204c-54 -54 -120 -81 -198 -81c-71 0 -127 18 -169 54c-41 36 -62 87 -62 153c0 31 5 67 16 108l111 422h39l-116 -434c-9 -32 -13 -62 -13 -93c0 -55 18 -98 53 -129c35 -30 82 -46 143 -46
c66 0 122 23 168 70c42 43 75 104 96 186z" />
    <glyph glyph-name="Ucircumflex" unicode="&#xdb;" horiz-adv-x="729" 
d="M720 729h39l-121 -452c-24 -90 -59 -158 -105 -204c-54 -54 -120 -81 -198 -81c-71 0 -127 18 -169 54c-41 36 -62 87 -62 153c0 31 5 67 16 108l111 422h39l-116 -434c-9 -32 -13 -62 -13 -93c0 -55 18 -98 53 -129c35 -30 82 -46 143 -46c66 0 122 23 168 70
c42 43 75 104 96 186zM616 796l-72 132l-144 -133h-39l165 161h41l82 -160h-33z" />
    <glyph glyph-name="Udieresis" unicode="&#xdc;" horiz-adv-x="729" 
d="M427 847c-24 21 -6 65 25 63c20 0 36 -16 36 -37c0 -20 -16 -37 -36 -37c-10 0 -18 4 -25 11zM582 847c-14 14 -14 38 0 53c14 14 37 14 51 0c14 -15 14 -39 0 -53c-14 -15 -37 -15 -51 0zM720 729h39l-121 -452c-24 -90 -59 -158 -105 -204c-54 -54 -120 -81 -198 -81
c-71 0 -127 18 -169 54c-41 36 -62 87 -62 153c0 31 5 67 16 108l111 422h39l-116 -434c-9 -32 -13 -62 -13 -93c0 -55 18 -98 53 -129c35 -30 82 -46 143 -46c66 0 122 23 168 70c42 43 75 104 96 186z" />
    <glyph glyph-name="Yacute" unicode="&#xdd;" horiz-adv-x="668" 
d="M458 795h-37l147 161h45zM363 308l-82 -308h-39l85 317l-172 412h42l157 -381l360 381h51z" />
    <glyph glyph-name="Thorn" unicode="&#xde;" horiz-adv-x="618" 
d="M242 585h135c78 0 138 -17 179 -50c42 -33 63 -79 63 -137c0 -74 -30 -133 -90 -177s-142 -66 -246 -66h-156l-41 -155h-38l194 730h39zM580 395c0 43 -12 76 -38 102c-35 35 -90 53 -166 53h-144l-96 -360h151c92 0 164 19 216 57c52 37 77 87 77 148z" />
    <glyph glyph-name="germandbls" unicode="&#xdf;" horiz-adv-x="597" 
d="M496 121c0 24 -7 44 -22 60c-15 17 -24 24 -44 38l-29 21c-42 30 -65 56 -65 100c0 47 27 83 80 107l47 21c64 29 98 74 98 130c0 58 -31 99 -73 117c-22 8 -46 12 -73 12c-115 0 -176 -62 -207 -179l-144 -548h-36l145 552c17 68 46 119 84 155c39 36 92 53 159 53
c58 0 103 -15 135 -46c32 -32 48 -70 48 -115c0 -40 -14 -78 -39 -104c-25 -25 -51 -44 -83 -58l-41 -19c-20 -9 -34 -18 -41 -25c-15 -14 -21 -31 -21 -52c0 -23 14 -45 25 -55c5 -5 13 -11 23 -18l31 -22c57 -41 79 -78 79 -123c0 -29 -11 -59 -35 -86
c-23 -27 -68 -45 -123 -45c-74 0 -117 35 -135 73c-15 27 -19 50 -18 69l35 2c-1 -19 6 -43 23 -68c16 -24 51 -43 96 -43c39 0 68 10 90 29c20 19 31 41 31 67z" />
    <glyph glyph-name="agrave" unicode="&#xe0;" horiz-adv-x="635" 
d="M256 742h38l62 -160h-29zM475 117c-21 -32 -51 -62 -92 -87c-40 -25 -84 -38 -132 -38c-58 0 -106 20 -143 59c-38 39 -57 89 -57 149c-1 157 118 306 276 306c60 0 111 -20 144 -51s54 -69 63 -110v0l41 152h36l-100 -381c-13 -51 -20 -90 -19 -116h-37
c0 28 6 64 18 108zM330 472c-69 0 -133 -34 -175 -84c-41 -51 -66 -118 -66 -183c0 -52 16 -95 47 -129c32 -33 72 -50 121 -50c34 0 68 8 101 24c32 16 60 37 82 62c23 25 41 53 55 84c14 30 20 60 20 89c0 54 -16 99 -50 134c-35 36 -80 53 -135 53z" />
    <glyph glyph-name="aacute" unicode="&#xe1;" horiz-adv-x="635" 
d="M364 582h-37l147 160h45zM475 117c-21 -32 -51 -62 -92 -87c-40 -25 -84 -38 -132 -38c-58 0 -106 20 -143 59c-38 39 -57 89 -57 149c-1 157 118 306 276 306c60 0 111 -20 144 -51s54 -69 63 -110v0l41 152h36l-100 -381c-13 -51 -20 -90 -19 -116h-37
c0 28 6 64 18 108zM330 472c-69 0 -133 -34 -175 -84c-41 -51 -66 -118 -66 -183c0 -52 16 -95 47 -129c32 -33 72 -50 121 -50c34 0 68 8 101 24c32 16 60 37 82 62c23 25 41 53 55 84c14 30 20 60 20 89c0 54 -16 99 -50 134c-35 36 -80 53 -135 53z" />
    <glyph glyph-name="acircumflex" unicode="&#xe2;" horiz-adv-x="635" 
d="M475 117c-21 -32 -51 -62 -92 -87c-40 -25 -84 -38 -132 -38c-58 0 -106 20 -143 59c-38 39 -57 89 -57 149c-1 157 118 306 276 306c60 0 111 -20 144 -51s54 -69 63 -110v0l41 152h36l-100 -381c-13 -51 -20 -90 -19 -116h-37c0 28 6 64 18 108zM330 472
c-69 0 -133 -34 -175 -84c-41 -51 -66 -118 -66 -183c0 -52 16 -95 47 -129c32 -33 72 -50 121 -50c34 0 68 8 101 24c32 16 60 37 82 62c23 25 41 53 55 84c14 30 20 60 20 89c0 54 -16 99 -50 134c-35 36 -80 53 -135 53zM473 582l-72 132l-143 -132h-40l166 160h40
l82 -160h-33z" />
    <glyph glyph-name="atilde" unicode="&#xe3;" horiz-adv-x="635" 
d="M514 672l24 -9c-10 -22 -23 -41 -38 -57c-16 -16 -34 -23 -55 -23c-23 0 -50 15 -66 31s-41 31 -62 31c-26 0 -48 -19 -68 -57l-24 12c25 51 57 77 95 77c26 0 54 -15 70 -31c16 -15 40 -31 59 -31c27 0 51 26 65 57zM475 117c-21 -32 -51 -62 -92 -87
c-40 -25 -84 -38 -132 -38c-58 0 -106 20 -143 59c-38 39 -57 89 -57 149c-1 157 118 306 276 306c60 0 111 -20 144 -51s54 -69 63 -110v0l41 152h36l-100 -381c-13 -51 -20 -90 -19 -116h-37c0 28 6 64 18 108zM330 472c-69 0 -133 -34 -175 -84
c-41 -51 -66 -118 -66 -183c0 -52 16 -95 47 -129c32 -33 72 -50 121 -50c34 0 68 8 101 24c32 16 60 37 82 62c23 25 41 53 55 84c14 30 20 60 20 89c0 54 -16 99 -50 134c-35 36 -80 53 -135 53z" />
    <glyph glyph-name="adieresis" unicode="&#xe4;" horiz-adv-x="635" 
d="M315 622c-20 0 -33 14 -33 33c0 24 17 42 40 42c20 0 33 -14 33 -33c0 -24 -18 -42 -40 -42zM461 622c-19 0 -32 14 -32 33c0 24 17 42 40 42c19 0 33 -14 33 -33c0 -24 -18 -42 -41 -42zM475 117c-21 -32 -51 -62 -92 -87c-40 -25 -84 -38 -132 -38
c-58 0 -106 20 -143 59c-38 39 -57 89 -57 149c-1 157 118 306 276 306c60 0 111 -20 144 -51s54 -69 63 -110v0l41 152h36l-100 -381c-13 -51 -20 -90 -19 -116h-37c0 28 6 64 18 108zM330 472c-69 0 -133 -34 -175 -84c-41 -51 -66 -118 -66 -183c0 -52 16 -95 47 -129
c32 -33 72 -50 121 -50c34 0 68 8 101 24c32 16 60 37 82 62c23 25 41 53 55 84c14 30 20 60 20 89c0 54 -16 99 -50 134c-35 36 -80 53 -135 53z" />
    <glyph glyph-name="aring" unicode="&#xe5;" horiz-adv-x="635" 
d="M480 665c0 -29 -9 -53 -29 -73c-19 -20 -43 -30 -72 -30c-24 0 -44 8 -59 23c-16 16 -24 36 -24 60c0 29 10 53 29 73c20 20 44 30 72 30c24 0 44 -8 60 -23c16 -16 23 -36 23 -60zM448 664c0 30 -23 54 -53 54c-19 0 -35 -8 -48 -22c-13 -15 -19 -31 -19 -50
c0 -31 22 -53 53 -53c19 0 35 7 48 21s19 31 19 50zM475 117c-21 -32 -51 -62 -92 -87c-40 -25 -84 -38 -132 -38c-58 0 -106 20 -143 59c-38 39 -57 89 -57 149c-1 157 118 306 276 306c60 0 111 -20 144 -51s54 -69 63 -110v0l41 152h36l-100 -381
c-13 -51 -20 -90 -19 -116h-37c0 28 6 64 18 108zM330 472c-69 0 -133 -34 -175 -84c-41 -51 -66 -118 -66 -183c0 -52 16 -95 47 -129c32 -33 72 -50 121 -50c34 0 68 8 101 24c32 16 60 37 82 62c23 25 41 53 55 84c14 30 20 60 20 89c0 54 -16 99 -50 134
c-35 36 -80 53 -135 53z" />
    <glyph glyph-name="ae" unicode="&#xe6;" horiz-adv-x="893" 
d="M379 242l-135 -3c-46 -2 -84 -9 -122 -27c-37 -18 -61 -52 -61 -97c0 -26 12 -48 34 -65c23 -17 51 -25 84 -25c44 0 84 13 120 39s64 59 84 99c-4 17 -6 34 -6 53c0 9 1 18 2 26zM176 -9c-78 -1 -153 44 -153 124c0 111 112 153 218 156l143 4c9 40 25 77 49 110
c-5 26 -18 47 -41 63c-22 16 -49 24 -81 24c-49 0 -91 -16 -118 -35c-13 -10 -25 -22 -35 -34c-21 -26 -29 -45 -34 -63l-35 11c7 22 18 46 43 76c12 14 27 28 43 39c32 23 82 40 138 40c34 0 64 -8 91 -23c26 -16 44 -38 54 -66c51 55 118 89 189 89c65 0 115 -19 150 -56
c34 -38 52 -90 52 -155c0 -12 -2 -30 -5 -53h-429c0 -8 -1 -16 -1 -25c0 -56 17 -102 51 -137c35 -36 79 -54 133 -54c88 0 154 42 199 125l30 -17c-52 -95 -129 -142 -232 -142c-47 0 -87 12 -122 35s-61 54 -78 94c-24 -39 -56 -71 -95 -94c-38 -24 -80 -36 -124 -36z
M811 295c0 55 -14 98 -42 130c-29 31 -70 47 -124 47c-33 0 -65 -9 -98 -27c-32 -19 -61 -43 -84 -73c-23 -31 -38 -63 -43 -97h390c1 10 1 16 1 20z" />
    <glyph glyph-name="ccedilla" unicode="&#xe7;" horiz-adv-x="575" 
d="M277 26c45 0 86 13 123 38c38 25 66 58 85 100l32 -14c-21 -47 -51 -84 -91 -111c-39 -28 -84 -44 -134 -47c22 -22 37 -55 37 -84c0 -40 -14 -73 -41 -97c-28 -24 -62 -36 -103 -36c-36 0 -65 6 -86 19l7 28c24 -9 49 -14 75 -14c32 0 59 10 80 29c22 19 32 43 32 74
c0 29 -12 56 -37 81c-61 4 -110 26 -147 67c-38 40 -57 91 -57 154c0 50 13 97 38 142s60 81 104 109s91 42 141 42c55 0 102 -16 140 -46c38 -31 60 -71 69 -121l-35 -12c-6 43 -25 78 -57 105s-72 40 -122 40c-31 0 -62 -7 -91 -22c-30 -15 -56 -34 -77 -57
c-43 -48 -71 -114 -71 -179c0 -56 17 -101 51 -136s79 -52 135 -52z" />
    <glyph glyph-name="egrave" unicode="&#xe8;" horiz-adv-x="569" 
d="M243 742h37l63 -160h-30zM520 242h-428c-1 -8 -2 -16 -2 -25c0 -55 17 -101 51 -137s79 -54 133 -54c88 0 154 42 199 125l30 -17c-52 -95 -129 -142 -232 -142c-64 0 -117 21 -157 63c-41 43 -61 96 -61 161c0 36 7 72 22 107c14 35 34 66 58 93s52 48 86 65
s68 25 104 25c65 0 115 -19 150 -56c34 -38 52 -90 52 -155c0 -12 -2 -30 -5 -53zM486 275c1 10 1 16 1 20c0 55 -14 98 -42 130c-29 31 -70 47 -125 47c-32 0 -64 -9 -97 -27c-33 -19 -60 -44 -83 -74c-24 -31 -38 -62 -44 -96h390z" />
    <glyph glyph-name="eacute" unicode="&#xe9;" horiz-adv-x="569" 
d="M345 582h-37l147 160h45zM520 242h-428c-1 -8 -2 -16 -2 -25c0 -55 17 -101 51 -137s79 -54 133 -54c88 0 154 42 199 125l30 -17c-52 -95 -129 -142 -232 -142c-64 0 -117 21 -157 63c-41 43 -61 96 -61 161c0 36 7 72 22 107c14 35 34 66 58 93s52 48 86 65
s68 25 104 25c65 0 115 -19 150 -56c34 -38 52 -90 52 -155c0 -12 -2 -30 -5 -53zM486 275c1 10 1 16 1 20c0 55 -14 98 -42 130c-29 31 -70 47 -125 47c-32 0 -64 -9 -97 -27c-33 -19 -60 -44 -83 -74c-24 -31 -38 -62 -44 -96h390z" />
    <glyph glyph-name="ecircumflex" unicode="&#xea;" horiz-adv-x="569" 
d="M520 242h-428c-1 -8 -2 -16 -2 -25c0 -55 17 -101 51 -137s79 -54 133 -54c88 0 154 42 199 125l30 -17c-52 -95 -129 -142 -232 -142c-64 0 -117 21 -157 63c-41 43 -61 96 -61 161c0 36 7 72 22 107c14 35 34 66 58 93s52 48 86 65s68 25 104 25c65 0 115 -19 150 -56
c34 -38 52 -90 52 -155c0 -12 -2 -30 -5 -53zM486 275c1 10 1 16 1 20c0 55 -14 98 -42 130c-29 31 -70 47 -125 47c-32 0 -64 -9 -97 -27c-33 -19 -60 -44 -83 -74c-24 -31 -38 -62 -44 -96h390zM446 582l-72 132l-144 -132h-39l165 160h41l82 -160h-33z" />
    <glyph glyph-name="edieresis" unicode="&#xeb;" horiz-adv-x="569" 
d="M275 622c-20 0 -34 14 -34 33c0 24 18 42 41 42c19 0 33 -14 33 -33c0 -24 -18 -42 -40 -42zM421 622c-20 0 -33 14 -33 33c0 24 18 42 40 42c20 0 33 -14 33 -33c0 -24 -18 -42 -40 -42zM520 242h-428c-1 -8 -2 -16 -2 -25c0 -55 17 -101 51 -137s79 -54 133 -54
c88 0 154 42 199 125l30 -17c-52 -95 -129 -142 -232 -142c-64 0 -117 21 -157 63c-41 43 -61 96 -61 161c0 36 7 72 22 107c14 35 34 66 58 93s52 48 86 65s68 25 104 25c65 0 115 -19 150 -56c34 -38 52 -90 52 -155c0 -12 -2 -30 -5 -53zM486 275c1 10 1 16 1 20
c0 55 -14 98 -42 130c-29 31 -70 47 -125 47c-32 0 -64 -9 -97 -27c-33 -19 -60 -44 -83 -74c-24 -31 -38 -62 -44 -96h390z" />
    <glyph glyph-name="igrave" unicode="&#xec;" horiz-adv-x="218" 
d="M98 742h37l63 -160h-29zM159 497h37l-131 -497h-37z" />
    <glyph glyph-name="iacute" unicode="&#xed;" horiz-adv-x="218" 
d="M210 582h-37l147 160h45zM65 0h-37l131 497h37z" />
    <glyph glyph-name="icircumflex" unicode="&#xee;" horiz-adv-x="218" 
d="M65 0h-37l131 497h37zM300 582l-73 132l-143 -132h-39l165 160h40l83 -160h-33z" />
    <glyph glyph-name="idieresis" unicode="&#xef;" horiz-adv-x="218" 
d="M139 622c-20 0 -34 14 -34 33c0 24 18 42 41 42c19 0 33 -14 33 -33c0 -24 -18 -42 -40 -42zM285 622c-20 0 -33 14 -33 33c0 24 18 42 40 42c20 0 33 -14 33 -33c0 -24 -18 -42 -40 -42zM65 0h-37l130 497h37z" />
    <glyph glyph-name="eth" unicode="&#xf0;" horiz-adv-x="613" 
d="M505 547c40 -68 61 -140 61 -217c0 -59 -7 -108 -21 -147c-20 -56 -54 -101 -102 -137s-104 -54 -168 -54s-117 20 -160 62c-44 41 -65 91 -65 151c0 73 32 145 82 198c25 26 55 47 90 63s72 24 110 24c80 0 153 -38 194 -107h1c-12 97 -58 180 -138 249l-160 -75l-14 27
l147 69c-45 33 -97 60 -157 80l15 32c68 -25 127 -56 177 -96l126 59l14 -26l-115 -54c33 -31 61 -64 83 -101zM277 26c69 0 135 30 179 76s71 111 71 175c2 108 -90 182 -196 179c-67 0 -131 -30 -173 -75c-42 -46 -69 -109 -69 -173c0 -54 17 -98 52 -131
c35 -34 81 -51 136 -51z" />
    <glyph glyph-name="ntilde" unicode="&#xf1;" horiz-adv-x="587" 
d="M530 672l24 -9c-10 -22 -23 -41 -39 -57c-15 -16 -33 -23 -54 -23c-23 0 -50 15 -66 31s-41 31 -62 31c-26 0 -48 -19 -68 -57l-25 12c26 51 58 77 96 77c26 0 54 -15 70 -31c16 -15 39 -31 59 -31c27 0 50 26 65 57zM365 506c51 0 91 -15 119 -43c28 -29 42 -67 42 -113
c0 -21 -4 -47 -12 -77l-72 -273h-36l73 276c6 22 9 46 9 72c0 77 -44 124 -132 124c-58 0 -120 -31 -167 -90c-24 -30 -41 -64 -51 -102l-74 -280h-36l130 497h37l-31 -116c22 36 50 66 84 89c34 24 73 36 117 36z" />
    <glyph glyph-name="ograve" unicode="&#xf2;" horiz-adv-x="610" 
d="M269 742h37l63 -160h-29zM273 -8c-65 0 -118 20 -159 62c-42 41 -63 93 -63 156c0 73 32 148 83 204c25 27 56 50 92 66c36 17 74 26 114 26c65 0 119 -21 161 -62s63 -93 63 -156c0 -50 -13 -98 -38 -143c-26 -45 -61 -82 -106 -110c-45 -29 -94 -43 -147 -43zM277 26
c45 0 87 12 125 37s68 57 90 97c22 39 33 81 33 125c0 55 -17 100 -51 135c-35 35 -80 52 -136 52c-45 0 -87 -12 -125 -37c-39 -25 -69 -57 -91 -97c-22 -39 -32 -81 -32 -124c0 -56 17 -101 51 -136c35 -35 80 -52 136 -52z" />
    <glyph glyph-name="oacute" unicode="&#xf3;" horiz-adv-x="610" 
d="M365 582h-37l147 160h45zM273 -8c-65 0 -118 20 -159 62c-42 41 -63 93 -63 156c0 73 32 148 83 204c25 27 56 50 92 66c36 17 74 26 114 26c65 0 119 -21 161 -62s63 -93 63 -156c0 -50 -13 -98 -38 -143c-26 -45 -61 -82 -106 -110c-45 -29 -94 -43 -147 -43zM277 26
c45 0 87 12 125 37s68 57 90 97c22 39 33 81 33 125c0 55 -17 100 -51 135c-35 35 -80 52 -136 52c-45 0 -87 -12 -125 -37c-39 -25 -69 -57 -91 -97c-22 -39 -32 -81 -32 -124c0 -56 17 -101 51 -136c35 -35 80 -52 136 -52z" />
    <glyph glyph-name="ocircumflex" unicode="&#xf4;" horiz-adv-x="610" 
d="M455 582l-70 132l-138 -132h-44l165 160h41l82 -160h-36zM273 -8c-65 0 -118 20 -159 62c-42 41 -63 93 -63 156c0 73 32 148 83 204c25 27 56 50 92 66c36 17 74 26 114 26c65 0 119 -21 161 -62s63 -93 63 -156c0 -50 -13 -98 -38 -143c-26 -45 -61 -82 -106 -110
c-45 -29 -94 -43 -147 -43zM277 26c45 0 87 12 125 37s68 57 90 97c22 39 33 81 33 125c0 55 -17 100 -51 135c-35 35 -80 52 -136 52c-45 0 -87 -12 -125 -37c-39 -25 -69 -57 -91 -97c-22 -39 -32 -81 -32 -124c0 -56 17 -101 51 -136c35 -35 80 -52 136 -52z" />
    <glyph glyph-name="otilde" unicode="&#xf5;" horiz-adv-x="610" 
d="M535 672l25 -9c-10 -22 -23 -41 -39 -57s-34 -23 -54 -23c-24 0 -50 15 -67 31c-16 16 -40 31 -62 31c-25 0 -48 -19 -68 -57l-24 12c26 51 58 77 96 77c26 0 53 -15 69 -31c17 -15 40 -31 59 -31c28 0 51 26 65 57zM273 -8c-65 0 -118 20 -159 62c-42 41 -63 93 -63 156
c0 73 32 148 83 204c25 27 56 50 92 66c36 17 74 26 114 26c65 0 119 -21 161 -62s63 -93 63 -156c0 -50 -13 -98 -38 -143c-26 -45 -61 -82 -106 -110c-45 -29 -94 -43 -147 -43zM277 26c45 0 87 12 125 37s68 57 90 97c22 39 33 81 33 125c0 55 -17 100 -51 135
c-35 35 -80 52 -136 52c-45 0 -87 -12 -125 -37c-39 -25 -69 -57 -91 -97c-22 -39 -32 -81 -32 -124c0 -56 17 -101 51 -136c35 -35 80 -52 136 -52z" />
    <glyph glyph-name="odieresis" unicode="&#xf6;" horiz-adv-x="610" 
d="M299 622c-20 0 -34 14 -34 33c0 24 18 42 41 42c19 0 33 -14 33 -33c0 -24 -18 -42 -40 -42zM445 622c-20 0 -33 14 -33 33c0 24 18 42 40 42c20 0 33 -14 33 -33c0 -24 -18 -42 -40 -42zM273 -8c-65 0 -118 20 -159 62c-42 41 -63 93 -63 156c0 73 32 148 83 204
c25 27 56 50 92 66c36 17 74 26 114 26c65 0 119 -21 161 -62s63 -93 63 -156c0 -50 -13 -98 -38 -143c-26 -45 -61 -82 -106 -110c-45 -29 -94 -43 -147 -43zM277 26c45 0 87 12 125 37s68 57 90 97c22 39 33 81 33 125c0 55 -17 100 -51 135c-35 35 -80 52 -136 52
c-45 0 -87 -12 -125 -37c-39 -25 -69 -57 -91 -97c-22 -39 -32 -81 -32 -124c0 -56 17 -101 51 -136c35 -35 80 -52 136 -52z" />
    <glyph glyph-name="divide" unicode="&#xf7;" horiz-adv-x="623" 
d="M386 495c-21 0 -36 14 -36 35c0 25 20 44 44 44c20 0 35 -14 35 -35c0 -25 -19 -44 -43 -44zM111 333l9 33h451l-8 -33h-452zM288 122c-22 0 -36 15 -36 35c0 24 19 44 43 44c21 0 36 -15 36 -35c0 -24 -19 -44 -43 -44z" />
    <glyph glyph-name="oslash" unicode="&#xf8;" horiz-adv-x="610" 
d="M580 499l-66 -68c33 -40 50 -88 50 -143c0 -50 -13 -98 -38 -143c-26 -45 -61 -82 -106 -110c-45 -29 -94 -43 -147 -43c-57 0 -106 16 -146 49l-70 -71l-22 22l70 71c-36 39 -54 88 -54 147c0 73 32 148 83 204c25 27 56 50 92 66c36 17 74 26 114 26
c60 0 110 -18 151 -54l68 68zM90 214c0 -49 14 -91 41 -125l336 339c-29 27 -77 44 -129 44c-45 0 -87 -12 -125 -37c-39 -25 -69 -57 -91 -97c-22 -39 -32 -81 -32 -124zM525 285c0 47 -13 87 -38 120l-334 -337c33 -28 74 -42 124 -42c45 0 87 12 125 37s68 57 90 97
c22 39 33 81 33 125z" />
    <glyph glyph-name="ugrave" unicode="&#xf9;" 
d="M295 742h38l62 -160h-29zM429 115c-23 -35 -51 -65 -84 -88c-35 -24 -73 -36 -117 -36c-52 0 -91 14 -119 44c-28 28 -42 66 -42 112c0 23 3 49 11 77l72 273h37l-73 -277c-7 -23 -10 -47 -10 -70c0 -78 45 -125 132 -125c46 0 89 18 132 53c42 35 71 82 86 139l74 280
h37l-100 -381c-13 -49 -20 -87 -19 -116h-36c0 29 5 65 16 108z" />
    <glyph glyph-name="uacute" unicode="&#xfa;" 
d="M390 582h-36l146 160h45zM429 115c-23 -35 -51 -65 -84 -88c-35 -24 -73 -36 -117 -36c-52 0 -91 14 -119 44c-28 28 -42 66 -42 112c0 23 3 49 11 77l72 273h37l-73 -277c-7 -23 -10 -47 -10 -70c0 -78 45 -125 132 -125c46 0 89 18 132 53c42 35 71 82 86 139l74 280
h37l-100 -381c-13 -49 -20 -87 -19 -116h-36c0 29 5 65 16 108z" />
    <glyph glyph-name="ucircumflex" unicode="&#xfb;" 
d="M429 115c-23 -35 -51 -65 -84 -88c-35 -24 -73 -36 -117 -36c-52 0 -91 14 -119 44c-28 28 -42 66 -42 112c0 23 3 49 11 77l72 273h37l-73 -277c-7 -23 -10 -47 -10 -70c0 -78 45 -125 132 -125c46 0 89 18 132 53c42 35 71 82 86 139l74 280h37l-100 -381
c-13 -49 -20 -87 -19 -116h-36c0 29 5 65 16 108zM482 582l-72 132l-143 -132h-40l166 160h40l82 -160h-33z" />
    <glyph glyph-name="udieresis" unicode="&#xfc;" 
d="M320 622c-20 0 -34 14 -34 33c0 24 18 42 41 42c19 0 33 -14 33 -33c0 -24 -18 -42 -40 -42zM466 622c-20 0 -33 14 -33 33c0 24 18 42 40 42c20 0 33 -14 33 -33c0 -24 -18 -42 -40 -42zM429 115c-23 -35 -51 -65 -84 -88c-35 -24 -73 -36 -117 -36
c-52 0 -91 14 -119 44c-28 28 -42 66 -42 112c0 23 3 49 11 77l72 273h37l-73 -277c-7 -23 -10 -47 -10 -70c0 -78 45 -125 132 -125c46 0 89 18 132 53c42 35 71 82 86 139l74 280h37l-100 -381c-13 -49 -20 -87 -19 -116h-36c0 29 5 65 16 108z" />
    <glyph glyph-name="yacute" unicode="&#xfd;" horiz-adv-x="537" 
d="M365 582h-36l146 160h45zM66 -245h-44l173 246l-106 496h39l94 -459l316 459h43z" />
    <glyph glyph-name="thorn" unicode="&#xfe;" horiz-adv-x="634" 
d="M588 298c0 -78 -30 -156 -78 -212c-25 -28 -54 -51 -89 -68c-34 -17 -71 -26 -109 -26c-125 0 -192 83 -207 162h-1l-105 -399h-36l264 1003h36l-99 -378v0c21 33 51 62 92 88c40 25 84 38 131 38c59 0 107 -20 144 -59c38 -40 57 -89 57 -149zM309 26c35 0 67 8 98 24
c30 15 56 35 77 60c41 51 66 117 66 183c0 52 -16 95 -47 129c-32 33 -72 50 -121 50c-35 0 -68 -8 -101 -24c-32 -16 -60 -37 -83 -62s-41 -53 -54 -83c-14 -31 -21 -61 -21 -90c0 -54 17 -98 52 -134c34 -35 79 -53 134 -53z" />
    <glyph glyph-name="ydieresis" unicode="&#xff;" horiz-adv-x="537" 
d="M291 622c-20 0 -33 14 -33 33c0 24 17 42 40 42c20 0 33 -14 33 -33c0 -24 -18 -42 -40 -42zM437 622c-19 0 -32 14 -32 33c0 24 17 42 40 42c19 0 33 -14 33 -33c0 -24 -18 -42 -41 -42zM66 -245h-44l173 246l-106 496h39l94 -459l316 459h43z" />
    <glyph glyph-name="Amacron" unicode="&#x100;" horiz-adv-x="704" 
d="M359 854h311l-9 -34h-311zM597 0l-36 208h-421l-148 -208h-43l518 729h41l127 -729h-38zM165 243h391l-76 445z" />
    <glyph glyph-name="amacron" unicode="&#x101;" horiz-adv-x="635" 
d="M246 631h311l-9 -34h-310zM475 117c-21 -32 -51 -62 -92 -87c-40 -25 -84 -38 -132 -38c-58 0 -106 20 -143 59c-38 39 -57 89 -57 149c-1 157 118 306 276 306c60 0 111 -20 144 -51s54 -69 63 -110v0l41 152h36l-100 -381c-13 -51 -20 -90 -19 -116h-37
c0 28 6 64 18 108zM330 472c-69 0 -133 -34 -175 -84c-41 -51 -66 -118 -66 -183c0 -52 16 -95 47 -129c32 -33 72 -50 121 -50c34 0 68 8 101 24c32 16 60 37 82 62c23 25 41 53 55 84c14 30 20 60 20 89c0 54 -16 99 -50 134c-35 36 -80 53 -135 53z" />
    <glyph glyph-name="Abreve" unicode="&#x102;" horiz-adv-x="704" 
d="M597 0l-36 208h-421l-148 -208h-43l518 729h41l127 -729h-38zM165 243h391l-76 445zM660 955h30c-29 -93 -96 -150 -189 -150c-123 0 -134 98 -127 150h28c-5 -77 30 -116 104 -116c67 0 118 39 154 116z" />
    <glyph glyph-name="abreve" unicode="&#x103;" horiz-adv-x="635" 
d="M489 734h33c-10 -47 -31 -84 -60 -111c-30 -27 -66 -41 -107 -41c-43 0 -77 17 -95 38c-10 11 -17 24 -22 38c-11 29 -13 52 -12 76h34c-2 -79 30 -119 97 -119c34 0 62 11 85 34s38 51 47 85zM475 117c-21 -32 -51 -62 -92 -87c-40 -25 -84 -38 -132 -38
c-58 0 -106 20 -143 59c-38 39 -57 89 -57 149c-1 157 118 306 276 306c60 0 111 -20 144 -51s54 -69 63 -110v0l41 152h36l-100 -381c-13 -51 -20 -90 -19 -116h-37c0 28 6 64 18 108zM330 472c-69 0 -133 -34 -175 -84c-41 -51 -66 -118 -66 -183c0 -52 16 -95 47 -129
c32 -33 72 -50 121 -50c34 0 68 8 101 24c32 16 60 37 82 62c23 25 41 53 55 84c14 30 20 60 20 89c0 54 -16 99 -50 134c-35 36 -80 53 -135 53z" />
    <glyph glyph-name="Aogonek" unicode="&#x104;" horiz-adv-x="704" 
d="M620 -194l-8 -30c-8 -2 -17 -3 -26 -3c-27 0 -50 8 -69 23s-28 36 -28 62c0 19 6 38 18 57c13 20 26 36 42 50c15 13 31 25 49 35h-1l-36 208h-421l-148 -208h-43l518 729h41l127 -729c-74 -47 -111 -90 -111 -131c0 -44 32 -64 77 -64c5 0 11 0 19 1zM480 688l-315 -445
h391z" />
    <glyph glyph-name="aogonek" unicode="&#x105;" horiz-adv-x="635" 
d="M473 108l2 9v0c-21 -32 -51 -62 -92 -87c-40 -25 -84 -38 -132 -38c-58 0 -106 20 -143 59c-38 39 -57 89 -57 149c-1 157 118 306 276 306c60 0 111 -20 144 -51s54 -69 63 -110v0l41 152h36l-100 -381c-13 -51 -20 -90 -19 -116h-37c0 28 6 64 18 108zM330 472
c-69 0 -133 -34 -175 -84c-41 -51 -66 -118 -66 -183c0 -52 16 -95 47 -129c32 -33 72 -50 121 -50c34 0 68 8 101 24c32 16 60 37 82 62c23 25 41 53 55 84c14 30 20 60 20 89c0 54 -16 99 -50 134c-35 36 -80 53 -135 53z" />
    <glyph glyph-name="Cacute" unicode="&#x106;" horiz-adv-x="790" 
d="M528 795h-37l147 161h45zM720 247l35 -14c-30 -73 -76 -132 -139 -175c-62 -44 -136 -66 -221 -66c-58 0 -110 14 -157 41s-84 65 -110 114c-27 48 -40 103 -40 164c0 55 11 109 32 161c22 53 52 98 89 137c36 38 81 70 133 93c51 23 105 35 162 35
c95 0 183 -41 241 -116c30 -37 48 -80 55 -128l-35 -11c-10 65 -40 118 -90 158c-50 41 -109 62 -176 62c-50 0 -99 -11 -145 -33s-86 -50 -119 -86s-59 -78 -78 -125c-20 -48 -30 -96 -30 -146c0 -108 46 -198 129 -248c42 -25 90 -38 144 -38c74 0 138 20 193 61
c55 40 97 93 127 160z" />
    <glyph glyph-name="cacute" unicode="&#x107;" horiz-adv-x="575" 
d="M365 582h-36l146 160h45zM273 -9c-65 0 -118 21 -159 62s-62 94 -62 160c0 50 13 97 38 142s60 81 104 109s91 42 141 42c55 0 102 -16 140 -46c38 -31 60 -71 69 -121l-35 -12c-6 43 -25 78 -57 105s-72 40 -122 40c-31 0 -62 -7 -91 -22c-30 -15 -56 -34 -77 -57
c-43 -48 -71 -114 -71 -179c0 -56 17 -101 51 -136s79 -52 135 -52c45 0 86 13 123 38c38 25 66 58 85 100l32 -14c-22 -50 -55 -89 -98 -116c-43 -29 -92 -43 -146 -43z" />
    <glyph glyph-name="Ccircumflex" unicode="&#x108;" horiz-adv-x="790" 
d="M720 247l35 -14c-30 -73 -76 -132 -139 -175c-62 -44 -136 -66 -221 -66c-58 0 -110 14 -157 41s-84 65 -110 114c-27 48 -40 103 -40 164c0 55 11 109 32 161c22 53 52 98 89 137c36 38 81 70 133 93c51 23 105 35 162 35c95 0 183 -41 241 -116c30 -37 48 -80 55 -128
l-35 -11c-10 65 -40 118 -90 158c-50 41 -109 62 -176 62c-50 0 -99 -11 -145 -33s-86 -50 -119 -86s-59 -78 -78 -125c-20 -48 -30 -96 -30 -146c0 -108 46 -198 129 -248c42 -25 90 -38 144 -38c74 0 138 20 193 61c55 40 97 93 127 160zM615 796l-73 132l-143 -133h-39
l165 161h40l83 -160h-33z" />
    <glyph glyph-name="ccircumflex" unicode="&#x109;" horiz-adv-x="575" 
d="M273 -9c-65 0 -118 21 -159 62s-62 94 -62 160c0 50 13 97 38 142s60 81 104 109s91 42 141 42c55 0 102 -16 140 -46c38 -31 60 -71 69 -121l-35 -12c-6 43 -25 78 -57 105s-72 40 -122 40c-31 0 -62 -7 -91 -22c-30 -15 -56 -34 -77 -57c-43 -48 -71 -114 -71 -179
c0 -56 17 -101 51 -136s79 -52 135 -52c45 0 86 13 123 38c38 25 66 58 85 100l32 -14c-22 -50 -55 -89 -98 -116c-43 -29 -92 -43 -146 -43zM452 582l-72 132l-143 -132h-40l166 160h40l82 -160h-33z" />
    <glyph glyph-name="Cdotaccent" unicode="&#x10a;" horiz-adv-x="790" 
d="M532 837c-20 0 -34 14 -34 33c0 24 19 42 41 42c20 0 34 -14 34 -33c0 -24 -19 -42 -41 -42zM720 247l35 -14c-30 -73 -76 -132 -139 -175c-62 -44 -136 -66 -221 -66c-58 0 -110 14 -157 41s-84 65 -110 114c-27 48 -40 103 -40 164c0 55 11 109 32 161
c22 53 52 98 89 137c36 38 81 70 133 93c51 23 105 35 162 35c95 0 183 -41 241 -116c30 -37 48 -80 55 -128l-35 -11c-10 65 -40 118 -90 158c-50 41 -109 62 -176 62c-50 0 -99 -11 -145 -33s-86 -50 -119 -86s-59 -78 -78 -125c-20 -48 -30 -96 -30 -146
c0 -108 46 -198 129 -248c42 -25 90 -38 144 -38c74 0 138 20 193 61c55 40 97 93 127 160z" />
    <glyph glyph-name="cdotaccent" unicode="&#x10b;" horiz-adv-x="575" 
d="M353 622c-19 0 -33 14 -33 33c0 24 18 42 40 42c20 0 34 -14 34 -33c0 -24 -19 -42 -41 -42zM273 -9c-65 0 -118 21 -159 62s-62 94 -62 160c0 50 13 97 38 142s60 81 104 109s91 42 141 42c55 0 102 -16 140 -46c38 -31 60 -71 69 -121l-35 -12c-6 43 -25 78 -57 105
s-72 40 -122 40c-31 0 -62 -7 -91 -22c-30 -15 -56 -34 -77 -57c-43 -48 -71 -114 -71 -179c0 -56 17 -101 51 -136s79 -52 135 -52c45 0 86 13 123 38c38 25 66 58 85 100l32 -14c-22 -50 -55 -89 -98 -116c-43 -29 -92 -43 -146 -43z" />
    <glyph glyph-name="Ccaron" unicode="&#x10c;" horiz-adv-x="790" 
d="M720 247l35 -14c-30 -73 -76 -132 -139 -175c-62 -44 -136 -66 -221 -66c-58 0 -110 14 -157 41s-84 65 -110 114c-27 48 -40 103 -40 164c0 55 11 109 32 161c22 53 52 98 89 137c36 38 81 70 133 93c51 23 105 35 162 35c95 0 183 -41 241 -116c30 -37 48 -80 55 -128
l-35 -11c-10 65 -40 118 -90 158c-50 41 -109 62 -176 62c-50 0 -99 -11 -145 -33s-86 -50 -119 -86s-59 -78 -78 -125c-20 -48 -30 -96 -30 -146c0 -108 46 -198 129 -248c42 -25 90 -38 144 -38c74 0 138 20 193 61c55 40 97 93 127 160zM448 955l72 -131l144 131h39
l-165 -160h-41l-82 160h33z" />
    <glyph glyph-name="ccaron" unicode="&#x10d;" horiz-adv-x="575" 
d="M273 -9c-65 0 -118 21 -159 62s-62 94 -62 160c0 50 13 97 38 142s60 81 104 109s91 42 141 42c55 0 102 -16 140 -46c38 -31 60 -71 69 -121l-35 -12c-6 43 -25 78 -57 105s-72 40 -122 40c-31 0 -62 -7 -91 -22c-30 -15 -56 -34 -77 -57c-43 -48 -71 -114 -71 -179
c0 -56 17 -101 51 -136s79 -52 135 -52c45 0 86 13 123 38c38 25 66 58 85 100l32 -14c-22 -50 -55 -89 -98 -116c-43 -29 -92 -43 -146 -43zM281 742l73 -132l143 132h39l-165 -160h-41l-82 160h33z" />
    <glyph glyph-name="Dcaron" unicode="&#x10e;" horiz-adv-x="750" 
d="M245 0h-197l194 729h119c126 0 226 -36 289 -99c54 -53 80 -122 80 -207c0 -113 -41 -212 -114 -284c-44 -44 -98 -79 -163 -103s-134 -36 -208 -36zM691 420c0 75 -23 137 -70 185c-56 57 -147 89 -258 89h-92l-176 -659h155c140 0 251 42 336 125
c68 68 105 159 105 260zM384 955l73 -131l143 131h40l-166 -160h-40l-83 160h33z" />
    <glyph glyph-name="dcaron" unicode="&#x10f;" horiz-adv-x="653" 
d="M730 573h-26l62 186h45zM644 758h36l-169 -642c-13 -49 -19 -88 -19 -116h-36c0 33 5 69 17 108l2 9v0c-21 -32 -51 -62 -92 -87c-40 -25 -84 -38 -132 -38c-58 0 -106 20 -143 59c-38 39 -57 89 -57 149c-1 157 118 306 276 306c60 0 112 -21 145 -52s53 -69 62 -110h1z
M330 472c-69 0 -133 -34 -175 -84c-41 -51 -66 -118 -66 -183c0 -52 16 -95 47 -129c32 -33 72 -50 121 -50c34 0 68 8 101 24c32 16 60 37 82 62c23 25 41 53 55 84c14 30 20 60 20 89c0 54 -16 99 -50 134c-35 36 -80 53 -135 53z" />
    <glyph glyph-name="Dcroat" unicode="&#x110;" horiz-adv-x="763" 
d="M258 0h-198l95 354h-76l9 36h77l90 339h119c126 0 226 -36 289 -99c53 -53 80 -122 80 -207c0 -113 -42 -212 -114 -284c-44 -44 -99 -79 -163 -103c-65 -24 -134 -36 -208 -36zM704 420c0 75 -24 137 -70 185c-56 57 -147 89 -258 89h-92l-81 -304h253l-9 -36h-253
l-86 -319h155c139 0 251 42 336 125c67 68 105 159 105 260z" />
    <glyph glyph-name="dslash" unicode="&#x111;" horiz-adv-x="634" 
d="M51 200c-1 157 118 306 276 306c60 0 112 -21 145 -52s53 -69 63 -110v0l70 267h-203l9 34h203l30 113h36l-30 -113h74l-9 -34h-74l-161 -611h-36l31 117v0c-21 -32 -51 -62 -91 -87c-41 -25 -85 -38 -133 -38c-58 0 -106 20 -143 59c-38 39 -57 89 -57 149zM330 472
c-69 0 -133 -34 -175 -84c-41 -51 -66 -118 -66 -183c0 -52 16 -95 47 -129c32 -33 72 -50 121 -50c34 0 68 8 101 24c32 16 60 37 82 62c23 25 41 53 55 84c14 30 20 60 20 89c0 54 -16 99 -50 134c-35 36 -80 53 -135 53z" />
    <glyph glyph-name="Emacron" unicode="&#x112;" horiz-adv-x="608" 
d="M333 854h310l-8 -34h-311zM487 0h-439l194 729h435l-9 -35h-398l-80 -304h365l-10 -36h-365l-85 -319h401z" />
    <glyph glyph-name="emacron" unicode="&#x113;" horiz-adv-x="569" 
d="M199 631h310l-9 -34h-310zM520 242h-428c-1 -8 -2 -16 -2 -25c0 -55 17 -101 51 -137s79 -54 133 -54c88 0 154 42 199 125l30 -17c-52 -95 -129 -142 -232 -142c-64 0 -117 21 -157 63c-41 43 -61 96 -61 161c0 36 7 72 22 107c14 35 34 66 58 93s52 48 86 65
s68 25 104 25c65 0 115 -19 150 -56c34 -38 52 -90 52 -155c0 -12 -2 -30 -5 -53zM486 275c1 10 1 16 1 20c0 55 -14 98 -42 130c-29 31 -70 47 -125 47c-32 0 -64 -9 -97 -27c-33 -19 -60 -44 -83 -74c-24 -31 -38 -62 -44 -96h390z" />
    <glyph glyph-name="Edotaccent" unicode="&#x116;" horiz-adv-x="608" 
d="M484 837c-20 0 -34 14 -34 33c0 24 19 42 41 42c19 0 34 -14 34 -33c0 -24 -19 -42 -41 -42zM487 0h-439l194 729h435l-9 -35h-398l-80 -304h365l-10 -36h-365l-85 -319h401z" />
    <glyph glyph-name="edotaccent" unicode="&#x117;" horiz-adv-x="569" 
d="M340 622c-20 0 -34 14 -34 33c0 24 19 42 41 42c19 0 33 -14 33 -33c0 -24 -18 -42 -40 -42zM520 242h-428c-1 -8 -2 -16 -2 -25c0 -55 17 -101 51 -137s79 -54 133 -54c88 0 154 42 199 125l30 -17c-52 -95 -129 -142 -232 -142c-64 0 -117 21 -157 63
c-41 43 -61 96 -61 161c0 36 7 72 22 107c14 35 34 66 58 93s52 48 86 65s68 25 104 25c65 0 115 -19 150 -56c34 -38 52 -90 52 -155c0 -12 -2 -30 -5 -53zM486 275c1 10 1 16 1 20c0 55 -14 98 -42 130c-29 31 -70 47 -125 47c-32 0 -64 -9 -97 -27
c-33 -19 -60 -44 -83 -74c-24 -31 -38 -62 -44 -96h390z" />
    <glyph glyph-name="Eogonek" unicode="&#x118;" horiz-adv-x="608" 
d="M472 -194l-8 -30c-8 -2 -17 -3 -26 -3c-27 0 -50 8 -69 23s-29 36 -29 62c0 27 12 54 34 79s48 46 76 63h-402l194 729h435l-9 -35h-398l-80 -304h365l-10 -36h-365l-85 -319h401l-9 -35c-74 -46 -111 -90 -111 -131c0 -44 32 -64 78 -64c4 0 10 0 18 1z" />
    <glyph glyph-name="eogonek" unicode="&#x119;" horiz-adv-x="569" 
d="M520 242h-428c-1 -8 -2 -16 -2 -25c0 -55 17 -101 51 -137s79 -54 133 -54c88 0 154 42 199 125l30 -17c-40 -74 -97 -119 -170 -135c-72 -46 -108 -89 -108 -130c0 -44 32 -64 77 -64c4 0 10 0 19 1l-8 -30c-9 -2 -18 -3 -26 -3c-27 0 -51 8 -69 23
c-19 15 -29 36 -29 62c0 25 10 49 29 73s42 44 68 61h-15c-64 0 -117 21 -157 63c-41 43 -61 96 -61 161c0 36 7 72 22 107c14 35 34 66 58 93s52 48 86 65s68 25 104 25c65 0 115 -19 150 -56c34 -38 52 -90 52 -155c0 -12 -2 -30 -5 -53zM320 472c-32 0 -64 -9 -97 -27
c-33 -19 -60 -44 -83 -74c-24 -31 -38 -62 -44 -96h390c1 10 1 16 1 20c0 55 -14 98 -42 130c-29 31 -70 47 -125 47z" />
    <glyph glyph-name="Ecaron" unicode="&#x11a;" horiz-adv-x="608" 
d="M487 0h-439l194 729h435l-9 -35h-398l-80 -304h365l-10 -36h-365l-85 -319h401zM399 955l73 -131l143 131h40l-166 -160h-40l-83 160h33z" />
    <glyph glyph-name="ecaron" unicode="&#x11b;" horiz-adv-x="569" 
d="M520 242h-428c-1 -8 -2 -16 -2 -25c0 -55 17 -101 51 -137s79 -54 133 -54c88 0 154 42 199 125l30 -17c-52 -95 -129 -142 -232 -142c-64 0 -117 21 -157 63c-41 43 -61 96 -61 161c0 36 7 72 22 107c14 35 34 66 58 93s52 48 86 65s68 25 104 25c65 0 115 -19 150 -56
c34 -38 52 -90 52 -155c0 -12 -2 -30 -5 -53zM486 275c1 10 1 16 1 20c0 55 -14 98 -42 130c-29 31 -70 47 -125 47c-32 0 -64 -9 -97 -27c-33 -19 -60 -44 -83 -74c-24 -31 -38 -62 -44 -96h390zM270 742l72 -132l143 132h40l-165 -160h-41l-82 160h33z" />
    <glyph glyph-name="Gcircumflex" unicode="&#x11c;" horiz-adv-x="805" 
d="M743 305h-340l9 35h375c-7 -54 -22 -103 -46 -147s-54 -81 -89 -109c-72 -59 -162 -92 -257 -92c-180 -2 -311 132 -308 311c0 238 189 434 410 434c73 0 139 -22 182 -53c21 -16 41 -34 57 -54c33 -41 49 -82 56 -120l-35 -11c-6 26 -14 53 -41 93c-13 21 -29 38 -46 54
c-19 15 -43 28 -73 39c-31 11 -64 17 -101 17c-132 1 -242 -73 -304 -172c-44 -68 -67 -148 -67 -226c0 -82 25 -149 75 -200c51 -52 116 -78 197 -78c60 0 114 13 162 38c46 24 86 57 117 98c35 45 57 92 67 143zM608 796l-72 132l-143 -133h-40l166 161h40l82 -160h-33z
" />
    <glyph glyph-name="gcircumflex" unicode="&#x11d;" horiz-adv-x="635" 
d="M612 497l-135 -514c-19 -73 -52 -130 -101 -171c-49 -40 -109 -61 -182 -61c-94 1 -157 41 -189 94c-23 35 -33 71 -34 107l35 8c0 -26 5 -53 23 -85c8 -17 20 -31 33 -44c27 -26 75 -45 133 -45c125 0 213 71 248 205l36 136h-1c-20 -31 -51 -58 -92 -82
c-41 -25 -85 -37 -131 -37c-56 0 -104 20 -142 60c-39 39 -58 87 -58 145c0 53 12 102 36 147s58 80 100 106c43 27 90 40 142 40c54 0 105 -20 139 -49s57 -67 65 -106v0l39 146h36zM520 294c0 50 -18 92 -53 126c-35 35 -79 51 -134 51c-71 0 -133 -30 -174 -77
c-41 -48 -66 -111 -66 -178c0 -50 16 -91 48 -124c33 -33 73 -49 121 -49c35 0 68 7 101 23c32 15 60 35 82 59c45 48 75 111 75 169zM460 582l-72 132l-143 -132h-40l165 160h41l82 -160h-33z" />
    <glyph glyph-name="Gbreve" unicode="&#x11e;" horiz-adv-x="805" 
d="M743 305h-340l9 35h375c-7 -54 -22 -103 -46 -147s-54 -81 -89 -109c-72 -59 -162 -92 -257 -92c-180 -2 -311 132 -308 311c0 238 189 434 410 434c73 0 139 -22 182 -53c21 -16 41 -34 57 -54c33 -41 49 -82 56 -120l-35 -11c-6 26 -14 53 -41 93c-13 21 -29 38 -46 54
c-19 15 -43 28 -73 39c-31 11 -64 17 -101 17c-132 1 -242 -73 -304 -172c-44 -68 -67 -148 -67 -226c0 -82 25 -149 75 -200c51 -52 116 -78 197 -78c60 0 114 13 162 38c46 24 86 57 117 98c35 45 57 92 67 143zM670 955h30c-29 -93 -95 -150 -189 -150
c-123 0 -134 98 -126 150h27c-4 -77 31 -116 105 -116c67 0 118 39 153 116z" />
    <glyph glyph-name="gbreve" unicode="&#x11f;" horiz-adv-x="635" 
d="M612 497l-135 -514c-19 -73 -52 -130 -101 -171c-49 -40 -109 -61 -182 -61c-94 1 -157 41 -189 94c-23 35 -33 71 -34 107l35 8c0 -26 5 -53 23 -85c8 -17 20 -31 33 -44c27 -26 75 -45 133 -45c125 0 213 71 248 205l36 136h-1c-20 -31 -51 -58 -92 -82
c-41 -25 -85 -37 -131 -37c-56 0 -104 20 -142 60c-39 39 -58 87 -58 145c0 53 12 102 36 147s58 80 100 106c43 27 90 40 142 40c54 0 105 -20 139 -49s57 -67 65 -106v0l39 146h36zM520 294c0 50 -18 92 -53 126c-35 35 -79 51 -134 51c-71 0 -133 -30 -174 -77
c-41 -48 -66 -111 -66 -178c0 -50 16 -91 48 -124c33 -33 73 -49 121 -49c35 0 68 7 101 23c32 15 60 35 82 59c45 48 75 111 75 169zM506 731h30c-29 -92 -96 -149 -189 -149c-123 0 -134 98 -127 149h28c-4 -77 31 -116 105 -116c67 0 117 39 153 116z" />
    <glyph glyph-name="Gdotaccent" unicode="&#x120;" horiz-adv-x="805" 
d="M514 837c-19 0 -34 14 -34 33c0 24 19 42 41 42c20 0 34 -14 34 -33c0 -24 -19 -42 -41 -42zM743 305h-340l9 35h375c-7 -54 -22 -103 -46 -147s-54 -81 -89 -109c-72 -59 -162 -92 -257 -92c-180 -2 -311 132 -308 311c0 238 189 434 410 434c73 0 139 -22 182 -53
c21 -16 41 -34 57 -54c33 -41 49 -82 56 -120l-35 -11c-6 26 -14 53 -41 93c-13 21 -29 38 -46 54c-19 15 -43 28 -73 39c-31 11 -64 17 -101 17c-132 1 -242 -73 -304 -172c-44 -68 -67 -148 -67 -226c0 -82 25 -149 75 -200c51 -52 116 -78 197 -78c60 0 114 13 162 38
c46 24 86 57 117 98c35 45 57 92 67 143z" />
    <glyph glyph-name="gdotaccent" unicode="&#x121;" horiz-adv-x="635" 
d="M363 622c-20 0 -34 14 -34 33c0 24 19 42 41 42c20 0 34 -14 34 -33c0 -24 -19 -42 -41 -42zM612 497l-135 -514c-19 -73 -52 -130 -101 -171c-49 -40 -109 -61 -182 -61c-94 1 -157 41 -189 94c-23 35 -33 71 -34 107l35 8c0 -26 5 -53 23 -85c8 -17 20 -31 33 -44
c27 -26 75 -45 133 -45c125 0 213 71 248 205l36 136h-1c-20 -31 -51 -58 -92 -82c-41 -25 -85 -37 -131 -37c-56 0 -104 20 -142 60c-39 39 -58 87 -58 145c0 53 12 102 36 147s58 80 100 106c43 27 90 40 142 40c54 0 105 -20 139 -49s57 -67 65 -106v0l39 146h36z
M520 294c0 50 -18 92 -53 126c-35 35 -79 51 -134 51c-71 0 -133 -30 -174 -77c-41 -48 -66 -111 -66 -178c0 -50 16 -91 48 -124c33 -33 73 -49 121 -49c35 0 68 7 101 23c32 15 60 35 82 59c45 48 75 111 75 169z" />
    <glyph glyph-name="Gcommaaccent" unicode="&#x122;" horiz-adv-x="805" 
d="M743 305h-340l9 35h375c-7 -54 -22 -103 -46 -147s-54 -81 -89 -109c-72 -59 -162 -92 -257 -92c-180 -2 -311 132 -308 311c0 238 189 434 410 434c73 0 139 -22 182 -53c21 -16 41 -34 57 -54c33 -41 49 -82 56 -120l-35 -11c-6 26 -14 53 -41 93c-13 21 -29 38 -46 54
c-19 15 -43 28 -73 39c-31 11 -64 17 -101 17c-132 1 -242 -73 -304 -172c-44 -68 -67 -148 -67 -226c0 -82 25 -149 75 -200c51 -52 116 -78 197 -78c60 0 114 13 162 38c46 24 86 57 117 98c35 45 57 92 67 143zM306 -248l6 22c40 7 70 38 75 87c-6 -4 -13 -6 -22 -6
c-17 0 -31 12 -31 30c0 22 19 37 41 37c25 0 36 -19 36 -47c0 -35 -10 -65 -31 -86c-21 -22 -45 -34 -74 -37z" />
    <glyph glyph-name="gcommaaccent" unicode="&#x123;" horiz-adv-x="635" 
d="M438 756l-6 -21c-41 -8 -70 -39 -76 -88c7 4 14 6 22 6c18 0 32 -12 32 -30c0 -22 -19 -37 -41 -37c-25 0 -37 20 -37 47c0 36 11 65 32 87c21 21 45 34 74 36zM612 497l-135 -514c-19 -73 -52 -130 -101 -171c-49 -40 -109 -61 -182 -61c-94 1 -157 41 -189 94
c-23 35 -33 71 -34 107l35 8c0 -26 5 -53 23 -85c8 -17 20 -31 33 -44c27 -26 75 -45 133 -45c125 0 213 71 248 205l36 136h-1c-20 -31 -51 -58 -92 -82c-41 -25 -85 -37 -131 -37c-56 0 -104 20 -142 60c-39 39 -58 87 -58 145c0 53 12 102 36 147s58 80 100 106
c43 27 90 40 142 40c54 0 105 -20 139 -49s57 -67 65 -106v0l39 146h36zM520 294c0 50 -18 92 -53 126c-35 35 -79 51 -134 51c-71 0 -133 -30 -174 -77c-41 -48 -66 -111 -66 -178c0 -50 16 -91 48 -124c33 -33 73 -49 121 -49c35 0 68 7 101 23c32 15 60 35 82 59
c45 48 75 111 75 169z" />
    <glyph glyph-name="Hbar" unicode="&#x126;" horiz-adv-x="771" 
d="M829 584l-9 -34h-77l-147 -550h-39l94 354h-470l-95 -354h-38l147 550h-76l9 34h76l38 145h39l-39 -145h471l39 145h38l-38 -145h77zM661 390l43 160h-471l-43 -160h471z" />
    <glyph glyph-name="hbar" unicode="&#x127;" horiz-adv-x="587" 
d="M365 506c51 0 91 -15 119 -43c27 -29 41 -67 41 -113c0 -21 -4 -47 -12 -77l-71 -273h-37l74 276c6 23 9 47 9 72c0 77 -44 124 -132 124c-58 0 -120 -31 -167 -90c-24 -30 -41 -64 -51 -102l-74 -280h-37l162 611h-74l8 34h74l30 113h36l-30 -113h203l-8 -34h-203
l-61 -230c22 36 50 66 84 89c33 24 72 36 117 36z" />
    <glyph glyph-name="Itilde" unicode="&#x128;" horiz-adv-x="261" 
d="M417 885l24 -8c-10 -22 -22 -42 -38 -57c-16 -16 -34 -24 -54 -24c-24 0 -50 16 -67 32c-16 16 -41 31 -62 31c-25 0 -48 -19 -68 -57l-24 11c26 52 57 78 96 78c26 0 53 -16 69 -31c17 -15 40 -31 59 -31c28 0 51 26 65 56zM281 729l-195 -729h-38l194 729h39z" />
    <glyph glyph-name="itilde" unicode="&#x129;" horiz-adv-x="218" 
d="M343 672l24 -9c-10 -22 -22 -41 -38 -57s-34 -23 -54 -23c-24 0 -50 15 -67 31c-16 16 -41 31 -62 31c-26 0 -48 -19 -68 -57l-24 12c26 51 57 77 96 77c25 0 53 -15 69 -31c16 -15 40 -31 59 -31c27 0 51 26 65 57zM158 497h37l-130 -497h-37z" />
    <glyph glyph-name="Imacron" unicode="&#x12a;" horiz-adv-x="261" 
d="M161 854h251l-9 -34h-251zM48 0l194 729h39l-195 -729h-38z" />
    <glyph glyph-name="imacron" unicode="&#x12b;" horiz-adv-x="218" 
d="M89 631h247l-9 -34h-247zM65 0h-37l131 497h37z" />
    <glyph glyph-name="Ibreve" unicode="&#x12c;" horiz-adv-x="261" 
d="M48 0l194 729h39l-195 -729h-38zM430 955h30c-29 -93 -96 -150 -189 -150c-123 0 -134 98 -127 150h28c-5 -77 30 -116 104 -116c67 0 118 39 154 116z" />
    <glyph glyph-name="ibreve" unicode="&#x12d;" horiz-adv-x="218" 
d="M65 0h-37l130 497h37zM354 731h30c-29 -92 -96 -149 -189 -149c-123 0 -134 98 -127 149h28c-5 -77 30 -116 104 -116c67 0 118 39 154 116z" />
    <glyph glyph-name="Iogonek" unicode="&#x12e;" horiz-adv-x="261" 
d="M48 0l195 729h38l-195 -729c-74 -46 -111 -90 -111 -131c0 -44 32 -64 78 -64c4 0 10 0 18 1l-7 -30c-9 -2 -18 -3 -27 -3c-27 0 -50 8 -69 23c-18 15 -28 36 -28 62c0 19 6 38 18 57c12 20 27 36 42 50c15 13 32 25 50 35h-2z" />
    <glyph glyph-name="iogonek" unicode="&#x12f;" horiz-adv-x="218" 
d="M225 706c20 0 35 -13 35 -33c0 -23 -19 -41 -42 -41c-19 0 -33 13 -33 33c0 23 18 41 40 41zM28 0l130 497h37l-130 -497c-75 -46 -112 -90 -112 -131c0 -44 32 -64 78 -64c4 0 10 0 19 1l-9 -30c-8 -2 -17 -3 -26 -3c-27 0 -50 8 -69 23s-28 36 -28 62c0 27 11 54 33 79
c23 25 48 46 77 63z" />
    <glyph glyph-name="Idot" unicode="&#x130;" horiz-adv-x="261" 
d="M285 837c-20 0 -34 14 -34 33c0 24 19 42 41 42c19 0 33 -14 33 -33c0 -24 -18 -42 -40 -42zM48 0l194 729h39l-195 -729h-38z" />
    <glyph glyph-name="dotlessi" unicode="&#x131;" horiz-adv-x="218" 
d="M65 0h-37l131 497h37z" />
    <glyph glyph-name="IJ" unicode="&#x132;" horiz-adv-x="632" 
d="M106 258l39 2l-2 -7c-7 -26 -10 -49 -10 -70c0 -47 14 -85 42 -113c28 -29 65 -43 110 -43c109 0 171 81 197 178l139 524h39l-141 -529c-37 -138 -115 -208 -235 -208c-59 0 -104 18 -138 52c-34 35 -51 79 -51 132c0 24 4 51 11 82zM270 729h-38l-97 -361h39z" />
    <glyph glyph-name="Kcommaaccent" unicode="&#x136;" horiz-adv-x="601" 
d="M190 370h-5l-99 -370h-38l194 729h39l-91 -339h5l464 339h57l-485 -354l312 -375h-50zM181 -248l6 22c41 7 70 38 76 87c-7 -4 -14 -6 -22 -6c-18 0 -32 12 -32 30c0 22 19 37 41 37c25 0 37 -20 37 -47c0 -35 -11 -65 -32 -86c-20 -22 -45 -34 -74 -37z" />
    <glyph glyph-name="kcommaaccent" unicode="&#x137;" horiz-adv-x="470" 
d="M138 281h2l321 216h62l-348 -229l230 -268h-47l-223 262h-2l-69 -262h-37l200 758h36zM106 -248l6 22c41 7 70 38 76 87c-6 -4 -13 -6 -22 -6c-18 0 -31 12 -31 30c0 22 19 37 40 37c25 0 37 -19 37 -47c0 -35 -11 -65 -32 -86c-20 -22 -45 -34 -74 -37z" />
    <glyph glyph-name="Lacute" unicode="&#x139;" horiz-adv-x="528" 
d="M292 795h-37l147 161h45zM450 0h-402l194 729h39l-186 -694h365z" />
    <glyph glyph-name="lacute" unicode="&#x13a;" horiz-adv-x="218" 
d="M271 822h-37l147 161h45zM27 0l200 758h37l-199 -758h-38z" />
    <glyph glyph-name="Lcommaaccent" unicode="&#x13b;" horiz-adv-x="528" 
d="M450 0h-402l194 729h39l-186 -694h365zM172 -248l6 22c41 7 70 38 76 87c-7 -4 -14 -6 -22 -6c-18 0 -32 12 -32 30c0 22 19 37 41 37c25 0 37 -20 37 -47c0 -35 -11 -65 -32 -86c-21 -22 -45 -34 -74 -37z" />
    <glyph glyph-name="lcommaaccent" unicode="&#x13c;" horiz-adv-x="218" 
d="M27 0l200 758h37l-199 -758h-38zM-48 -248l6 22c41 7 70 38 76 87c-6 -4 -14 -6 -22 -6c-18 0 -32 12 -32 30c0 22 20 37 41 37c25 0 37 -19 37 -47c0 -35 -11 -65 -32 -86c-21 -22 -45 -34 -74 -37z" />
    <glyph glyph-name="Lcaron" unicode="&#x13d;" horiz-adv-x="530" 
d="M473 559h-27l63 186h44zM450 0h-402l194 729h39l-186 -694h365z" />
    <glyph glyph-name="lcaron" unicode="&#x13e;" horiz-adv-x="236" 
d="M315 573h-27l62 186h45zM27 0l200 758h37l-199 -758h-38z" />
    <glyph glyph-name="Ldot" unicode="&#x13f;" horiz-adv-x="547" 
d="M450 0h-402l194 729h39l-186 -694h365zM501 313c-19 0 -33 14 -33 33c0 24 18 42 41 42c19 0 34 -14 34 -33c0 -24 -18 -42 -42 -42z" />
    <glyph glyph-name="ldot" unicode="&#x140;" horiz-adv-x="295" 
d="M27 0l200 758h37l-199 -758h-38zM282 313c-20 0 -33 14 -33 33c0 24 18 42 40 42c20 0 34 -14 34 -33c0 -24 -18 -42 -41 -42z" />
    <glyph glyph-name="Lslash" unicode="&#x141;" horiz-adv-x="536" 
d="M438 435l-255 -102l-80 -298h363l-9 -35h-402l84 315l-109 -44l9 42l111 44l100 372h38l-94 -355l255 102z" />
    <glyph glyph-name="lslash" unicode="&#x142;" horiz-adv-x="288" 
d="M309 432l-107 -47l-101 -385h-37l97 368l-106 -46l11 40l106 46l92 350h37l-88 -333l107 46z" />
    <glyph glyph-name="Nacute" unicode="&#x143;" horiz-adv-x="796" 
d="M560 795h-37l147 161h45zM579 0l-311 684l-183 -684h-37l194 729h46l309 -679l181 679h38l-195 -729h-42z" />
    <glyph glyph-name="nacute" unicode="&#x144;" horiz-adv-x="587" 
d="M388 582h-37l147 160h45zM365 506c51 0 91 -15 119 -43c28 -29 42 -67 42 -113c0 -21 -4 -47 -12 -77l-72 -273h-36l73 276c6 22 9 46 9 72c0 77 -44 124 -132 124c-58 0 -120 -31 -167 -90c-24 -30 -41 -64 -51 -102l-74 -280h-36l130 497h37l-31 -116
c22 36 50 66 84 89c34 24 73 36 117 36z" />
    <glyph glyph-name="Ncommaaccent" unicode="&#x145;" horiz-adv-x="796" 
d="M579 0l-311 684l-183 -684h-37l194 729h46l309 -679l181 679h38l-195 -729h-42zM240 -248l6 22c41 7 70 38 76 87c-6 -4 -13 -6 -22 -6c-18 0 -31 12 -31 30c0 22 19 37 41 37c25 0 36 -19 36 -47c0 -35 -11 -65 -31 -86c-21 -22 -46 -34 -75 -37z" />
    <glyph glyph-name="ncommaaccent" unicode="&#x146;" horiz-adv-x="587" 
d="M162 -248l6 22c40 7 70 38 75 87c-6 -4 -13 -6 -22 -6c-17 0 -31 12 -31 30c0 22 19 37 41 37c25 0 36 -19 36 -47c0 -35 -10 -65 -31 -86c-21 -22 -46 -34 -74 -37zM365 506c51 0 91 -15 119 -43c28 -29 42 -67 42 -113c0 -21 -4 -47 -12 -77l-72 -273h-36l73 276
c6 22 9 46 9 72c0 77 -44 124 -132 124c-58 0 -120 -31 -167 -90c-24 -30 -41 -64 -51 -102l-74 -280h-36l130 497h37l-31 -116c22 36 50 66 84 89c34 24 73 36 117 36z" />
    <glyph glyph-name="Ncaron" unicode="&#x147;" horiz-adv-x="796" 
d="M579 0l-311 684l-183 -684h-37l194 729h46l309 -679l181 679h38l-195 -729h-42zM480 947l72 -132l143 132h40l-165 -160h-41l-82 160h33z" />
    <glyph glyph-name="ncaron" unicode="&#x148;" horiz-adv-x="587" 
d="M365 506c51 0 91 -15 119 -43c28 -29 42 -67 42 -113c0 -21 -4 -47 -12 -77l-72 -273h-36l73 276c6 22 9 46 9 72c0 77 -44 124 -132 124c-58 0 -120 -31 -167 -90c-24 -30 -41 -64 -51 -102l-74 -280h-36l130 497h37l-31 -116c22 36 50 66 84 89c34 24 73 36 117 36z
M312 742l73 -132l143 132h40l-166 -160h-40l-82 160h32z" />
    <glyph glyph-name="Eng" unicode="&#x14a;" horiz-adv-x="796" 
d="M582 -6l-314 690l-183 -684h-37l194 729h46l309 -679l181 679h38l-229 -856c-20 -78 -62 -121 -149 -121c-16 0 -30 2 -41 7l8 33c12 -4 23 -6 35 -6c35 0 62 10 79 29c16 18 25 36 32 62z" />
    <glyph glyph-name="eng" unicode="&#x14b;" horiz-adv-x="587" 
d="M374 -123l105 399c6 22 9 46 9 72c0 77 -44 124 -132 124c-58 0 -120 -31 -167 -90c-24 -30 -41 -64 -51 -102l-74 -280h-36l130 497h37l-31 -116c22 36 50 66 84 89c34 24 73 36 117 36c51 0 91 -15 119 -43c28 -29 42 -67 42 -113c0 -21 -4 -47 -12 -77l-105 -400
c-11 -40 -27 -70 -49 -90c-23 -21 -55 -31 -99 -31c-16 0 -30 2 -41 7l9 33c11 -4 22 -6 34 -6c35 0 62 10 79 29c16 18 25 36 32 62z" />
    <glyph glyph-name="Omacron" unicode="&#x14c;" horiz-adv-x="825" 
d="M366 854h311l-9 -34h-310zM525 16c-126 -49 -275 -19 -353 66c-54 56 -86 135 -86 221c-1 133 67 265 167 346c67 55 154 88 243 88c60 0 114 -14 161 -42c48 -27 84 -65 110 -111c26 -48 39 -100 39 -158c0 -88 -29 -177 -79 -250c-51 -72 -118 -129 -202 -160zM396 26
c51 0 99 12 146 34c46 22 86 52 118 89c33 36 59 79 78 127c19 49 29 98 29 149c0 103 -47 191 -130 240c-42 25 -89 37 -142 37c-125 1 -235 -71 -300 -169c-46 -66 -71 -148 -71 -229c0 -52 11 -99 34 -140c22 -43 55 -76 97 -100c41 -25 88 -38 141 -38z" />
    <glyph glyph-name="omacron" unicode="&#x14d;" horiz-adv-x="610" 
d="M212 631h310l-8 -34h-311zM273 -8c-65 0 -118 20 -159 62c-42 41 -63 93 -63 156c0 73 32 148 83 204c25 27 56 50 92 66c36 17 74 26 114 26c65 0 119 -21 161 -62s63 -93 63 -156c0 -50 -13 -98 -38 -143c-26 -45 -61 -82 -106 -110c-45 -29 -94 -43 -147 -43zM277 26
c45 0 87 12 125 37s68 57 90 97c22 39 33 81 33 125c0 55 -17 100 -51 135c-35 35 -80 52 -136 52c-45 0 -87 -12 -125 -37c-39 -25 -69 -57 -91 -97c-22 -39 -32 -81 -32 -124c0 -56 17 -101 51 -136c35 -35 80 -52 136 -52z" />
    <glyph glyph-name="Ohungarumlaut" unicode="&#x150;" horiz-adv-x="825" 
d="M454 795h-37l147 161h45zM590 795h-36l146 161h45zM525 16c-126 -49 -275 -19 -353 66c-54 56 -86 135 -86 221c-1 133 67 265 167 346c67 55 154 88 243 88c60 0 114 -14 161 -42c48 -27 84 -65 110 -111c26 -48 39 -100 39 -158c0 -88 -29 -177 -79 -250
c-51 -72 -118 -129 -202 -160zM396 26c51 0 99 12 146 34c46 22 86 52 118 89c33 36 59 79 78 127c19 49 29 98 29 149c0 103 -47 191 -130 240c-42 25 -89 37 -142 37c-125 1 -235 -71 -300 -169c-46 -66 -71 -148 -71 -229c0 -52 11 -99 34 -140c22 -43 55 -76 97 -100
c41 -25 88 -38 141 -38z" />
    <glyph glyph-name="ohungarumlaut" unicode="&#x151;" horiz-adv-x="610" 
d="M304 582h-37l147 160h45zM440 582h-36l146 160h45zM273 -8c-65 0 -118 20 -159 62c-42 41 -63 93 -63 156c0 73 32 148 83 204c25 27 56 50 92 66c36 17 74 26 114 26c65 0 119 -21 161 -62s63 -93 63 -156c0 -50 -13 -98 -38 -143c-26 -45 -61 -82 -106 -110
c-45 -29 -94 -43 -147 -43zM277 26c45 0 87 12 125 37s68 57 90 97c22 39 33 81 33 125c0 55 -17 100 -51 135c-35 35 -80 52 -136 52c-45 0 -87 -12 -125 -37c-39 -25 -69 -57 -91 -97c-22 -39 -32 -81 -32 -124c0 -56 17 -101 51 -136c35 -35 80 -52 136 -52z" />
    <glyph glyph-name="OE" unicode="&#x152;" horiz-adv-x="1226" 
d="M1105 0h-438l44 166h-1c-38 -54 -84 -96 -138 -127s-113 -47 -177 -47c-90 0 -170 34 -223 90c-54 56 -86 135 -86 221c-1 133 67 265 167 346c67 55 154 88 243 88c82 0 149 -25 202 -74c53 -50 84 -113 93 -191h2l68 257h434l-9 -35h-396l-81 -304h364l-9 -36h-364
l-85 -319h400zM396 26c68 0 131 19 189 58c58 38 103 87 135 148c32 59 47 123 47 192c0 78 -27 148 -74 197c-48 50 -118 81 -198 81c-125 1 -235 -71 -300 -169c-46 -66 -71 -148 -71 -229c0 -52 11 -99 34 -140c22 -43 55 -76 97 -100c41 -25 88 -38 141 -38z" />
    <glyph glyph-name="oe" unicode="&#x153;" horiz-adv-x="1031" 
d="M982 242h-428c0 -11 -1 -19 -1 -25c0 -55 17 -101 51 -137s78 -54 132 -54c88 0 154 42 199 125l30 -17c-52 -95 -129 -142 -232 -142c-53 0 -98 15 -134 45c-37 30 -61 69 -73 119c-24 -49 -58 -88 -102 -118c-45 -31 -95 -46 -150 -46c-65 0 -119 20 -160 62
c-42 41 -63 93 -63 156c0 73 32 148 83 204c25 27 56 50 92 66c36 17 74 26 115 26c55 0 101 -15 138 -44c37 -30 61 -70 71 -119c23 47 55 87 97 117c43 31 88 46 139 46c65 0 114 -19 149 -56c35 -38 52 -90 52 -155c0 -12 -2 -30 -5 -53zM278 26c45 0 86 12 124 37
s68 57 90 97c22 39 33 81 33 125c0 55 -18 100 -52 135s-79 52 -134 52c-69 0 -134 -32 -178 -80s-71 -114 -71 -178c0 -56 17 -101 52 -136c34 -35 80 -52 136 -52zM558 275h391c0 10 1 16 1 20c0 55 -15 98 -43 130c-29 31 -70 47 -124 47c-33 0 -65 -9 -98 -27
c-32 -19 -60 -44 -83 -74c-23 -31 -38 -62 -44 -96z" />
    <glyph glyph-name="Racute" unicode="&#x154;" horiz-adv-x="653" 
d="M582 956h45l-155 -161h-37zM242 729h182c76 0 136 -16 178 -48s63 -77 63 -135c0 -64 -26 -116 -62 -151c-50 -50 -124 -78 -220 -83l170 -312h-45l-166 309h-173l-83 -309h-38zM576 418c33 34 50 76 50 125c0 96 -72 151 -205 151h-150l-93 -349h169
c104 0 180 24 229 73z" />
    <glyph glyph-name="racute" unicode="&#x155;" horiz-adv-x="328" 
d="M292 582h-37l147 160h45zM387 504l-9 -38h-3c-59 0 -116 -26 -157 -66s-71 -90 -85 -141l-69 -259h-36l130 497h37l-34 -127h1c22 39 54 71 97 97s86 38 128 37z" />
    <glyph glyph-name="Rcommaaccent" unicode="&#x156;" horiz-adv-x="653" 
d="M242 729h182c76 0 136 -16 178 -48c42 -31 63 -76 63 -135c0 -64 -26 -116 -62 -151c-50 -50 -124 -78 -220 -83l170 -312h-45l-166 309h-173l-83 -309h-38zM576 418c33 34 50 76 50 125c0 96 -72 151 -205 151h-150l-93 -349h169c104 0 180 24 229 73zM194 -248l6 22
c40 7 70 38 75 87c-6 -4 -14 -6 -22 -6c-18 0 -32 12 -32 30c0 22 19 37 41 37c25 0 37 -20 37 -47c0 -35 -10 -65 -31 -86c-21 -22 -46 -34 -74 -37z" />
    <glyph glyph-name="rcommaaccent" unicode="&#x157;" horiz-adv-x="328" 
d="M-40 -248l5 22c41 7 70 38 76 87c-6 -4 -14 -6 -22 -6c-18 0 -32 12 -32 30c0 22 19 37 41 37c25 0 37 -20 37 -47c0 -35 -10 -65 -31 -86c-21 -22 -46 -34 -74 -37zM387 504l-9 -38h-3c-59 0 -116 -26 -157 -66s-71 -90 -85 -141l-69 -259h-36l130 497h37l-34 -127h1
c22 39 54 71 97 97s86 38 128 37z" />
    <glyph glyph-name="Rcaron" unicode="&#x158;" horiz-adv-x="653" 
d="M242 729h182c76 0 136 -16 178 -48s63 -77 63 -135c0 -64 -26 -116 -62 -151c-50 -50 -124 -78 -220 -83l170 -312h-45l-166 309h-173l-83 -309h-38zM576 418c33 34 50 76 50 125c0 96 -72 151 -205 151h-150l-93 -349h169c104 0 180 24 229 73zM389 955l73 -131l143 131
h40l-166 -160h-40l-83 160h33z" />
    <glyph glyph-name="rcaron" unicode="&#x159;" horiz-adv-x="328" 
d="M387 504l-9 -38h-3c-59 0 -116 -26 -157 -66c-42 -40 -72 -90 -85 -141l-69 -259h-36l130 497h37l-34 -127h1c22 39 54 71 97 97c42 26 85 38 128 37zM215 742l72 -132l143 132h40l-165 -160h-41l-82 160h33z" />
    <glyph glyph-name="Sacute" unicode="&#x15a;" 
d="M404 795h-37l147 161h45zM286 -9c-130 -2 -239 110 -236 241l36 7c0 -60 19 -110 58 -151c38 -41 86 -62 144 -62c51 0 98 14 136 40s61 70 61 124c0 22 -7 43 -15 59c-10 15 -28 32 -41 43c-13 9 -41 26 -54 33c-7 4 -16 8 -28 14l-52 26c-16 8 -29 15 -40 22
c-12 6 -25 15 -40 26c-15 12 -27 22 -37 34c-19 22 -35 56 -35 90c0 62 29 115 73 148s102 51 164 51c48 0 88 -10 120 -29c33 -20 57 -45 75 -76c16 -30 25 -61 25 -90l-36 -7c-1 25 -8 64 -36 101c-27 35 -75 67 -149 66c-69 0 -130 -22 -168 -72c-20 -25 -29 -55 -29 -90
c0 -28 13 -54 29 -73c8 -9 19 -18 32 -28c28 -20 41 -26 72 -42l52 -26c23 -11 42 -22 58 -31c15 -10 31 -22 48 -37c33 -29 51 -66 51 -110c0 -64 -28 -117 -73 -150c-44 -33 -102 -51 -165 -51z" />
    <glyph glyph-name="sacute" unicode="&#x15b;" horiz-adv-x="456" 
d="M283 582h-37l147 160h45zM262 506c118 0 164 -82 170 -135l-34 -9c-6 39 -37 109 -137 109c-44 0 -85 -13 -112 -46c-14 -16 -21 -35 -21 -58c0 -22 9 -40 26 -53c16 -13 31 -21 53 -31l68 -28c69 -30 104 -70 104 -120c0 -46 -21 -85 -54 -108c-34 -23 -75 -36 -120 -36
c-63 0 -113 23 -140 56c-28 33 -41 70 -41 106l36 8c-1 -31 10 -62 31 -89c22 -27 63 -46 115 -46c46 0 88 14 115 47c14 17 21 37 21 60s-10 43 -28 58c-19 15 -35 24 -59 34l-64 27c-28 13 -48 24 -68 43c-20 17 -32 41 -32 69c0 30 9 56 26 78s38 38 64 48
c25 11 52 16 81 16z" />
    <glyph glyph-name="Scircumflex" unicode="&#x15c;" 
d="M286 -9c-130 -2 -239 110 -236 241l36 7c0 -60 19 -110 58 -151c38 -41 86 -62 144 -62c51 0 98 14 136 40s61 70 61 124c0 22 -7 43 -15 59c-10 15 -28 32 -41 43c-13 9 -41 26 -54 33c-7 4 -16 8 -28 14l-52 26c-16 8 -29 15 -40 22c-12 6 -25 15 -40 26
c-15 12 -27 22 -37 34c-19 22 -35 56 -35 90c0 62 29 115 73 148s102 51 164 51c48 0 88 -10 120 -29c33 -20 57 -45 75 -76c16 -30 25 -61 25 -90l-36 -7c-1 25 -8 64 -36 101c-27 35 -75 67 -149 66c-69 0 -130 -22 -168 -72c-20 -25 -29 -55 -29 -90c0 -28 13 -54 29 -73
c8 -9 19 -18 32 -28c28 -20 41 -26 72 -42l52 -26c23 -11 42 -22 58 -31c15 -10 31 -22 48 -37c33 -29 51 -66 51 -110c0 -64 -28 -117 -73 -150c-44 -33 -102 -51 -165 -51zM499 796l-73 132l-143 -133h-39l165 161h41l82 -160h-33z" />
    <glyph glyph-name="scircumflex" unicode="&#x15d;" horiz-adv-x="456" 
d="M262 506c118 0 164 -82 170 -135l-34 -9c-6 39 -37 109 -137 109c-44 0 -85 -13 -112 -46c-14 -16 -21 -35 -21 -58c0 -22 9 -40 26 -53c16 -13 31 -21 53 -31l68 -28c69 -30 104 -70 104 -120c0 -46 -21 -85 -54 -108c-34 -23 -75 -36 -120 -36c-63 0 -113 23 -140 56
c-28 33 -41 70 -41 106l36 8c-1 -31 10 -62 31 -89c22 -27 63 -46 115 -46c46 0 88 14 115 47c14 17 21 37 21 60s-10 43 -28 58c-19 15 -35 24 -59 34l-64 27c-28 13 -48 24 -68 43c-20 17 -32 41 -32 69c0 30 9 56 26 78s38 38 64 48c25 11 52 16 81 16zM385 582l-72 132
l-143 -132h-40l165 160h41l82 -160h-33z" />
    <glyph glyph-name="Scedilla" unicode="&#x15e;" 
d="M269 -8c-62 4 -114 30 -156 76c-43 46 -63 100 -63 164l36 7c0 -60 19 -110 58 -151c38 -41 86 -62 144 -62c51 0 98 14 136 40s61 70 61 124c0 22 -7 43 -15 59c-10 15 -28 32 -41 43c-13 9 -41 26 -54 33c-7 4 -16 8 -28 14l-52 26c-16 8 -29 15 -40 22
c-12 6 -25 15 -40 26c-15 12 -27 22 -37 34c-19 22 -35 56 -35 90c0 62 29 115 73 148s102 51 164 51c48 0 88 -10 120 -29c33 -20 57 -45 75 -76c16 -30 25 -61 25 -90l-36 -7c-1 25 -8 64 -36 101c-27 35 -75 67 -149 66c-69 0 -130 -22 -168 -72c-20 -25 -29 -55 -29 -90
c0 -28 13 -54 29 -73c8 -9 19 -18 32 -28c28 -20 41 -26 72 -42l52 -26c23 -11 42 -22 58 -31c15 -10 31 -22 48 -37c33 -29 51 -66 51 -110c0 -61 -26 -112 -66 -145c-41 -32 -94 -52 -153 -55c22 -22 37 -55 37 -84c0 -40 -14 -73 -42 -97c-27 -24 -61 -36 -102 -36
c-37 0 -65 6 -86 19l8 28c23 -9 48 -14 74 -14c32 0 59 10 80 29s32 43 32 74c0 29 -12 56 -37 81z" />
    <glyph glyph-name="scedilla" unicode="&#x15f;" horiz-adv-x="456" 
d="M262 506c118 0 164 -82 170 -135l-34 -9c-6 39 -37 109 -137 109c-44 0 -85 -13 -112 -46c-14 -16 -21 -35 -21 -58c0 -22 9 -40 26 -53c16 -13 31 -21 53 -31l68 -28c69 -30 104 -70 104 -120c0 -91 -77 -137 -159 -143c22 -22 37 -55 37 -84c0 -40 -14 -73 -41 -97
c-28 -24 -62 -36 -102 -36c-37 0 -66 6 -87 19l8 28c24 -9 49 -14 75 -14c31 0 58 10 80 29c21 19 31 43 31 74c0 29 -12 56 -37 81c-55 4 -100 29 -124 60c-24 32 -36 67 -36 101l36 8c-1 -31 10 -62 31 -89c22 -27 63 -46 115 -46c46 0 88 14 115 47c14 17 21 37 21 60
s-10 43 -28 58c-19 15 -35 24 -59 34l-64 27c-28 13 -48 24 -68 43c-20 17 -32 41 -32 69c0 30 9 56 26 78s38 38 64 48c25 11 52 16 81 16z" />
    <glyph glyph-name="Scaron" unicode="&#x160;" 
d="M286 -9c-130 -2 -239 110 -236 241l36 7c0 -60 19 -110 58 -151c38 -41 86 -62 144 -62c51 0 98 14 136 40s61 70 61 124c0 22 -7 43 -15 59c-10 15 -28 32 -41 43c-13 9 -41 26 -54 33c-7 4 -16 8 -28 14l-52 26c-16 8 -29 15 -40 22c-12 6 -25 15 -40 26
c-15 12 -27 22 -37 34c-19 22 -35 56 -35 90c0 62 29 115 73 148s102 51 164 51c48 0 88 -10 120 -29c33 -20 57 -45 75 -76c16 -30 25 -61 25 -90l-36 -7c-1 25 -8 64 -36 101c-27 35 -75 67 -149 66c-69 0 -130 -22 -168 -72c-20 -25 -29 -55 -29 -90c0 -28 13 -54 29 -73
c8 -9 19 -18 32 -28c28 -20 41 -26 72 -42l52 -26c23 -11 42 -22 58 -31c15 -10 31 -22 48 -37c33 -29 51 -66 51 -110c0 -64 -28 -117 -73 -150c-44 -33 -102 -51 -165 -51zM322 955l73 -131l143 131h39l-165 -160h-41l-82 160h33z" />
    <glyph glyph-name="scaron" unicode="&#x161;" horiz-adv-x="456" 
d="M262 506c118 0 164 -82 170 -135l-34 -9c-6 39 -37 109 -137 109c-44 0 -85 -13 -112 -46c-14 -16 -21 -35 -21 -58c0 -22 9 -40 26 -53c16 -13 31 -21 53 -31l68 -28c69 -30 104 -70 104 -120c0 -46 -21 -85 -54 -108c-34 -23 -75 -36 -120 -36c-63 0 -113 23 -140 56
c-28 33 -41 70 -41 106l36 8c-1 -31 10 -62 31 -89c22 -27 63 -46 115 -46c46 0 88 14 115 47c14 17 21 37 21 60s-10 43 -28 58c-19 15 -35 24 -59 34l-64 27c-28 13 -48 24 -68 43c-20 17 -32 41 -32 69c0 30 9 56 26 78s38 38 64 48c25 11 52 16 81 16zM214 742l72 -132
l144 132h39l-165 -160h-41l-82 160h33z" />
    <glyph glyph-name="uni0162" unicode="&#x162;" horiz-adv-x="566" 
d="M200 0l185 694h-246l10 35h525l-10 -35h-241l-185 -694h-2c26 -22 46 -59 46 -92c0 -40 -14 -73 -42 -97c-27 -24 -61 -36 -102 -36c-37 0 -65 6 -87 19l8 28c24 -9 49 -14 75 -14c32 0 59 10 80 29s32 43 32 74c0 33 -20 68 -46 89z" />
    <glyph glyph-name="uni0163" unicode="&#x163;" horiz-adv-x="316" 
d="M100 22c-14 14 -20 34 -20 61c0 16 2 35 8 57l86 324h-95l9 33h94l38 142h37l-38 -142h128l-9 -33h-128l-86 -330c-5 -18 -7 -34 -7 -48c0 -43 27 -56 73 -56c10 0 24 1 40 5l-10 -35c-15 -3 -28 -5 -38 -5c-12 0 -23 1 -33 3c16 -18 23 -38 23 -60
c0 -40 -13 -73 -41 -97c-27 -24 -61 -36 -102 -36c-37 0 -65 6 -86 19l7 28c25 -9 50 -14 75 -14c32 0 59 10 80 29c22 19 32 43 32 74c0 29 -12 56 -37 81z" />
    <glyph glyph-name="Tcaron" unicode="&#x164;" horiz-adv-x="566" 
d="M423 694l-185 -694h-38l185 694h-246l10 35h525l-10 -35h-241zM359 955l72 -131l144 131h39l-165 -160h-41l-82 160h33z" />
    <glyph glyph-name="tcaron" unicode="&#x165;" horiz-adv-x="315" 
d="M361 573h-26l62 186h44zM210 464l-87 -330c-5 -18 -7 -34 -7 -48c0 -43 27 -56 73 -56c11 0 24 1 40 5l-9 -35c-16 -3 -29 -5 -39 -5c-68 0 -102 30 -102 88c0 15 3 34 9 57l85 324h-95l9 33h94l38 142h37l-38 -142h128l-9 -33h-127z" />
    <glyph glyph-name="Tbar" unicode="&#x166;" 
d="M150 354l9 36h155l81 304h-245l9 35h525l-9 -35h-241l-82 -304h155l-10 -36h-154l-95 -354h-38l94 354h-154z" />
    <glyph glyph-name="tbar" unicode="&#x167;" horiz-adv-x="322" 
d="M342 464h-128l-45 -172h119l-9 -33h-119l-33 -125c-4 -18 -7 -34 -7 -48c0 -43 28 -56 74 -56c10 0 23 1 39 5l-9 -35c-15 -3 -28 -5 -38 -5c-69 0 -103 30 -103 88c0 15 3 34 9 57l31 119h-89l8 33h90l45 172h-94l8 33h95l37 142h37l-38 -142h128z" />
    <glyph glyph-name="Utilde" unicode="&#x168;" horiz-adv-x="729" 
d="M649 885l24 -8c-10 -22 -23 -42 -39 -57c-16 -16 -34 -24 -54 -24c-24 0 -50 16 -66 32c-17 16 -41 31 -63 31c-25 0 -48 -19 -67 -57l-25 11c26 52 58 78 96 78c26 0 53 -16 70 -31c16 -15 39 -31 59 -31c27 0 50 26 65 56zM601 283l119 446h39l-121 -452
c-24 -90 -59 -158 -105 -204c-54 -54 -120 -81 -198 -81c-71 0 -127 18 -169 54c-41 36 -62 87 -62 153c0 31 5 67 16 108l111 422h39l-116 -434c-9 -32 -13 -62 -13 -93c0 -55 18 -98 53 -129c35 -30 82 -46 143 -46c66 0 122 23 168 70c42 43 75 104 96 186z" />
    <glyph glyph-name="utilde" unicode="&#x169;" 
d="M520 672l24 -9c-10 -22 -23 -41 -39 -57s-34 -23 -54 -23c-24 0 -50 15 -66 31c-17 16 -41 31 -63 31c-25 0 -48 -19 -67 -57l-25 12c26 51 58 77 96 77c26 0 53 -15 69 -31c17 -15 40 -31 60 -31c27 0 50 26 65 57zM429 115c-23 -35 -51 -65 -84 -88
c-35 -24 -73 -36 -117 -36c-52 0 -91 14 -119 44c-28 28 -42 66 -42 112c0 23 3 49 11 77l72 273h37l-73 -277c-7 -23 -10 -47 -10 -70c0 -78 45 -125 132 -125c46 0 89 18 132 53c42 35 71 82 86 139l74 280h37l-100 -381c-13 -49 -20 -87 -19 -116h-36c0 29 5 65 16 108z
" />
    <glyph glyph-name="Umacron" unicode="&#x16a;" horiz-adv-x="729" 
d="M367 854h311l-9 -34h-310zM720 729h39l-121 -452c-24 -90 -59 -158 -105 -204c-54 -54 -120 -81 -198 -81c-71 0 -127 18 -169 54c-41 36 -62 87 -62 153c0 31 5 67 16 108l111 422h39l-116 -434c-9 -32 -13 -62 -13 -93c0 -55 18 -98 53 -129c35 -30 82 -46 143 -46
c66 0 122 23 168 70c42 43 75 104 96 186z" />
    <glyph glyph-name="umacron" unicode="&#x16b;" 
d="M232 631h310l-8 -34h-311zM429 115c-23 -35 -51 -65 -84 -88c-35 -24 -73 -36 -117 -36c-52 0 -91 14 -119 44c-28 28 -42 66 -42 112c0 23 3 49 11 77l72 273h37l-73 -277c-7 -23 -10 -47 -10 -70c0 -78 45 -125 132 -125c46 0 89 18 132 53c42 35 71 82 86 139l74 280
h37l-100 -381c-13 -49 -20 -87 -19 -116h-36c0 29 5 65 16 108z" />
    <glyph glyph-name="Uring" unicode="&#x16e;" horiz-adv-x="729" 
d="M597 879c0 -29 -9 -53 -29 -73c-19 -20 -43 -30 -72 -30c-24 0 -44 8 -60 24c-16 15 -23 35 -23 60c0 28 10 52 29 72c20 20 43 30 72 30c24 0 44 -7 60 -23s23 -36 23 -60zM565 878c0 30 -23 54 -54 54c-18 0 -34 -7 -47 -22s-19 -31 -19 -50c0 -30 22 -53 53 -53
c19 0 35 7 48 21s19 31 19 50zM720 729h39l-121 -452c-24 -90 -59 -158 -105 -204c-54 -54 -120 -81 -198 -81c-71 0 -127 18 -169 54c-41 36 -62 87 -62 153c0 31 5 67 16 108l111 422h39l-116 -434c-9 -32 -13 -62 -13 -93c0 -55 18 -98 53 -129c35 -30 82 -46 143 -46
c66 0 122 23 168 70c42 43 75 104 96 186z" />
    <glyph glyph-name="uring" unicode="&#x16f;" 
d="M472 665c0 -29 -10 -53 -29 -73c-20 -20 -44 -30 -73 -30c-24 0 -43 8 -59 23c-16 16 -24 36 -24 60c0 29 10 53 30 73c19 20 43 30 71 30c24 0 44 -8 60 -23c16 -16 24 -36 24 -60zM440 664c0 30 -23 54 -54 54c-19 0 -34 -8 -47 -22c-14 -15 -20 -31 -20 -50
c0 -31 23 -53 54 -53c18 0 34 7 47 21s20 31 20 50zM429 115c-23 -35 -51 -65 -84 -88c-35 -24 -73 -36 -117 -36c-52 0 -91 14 -119 44c-28 28 -42 66 -42 112c0 23 3 49 11 77l72 273h37l-73 -277c-7 -23 -10 -47 -10 -70c0 -78 45 -125 132 -125c46 0 89 18 132 53
c42 35 71 82 86 139l74 280h37l-100 -381c-13 -49 -20 -87 -19 -116h-36c0 29 5 65 16 108z" />
    <glyph glyph-name="Uhungarumlaut" unicode="&#x170;" horiz-adv-x="729" 
d="M444 795h-37l147 161h45zM580 795h-37l147 161h45zM720 729h39l-121 -452c-24 -90 -59 -158 -105 -204c-54 -54 -120 -81 -198 -81c-71 0 -127 18 -169 54c-41 36 -62 87 -62 153c0 31 5 67 16 108l111 422h39l-116 -434c-9 -32 -13 -62 -13 -93c0 -55 18 -98 53 -129
c35 -30 82 -46 143 -46c66 0 122 23 168 70c42 43 75 104 96 186z" />
    <glyph glyph-name="uhungarumlaut" unicode="&#x171;" 
d="M327 582h-41l147 160h45zM464 582h-42l147 160h45zM429 115c-23 -35 -51 -65 -84 -88c-35 -24 -73 -36 -117 -36c-52 0 -91 14 -119 44c-28 28 -42 66 -42 112c0 23 3 49 11 77l72 273h37l-73 -277c-7 -23 -10 -47 -10 -70c0 -78 45 -125 132 -125c46 0 89 18 132 53
c42 35 71 82 86 139l74 280h37l-100 -381c-13 -49 -20 -87 -19 -116h-36c0 29 5 65 16 108z" />
    <glyph glyph-name="Uogonek" unicode="&#x172;" horiz-adv-x="729" 
d="M720 729h39l-121 -452c-24 -90 -59 -158 -105 -204c-37 -37 -80 -61 -129 -73h4c-74 -46 -111 -90 -111 -131c0 -44 32 -64 78 -64c4 0 10 0 18 1l-8 -30c-9 -2 -17 -3 -26 -3c-27 0 -50 8 -69 23s-29 36 -29 62c0 25 10 50 29 73c20 24 43 44 70 62
c-11 -1 -20 -1 -25 -1c-71 0 -127 18 -169 54c-41 36 -62 87 -62 153c0 31 5 67 16 108l111 422h39l-116 -434c-9 -32 -13 -62 -13 -93c0 -55 18 -98 53 -129c35 -30 82 -46 143 -46c66 0 122 23 168 70c42 43 75 104 96 186z" />
    <glyph glyph-name="uogonek" unicode="&#x173;" 
d="M431 -194l-8 -30c-9 -2 -18 -3 -26 -3c-27 0 -51 8 -69 23c-19 15 -29 36 -29 62c0 27 11 53 34 79c22 26 48 47 77 63c0 34 5 69 16 108l3 7c-23 -35 -51 -65 -84 -88c-35 -24 -73 -36 -117 -36c-52 0 -91 14 -119 44c-28 28 -42 66 -42 112c0 23 3 49 11 77l72 273h37
l-73 -277c-7 -23 -10 -47 -10 -70c0 -78 45 -125 132 -125c46 0 90 18 132 53s71 82 86 139l74 280h37l-100 -381c-13 -49 -20 -87 -19 -116c-74 -46 -111 -90 -111 -131c0 -44 32 -64 77 -64c4 0 10 0 19 1z" />
    <glyph glyph-name="Wcircumflex" unicode="&#x174;" horiz-adv-x="1033" 
d="M1130 729l-429 -729h-41l-34 670l-383 -670h-42l-47 729h38l42 -683l386 683h37l34 -683l397 683h42zM754 796l-72 132l-143 -133h-40l166 161h40l82 -160h-33z" />
    <glyph glyph-name="wcircumflex" unicode="&#x175;" horiz-adv-x="797" 
d="M837 497l-305 -497h-38l-42 446l-276 -446h-37l-46 497h37l39 -452l277 452h37l40 -452l274 452h40zM595 582l-72 132l-143 -132h-40l165 160h41l82 -160h-33z" />
    <glyph glyph-name="Ycircumflex" unicode="&#x176;" horiz-adv-x="668" 
d="M363 308l-82 -308h-39l85 317l-172 412h42l157 -381l360 381h51zM569 796l-73 132l-143 -133h-39l165 161h41l82 -160h-33z" />
    <glyph glyph-name="ycircumflex" unicode="&#x177;" horiz-adv-x="537" 
d="M66 -245h-44l173 246l-106 496h39l94 -459l316 459h43zM468 582l-73 132l-143 -132h-39l165 160h41l82 -160h-33z" />
    <glyph glyph-name="Ydieresis" unicode="&#x178;" horiz-adv-x="668" 
d="M385 847c-24 21 -5 65 25 63c20 0 36 -16 36 -37c0 -20 -16 -37 -36 -37c-10 0 -18 4 -25 11zM540 847c-14 14 -14 38 0 53c15 14 37 14 52 0c14 -15 14 -39 0 -53c-15 -15 -37 -15 -52 0zM363 308l-82 -308h-39l85 317l-172 412h42l157 -381l360 381h51z" />
    <glyph glyph-name="Zacute" unicode="&#x179;" horiz-adv-x="565" 
d="M435 795h-41l147 161h45zM480 35l-10 -35h-507l9 34l632 660h-441l9 35h491l-10 -34l-631 -660h458z" />
    <glyph glyph-name="zacute" unicode="&#x17a;" horiz-adv-x="457" 
d="M315 582h-37l147 160h45zM359 0h-389l8 31l454 434h-332l9 32h379l-8 -31l-453 -434h341z" />
    <glyph glyph-name="Zdotaccent" unicode="&#x17b;" horiz-adv-x="565" 
d="M430 837c-19 0 -33 14 -33 33c0 24 18 42 41 42c19 0 33 -14 33 -33c0 -24 -18 -42 -41 -42zM480 35l-10 -35h-507l9 34l632 660h-441l9 35h491l-10 -34l-631 -660h458z" />
    <glyph glyph-name="zdotaccent" unicode="&#x17c;" horiz-adv-x="457" 
d="M327 622c-20 0 -34 14 -34 33c0 24 19 42 41 42c20 0 34 -14 34 -33c0 -24 -19 -42 -41 -42zM359 0h-389l8 31l454 434h-332l9 32h379l-8 -31l-453 -434h341z" />
    <glyph glyph-name="Zcaron" unicode="&#x17d;" horiz-adv-x="565" 
d="M653 695l-631 -660h458l-10 -35h-507l9 34l632 660h-441l9 35h491zM355 955l73 -131l143 131h40l-166 -160h-40l-82 160h32z" />
    <glyph glyph-name="zcaron" unicode="&#x17e;" horiz-adv-x="457" 
d="M254 742l70 -132l138 132h44l-165 -160h-41l-82 160h36zM359 0h-389l8 31l454 434h-332l9 32h379l-8 -31l-453 -434h341z" />
    <glyph glyph-name="florin" unicode="&#x192;" horiz-adv-x="504" 
d="M322 464h-114l9 33h120l52 113c37 81 92 121 166 121c20 0 37 -3 53 -9l-9 -33c-14 5 -29 8 -47 8c-57 0 -101 -33 -131 -99l-46 -101h136l-9 -33h-143l-161 -351c-37 -81 -92 -121 -166 -121c-21 0 -38 3 -52 9l9 33c12 -5 28 -8 46 -8c57 0 101 33 131 99z" />
    <glyph glyph-name="uni01B5" unicode="&#x1b5;" horiz-adv-x="574" 
d="M86 390h230l292 304h-441l9 35h491l-10 -34l-292 -305h209l-9 -36h-234l-305 -319h458l-9 -35h-508l9 34l306 320h-206z" />
    <glyph glyph-name="uni01B6" unicode="&#x1b6;" horiz-adv-x="463" 
d="M43 233l9 32h174l209 200h-332l8 32h380l-8 -31l-210 -201h157l-9 -32h-182l-209 -201h340l-8 -32h-390l8 31l212 202h-149z" />
    <glyph glyph-name="uni01CD" unicode="&#x1cd;" horiz-adv-x="704" 
d="M597 0l-36 208h-421l-148 -208h-43l518 729h41l127 -729h-38zM165 243h391l-76 445zM426 955l73 -131l143 131h39l-165 -160h-41l-82 160h33z" />
    <glyph glyph-name="uni01CE" unicode="&#x1ce;" horiz-adv-x="635" 
d="M475 117c-21 -32 -51 -62 -92 -87c-40 -25 -84 -38 -132 -38c-58 0 -106 20 -143 59c-38 39 -57 89 -57 149c-1 157 118 306 276 306c60 0 111 -20 144 -51s54 -69 63 -110v0l41 152h36l-100 -381c-13 -51 -20 -90 -19 -116h-37c0 28 6 64 18 108zM330 472
c-69 0 -133 -34 -175 -84c-41 -51 -66 -118 -66 -183c0 -52 16 -95 47 -129c32 -33 72 -50 121 -50c34 0 68 8 101 24c32 16 60 37 82 62c23 25 41 53 55 84c14 30 20 60 20 89c0 54 -16 99 -50 134c-35 36 -80 53 -135 53zM278 742l73 -132l143 132h40l-166 -160h-40
l-83 160h33z" />
    <glyph glyph-name="uni01CF" unicode="&#x1cf;" horiz-adv-x="261" 
d="M48 0l194 729h39l-195 -729h-38zM205 955l73 -131l143 131h40l-166 -160h-40l-82 160h32z" />
    <glyph glyph-name="uni01D0" unicode="&#x1d0;" horiz-adv-x="218" 
d="M65 0h-37l130 497h37zM130 742l73 -132l143 132h39l-165 -160h-40l-83 160h33z" />
    <glyph glyph-name="uni01D1" unicode="&#x1d1;" horiz-adv-x="825" 
d="M395 -8c-90 0 -170 34 -223 90c-54 56 -86 135 -86 221c-1 133 67 265 167 346c67 55 154 88 243 88c60 0 114 -14 161 -42c48 -27 84 -65 110 -111c26 -48 39 -100 39 -158c0 -55 -11 -109 -32 -161c-22 -54 -51 -100 -88 -140c-36 -40 -80 -72 -131 -96
c-52 -24 -105 -37 -160 -37zM396 26c51 0 99 12 146 34c46 22 86 52 118 89c33 36 59 79 78 127c19 49 29 98 29 149c0 103 -47 191 -130 240c-42 25 -89 37 -142 37c-125 1 -235 -71 -300 -169c-46 -66 -71 -148 -71 -229c0 -52 11 -99 34 -140c22 -43 55 -76 97 -100
c41 -25 88 -38 141 -38zM437 955l73 -131l143 131h40l-166 -160h-40l-82 160h32z" />
    <glyph glyph-name="uni01D2" unicode="&#x1d2;" horiz-adv-x="610" 
d="M273 -8c-65 0 -118 20 -159 62c-42 41 -63 93 -63 156c0 73 32 148 83 204c25 27 56 50 92 66c36 17 74 26 114 26c65 0 119 -21 161 -62s63 -93 63 -156c0 -50 -13 -98 -38 -143c-26 -45 -61 -82 -106 -110c-45 -29 -94 -43 -147 -43zM277 26c45 0 87 12 125 37
s68 57 90 97c22 39 33 81 33 125c0 55 -17 100 -51 135c-35 35 -80 52 -136 52c-45 0 -87 -12 -125 -37c-39 -25 -69 -57 -91 -97c-22 -39 -32 -81 -32 -124c0 -56 17 -101 51 -136c35 -35 80 -52 136 -52zM284 742l73 -132l143 132h40l-166 -160h-40l-83 160h33z" />
    <glyph glyph-name="uni01D3" unicode="&#x1d3;" horiz-adv-x="729" 
d="M720 729h39l-121 -452c-24 -90 -59 -158 -105 -204c-54 -54 -120 -81 -198 -81c-71 0 -127 18 -169 54c-41 36 -62 87 -62 153c0 31 5 67 16 108l111 422h39l-116 -434c-9 -32 -13 -62 -13 -93c0 -55 18 -98 53 -129c35 -30 82 -46 143 -46c66 0 122 23 168 70
c42 43 75 104 96 186zM438 945l72 -131l144 131h39l-165 -160h-41l-82 160h33z" />
    <glyph glyph-name="uni01D4" unicode="&#x1d4;" 
d="M429 115c-23 -35 -51 -65 -84 -88c-35 -24 -73 -36 -117 -36c-52 0 -91 14 -119 44c-28 28 -42 66 -42 112c0 23 3 49 11 77l72 273h37l-73 -277c-7 -23 -10 -47 -10 -70c0 -78 45 -125 132 -125c46 0 89 18 132 53c42 35 71 82 86 139l74 280h37l-100 -381
c-13 -49 -20 -87 -19 -116h-36c0 29 5 65 16 108zM308 742l73 -132l143 132h40l-166 -160h-40l-83 160h33z" />
    <glyph glyph-name="uni01D5" unicode="&#x1d5;" horiz-adv-x="729" 
d="M720 729h39l-121 -452c-24 -90 -59 -158 -105 -204c-54 -54 -120 -81 -198 -81c-71 0 -127 18 -169 54c-41 36 -62 87 -62 153c0 31 5 67 16 108l111 422h39l-116 -434c-9 -32 -13 -62 -13 -93c0 -55 18 -98 53 -129c35 -30 82 -46 143 -46c66 0 122 23 168 70
c42 43 75 104 96 186zM392 931h311l-8 -34h-311zM408 774c-23 21 -6 66 26 64c19 0 35 -17 35 -38c0 -20 -16 -37 -35 -37c-11 0 -19 4 -26 11zM564 774c-23 21 -6 66 25 64c20 0 36 -17 36 -38c0 -20 -16 -37 -36 -37c-10 0 -19 4 -25 11z" />
    <glyph glyph-name="uni01D6" unicode="&#x1d6;" 
d="M429 115c-23 -35 -51 -65 -84 -88c-35 -24 -73 -36 -117 -36c-52 0 -91 14 -119 44c-28 28 -42 66 -42 112c0 23 3 49 11 77l72 273h37l-73 -277c-7 -23 -10 -47 -10 -70c0 -78 45 -125 132 -125c46 0 89 18 132 53c42 35 71 82 86 139l74 280h37l-100 -381
c-13 -49 -20 -87 -19 -116h-36c0 29 5 65 16 108zM277 785h311l-8 -35h-311zM315 589c-20 0 -33 14 -33 34c0 22 17 41 40 41c20 0 33 -13 33 -33c0 -23 -17 -42 -40 -42zM462 589c-20 0 -33 14 -33 34c0 22 17 41 40 41c20 0 33 -13 33 -33c0 -23 -18 -42 -40 -42z" />
    <glyph glyph-name="uni01D7" unicode="&#x1d7;" horiz-adv-x="729" 
d="M720 729h39l-121 -452c-24 -90 -59 -158 -105 -204c-54 -54 -120 -81 -198 -81c-71 0 -127 18 -169 54c-41 36 -62 87 -62 153c0 31 5 67 16 108l111 422h39l-116 -434c-9 -32 -13 -62 -13 -93c0 -55 18 -98 53 -129c35 -30 82 -46 143 -46c66 0 122 23 168 70
c42 43 75 104 96 186zM408 774c-23 21 -6 66 26 64c19 0 35 -17 35 -38c0 -20 -16 -37 -35 -37c-11 0 -19 4 -26 11zM564 774c-23 21 -6 66 25 64c20 0 36 -17 36 -38c0 -20 -16 -37 -36 -37c-10 0 -19 4 -25 11zM542 879h-37l139 151h45z" />
    <glyph glyph-name="uni01D8" unicode="&#x1d8;" 
d="M429 115c-23 -35 -51 -65 -84 -88c-35 -24 -73 -36 -117 -36c-52 0 -91 14 -119 44c-28 28 -42 66 -42 112c0 23 3 49 11 77l72 273h37l-73 -277c-7 -23 -10 -47 -10 -70c0 -78 45 -125 132 -125c46 0 89 18 132 53c42 35 71 82 86 139l74 280h37l-100 -381
c-13 -49 -20 -87 -19 -116h-36c0 29 5 65 16 108zM430 732h-36l137 151h45zM315 589c-20 0 -33 14 -33 34c0 22 17 41 40 41c20 0 33 -13 33 -33c0 -23 -17 -42 -40 -42zM462 589c-20 0 -33 14 -33 34c0 22 17 41 40 41c20 0 33 -13 33 -33c0 -23 -18 -42 -40 -42z" />
    <glyph glyph-name="uni01D9" unicode="&#x1d9;" horiz-adv-x="729" 
d="M720 729h39l-121 -452c-24 -90 -59 -158 -105 -204c-54 -54 -120 -81 -198 -81c-71 0 -127 18 -169 54c-41 36 -62 87 -62 153c0 31 5 67 16 108l111 422h39l-116 -434c-9 -32 -13 -62 -13 -93c0 -55 18 -98 53 -129c35 -30 82 -46 143 -46c66 0 122 23 168 70
c42 43 75 104 96 186zM464 1030l70 -123l137 123h38l-158 -151h-40l-78 151h31zM408 774c-23 21 -6 66 26 64c19 0 35 -17 35 -38c0 -20 -16 -37 -35 -37c-11 0 -19 4 -26 11zM564 774c-23 21 -6 66 25 64c20 0 36 -17 36 -38c0 -20 -16 -37 -36 -37c-10 0 -19 4 -25 11z
" />
    <glyph glyph-name="uni01DA" unicode="&#x1da;" 
d="M429 115c-23 -35 -51 -65 -84 -88c-35 -24 -73 -36 -117 -36c-52 0 -91 14 -119 44c-28 28 -42 66 -42 112c0 23 3 49 11 77l72 273h37l-73 -277c-7 -23 -10 -47 -10 -70c0 -78 45 -125 132 -125c46 0 89 18 132 53c42 35 71 82 86 139l74 280h37l-100 -381
c-13 -49 -20 -87 -19 -116h-36c0 29 5 65 16 108zM351 884l69 -124l136 124h38l-156 -151h-42l-77 151h32zM315 589c-20 0 -33 14 -33 34c0 22 17 41 40 41c20 0 33 -13 33 -33c0 -23 -17 -42 -40 -42zM462 589c-20 0 -33 14 -33 34c0 22 17 41 40 41c20 0 33 -13 33 -33
c0 -23 -18 -42 -40 -42z" />
    <glyph glyph-name="uni01DB" unicode="&#x1db;" horiz-adv-x="729" 
d="M720 729h39l-121 -452c-24 -90 -59 -158 -105 -204c-54 -54 -120 -81 -198 -81c-71 0 -127 18 -169 54c-41 36 -62 87 -62 153c0 31 5 67 16 108l111 422h39l-116 -434c-9 -32 -13 -62 -13 -93c0 -55 18 -98 53 -129c35 -30 82 -46 143 -46c66 0 122 23 168 70
c42 43 75 104 96 186zM408 774c-23 21 -6 66 26 64c19 0 35 -17 35 -38c0 -20 -16 -37 -35 -37c-11 0 -19 4 -26 11zM564 774c-23 21 -6 66 25 64c20 0 36 -17 36 -38c0 -20 -16 -37 -36 -37c-10 0 -19 4 -25 11zM441 1030h38l58 -151h-29z" />
    <glyph glyph-name="uni01DC" unicode="&#x1dc;" 
d="M429 115c-23 -35 -51 -65 -84 -88c-35 -24 -73 -36 -117 -36c-52 0 -91 14 -119 44c-28 28 -42 66 -42 112c0 23 3 49 11 77l72 273h37l-73 -277c-7 -23 -10 -47 -10 -70c0 -78 45 -125 132 -125c46 0 89 18 132 53c42 35 71 82 86 139l74 280h37l-100 -381
c-13 -49 -20 -87 -19 -116h-36c0 29 5 65 16 108zM330 883h36l59 -151h-29zM315 589c-20 0 -33 14 -33 34c0 22 17 41 40 41c20 0 33 -13 33 -33c0 -23 -17 -42 -40 -42zM462 589c-20 0 -33 14 -33 34c0 22 17 41 40 41c20 0 33 -13 33 -33c0 -23 -18 -42 -40 -42z" />
    <glyph glyph-name="Gcaron" unicode="&#x1e6;" horiz-adv-x="805" 
d="M743 305h-340l9 35h375c-7 -54 -22 -103 -46 -147s-54 -81 -89 -109c-72 -59 -162 -92 -257 -92c-180 -2 -311 132 -308 311c0 238 189 434 410 434c73 0 139 -22 182 -53c21 -16 41 -34 57 -54c33 -41 49 -82 56 -120l-35 -11c-6 26 -14 53 -41 93c-13 21 -29 38 -46 54
c-19 15 -43 28 -73 39c-31 11 -64 17 -101 17c-132 1 -242 -73 -304 -172c-44 -68 -67 -148 -67 -226c0 -82 25 -149 75 -200c51 -52 116 -78 197 -78c60 0 114 13 162 38c46 24 86 57 117 98c35 45 57 92 67 143zM438 955l73 -131l143 131h40l-166 -160h-40l-83 160h33z
" />
    <glyph glyph-name="gcaron" unicode="&#x1e7;" horiz-adv-x="635" 
d="M612 497l-135 -514c-19 -73 -52 -130 -101 -171c-49 -40 -109 -61 -182 -61c-94 1 -157 41 -189 94c-23 35 -33 71 -34 107l35 8c0 -26 5 -53 23 -85c8 -17 20 -31 33 -44c27 -26 75 -45 133 -45c125 0 213 71 248 205l36 136h-1c-20 -31 -51 -58 -92 -82
c-41 -25 -85 -37 -131 -37c-56 0 -104 20 -142 60c-39 39 -58 87 -58 145c0 53 12 102 36 147s58 80 100 106c43 27 90 40 142 40c54 0 105 -20 139 -49s57 -67 65 -106v0l39 146h36zM520 294c0 50 -18 92 -53 126c-35 35 -79 51 -134 51c-71 0 -133 -30 -174 -77
c-41 -48 -66 -111 -66 -178c0 -50 16 -91 48 -124c33 -33 73 -49 121 -49c35 0 68 7 101 23c32 15 60 35 82 59c45 48 75 111 75 169zM284 742l73 -132l143 132h40l-166 -160h-40l-83 160h33z" />
    <glyph glyph-name="uni01E8" unicode="&#x1e8;" horiz-adv-x="601" 
d="M190 370h-5l-99 -370h-38l194 729h39l-91 -339h5l464 339h57l-485 -354l312 -375h-50zM391 947l73 -132l143 132h40l-166 -160h-40l-82 160h32z" />
    <glyph glyph-name="uni01E9" unicode="&#x1e9;" horiz-adv-x="470" 
d="M138 281h2l321 216h62l-348 -229l230 -268h-47l-223 262h-2l-69 -262h-37l200 758h36zM367 742l73 -132l143 132h40l-166 -160h-40l-82 160h32z" />
    <glyph glyph-name="uni01F4" unicode="&#x1f4;" horiz-adv-x="805" 
d="M510 795h-37l147 161h45zM743 305h-340l9 35h375c-7 -54 -22 -103 -46 -147s-54 -81 -89 -109c-72 -59 -162 -92 -257 -92c-180 -2 -311 132 -308 311c0 238 189 434 410 434c73 0 139 -22 182 -53c21 -16 41 -34 57 -54c33 -41 49 -82 56 -120l-35 -11
c-6 26 -14 53 -41 93c-13 21 -29 38 -46 54c-19 15 -43 28 -73 39c-31 11 -64 17 -101 17c-132 1 -242 -73 -304 -172c-44 -68 -67 -148 -67 -226c0 -82 25 -149 75 -200c51 -52 116 -78 197 -78c60 0 114 13 162 38c46 24 86 57 117 98c35 45 57 92 67 143z" />
    <glyph glyph-name="uni01F5" unicode="&#x1f5;" horiz-adv-x="635" 
d="M370 582h-37l147 160h45zM612 497l-135 -514c-19 -73 -52 -130 -101 -171c-49 -40 -109 -61 -182 -61c-94 1 -157 41 -189 94c-23 35 -33 71 -34 107l35 8c0 -26 5 -53 23 -85c8 -17 20 -31 33 -44c27 -26 75 -45 133 -45c125 0 212 70 248 205l36 136h-1
c-20 -31 -51 -58 -92 -82c-41 -25 -85 -37 -131 -37c-56 0 -104 20 -142 60c-39 39 -58 87 -58 145c0 53 12 102 36 147s58 80 100 106c43 27 90 40 142 40c54 0 105 -20 139 -49s57 -67 65 -106v0l39 146h36zM520 294c0 50 -18 92 -53 126c-35 35 -79 51 -134 51
c-71 0 -133 -30 -174 -77c-41 -48 -66 -111 -66 -178c0 -50 16 -91 48 -124c33 -33 73 -49 121 -49c35 0 68 7 101 23c32 15 60 35 82 59c45 48 75 111 75 169z" />
    <glyph glyph-name="Aringacute" unicode="&#x1fa;" horiz-adv-x="704" 
d="M692 1012l-138 -147c21 -16 32 -38 32 -67c0 -23 -6 -44 -20 -62c-14 -17 -31 -30 -53 -36l122 -700h-38l-36 208h-421l-148 -208h-43l500 703c-29 13 -47 41 -47 76c0 28 10 52 29 72c20 20 44 30 72 30c7 0 15 -1 22 -2l122 133h45zM554 797c0 30 -23 54 -54 54
c-18 0 -34 -7 -47 -22c-13 -14 -19 -31 -19 -49c0 -31 22 -54 53 -54c19 0 35 7 48 21s19 31 19 50zM480 688l-315 -445h391z" />
    <glyph glyph-name="aringacute" unicode="&#x1fb;" horiz-adv-x="635" 
d="M586 878l-137 -147c21 -16 31 -38 31 -66c0 -29 -9 -53 -29 -73c-19 -20 -43 -30 -72 -30c-24 0 -44 8 -59 23c-16 16 -24 36 -24 60c0 29 10 53 29 73c20 20 44 30 72 30c8 0 15 -1 23 -3l121 133h45zM448 664c0 30 -23 54 -53 54c-19 0 -35 -8 -48 -22
c-13 -15 -19 -31 -19 -50c0 -31 22 -53 53 -53c19 0 35 7 48 21s19 31 19 50zM475 117c-21 -32 -51 -62 -92 -87c-40 -25 -84 -38 -132 -38c-58 0 -106 20 -143 59c-38 39 -57 89 -57 149c-1 157 118 306 276 306c60 0 111 -20 144 -51s54 -69 63 -110v0l41 152h36
l-100 -381c-13 -51 -20 -90 -19 -116h-37c0 28 6 64 18 108zM330 472c-69 0 -133 -34 -175 -84c-41 -51 -66 -118 -66 -183c0 -52 16 -95 47 -129c32 -33 72 -50 121 -50c34 0 68 8 101 24c32 16 60 37 82 62c23 25 41 53 55 84c14 30 20 60 20 89c0 54 -16 99 -50 134
c-35 36 -80 53 -135 53z" />
    <glyph glyph-name="AEacute" unicode="&#x1fc;" horiz-adv-x="957" 
d="M694 795h-37l147 161h45zM469 208h-304l-181 -208h-47l636 729h453l-9 -35h-380l-81 -304h348l-10 -36h-348l-85 -319h384l-9 -35h-423zM478 243l121 451h-12l-392 -451h283z" />
    <glyph glyph-name="aeacute" unicode="&#x1fd;" horiz-adv-x="893" 
d="M510 582h-36l146 160h45zM176 -9c-78 -1 -153 44 -153 124c0 53 27 95 70 119c42 24 92 36 148 37l143 4c9 40 25 77 49 110c-5 26 -18 47 -41 63c-22 16 -49 24 -81 24c-49 0 -91 -16 -118 -35c-13 -10 -25 -22 -35 -34c-21 -26 -29 -45 -34 -63l-35 11
c7 22 18 46 43 76c12 14 27 28 43 39c32 23 82 40 138 40c34 0 64 -8 91 -23c26 -16 44 -38 54 -66c51 55 118 89 189 89c65 0 115 -19 150 -56c34 -38 52 -90 52 -155c0 -12 -2 -30 -5 -53h-429c0 -8 -1 -16 -1 -25c0 -56 17 -102 51 -137c35 -36 79 -54 133 -54
c88 0 154 42 199 125l30 -17c-52 -95 -129 -142 -232 -142c-47 0 -87 12 -122 35s-61 54 -78 94c-24 -39 -56 -71 -95 -94c-38 -24 -80 -36 -124 -36zM811 295c0 55 -14 98 -42 130c-29 31 -70 47 -124 47c-33 0 -65 -9 -98 -27c-32 -19 -61 -43 -84 -73
c-23 -31 -38 -63 -43 -97h390c1 10 1 16 1 20zM379 242l-135 -3c-46 -2 -84 -9 -122 -27c-37 -18 -61 -52 -61 -97c0 -26 12 -48 34 -65c23 -17 51 -25 84 -25c44 0 84 13 120 39s64 59 84 99c-4 17 -6 34 -6 53c0 9 1 18 2 26z" />
    <glyph glyph-name="Oslashacute" unicode="&#x1fe;" horiz-adv-x="825" 
d="M520 795h-37l147 161h45zM806 718l-77 -80c49 -56 77 -130 77 -212c1 -133 -67 -265 -168 -345c-67 -56 -154 -89 -243 -89c-88 0 -160 28 -218 85l-88 -90l-25 25l90 91c-45 56 -68 123 -68 200c-1 133 67 265 167 346c67 55 154 88 243 88c82 0 151 -25 207 -74l78 79z
M495 702c-125 1 -235 -71 -300 -169c-46 -66 -71 -148 -71 -229c0 -68 19 -126 56 -174l498 506c-49 44 -110 66 -183 66zM396 26c51 0 99 12 146 34c46 22 86 52 118 89c33 36 59 79 78 127c19 49 29 98 29 149c0 74 -22 136 -65 187l-500 -509c51 -51 116 -77 194 -77z
" />
    <glyph glyph-name="oslashacute" unicode="&#x1ff;" horiz-adv-x="610" 
d="M365 582h-37l147 160h45zM580 499l-66 -68c33 -40 50 -88 50 -143c0 -50 -13 -98 -38 -143c-26 -45 -61 -82 -106 -110c-45 -29 -94 -43 -147 -43c-57 0 -106 16 -146 49l-70 -71l-22 22l70 71c-36 39 -54 88 -54 147c0 73 32 148 83 204c25 27 56 50 92 66
c36 17 74 26 114 26c60 0 110 -18 151 -54l68 68zM90 214c0 -49 14 -91 41 -125l336 339c-29 27 -77 44 -129 44c-45 0 -87 -12 -125 -37c-39 -25 -69 -57 -91 -97c-22 -39 -32 -81 -32 -124zM525 285c0 47 -13 87 -38 120l-334 -337c33 -28 74 -42 124 -42
c45 0 87 12 125 37s68 57 90 97c22 39 33 81 33 125z" />
    <glyph glyph-name="Scommaaccent" unicode="&#x218;" 
d="M187 -248l6 22c41 7 70 38 76 87c-6 -4 -14 -6 -22 -6c-18 0 -32 12 -32 30c0 22 19 37 41 37c25 0 37 -19 37 -47c0 -35 -11 -65 -32 -86c-21 -22 -45 -34 -74 -37zM286 -9c-130 -2 -239 110 -236 241l36 7c0 -60 19 -110 58 -151c38 -41 86 -62 144 -62
c51 0 98 14 136 40s61 70 61 124c0 22 -7 43 -15 59c-10 15 -28 32 -41 43c-13 9 -41 26 -54 33c-7 4 -16 8 -28 14l-52 26c-16 8 -29 15 -40 22c-12 6 -25 15 -40 26c-15 12 -27 22 -37 34c-19 22 -35 56 -35 90c0 62 29 115 73 148s102 51 164 51c48 0 88 -10 120 -29
c33 -20 57 -45 75 -76c16 -30 25 -61 25 -90l-36 -7c-1 25 -8 64 -36 101c-27 35 -75 67 -149 66c-69 0 -130 -22 -168 -72c-20 -25 -29 -55 -29 -90c0 -28 13 -54 29 -73c8 -9 19 -18 32 -28c28 -20 41 -26 72 -42l52 -26c23 -11 42 -22 58 -31c15 -10 31 -22 48 -37
c33 -29 51 -66 51 -110c0 -64 -28 -117 -73 -150c-44 -33 -102 -51 -165 -51z" />
    <glyph glyph-name="scommaaccent" unicode="&#x219;" horiz-adv-x="456" 
d="M119 -248l6 22c40 7 70 38 75 87c-6 -4 -14 -6 -22 -6c-18 0 -32 12 -32 30c0 22 19 37 42 37c25 0 36 -19 36 -47c0 -35 -10 -65 -31 -86c-21 -22 -46 -34 -74 -37zM262 506c118 0 164 -82 170 -135l-34 -9c-6 39 -37 109 -137 109c-44 0 -85 -13 -112 -46
c-14 -16 -21 -35 -21 -58c0 -22 9 -40 26 -53c16 -13 31 -21 53 -31l68 -28c69 -30 104 -70 104 -120c0 -46 -21 -85 -54 -108c-34 -23 -75 -36 -120 -36c-63 0 -113 23 -140 56c-28 33 -41 70 -41 106l36 8c-1 -31 10 -62 31 -89c22 -27 63 -46 115 -46c46 0 88 14 115 47
c14 17 21 37 21 60s-10 43 -28 58c-19 15 -35 24 -59 34l-64 27c-28 13 -48 24 -68 43c-20 17 -32 41 -32 69c0 30 9 56 26 78s38 38 64 48c25 11 52 16 81 16z" />
    <glyph glyph-name="uni021A" unicode="&#x21a;" horiz-adv-x="566" 
d="M423 694l-185 -694h-38l185 694h-246l10 35h525l-10 -35h-241zM125 -248l6 22c40 7 70 38 76 87c-7 -4 -14 -6 -22 -6c-18 0 -32 12 -32 30c0 22 19 37 41 37c25 0 36 -19 36 -47c0 -35 -10 -65 -30 -86c-21 -22 -46 -34 -75 -37z" />
    <glyph glyph-name="uni021B" unicode="&#x21b;" horiz-adv-x="315" 
d="M210 464l-87 -330c-5 -18 -7 -34 -7 -48c0 -43 27 -56 73 -56c11 0 24 1 40 5l-9 -35c-16 -3 -29 -5 -39 -5c-68 0 -102 30 -102 88c0 15 3 34 9 57l85 324h-95l9 33h94l38 142h37l-38 -142h128l-9 -33h-127zM30 -248l6 22c40 7 70 38 75 87c-6 -4 -13 -6 -21 -6
c-18 0 -32 12 -32 30c0 22 19 37 41 37c25 0 36 -19 36 -47c0 -35 -10 -65 -31 -86c-21 -22 -45 -34 -74 -37z" />
    <glyph glyph-name="uni0237" unicode="&#x237;" horiz-adv-x="225" 
d="M166 497h36l-164 -625c-11 -39 -27 -69 -49 -90c-23 -20 -55 -30 -99 -30c-16 0 -30 2 -41 7l9 33c11 -4 22 -6 34 -6c35 0 62 10 78 29c17 18 26 36 33 62z" />
    <glyph glyph-name="gravecomb" unicode="&#x300;" horiz-adv-x="0" 
d="M-50 742h37l63 -160h-30z" />
    <glyph glyph-name="acutecomb" unicode="&#x301;" horiz-adv-x="0" 
d="M-59 582h-37l147 160h45z" />
    <glyph glyph-name="uni0302" unicode="&#x302;" horiz-adv-x="0" 
d="M111 582l-72 132l-144 -132h-39l165 160h41l82 -160h-33z" />
    <glyph glyph-name="tildecomb" unicode="&#x303;" horiz-adv-x="0" 
d="M133 672l24 -9c-10 -22 -23 -41 -39 -57s-33 -23 -54 -23c-24 0 -50 15 -66 31c-17 16 -41 31 -63 31c-25 0 -48 -19 -67 -57l-25 12c26 51 58 77 96 77c26 0 53 -15 70 -31c16 -15 39 -31 59 -31c27 0 50 26 65 57z" />
    <glyph glyph-name="uni0304" unicode="&#x304;" horiz-adv-x="0" 
d="M-151 631h311l-9 -34h-311z" />
    <glyph glyph-name="uni0306" unicode="&#x306;" horiz-adv-x="0" 
d="M131 731h30c-29 -92 -96 -149 -189 -149c-123 0 -134 98 -127 149h28c-4 -77 31 -116 105 -116c67 0 117 39 153 116z" />
    <glyph glyph-name="uni0307" unicode="&#x307;" horiz-adv-x="0" 
d="M-4 622c-19 0 -33 14 -33 33c0 24 18 42 41 42c19 0 33 -14 33 -33c0 -24 -18 -42 -41 -42z" />
    <glyph glyph-name="uni0308" unicode="&#x308;" horiz-adv-x="0" 
d="M-77 622c-19 0 -33 14 -33 33c0 24 17 42 40 42c20 0 33 -14 33 -33c0 -24 -18 -42 -40 -42zM70 622c-20 0 -33 14 -33 33c0 24 18 42 40 42c19 0 33 -14 33 -33c0 -24 -18 -42 -40 -42z" />
    <glyph glyph-name="uni030A" unicode="&#x30a;" horiz-adv-x="0" 
d="M92 665c0 -29 -9 -53 -29 -73c-19 -20 -43 -30 -72 -30c-24 0 -44 8 -60 23c-16 16 -23 36 -23 60c0 29 9 53 29 73c19 20 43 30 72 30c24 0 44 -8 60 -23c16 -16 23 -36 23 -60zM60 664c0 30 -23 54 -54 54c-18 0 -34 -8 -47 -22c-13 -15 -19 -31 -19 -50
c0 -31 22 -53 53 -53c19 0 35 7 48 21s19 31 19 50z" />
    <glyph glyph-name="uni030B" unicode="&#x30b;" horiz-adv-x="0" 
d="M-127 582h-37l147 160h45zM9 582h-37l147 160h45z" />
    <glyph glyph-name="uni030C" unicode="&#x30c;" horiz-adv-x="0" 
d="M-111 742l72 -132l144 132h39l-165 -160h-41l-82 160h33z" />
    <glyph glyph-name="uni0312" unicode="&#x312;" horiz-adv-x="0" 
d="M53 756l-6 -21c-41 -8 -70 -39 -76 -88c7 4 14 6 22 6c18 0 32 -12 32 -30c0 -22 -19 -37 -41 -37c-25 0 -37 20 -37 47c0 36 11 65 32 87c21 21 45 34 74 36z" />
    <glyph glyph-name="uni0326" unicode="&#x326;" horiz-adv-x="0" 
d="M-53 -248l6 22c41 7 70 38 76 87c-7 -4 -14 -6 -22 -6c-18 0 -32 12 -32 30c0 22 19 37 41 37c25 0 37 -19 37 -47c0 -35 -11 -65 -32 -86c-21 -22 -45 -34 -74 -37z" />
    <glyph glyph-name="uni0327" unicode="&#x327;" horiz-adv-x="0" 
d="M34 0h36c26 -22 45 -59 45 -92c0 -40 -14 -73 -41 -97c-28 -24 -62 -36 -103 -36c-36 0 -65 6 -86 19l8 28c24 -9 49 -14 75 -14c32 0 58 10 80 29c21 19 32 43 32 74c0 33 -20 67 -46 89z" />
    <glyph glyph-name="uni0328" unicode="&#x328;" horiz-adv-x="0" 
d="M58 -194l-8 -30c-8 -2 -17 -3 -26 -3c-27 0 -50 8 -69 23s-28 36 -28 62c0 19 6 38 18 57c12 20 26 36 42 50c15 13 32 25 49 35h37c-74 -47 -111 -90 -111 -131c0 -44 32 -64 78 -64c4 0 10 0 18 1z" />
    <glyph glyph-name="Theta" unicode="&#x398;" horiz-adv-x="825" 
d="M395 -8c-90 0 -170 34 -223 90c-54 56 -86 135 -86 221c-1 133 67 265 167 346c67 55 154 88 243 88c60 0 114 -14 161 -42c48 -27 84 -65 110 -111c26 -48 39 -100 39 -158c0 -55 -11 -109 -32 -161c-22 -54 -51 -100 -88 -140c-36 -40 -80 -72 -131 -96
c-52 -24 -105 -37 -160 -37zM396 26c51 0 99 12 146 34c46 22 86 52 118 89c33 36 59 79 78 127c19 49 29 98 29 149c0 103 -47 191 -130 240c-42 25 -89 37 -142 37c-125 1 -235 -71 -300 -169c-46 -66 -71 -148 -71 -229c0 -52 11 -99 34 -140c22 -43 55 -76 97 -100
c41 -25 88 -38 141 -38zM205 355h475l10 34h-475z" />
    <glyph glyph-name="uni03A9" unicode="&#x3a9;" horiz-adv-x="826" 
d="M430 0l28 107c89 16 169 60 226 120c56 60 91 144 91 233c0 46 -11 88 -35 125s-55 66 -95 86c-39 21 -82 31 -128 31c-51 0 -100 -9 -147 -28c-46 -19 -87 -44 -121 -76s-61 -70 -82 -115c-20 -45 -31 -93 -31 -144c0 -56 16 -106 48 -150c31 -44 72 -72 123 -82
l-28 -107h-269l9 35h234l12 47c-35 10 -65 29 -90 57c-26 27 -45 58 -58 93c-12 35 -19 71 -19 108c0 90 32 175 86 239c26 32 57 60 92 84c69 47 155 74 241 74s164 -32 216 -82c51 -51 82 -120 82 -194c0 -61 -14 -118 -42 -172s-68 -99 -118 -135
c-50 -37 -106 -62 -169 -76l-11 -43h228l-10 -35h-263z" />
    <glyph glyph-name="theta" unicode="&#x3b8;" horiz-adv-x="675" 
d="M297 -8c-152 0 -216 128 -216 270c0 120 34 247 96 341c42 63 92 111 158 138c32 13 66 20 102 20c74 0 132 -30 166 -81c34 -50 52 -115 52 -190c1 -144 -52 -296 -137 -392c-57 -66 -136 -106 -221 -106zM132 395h477c5 30 7 62 7 94c0 125 -53 238 -181 238
c-75 0 -145 -38 -196 -100s-88 -142 -107 -232zM603 362h-477c-5 -31 -7 -64 -7 -99c0 -127 56 -237 180 -237c76 0 147 39 198 101c50 62 88 144 106 235z" />
    <glyph glyph-name="pi" unicode="&#x3c0;" horiz-adv-x="568" 
d="M475 30l-10 -34c-5 -1 -10 -1 -14 -1c-69 0 -103 30 -103 88c0 15 3 34 9 57l85 324h-227l-122 -464h-37l123 464h-110l9 33h519l-8 -33h-110l-87 -330c-4 -18 -7 -34 -7 -48c0 -43 28 -56 74 -56h16z" />
    <glyph glyph-name="uni0401" unicode="&#x401;" horiz-adv-x="608" 
d="M385 847c-24 21 -6 65 25 63c20 0 36 -16 36 -37c0 -20 -16 -37 -36 -37c-10 0 -19 4 -25 11zM540 847c-14 14 -14 38 0 53c14 14 37 14 51 0c14 -15 14 -39 0 -53c-14 -15 -37 -15 -51 0zM487 0h-439l194 729h435l-9 -35h-398l-80 -304h365l-10 -36h-365l-85 -319h401z
" />
    <glyph glyph-name="uni0402" unicode="&#x402;" horiz-adv-x="767" 
d="M440 -8c-44 0 -80 8 -109 25l19 31c25 -13 55 -20 92 -20c71 0 130 22 177 67c46 45 70 103 70 174c0 46 -16 82 -47 109c-32 27 -72 41 -120 41c-47 0 -90 -7 -129 -21c-40 -15 -81 -37 -123 -66l-89 -332h-38l185 694h-188l9 35h487l-9 -35h-261l-85 -320
c82 52 159 81 244 81c59 0 107 -17 146 -50c38 -34 57 -79 57 -135c0 -81 -31 -154 -82 -201c-51 -48 -124 -77 -206 -77z" />
    <glyph glyph-name="uni0403" unicode="&#x403;" horiz-adv-x="537" 
d="M438 795h-37l147 161h45zM242 729h393l-9 -35h-355l-185 -694h-38z" />
    <glyph glyph-name="uni0404" unicode="&#x404;" horiz-adv-x="793" 
d="M720 247l35 -14c-30 -73 -76 -132 -139 -175c-62 -44 -136 -66 -221 -66c-58 0 -110 14 -157 41s-84 65 -110 114c-27 48 -40 103 -40 164c0 55 11 109 32 161c22 53 52 98 89 137c36 38 81 70 133 93c51 23 105 35 162 35c95 0 183 -41 242 -116c29 -37 47 -80 54 -128
l-35 -11c-18 129 -135 222 -265 220c-88 0 -175 -37 -238 -93c-64 -57 -111 -136 -127 -219h376l-9 -36h-372c-2 -11 -3 -25 -3 -42c0 -108 46 -198 129 -248c42 -25 90 -38 144 -38c74 0 138 20 193 61c55 40 97 93 127 160z" />
    <glyph glyph-name="uni0405" unicode="&#x405;" 
d="M286 -9c-130 -2 -239 110 -236 241l36 7c0 -60 19 -110 58 -151c38 -41 86 -62 144 -62c51 0 98 14 136 40s61 70 61 124c0 22 -7 43 -15 59c-10 15 -28 32 -41 43c-13 9 -41 26 -54 33c-7 4 -16 8 -28 14l-52 26c-16 8 -29 15 -40 22c-12 6 -25 15 -40 26
c-15 12 -27 22 -37 34c-19 22 -35 56 -35 90c0 62 29 115 73 148s102 51 164 51c48 0 88 -10 120 -29c33 -20 57 -45 75 -76c16 -30 25 -61 25 -90l-36 -7c-1 25 -8 64 -36 101c-27 35 -75 67 -149 66c-69 0 -130 -22 -168 -72c-20 -25 -29 -55 -29 -90c0 -28 13 -54 29 -73
c8 -9 19 -18 32 -28c28 -20 41 -26 72 -42l52 -26c23 -11 42 -22 58 -31c15 -10 31 -22 48 -37c33 -29 51 -66 51 -110c0 -64 -28 -117 -73 -150c-44 -33 -102 -51 -165 -51z" />
    <glyph glyph-name="uni0406" unicode="&#x406;" horiz-adv-x="261" 
d="M48 0l194 729h39l-195 -729h-38z" />
    <glyph glyph-name="uni0407" unicode="&#x407;" horiz-adv-x="261" 
d="M199 847c-14 14 -14 38 0 53c14 14 37 14 51 0c14 -15 14 -39 0 -53c-14 -15 -37 -15 -51 0zM342 847c-24 21 -6 65 25 63c20 0 36 -16 36 -37c0 -20 -16 -37 -36 -37c-10 0 -18 4 -25 11zM48 0l194 729h39l-195 -729h-38z" />
    <glyph glyph-name="uni0408" unicode="&#x408;" horiz-adv-x="567" 
d="M219 -8c-59 0 -105 18 -139 52c-33 35 -50 79 -50 132c0 26 5 55 13 89l8 30l38 2l-11 -44c-7 -29 -10 -52 -10 -70c0 -47 14 -85 42 -113c28 -29 65 -43 110 -43c52 0 94 17 126 49c33 33 56 76 70 129l140 524h39l-141 -529c-37 -138 -115 -208 -235 -208z" />
    <glyph glyph-name="uni0409" unicode="&#x409;" horiz-adv-x="1137" 
d="M766 729l-82 -309h181c133 0 232 -54 232 -178c0 -77 -30 -136 -90 -178c-61 -43 -143 -64 -248 -64h-226l186 694h-337l-106 -285c-18 -49 -36 -93 -52 -130c-17 -39 -35 -76 -55 -112c-21 -37 -41 -67 -61 -91c-40 -47 -89 -79 -140 -79c-3 0 -8 1 -13 1l9 35
c42 0 86 31 122 77c18 23 37 51 55 86c19 35 36 70 52 106s32 77 49 123l114 304h410zM581 35h172c198 0 306 74 306 207c0 105 -89 143 -196 143h-188z" />
    <glyph glyph-name="uni040A" unicode="&#x40a;" horiz-adv-x="1165" 
d="M791 0h-234l100 375h-471l-100 -375h-38l194 729h39l-86 -319h471l86 319h39l-86 -319h192c70 0 126 -15 167 -44c40 -30 61 -73 61 -130c0 -75 -30 -133 -90 -174c-59 -42 -140 -62 -244 -62zM896 375h-200l-91 -340h187c116 0 204 27 256 88c25 31 38 68 38 112
c0 47 -17 82 -51 105s-80 35 -139 35z" />
    <glyph glyph-name="uni040B" unicode="&#x40b;" horiz-adv-x="761" 
d="M647 0h-38l67 251c4 17 7 33 7 47c0 89 -77 121 -156 121c-70 0 -154 -24 -253 -71l-93 -348h-38l185 694h-188l9 35h487l-9 -35h-261l-81 -308c98 45 178 68 241 68c49 0 94 -10 133 -33c37 -23 62 -64 62 -115c0 -19 -3 -38 -8 -59z" />
    <glyph glyph-name="uni040C" unicode="&#x40c;" horiz-adv-x="601" 
d="M455 795h-36l146 161h45zM543 0h-50l-303 370h-5l-99 -370h-38l194 729h39l-91 -339h5l464 339h57l-485 -354z" />
    <glyph glyph-name="uni040E" unicode="&#x40e;" horiz-adv-x="647" 
d="M762 729l-419 -559c-40 -54 -74 -90 -119 -124c-46 -35 -99 -54 -159 -54c-27 0 -51 3 -73 9l9 35c25 -6 47 -8 65 -8c42 0 84 14 115 32c16 10 32 22 48 36c31 28 52 52 76 84l-166 549h40l154 -512l384 512h45zM454 805c-68 0 -102 29 -117 64c-12 25 -14 46 -12 70
l29 6c-1 -71 33 -106 104 -106c66 0 116 35 150 106l29 -7c-32 -82 -96 -133 -183 -133z" />
    <glyph glyph-name="uni040F" unicode="&#x40f;" horiz-adv-x="752" 
d="M772 729l-195 -729h-245l-40 -150h-39l40 150h-245l194 729h38l-185 -694h453l185 694h39z" />
    <glyph glyph-name="uni0410" unicode="&#x410;" horiz-adv-x="704" 
d="M508 729l127 -729h-38l-36 208h-421l-148 -208h-43l518 729h41zM556 243l-76 445l-315 -445h391z" />
    <glyph glyph-name="uni0411" unicode="&#x411;" horiz-adv-x="674" 
d="M395 375h-209l-91 -340h187c196 0 303 72 303 202c0 37 -11 66 -34 89c-32 33 -84 49 -156 49zM290 0h-242l194 729h465l-9 -35h-427l-76 -284h201c71 0 127 -15 167 -45c41 -29 61 -72 61 -129c0 -74 -30 -132 -89 -174c-60 -41 -141 -62 -245 -62z" />
    <glyph glyph-name="uni0412" unicode="&#x412;" horiz-adv-x="681" 
d="M242 729h211c64 0 116 -14 156 -43s60 -69 60 -120c0 -56 -24 -104 -62 -136c-38 -31 -86 -51 -139 -59c92 -21 148 -73 148 -156c0 -63 -26 -114 -79 -155c-53 -40 -127 -60 -222 -60h-267zM449 694h-178l-81 -304h188c77 0 139 15 184 46s68 74 68 127
c0 42 -17 74 -49 97c-33 23 -77 34 -132 34zM371 354h-191l-85 -319h221c83 0 147 17 193 51s69 78 69 132c0 43 -19 77 -57 101c-38 23 -88 35 -150 35z" />
    <glyph glyph-name="uni0413" unicode="&#x413;" horiz-adv-x="537" 
d="M626 694h-355l-185 -694h-38l194 729h393z" />
    <glyph glyph-name="uni0414" unicode="&#x414;" horiz-adv-x="758" 
d="M244 440l108 289h411l-185 -694h78l-49 -185h-38l40 150h-624l-40 -150h-38l49 185c44 0 88 30 125 76c19 24 38 53 57 89c20 35 37 72 54 110c16 38 33 81 52 130zM40 35h500l175 659h-337l-101 -270c-43 -116 -83 -204 -118 -263s-75 -101 -119 -126z" />
    <glyph glyph-name="uni0415" unicode="&#x415;" horiz-adv-x="608" 
d="M487 0h-439l194 729h435l-9 -35h-398l-80 -304h365l-10 -36h-365l-85 -319h401z" />
    <glyph glyph-name="uni0416" unicode="&#x416;" horiz-adv-x="894" 
d="M464 371h-5l-461 -371h-61l486 386l-276 343h44l273 -340h5l91 340h38l-91 -340h5l442 340h57l-463 -353l283 -376h-48l-275 371h-5l-99 -371h-39z" />
    <glyph glyph-name="uni0417" unicode="&#x417;" horiz-adv-x="583" 
d="M523 233c0 -74 -32 -138 -82 -178c-49 -40 -116 -63 -186 -63h-10c-62 0 -115 21 -149 52c-17 15 -31 32 -43 51c-23 39 -31 77 -29 112l39 7c-3 -44 14 -102 57 -142c27 -26 73 -45 126 -45h10c58 0 114 20 157 54c42 34 70 89 70 150c0 49 -19 87 -57 112
c-37 26 -88 38 -152 38h-21l-8 30l331 283h-412l9 35h462l-10 -37l-325 -277c68 -2 122 -20 162 -55c41 -35 61 -77 61 -127z" />
    <glyph glyph-name="uni0418" unicode="&#x418;" horiz-adv-x="778" 
d="M48 0l194 729h38l-180 -675l650 675h48l-195 -729h-38l180 675l-649 -675h-48z" />
    <glyph glyph-name="uni0419" unicode="&#x419;" horiz-adv-x="778" 
d="M745 675l-649 -675h-48l194 729h38l-180 -675l650 675h48l-195 -729h-38zM541 805c-43 0 -76 14 -95 32c-29 29 -36 70 -34 102l29 6c-1 -71 34 -106 104 -106c66 0 116 35 150 106l30 -7c-33 -82 -97 -133 -184 -133z" />
    <glyph glyph-name="uni041A" unicode="&#x41a;" horiz-adv-x="601" 
d="M190 370h-5l-99 -370h-38l194 729h39l-91 -339h5l464 339h57l-485 -354l312 -375h-50z" />
    <glyph glyph-name="uni041B" unicode="&#x41b;" horiz-adv-x="747" 
d="M382 694l-106 -285c-18 -49 -36 -93 -52 -130c-17 -39 -35 -76 -55 -112c-21 -37 -41 -67 -61 -91c-40 -47 -89 -79 -140 -79c-3 0 -8 1 -13 1l9 35c42 0 86 31 122 77c18 23 37 51 55 86c19 35 36 70 52 106s32 77 49 123l114 304h410l-194 -729h-39l186 694h-337z" />
    <glyph glyph-name="uni041C" unicode="&#x41c;" horiz-adv-x="965" 
d="M931 674l-494 -674h-34l-138 674l-180 -674h-37l194 729h48l139 -684l503 684h53l-195 -729h-38z" />
    <glyph glyph-name="uni041D" unicode="&#x41d;" horiz-adv-x="771" 
d="M557 0l94 354h-470l-95 -354h-38l194 729h39l-91 -339h470l92 339h38l-194 -729h-39z" />
    <glyph glyph-name="uni041E" unicode="&#x41e;" horiz-adv-x="825" 
d="M395 -8c-90 0 -170 34 -223 90c-54 56 -86 135 -86 221c-1 133 67 265 167 346c67 55 154 88 243 88c60 0 114 -14 161 -42c48 -27 84 -65 110 -111c26 -48 39 -100 39 -158c0 -55 -11 -109 -32 -161c-22 -54 -51 -100 -88 -140c-36 -40 -80 -72 -131 -96
c-52 -24 -105 -37 -160 -37zM396 26c51 0 99 12 146 34c46 22 86 52 118 89c33 36 59 79 78 127c19 49 29 98 29 149c0 103 -47 191 -130 240c-42 25 -89 37 -142 37c-125 1 -235 -71 -300 -169c-46 -66 -71 -148 -71 -229c0 -52 11 -99 34 -140c22 -43 55 -76 97 -100
c41 -25 88 -38 141 -38z" />
    <glyph glyph-name="uni041F" unicode="&#x41f;" horiz-adv-x="752" 
d="M539 0l185 694h-453l-185 -694h-38l194 729h530l-195 -729h-38z" />
    <glyph glyph-name="uni0420" unicode="&#x420;" horiz-adv-x="622" 
d="M166 300l-80 -300h-38l194 729h175c77 0 137 -16 178 -49c41 -34 62 -79 62 -138c0 -74 -30 -133 -89 -177c-60 -43 -143 -65 -247 -65h-155zM619 540c0 42 -13 76 -39 102c-35 35 -90 52 -165 52h-145l-95 -359h150c93 0 165 19 217 56c51 38 77 87 77 149z" />
    <glyph glyph-name="uni0421" unicode="&#x421;" horiz-adv-x="790" 
d="M720 247l35 -14c-30 -73 -76 -132 -139 -175c-62 -44 -136 -66 -221 -66c-58 0 -110 14 -157 41s-84 65 -110 114c-27 48 -40 103 -40 164c0 55 11 109 32 161c22 53 52 98 89 137c36 38 81 70 133 93c51 23 105 35 162 35c95 0 183 -41 241 -116c30 -37 48 -80 55 -128
l-35 -11c-10 65 -40 118 -90 158c-50 41 -109 62 -176 62c-50 0 -99 -11 -145 -33s-86 -50 -119 -86s-59 -78 -78 -125c-20 -48 -30 -96 -30 -146c0 -108 46 -198 129 -248c42 -25 90 -38 144 -38c74 0 138 20 193 61c55 40 97 93 127 160z" />
    <glyph glyph-name="uni0422" unicode="&#x422;" horiz-adv-x="566" 
d="M423 694l-185 -694h-38l185 694h-246l10 35h525l-10 -35h-241z" />
    <glyph glyph-name="uni0423" unicode="&#x423;" horiz-adv-x="647" 
d="M762 729l-419 -559c-40 -54 -74 -90 -119 -124c-46 -35 -99 -54 -159 -54c-27 0 -51 3 -73 9l9 35c25 -6 47 -8 65 -8c42 0 84 14 115 32c16 10 32 22 48 36c31 28 52 52 76 84l-166 549h40l154 -512l384 512h45z" />
    <glyph glyph-name="uni0424" unicode="&#x424;" horiz-adv-x="893" 
d="M565 752h38l-19 -73h1c91 0 168 -32 216 -82c47 -51 73 -118 73 -193c1 -107 -56 -213 -153 -279c-64 -45 -154 -72 -252 -72h-53l-20 -76h-38l20 76h-1c-92 0 -169 32 -216 82c-48 51 -74 118 -74 193c0 90 39 177 107 242c34 33 77 60 129 79c52 20 108 30 170 30h52z
M387 88l149 556h-50c-111 0 -205 -35 -266 -92c-60 -57 -95 -135 -95 -222c0 -72 23 -130 69 -175s110 -67 193 -67zM574 644l-149 -556h50c111 0 205 35 266 92c60 56 95 135 95 222c0 70 -23 129 -66 173c-43 43 -112 69 -196 69z" />
    <glyph glyph-name="uni0425" unicode="&#x425;" horiz-adv-x="641" 
d="M530 0l-179 345l-349 -345h-49l381 376l-185 353h40l172 -329l335 329h49l-367 -360l193 -369h-41z" />
    <glyph glyph-name="uni0426" unicode="&#x426;" horiz-adv-x="766" 
d="M48 0l194 729h39l-186 -694h453l185 694h39l-186 -694h79l-50 -185h-38l40 150h-569z" />
    <glyph glyph-name="uni0427" unicode="&#x427;" horiz-adv-x="684" 
d="M470 0l93 346c-103 -50 -185 -75 -248 -75c-66 0 -117 14 -151 41c-35 27 -52 63 -52 109c0 19 3 39 8 60l66 248h39l-68 -254c-6 -20 -8 -37 -8 -50c0 -79 56 -120 164 -120c65 0 152 27 261 82l91 342h39l-195 -729h-39z" />
    <glyph glyph-name="uni0428" unicode="&#x428;" horiz-adv-x="1139" 
d="M534 35h401l185 694h38l-194 -729h-916l194 729h39l-186 -694h401l185 694h39z" />
    <glyph glyph-name="uni0429" unicode="&#x429;" horiz-adv-x="1153" 
d="M973 35h78l-49 -185h-38l40 150h-956l194 729h39l-186 -694h400l186 694h39l-186 -694h401l185 694h38z" />
    <glyph glyph-name="uni042A" unicode="&#x42a;" horiz-adv-x="724" 
d="M271 420h181c133 0 233 -54 233 -178c0 -77 -31 -136 -91 -178c-61 -43 -144 -64 -248 -64h-226l186 694h-178l10 35h216zM262 385l-93 -350h171c99 0 175 18 227 54c53 36 79 86 79 153c0 105 -89 143 -196 143h-188z" />
    <glyph glyph-name="uni042B" unicode="&#x42b;" horiz-adv-x="888" 
d="M198 420h182c133 0 231 -54 231 -178c0 -77 -30 -136 -90 -178c-61 -43 -143 -64 -248 -64h-225l194 729h39zM675 0l195 729h38l-195 -729h-38zM189 385l-94 -350h172c99 0 175 18 228 54c52 36 79 86 79 153c0 105 -90 143 -196 143h-189z" />
    <glyph glyph-name="uni042C" unicode="&#x42c;" horiz-adv-x="651" 
d="M198 420h182c133 0 231 -54 231 -178c0 -77 -30 -136 -90 -178c-61 -43 -143 -64 -248 -64h-225l194 729h39zM189 385l-94 -350h172c99 0 175 18 228 54c52 36 79 86 79 153c0 105 -90 143 -196 143h-189z" />
    <glyph glyph-name="uni042D" unicode="&#x42d;" horiz-adv-x="792" 
d="M357 -8c-77 0 -142 23 -198 70c-56 46 -90 106 -102 180l36 11c11 -67 40 -121 90 -163c49 -42 108 -64 179 -64c91 0 177 37 240 95c63 59 109 142 124 233h-381l10 36h376c1 7 1 19 1 35c0 103 -45 190 -128 240c-42 25 -90 37 -144 37c-73 0 -136 -19 -192 -56
c-55 -38 -97 -89 -124 -154l-35 13c29 71 76 127 140 169c63 42 135 63 215 63c58 0 111 -13 157 -40c47 -27 84 -64 111 -112c26 -47 39 -100 39 -159c0 -119 -46 -227 -120 -306s-178 -128 -294 -128z" />
    <glyph glyph-name="uni042E" unicode="&#x42e;" horiz-adv-x="1042" 
d="M347 346h-168l-93 -346h-38l194 729h39l-93 -348h164c12 68 37 129 75 183s83 97 138 127c54 31 111 46 172 46c57 0 107 -13 151 -39c43 -27 77 -63 100 -108s34 -96 34 -153c1 -146 -66 -279 -163 -358c-65 -55 -147 -87 -230 -87c-57 0 -107 13 -150 39
c-44 26 -77 62 -100 108c-24 45 -35 96 -35 153c0 14 1 32 3 54zM984 437c2 149 -102 268 -247 266c-47 0 -93 -11 -137 -33c-43 -22 -81 -51 -113 -88s-57 -81 -76 -131c-19 -51 -29 -103 -29 -158c-2 -150 100 -268 247 -267c48 0 94 11 138 34c43 22 81 51 113 88
c31 37 57 81 75 132c19 50 29 102 29 157z" />
    <glyph glyph-name="uni042F" unicode="&#x42f;" horiz-adv-x="653" 
d="M440 0l80 299h-181l-302 -299h-52l308 303c-89 18 -161 67 -161 177c0 79 31 140 93 184c63 43 147 65 255 65h193l-195 -729h-38zM371 335h158l96 359h-145c-97 0 -173 -19 -227 -56c-55 -37 -82 -89 -82 -157c0 -107 88 -146 200 -146z" />
    <glyph glyph-name="uni0430" unicode="&#x430;" horiz-adv-x="635" 
d="M473 108l2 9v0c-21 -32 -51 -62 -92 -87c-40 -25 -84 -38 -132 -38c-58 0 -106 20 -143 59c-38 39 -57 89 -57 149c-1 157 118 306 276 306c60 0 111 -20 144 -51s54 -69 63 -110v0l41 152h36l-100 -381c-13 -51 -20 -90 -19 -116h-37c0 28 6 64 18 108zM330 472
c-69 0 -133 -34 -175 -84c-41 -51 -66 -118 -66 -183c0 -52 16 -95 47 -129c32 -33 72 -50 121 -50c34 0 68 8 101 24c32 16 60 37 82 62c23 25 41 53 55 84c14 30 20 60 20 89c0 54 -16 99 -50 134c-35 36 -80 53 -135 53z" />
    <glyph glyph-name="uni0431" unicode="&#x431;" horiz-adv-x="630" 
d="M447 701l188 41l8 -31l-184 -43c-136 -33 -214 -83 -263 -146c-24 -30 -42 -67 -53 -100c-6 -16 -11 -34 -15 -53h2c26 40 59 73 99 98c41 24 86 37 136 37c64 0 116 -20 158 -60c41 -40 62 -91 62 -154c1 -85 -49 -176 -119 -234c-46 -40 -108 -64 -168 -64
c-67 0 -121 20 -162 62c-41 41 -61 99 -61 176c0 92 14 170 51 245c18 37 41 70 70 99c56 58 142 104 251 127zM547 291c0 55 -17 99 -52 131c-34 32 -80 48 -136 48c-34 0 -66 -8 -97 -23s-57 -35 -79 -59c-43 -48 -71 -111 -71 -169s17 -104 50 -139
c33 -36 78 -54 136 -54c30 0 60 8 91 23c30 15 57 34 80 58s42 53 56 85c15 33 22 66 22 99z" />
    <glyph glyph-name="uni0432" unicode="&#x432;" horiz-adv-x="566" 
d="M523 384c0 -34 -13 -63 -37 -84c-25 -22 -56 -37 -96 -45c56 -15 96 -51 96 -109c0 -43 -18 -79 -56 -106c-38 -26 -88 -40 -151 -40h-251l130 497h216c46 0 82 -10 109 -30c27 -21 40 -48 40 -83zM485 385c0 53 -42 79 -115 79h-183l-51 -192h178c52 0 93 10 125 31
c31 21 46 48 46 82zM450 148c0 29 -13 51 -38 67s-57 24 -97 24h-188l-53 -205h203c53 0 95 10 126 30c31 21 47 48 47 84z" />
    <glyph glyph-name="uni0433" unicode="&#x433;" horiz-adv-x="425" 
d="M185 464l-121 -464h-37l131 497h316l-9 -33h-280z" />
    <glyph glyph-name="uni0434" unicode="&#x434;" horiz-adv-x="609" 
d="M232 497h338l-122 -464h58l-49 -187h-36l40 154h-462l-40 -154h-37l49 188h4c35 0 68 26 99 77s56 109 86 190zM41 33h370l114 431h-268l-70 -190c-24 -67 -48 -119 -71 -157c-22 -37 -47 -65 -75 -84z" />
    <glyph glyph-name="uni0435" unicode="&#x435;" horiz-adv-x="569" 
d="M520 242h-428c-1 -8 -2 -16 -2 -25c0 -55 17 -101 51 -137s79 -54 133 -54c88 0 154 42 199 125l30 -17c-52 -95 -129 -142 -232 -142c-64 0 -117 21 -157 63c-41 43 -61 96 -61 161c0 36 7 72 22 107c14 35 34 66 58 93s52 48 86 65s68 25 104 25c65 0 115 -19 150 -56
c34 -38 52 -90 52 -155c0 -12 -2 -30 -5 -53zM96 275h390c1 10 1 16 1 20c0 55 -14 98 -42 130c-29 31 -70 47 -125 47c-32 0 -64 -9 -97 -27c-33 -19 -60 -44 -83 -74c-24 -31 -38 -62 -44 -96z" />
    <glyph glyph-name="uni0436" unicode="&#x436;" horiz-adv-x="702" 
d="M401 497h37l-59 -223h4l309 223h58l-330 -238l207 -259h-46l-203 256h-4l-67 -256h-37l68 256h-4l-327 -256h-57l347 270l-207 227h46l203 -223h4z" />
    <glyph glyph-name="uni0437" unicode="&#x437;" horiz-adv-x="470" 
d="M231 292v-1c44 -1 83 -12 114 -35c34 -24 51 -56 51 -95c0 -54 -26 -99 -66 -126c-40 -28 -91 -44 -143 -44c-64 0 -114 22 -141 53c-27 30 -40 64 -38 96l35 7c-2 -58 39 -122 146 -122c41 0 81 11 115 32c33 21 55 58 55 103c0 32 -14 56 -43 74c-28 17 -64 26 -107 26
h-28l-9 27l238 177h-306l8 33h357l-10 -36z" />
    <glyph glyph-name="uni0438" unicode="&#x438;" horiz-adv-x="597" 
d="M523 440l-459 -440h-37l131 497h37l-116 -440l459 440h36l-130 -497h-37z" />
    <glyph glyph-name="uni0439" unicode="&#x439;" horiz-adv-x="597" 
d="M444 0h-37l116 440l-459 -440h-37l131 497h37l-116 -440l459 440h36zM376 582c-43 0 -76 13 -95 32c-29 29 -36 70 -34 102l29 6c-1 -71 34 -107 104 -107c66 0 116 36 150 106l30 -6c-33 -82 -97 -133 -184 -133z" />
    <glyph glyph-name="uni043A" unicode="&#x43a;" horiz-adv-x="470" 
d="M137 278h2l325 219h60l-348 -233l230 -264h-48l-223 259h-3l-68 -259h-36l130 497h37z" />
    <glyph glyph-name="uni043B" unicode="&#x43b;" horiz-adv-x="582" 
d="M247 464l-69 -190c-9 -26 -18 -49 -26 -68c-7 -19 -17 -40 -27 -63c-11 -23 -22 -42 -33 -58c-33 -49 -76 -90 -126 -88c-5 0 -8 0 -10 1l9 34c45 2 83 42 119 110c25 47 42 91 64 151l74 204h338l-131 -497h-36l122 464h-268z" />
    <glyph glyph-name="uni043C" unicode="&#x43c;" horiz-adv-x="737" 
d="M664 441l-337 -441h-38l-110 443l-116 -443h-36l131 497h43l113 -461l353 461h48l-131 -497h-36z" />
    <glyph glyph-name="uni043D" unicode="&#x43d;" horiz-adv-x="594" 
d="M405 0l63 242h-341l-63 -242h-37l131 497h37l-59 -222h341l58 222h37l-131 -497h-36z" />
    <glyph glyph-name="uni043E" unicode="&#x43e;" horiz-adv-x="610" 
d="M273 -8c-65 0 -118 20 -159 62c-42 41 -63 93 -63 156c0 73 32 148 83 204c25 27 56 50 92 66c36 17 74 26 114 26c65 0 119 -21 161 -62s63 -93 63 -156c0 -50 -13 -98 -38 -143c-26 -45 -61 -82 -106 -110c-45 -29 -94 -43 -147 -43zM277 26c45 0 87 12 125 37
s68 57 90 97c22 39 33 81 33 125c0 55 -17 100 -51 135c-35 35 -80 52 -136 52c-45 0 -87 -12 -125 -37c-39 -25 -69 -57 -91 -97c-22 -39 -32 -81 -32 -124c0 -56 17 -101 51 -136c35 -35 80 -52 136 -52z" />
    <glyph glyph-name="uni043F" unicode="&#x43f;" horiz-adv-x="584" 
d="M395 0l122 464h-332l-121 -464h-37l131 497h404l-131 -497h-36z" />
    <glyph glyph-name="uni0440" unicode="&#x440;" horiz-adv-x="634" 
d="M588 298c0 -78 -30 -156 -78 -212c-25 -28 -54 -51 -89 -68c-34 -17 -71 -26 -109 -26c-125 0 -192 83 -207 162h-1l-105 -399h-36l195 742h36l-30 -117v0c21 33 51 62 92 88c40 25 84 38 131 38c59 0 107 -20 144 -59c38 -40 57 -89 57 -149zM309 26c35 0 67 8 98 24
c30 15 56 35 77 60c41 51 66 117 66 183c0 52 -16 95 -47 129c-32 33 -72 50 -121 50c-35 0 -68 -8 -101 -24c-32 -16 -60 -37 -83 -62s-41 -53 -54 -83c-14 -31 -21 -61 -21 -90c0 -54 17 -98 52 -134c34 -35 79 -53 134 -53z" />
    <glyph glyph-name="uni0441" unicode="&#x441;" horiz-adv-x="575" 
d="M273 -9c-65 0 -118 21 -159 62s-62 94 -62 160c0 50 13 97 38 142s60 81 104 109s91 42 141 42c55 0 102 -16 140 -46c38 -31 60 -71 69 -121l-35 -12c-6 43 -25 78 -57 105s-72 40 -122 40c-31 0 -62 -7 -91 -22c-30 -15 -56 -34 -77 -57c-43 -48 -71 -114 -71 -179
c0 -56 17 -101 51 -136s79 -52 135 -52c45 0 86 13 123 38c38 25 66 58 85 100l32 -14c-22 -50 -55 -89 -98 -116c-43 -29 -92 -43 -146 -43z" />
    <glyph glyph-name="uni0442" unicode="&#x442;" horiz-adv-x="439" 
d="M298 464l-122 -464h-39l123 464h-186l9 33h409l-9 -33h-185z" />
    <glyph glyph-name="uni0443" unicode="&#x443;" horiz-adv-x="537" 
d="M66 -245h-44l173 246l-106 496h39l94 -459l316 459h43z" />
    <glyph glyph-name="uni0444" unicode="&#x444;" horiz-adv-x="798" 
d="M546 729l-74 -280c47 38 91 57 133 57c94 0 152 -56 152 -169c1 -89 -34 -195 -97 -266c-41 -47 -102 -79 -170 -79c-52 0 -93 19 -123 56l-72 -275h-37l72 270c-45 -33 -84 -51 -132 -51c-93 0 -151 59 -151 173c-1 89 34 194 97 264c41 46 101 77 169 77
c50 0 91 -19 123 -57l74 280h36zM340 85l88 332c-25 34 -71 55 -118 55c-57 0 -109 -28 -143 -71c-17 -21 -32 -46 -45 -73c-25 -54 -37 -111 -37 -163c0 -43 10 -76 28 -101c19 -25 48 -38 87 -38c47 0 94 20 140 59zM462 411l-87 -330c26 -34 71 -55 119 -55
c56 0 107 29 142 73c17 21 32 46 45 73c25 54 37 112 37 164c0 90 -38 136 -114 136c-46 0 -94 -21 -142 -61z" />
    <glyph glyph-name="uni0445" unicode="&#x445;" horiz-adv-x="487" 
d="M405 0h-40l-122 230l-238 -230h-47l271 258l-129 239h39l114 -217l225 217h47l-256 -244z" />
    <glyph glyph-name="uni0446" unicode="&#x446;" horiz-adv-x="600" 
d="M28 0l130 497h37l-122 -464h331l121 464h37l-122 -464h59l-49 -187h-37l41 154h-426z" />
    <glyph glyph-name="uni0447" unicode="&#x447;" horiz-adv-x="520" 
d="M461 497h37l-131 -497h-37l56 211c-74 -34 -137 -51 -189 -51c-41 0 -74 9 -99 27c-25 19 -37 46 -37 81c0 11 2 26 7 45l48 184h37l-51 -191c-3 -13 -5 -25 -5 -34c0 -52 35 -78 105 -78c30 0 63 5 98 16c35 10 67 24 96 40z" />
    <glyph glyph-name="uni0448" unicode="&#x448;" horiz-adv-x="864" 
d="M805 497h36l-131 -497h-683l131 497h37l-123 -464h290l122 464h36l-122 -464h285z" />
    <glyph glyph-name="uni0449" unicode="&#x449;" horiz-adv-x="880" 
d="M720 33h59l-50 -187h-36l40 154h-705l130 497h37l-122 -464h289l122 464h36l-122 -464h285l122 464h37z" />
    <glyph glyph-name="uni044A" unicode="&#x44a;" horiz-adv-x="612" 
d="M80 497h183l-53 -201h183c105 0 164 -46 164 -126c0 -54 -22 -96 -64 -125c-42 -30 -100 -45 -174 -45h-223l122 464h-147zM390 263h-188l-61 -230h174c64 0 113 12 150 35c36 23 54 57 54 102c0 31 -12 55 -37 70s-56 23 -92 23z" />
    <glyph glyph-name="uni044B" unicode="&#x44b;" horiz-adv-x="761" 
d="M195 497l-54 -201h183c105 0 164 -46 164 -126c0 -54 -21 -96 -63 -125c-43 -30 -101 -45 -175 -45h-223l131 497h37zM608 0h-37l131 497h37zM133 263l-61 -230h174c64 0 113 12 150 35c36 23 54 57 54 102c0 69 -65 93 -129 93h-188z" />
    <glyph glyph-name="uni044C" unicode="&#x44c;" horiz-adv-x="543" 
d="M195 497l-54 -201h183c105 0 164 -46 164 -126c0 -54 -21 -96 -63 -125c-43 -30 -101 -45 -175 -45h-223l131 497h37zM133 263l-61 -230h174c64 0 113 12 150 35c36 23 54 57 54 102c0 69 -65 93 -129 93h-188z" />
    <glyph glyph-name="uni044D" unicode="&#x44d;" horiz-adv-x="571" 
d="M253 -9c-61 0 -110 15 -147 46c-37 30 -60 68 -69 116l34 11c13 -62 52 -105 101 -124c25 -9 52 -14 82 -14c54 0 103 21 148 64c45 42 72 93 80 152h-267l8 33h262v10c0 54 -16 99 -48 134c-33 36 -77 53 -132 53c-45 0 -86 -12 -124 -37c-37 -26 -66 -59 -86 -100
l-33 12c21 47 53 85 98 115c43 29 92 44 146 44c44 0 82 -10 116 -30c33 -20 58 -46 76 -79s27 -71 27 -112c1 -79 -41 -170 -106 -228c-44 -40 -104 -66 -166 -66z" />
    <glyph glyph-name="uni044E" unicode="&#x44e;" horiz-adv-x="776" 
d="M453 26c43 0 83 13 120 38s65 58 87 100c21 42 31 87 31 135c0 52 -15 95 -45 126s-71 47 -122 47c-44 0 -84 -12 -121 -38s-66 -59 -87 -101s-31 -87 -31 -134c0 -53 15 -95 45 -126c30 -32 71 -47 123 -47zM248 233h-123l-61 -233h-37l131 497h37l-60 -229h119
c15 68 48 125 98 170s108 68 175 68c62 0 111 -20 148 -59s55 -89 55 -149c0 -80 -31 -158 -80 -213c-25 -28 -54 -51 -89 -68s-72 -25 -111 -25c-62 0 -111 19 -148 58s-56 88 -56 149c0 15 1 26 2 34z" />
    <glyph glyph-name="uni044F" unicode="&#x44f;" horiz-adv-x="545" 
d="M522 497l-131 -497h-36l52 198h-171l-203 -198h-49l210 202c-72 13 -112 58 -112 126c0 51 22 92 65 123c43 30 100 46 171 46h204zM245 231h171l61 233h-160c-51 0 -97 -10 -136 -31c-39 -20 -64 -58 -64 -106c0 -38 18 -66 46 -78c27 -13 53 -18 82 -18z" />
    <glyph glyph-name="uni0451" unicode="&#x451;" horiz-adv-x="569" 
d="M275 622c-20 0 -34 14 -34 33c0 24 18 42 41 42c19 0 33 -14 33 -33c0 -24 -18 -42 -40 -42zM421 622c-20 0 -33 14 -33 33c0 24 18 42 40 42c20 0 33 -14 33 -33c0 -24 -18 -42 -40 -42zM520 242h-428c-1 -8 -2 -16 -2 -25c0 -55 17 -101 51 -137s79 -54 133 -54
c88 0 154 42 199 125l30 -17c-52 -95 -129 -142 -232 -142c-64 0 -117 21 -157 63c-41 43 -61 96 -61 161c0 36 7 72 22 107c14 35 34 66 58 93s52 48 86 65s68 25 104 25c65 0 115 -19 150 -56c34 -38 52 -90 52 -155c0 -12 -2 -30 -5 -53zM486 275c1 10 1 16 1 20
c0 55 -14 98 -42 130c-29 31 -70 47 -125 47c-32 0 -64 -9 -97 -27c-33 -19 -60 -44 -83 -74c-24 -31 -38 -62 -44 -96h390z" />
    <glyph glyph-name="uni0452" unicode="&#x452;" horiz-adv-x="564" 
d="M526 350c0 -21 -4 -47 -12 -78l-82 -309c-17 -63 -47 -114 -88 -152c-42 -37 -94 -56 -155 -56c-39 0 -69 7 -93 21l19 30c19 -11 45 -17 77 -17c49 0 92 16 128 50c37 33 63 76 77 130l82 307c6 22 9 46 9 72c0 77 -44 124 -132 124c-58 0 -120 -31 -167 -90
c-24 -30 -41 -64 -51 -102l-74 -280h-36l161 611h-74l9 34h73l30 113h37l-30 -113h203l-9 -34h-203l-61 -230c22 36 50 66 84 89c34 24 73 36 117 36c51 0 91 -15 119 -43c28 -29 42 -67 42 -113z" />
    <glyph glyph-name="uni0453" unicode="&#x453;" horiz-adv-x="425" 
d="M328 582h-37l147 160h45zM185 464l-121 -464h-37l131 497h316l-9 -33h-280z" />
    <glyph glyph-name="uni0454" unicode="&#x454;" horiz-adv-x="575" 
d="M273 -9c-65 0 -118 21 -159 62c-42 41 -62 94 -62 160c0 50 13 97 38 142s60 81 104 109c43 28 90 42 140 42c56 0 103 -16 141 -46c37 -31 60 -71 68 -121l-34 -12c-7 43 -26 78 -57 105c-32 27 -72 40 -122 40c-54 0 -102 -19 -145 -57c-44 -38 -73 -85 -87 -140h267
l-9 -33h-264c-1 -8 -2 -17 -2 -28c0 -56 18 -101 52 -136s79 -52 134 -52c45 0 86 13 124 38c37 25 65 58 84 100l33 -14c-22 -50 -55 -89 -98 -116c-44 -29 -92 -43 -146 -43z" />
    <glyph glyph-name="uni0455" unicode="&#x455;" horiz-adv-x="456" 
d="M262 506c118 0 164 -82 170 -135l-34 -9c-6 39 -37 109 -137 109c-44 0 -85 -13 -112 -46c-14 -16 -21 -35 -21 -58c0 -40 32 -64 79 -84l68 -28c69 -30 104 -70 104 -120c0 -46 -21 -85 -54 -108c-34 -23 -75 -36 -120 -36c-63 0 -113 23 -140 56c-28 33 -41 70 -41 106
l36 8c-1 -31 10 -62 31 -89c22 -27 63 -46 115 -46c46 0 88 14 115 47c14 17 21 37 21 60s-10 43 -28 58c-19 15 -35 24 -59 34l-64 27c-60 26 -100 59 -100 112c0 30 9 56 26 78s38 38 64 48c25 11 52 16 81 16z" />
    <glyph glyph-name="uni0456" unicode="&#x456;" horiz-adv-x="218" 
d="M218 632c-19 0 -33 13 -33 33c0 23 18 41 40 41c20 0 35 -13 35 -33c0 -23 -19 -41 -42 -41zM65 0h-37l130 497h37z" />
    <glyph glyph-name="uni0457" unicode="&#x457;" horiz-adv-x="218" 
d="M139 622c-20 0 -34 14 -34 33c0 24 18 42 41 42c19 0 33 -14 33 -33c0 -24 -18 -42 -40 -42zM285 622c-20 0 -33 14 -33 33c0 24 18 42 40 42c20 0 33 -14 33 -33c0 -24 -18 -42 -40 -42zM65 0h-37l130 497h37z" />
    <glyph glyph-name="uni0458" unicode="&#x458;" horiz-adv-x="224" 
d="M225 632c-19 0 -33 13 -33 33c0 23 18 41 41 41c19 0 33 -13 33 -33c0 -23 -17 -41 -41 -41zM165 497h37l-165 -625c-10 -39 -27 -69 -49 -90c-22 -20 -55 -30 -98 -30c-16 0 -30 2 -41 7l8 33c12 -4 23 -6 34 -6c35 0 63 10 79 29c17 18 25 36 32 62z" />
    <glyph glyph-name="uni0459" unicode="&#x459;" horiz-adv-x="909" 
d="M616 0h-223l122 464h-268l-69 -190c-11 -32 -22 -59 -31 -81c-10 -23 -21 -48 -35 -74s-28 -48 -42 -64c-27 -33 -65 -58 -104 -58c-5 0 -8 0 -10 1l9 34c29 0 59 21 82 52c12 15 24 34 37 58c12 24 23 48 33 71c9 23 20 50 31 80l74 204h338l-53 -201h182
c106 0 165 -46 165 -126c0 -54 -22 -96 -64 -125c-42 -30 -100 -45 -174 -45zM687 263h-188l-61 -230h174c63 0 113 12 149 35c37 23 55 57 55 102c0 69 -66 93 -129 93z" />
    <glyph glyph-name="uni045A" unicode="&#x45a;" horiz-adv-x="920" 
d="M627 0h-222l65 249h-341l-65 -249h-37l131 497h37l-57 -215h341l56 215h37l-57 -215h185c50 0 90 -10 120 -32c30 -21 45 -51 45 -90c0 -49 -21 -88 -65 -117c-43 -28 -100 -43 -173 -43zM696 249h-190l-56 -216h174c61 0 110 12 147 34c38 23 56 53 56 92
c0 68 -67 90 -131 90z" />
    <glyph glyph-name="uni045B" unicode="&#x45b;" horiz-adv-x="587" 
d="M365 506c51 0 91 -15 119 -43c27 -29 41 -67 41 -113c0 -21 -4 -47 -12 -77l-71 -273h-37l74 276c6 23 9 47 9 72c0 77 -44 124 -132 124c-58 0 -120 -31 -167 -90c-24 -30 -41 -64 -51 -102l-74 -280h-37l162 611h-74l8 34h74l30 113h36l-30 -113h203l-8 -34h-203
l-61 -230c22 36 50 66 84 89c33 24 72 36 117 36z" />
    <glyph glyph-name="uni045C" unicode="&#x45c;" horiz-adv-x="470" 
d="M343 582h-37l147 160h45zM158 497h37l-58 -219h2l325 219h60l-348 -233l230 -264h-48l-223 259h-3l-68 -259h-36z" />
    <glyph glyph-name="uni045E" unicode="&#x45e;" horiz-adv-x="537" 
d="M66 -245h-44l173 246l-106 496h39l94 -459l316 459h43zM347 582c-67 0 -101 29 -117 64c-11 25 -13 46 -11 70l29 6c-2 -71 33 -107 104 -107c65 0 115 36 150 106l29 -6c-32 -82 -96 -133 -184 -133z" />
    <glyph glyph-name="uni045F" unicode="&#x45f;" horiz-adv-x="585" 
d="M171 -154l40 154h-183l130 497h37l-122 -464h331l121 464h37l-131 -497h-183l-41 -154h-36z" />
    <glyph glyph-name="uni0490" unicode="&#x490;" horiz-adv-x="537" 
d="M271 694l-185 -694h-38l194 729h355l38 139h38l-47 -174h-355z" />
    <glyph glyph-name="uni0491" unicode="&#x491;" horiz-adv-x="425" 
d="M186 464l-122 -464h-36l130 497h280l37 143h37l-47 -176h-279z" />
    <glyph glyph-name="uni0496" unicode="&#x496;" horiz-adv-x="905" 
d="M755 -150l40 150h-12l-275 371h-5l-99 -371h-39l99 371h-5l-461 -371h-61l486 386l-276 343h44l273 -340h5l91 340h38l-91 -340h5l442 340h57l-463 -353l257 -341h38l-49 -185h-39z" />
    <glyph glyph-name="uni0497" unicode="&#x497;" horiz-adv-x="712" 
d="M592 0h-11l-203 256h-4l-67 -256h-37l68 256h-4l-327 -256h-57l347 270l-207 227h46l203 -223h4l58 223h37l-59 -223h4l309 223h58l-330 -238l180 -226h38l-50 -187h-36z" />
    <glyph glyph-name="uni0498" unicode="&#x498;" horiz-adv-x="583" 
d="M193 -150l38 143c-90 4 -150 51 -180 106c-21 37 -29 74 -27 108l39 7c-3 -44 14 -102 57 -142c27 -26 73 -45 126 -45h10c58 0 114 20 157 54c42 34 70 89 70 150c0 49 -19 87 -57 112c-37 26 -88 38 -152 38h-21l-8 30l331 283h-412l9 35h462l-10 -37l-325 -277
c68 -2 122 -20 162 -55c41 -35 61 -77 61 -127c0 -71 -30 -133 -77 -173c-46 -40 -109 -64 -176 -67l-39 -143h-38z" />
    <glyph glyph-name="uni0499" unicode="&#x499;" horiz-adv-x="470" 
d="M205 -8l-38 -146h-37l39 146c-72 4 -117 36 -140 73c-16 26 -22 51 -21 75l35 7c-2 -58 39 -122 146 -122c41 0 81 11 115 32c33 21 55 58 55 103c0 32 -14 56 -43 74c-28 17 -64 26 -107 26h-28l-9 27l238 177h-306l8 33h357l-10 -36l-228 -169v-1c44 -1 83 -12 114 -35
c34 -24 51 -56 51 -95c0 -51 -23 -94 -59 -121c-36 -28 -82 -45 -132 -48z" />
    <glyph glyph-name="uni049A" unicode="&#x49a;" horiz-adv-x="614" 
d="M468 -150l40 150h-15l-303 370h-5l-99 -370h-38l194 729h39l-91 -339h5l464 339h57l-485 -354l283 -340h41l-49 -185h-38z" />
    <glyph glyph-name="uni049B" unicode="&#x49b;" horiz-adv-x="482" 
d="M372 0h-14l-223 259h-3l-68 -259h-36l130 497h37l-58 -219h2l325 219h60l-348 -233l201 -231h40l-49 -187h-37z" />
    <glyph glyph-name="uni04A2" unicode="&#x4a2;" horiz-adv-x="785" 
d="M596 -150l40 150h-79l94 354h-470l-95 -354h-38l194 729h39l-91 -339h470l92 339h38l-185 -694h79l-49 -185h-39z" />
    <glyph glyph-name="uni04A3" unicode="&#x4a3;" horiz-adv-x="610" 
d="M463 0h-58l63 242h-341l-63 -242h-37l131 497h37l-59 -222h341l58 222h37l-122 -464h59l-50 -187h-36z" />
    <glyph glyph-name="uni04AA" unicode="&#x4aa;" horiz-adv-x="790" 
d="M339 -150l38 143c-55 3 -105 18 -149 46c-44 27 -78 65 -103 112c-25 48 -37 101 -37 160c0 55 11 109 32 161c22 53 52 98 89 137c36 38 81 70 133 93c51 23 105 35 162 35c95 0 183 -41 241 -116c30 -37 48 -80 55 -128l-35 -11c-10 65 -40 118 -90 158
c-50 41 -109 62 -176 62c-50 0 -99 -11 -145 -33s-86 -50 -119 -86s-59 -78 -78 -125c-20 -48 -30 -96 -30 -146c0 -108 46 -198 129 -248c42 -25 90 -38 144 -38c74 0 138 20 193 61c55 40 97 93 127 160l35 -14c-29 -70 -73 -127 -132 -170c-58 -43 -128 -67 -208 -70
l-38 -143h-38z" />
    <glyph glyph-name="uni04AB" unicode="&#x4ab;" horiz-adv-x="575" 
d="M217 -154l38 146c-60 4 -109 26 -146 67c-38 40 -57 91 -57 154c0 50 13 97 38 142s60 81 104 109s91 42 141 42c55 0 102 -16 140 -46c38 -31 60 -71 69 -121l-35 -12c-6 43 -25 78 -57 105s-72 40 -122 40c-31 0 -62 -7 -91 -22c-30 -15 -56 -34 -77 -57
c-43 -48 -71 -114 -71 -179c0 -56 17 -101 51 -136s79 -52 135 -52c45 0 86 13 123 38c38 25 66 58 85 100l32 -14c-21 -47 -51 -84 -91 -111c-39 -28 -84 -44 -134 -47l-39 -146h-36z" />
    <glyph glyph-name="uni04AC" unicode="&#x4ac;" horiz-adv-x="568" 
d="M238 -150l40 150h-78l185 694h-246l10 35h525l-10 -35h-241l-176 -659h79l-50 -185h-38z" />
    <glyph glyph-name="uni04AD" unicode="&#x4ad;" horiz-adv-x="441" 
d="M158 -154l40 154h-61l123 464h-186l9 33h409l-9 -33h-185l-113 -431h59l-50 -187h-36z" />
    <glyph glyph-name="uni04B2" unicode="&#x4b2;" horiz-adv-x="650" 
d="M496 -150l40 150h-6l-179 345l-349 -345h-49l381 376l-185 353h40l172 -329l335 329h49l-367 -360l175 -334h31l-50 -185h-38z" />
    <glyph glyph-name="uni04B3" unicode="&#x4b3;" horiz-adv-x="496" 
d="M330 -154l40 154h-5l-122 230l-238 -230h-47l271 258l-129 239h39l114 -217l225 217h47l-256 -244l118 -220h29l-50 -187h-36z" />
    <glyph glyph-name="uni04B6" unicode="&#x4b6;" horiz-adv-x="698" 
d="M549 0h-79l93 346c-103 -50 -185 -75 -248 -75c-66 0 -117 14 -151 41c-35 27 -52 63 -52 109c0 19 3 39 8 60l66 248h39l-68 -254c-6 -20 -8 -37 -8 -50c0 -79 56 -120 164 -120c65 0 152 27 261 82l91 342h39l-185 -694h78l-50 -185h-38z" />
    <glyph glyph-name="uni04B7" unicode="&#x4b7;" horiz-adv-x="536" 
d="M389 0h-59l56 211c-74 -34 -137 -51 -189 -51c-41 0 -74 9 -99 27c-25 19 -37 46 -37 81c0 11 2 26 7 45l48 184h37l-51 -191c-3 -13 -5 -25 -5 -34c0 -52 35 -78 105 -78c30 0 63 5 98 16c35 10 67 24 96 40l65 247h37l-123 -464h60l-50 -187h-36z" />
    <glyph glyph-name="uni04C0" unicode="&#x4c0;" horiz-adv-x="261" 
d="M48 0l194 729h39l-195 -729h-38z" />
    <glyph glyph-name="uni04C1" unicode="&#x4c1;" horiz-adv-x="894" 
d="M464 371h-5l-461 -371h-61l486 386l-276 343h44l273 -340h5l91 340h38l-91 -340h5l442 340h57l-463 -353l283 -376h-48l-275 371h-5l-99 -371h-39zM588 805c-67 0 -101 29 -117 64c-11 25 -13 46 -11 70l29 6c-2 -71 33 -106 104 -106c65 0 115 35 150 106l29 -7
c-32 -82 -97 -133 -184 -133z" />
    <glyph glyph-name="uni04C2" unicode="&#x4c2;" horiz-adv-x="702" 
d="M401 497h37l-59 -223h4l309 223h58l-330 -238l207 -259h-46l-203 256h-4l-67 -256h-37l68 256h-4l-327 -256h-57l347 270l-207 227h46l203 -223h4zM437 582c-67 0 -101 29 -117 64c-11 25 -13 46 -11 70l29 6c-2 -71 33 -107 104 -107c65 0 115 36 150 106l29 -6
c-32 -82 -96 -133 -184 -133z" />
    <glyph glyph-name="uni04CF" unicode="&#x4cf;" horiz-adv-x="218" 
d="M65 0h-38l131 497h37z" />
    <glyph glyph-name="uni04D0" unicode="&#x4d0;" horiz-adv-x="704" 
d="M597 0l-36 208h-421l-148 -208h-43l518 729h41l127 -729h-38zM165 243h391l-76 445zM491 805c-67 0 -101 29 -117 64c-11 25 -14 46 -12 70l29 6c-1 -71 34 -106 104 -106c66 0 116 35 150 106l30 -7c-33 -82 -97 -133 -184 -133z" />
    <glyph glyph-name="uni04D1" unicode="&#x4d1;" horiz-adv-x="635" 
d="M475 117c-21 -32 -51 -62 -92 -87c-40 -25 -84 -38 -132 -38c-58 0 -106 20 -143 59c-38 39 -57 89 -57 149c-1 157 118 306 276 306c60 0 111 -20 144 -51s54 -69 63 -110v0l41 152h36l-100 -381c-13 -51 -20 -90 -19 -116h-37c0 11 1 21 3 33c1 12 2 18 5 31
c3 15 2 13 7 30c1 7 2 12 3 14zM330 472c-69 0 -133 -34 -175 -84c-41 -51 -66 -118 -66 -183c0 -52 16 -95 47 -129c32 -33 72 -50 121 -50c34 0 68 8 101 24c32 16 60 37 82 62c23 25 41 53 55 84c14 30 20 60 20 89c0 54 -16 99 -50 134c-35 36 -80 53 -135 53zM340 582
c-67 0 -101 29 -116 64c-12 25 -14 46 -12 70l29 6c-1 -71 33 -107 104 -107c65 0 115 36 150 106l29 -6c-32 -82 -96 -133 -184 -133z" />
    <glyph glyph-name="uni04D2" unicode="&#x4d2;" horiz-adv-x="704" 
d="M417 847c-14 14 -14 38 0 53c14 14 37 14 51 0c14 -15 14 -39 0 -53c-14 -15 -37 -15 -51 0zM573 847c-24 21 -6 65 25 63c20 0 36 -16 36 -37c0 -20 -16 -37 -36 -37c-10 0 -18 4 -25 11zM597 0l-36 208h-421l-148 -208h-43l518 729h41l127 -729h-38zM165 243h391
l-76 445z" />
    <glyph glyph-name="uni04D3" unicode="&#x4d3;" horiz-adv-x="635" 
d="M285 622c-20 0 -33 14 -33 33c0 24 17 42 40 42c20 0 33 -14 33 -33c0 -24 -18 -42 -40 -42zM431 622c-19 0 -32 14 -32 33c0 24 17 42 40 42c19 0 33 -14 33 -33c0 -24 -18 -42 -41 -42zM475 117c-21 -32 -51 -62 -92 -87c-40 -25 -84 -38 -132 -38
c-58 0 -106 20 -143 59c-38 39 -57 89 -57 149c-1 157 118 306 276 306c60 0 111 -20 144 -51s54 -69 63 -110v0l41 152h36l-100 -381c-13 -51 -20 -90 -19 -116h-37c0 11 1 21 3 33c1 12 2 18 5 31c3 15 2 13 7 30c1 7 2 12 3 14zM330 472c-69 0 -133 -34 -175 -84
c-41 -51 -66 -118 -66 -183c0 -52 16 -95 47 -129c32 -33 72 -50 121 -50c34 0 68 8 101 24c32 16 60 37 82 62c23 25 41 53 55 84c14 30 20 60 20 89c0 54 -16 99 -50 134c-35 36 -80 53 -135 53z" />
    <glyph glyph-name="uni04D4" unicode="&#x4d4;" horiz-adv-x="957" 
d="M469 208h-304l-181 -208h-47l636 729h453l-9 -35h-380l-81 -304h348l-10 -36h-348l-85 -319h384l-9 -35h-423zM478 243l121 451h-12l-392 -451h283z" />
    <glyph glyph-name="uni04D5" unicode="&#x4d5;" horiz-adv-x="893" 
d="M176 -9c-78 -1 -153 44 -153 124c0 53 27 95 70 119c42 24 92 36 148 37l143 4c9 40 25 77 49 110c-5 26 -18 47 -41 63c-22 16 -49 24 -81 24c-49 0 -91 -16 -118 -35c-13 -10 -25 -22 -35 -34c-21 -26 -29 -45 -34 -63l-35 11c7 22 18 46 43 76c12 14 27 28 43 39
c32 23 82 40 138 40c34 0 64 -8 91 -23c26 -16 44 -38 54 -66c51 55 118 89 189 89c65 0 115 -19 150 -56c34 -38 52 -90 52 -155c0 -12 -2 -30 -5 -53h-429c0 -8 -1 -16 -1 -25c0 -56 17 -102 51 -137c35 -36 79 -54 133 -54c88 0 154 42 199 125l30 -17
c-52 -95 -129 -142 -232 -142c-47 0 -87 12 -122 35s-61 54 -78 94c-24 -39 -56 -71 -95 -94c-38 -24 -80 -36 -124 -36zM811 295c0 55 -14 98 -42 130c-29 31 -70 47 -124 47c-33 0 -65 -9 -98 -27c-32 -19 -61 -43 -84 -73c-23 -31 -38 -63 -43 -97h390c1 10 1 16 1 20z
M379 242l-135 -3c-46 -2 -84 -9 -122 -27c-37 -18 -61 -52 -61 -97c0 -26 12 -48 34 -65c23 -17 51 -25 84 -25c44 0 84 13 120 39s64 59 84 99c-4 17 -6 34 -6 53c0 9 1 18 2 26z" />
    <glyph glyph-name="uni04D6" unicode="&#x4d6;" horiz-adv-x="608" 
d="M487 0h-439l194 729h435l-9 -35h-398l-80 -304h365l-10 -36h-365l-85 -319h401zM459 805c-67 0 -101 29 -117 64c-11 25 -13 46 -12 70l30 6c-2 -71 33 -106 104 -106c65 0 115 35 150 106l29 -7c-33 -82 -97 -133 -184 -133z" />
    <glyph glyph-name="uni04D7" unicode="&#x4d7;" horiz-adv-x="569" 
d="M520 242h-428c-1 -8 -2 -16 -2 -25c0 -55 17 -101 51 -137s79 -54 133 -54c88 0 154 42 199 125l30 -17c-52 -95 -129 -142 -232 -142c-64 0 -117 21 -157 63c-41 43 -61 96 -61 161c0 36 7 72 22 107c14 35 34 66 58 93s52 48 86 65s68 25 104 25c65 0 115 -19 150 -56
c34 -38 52 -90 52 -155c0 -12 -2 -30 -5 -53zM486 275c1 10 1 16 1 20c0 55 -14 98 -42 130c-29 31 -70 47 -125 47c-32 0 -64 -9 -97 -27c-33 -19 -60 -44 -83 -74c-24 -31 -38 -62 -44 -96h390zM330 582c-43 0 -76 13 -95 32c-29 29 -36 70 -34 102l29 6
c-1 -71 34 -107 105 -107c65 0 115 36 150 106l29 -6c-33 -82 -97 -133 -184 -133z" />
    <glyph glyph-name="uni04DC" unicode="&#x4dc;" horiz-adv-x="894" 
d="M501 847c-14 14 -14 38 0 53c14 14 37 14 51 0c14 -15 14 -39 0 -53c-14 -15 -37 -15 -51 0zM657 847c-24 21 -5 65 25 63c20 0 37 -16 37 -37c0 -20 -17 -37 -37 -37c-9 0 -18 4 -25 11zM464 371h-5l-461 -371h-61l486 386l-276 343h44l273 -340h5l91 340h38l-91 -340h5
l442 340h57l-463 -353l283 -376h-48l-275 371h-5l-99 -371h-39z" />
    <glyph glyph-name="uni04DD" unicode="&#x4dd;" horiz-adv-x="702" 
d="M376 622c-20 0 -33 14 -33 33c0 24 17 42 40 42c20 0 33 -14 33 -33c0 -24 -18 -42 -40 -42zM522 622c-19 0 -32 14 -32 33c0 24 17 42 40 42c19 0 33 -14 33 -33c0 -24 -18 -42 -41 -42zM401 497h37l-59 -223h4l309 223h58l-330 -238l207 -259h-46l-203 256h-4l-67 -256
h-37l68 256h-4l-327 -256h-57l347 270l-207 227h46l203 -223h4z" />
    <glyph glyph-name="uni04DE" unicode="&#x4de;" horiz-adv-x="583" 
d="M327 847c-14 14 -14 38 0 53c14 14 37 14 51 0c14 -15 14 -39 0 -53c-14 -15 -37 -15 -51 0zM483 847c-24 21 -6 65 25 63c20 0 36 -16 36 -37c0 -20 -16 -37 -36 -37c-10 0 -18 4 -25 11zM523 233c0 -74 -32 -138 -82 -178c-49 -40 -116 -63 -186 -63h-10
c-62 0 -115 21 -149 52c-17 15 -31 32 -43 51c-23 39 -31 77 -29 112l39 7c-3 -44 14 -102 57 -142c27 -26 73 -45 126 -45h10c58 0 114 20 157 54c42 34 70 89 70 150c0 49 -19 87 -57 112c-37 26 -88 38 -152 38h-21l-8 30l331 283h-412l9 35h462l-10 -37l-325 -277
c68 -2 122 -20 162 -55c41 -35 61 -77 61 -127z" />
    <glyph glyph-name="uni04DF" unicode="&#x4df;" horiz-adv-x="470" 
d="M249 622c-20 0 -34 14 -34 33c0 24 18 42 41 42c19 0 33 -14 33 -33c0 -24 -18 -42 -40 -42zM395 622c-20 0 -33 14 -33 33c0 24 18 42 40 42c20 0 33 -14 33 -33c0 -24 -18 -42 -40 -42zM231 292v-1c44 -1 83 -12 114 -35c34 -24 51 -56 51 -95c0 -54 -26 -99 -66 -126
c-40 -28 -91 -44 -143 -44c-64 0 -114 22 -141 53c-27 30 -40 64 -38 96l35 7c-2 -58 39 -122 146 -122c41 0 81 11 115 32c33 21 55 58 55 103c0 32 -14 56 -43 74c-28 17 -64 26 -107 26h-28l-9 27l238 177h-306l8 33h357l-10 -36z" />
    <glyph glyph-name="uni04E2" unicode="&#x4e2;" horiz-adv-x="778" 
d="M394 854h311l-9 -34h-311zM48 0l194 729h38l-180 -675l650 675h48l-195 -729h-38l180 675l-649 -675h-48z" />
    <glyph glyph-name="uni04E3" unicode="&#x4e3;" horiz-adv-x="597" 
d="M241 631h310l-8 -34h-311zM523 440l-459 -440h-37l131 497h37l-116 -440l459 440h36l-130 -497h-37z" />
    <glyph glyph-name="uni04E4" unicode="&#x4e4;" horiz-adv-x="778" 
d="M440 847c-15 14 -15 38 0 53c14 14 36 14 50 0c15 -15 15 -39 0 -53c-14 -15 -36 -15 -50 0zM595 847c-24 21 -5 65 25 63c20 0 37 -16 37 -37c0 -20 -17 -37 -37 -37c-9 0 -18 4 -25 11zM48 0l194 729h38l-180 -675l650 675h48l-195 -729h-38l180 675l-649 -675h-48z
" />
    <glyph glyph-name="uni04E5" unicode="&#x4e5;" horiz-adv-x="597" 
d="M324 622c-20 0 -34 14 -34 33c0 24 18 42 41 42c19 0 33 -14 33 -33c0 -24 -18 -42 -40 -42zM470 622c-20 0 -33 14 -33 33c0 24 18 42 40 42c20 0 33 -14 33 -33c0 -24 -18 -42 -40 -42zM523 440l-459 -440h-37l131 497h37l-116 -440l459 440h36l-130 -497h-37z" />
    <glyph glyph-name="uni04E6" unicode="&#x4e6;" horiz-adv-x="825" 
d="M427 847c-23 21 -5 65 25 63c20 0 37 -16 37 -37c0 -20 -17 -37 -37 -37c-9 0 -18 4 -25 11zM583 847c-14 14 -14 38 0 53c14 14 37 14 51 0c14 -15 14 -39 0 -53c-14 -15 -37 -15 -51 0zM525 16c-126 -49 -275 -19 -353 66c-54 56 -86 135 -86 221
c-1 133 67 265 167 346c67 55 154 88 243 88c60 0 114 -14 161 -42c48 -27 84 -65 110 -111c26 -48 39 -100 39 -158c0 -88 -29 -177 -79 -250c-51 -72 -118 -129 -202 -160zM396 26c51 0 99 12 146 34c46 22 86 52 118 89c33 36 59 79 78 127c19 49 29 98 29 149
c0 103 -47 191 -130 240c-42 25 -89 37 -142 37c-125 1 -235 -71 -300 -169c-46 -66 -71 -148 -71 -229c0 -52 11 -99 34 -140c22 -43 55 -76 97 -100c41 -25 88 -38 141 -38z" />
    <glyph glyph-name="uni04E7" unicode="&#x4e7;" horiz-adv-x="610" 
d="M299 622c-20 0 -34 14 -34 33c0 24 18 42 41 42c19 0 33 -14 33 -33c0 -24 -18 -42 -40 -42zM445 622c-20 0 -33 14 -33 33c0 24 18 42 40 42c20 0 33 -14 33 -33c0 -24 -18 -42 -40 -42zM273 -8c-65 0 -118 20 -159 62c-42 41 -63 93 -63 156c0 73 32 148 83 204
c25 27 56 50 92 66c36 17 74 26 114 26c65 0 119 -21 161 -62s63 -93 63 -156c0 -50 -13 -98 -38 -143c-26 -45 -61 -82 -106 -110c-45 -29 -94 -43 -147 -43zM277 26c45 0 87 12 125 37s68 57 90 97c22 39 33 81 33 125c0 55 -17 100 -51 135c-35 35 -80 52 -136 52
c-45 0 -87 -12 -125 -37c-39 -25 -69 -57 -91 -97c-22 -39 -32 -81 -32 -124c0 -56 17 -101 51 -136c35 -35 80 -52 136 -52z" />
    <glyph glyph-name="uni04E8" unicode="&#x4e8;" horiz-adv-x="825" 
d="M395 -8c-90 0 -170 34 -223 90c-54 56 -86 135 -86 221c-1 133 67 265 167 346c67 55 154 88 243 88c60 0 114 -14 161 -42c48 -27 84 -65 110 -111c26 -48 39 -100 39 -158c0 -55 -11 -109 -32 -161c-22 -54 -51 -100 -88 -140c-36 -40 -80 -72 -131 -96
c-52 -24 -105 -37 -160 -37zM133 390h632c1 11 2 23 2 35c0 103 -47 191 -130 240c-42 25 -89 37 -142 37c-88 0 -172 -36 -235 -92c-62 -57 -108 -135 -127 -220zM760 354h-633c-2 -16 -3 -33 -3 -50c0 -52 11 -99 34 -140c22 -43 55 -76 97 -100c41 -25 88 -38 141 -38
c89 0 177 39 240 98c63 60 109 142 124 230z" />
    <glyph glyph-name="uni04E9" unicode="&#x4e9;" horiz-adv-x="610" 
d="M273 -8c-65 0 -118 20 -159 62c-42 41 -63 93 -63 156c0 73 32 148 83 204c25 27 56 50 92 66c36 17 74 26 114 26c65 0 119 -21 161 -62s63 -93 63 -156c0 -50 -13 -98 -38 -143c-26 -45 -61 -82 -106 -110c-45 -29 -94 -43 -147 -43zM95 266h430v19
c0 55 -17 100 -51 135c-35 35 -80 52 -136 52c-58 0 -117 -24 -158 -62c-42 -38 -74 -89 -85 -144zM520 234h-430c0 -9 -1 -16 -1 -20c0 -56 17 -101 52 -136s80 -52 136 -52c39 0 76 9 111 29s64 45 87 76c23 32 38 66 45 103z" />
    <glyph glyph-name="uni04EA" unicode="&#x4ea;" horiz-adv-x="825" 
d="M427 847c-23 21 -5 65 25 63c20 0 37 -16 37 -37c0 -20 -17 -37 -37 -37c-9 0 -18 4 -25 11zM583 847c-14 14 -14 38 0 53c14 14 37 14 51 0c14 -15 14 -39 0 -53c-14 -15 -37 -15 -51 0zM395 -8c-90 0 -170 34 -223 90c-54 56 -86 135 -86 221c-1 133 67 265 167 346
c67 55 154 88 243 88c60 0 114 -14 161 -42c48 -27 84 -65 110 -111c26 -48 39 -100 39 -158c0 -55 -11 -109 -32 -161c-22 -54 -51 -100 -88 -140c-36 -40 -80 -72 -131 -96c-52 -24 -105 -37 -160 -37zM133 390h632c1 11 2 23 2 35c0 103 -47 191 -130 240
c-42 25 -89 37 -142 37c-88 0 -172 -36 -235 -92c-62 -57 -108 -135 -127 -220zM760 354h-633c-2 -16 -3 -33 -3 -50c0 -52 11 -99 34 -140c22 -43 55 -76 97 -100c41 -25 88 -38 141 -38c89 0 177 39 240 98c63 60 109 142 124 230z" />
    <glyph glyph-name="uni04EB" unicode="&#x4eb;" horiz-adv-x="610" 
d="M299 622c-20 0 -34 14 -34 33c0 24 18 42 41 42c19 0 33 -14 33 -33c0 -24 -18 -42 -40 -42zM445 622c-20 0 -33 14 -33 33c0 24 18 42 40 42c20 0 33 -14 33 -33c0 -24 -18 -42 -40 -42zM273 -8c-65 0 -118 20 -159 62c-42 41 -63 93 -63 156c0 73 32 148 83 204
c25 27 56 50 92 66c36 17 74 26 114 26c65 0 119 -21 161 -62s63 -93 63 -156c0 -50 -13 -98 -38 -143c-26 -45 -61 -82 -106 -110c-45 -29 -94 -43 -147 -43zM95 266h430v19c0 55 -17 100 -51 135c-35 35 -80 52 -136 52c-58 0 -117 -24 -158 -62c-42 -38 -74 -89 -85 -144
zM520 234h-430c0 -9 -1 -16 -1 -20c0 -56 17 -101 52 -136s80 -52 136 -52c39 0 76 9 111 29s64 45 87 76c23 32 38 66 45 103z" />
    <glyph glyph-name="uni04EC" unicode="&#x4ec;" horiz-adv-x="792" 
d="M383 847c-14 14 -14 38 0 53c14 14 37 14 51 0c14 -15 14 -39 0 -53c-14 -15 -37 -15 -51 0zM539 847c-24 21 -5 65 25 63c20 0 36 -16 36 -37c0 -20 -16 -37 -36 -37c-9 0 -18 4 -25 11zM357 -8c-77 0 -142 23 -198 70c-56 46 -90 106 -102 180l36 11
c11 -67 40 -121 90 -163c49 -42 108 -64 179 -64c91 0 177 37 240 95c63 59 109 142 124 233h-381l10 36h376c1 7 1 19 1 35c0 103 -45 190 -128 240c-42 25 -90 37 -144 37c-73 0 -136 -19 -192 -56c-55 -38 -97 -89 -124 -154l-35 13c29 71 76 127 140 169
c63 42 135 63 215 63c58 0 111 -13 157 -40c47 -27 84 -64 111 -112c26 -47 39 -100 39 -159c0 -119 -46 -227 -120 -306s-178 -128 -294 -128z" />
    <glyph glyph-name="uni04ED" unicode="&#x4ed;" horiz-adv-x="571" 
d="M259 622c-19 0 -33 14 -33 33c0 24 17 42 40 42c20 0 33 -14 33 -33c0 -24 -18 -42 -40 -42zM405 622c-19 0 -32 14 -32 33c0 24 17 42 40 42c19 0 33 -14 33 -33c0 -24 -18 -42 -41 -42zM253 -9c-61 0 -110 15 -147 46c-37 30 -60 68 -69 116l34 11
c13 -62 52 -105 101 -124c25 -9 52 -14 82 -14c54 0 103 21 148 64c45 42 72 93 80 152h-267l8 33h262v10c0 54 -16 99 -48 134c-33 36 -77 53 -132 53c-45 0 -86 -12 -124 -37c-37 -26 -66 -59 -86 -100l-33 12c21 47 53 85 98 115c43 29 92 44 146 44c44 0 82 -10 116 -30
c33 -20 58 -46 76 -79s27 -71 27 -112c1 -79 -41 -170 -106 -228c-44 -40 -104 -66 -166 -66z" />
    <glyph glyph-name="uni04EE" unicode="&#x4ee;" horiz-adv-x="647" 
d="M323 854h311l-9 -34h-310zM762 729l-419 -559c-40 -54 -74 -90 -119 -124c-46 -35 -99 -54 -159 -54c-27 0 -51 3 -73 9l9 35c25 -6 47 -8 65 -8c42 0 84 14 115 32c16 10 32 22 48 36c31 28 52 52 76 84l-166 549h40l154 -512l384 512h45z" />
    <glyph glyph-name="uni04EF" unicode="&#x4ef;" horiz-adv-x="537" 
d="M209 631h311l-9 -34h-311zM66 -245h-44l173 246l-106 496h39l94 -459l316 459h43z" />
    <glyph glyph-name="uni04F0" unicode="&#x4f0;" horiz-adv-x="647" 
d="M372 847c-14 14 -14 38 0 53c14 14 37 14 51 0c14 -15 14 -39 0 -53c-14 -15 -37 -15 -51 0zM528 847c-24 21 -6 65 25 63c20 0 36 -16 36 -37c0 -20 -16 -37 -36 -37c-10 0 -18 4 -25 11zM762 729l-419 -559c-40 -54 -74 -90 -119 -124c-46 -35 -99 -54 -159 -54
c-27 0 -51 3 -73 9l9 35c25 -6 47 -8 65 -8c42 0 84 14 115 32c16 10 32 22 48 36c31 28 52 52 76 84l-166 549h40l154 -512l384 512h45z" />
    <glyph glyph-name="uni04F1" unicode="&#x4f1;" horiz-adv-x="537" 
d="M295 622c-20 0 -34 14 -34 33c0 24 18 42 41 42c19 0 33 -14 33 -33c0 -24 -18 -42 -40 -42zM441 622c-20 0 -33 14 -33 33c0 24 18 42 40 42c20 0 33 -14 33 -33c0 -24 -18 -42 -40 -42zM66 -245h-44l173 246l-106 496h39l94 -459l316 459h43z" />
    <glyph glyph-name="uni04F2" unicode="&#x4f2;" horiz-adv-x="647" 
d="M401 795h-36l146 161h45zM538 795h-37l147 161h45zM762 729l-419 -559c-40 -54 -74 -90 -119 -124c-46 -35 -99 -54 -159 -54c-27 0 -51 3 -73 9l9 35c25 -6 47 -8 65 -8c42 0 84 14 115 32c16 10 32 22 48 36c31 28 52 52 76 84l-166 549h40l154 -512l384 512h45z" />
    <glyph glyph-name="uni04F3" unicode="&#x4f3;" horiz-adv-x="537" 
d="M290 582h-37l147 160h45zM426 582h-36l146 160h45zM66 -245h-44l173 246l-106 496h39l94 -459l316 459h43z" />
    <glyph glyph-name="uni04F4" unicode="&#x4f4;" horiz-adv-x="684" 
d="M367 847c-14 14 -14 38 0 53c14 14 37 14 51 0c14 -15 14 -39 0 -53c-14 -15 -37 -15 -51 0zM523 847c-24 21 -6 65 25 63c20 0 36 -16 36 -37c0 -20 -16 -37 -36 -37c-10 0 -18 4 -25 11zM470 0l93 346c-103 -50 -185 -75 -248 -75c-66 0 -117 14 -151 41
c-35 27 -52 63 -52 109c0 19 3 39 8 60l66 248h39l-68 -254c-6 -20 -8 -37 -8 -50c0 -79 56 -120 164 -120c65 0 152 27 261 82l91 342h39l-195 -729h-39z" />
    <glyph glyph-name="uni04F5" unicode="&#x4f5;" horiz-adv-x="520" 
d="M268 622c-20 0 -33 14 -33 33c0 24 17 42 40 42c20 0 33 -14 33 -33c0 -24 -18 -42 -40 -42zM414 622c-19 0 -33 14 -33 33c0 24 18 42 40 42c20 0 34 -14 34 -33c0 -24 -19 -42 -41 -42zM461 497h37l-131 -497h-37l56 211c-74 -34 -137 -51 -189 -51c-41 0 -74 9 -99 27
c-25 19 -37 46 -37 81c0 11 2 26 7 45l48 184h37l-51 -191c-3 -13 -5 -25 -5 -34c0 -52 35 -78 105 -78c30 0 63 5 98 16c35 10 67 24 96 40z" />
    <glyph glyph-name="uni04F8" unicode="&#x4f8;" horiz-adv-x="888" 
d="M509 847c-14 14 -14 38 0 53c14 14 36 14 51 0c14 -15 14 -39 0 -53c-15 -15 -37 -15 -51 0zM665 847c-25 21 -6 65 25 63c20 0 36 -16 36 -37c0 -20 -16 -37 -36 -37c-10 0 -19 4 -25 11zM198 420h182c133 0 231 -54 231 -178c0 -77 -30 -136 -90 -178
c-61 -43 -143 -64 -248 -64h-225l194 729h39zM675 0l195 729h38l-195 -729h-38zM189 385l-94 -350h172c99 0 175 18 228 54c52 36 79 86 79 153c0 105 -90 143 -196 143h-189z" />
    <glyph glyph-name="uni04F9" unicode="&#x4f9;" horiz-adv-x="761" 
d="M413 622c-19 0 -33 14 -33 33c0 24 17 42 40 42c20 0 33 -14 33 -33c0 -24 -18 -42 -40 -42zM560 622c-20 0 -33 14 -33 33c0 24 18 42 40 42c19 0 33 -14 33 -33c0 -24 -18 -42 -40 -42zM195 497l-54 -201h183c105 0 164 -46 164 -126c0 -54 -21 -96 -63 -125
c-43 -30 -101 -45 -175 -45h-223l131 497h37zM133 263l-61 -230h174c64 0 113 12 150 35c36 23 54 57 54 102c0 69 -65 93 -129 93h-188zM608 0h-37l131 497h37z" />
    <glyph glyph-name="uni0E3F" unicode="&#xe3f;" horiz-adv-x="681" 
d="M234 -95l25 95h-211l195 729h208l27 101h37l-27 -102c55 -5 98 -22 132 -50c33 -29 49 -66 49 -112c0 -56 -24 -104 -62 -136c-38 -31 -86 -51 -139 -59c92 -21 148 -73 148 -156c0 -63 -26 -114 -79 -155c-53 -40 -127 -60 -222 -60h-19l-25 -95h-37zM362 390l80 304
h-171l-81 -304h172zM478 693l-80 -303c72 3 129 20 170 50c42 31 62 72 62 123c0 77 -57 122 -152 130zM269 35l84 319h-173l-85 -319h174zM389 354l-84 -319h11c83 0 147 17 193 51s69 78 69 132c0 42 -18 74 -52 97c-34 24 -80 37 -137 39z" />
    <glyph glyph-name="uni1E20" unicode="&#x1e20;" horiz-adv-x="805" 
d="M364 854h310l-9 -34h-310zM743 305h-340l9 35h375c-7 -54 -22 -103 -46 -147s-54 -81 -89 -109c-72 -59 -162 -92 -257 -92c-180 -2 -311 132 -308 311c0 238 189 434 410 434c73 0 139 -22 182 -53c21 -16 41 -34 57 -54c33 -41 49 -82 56 -120l-35 -11
c-6 26 -14 53 -41 93c-13 21 -29 38 -46 54c-19 15 -43 28 -73 39c-31 11 -64 17 -101 17c-132 1 -242 -73 -304 -172c-44 -68 -67 -148 -67 -226c0 -82 25 -149 75 -200c51 -52 116 -78 197 -78c60 0 114 13 162 38c46 24 86 57 117 98c35 45 57 92 67 143z" />
    <glyph glyph-name="uni1E21" unicode="&#x1e21;" horiz-adv-x="635" 
d="M207 631h311l-9 -34h-310zM612 497l-135 -514c-19 -73 -52 -130 -101 -171c-49 -40 -109 -61 -182 -61c-94 1 -157 41 -189 94c-23 35 -33 71 -34 107l35 8c0 -26 5 -53 23 -85c8 -17 20 -31 33 -44c27 -26 75 -45 133 -45c125 0 212 70 248 205l36 136h-1
c-20 -31 -51 -58 -92 -82c-41 -25 -85 -37 -131 -37c-56 0 -104 20 -142 60c-39 39 -58 87 -58 145c0 53 12 102 36 147s58 80 100 106c43 27 90 40 142 40c54 0 105 -20 139 -49s57 -67 65 -106v0l39 146h36zM520 294c0 50 -18 92 -53 126c-35 35 -79 51 -134 51
c-71 0 -133 -30 -174 -77c-41 -48 -66 -111 -66 -178c0 -50 16 -91 48 -124c33 -33 73 -49 121 -49c35 0 68 7 101 23c32 15 60 35 82 59c45 48 75 111 75 169z" />
    <glyph glyph-name="uni1E30" unicode="&#x1e30;" horiz-adv-x="601" 
d="M455 795h-36l146 161h45zM543 0h-50l-303 370h-5l-99 -370h-38l194 729h39l-91 -339h5l464 339h57l-485 -354z" />
    <glyph glyph-name="uni1E31" unicode="&#x1e31;" horiz-adv-x="470" 
d="M138 281h2l321 216h62l-348 -229l230 -268h-47l-223 262h-2l-69 -262h-37l200 758h36zM514 742h-45l-147 -160h37z" />
    <glyph glyph-name="uni1E60" unicode="&#x1e60;" 
d="M396 837c-19 0 -33 14 -33 33c0 24 18 42 41 42c19 0 33 -14 33 -33c0 -24 -18 -42 -41 -42zM286 -9c-130 -2 -239 110 -236 241l36 7c0 -60 19 -110 58 -151c38 -41 86 -62 144 -62c51 0 98 14 136 40s61 70 61 124c0 22 -7 43 -15 59c-10 15 -28 32 -41 43
c-13 9 -41 26 -54 33c-7 4 -16 8 -28 14l-52 26c-16 8 -29 15 -40 22c-12 6 -25 15 -40 26c-15 12 -27 22 -37 34c-19 22 -35 56 -35 90c0 62 29 115 73 148s102 51 164 51c48 0 88 -10 120 -29c33 -20 57 -45 75 -76c16 -30 25 -61 25 -90l-36 -7c-1 25 -8 64 -36 101
c-27 35 -75 67 -149 66c-69 0 -130 -22 -168 -72c-20 -25 -29 -55 -29 -90c0 -28 13 -54 29 -73c8 -9 19 -18 32 -28c28 -20 41 -26 72 -42l52 -26c23 -11 42 -22 58 -31c15 -10 31 -22 48 -37c33 -29 51 -66 51 -110c0 -64 -28 -117 -73 -150c-44 -33 -102 -51 -165 -51z
" />
    <glyph glyph-name="uni1E61" unicode="&#x1e61;" horiz-adv-x="456" 
d="M288 622c-19 0 -33 14 -33 33c0 24 18 42 40 42c20 0 34 -14 34 -33c0 -24 -19 -42 -41 -42zM262 506c118 0 164 -82 170 -135l-34 -9c-6 39 -37 109 -137 109c-44 0 -85 -13 -112 -46c-14 -16 -21 -35 -21 -58c0 -40 32 -64 79 -84l68 -28c69 -30 104 -70 104 -120
c0 -46 -21 -85 -54 -108c-34 -23 -75 -36 -120 -36c-63 0 -113 23 -140 56c-28 33 -41 70 -41 106l36 8c-1 -31 10 -62 31 -89c22 -27 63 -46 115 -46c46 0 88 14 115 47c14 17 21 37 21 60s-10 43 -28 58c-19 15 -35 24 -59 34l-64 27c-60 26 -100 59 -100 112
c0 30 9 56 26 78s38 38 64 48c25 11 52 16 81 16z" />
    <glyph glyph-name="Wgrave" unicode="&#x1e80;" horiz-adv-x="1033" 
d="M567 956h38l62 -161h-29zM1130 729l-429 -729h-41l-34 670l-383 -670h-42l-47 729h38l42 -683l386 683h37l34 -683l397 683h42z" />
    <glyph glyph-name="wgrave" unicode="&#x1e81;" horiz-adv-x="797" 
d="M385 742h37l63 -160h-30zM837 497l-305 -497h-38l-42 446l-276 -446h-37l-46 497h37l39 -452l277 452h37l40 -452l274 452h40z" />
    <glyph glyph-name="Wacute" unicode="&#x1e82;" horiz-adv-x="1033" 
d="M670 795h-37l147 161h45zM1130 729l-429 -729h-41l-34 670l-383 -670h-42l-47 729h38l42 -683l386 683h37l34 -683l397 683h42z" />
    <glyph glyph-name="wacute" unicode="&#x1e83;" horiz-adv-x="797" 
d="M483 582h-37l147 160h45zM837 497l-305 -497h-38l-42 446l-276 -446h-37l-46 497h37l39 -452l277 452h37l40 -452l274 452h40z" />
    <glyph glyph-name="Wdieresis" unicode="&#x1e84;" horiz-adv-x="1033" 
d="M564 847c-14 14 -14 38 0 53c14 14 37 14 51 0c14 -15 14 -39 0 -53c-14 -15 -37 -15 -51 0zM720 847c-24 21 -5 65 25 63c20 0 36 -16 36 -37c0 -20 -16 -37 -36 -37c-10 0 -18 4 -25 11zM1130 729l-429 -729h-41l-34 670l-383 -670h-42l-47 729h38l42 -683l386 683h37
l34 -683l397 683h42z" />
    <glyph glyph-name="wdieresis" unicode="&#x1e85;" horiz-adv-x="797" 
d="M427 622c-19 0 -33 14 -33 33c0 24 17 42 41 42c19 0 32 -14 32 -33c0 -24 -17 -42 -40 -42zM574 622c-20 0 -33 14 -33 33c0 24 18 42 40 42c19 0 33 -14 33 -33c0 -24 -18 -42 -40 -42zM837 497l-305 -497h-38l-42 446l-276 -446h-37l-46 497h37l39 -452l277 452h37
l40 -452l274 452h40z" />
    <glyph glyph-name="uni1E90" unicode="&#x1e90;" horiz-adv-x="565" 
d="M480 35l-10 -35h-507l9 34l632 660h-441l9 35h491l-10 -34l-631 -660h458zM531 796l-72 132l-143 -133h-40l166 161h40l83 -160h-34z" />
    <glyph glyph-name="uni1E91" unicode="&#x1e91;" horiz-adv-x="457" 
d="M359 0h-389l8 31l454 434h-332l9 32h379l-8 -31l-453 -434h341zM422 582l-72 132l-144 -132h-39l165 160h41l82 -160h-33z" />
    <glyph glyph-name="uni1EBC" unicode="&#x1ebc;" horiz-adv-x="608" 
d="M623 885l24 -8c-10 -22 -22 -42 -38 -57c-16 -16 -34 -24 -54 -24c-24 0 -50 16 -67 32c-16 16 -41 31 -62 31c-26 0 -48 -19 -68 -57l-24 11c26 52 57 78 96 78c25 0 53 -16 69 -31s40 -31 59 -31c27 0 51 26 65 56zM95 35h401l-9 -35h-439l194 729h435l-9 -35h-398
l-80 -304h365l-10 -36h-365z" />
    <glyph glyph-name="uni1EBD" unicode="&#x1ebd;" horiz-adv-x="569" 
d="M489 672l24 -9c-10 -22 -23 -41 -39 -57s-34 -23 -54 -23c-24 0 -50 15 -66 31c-17 16 -41 31 -63 31c-25 0 -48 -19 -67 -57l-25 12c26 51 58 77 96 77c26 0 53 -15 70 -31c16 -15 39 -31 59 -31c27 0 50 26 65 57zM520 242h-428c-1 -8 -2 -16 -2 -25
c0 -55 17 -101 51 -137s79 -54 133 -54c88 0 154 42 199 125l30 -17c-52 -95 -129 -142 -232 -142c-64 0 -117 21 -157 63c-41 43 -61 96 -61 161c0 36 7 72 22 107c14 35 34 66 58 93s52 48 86 65s68 25 104 25c65 0 115 -19 150 -56c34 -38 52 -90 52 -155
c0 -12 -2 -30 -5 -53zM486 275c1 10 1 16 1 20c0 55 -14 98 -42 130c-29 31 -70 47 -125 47c-32 0 -64 -9 -97 -27c-33 -19 -60 -44 -83 -74c-24 -31 -38 -62 -44 -96h390z" />
    <glyph glyph-name="Ygrave" unicode="&#x1ef2;" horiz-adv-x="668" 
d="M385 956h37l63 -161h-30zM363 308l-82 -308h-39l85 317l-172 412h42l157 -381l360 381h51z" />
    <glyph glyph-name="ygrave" unicode="&#x1ef3;" horiz-adv-x="537" 
d="M291 742h37l63 -160h-30zM66 -245h-44l173 246l-106 496h39l94 -459l316 459h43z" />
    <glyph glyph-name="uni2000" unicode="&#x2000;" horiz-adv-x="515" 
 />
    <glyph glyph-name="uni2001" unicode="&#x2001;" horiz-adv-x="1030" 
 />
    <glyph glyph-name="uni2002" unicode="&#x2002;" horiz-adv-x="515" 
 />
    <glyph glyph-name="uni2003" unicode="&#x2003;" horiz-adv-x="1030" 
 />
    <glyph glyph-name="uni2004" unicode="&#x2004;" horiz-adv-x="343" 
 />
    <glyph glyph-name="uni2005" unicode="&#x2005;" horiz-adv-x="257" 
 />
    <glyph glyph-name="uni2006" unicode="&#x2006;" horiz-adv-x="171" 
 />
    <glyph glyph-name="uni2007" unicode="&#x2007;" horiz-adv-x="171" 
 />
    <glyph glyph-name="uni2008" unicode="&#x2008;" horiz-adv-x="129" 
 />
    <glyph glyph-name="uni2009" unicode="&#x2009;" horiz-adv-x="206" 
 />
    <glyph glyph-name="uni200A" unicode="&#x200a;" horiz-adv-x="57" 
 />
    <glyph glyph-name="uni2010" unicode="&#x2010;" horiz-adv-x="427" 
d="M369 313l-9 -36h-274l9 36h274z" />
    <glyph glyph-name="uni2011" unicode="&#x2011;" horiz-adv-x="427" 
d="M369 313l-9 -36h-274l9 36h274z" />
    <glyph glyph-name="figuredash" unicode="&#x2012;" horiz-adv-x="427" 
d="M369 313l-9 -36h-274l9 36h274z" />
    <glyph glyph-name="endash" unicode="&#x2013;" horiz-adv-x="581" 
d="M86 278l9 34h427l-8 -34h-428z" />
    <glyph glyph-name="emdash" unicode="&#x2014;" horiz-adv-x="965" 
d="M86 278l9 34h812l-9 -34h-812z" />
    <glyph glyph-name="quoteleft" unicode="&#x2018;" horiz-adv-x="230" 
d="M285 735l-8 -26c-47 -9 -81 -44 -87 -101c8 5 16 7 26 7c20 0 36 -12 36 -32c0 -25 -22 -46 -47 -46c-28 0 -43 22 -43 51c0 43 12 77 36 103c24 25 53 40 87 44z" />
    <glyph glyph-name="quoteright" unicode="&#x2019;" horiz-adv-x="232" 
d="M157 537l7 26c47 8 82 42 88 101c-7 -5 -16 -8 -26 -8c-20 0 -36 13 -36 33c0 12 5 23 14 32c10 9 20 14 32 14c29 0 44 -21 44 -52c0 -90 -62 -140 -123 -146z" />
    <glyph glyph-name="quotesinglbase" unicode="&#x201a;" horiz-adv-x="246" 
d="M-1 -125l7 25c47 9 82 44 88 101c-22 -14 -65 -5 -63 26c0 12 5 23 14 32c10 8 21 13 33 13c30 0 43 -21 43 -52c0 -42 -12 -76 -36 -102c-24 -25 -53 -39 -86 -43z" />
    <glyph glyph-name="quotedblleft" unicode="&#x201c;" horiz-adv-x="374" 
d="M285 735l-8 -26c-47 -9 -81 -44 -87 -101c8 5 16 7 26 7c20 0 36 -12 36 -32c0 -25 -22 -46 -47 -46c-28 0 -43 22 -43 51c0 43 12 77 36 103c24 25 53 40 87 44zM428 735l-7 -26c-47 -9 -82 -44 -88 -101c8 5 17 7 26 7c21 0 36 -12 36 -32c0 -25 -21 -46 -47 -46
c-28 0 -43 22 -43 51c0 43 12 77 37 103c24 25 53 40 86 44z" />
    </font>
</defs>
</svg>
