<?xml version="1.0" standalone="no"?>
<!DOCTYPE svg PUBLIC "-//W3C//DTD SVG 1.1//EN" "http://www.w3.org/Graphics/SVG/1.1/DTD/svg11.dtd" >
<svg xmlns="http://www.w3.org/2000/svg" width="100%" height="100%">
<metadata>
Created by FontXChange 20110222 at Sat Feb 23 11:16:39 2019
 By Mitchell Warren
Copyright (c) 2016 by THOMAS GILLETT. All rights reserved.
</metadata>
<defs>
<font id="Gordita-Black" horiz-adv-x="605" >
  <font-face 
    font-family="Gordita"
    font-weight="900"
    font-stretch="normal"
    units-per-em="1000"
    panose-1="0 0 0 0 0 0 0 0 0 0"
    ascent="800"
    descent="-200"
    x-height="497"
    cap-height="729"
    bbox="-350 -365 1450 1135"
    underline-thickness="46"
    underline-position="-47"
    stemh="87"
    stemv="57"
    unicode-range="U+000D-FB04"
  />
<missing-glyph horiz-adv-x="744" 
d="M698 0h-614v729h614v-729zM630 653h-474l474 -577v577z" />
    <glyph glyph-name="ff" unicode="ff" horiz-adv-x="796" 
d="M785 748v-137c-15 4 -32 5 -50 5c-53 0 -75 -27 -75 -80v-39h121v-145h-121v-352h-176v352h-193v-352h-176v352h-91v145h91v42c0 64 17 118 51 158s90 64 161 64c35 0 64 -4 89 -13v-137c-15 4 -32 5 -51 5c-53 0 -74 -27 -74 -80v-39h193v42c0 66 18 120 54 161
c36 40 89 61 158 61c34 0 64 -4 89 -13z" />
    <glyph glyph-name="fi" unicode="fi" horiz-adv-x="720" 
d="M573 564c-29 0 -53 10 -73 30c-21 20 -31 44 -31 72c0 29 10 54 31 74c20 20 44 30 73 30s53 -10 74 -30c20 -20 30 -45 30 -74c0 -28 -10 -52 -31 -72c-20 -20 -45 -30 -73 -30zM291 536v-39h371v-497h-178v352h-193v-352h-176v352h-91v145h91v42c0 64 17 118 51 158
s90 64 161 64c35 0 64 -4 89 -13v-137c-15 4 -32 5 -51 5c-53 0 -74 -27 -74 -80z" />
    <glyph glyph-name="fl" unicode="fl" horiz-adv-x="721" 
d="M115 352h-91v145h91v42c0 64 17 118 51 158s90 64 161 64c35 0 64 -4 89 -13v-137c-15 4 -32 5 -51 5c-53 0 -74 -27 -74 -80v-39h193v262h179v-759h-179v352h-193v-352h-176v352z" />
    <glyph glyph-name="ffi" unicode="ffi" horiz-adv-x="1121" 
d="M942 564c-29 0 -53 10 -73 30c-21 20 -31 44 -31 72c0 29 10 54 30 74c21 20 45 30 74 30s53 -10 74 -30c20 -20 30 -45 30 -74c0 -28 -10 -52 -31 -72c-20 -20 -45 -30 -73 -30zM484 497v42c0 64 17 118 51 158s90 64 160 64c35 0 65 -4 90 -13v-137c-15 4 -32 5 -51 5
c-53 0 -74 -27 -74 -80v-39h371v-497h-178v352h-193v-352h-176v352h-193v-352h-176v352h-91v145h91v42c0 64 17 118 51 158s90 64 161 64c35 0 64 -4 89 -13v-137c-15 4 -31 5 -51 5c-53 0 -74 -27 -74 -80v-39h193z" />
    <glyph glyph-name="ffl" unicode="ffl" horiz-adv-x="1121" 
d="M416 748v-137c-15 4 -31 5 -51 5c-52 0 -74 -27 -74 -80v-39h193v42c0 64 17 118 51 158c35 40 90 64 161 64c35 0 64 -4 89 -13v-137c-15 4 -32 5 -50 5c-54 0 -75 -27 -75 -80v-39h193v262h178v-759h-178v352h-193v-352h-176v352h-193v-352h-176v352h-91v145h91v42
c0 66 18 120 54 161c36 40 89 61 158 61c35 0 64 -4 89 -13z" />
    <glyph glyph-name=".notdef" horiz-adv-x="744" 
d="M698 0h-614v729h614v-729zM630 653h-474l474 -577v577z" />
    <glyph glyph-name="_1" horiz-adv-x="0" 
 />
    <glyph glyph-name="nonmarkingreturn" horiz-adv-x="310" 
 />
    <glyph glyph-name="NULL" horiz-adv-x="0" 
 />
    <glyph glyph-name="NULL" horiz-adv-x="0" 
 />
    <glyph glyph-name="CR" unicode="&#xd;" horiz-adv-x="218" 
 />
    <glyph glyph-name="space" unicode=" " horiz-adv-x="218" 
 />
    <glyph glyph-name="exclam" unicode="!" horiz-adv-x="327" 
d="M244 248h-161l-15 373v108h190v-107zM63 90c0 28 10 52 29 72c20 20 44 30 72 30s52 -10 72 -30c19 -20 29 -44 29 -72s-10 -52 -29 -71c-20 -20 -44 -30 -72 -30s-52 10 -72 30c-19 19 -29 43 -29 71z" />
    <glyph glyph-name="quotedbl" unicode="&#x22;" horiz-adv-x="492" 
d="M223 590l-56 -205h-73l-52 205c-2 10 -4 22 -4 36c0 29 9 52 26 71c17 18 39 28 67 28s51 -10 69 -29c18 -18 27 -42 27 -70c0 -14 -1 -26 -4 -36zM451 590l-56 -205h-73l-52 205c-3 10 -4 22 -4 36c0 29 9 52 26 71c17 18 39 28 67 28c27 0 51 -10 69 -29
c18 -18 27 -42 27 -70c0 -14 -1 -26 -4 -36z" />
    <glyph glyph-name="numbersign" unicode="#" horiz-adv-x="770" 
d="M387 0l27 149h-134l-27 -149h-146l27 149h-97v151h125l24 132h-99v152h125l26 138h147l-26 -138l133 -1l25 139h147l-25 -139h93v-151h-120l-23 -132h93v-151h-122l-27 -149h-146zM445 298l23 136h-137l-25 -136h139z" />
    <glyph glyph-name="dollar" unicode="$" horiz-adv-x="643" 
d="M605 224c0 -55 -23 -109 -63 -150c-41 -42 -105 -71 -179 -77v-92h-69v92c-75 6 -134 30 -179 70c-44 41 -71 93 -82 158l162 39c9 -65 46 -101 100 -113v134l-32 7c-61 12 -110 36 -147 73s-56 83 -56 139c0 41 11 78 32 112c22 34 50 61 85 81c35 21 74 33 117 37v96
h69v-96c72 -8 132 -37 167 -76c35 -40 55 -83 62 -130l-159 -44c-7 47 -32 82 -72 94v-131l32 -5c66 -12 118 -37 156 -77c37 -40 56 -87 56 -141zM294 459l1 -1v122c-35 -9 -55 -37 -55 -62c0 -31 18 -50 54 -59zM361 273v-123c41 9 61 37 61 66c0 31 -20 50 -61 57z" />
    <glyph glyph-name="percent" unicode="%" horiz-adv-x="898" 
d="M385 559c0 -49 -18 -90 -52 -125c-35 -34 -77 -52 -126 -52c-48 0 -90 18 -125 52c-35 35 -52 76 -52 125s17 91 52 126c35 34 77 51 125 51c49 0 91 -17 126 -51c34 -35 52 -77 52 -126zM284 0h-149l479 729h147zM260 559c0 31 -22 55 -53 55c-30 0 -52 -25 -52 -55
c0 -29 22 -54 52 -54c31 0 53 25 53 54zM868 171c0 -48 -18 -90 -52 -125c-35 -34 -77 -51 -126 -51s-90 17 -125 51c-35 35 -52 77 -52 125c0 49 17 91 52 126c35 34 76 52 125 52s91 -18 126 -52c34 -35 52 -77 52 -126zM743 171c0 30 -22 55 -53 55
c-30 0 -52 -25 -52 -55c0 -29 22 -53 52 -53c31 0 53 24 53 53z" />
    <glyph glyph-name="ampersand" unicode="&#x26;" horiz-adv-x="701" 
d="M694 0h-193l-48 55c-62 -44 -120 -65 -176 -65c-122 0 -241 61 -241 204c0 71 42 135 126 190l-23 26c-36 42 -56 92 -56 132c0 54 21 101 62 140s93 59 155 59c37 0 73 -9 106 -26s60 -40 80 -70c21 -30 31 -63 31 -98c0 -71 -32 -125 -103 -166l-38 -22l91 -103
c27 39 45 76 54 110h146c-4 -31 -15 -65 -35 -102c-19 -38 -44 -75 -74 -111zM302 601c-19 0 -36 -6 -48 -18c-14 -13 -20 -26 -20 -41c0 -16 5 -29 26 -53l28 -31l48 29c22 13 33 31 33 55c0 15 -6 28 -19 41c-13 12 -29 18 -48 18zM287 130c24 0 50 8 78 25l-115 130
c-38 -25 -57 -50 -57 -76c0 -62 53 -79 94 -79z" />
    <glyph glyph-name="quotesingle" unicode="'" horiz-adv-x="264" 
d="M223 590l-56 -205h-73l-52 205c-2 10 -4 22 -4 36c0 29 9 52 26 71c17 18 39 28 66 28c28 0 51 -10 70 -29c18 -18 27 -42 27 -70c0 -14 -1 -26 -4 -36z" />
    <glyph glyph-name="parenleft" unicode="(" horiz-adv-x="385" 
d="M186 350v-15c0 -165 65 -291 185 -370l-72 -95c-84 44 -149 105 -194 185c-46 80 -69 173 -69 280v16c0 106 23 199 69 279c45 80 110 142 194 185l72 -95c-120 -79 -185 -205 -185 -370z" />
    <glyph glyph-name="parenright" unicode=")" horiz-adv-x="385" 
d="M199 335v15c0 164 -65 290 -185 370l72 95c84 -43 149 -105 195 -185c45 -80 68 -173 68 -279v-16c0 -107 -23 -200 -68 -280c-46 -80 -111 -141 -195 -185l-72 95c120 80 185 206 185 370z" />
    <glyph glyph-name="asterisk" unicode="*" horiz-adv-x="471" 
d="M325 505l69 -95l-88 -65l-71 96l-70 -96l-89 65l69 95l-112 37l34 103l112 -36v120h112v-120l112 36l35 -103z" />
    <glyph glyph-name="plus" unicode="+" horiz-adv-x="569" 
d="M535 266h-173v-176h-155v176h-172v148l172 1v173h155v-174h173v-148z" />
    <glyph glyph-name="comma" unicode="," horiz-adv-x="300" 
d="M55 -173v78c58 18 91 42 102 87c-7 -2 -16 -2 -24 -2c-27 0 -49 9 -67 27c-17 18 -26 39 -26 66c0 28 10 52 31 71c20 19 45 28 74 28c79 0 112 -65 112 -131c0 -57 -18 -106 -54 -148c-36 -41 -85 -67 -148 -76z" />
    <glyph glyph-name="hyphen" unicode="-" horiz-adv-x="416" 
d="M55 229v148h306v-148h-306z" />
    <glyph glyph-name="period" unicode="." horiz-adv-x="295" 
d="M147 -10c-29 0 -55 10 -76 31c-21 22 -32 47 -32 76c0 31 10 57 31 78c22 21 47 32 77 32c31 0 57 -11 78 -32c20 -21 31 -47 31 -78c0 -29 -11 -54 -31 -76c-22 -21 -47 -31 -78 -31z" />
    <glyph glyph-name="slash" unicode="/" horiz-adv-x="541" 
d="M184 -5h-158l333 764h157z" />
    <glyph glyph-name="zero" unicode="0" horiz-adv-x="714" 
d="M40 363c-2 115 39 228 115 301c49 48 121 77 203 77s154 -29 203 -76c24 -24 45 -51 63 -83c34 -64 50 -137 50 -215c1 -117 -39 -229 -113 -301c-50 -47 -122 -77 -206 -77c-83 0 -155 29 -203 76c-25 23 -46 50 -62 82c-35 63 -50 136 -50 216zM225 364
c-1 -50 11 -112 41 -157c19 -28 51 -48 91 -48c48 0 86 29 104 72c19 44 28 88 28 133c0 36 -4 70 -16 108c-7 19 -14 36 -24 50c-19 29 -52 50 -92 50c-63 0 -97 -45 -115 -100c-13 -38 -17 -72 -17 -108z" />
    <glyph glyph-name="one" unicode="1" horiz-adv-x="477" 
d="M402 0h-183v510l-138 -77l-83 151l254 145h150v-729z" />
    <glyph glyph-name="two" unicode="2" horiz-adv-x="648" 
d="M600 0h-559v35c0 64 14 120 43 168c29 47 79 91 149 131l89 51c36 20 60 39 73 58c14 18 20 37 20 57s-8 38 -25 54c-16 16 -39 24 -67 24c-18 0 -33 -2 -55 -13c-10 -5 -19 -13 -27 -21c-16 -18 -27 -51 -25 -93l-171 20c-1 91 32 164 85 206s120 64 192 64
c84 0 156 -26 202 -69c46 -42 73 -102 73 -167c0 -97 -56 -176 -168 -238l-81 -44c-30 -17 -53 -33 -64 -43s-17 -19 -19 -23v-2h335v-155z" />
    <glyph glyph-name="three" unicode="3" horiz-adv-x="648" 
d="M320 -11c-90 0 -165 29 -211 76s-73 105 -79 168l171 27c1 -34 13 -61 34 -83s49 -32 83 -32c32 0 57 9 76 28c19 18 28 41 28 66c0 42 -27 94 -102 94c-20 0 -42 -6 -64 -20l-81 119l184 143h-303v154h529v-145l-162 -127c54 -11 97 -37 132 -78c34 -42 50 -89 50 -140
c0 -78 -32 -143 -88 -187c-52 -41 -124 -63 -197 -63z" />
    <glyph glyph-name="four" unicode="4" horiz-adv-x="704" 
d="M560 135v-135h-181v135h-354v182l322 412h213v-439h109v-155h-109zM379 533l-190 -243h190v243z" />
    <glyph glyph-name="five" unicode="5" horiz-adv-x="636" 
d="M57 358l76 371h435v-154h-305l-28 -136c34 27 80 40 137 40c73 0 139 -31 179 -85c30 -39 45 -89 45 -149c0 -80 -35 -149 -90 -191c-54 -42 -124 -66 -197 -66c-71 0 -134 20 -176 51c-21 16 -39 33 -54 54c-31 40 -46 83 -49 125l166 27c6 -56 38 -81 69 -92
c22 -8 34 -9 45 -9c32 0 58 9 77 27c18 19 28 43 28 72c0 28 -10 50 -29 68c-20 18 -44 26 -74 26c-32 0 -70 -13 -94 -42l-4 -6z" />
    <glyph glyph-name="six" unicode="6" horiz-adv-x="662" 
d="M40 331c0 61 10 119 30 174c20 54 49 100 87 138c67 65 150 98 250 98c78 0 151 -21 197 -48l-69 -143c-38 21 -82 31 -132 31c-47 0 -88 -16 -123 -50c-35 -33 -55 -75 -63 -125h1c17 20 38 36 62 48s45 20 63 23s37 5 55 5c122 0 224 -94 224 -231
c0 -82 -33 -151 -86 -195c-53 -43 -123 -68 -199 -68c-88 0 -157 27 -208 79c-37 39 -63 90 -74 140c-12 49 -15 85 -15 124zM228 240c0 -28 11 -51 32 -69c20 -19 45 -28 75 -28c31 0 56 9 77 27c20 18 30 41 30 70c0 27 -10 50 -29 68c-20 18 -46 27 -78 27
c-29 0 -54 -9 -75 -28s-32 -42 -32 -67z" />
    <glyph glyph-name="seven" unicode="7" horiz-adv-x="602" 
d="M269 0h-202l313 570h-354v159h554v-152z" />
    <glyph glyph-name="eight" unicode="8" horiz-adv-x="644" 
d="M322 -11c-77 -1 -163 25 -219 75c-38 33 -62 83 -62 141c0 36 11 69 34 100c22 30 52 53 90 69v1c-35 14 -62 35 -80 63c-19 28 -28 58 -28 91c0 67 33 124 84 158c51 35 115 54 181 54c76 0 154 -28 208 -78c35 -33 57 -81 57 -133c0 -33 -9 -64 -27 -92
c-19 -28 -46 -49 -82 -63v-1c38 -16 69 -39 91 -70c22 -30 34 -64 34 -99c0 -88 -53 -150 -124 -182c-49 -23 -103 -34 -157 -34zM262 566c-17 -15 -25 -32 -25 -53c0 -20 8 -38 25 -53c17 -14 37 -21 60 -21s43 7 60 21c16 15 24 33 24 53c0 21 -8 38 -24 52
c-17 15 -37 22 -60 22s-43 -7 -60 -21zM250 284c-19 -16 -28 -35 -28 -59c0 -23 9 -42 28 -58s42 -24 72 -24c29 0 53 8 72 24c18 16 27 35 27 58c0 24 -9 43 -27 59c-19 16 -43 24 -72 24c-30 0 -53 -8 -72 -24z" />
    <glyph glyph-name="nine" unicode="9" horiz-adv-x="659" 
d="M618 396c0 -139 -36 -243 -108 -314c-64 -62 -145 -94 -244 -94c-39 0 -77 5 -116 15s-70 22 -93 36l62 142c40 -22 87 -33 143 -33c47 0 88 16 123 49s55 76 61 128h-1c-25 -29 -55 -49 -88 -60c-33 -12 -64 -18 -94 -18c-58 0 -114 24 -155 63c-41 40 -68 100 -68 167
c0 173 133 264 284 264c84 0 153 -27 205 -82c59 -62 89 -149 89 -263zM428 490c0 28 -10 50 -30 69c-21 18 -46 27 -76 27s-56 -9 -76 -27c-21 -18 -31 -41 -31 -70c0 -27 10 -49 30 -67c19 -18 45 -27 77 -27c29 0 54 9 75 28s31 41 31 67z" />
    <glyph glyph-name="colon" unicode=":" horiz-adv-x="312" 
d="M156 291c-30 0 -55 10 -76 32c-22 21 -33 46 -33 76s11 56 32 77c21 22 47 33 77 33s56 -11 77 -33c21 -21 32 -47 32 -77s-11 -55 -32 -76c-22 -22 -47 -32 -77 -32zM156 -10c-30 0 -55 10 -76 31c-22 22 -33 47 -33 76c0 31 11 57 32 78s47 32 77 32s56 -11 77 -32
s32 -47 32 -78c0 -29 -11 -55 -32 -76c-22 -21 -47 -31 -77 -31z" />
    <glyph glyph-name="semicolon" unicode=";" horiz-adv-x="316" 
d="M158 291c-30 0 -55 10 -77 32c-21 21 -32 46 -32 76s11 56 32 77c21 22 47 33 77 33s56 -11 77 -33c21 -21 31 -47 31 -77s-10 -55 -31 -76c-21 -22 -47 -32 -77 -32zM64 -173v78c58 18 91 42 102 87c-8 -2 -16 -2 -25 -2c-26 0 -49 9 -66 27c-18 18 -26 39 -26 66
c0 28 10 52 31 71c20 19 45 28 74 28c79 0 112 -65 112 -131c0 -57 -18 -106 -54 -148c-36 -41 -86 -67 -148 -76z" />
    <glyph glyph-name="less" unicode="&#x3c;" horiz-adv-x="590" 
d="M209 342l316 -128v-156l-493 220v125l493 221v-156z" />
    <glyph glyph-name="equal" unicode="=" horiz-adv-x="588" 
d="M57 386v147h474v-147h-474zM57 149v145h474v-145h-474z" />
    <glyph glyph-name="greater" unicode="&#x3e;" horiz-adv-x="590" 
d="M65 467v157l493 -221v-125l-493 -220v156l317 126z" />
    <glyph glyph-name="question" unicode="?" horiz-adv-x="564" 
d="M360 252v-9h-164c-2 15 -4 26 -4 32c0 40 24 80 54 111c15 15 29 30 44 44c30 29 54 62 54 92c0 18 -6 33 -19 44c-14 11 -29 17 -47 17c-27 0 -47 -9 -60 -28c-14 -19 -21 -43 -21 -72l-167 20v12c-3 69 26 129 74 167c47 38 111 59 179 59c64 0 123 -19 169 -54
c45 -34 73 -90 73 -156c0 -25 -5 -49 -11 -67c-6 -16 -24 -43 -32 -54c-5 -6 -12 -15 -22 -25c-11 -10 -18 -18 -23 -23c-5 -4 -13 -12 -26 -24c-16 -15 -28 -29 -36 -41s-13 -27 -15 -45zM175 90c0 28 10 52 30 72s44 30 71 30c29 0 53 -10 73 -30c19 -20 29 -44 29 -72
s-10 -52 -29 -71c-20 -20 -44 -30 -73 -30c-27 0 -51 10 -71 30c-20 19 -30 43 -30 71z" />
    <glyph glyph-name="at" unicode="@" horiz-adv-x="806" 
d="M496 474h110l-40 -234c-1 -5 -1 -13 0 -26c2 -13 12 -24 29 -24c25 0 49 15 72 46c23 30 34 68 34 112c0 47 -11 89 -35 127c-23 39 -55 69 -97 91c-43 23 -90 34 -143 34c-55 0 -107 -15 -155 -42c-47 -28 -86 -67 -114 -114c-28 -49 -42 -101 -42 -157
c0 -81 29 -155 80 -210c50 -54 131 -89 225 -89c32 0 65 6 101 17c36 12 67 28 94 48l39 -58c-26 -23 -61 -42 -106 -57c-45 -14 -88 -22 -128 -22c-55 0 -106 10 -153 29c-48 20 -88 45 -121 79c-65 66 -105 161 -105 263c0 52 11 102 31 149c21 48 48 89 83 123
c34 34 75 61 122 81s97 30 148 30c65 0 124 -14 177 -41c53 -28 95 -66 126 -115s46 -104 46 -165c0 -72 -23 -137 -59 -178c-36 -42 -85 -67 -137 -67c-22 0 -43 5 -63 15s-34 22 -42 38c-12 -16 -28 -29 -49 -39c-22 -10 -42 -15 -62 -15c-43 0 -84 21 -110 52
c-26 30 -42 70 -42 108c0 58 18 109 55 152c37 42 82 63 136 63c18 0 35 -4 52 -13c17 -8 28 -20 35 -35zM471 308c0 38 -23 63 -60 63c-24 0 -44 -10 -61 -30s-25 -42 -25 -68c1 -17 7 -33 18 -46s26 -20 43 -20c23 0 43 11 60 31c17 21 25 44 25 70z" />
    <glyph glyph-name="A" unicode="A" horiz-adv-x="752" 
d="M565 0l-50 134h-281l-49 -134h-192l280 729h207l280 -729h-195zM374 522l-87 -232h175z" />
    <glyph glyph-name="B" unicode="B" horiz-adv-x="689" 
d="M655 206c0 -143 -125 -206 -260 -206h-320v729h316c71 0 141 -24 184 -68c31 -32 49 -77 49 -125c0 -72 -44 -126 -116 -156v-3c46 -7 82 -27 108 -58s39 -69 39 -113zM441 507c0 43 -31 65 -84 65h-103v-132h105c53 0 82 25 82 67zM472 227c0 22 -8 39 -24 51
s-36 17 -59 17h-135v-137h135c49 0 83 25 83 69z" />
    <glyph glyph-name="C" unicode="C" horiz-adv-x="785" 
d="M410 -11c-51 0 -100 10 -147 29c-46 19 -86 46 -119 79c-34 33 -60 73 -80 119c-19 47 -29 96 -29 149c0 51 9 100 28 145c19 46 45 86 78 120c34 35 74 61 121 81c48 20 99 30 153 30c85 0 160 -25 210 -61c25 -17 47 -38 67 -61c39 -47 58 -89 69 -132l-171 -53
c-6 27 -28 70 -68 101c-26 19 -66 34 -109 34c-55 0 -100 -20 -136 -59c-36 -40 -54 -87 -54 -144c0 -56 17 -104 53 -143c35 -40 81 -60 137 -60c53 0 99 20 127 48c29 29 45 58 53 87l173 -54c-9 -39 -29 -82 -69 -129c-20 -23 -42 -44 -68 -62c-52 -37 -131 -64 -219 -64
z" />
    <glyph glyph-name="D" unicode="D" horiz-adv-x="761" 
d="M317 0h-242v729h242c227 1 408 -120 408 -362c0 -117 -45 -214 -120 -274c-74 -60 -174 -93 -288 -93zM318 560h-59v-390h58c123 0 219 67 219 196c0 62 -25 114 -64 145c-40 32 -94 49 -154 49z" />
    <glyph glyph-name="E" unicode="E" horiz-adv-x="637" 
d="M75 0v729h510v-163h-328v-119h298v-157h-298v-126h330v-164h-512z" />
    <glyph glyph-name="F" unicode="F" horiz-adv-x="620" 
d="M582 562h-324v-132h293v-161h-293v-269h-183v729h507v-167z" />
    <glyph glyph-name="G" unicode="G" horiz-adv-x="795" 
d="M362 399h402v-72c0 -93 -35 -178 -95 -239c-59 -61 -149 -99 -253 -99c-71 0 -136 16 -195 49c-58 32 -103 77 -136 134c-34 58 -50 122 -50 193c0 50 10 98 30 145c20 45 46 85 80 120c35 34 75 60 122 81c48 20 97 30 149 30c79 0 150 -21 198 -51
c24 -16 46 -34 65 -55c38 -41 59 -81 71 -123l-179 -47c-5 22 -19 45 -43 70c-24 23 -65 40 -114 40c-55 0 -101 -20 -139 -59c-37 -39 -55 -89 -55 -150c0 -59 18 -110 55 -151c36 -40 84 -61 141 -61c37 0 70 9 100 28c30 18 49 41 56 69h-210v148z" />
    <glyph glyph-name="H" unicode="H" horiz-adv-x="788" 
d="M529 0v284h-270v-284h-184v729h184v-275h270v275h184v-729h-184z" />
    <glyph glyph-name="I" unicode="I" horiz-adv-x="335" 
d="M75 0v729h185v-729h-185z" />
    <glyph glyph-name="J" unicode="J" horiz-adv-x="608" 
d="M284 -10c-151 -3 -261 94 -260 249v80h177v-74c0 -55 33 -84 78 -84s75 33 75 81v487h185v-485c0 -78 -24 -140 -72 -186c-47 -46 -109 -68 -183 -68z" />
    <glyph glyph-name="K" unicode="K" horiz-adv-x="711" 
d="M490 0l-230 345v-345h-185v729h185v-313l225 313h216l-250 -346l268 -383h-229z" />
    <glyph glyph-name="L" unicode="L" horiz-adv-x="578" 
d="M565 0h-490v729h184v-562h306v-167z" />
    <glyph glyph-name="M" unicode="M" horiz-adv-x="980" 
d="M725 0v464h-1l-178 -464h-113l-180 458h-2v-458h-176v729h236l179 -447l171 447h244v-729h-180z" />
    <glyph glyph-name="N" unicode="N" horiz-adv-x="805" 
d="M527 0l-268 432h-1v-432h-183v729h206l265 -426h1v426h183v-729h-203z" />
    <glyph glyph-name="O" unicode="O" horiz-adv-x="830" 
d="M34 365c0 69 17 132 52 190c34 58 81 104 139 137c59 33 123 49 192 49s133 -16 191 -49c57 -32 103 -77 137 -135c34 -57 51 -121 51 -190c0 -52 -10 -101 -30 -148c-21 -47 -47 -87 -81 -120c-35 -34 -75 -61 -122 -80c-47 -20 -96 -30 -148 -30c-70 0 -133 16 -191 50
c-59 32 -104 77 -139 135c-34 58 -51 121 -51 191zM222 366c0 -55 18 -103 56 -144c37 -40 83 -61 137 -61c55 0 101 21 138 61c37 41 56 89 56 144c2 106 -85 206 -194 204c-35 0 -69 -10 -99 -29s-53 -44 -69 -75c-17 -31 -25 -64 -25 -100z" />
    <glyph glyph-name="P" unicode="P" horiz-adv-x="656" 
d="M259 251v-251h-184v729h285c79 0 145 -19 195 -58c49 -38 78 -100 78 -179c0 -80 -31 -144 -83 -182c-52 -39 -120 -59 -200 -59h-91zM345 568h-86v-160h87c67 0 103 27 103 77c0 52 -31 83 -104 83z" />
    <glyph glyph-name="Q" unicode="Q" horiz-adv-x="832" 
d="M807 95l-100 -114l-80 72c-64 -43 -134 -64 -212 -64c-70 0 -133 16 -191 50c-59 32 -104 77 -139 135c-34 58 -51 121 -51 191c0 69 17 132 52 190c34 58 81 104 139 137c59 33 123 49 192 49s133 -16 191 -49c57 -32 103 -77 137 -135c34 -57 51 -121 51 -190
c0 -75 -21 -145 -62 -208zM247 466c-17 -31 -25 -64 -25 -100s8 -69 25 -101c16 -31 39 -56 69 -75c30 -20 64 -30 99 -30c26 0 51 5 75 15l-100 88l100 115l104 -94c11 26 16 54 16 82c2 106 -86 206 -195 204c-35 0 -69 -10 -99 -29s-53 -44 -69 -75z" />
    <glyph glyph-name="R" unicode="R" horiz-adv-x="691" 
d="M664 0h-196l-134 256h-75v-256h-184v729h299c83 0 149 -20 199 -59c49 -40 74 -99 74 -175c0 -104 -50 -173 -134 -208zM259 570v-157h101c67 0 103 26 103 75s-33 82 -104 82h-100z" />
    <glyph glyph-name="S" unicode="S" horiz-adv-x="646" 
d="M332 -10c-88 0 -157 20 -209 63c-51 42 -83 98 -96 170l165 39c7 -55 39 -92 78 -107c19 -7 40 -11 63 -11c30 0 53 7 68 21c15 15 22 31 22 49c0 30 -21 50 -62 58l-101 19c-62 13 -111 37 -149 74c-37 38 -56 85 -56 141c0 67 32 129 81 170s117 65 188 65
c70 0 131 -18 171 -46c20 -14 37 -30 52 -49c29 -37 43 -75 48 -115l-161 -46c-9 62 -48 102 -111 102c-27 0 -47 -7 -62 -21s-23 -29 -23 -46c0 -33 18 -53 54 -60l105 -20c68 -13 120 -39 157 -78c36 -38 55 -86 55 -141c0 -59 -27 -116 -73 -160
c-46 -43 -120 -71 -204 -71z" />
    <glyph glyph-name="T" unicode="T" horiz-adv-x="630" 
d="M407 562v-562h-184v562h-206v167h596v-167h-206z" />
    <glyph glyph-name="U" unicode="U" horiz-adv-x="744" 
d="M490 729h186v-439c0 -95 -26 -168 -77 -221s-128 -79 -229 -79c-104 0 -184 30 -231 84c-48 54 -71 125 -71 214v441h185v-438c0 -39 10 -70 30 -94s49 -36 89 -36c44 0 77 15 94 40s24 53 24 86v442z" />
    <glyph glyph-name="V" unicode="V" horiz-adv-x="735" 
d="M464 0h-194l-261 729h202l159 -482l159 482h198z" />
    <glyph glyph-name="W" unicode="W" horiz-adv-x="1115" 
d="M558 493h-2l-149 -493h-182l-214 729h192l123 -461h3l140 461h177l144 -462h2l126 462h186l-215 -729h-185z" />
    <glyph glyph-name="X" unicode="X" horiz-adv-x="714" 
d="M507 0l-151 231l-152 -231h-209l255 373l-242 356h212l140 -215l139 215h206l-239 -355l253 -374h-212z" />
    <glyph glyph-name="Y" unicode="Y" horiz-adv-x="715" 
d="M450 281v-281h-185v281l-260 448h208l146 -261l148 261h203z" />
    <glyph glyph-name="Z" unicode="Z" horiz-adv-x="654" 
d="M610 164v-164h-574v155l336 412h-320v162h558v-154l-338 -411h338z" />
    <glyph glyph-name="bracketleft" unicode="[" horiz-adv-x="426" 
d="M76 -120v927h320v-127h-173v-674h173v-126h-320z" />
    <glyph glyph-name="backslash" unicode="\" horiz-adv-x="541" 
d="M25 759h157l333 -764h-157z" />
    <glyph glyph-name="bracketright" unicode="]" horiz-adv-x="426" 
d="M30 -120v126h173v674h-173v127h320v-927h-320z" />
    <glyph glyph-name="asciicircum" unicode="^" horiz-adv-x="610" 
d="M416 420l-111 184l-109 -184h-164l201 309h145l200 -309h-162z" />
    <glyph glyph-name="underscore" unicode="_" horiz-adv-x="542" 
d="M0 -178v132h542v-132h-542z" />
    <glyph glyph-name="grave" unicode="`" horiz-adv-x="316" 
d="M200 762l104 -182h-134l-158 182h188z" />
    <glyph glyph-name="a" unicode="a" horiz-adv-x="558" 
d="M264 373c-37 0 -67 -22 -74 -54l-148 32c9 54 43 98 86 122c44 23 92 36 142 36c89 0 160 -29 203 -91c21 -32 32 -70 32 -114v-224c0 -30 1 -57 4 -80h-169c-3 15 -4 35 -4 58l-2 1c-39 -46 -89 -69 -150 -69c-43 0 -78 15 -108 43c-29 27 -44 62 -44 104
c0 72 47 114 108 136c41 15 83 21 128 21h26c22 0 36 11 36 30c0 27 -24 49 -66 49zM254 113c44 0 76 27 76 71v15h-62c-15 0 -29 -4 -41 -11c-12 -8 -18 -18 -18 -33c0 -23 21 -42 45 -42z" />
    <glyph glyph-name="b" unicode="b" horiz-adv-x="645" 
d="M613 249c0 -66 -24 -130 -64 -179c-40 -48 -103 -80 -172 -80c-57 0 -104 23 -140 70h-3v-60h-176v759h177v-321h2c34 44 87 69 143 69c45 0 85 -12 121 -36s63 -56 83 -95c19 -39 29 -81 29 -127zM432 250c0 27 -10 50 -29 70c-20 20 -43 30 -70 30
c-28 0 -51 -10 -70 -30c-20 -20 -29 -43 -29 -70c0 -28 9 -52 29 -72c19 -20 42 -30 70 -30c27 0 50 10 70 30c19 20 29 44 29 72z" />
    <glyph glyph-name="c" unicode="c" horiz-adv-x="571" 
d="M303 -11c-50 0 -95 11 -137 32c-41 22 -74 53 -98 93c-25 39 -37 84 -37 135c0 73 33 141 82 186c50 45 120 74 192 74c75 0 143 -26 192 -79c24 -27 41 -59 49 -95l-156 -47c-13 38 -46 61 -86 61c-27 0 -49 -9 -67 -29c-18 -19 -27 -42 -27 -70s9 -52 26 -71
c17 -20 40 -29 69 -29c38 0 72 24 87 61l157 -47c-31 -112 -132 -177 -246 -175z" />
    <glyph glyph-name="d" unicode="d" horiz-adv-x="645" 
d="M264 -10c-44 0 -83 12 -119 35c-36 24 -64 55 -83 95c-20 40 -30 83 -30 130c0 74 28 141 72 185c43 45 103 72 164 72c17 0 32 -2 59 -10c28 -7 57 -27 79 -57h4v319h176v-759h-175v61h-4c-37 -47 -84 -71 -143 -71zM382 179c19 19 29 43 29 71c0 27 -10 51 -29 70
c-20 20 -43 30 -70 30s-51 -10 -70 -30c-20 -19 -29 -43 -29 -70c0 -28 9 -52 29 -71c19 -20 43 -30 70 -30s50 10 70 30z" />
    <glyph glyph-name="e" unicode="e" horiz-adv-x="581" 
d="M548 204h-345c5 -24 17 -43 36 -56c18 -14 40 -21 65 -21c36 0 68 19 87 50l146 -51c-42 -93 -129 -137 -237 -137c-48 0 -93 11 -134 34c-41 22 -74 53 -98 93c-25 40 -37 84 -37 134c0 47 12 91 36 131c24 39 57 71 97 94c41 22 85 33 132 33s90 -11 129 -33
c39 -21 70 -51 92 -90s33 -82 33 -129c0 -21 0 -38 -2 -52zM293 373c-20 0 -39 -7 -56 -20c-17 -14 -27 -31 -32 -51h173c-6 44 -39 71 -85 71z" />
    <glyph glyph-name="f" unicode="f" horiz-adv-x="426" 
d="M416 748v-137c-15 4 -32 5 -51 5c-53 0 -74 -27 -74 -80v-39h120v-145h-120v-352h-176v352h-91v145h91v42c0 64 17 118 51 158s90 64 161 64c35 0 64 -4 89 -13z" />
    <glyph glyph-name="g" unicode="g" horiz-adv-x="640" 
d="M405 15v60h-3c-37 -48 -82 -71 -137 -71c-69 0 -124 23 -167 71c-43 47 -65 106 -65 178c0 74 27 140 70 182c43 43 101 69 163 69c48 0 100 -19 138 -67h3v60h175v-472c0 -85 -26 -152 -79 -200c-53 -49 -122 -74 -208 -74c-76 0 -144 24 -186 58c-42 35 -69 77 -77 121
l157 47c9 -44 48 -74 99 -74c73 0 117 36 117 112zM379 185c19 19 28 42 28 69s-9 50 -28 69c-19 18 -41 27 -69 27c-27 0 -50 -9 -69 -28c-18 -18 -27 -42 -27 -69c0 -28 9 -50 27 -69c19 -19 42 -28 69 -28c28 0 50 9 69 29z" />
    <glyph glyph-name="h" unicode="h" 
d="M552 0h-177v270c0 21 -5 39 -18 54c-12 14 -29 21 -50 21c-43 0 -72 -28 -72 -75v-270h-177v759h177v-320h1c37 46 91 68 142 68c131 0 174 -110 174 -206v-301z" />
    <glyph glyph-name="i" unicode="i" horiz-adv-x="295" 
d="M147 564c-28 0 -52 10 -72 30c-21 20 -31 44 -31 71c0 29 10 54 31 74c20 20 44 30 72 30c29 0 53 -10 73 -30c20 -21 30 -45 30 -74c0 -27 -10 -51 -30 -71s-44 -30 -73 -30zM236 0h-178v497h178v-497z" />
    <glyph glyph-name="j" unicode="j" horiz-adv-x="302" 
d="M155 564c-28 0 -52 10 -72 30c-21 20 -31 44 -31 71c0 29 10 54 31 74c20 20 44 30 72 30c29 0 54 -10 74 -30c20 -21 30 -45 30 -74c0 -27 -10 -51 -30 -71s-45 -30 -74 -30zM65 497h179v-541c0 -60 -17 -109 -50 -146c-34 -37 -83 -55 -147 -55c-20 0 -40 1 -58 5
c-18 3 -30 6 -35 9v139c14 -3 28 -5 43 -5c46 0 68 19 68 58v536z" />
    <glyph glyph-name="k" unicode="k" horiz-adv-x="595" 
d="M388 0l-149 242h-4v-242h-177v759h177v-468l150 206h204l-167 -231l173 -266h-207z" />
    <glyph glyph-name="l" unicode="l" horiz-adv-x="295" 
d="M58 0v759h179v-759h-179z" />
    <glyph glyph-name="m" unicode="m" horiz-adv-x="913" 
d="M547 0h-176v271c0 20 -6 38 -17 53c-11 14 -27 21 -48 21c-45 0 -71 -27 -71 -75v-270h-177v497h176v-62h1c36 49 90 72 142 72c65 0 112 -26 142 -77c46 51 103 77 168 77c81 0 127 -39 151 -92c16 -37 22 -73 22 -114v-301h-177v272c0 41 -23 73 -64 73
c-46 0 -72 -26 -72 -74v-271z" />
    <glyph glyph-name="n" unicode="n" 
d="M552 0h-177v269c0 21 -5 40 -18 55c-12 14 -29 21 -50 21c-43 0 -72 -28 -72 -76v-269h-177v497h176v-62h1c36 49 92 72 143 72c131 0 174 -110 174 -206v-301z" />
    <glyph glyph-name="o" unicode="o" horiz-adv-x="610" 
d="M31 248c0 73 33 142 84 187c50 45 120 73 192 73s141 -27 191 -71c49 -44 81 -112 81 -185c0 -74 -32 -143 -82 -189s-120 -74 -194 -74c-73 0 -143 27 -192 72s-80 113 -80 187zM236 320c-18 -20 -27 -43 -27 -70c0 -28 9 -51 28 -71c18 -21 42 -31 68 -31
c27 0 50 10 69 31c18 20 27 43 27 71c0 27 -9 50 -27 70c-19 20 -42 30 -69 30s-50 -10 -69 -30z" />
    <glyph glyph-name="p" unicode="p" horiz-adv-x="645" 
d="M377 -10c-58 0 -104 23 -138 69h-4v-304h-177v742h176v-60h3c33 44 88 70 143 70c45 0 85 -12 121 -36s63 -56 83 -95c19 -39 29 -81 29 -127c0 -66 -24 -130 -64 -179c-40 -48 -103 -80 -172 -80zM234 250c0 -28 9 -52 29 -72c19 -20 42 -30 70 -30c27 0 50 10 70 30
c19 20 29 44 29 72c0 27 -10 50 -29 70c-20 20 -43 30 -70 30c-28 0 -51 -10 -70 -30c-20 -20 -29 -43 -29 -70z" />
    <glyph glyph-name="q" unicode="q" horiz-adv-x="645" 
d="M264 -10c-44 0 -83 12 -119 35c-36 24 -64 55 -83 95c-20 40 -30 83 -30 130c0 74 28 141 72 185c43 45 103 72 164 72c17 0 32 -2 59 -10s57 -28 80 -57h4v57h175v-742h-176v305h-4c-36 -47 -83 -70 -142 -70zM382 179c19 19 29 43 29 71c0 27 -10 51 -29 70
c-20 20 -43 30 -70 30s-51 -10 -70 -30c-20 -19 -29 -43 -29 -70c0 -28 9 -52 29 -71c19 -20 43 -30 70 -30s50 10 70 30z" />
    <glyph glyph-name="r" unicode="r" horiz-adv-x="425" 
d="M407 498l-1 -171c-14 3 -29 4 -43 4c-85 0 -128 -42 -128 -126v-205h-177v497h176v-72h1c19 31 46 55 74 64c27 9 46 12 65 12c11 0 21 -1 33 -3z" />
    <glyph glyph-name="s" unicode="s" horiz-adv-x="496" 
d="M246 509c68 0 125 -20 157 -49s49 -61 51 -92l-144 -27c-5 32 -30 44 -58 44c-31 0 -45 -17 -45 -32c0 -14 9 -23 28 -26l70 -15c43 -8 78 -24 109 -47c31 -25 50 -62 50 -106s-20 -85 -54 -118c-35 -32 -92 -52 -160 -52c-65 0 -119 16 -150 38c-16 10 -30 23 -40 38
c-22 28 -30 52 -32 76l143 28c4 -34 33 -54 71 -54c37 0 52 18 52 34s-15 26 -45 32l-54 11c-42 9 -76 22 -105 45c-30 23 -48 59 -48 103c0 47 20 87 59 120c40 32 89 49 145 49z" />
    <glyph glyph-name="t" unicode="t" horiz-adv-x="440" 
d="M397 143v-137c-26 -10 -57 -14 -94 -14c-58 0 -105 16 -140 49c-36 32 -53 79 -53 139v170h-94v147h98v161h173v-161h115v-147h-115v-152c0 -38 21 -58 64 -58c8 0 23 1 46 3z" />
    <glyph glyph-name="u" unicode="u" 
d="M53 497h177v-269c0 -22 6 -40 19 -54c12 -15 28 -23 49 -23c44 0 72 29 72 77v269h177v-497h-176v62h-1c-36 -49 -90 -72 -143 -72c-128 0 -174 110 -174 206v301z" />
    <glyph glyph-name="v" unicode="v" horiz-adv-x="590" 
d="M383 0h-176l-200 497h186l103 -287h1l102 287h184z" />
    <glyph glyph-name="w" unicode="w" horiz-adv-x="848" 
d="M335 0h-166l-158 497h176l77 -267h1l87 267h144l89 -269h1l83 269h169l-160 -497h-168l-86 266h-1z" />
    <glyph glyph-name="x" unicode="x" horiz-adv-x="586" 
d="M384 0l-92 134l-92 -134h-196l186 251l-183 246h198l90 -130l90 130h195l-184 -247l187 -250h-199z" />
    <glyph glyph-name="y" unicode="y" horiz-adv-x="599" 
d="M290 -245h-189l119 293l-217 449h194l114 -254h1l94 254h187z" />
    <glyph glyph-name="z" unicode="z" horiz-adv-x="522" 
d="M39 0v140l208 211h-200v146h433v-131l-218 -221h220v-145h-443z" />
    <glyph glyph-name="braceleft" unicode="{" horiz-adv-x="436" 
d="M267 211l-7 -69c-10 -95 -9 -136 84 -136h61v-126h-75c-84 0 -138 12 -178 46c-39 34 -53 91 -44 177l9 92c3 31 -2 52 -17 63c-16 11 -42 16 -79 17v140c37 0 63 5 79 16c15 10 20 31 17 63l-9 92c-9 86 5 143 44 176c40 33 94 45 178 45h75v-127h-61
c-93 1 -94 -38 -84 -133l7 -69c8 -74 -30 -118 -112 -132v-3c87 -13 119 -63 112 -132z" />
    <glyph glyph-name="bar" unicode="|" horiz-adv-x="297" 
d="M76 -108v938h145v-938h-145z" />
    <glyph glyph-name="braceright" unicode="}" horiz-adv-x="436" 
d="M176 142l-7 69c-7 69 25 119 112 132v3c-82 14 -120 58 -112 132l7 69c10 95 9 134 -84 133h-62v127h76c84 0 138 -12 178 -45c39 -33 53 -90 44 -176l-9 -92c-4 -32 2 -53 18 -63c15 -11 41 -16 78 -16v-140c-37 -1 -63 -6 -78 -17c-16 -11 -22 -32 -18 -63l9 -92
c9 -86 -5 -143 -44 -177c-40 -34 -94 -46 -178 -46h-76v126h62c93 0 94 41 84 136z" />
    <glyph glyph-name="asciitilde" unicode="~" horiz-adv-x="617" 
d="M408 189c-18 0 -38 3 -57 11c-20 8 -36 16 -51 25c-14 10 -28 18 -44 25c-15 8 -28 12 -39 12c-27 0 -53 -19 -77 -57l-105 87c44 77 95 125 172 125c20 0 40 -4 60 -12c21 -7 38 -16 53 -25c14 -9 28 -17 43 -25c14 -8 26 -12 35 -12c27 0 53 18 77 55l106 -85
c-29 -50 -55 -83 -100 -107c-22 -11 -46 -17 -73 -17z" />
    <glyph glyph-name="uni00A0" unicode="&#xa0;" horiz-adv-x="218" 
 />
    <glyph glyph-name="exclamdown" unicode="&#xa1;" horiz-adv-x="313" 
d="M257 407c0 -28 -10 -52 -29 -72c-20 -20 -44 -30 -72 -30s-52 10 -72 30s-30 44 -30 72s10 52 30 72s44 30 72 30s52 -10 72 -30c19 -20 29 -44 29 -72zM61 -125l15 374h161l15 -373v-108h-191v107z" />
    <glyph glyph-name="cent" unicode="&#xa2;" horiz-adv-x="590" 
d="M401 209l155 -49c-20 -65 -68 -117 -125 -143c-29 -13 -59 -21 -92 -24v-88h-67v89c-67 7 -124 34 -168 81c-44 46 -67 104 -67 174c0 66 27 129 69 173c43 43 102 74 166 83v88h67v-87c64 -7 123 -32 168 -81c23 -25 38 -54 46 -86l-155 -49c-11 31 -31 51 -61 58v-198
c29 7 50 27 64 59zM215 250c0 -45 21 -82 59 -96v190c-37 -14 -59 -51 -59 -94z" />
    <glyph glyph-name="sterling" unicode="&#xa3;" horiz-adv-x="662" 
d="M470 249l159 -10c0 -69 -21 -126 -63 -171c-41 -45 -96 -68 -162 -68h-356v139c29 13 55 32 77 58c23 25 35 53 35 82c0 9 -1 16 -2 23h-105v119h69c-10 33 -16 64 -16 91c0 44 12 84 34 119c23 35 53 63 91 82c38 18 79 28 124 28c82 0 149 -29 188 -72
c38 -44 58 -95 59 -150l-172 -27c-1 58 -30 93 -77 93c-21 0 -38 -6 -52 -20c-14 -15 -21 -33 -21 -55c0 -15 7 -45 22 -89h173v-119h-143v-8c0 -53 -27 -105 -72 -136h119c26 0 47 8 65 25c17 17 26 39 26 66z" />
    <glyph glyph-name="currency" unicode="&#xa4;" horiz-adv-x="623" 
d="M87 252c0 38 9 73 26 104l-77 79l94 94l80 -82c32 16 65 24 101 24c39 0 72 -8 101 -24l81 81l93 -93l-77 -79c18 -30 27 -65 27 -104c0 -37 -9 -72 -27 -106l78 -77l-93 -94l-81 81c-32 -16 -66 -23 -102 -23c-35 0 -69 7 -101 23l-81 -81l-93 95l78 78
c-18 30 -27 65 -27 104zM223 251c0 -25 8 -45 25 -61c16 -16 37 -24 62 -24c26 0 47 8 63 24c17 16 25 36 25 61c0 26 -8 47 -25 63c-16 16 -37 23 -63 23c-25 0 -46 -7 -62 -23c-17 -16 -25 -37 -25 -63z" />
    <glyph glyph-name="yen" unicode="&#xa5;" horiz-adv-x="736" 
d="M460 242h201v-106h-201v-136h-184v136h-199v106h199v57h-199v106h155l-203 324h211l130 -234l131 234h206l-203 -324h157v-106h-201v-57z" />
    <glyph glyph-name="brokenbar" unicode="&#xa6;" horiz-adv-x="295" 
d="M75 830h145v-364h-145v364zM75 255h145v-363h-145v363z" />
    <glyph glyph-name="section" unicode="&#xa7;" horiz-adv-x="620" 
d="M365 157c0 17 -17 29 -52 38l-92 21c-124 30 -186 76 -186 139c0 56 31 95 94 117c-33 28 -50 62 -50 101c0 36 11 67 33 92c23 26 51 45 86 58c35 12 74 18 116 18c106 0 186 -35 238 -106l-106 -85c-36 40 -82 60 -136 60c-21 1 -54 -9 -55 -36c0 -18 21 -31 52 -39
l95 -22c122 -28 183 -75 183 -139c0 -54 -31 -92 -94 -114c30 -24 49 -61 49 -100c0 -57 -29 -104 -74 -130c-45 -28 -101 -41 -160 -41c-107 0 -190 39 -240 108l106 85c36 -42 82 -62 138 -62c20 0 55 9 55 37zM385 311c27 0 52 11 52 37c0 18 -26 34 -57 41l-90 22
c-20 5 -39 8 -56 8c-28 0 -52 -11 -52 -37c0 -18 25 -33 57 -41l88 -22c21 -5 40 -8 58 -8z" />
    <glyph glyph-name="dieresis" unicode="&#xa8;" horiz-adv-x="469" 
d="M203 666c0 -26 -8 -48 -26 -66s-40 -26 -67 -26c-26 0 -48 8 -65 26c-18 18 -27 40 -27 66c0 27 9 49 27 67c17 17 39 26 65 26c27 0 49 -9 67 -26c18 -18 26 -40 26 -67zM445 666c0 -26 -8 -48 -26 -66s-40 -26 -67 -26s-48 8 -66 26c-17 18 -26 40 -26 66
c0 27 9 49 27 67c17 17 39 26 65 26c27 0 49 -9 67 -26c17 -18 26 -40 26 -67z" />
    <glyph glyph-name="copyright" unicode="&#xa9;" horiz-adv-x="823" 
d="M556 20c-91 -39 -198 -39 -289 0c-46 19 -86 45 -120 79c-33 33 -60 72 -80 119s-30 96 -30 147s10 100 30 146c20 47 47 87 80 120c34 34 74 60 120 80s94 30 144 30c51 0 100 -10 146 -30c46 -19 86 -46 120 -79c33 -33 60 -73 79 -119c20 -47 30 -95 30 -146
s-10 -100 -30 -146c-20 -47 -47 -87 -81 -120c-33 -34 -73 -61 -119 -81zM411 678c-84 0 -163 -35 -217 -91c-28 -27 -49 -61 -65 -99c-16 -39 -24 -79 -24 -121s8 -82 24 -121s38 -72 66 -100s60 -51 98 -67c38 -17 77 -25 118 -25c82 0 161 34 216 89s90 136 90 222
c0 57 -13 109 -40 157s-65 86 -112 114s-98 42 -154 42zM497 332l139 -42c-14 -49 -40 -87 -79 -114c-40 -27 -85 -41 -137 -41c-89 0 -166 41 -210 112c-22 36 -33 76 -33 120c0 43 12 83 34 118s52 62 89 82c37 19 77 28 120 28c50 0 96 -13 137 -40
c40 -28 66 -65 76 -113l-138 -42c-11 34 -40 55 -75 55c-24 0 -44 -9 -60 -26c-16 -18 -24 -39 -24 -63s8 -45 24 -62c16 -18 36 -26 60 -26c35 0 64 21 77 54z" />
    <glyph glyph-name="ordfeminine" unicode="&#xaa;" horiz-adv-x="512" 
d="M321 406h-2c-24 -35 -57 -52 -100 -52c-46 0 -84 17 -115 53c-32 35 -47 78 -47 128c-2 103 80 181 165 179c15 0 32 -4 51 -11c18 -8 34 -21 46 -39h2v43h122v-347h-122v46zM301 485c14 14 20 30 20 50c0 19 -6 35 -20 49c-13 14 -30 21 -49 21s-35 -7 -49 -21
c-13 -14 -20 -30 -20 -49c0 -20 7 -36 20 -50c14 -14 30 -21 49 -21s36 7 49 21zM61 280h382v-109h-382v109z" />
    <glyph glyph-name="guillemotleft" unicode="&#xab;" horiz-adv-x="647" 
d="M330 408l-131 -127l131 -129l-90 -86l-217 214l217 215zM605 408l-130 -127l130 -129l-89 -86l-217 214l217 215z" />
    <glyph glyph-name="logicalnot" unicode="&#xac;" horiz-adv-x="674" 
d="M614 215h-165v170h-410v145h575v-315z" />
    <glyph glyph-name="uni00AD" unicode="&#xad;" horiz-adv-x="416" 
d="M55 229v148h306v-148h-306z" />
    <glyph glyph-name="registered" unicode="&#xae;" horiz-adv-x="596" 
d="M520 615c22 -40 34 -83 34 -129s-12 -89 -34 -128c-23 -39 -54 -70 -93 -93c-40 -23 -82 -35 -129 -35c-46 0 -89 12 -128 35c-40 23 -70 54 -93 93s-34 82 -34 128s11 89 34 129c23 39 53 70 93 93c39 22 82 34 128 34c47 0 89 -12 129 -34c39 -23 70 -54 93 -93z
M438 344c39 40 58 87 58 143s-19 103 -58 143c-38 39 -85 59 -140 59s-102 -20 -141 -59c-38 -40 -58 -87 -58 -143s20 -103 58 -143c39 -39 86 -59 141 -59s102 20 140 59zM267 340h-74v293h121c66 0 109 -33 109 -94c0 -41 -18 -69 -54 -84l59 -115h-79l-52 103h-30v-103z
M267 505h41c27 0 41 10 41 31c0 20 -13 33 -41 33h-41v-64z" />
    <glyph glyph-name="degree" unicode="&#xb0;" horiz-adv-x="432" 
d="M215 367c-50 0 -93 18 -129 54s-54 79 -54 131c0 50 18 93 54 129s79 54 129 54c52 0 95 -18 131 -54s54 -79 54 -129c0 -52 -18 -95 -54 -131s-79 -54 -131 -54zM215 622c-20 0 -36 -7 -50 -20c-13 -14 -20 -31 -20 -50c0 -20 7 -37 21 -51c13 -14 30 -21 49 -21
c20 0 37 7 50 21c14 14 21 31 21 51c0 18 -7 35 -21 49c-15 14 -31 21 -50 21z" />
    <glyph glyph-name="plusminus" unicode="&#xb1;" horiz-adv-x="614" 
d="M57 503h173v146h154v-146h173v-148h-173v-147h-154v147h-173v148zM57 136h500v-150h-500v150z" />
    <glyph glyph-name="uni00B2" unicode="&#xb2;" horiz-adv-x="447" 
d="M397 396h-350v31c0 38 9 71 27 98c17 28 48 54 91 77l51 28c32 17 48 35 48 53c0 16 -14 32 -41 32c-18 0 -49 -8 -49 -68l-125 14c1 56 22 102 56 128c32 26 73 39 118 39c51 0 93 -13 124 -40c32 -27 48 -61 48 -102c0 -57 -35 -105 -104 -141l-47 -25
c-17 -9 -25 -14 -27 -15h180v-109z" />
    <glyph glyph-name="uni00B3" unicode="&#xb3;" horiz-adv-x="433" 
d="M212 500c27 0 48 13 48 39c0 21 -23 35 -46 35c-13 0 -26 -4 -41 -10l-49 76l89 65h-168v114h342v-100l-91 -67c27 -9 49 -24 68 -46c19 -21 28 -46 28 -72c0 -31 -9 -58 -26 -80c-17 -24 -39 -40 -65 -51s-55 -16 -85 -16c-45 0 -84 11 -117 34c-33 24 -54 56 -63 99
l114 35c7 -31 31 -55 62 -55z" />
    <glyph glyph-name="acute" unicode="&#xb4;" horiz-adv-x="318" 
d="M16 580l104 182h188l-158 -182h-134z" />
    <glyph glyph-name="uni00B5" unicode="&#xb5;" horiz-adv-x="630" 
d="M386 61h-2c-11 -20 -25 -36 -42 -49c-18 -13 -35 -19 -52 -19c-22 0 -39 7 -52 22v-168h-170v650h177v-264c0 -22 5 -42 18 -58c12 -15 28 -24 50 -24c47 0 72 34 72 82v264h177v-497h-176v61z" />
    <glyph glyph-name="paragraph" unicode="&#xb6;" horiz-adv-x="547" 
d="M286 322h-33c-120 -2 -227 93 -224 204c-3 111 104 206 224 203h211v-729h-178v322z" />
    <glyph glyph-name="middot" unicode="&#xb7;" horiz-adv-x="301" 
d="M150 186c-29 0 -55 11 -76 32c-22 22 -33 47 -33 76c0 31 11 56 33 78c21 21 46 32 76 32c31 0 56 -11 78 -32c21 -22 31 -47 31 -78c0 -29 -10 -55 -32 -76c-21 -21 -47 -32 -77 -32z" />
    <glyph glyph-name="uni00B9" unicode="&#xb9;" horiz-adv-x="375" 
d="M315 819v-423h-148v273l-102 -57l-58 102l184 105h124z" />
    <glyph glyph-name="ordmasculine" unicode="&#xba;" horiz-adv-x="491" 
d="M55 534c0 51 20 94 57 128c38 34 83 52 134 52c52 0 96 -17 134 -51c36 -33 55 -76 55 -127s-19 -95 -56 -130c-38 -35 -83 -52 -135 -52s-97 17 -134 51c-36 34 -55 77 -55 129zM198 584c-13 -14 -19 -30 -19 -49c0 -20 6 -36 19 -50s29 -20 47 -20c19 0 35 6 48 20
c12 15 19 31 19 50c0 18 -7 35 -19 49c-13 13 -29 20 -48 20s-35 -7 -47 -20zM61 280h369v-109h-369v109z" />
    <glyph glyph-name="guillemotright" unicode="&#xbb;" horiz-adv-x="647" 
d="M173 280l-131 128l90 87l217 -215l-217 -214l-90 86zM448 280l-130 128l89 87l217 -215l-217 -214l-89 86z" />
    <glyph glyph-name="onequarter" unicode="&#xbc;" horiz-adv-x="1024" 
d="M83 522l-58 103l185 104h123v-422h-148v273zM811 729l-477 -729h-158l478 729h157zM783 67h-225v137l191 218h175v-247h61v-108h-61v-67h-141v67zM783 299l-106 -124h106v124z" />
    <glyph glyph-name="onehalf" unicode="&#xbd;" horiz-adv-x="1005" 
d="M83 522l-58 103l185 104h123v-422h-148v273zM810 729l-477 -729h-158l479 729h156zM610 0v31c0 38 9 70 27 98s48 54 91 77l52 28c32 17 48 35 48 53c0 15 -15 32 -42 32c-17 0 -48 -8 -49 -68l-124 14c0 56 22 101 55 127c32 26 73 40 118 40c51 0 93 -14 125 -41
c31 -26 47 -61 47 -101c0 -58 -34 -105 -104 -141l-47 -25c-17 -9 -25 -14 -26 -15h179v-109h-350z" />
    <glyph glyph-name="threequarters" unicode="&#xbe;" horiz-adv-x="1040" 
d="M209 410c27 0 48 13 48 39c0 22 -23 36 -46 36c-12 0 -26 -4 -41 -10l-50 75l90 66h-167v113h342v-99l-91 -68c26 -8 48 -23 67 -45s28 -46 28 -72c0 -47 -22 -87 -55 -110c-34 -25 -76 -38 -121 -38s-84 12 -117 35s-54 56 -62 99l113 35c7 -31 31 -56 62 -56zM835 729
l-478 -729h-157l478 729h157zM806 67h-225v137l191 218h175v-247h61v-108h-61v-67h-141v67zM806 299l-106 -124h106v124z" />
    <glyph glyph-name="questiondown" unicode="&#xbf;" horiz-adv-x="554" 
d="M382 407c0 -28 -10 -52 -29 -72c-20 -20 -44 -30 -72 -30s-52 10 -71 30c-20 20 -30 44 -30 72s10 52 30 72c19 20 43 30 71 30s52 -10 72 -30c19 -20 29 -44 29 -72zM198 254h163c3 -14 4 -25 4 -33c0 -40 -24 -80 -54 -110c-15 -15 -29 -30 -44 -44
c-30 -29 -54 -62 -54 -92c0 -18 7 -32 20 -44c13 -11 29 -17 47 -17c26 0 47 10 60 28c14 19 20 43 20 72l168 -20v-12c0 -46 -12 -86 -36 -121c-23 -35 -54 -61 -92 -79c-38 -17 -80 -26 -125 -26c-64 0 -124 19 -169 54c-46 35 -74 90 -74 156c0 24 6 49 12 67
s22 41 32 54c4 7 12 15 22 25l22 23c5 5 14 13 26 24c16 14 27 27 35 40c7 12 13 27 16 46z" />
    <glyph glyph-name="Agrave" unicode="&#xc0;" horiz-adv-x="752" 
d="M346 976l104 -183h-134l-158 183h188zM273 729h207l280 -729h-195l-50 134h-281l-49 -134h-192zM462 290l-88 232l-87 -232h175z" />
    <glyph glyph-name="Aacute" unicode="&#xc1;" horiz-adv-x="752" 
d="M308 793l103 183h189l-159 -183h-133zM273 729h207l280 -729h-195l-50 134h-281l-49 -134h-192zM462 290l-88 232l-87 -232h175z" />
    <glyph glyph-name="Acircumflex" unicode="&#xc2;" horiz-adv-x="752" 
d="M295 970h164l116 -175h-141l-57 94l-57 -94h-143zM273 729h207l280 -729h-195l-50 134h-281l-49 -134h-192zM462 290l-88 232l-87 -232h175z" />
    <glyph glyph-name="Atilde" unicode="&#xc3;" horiz-adv-x="752" 
d="M273 729h207l280 -729h-195l-50 134h-281l-49 -134h-192zM455 795c-23 0 -51 8 -82 25c-15 8 -26 14 -33 17c-11 5 -21 8 -31 8c-19 0 -29 -16 -31 -49h-93l-1 26c0 42 9 75 27 100c19 25 48 38 87 38c23 0 50 -8 80 -25c14 -7 25 -13 33 -16c12 -5 22 -8 30 -8
c18 0 29 10 34 31l2 16h90l1 -28c1 -40 -8 -73 -26 -98c-19 -25 -48 -37 -87 -37zM462 290l-88 232l-87 -232h175z" />
    <glyph glyph-name="Adieresis" unicode="&#xc4;" horiz-adv-x="752" 
d="M343 898c0 -27 -8 -48 -26 -66s-40 -27 -67 -27c-26 0 -48 9 -65 27c-18 18 -27 39 -27 66s9 49 27 67c17 17 39 26 65 26c27 0 49 -9 67 -26c18 -18 26 -40 26 -67zM594 898c0 -27 -9 -48 -26 -66c-18 -18 -40 -27 -67 -27c-26 0 -48 9 -66 27c-17 18 -26 39 -26 66
s9 49 26 67c18 17 40 26 66 26c27 0 49 -9 67 -26c17 -18 26 -40 26 -67zM273 729h207l280 -729h-195l-50 134h-281l-49 -134h-192zM462 290l-88 232l-87 -232h175z" />
    <glyph glyph-name="Aring" unicode="&#xc5;" horiz-adv-x="752" 
d="M185 0h-192l264 688c-19 25 -29 52 -29 83c0 39 15 72 44 99c28 27 63 41 103 41s75 -14 103 -41c29 -27 43 -60 43 -99c0 -30 -9 -57 -26 -81l265 -690h-195l-50 134h-281zM413 809c-11 10 -23 15 -38 15s-28 -5 -38 -15c-11 -11 -16 -24 -16 -39s5 -27 16 -37
c10 -11 23 -16 38 -16s27 5 38 16c10 10 15 22 15 37s-5 28 -15 39zM374 522l-87 -232h175z" />
    <glyph glyph-name="AE" unicode="&#xc6;" horiz-adv-x="1000" 
d="M948 566h-323v-119h293v-157h-293v-126h325v-164h-503v115h-213l-52 -115h-193l342 729h617v-163zM438 569l-133 -298h142v298h-9z" />
    <glyph glyph-name="Ccedilla" unicode="&#xc7;" horiz-adv-x="785" 
d="M486 -94c0 -52 -16 -90 -47 -114c-32 -23 -75 -35 -129 -35c-27 0 -50 3 -68 8v98c18 -3 34 -4 49 -4c53 0 80 33 80 88c0 16 -3 31 -8 45c-62 7 -118 28 -168 62s-89 78 -117 132c-29 54 -43 114 -43 179c0 51 9 100 28 145c19 46 45 86 78 120c34 35 74 61 121 81
c48 20 99 30 153 30c85 0 160 -25 210 -61c25 -17 47 -38 67 -61c39 -47 58 -89 69 -132l-171 -53c-6 27 -28 70 -68 101c-26 19 -66 34 -109 34c-55 0 -100 -20 -136 -59c-36 -40 -54 -87 -54 -144c0 -56 17 -104 53 -143c35 -40 81 -60 137 -60c53 0 99 20 127 48
c29 29 45 58 53 87l173 -54c-9 -35 -25 -74 -59 -117c-17 -21 -36 -41 -57 -59c-44 -36 -109 -66 -181 -75c11 -27 17 -56 17 -87z" />
    <glyph glyph-name="Egrave" unicode="&#xc8;" horiz-adv-x="638" 
d="M329 976l103 -183h-133l-159 183h189zM258 447h298v-157h-298v-126h330v-164h-513v729h510v-163h-327v-119z" />
    <glyph glyph-name="Eacute" unicode="&#xc9;" horiz-adv-x="638" 
d="M231 793l104 183h188l-158 -183h-134zM258 447h298v-157h-298v-126h330v-164h-513v729h510v-163h-327v-119z" />
    <glyph glyph-name="Ecircumflex" unicode="&#xca;" horiz-adv-x="638" 
d="M250 970h164l116 -175h-141l-57 94l-57 -94h-142zM258 447h298v-157h-298v-126h330v-164h-513v729h510v-163h-327v-119z" />
    <glyph glyph-name="Edieresis" unicode="&#xcb;" horiz-adv-x="637" 
d="M296 898c0 -27 -9 -48 -26 -66c-18 -18 -40 -27 -67 -27s-48 9 -66 27c-17 18 -26 39 -26 66s9 49 26 67c18 17 40 26 66 26c27 0 49 -9 67 -26c17 -18 26 -40 26 -67zM547 898c0 -27 -9 -48 -27 -66c-17 -18 -39 -27 -66 -27s-49 9 -66 27c-18 18 -26 39 -26 66
s8 49 26 67c18 17 40 26 66 26s49 -9 66 -26c18 -18 27 -40 27 -67zM257 447h298v-157h-298v-126h330v-164h-512v729h510v-163h-328v-119z" />
    <glyph glyph-name="Igrave" unicode="&#xcc;" horiz-adv-x="335" 
d="M132 976l104 -183h-133l-159 183h188zM75 729h185v-729h-185v729z" />
    <glyph glyph-name="Iacute" unicode="&#xcd;" horiz-adv-x="335" 
d="M99 794l103 183h188l-158 -183h-133zM75 729h185v-729h-185v729z" />
    <glyph glyph-name="Icircumflex" unicode="&#xce;" horiz-adv-x="335" 
d="M85 970h164l117 -175h-141l-58 94l-56 -94h-143zM75 729h185v-729h-185v729z" />
    <glyph glyph-name="Idieresis" unicode="&#xcf;" horiz-adv-x="335" 
d="M141 898c0 -27 -8 -48 -26 -66s-40 -27 -66 -27c-27 0 -49 9 -67 27c-17 18 -26 39 -26 66s9 49 27 67c17 17 39 26 66 26c26 0 48 -9 66 -26c18 -18 26 -40 26 -67zM380 898c0 -27 -9 -48 -27 -66s-39 -27 -66 -27s-49 9 -66 27c-18 18 -26 39 -26 66s8 49 26 67
c18 17 39 26 66 26c26 0 48 -9 66 -26c18 -18 27 -40 27 -67zM75 729h185v-729h-185v729z" />
    <glyph glyph-name="Eth" unicode="&#xd0;" horiz-adv-x="791" 
d="M105 729h242c117 0 218 -32 291 -91c73 -60 117 -155 117 -271c0 -99 -33 -183 -85 -239c-25 -28 -56 -52 -91 -72c-71 -39 -150 -56 -235 -56h-239v290h-85v155h85v284zM287 169h64c65 0 117 17 156 52c40 35 59 84 59 145c0 59 -19 106 -58 141c-39 36 -91 53 -156 53
h-65v-115h132v-155h-132v-121z" />
    <glyph glyph-name="Ntilde" unicode="&#xd1;" horiz-adv-x="805" 
d="M75 729h207l265 -426h1v426h182v-729h-202l-268 432h-1v-432h-184v729zM482 795c-23 0 -51 8 -82 25c-15 8 -26 14 -33 17c-11 5 -22 8 -31 8c-19 0 -30 -16 -31 -49h-94v26c-1 42 9 75 27 100c19 25 48 38 87 38c23 0 50 -8 80 -25c14 -7 25 -13 33 -16
c12 -5 22 -8 30 -8c18 0 29 10 33 31l3 16h90l1 -28c1 -40 -8 -73 -26 -98c-19 -25 -48 -37 -87 -37z" />
    <glyph glyph-name="Ograve" unicode="&#xd2;" horiz-adv-x="831" 
d="M381 976l104 -183h-134l-158 183h188zM35 365c0 69 17 132 51 190s81 104 140 137s122 49 191 49s133 -16 191 -49c58 -32 104 -77 138 -135c34 -57 50 -121 50 -190c0 -52 -10 -101 -30 -148s-47 -87 -81 -120c-34 -34 -75 -61 -121 -80c-47 -20 -97 -30 -149 -30
c-69 0 -133 16 -191 50c-58 32 -104 77 -138 135s-51 121 -51 191zM222 366c0 -55 19 -103 56 -144c37 -40 83 -61 138 -61c54 0 100 21 138 61c36 41 55 89 55 144c3 106 -85 206 -193 204c-36 0 -69 -10 -99 -29s-53 -44 -70 -75s-25 -64 -25 -100z" />
    <glyph glyph-name="Oacute" unicode="&#xd3;" horiz-adv-x="831" 
d="M347 793l104 183h188l-159 -183h-133zM35 365c0 69 17 132 51 190s81 104 140 137s122 49 191 49s133 -16 191 -49c58 -32 104 -77 138 -135c34 -57 50 -121 50 -190c0 -52 -10 -101 -30 -148s-47 -87 -81 -120c-34 -34 -75 -61 -121 -80c-47 -20 -97 -30 -149 -30
c-69 0 -133 16 -191 50c-58 32 -104 77 -138 135s-51 121 -51 191zM222 366c0 -55 19 -103 56 -144c37 -40 83 -61 138 -61c54 0 100 21 138 61c36 41 55 89 55 144c3 106 -85 206 -193 204c-36 0 -69 -10 -99 -29s-53 -44 -70 -75s-25 -64 -25 -100z" />
    <glyph glyph-name="Ocircumflex" unicode="&#xd4;" horiz-adv-x="831" 
d="M334 970h164l117 -175h-142l-57 94l-56 -94h-143zM35 365c0 69 17 132 51 190s81 104 140 137s122 49 191 49s133 -16 191 -49c58 -32 104 -77 138 -135c34 -57 50 -121 50 -190c0 -52 -10 -101 -30 -148s-47 -87 -81 -120c-34 -34 -75 -61 -121 -80
c-47 -20 -97 -30 -149 -30c-69 0 -133 16 -191 50c-58 32 -104 77 -138 135s-51 121 -51 191zM222 366c0 -55 19 -103 56 -144c37 -40 83 -61 138 -61c54 0 100 21 138 61c36 41 55 89 55 144c3 106 -85 206 -193 204c-36 0 -69 -10 -99 -29s-53 -44 -70 -75
s-25 -64 -25 -100z" />
    <glyph glyph-name="Otilde" unicode="&#xd5;" horiz-adv-x="831" 
d="M35 365c0 69 17 132 51 190s81 104 140 137s122 49 191 49s133 -16 191 -49c58 -32 104 -77 138 -135c34 -57 50 -121 50 -190c0 -52 -10 -101 -30 -148s-47 -87 -81 -120c-34 -34 -75 -61 -121 -80c-47 -20 -97 -30 -149 -30c-69 0 -133 16 -191 50
c-58 32 -104 77 -138 135s-51 121 -51 191zM222 366c0 -55 19 -103 56 -144c37 -40 83 -61 138 -61c54 0 100 21 138 61c36 41 55 89 55 144c3 106 -85 206 -193 204c-36 0 -69 -10 -99 -29s-53 -44 -70 -75s-25 -64 -25 -100zM495 795c-23 0 -51 8 -82 25
c-15 8 -26 14 -33 17c-11 5 -21 8 -31 8c-19 0 -29 -16 -31 -49h-93l-1 26c0 42 9 75 27 100c19 25 48 38 87 38c23 0 50 -8 80 -25c14 -7 25 -13 33 -16c12 -5 22 -8 30 -8c18 0 29 10 34 31l2 16h90l1 -28c1 -40 -8 -73 -26 -98c-19 -25 -48 -37 -87 -37z" />
    <glyph glyph-name="Odieresis" unicode="&#xd6;" horiz-adv-x="830" 
d="M381 898c0 -27 -8 -48 -26 -66s-40 -27 -66 -27c-27 0 -49 9 -66 27c-18 18 -27 39 -27 66s9 49 27 67c17 17 39 26 66 26c26 0 48 -9 66 -26c18 -18 26 -40 26 -67zM632 898c0 -27 -8 -48 -26 -66s-40 -27 -66 -27c-27 0 -49 9 -66 27c-18 18 -27 39 -27 66s9 49 27 67
c17 17 39 26 66 26c26 0 48 -9 66 -26c18 -18 26 -40 26 -67zM34 365c0 69 17 132 52 190c34 58 81 104 139 137c59 33 123 49 192 49s133 -16 191 -49c57 -32 103 -77 137 -135c34 -57 51 -121 51 -190c0 -52 -10 -101 -30 -148c-21 -47 -47 -87 -81 -120
c-35 -34 -75 -61 -122 -80c-47 -20 -96 -30 -148 -30c-70 0 -133 16 -191 50c-59 32 -104 77 -139 135c-34 58 -51 121 -51 191zM222 366c0 -55 18 -103 56 -144c37 -40 83 -61 137 -61c55 0 101 21 138 61c37 41 56 89 56 144c2 106 -85 206 -194 204
c-35 0 -69 -10 -99 -29s-53 -44 -69 -75c-17 -31 -25 -64 -25 -100z" />
    <glyph glyph-name="multiply" unicode="&#xd7;" horiz-adv-x="589" 
d="M36 444l95 96l163 -164l164 164l95 -96l-163 -163l163 -163l-95 -96l-164 163l-163 -163l-95 96l163 163z" />
    <glyph glyph-name="Oslash" unicode="&#xd8;" horiz-adv-x="832" 
d="M796 688l-81 -86c55 -68 82 -146 82 -235c0 -52 -10 -101 -30 -148s-47 -87 -81 -120c-34 -34 -75 -61 -122 -80c-47 -20 -96 -30 -148 -30c-80 0 -151 21 -215 65l-80 -85l-86 78l80 85c-53 68 -80 145 -80 233c0 69 17 132 52 190c34 58 81 104 139 137
c59 33 123 49 192 49c77 0 147 -20 211 -61l82 87zM417 572c-37 0 -70 -9 -100 -28c-31 -19 -54 -44 -71 -76c-16 -31 -25 -65 -25 -101c0 -35 8 -67 23 -98l264 281c-28 15 -58 22 -91 22zM417 160c36 0 69 10 100 29c30 19 53 45 70 76c17 32 25 66 25 102
c0 35 -8 69 -24 100l-266 -282c28 -17 60 -25 95 -25z" />
    <glyph glyph-name="Ugrave" unicode="&#xd9;" horiz-adv-x="745" 
d="M342 976l103 -183h-133l-158 183h188zM491 287v442h186v-439c0 -95 -26 -168 -77 -221s-128 -79 -229 -79c-104 0 -184 30 -232 84s-71 125 -71 214v441h186v-438c0 -39 10 -70 30 -94s49 -36 89 -36c43 0 77 15 94 40s24 53 24 86z" />
    <glyph glyph-name="Uacute" unicode="&#xda;" horiz-adv-x="745" 
d="M304 793l103 183h188l-158 -183h-133zM677 729v-439c0 -95 -26 -168 -77 -221s-128 -79 -229 -79c-104 0 -184 30 -232 84s-71 125 -71 214v441h186v-438c0 -39 10 -70 30 -94s49 -36 89 -36c43 0 77 15 94 40s24 53 24 86v442h186z" />
    <glyph glyph-name="Ucircumflex" unicode="&#xdb;" horiz-adv-x="745" 
d="M290 970h164l117 -175h-141l-58 94l-56 -94h-142zM491 287v442h186v-439c0 -95 -26 -168 -77 -221s-128 -79 -229 -79c-104 0 -184 30 -232 84s-71 125 -71 214v441h186v-438c0 -39 10 -70 30 -94s49 -36 89 -36c43 0 77 15 94 40s24 53 24 86z" />
    <glyph glyph-name="Udieresis" unicode="&#xdc;" horiz-adv-x="744" 
d="M339 898c0 -27 -9 -48 -26 -66c-18 -18 -40 -27 -67 -27c-26 0 -48 9 -66 27c-17 18 -26 39 -26 66s9 49 26 67c18 17 40 26 66 26c27 0 49 -9 67 -26c17 -18 26 -40 26 -67zM590 898c0 -27 -9 -48 -26 -66c-18 -18 -40 -27 -67 -27s-48 9 -66 27c-17 18 -26 39 -26 66
s9 49 26 67c18 17 40 26 66 26c27 0 49 -9 67 -26c17 -18 26 -40 26 -67zM676 729v-439c0 -95 -26 -168 -77 -221s-128 -79 -229 -79c-104 0 -184 30 -231 84c-48 54 -71 125 -71 214v441h185v-438c0 -39 10 -70 30 -94s49 -36 89 -36c44 0 77 15 94 40s24 53 24 86v442h186
z" />
    <glyph glyph-name="Yacute" unicode="&#xdd;" horiz-adv-x="715" 
d="M289 793l104 183h188l-159 -183h-133zM213 729l146 -261l148 261h203l-260 -448v-281h-185v281l-260 448h208z" />
    <glyph glyph-name="Thorn" unicode="&#xde;" horiz-adv-x="655" 
d="M258 609h102c79 0 145 -20 195 -58c49 -38 78 -100 78 -179c0 -80 -31 -145 -83 -183c-53 -38 -121 -58 -201 -58h-91v-131h-183v729h183v-120zM258 288h88c67 0 103 27 103 77c0 52 -32 83 -104 83h-87v-160z" />
    <glyph glyph-name="germandbls" unicode="&#xdf;" horiz-adv-x="670" 
d="M507 403l-14 -9c-20 -12 -26 -20 -26 -34c0 -15 10 -24 34 -33l26 -9c73 -28 115 -83 115 -158c0 -115 -113 -172 -202 -171c-42 0 -81 11 -115 33c-35 22 -59 63 -61 116l126 21c0 -29 20 -42 45 -42c11 0 21 4 29 12s12 16 12 24c0 22 -15 33 -52 48l-25 10
c-74 29 -111 74 -111 136c0 44 15 74 34 95c13 16 22 22 36 32l15 10c29 21 40 36 40 63c0 21 -8 36 -25 46s-37 15 -59 15c-29 0 -52 -11 -70 -33s-27 -50 -27 -85v-490h-174v500c0 54 12 100 37 140c24 40 56 70 96 90c41 20 87 30 139 30c120 0 259 -65 259 -201
c0 -78 -29 -123 -82 -156z" />
    <glyph glyph-name="agrave" unicode="&#xe0;" horiz-adv-x="558" 
d="M235 762l104 -182h-134l-159 182h189zM264 373c-37 0 -67 -22 -74 -54l-148 32c9 54 43 98 86 122c44 23 92 36 142 36c89 0 160 -29 203 -91c21 -32 32 -70 32 -114v-224c0 -30 1 -57 4 -80h-169c-3 15 -4 35 -4 58l-2 1c-39 -46 -89 -69 -150 -69c-43 0 -78 15 -108 43
c-29 27 -44 62 -44 104c0 72 47 114 108 136c41 15 83 21 128 21h26c22 0 36 11 36 30c0 27 -24 49 -66 49zM254 113c44 0 76 27 76 71v15h-62c-15 0 -29 -4 -41 -11c-12 -8 -18 -18 -18 -33c0 -23 21 -42 45 -42z" />
    <glyph glyph-name="aacute" unicode="&#xe1;" horiz-adv-x="558" 
d="M201 580l104 182h188l-158 -182h-134zM264 373c-37 0 -67 -22 -74 -54l-148 32c9 54 43 98 86 122c44 23 92 36 142 36c89 0 160 -29 203 -91c21 -32 32 -70 32 -114v-224c0 -30 1 -57 4 -80h-169c-3 15 -4 35 -4 58l-2 1c-39 -46 -89 -69 -150 -69c-43 0 -78 15 -108 43
c-29 27 -44 62 -44 104c0 72 47 114 108 136c41 15 83 21 128 21h26c22 0 36 11 36 30c0 27 -24 49 -66 49zM254 113c44 0 76 27 76 71v15h-62c-15 0 -29 -4 -41 -11c-12 -8 -18 -18 -18 -33c0 -23 21 -42 45 -42z" />
    <glyph glyph-name="acircumflex" unicode="&#xe2;" horiz-adv-x="558" 
d="M191 757h164l116 -176h-141l-57 94l-57 -94h-143zM264 373c-37 0 -67 -22 -74 -54l-148 32c9 54 43 98 86 122c44 23 92 36 142 36c89 0 160 -29 203 -91c21 -32 32 -70 32 -114v-224c0 -30 1 -57 4 -80h-169c-3 15 -4 35 -4 58l-2 1c-39 -46 -89 -69 -150 -69
c-43 0 -78 15 -108 43c-29 27 -44 62 -44 104c0 72 47 114 108 136c41 15 83 21 128 21h26c22 0 36 11 36 30c0 27 -24 49 -66 49zM254 113c44 0 76 27 76 71v15h-62c-15 0 -29 -4 -41 -11c-12 -8 -18 -18 -18 -33c0 -23 21 -42 45 -42z" />
    <glyph glyph-name="atilde" unicode="&#xe3;" horiz-adv-x="558" 
d="M264 373c-37 0 -67 -22 -74 -54l-148 32c9 54 43 98 86 122c44 23 92 36 142 36c89 0 160 -29 203 -91c21 -32 32 -70 32 -114v-224c0 -30 1 -57 4 -80h-169c-3 15 -4 35 -4 58l-2 1c-39 -46 -89 -69 -150 -69c-43 0 -78 15 -108 43c-29 27 -44 62 -44 104
c0 72 47 114 108 136c41 15 83 21 128 21h26c22 0 36 11 36 30c0 27 -24 49 -66 49zM350 581c-24 0 -51 9 -83 25c-13 8 -24 14 -32 17c-12 6 -22 8 -31 8c-19 0 -30 -16 -31 -49h-94v27c-1 41 8 75 27 100s48 37 87 37c23 0 49 -8 80 -24c13 -8 24 -13 32 -17
c12 -5 22 -8 31 -8c18 0 29 11 33 31l2 16h90l1 -27c2 -41 -7 -74 -26 -99c-18 -25 -47 -37 -86 -37zM254 113c44 0 76 27 76 71v15h-62c-15 0 -29 -4 -41 -11c-12 -8 -18 -18 -18 -33c0 -23 21 -42 45 -42z" />
    <glyph glyph-name="adieresis" unicode="&#xe4;" horiz-adv-x="558" 
d="M243 666c0 -26 -9 -48 -27 -66c-17 -18 -39 -26 -66 -26s-49 8 -66 26c-18 18 -26 40 -26 66c0 27 8 49 26 67c18 17 40 26 66 26s49 -9 66 -26c18 -18 27 -40 27 -67zM485 666c0 -26 -9 -48 -26 -66c-18 -18 -40 -26 -67 -26s-49 8 -66 26s-26 40 -26 66
c0 27 9 49 26 67c18 17 39 26 66 26c26 0 48 -9 66 -26c18 -18 27 -40 27 -67zM264 373c-37 0 -67 -22 -74 -54l-148 32c9 54 43 98 86 122c44 23 92 36 142 36c89 0 160 -29 203 -91c21 -32 32 -70 32 -114v-224c0 -30 1 -57 4 -80h-169c-3 15 -4 35 -4 58l-2 1
c-39 -46 -89 -69 -150 -69c-43 0 -78 15 -108 43c-29 27 -44 62 -44 104c0 72 47 114 108 136c41 15 83 21 128 21h26c22 0 36 11 36 30c0 27 -24 49 -66 49zM254 113c44 0 76 27 76 71v15h-62c-15 0 -29 -4 -41 -11c-12 -8 -18 -18 -18 -33c0 -23 21 -42 45 -42z" />
    <glyph glyph-name="aring" unicode="&#xe5;" horiz-adv-x="558" 
d="M505 304v-224c0 -30 1 -57 4 -80h-168c-3 15 -5 35 -5 58l-1 1c-40 -46 -90 -69 -151 -69c-42 0 -78 15 -107 43c-30 27 -44 62 -44 104c0 72 47 114 107 136c42 15 83 21 128 21h27c22 0 35 11 35 30c0 27 -24 49 -66 49c-37 0 -67 -22 -74 -54l-148 32
c11 59 47 104 107 132c-13 21 -20 44 -20 70c0 39 15 72 44 99c28 27 63 41 102 41c41 0 76 -14 105 -41c28 -27 43 -60 43 -99c0 -27 -8 -51 -22 -73c65 -32 104 -93 104 -176zM314 591c-11 10 -24 15 -39 15s-27 -5 -37 -15c-11 -11 -16 -23 -16 -38s5 -28 16 -38
c10 -10 22 -16 37 -16s28 6 39 16c10 10 15 23 15 38s-5 27 -15 38zM330 199h-61c-16 0 -29 -4 -41 -11c-13 -8 -18 -18 -18 -33c0 -23 20 -42 45 -42c44 0 75 27 75 71v15z" />
    <glyph glyph-name="ae" unicode="&#xe6;" horiz-adv-x="880" 
d="M846 204h-344c3 -22 13 -41 32 -55c18 -15 41 -22 69 -22c6 0 8 -1 23 3c8 1 15 4 21 7c13 7 32 21 43 40l145 -51c-41 -91 -121 -137 -241 -137c-82 0 -151 33 -197 89c-51 -59 -118 -89 -200 -89h-6c-44 0 -81 14 -112 42c-31 29 -47 64 -47 106c0 72 47 114 108 136
c41 15 83 21 128 21h26c22 0 36 11 36 30c0 27 -24 49 -66 49c-37 0 -67 -22 -74 -54l-148 32c9 54 43 98 86 122c44 23 92 36 142 36c70 0 125 -18 168 -53c45 35 97 52 157 52c47 0 90 -11 129 -33c38 -21 69 -51 91 -90c23 -39 34 -82 34 -129c0 -22 -1 -41 -2 -47z
M592 373c-22 0 -41 -7 -57 -21s-27 -31 -31 -50h173c-7 45 -40 71 -85 71zM254 113c44 0 76 27 76 71v15h-62c-15 0 -29 -4 -41 -11c-12 -8 -18 -18 -18 -33c0 -23 21 -42 45 -42z" />
    <glyph glyph-name="ccedilla" unicode="&#xe7;" horiz-adv-x="571" 
d="M379 -94c0 -52 -16 -90 -47 -114c-32 -23 -75 -35 -129 -35c-27 0 -50 3 -68 8v98c18 -3 34 -4 49 -4c53 0 80 33 80 88c0 16 -3 31 -8 46c-66 10 -119 38 -161 85c-43 46 -64 103 -64 171c0 73 33 141 82 186c50 45 120 74 192 74c75 0 143 -26 192 -79
c24 -27 41 -59 49 -95l-156 -47c-13 38 -46 61 -86 61c-27 0 -49 -9 -67 -29c-18 -19 -27 -42 -27 -70s9 -52 26 -71c17 -20 40 -29 69 -29c38 0 72 24 87 61l157 -47c-13 -46 -36 -83 -69 -112c-34 -30 -73 -49 -119 -57c12 -27 18 -57 18 -89z" />
    <glyph glyph-name="egrave" unicode="&#xe8;" horiz-adv-x="581" 
d="M260 762l104 -182h-134l-159 182h189zM548 204h-345c5 -24 17 -43 36 -56c18 -14 40 -21 65 -21c37 0 66 17 87 50l146 -51c-42 -93 -129 -137 -237 -137c-48 0 -93 11 -135 34c-41 22 -74 53 -98 93s-36 84 -36 134c0 47 12 91 36 131c24 39 57 71 97 94
c41 22 85 33 132 33c71 0 136 -27 181 -72c45 -44 73 -109 73 -180c0 -20 -1 -37 -2 -52zM293 373c-20 0 -39 -7 -56 -20c-17 -14 -27 -31 -32 -51h173c-7 44 -40 71 -85 71z" />
    <glyph glyph-name="eacute" unicode="&#xe9;" horiz-adv-x="580" 
d="M217 580l104 182h189l-159 -182h-134zM548 204h-345c5 -24 17 -43 35 -56c19 -14 41 -21 66 -21c37 0 66 17 87 50l145 -51c-42 -93 -128 -137 -236 -137c-48 0 -93 11 -135 34c-41 22 -74 53 -98 93s-36 84 -36 134c0 47 12 91 36 131c24 39 57 71 97 94
c41 22 85 33 132 33c71 0 136 -27 181 -72c45 -44 73 -109 73 -180c0 -20 -1 -37 -2 -52zM293 373c-21 0 -39 -7 -56 -20c-17 -14 -27 -31 -32 -51h173c-7 44 -40 71 -85 71z" />
    <glyph glyph-name="ecircumflex" unicode="&#xea;" horiz-adv-x="580" 
d="M216 757h164l117 -176h-141l-57 94l-57 -94h-142zM548 204h-345c5 -24 17 -43 35 -56c19 -14 41 -21 66 -21c37 0 66 17 87 50l145 -51c-42 -93 -128 -137 -236 -137c-48 0 -93 11 -135 34c-41 22 -74 53 -98 93s-36 84 -36 134c0 47 12 91 36 131c24 39 57 71 97 94
c41 22 85 33 132 33c71 0 136 -27 181 -72c45 -44 73 -109 73 -180c0 -20 -1 -37 -2 -52zM293 373c-21 0 -39 -7 -56 -20c-17 -14 -27 -31 -32 -51h173c-7 44 -40 71 -85 71z" />
    <glyph glyph-name="edieresis" unicode="&#xeb;" horiz-adv-x="581" 
d="M268 666c0 -26 -9 -48 -27 -66c-17 -18 -39 -26 -66 -26s-49 8 -66 26c-18 18 -26 40 -26 66c0 27 8 49 26 67c18 17 40 26 66 26s49 -9 66 -26c18 -18 27 -40 27 -67zM510 666c0 -26 -9 -48 -26 -66c-18 -18 -40 -26 -67 -26s-49 8 -66 26s-26 40 -26 66
c0 27 9 49 26 67c18 17 39 26 66 26c26 0 48 -9 66 -26c18 -18 27 -40 27 -67zM548 204h-344c4 -24 16 -43 35 -56c18 -14 40 -21 65 -21c36 0 68 19 88 50l145 -51c-42 -93 -128 -137 -236 -137c-49 0 -94 11 -135 34c-41 22 -74 53 -98 93c-25 40 -37 84 -37 134
c0 47 12 91 36 131c24 39 57 71 98 94c40 22 84 33 132 33c70 0 135 -27 180 -72c45 -44 73 -109 73 -180c0 -21 0 -38 -2 -52zM293 373c-20 0 -38 -7 -55 -20c-17 -14 -28 -31 -33 -51h173c-6 44 -39 71 -85 71z" />
    <glyph glyph-name="igrave" unicode="&#xec;" horiz-adv-x="296" 
d="M113 762l104 -182h-133l-160 182h189zM58 0v497h180v-497h-180z" />
    <glyph glyph-name="iacute" unicode="&#xed;" horiz-adv-x="297" 
d="M79 580l104 182h190l-160 -182h-134zM58 0v497h181v-497h-181z" />
    <glyph glyph-name="icircumflex" unicode="&#xee;" horiz-adv-x="297" 
d="M67 757h163l118 -176h-142l-57 94l-57 -94h-143zM58 0v497h181v-497h-181z" />
    <glyph glyph-name="idieresis" unicode="&#xef;" horiz-adv-x="296" 
d="M122 666c0 -26 -8 -48 -26 -66s-40 -26 -66 -26c-27 0 -49 8 -67 26c-17 18 -26 40 -26 66c0 27 9 49 27 67c17 17 39 26 66 26c26 0 48 -9 66 -26c18 -18 26 -40 26 -67zM360 666c0 -26 -9 -48 -27 -66s-39 -26 -66 -26s-49 8 -66 26c-18 18 -26 40 -26 66
c0 27 8 49 26 67c18 17 39 26 66 26c26 0 48 -9 66 -26c18 -18 27 -40 27 -67zM58 0v497h180v-497h-180z" />
    <glyph glyph-name="eth" unicode="&#xf0;" horiz-adv-x="608" 
d="M535 627l-72 -28c72 -84 107 -187 107 -308c0 -86 -25 -161 -69 -215c-44 -55 -115 -87 -201 -87c-50 0 -95 11 -136 31s-73 50 -97 88c-24 37 -37 80 -37 127c0 71 32 134 79 172c46 38 106 60 165 60c39 0 76 -10 110 -31l1 3c-10 41 -37 82 -65 101l-140 -57l-37 85
l88 34c-31 14 -68 28 -112 41l48 127c87 -22 161 -55 223 -102l107 45zM299 141c31 0 55 10 74 30c18 20 27 44 27 69c0 28 -9 51 -26 71c-19 20 -43 30 -74 30c-28 0 -52 -10 -70 -30c-19 -20 -29 -43 -29 -70s10 -51 29 -71c19 -19 42 -29 69 -29z" />
    <glyph glyph-name="ntilde" unicode="&#xf1;" horiz-adv-x="606" 
d="M376 0v269c0 21 -6 40 -18 55c-12 14 -29 21 -50 21c-43 0 -72 -28 -72 -76v-269h-178v497h177v-62h1c36 49 92 72 143 72c131 0 174 -110 174 -206v-301h-177zM385 581c-24 0 -51 9 -83 25c-15 9 -25 14 -32 17c-11 6 -22 8 -31 8c-19 0 -30 -16 -31 -49h-94v27
c-1 41 8 75 27 100s48 37 87 37c23 0 49 -8 80 -24c13 -8 24 -13 32 -17c12 -5 22 -8 31 -8c18 0 29 11 33 31l2 16h90l1 -27c2 -41 -7 -74 -26 -99c-18 -25 -47 -37 -86 -37z" />
    <glyph glyph-name="ograve" unicode="&#xf2;" horiz-adv-x="610" 
d="M271 762l104 -182h-134l-159 182h189zM31 248c0 73 33 142 84 187c50 45 120 73 192 73s141 -27 191 -71c49 -44 81 -112 81 -185c0 -74 -32 -143 -82 -189s-120 -74 -194 -74c-73 0 -143 27 -192 72s-80 113 -80 187zM236 320c-18 -20 -27 -43 -27 -70
c0 -28 9 -51 28 -71c18 -21 42 -31 68 -31c27 0 50 10 69 31c18 20 27 43 27 71c0 27 -9 50 -27 70c-19 20 -42 30 -69 30s-50 -10 -69 -30z" />
    <glyph glyph-name="oacute" unicode="&#xf3;" horiz-adv-x="610" 
d="M236 580l104 182h189l-159 -182h-134zM31 248c0 73 33 142 84 187c50 45 120 73 192 73s141 -27 191 -71c49 -44 81 -112 81 -185c0 -74 -32 -143 -82 -189s-120 -74 -194 -74c-73 0 -143 27 -192 72s-80 113 -80 187zM236 320c-18 -20 -27 -43 -27 -70
c0 -28 9 -51 28 -71c18 -21 42 -31 68 -31c27 0 50 10 69 31c18 20 27 43 27 71c0 27 -9 50 -27 70c-19 20 -42 30 -69 30s-50 -10 -69 -30z" />
    <glyph glyph-name="ocircumflex" unicode="&#xf4;" horiz-adv-x="610" 
d="M224 757h163l117 -176h-141l-58 94l-56 -94h-143zM31 248c0 73 33 142 84 187c50 45 120 73 192 73s141 -27 191 -71c49 -44 81 -112 81 -185c0 -74 -32 -143 -82 -189s-120 -74 -194 -74c-73 0 -143 27 -192 72s-80 113 -80 187zM236 320c-18 -20 -27 -43 -27 -70
c0 -28 9 -51 28 -71c18 -21 42 -31 68 -31c27 0 50 10 69 31c18 20 27 43 27 71c0 27 -9 50 -27 70c-19 20 -42 30 -69 30s-50 -10 -69 -30z" />
    <glyph glyph-name="otilde" unicode="&#xf5;" horiz-adv-x="610" 
d="M31 248c0 73 33 142 84 187c50 45 120 73 192 73s141 -27 191 -71c49 -44 81 -112 81 -185c0 -74 -32 -143 -82 -189s-120 -74 -194 -74c-73 0 -143 27 -192 72s-80 113 -80 187zM385 581c-24 0 -52 9 -83 25c-15 9 -26 14 -32 17c-12 6 -22 8 -32 8
c-19 0 -29 -16 -31 -49h-93l-1 27c0 41 9 75 27 100c19 25 48 37 87 37c23 0 50 -8 80 -24c14 -8 25 -13 33 -17c12 -5 22 -8 30 -8c18 0 30 11 34 31l2 16h90l1 -27c1 -41 -7 -74 -26 -99s-48 -37 -86 -37zM236 320c-18 -20 -27 -43 -27 -70c0 -28 9 -51 28 -71
c18 -21 42 -31 68 -31c27 0 50 10 69 31c18 20 27 43 27 71c0 27 -9 50 -27 70c-19 20 -42 30 -69 30s-50 -10 -69 -30z" />
    <glyph glyph-name="odieresis" unicode="&#xf6;" horiz-adv-x="610" 
d="M278 666c0 -26 -9 -48 -27 -66c-17 -18 -39 -26 -66 -26s-49 8 -66 26c-18 18 -26 40 -26 66c0 27 8 49 26 67c18 17 40 26 66 26s49 -9 66 -26c18 -18 27 -40 27 -67zM520 666c0 -26 -9 -48 -26 -66c-18 -18 -40 -26 -67 -26s-49 8 -66 26s-26 40 -26 66
c0 27 9 49 26 67c18 17 39 26 66 26c26 0 48 -9 66 -26c18 -18 27 -40 27 -67zM31 248c0 73 33 142 84 187c50 45 120 73 192 73s141 -27 191 -71c49 -44 81 -112 81 -185c0 -74 -32 -143 -82 -189s-120 -74 -194 -74c-73 0 -143 27 -192 72s-80 113 -80 187zM236 320
c-18 -20 -27 -43 -27 -70c0 -28 9 -51 28 -71c18 -21 42 -31 68 -31c27 0 50 10 69 31c18 20 27 43 27 71c0 27 -9 50 -27 70c-19 20 -42 30 -69 30s-50 -10 -69 -30z" />
    <glyph glyph-name="divide" unicode="&#xf7;" horiz-adv-x="561" 
d="M372 566c0 -25 -9 -46 -27 -64c-17 -18 -39 -27 -64 -27c-26 0 -47 9 -65 27s-27 39 -27 64s9 47 27 65s39 27 65 27c25 0 47 -9 64 -27c18 -18 27 -40 27 -65zM35 415h491v-147h-491v147zM345 51c-17 -18 -39 -27 -64 -27c-26 0 -47 9 -65 27c-18 19 -27 40 -27 65
s9 47 27 65s39 27 65 27c25 0 47 -9 64 -27c18 -19 27 -40 27 -65s-9 -46 -27 -65z" />
    <glyph glyph-name="oslash" unicode="&#xf8;" horiz-adv-x="611" 
d="M579 482l-62 -64c42 -47 63 -102 63 -166c0 -74 -32 -143 -82 -189s-120 -74 -194 -74c-57 0 -108 14 -154 44l-65 -65l-53 51l60 63c-40 47 -61 103 -61 168c0 48 13 92 39 132s60 71 102 93s87 33 135 33c55 0 106 -14 153 -43l65 68zM209 250c0 -14 2 -27 7 -40
l127 132c-12 5 -24 8 -38 8c-27 0 -50 -10 -68 -30c-19 -20 -28 -43 -28 -70zM306 148c27 0 50 10 69 31c18 20 27 43 27 71c0 13 -2 26 -8 40l-128 -133c13 -6 26 -9 40 -9z" />
    <glyph glyph-name="ugrave" unicode="&#xf9;" 
d="M265 762l104 -182h-133l-159 182h188zM53 497h177v-269c0 -22 6 -40 19 -54c12 -15 28 -23 49 -23c44 0 72 29 72 77v269h177v-497h-176v62h-1c-36 -49 -90 -72 -143 -72c-128 0 -174 110 -174 206v301z" />
    <glyph glyph-name="uacute" unicode="&#xfa;" horiz-adv-x="606" 
d="M232 580l104 182h188l-159 -182h-133zM53 497h177v-269c0 -22 6 -40 19 -54c12 -15 28 -23 49 -23c44 0 72 29 72 77v269h177v-497h-176v62h-1c-36 -49 -90 -72 -143 -72c-128 0 -174 110 -174 206v301z" />
    <glyph glyph-name="ucircumflex" unicode="&#xfb;" 
d="M219 757h163l117 -176h-141l-58 94l-56 -94h-143zM53 497h177v-269c0 -22 6 -40 19 -54c12 -15 28 -23 49 -23c44 0 72 29 72 77v269h177v-497h-176v62h-1c-36 -49 -90 -72 -143 -72c-128 0 -174 110 -174 206v301z" />
    <glyph glyph-name="udieresis" unicode="&#xfc;" 
d="M272 666c0 -26 -9 -48 -27 -66c-17 -18 -39 -26 -66 -26s-49 8 -66 26c-18 18 -26 40 -26 66c0 27 8 49 26 67c18 17 40 26 66 26s49 -9 66 -26c18 -18 27 -40 27 -67zM514 666c0 -26 -9 -48 -26 -66c-18 -18 -40 -26 -67 -26s-49 8 -66 26s-26 40 -26 66
c0 27 9 49 26 67c18 17 40 26 66 26s49 -9 66 -26c18 -18 27 -40 27 -67zM53 497h177v-269c0 -22 6 -40 19 -54c12 -15 28 -23 49 -23c44 0 72 29 72 77v269h177v-497h-176v62h-1c-36 -49 -90 -72 -143 -72c-128 0 -174 110 -174 206v301z" />
    <glyph glyph-name="yacute" unicode="&#xfd;" horiz-adv-x="599" 
d="M243 580l104 182h188l-159 -182h-133zM311 243h1l94 254h187l-303 -742h-189l119 293l-217 449h194z" />
    <glyph glyph-name="thorn" unicode="&#xfe;" horiz-adv-x="643" 
d="M240 759v-308c21 23 50 39 78 46c27 7 44 9 62 9c60 0 120 -28 162 -73s69 -111 69 -179c0 -47 -10 -90 -30 -130c-20 -41 -48 -73 -85 -97c-36 -24 -76 -36 -120 -36c-55 0 -101 18 -136 54v-290h-182v1004h182zM432 251c0 27 -9 50 -28 69c-19 20 -43 29 -69 29
c-28 0 -52 -10 -71 -29c-20 -20 -30 -45 -30 -72s9 -50 28 -69s42 -29 69 -29c28 0 52 10 72 30c19 20 29 44 29 71z" />
    <glyph glyph-name="ydieresis" unicode="&#xff;" horiz-adv-x="599" 
d="M274 666c0 -26 -9 -48 -26 -66c-18 -18 -40 -26 -67 -26c-26 0 -48 8 -66 26c-17 18 -26 40 -26 66c0 27 9 49 26 67c18 17 40 26 66 26c27 0 49 -9 67 -26c17 -18 26 -40 26 -67zM516 666c0 -26 -8 -48 -26 -66s-40 -26 -67 -26s-48 8 -66 26c-17 18 -26 40 -26 66
c0 27 9 49 27 67c17 17 39 26 65 26c27 0 49 -9 67 -26c17 -18 26 -40 26 -67zM311 243h1l94 254h187l-303 -742h-189l119 293l-217 449h194z" />
    <glyph glyph-name="Amacron" unicode="&#x100;" horiz-adv-x="752" 
d="M197 935h359v-127h-359v127zM273 729h207l280 -729h-195l-50 134h-281l-49 -134h-192zM462 290l-88 232l-87 -232h175z" />
    <glyph glyph-name="amacron" unicode="&#x101;" horiz-adv-x="558" 
d="M90 712h360v-127h-360v127zM264 373c-37 0 -67 -22 -74 -54l-148 32c9 54 43 98 86 122c44 23 92 36 142 36c89 0 160 -29 203 -91c21 -32 32 -70 32 -114v-224c0 -30 1 -57 4 -80h-169c-3 15 -4 35 -4 58l-2 1c-39 -46 -89 -69 -150 -69c-43 0 -78 15 -108 43
c-29 27 -44 62 -44 104c0 72 47 114 108 136c41 15 83 21 128 21h26c22 0 36 11 36 30c0 27 -24 49 -66 49zM254 113c44 0 76 27 76 71v15h-62c-15 0 -29 -4 -41 -11c-12 -8 -18 -18 -18 -33c0 -23 21 -42 45 -42z" />
    <glyph glyph-name="Abreve" unicode="&#x102;" horiz-adv-x="752" 
d="M448 980h121c-5 -54 -25 -97 -61 -130c-36 -34 -80 -50 -132 -50s-96 16 -132 50s-56 77 -60 130h121c6 -43 31 -71 71 -71s66 28 72 71zM273 729h207l280 -729h-195l-50 134h-281l-49 -134h-192zM462 290l-88 232l-87 -232h175z" />
    <glyph glyph-name="abreve" unicode="&#x103;" horiz-adv-x="558" 
d="M342 757h121c-5 -54 -25 -97 -61 -130s-80 -50 -132 -50s-96 17 -132 50c-37 34 -57 77 -62 130h123c6 -43 31 -71 71 -71s66 28 72 71zM264 373c-37 0 -67 -22 -74 -54l-148 32c9 54 43 98 86 122c44 23 92 36 142 36c89 0 160 -29 203 -91c21 -32 32 -70 32 -114v-224
c0 -30 1 -57 4 -80h-169c-3 15 -4 35 -4 58l-2 1c-39 -46 -89 -69 -150 -69c-43 0 -78 15 -108 43c-29 27 -44 62 -44 104c0 72 47 114 108 136c41 15 83 21 128 21h26c22 0 36 11 36 30c0 27 -24 49 -66 49zM254 113c44 0 76 27 76 71v15h-62c-15 0 -29 -4 -41 -11
c-12 -8 -18 -18 -18 -33c0 -23 21 -42 45 -42z" />
    <glyph glyph-name="Aogonek" unicode="&#x104;" horiz-adv-x="753" 
d="M480 729l280 -729c-27 -14 -58 -33 -86 -64c-14 -16 -21 -30 -21 -42c0 -13 7 -24 19 -30c13 -7 26 -11 40 -11c11 0 26 2 44 6v-93c-21 -9 -51 -13 -87 -13c-54 0 -100 12 -130 45c-16 17 -24 37 -24 61c0 49 35 96 103 141h-53l-49 134h-281l-49 -134h-193l280 729h207
zM464 290l-88 232l-87 -232h175z" />
    <glyph glyph-name="aogonek" unicode="&#x105;" horiz-adv-x="559" 
d="M265 373c-37 0 -67 -22 -75 -54l-148 32c9 54 43 98 87 122c43 23 92 36 142 36c89 0 160 -29 203 -91c21 -32 31 -70 31 -114v-224c0 -30 2 -57 5 -80c-24 -12 -48 -28 -71 -49c-24 -20 -36 -39 -36 -57c0 -13 6 -24 19 -30c12 -7 26 -11 40 -11c10 0 24 2 44 6v-93
c-22 -9 -51 -13 -88 -13c-76 0 -153 30 -153 106c0 49 34 96 103 141h-27c-3 15 -4 35 -4 58l-2 1c-40 -46 -90 -69 -150 -69c-43 0 -79 15 -108 43c-30 27 -45 62 -45 104c0 73 47 114 108 136c42 15 84 21 129 21h26c22 0 36 11 36 30c0 27 -24 49 -66 49zM256 113
c44 0 75 27 75 71v15h-61c-15 0 -29 -4 -41 -11c-12 -8 -18 -18 -18 -33c0 -23 21 -42 45 -42z" />
    <glyph glyph-name="Cacute" unicode="&#x106;" horiz-adv-x="785" 
d="M345 793l104 183h188l-158 -183h-134zM411 -11c-52 0 -101 10 -147 29c-47 19 -87 45 -120 78c-34 34 -60 73 -80 120c-19 47 -29 96 -29 149c0 51 9 100 28 145c19 46 46 86 79 120c33 35 73 61 121 81c47 20 98 30 153 30c84 0 160 -25 209 -61c25 -17 48 -38 67 -61
c39 -47 58 -89 70 -132l-172 -53c-6 27 -28 70 -68 101c-25 19 -65 34 -109 34c-54 0 -100 -20 -136 -59c-36 -40 -54 -87 -54 -144c0 -56 18 -104 53 -143c35 -40 81 -60 137 -60c53 0 100 20 128 48c28 29 45 58 53 87l172 -54c-9 -39 -28 -82 -68 -129
c-20 -23 -43 -44 -69 -62c-52 -37 -131 -64 -218 -64z" />
    <glyph glyph-name="cacute" unicode="&#x107;" horiz-adv-x="572" 
d="M238 580l104 182h188l-159 -182h-133zM304 -11c-50 0 -96 11 -137 32c-42 22 -75 53 -99 93c-25 39 -37 84 -37 135c0 73 33 141 83 186s119 74 191 74c75 0 143 -26 192 -79c25 -27 41 -59 49 -95l-156 -47c-13 38 -45 61 -85 61c-27 0 -50 -9 -68 -29
c-17 -19 -27 -42 -27 -70s9 -52 26 -71c17 -20 40 -29 69 -29c39 0 73 24 88 61l156 -47c-31 -112 -132 -177 -245 -175z" />
    <glyph glyph-name="Ccircumflex" unicode="&#x108;" horiz-adv-x="788" 
d="M339 970h164l117 -175h-142l-57 94l-56 -94h-143zM414 -11c-53 0 -102 10 -149 29c-46 19 -86 45 -120 78c-34 34 -61 73 -80 120c-20 47 -30 96 -30 149c0 51 9 100 29 146c19 46 45 86 79 120c33 34 74 60 122 80c47 20 99 30 154 30c84 0 160 -25 209 -61
c25 -17 47 -38 67 -61c39 -47 58 -89 70 -132l-172 -53c-6 27 -28 70 -68 101c-25 19 -65 34 -109 34c-55 0 -100 -20 -136 -59c-36 -40 -54 -87 -54 -144c0 -56 18 -104 53 -143c35 -40 81 -60 137 -60c53 0 99 20 128 48c28 29 45 58 52 87l173 -54
c-9 -39 -29 -82 -69 -129c-20 -23 -42 -44 -68 -62c-52 -37 -131 -64 -218 -64z" />
    <glyph glyph-name="ccircumflex" unicode="&#x109;" horiz-adv-x="572" 
d="M222 757h163l117 -176h-141l-57 94l-57 -94h-142zM304 -11c-50 0 -96 11 -137 32c-42 22 -75 53 -99 93c-25 39 -37 84 -37 135c0 73 33 141 83 186s119 74 191 74c75 0 143 -26 192 -79c25 -27 41 -59 49 -95l-156 -47c-13 38 -45 61 -85 61c-27 0 -50 -9 -68 -29
c-17 -19 -27 -42 -27 -70s9 -52 26 -71c17 -20 40 -29 69 -29c39 0 73 24 88 61l156 -47c-31 -112 -132 -177 -245 -175z" />
    <glyph glyph-name="Cdotaccent" unicode="&#x10a;" horiz-adv-x="787" 
d="M420 795c-28 0 -52 10 -73 30c-20 20 -31 45 -31 72c0 29 10 53 31 73c20 21 44 31 73 31s53 -10 73 -31c20 -20 30 -44 30 -73c0 -27 -10 -52 -30 -72s-44 -30 -73 -30zM413 -11c-52 0 -101 10 -148 29s-87 45 -120 78c-35 34 -61 73 -81 120c-19 47 -29 96 -29 149
c0 51 9 100 28 145c19 46 46 86 79 120c33 35 74 61 122 81c47 20 99 30 154 30c84 0 160 -25 209 -61c25 -17 48 -38 67 -61c39 -47 58 -89 70 -132l-172 -53c-6 27 -28 70 -68 101c-25 19 -65 34 -109 34c-55 0 -100 -20 -136 -59c-36 -40 -54 -87 -54 -144
c0 -56 18 -104 53 -143c35 -40 81 -60 137 -60c53 0 100 20 128 48c28 29 45 58 52 87l173 -54c-9 -39 -28 -82 -68 -129c-20 -23 -43 -44 -69 -62c-52 -37 -131 -64 -218 -64z" />
    <glyph glyph-name="cdotaccent" unicode="&#x10b;" horiz-adv-x="572" 
d="M307 564c-28 0 -52 10 -73 30c-20 20 -30 44 -30 71c0 29 10 54 30 74s44 30 73 30c28 0 53 -10 73 -30c20 -21 30 -45 30 -74c0 -27 -10 -51 -30 -71s-45 -30 -73 -30zM304 -11c-50 0 -96 11 -137 32c-42 22 -75 53 -99 93c-25 39 -37 84 -37 135c0 73 32 141 83 186
c50 45 120 74 192 74c74 0 143 -26 192 -79c24 -27 41 -59 49 -95l-157 -47c-12 38 -45 61 -85 61c-27 0 -50 -9 -67 -29c-18 -19 -27 -42 -27 -70s9 -52 26 -71c17 -20 40 -29 68 -29c39 0 73 24 88 61l157 -47c-31 -112 -132 -177 -246 -175z" />
    <glyph glyph-name="Ccaron" unicode="&#x10c;" horiz-adv-x="788" 
d="M502 795h-163l-118 176h142l57 -94l57 94h142zM414 -11c-53 0 -102 10 -149 29c-46 19 -86 45 -120 78c-34 34 -61 73 -80 120c-20 47 -30 96 -30 149c0 51 9 100 29 146c19 46 45 86 79 120c33 34 74 60 122 80c47 20 99 30 154 30c84 0 160 -25 209 -61
c25 -17 47 -38 67 -61c39 -47 58 -89 70 -132l-172 -53c-6 27 -28 70 -68 101c-25 19 -65 34 -109 34c-55 0 -100 -20 -136 -59c-36 -40 -54 -87 -54 -144c0 -56 18 -104 53 -143c35 -40 81 -60 137 -60c53 0 99 20 128 48c28 29 45 58 52 87l173 -54
c-9 -39 -29 -82 -69 -129c-20 -23 -42 -44 -68 -62c-52 -37 -131 -64 -218 -64z" />
    <glyph glyph-name="ccaron" unicode="&#x10d;" horiz-adv-x="572" 
d="M389 581h-164l-116 176h141l57 -94l57 94h142zM304 -11c-50 0 -96 11 -137 32c-42 22 -75 53 -99 93c-25 39 -37 84 -37 135c0 73 32 141 83 186c50 45 120 74 192 74c74 0 143 -26 192 -79c24 -27 41 -59 49 -95l-157 -47c-12 38 -45 61 -85 61c-27 0 -50 -9 -67 -29
c-18 -19 -27 -42 -27 -70s9 -52 26 -71c17 -20 40 -29 68 -29c39 0 73 24 88 61l157 -47c-31 -112 -132 -177 -246 -175z" />
    <glyph glyph-name="Dcaron" unicode="&#x10e;" horiz-adv-x="761" 
d="M398 795h-164l-117 176h142l57 -94l56 94h143zM318 0h-243v729h242c228 1 408 -120 408 -362c0 -117 -45 -214 -119 -274c-75 -60 -174 -93 -288 -93zM321 560h-59v-390h58c122 0 219 67 219 196c0 62 -25 114 -64 145c-40 32 -94 49 -154 49z" />
    <glyph glyph-name="dcaron" unicode="&#x10f;" horiz-adv-x="663" 
d="M264 -10c-44 0 -83 12 -119 35c-36 24 -64 55 -83 95c-20 40 -30 83 -30 130c0 74 28 141 72 185c43 45 103 72 164 72c17 0 32 -2 59 -10c28 -7 57 -27 79 -57h4v319h176v-759h-175v61h-4c-37 -47 -84 -71 -143 -71zM637 541v218h183l-50 -218h-133zM382 179
c19 19 29 43 29 71c0 27 -10 51 -29 70c-20 20 -43 30 -70 30s-51 -10 -70 -30c-20 -19 -29 -43 -29 -70c0 -28 9 -52 29 -71c19 -20 43 -30 70 -30s50 10 70 30z" />
    <glyph glyph-name="Dcroat" unicode="&#x110;" horiz-adv-x="791" 
d="M105 729h242c117 0 218 -32 291 -91c73 -60 117 -155 117 -271c0 -99 -33 -183 -85 -239c-25 -28 -56 -52 -91 -72c-71 -39 -150 -56 -235 -56h-239v290h-85v155h85v284zM287 169h64c65 0 117 17 156 52c40 35 59 84 59 145c0 59 -19 106 -58 141c-39 36 -91 53 -156 53
h-65v-115h132v-155h-132v-121z" />
    <glyph glyph-name="dslash" unicode="&#x111;" horiz-adv-x="645" 
d="M411 61h-4c-37 -47 -85 -71 -143 -71c-44 0 -83 12 -119 35c-36 24 -64 55 -83 95c-20 40 -30 83 -30 130c0 74 28 141 72 185c43 45 102 72 164 72c17 0 32 -2 59 -10c27 -7 56 -27 78 -57h4v126h-141v118h141v74h177v-74h69v-118h-69v-566h-175v61zM242 179
c19 -20 43 -30 70 -30s50 10 70 30c19 20 29 43 29 71c0 27 -10 51 -29 70c-20 20 -43 30 -70 30c-28 0 -51 -10 -71 -30c-19 -19 -29 -43 -29 -70c0 -28 10 -51 30 -71z" />
    <glyph glyph-name="Emacron" unicode="&#x112;" horiz-adv-x="637" 
d="M152 935h359v-127h-359v127zM258 447h297v-157h-297v-126h330v-164h-513v729h510v-163h-327v-119z" />
    <glyph glyph-name="emacron" unicode="&#x113;" horiz-adv-x="581" 
d="M112 712h359v-127h-359v127zM548 204h-344c4 -24 16 -43 35 -56c18 -14 40 -21 65 -21c36 0 68 19 88 50l145 -51c-42 -93 -129 -137 -237 -137c-48 0 -93 11 -134 34c-41 22 -74 53 -98 93c-25 40 -37 84 -37 134c0 47 12 91 36 131c24 39 57 71 98 94
c40 22 84 33 132 33c70 0 135 -27 180 -72c45 -44 73 -109 73 -180c0 -21 0 -38 -2 -52zM293 373c-20 0 -39 -7 -56 -20c-17 -14 -27 -31 -32 -51h173c-6 44 -39 71 -85 71z" />
    <glyph glyph-name="Edotaccent" unicode="&#x116;" horiz-adv-x="637" 
d="M332 795c-28 0 -52 10 -73 30c-20 20 -31 45 -31 72c0 29 10 53 31 73c20 21 44 31 73 31c28 0 53 -10 73 -31c20 -20 30 -44 30 -73c0 -27 -10 -52 -30 -72s-45 -30 -73 -30zM258 447h297v-157h-297v-126h330v-164h-513v729h510v-163h-327v-119z" />
    <glyph glyph-name="edotaccent" unicode="&#x117;" horiz-adv-x="581" 
d="M296 564c-28 0 -52 10 -73 30c-20 20 -30 44 -30 71c0 29 10 54 30 74s44 30 73 30s53 -10 73 -30c20 -21 30 -45 30 -74c0 -27 -10 -51 -30 -71s-44 -30 -73 -30zM548 204h-344c4 -24 16 -43 35 -56c18 -14 40 -21 65 -21c36 0 68 19 88 50l145 -51
c-42 -93 -129 -137 -237 -137c-48 0 -93 11 -134 34c-41 22 -74 53 -98 93c-25 40 -37 84 -37 134c0 47 12 91 36 131c24 39 57 71 98 94c40 22 84 33 132 33c70 0 135 -27 180 -72c45 -44 73 -109 73 -180c0 -21 0 -38 -2 -52zM293 373c-20 0 -39 -7 -56 -20
c-17 -14 -27 -31 -32 -51h173c-6 44 -39 71 -85 71z" />
    <glyph glyph-name="Eogonek" unicode="&#x118;" horiz-adv-x="637" 
d="M588 164v-164c-28 -14 -58 -33 -86 -64c-14 -16 -21 -30 -21 -42c0 -13 7 -24 19 -30c12 -7 26 -11 40 -11c10 0 25 2 45 6v-93c-23 -9 -52 -13 -88 -13c-54 0 -100 12 -131 45c-15 17 -23 37 -23 61c0 49 35 96 103 141h-371v729h510v-163h-327v-119h297v-157h-297v-126
h330z" />
    <glyph glyph-name="eogonek" unicode="&#x119;" horiz-adv-x="581" 
d="M281 -106c0 -13 6 -24 19 -30c12 -7 25 -11 40 -11c10 0 25 2 44 6v-93c-22 -9 -51 -13 -88 -13c-54 0 -100 12 -130 45c-16 17 -23 37 -23 61c0 47 32 92 96 137c-60 13 -110 43 -149 89c-40 47 -59 101 -59 165c0 47 12 91 36 131c24 39 57 71 98 94
c40 22 84 33 132 33c70 0 135 -27 180 -72c45 -44 73 -109 73 -180c0 -21 0 -38 -2 -52h-344c4 -24 16 -43 35 -56c18 -14 40 -21 65 -21c36 0 68 19 88 50l145 -51c-30 -67 -78 -105 -151 -126c-20 -6 -42 -21 -67 -44c-25 -22 -38 -43 -38 -62zM293 373
c-20 0 -39 -7 -56 -20c-17 -14 -27 -31 -32 -51h173c-6 44 -39 71 -85 71z" />
    <glyph glyph-name="Ecaron" unicode="&#x11a;" horiz-adv-x="637" 
d="M414 795h-164l-117 176h142l57 -94l56 94h142zM258 447h297v-157h-297v-126h330v-164h-513v729h510v-163h-327v-119z" />
    <glyph glyph-name="ecaron" unicode="&#x11b;" horiz-adv-x="581" 
d="M378 581h-164l-117 176h142l57 -94l56 94h143zM548 204h-344c4 -24 16 -43 35 -56c18 -14 40 -21 65 -21c36 0 68 19 88 50l145 -51c-42 -93 -129 -137 -237 -137c-48 0 -93 11 -134 34c-41 22 -74 53 -98 93c-25 40 -37 84 -37 134c0 47 12 91 36 131c24 39 57 71 98 94
c40 22 84 33 132 33c70 0 135 -27 180 -72c45 -44 73 -109 73 -180c0 -21 0 -38 -2 -52zM293 373c-20 0 -39 -7 -56 -20c-17 -14 -27 -31 -32 -51h173c-6 44 -39 71 -85 71z" />
    <glyph glyph-name="Gcircumflex" unicode="&#x11c;" horiz-adv-x="797" 
d="M337 970h163l117 -175h-141l-57 94l-57 -94h-142zM574 251h-209v148h401v-72c0 -93 -35 -178 -95 -239c-59 -61 -149 -99 -252 -99c-72 0 -137 16 -196 49c-58 32 -105 77 -138 134c-34 58 -51 122 -51 193c0 50 10 98 31 145c20 45 47 85 81 120c34 34 75 60 123 81
c47 20 97 30 149 30c79 0 150 -21 198 -51c24 -16 46 -34 65 -55c38 -41 59 -81 71 -123l-178 -47c-6 22 -19 45 -44 70c-24 23 -65 40 -114 40c-55 0 -101 -20 -138 -59c-38 -39 -56 -89 -56 -150c0 -59 18 -110 55 -151c37 -40 84 -61 142 -61c36 0 69 9 100 28
c30 18 48 41 55 69z" />
    <glyph glyph-name="gcircumflex" unicode="&#x11d;" horiz-adv-x="640" 
d="M225 757h164l116 -176h-141l-57 94l-57 -94h-142zM405 75h-3c-37 -48 -82 -71 -137 -71c-69 0 -124 23 -167 71c-43 47 -65 106 -65 178c0 74 27 140 70 182c43 43 101 69 163 69c48 0 100 -19 138 -67h3v60h175v-472c0 -85 -26 -152 -79 -200c-53 -49 -122 -74 -208 -74
c-76 0 -144 24 -186 58c-42 35 -69 77 -77 121l157 47c9 -44 48 -74 99 -74c73 0 117 36 117 112v60zM379 185c19 19 28 42 28 69s-9 50 -28 69c-19 18 -41 27 -69 27c-27 0 -50 -9 -69 -28c-18 -18 -27 -42 -27 -69c0 -28 9 -50 27 -69c19 -19 42 -28 69 -28
c28 0 50 9 69 29z" />
    <glyph glyph-name="Gbreve" unicode="&#x11e;" horiz-adv-x="796" 
d="M490 980h120c-5 -54 -25 -97 -60 -130c-36 -34 -80 -50 -132 -50c-53 0 -96 16 -132 50s-56 77 -61 130h122c6 -43 31 -71 71 -71s66 28 72 71zM573 251h-209v148h401v-72c0 -93 -35 -178 -95 -239c-59 -61 -149 -99 -252 -99c-72 0 -137 16 -196 49
c-58 32 -104 77 -137 134c-34 58 -51 122 -51 193c0 50 10 98 31 145c20 45 47 85 81 120c34 34 74 60 122 81c47 20 97 30 149 30c79 0 150 -21 198 -51c25 -16 46 -34 65 -55c38 -41 60 -81 71 -123l-178 -47c-6 22 -19 45 -43 70c-25 23 -66 40 -115 40
c-55 0 -101 -20 -138 -59s-56 -89 -56 -150c0 -59 18 -110 55 -151c37 -40 84 -61 142 -61c36 0 69 9 100 28c30 18 48 41 55 69z" />
    <glyph glyph-name="gbreve" unicode="&#x11f;" horiz-adv-x="640" 
d="M379 757h120c-5 -54 -25 -97 -60 -130c-36 -33 -80 -50 -133 -50c-52 0 -96 17 -131 50c-36 34 -56 77 -60 130h120c6 -43 31 -71 71 -71s67 28 73 71zM405 75h-3c-37 -48 -82 -71 -137 -71c-69 0 -124 23 -167 71c-43 47 -65 106 -65 178c0 74 27 140 70 182
c43 43 101 69 163 69c48 0 100 -19 138 -67h3v60h175v-472c0 -85 -26 -152 -79 -200c-53 -49 -122 -74 -208 -74c-76 0 -144 24 -186 58c-42 35 -69 77 -77 121l157 47c9 -44 48 -74 99 -74c73 0 117 36 117 112v60zM379 185c19 19 28 42 28 69s-9 50 -28 69
c-19 18 -41 27 -69 27c-27 0 -50 -9 -69 -28c-18 -18 -27 -42 -27 -69c0 -28 9 -50 27 -69c19 -19 42 -28 69 -28c28 0 50 9 69 29z" />
    <glyph glyph-name="Gdotaccent" unicode="&#x120;" horiz-adv-x="795" 
d="M417 795c-28 0 -52 10 -73 30c-20 20 -31 45 -31 72c0 29 10 53 31 73c20 21 44 31 73 31c28 0 53 -10 73 -31c20 -20 30 -44 30 -73c0 -27 -10 -52 -30 -72s-45 -30 -73 -30zM764 399v-72c0 -93 -35 -178 -95 -239c-59 -61 -149 -99 -253 -99c-71 0 -136 16 -195 49
c-58 32 -103 77 -136 134c-34 58 -50 122 -50 193c0 50 10 98 30 145c20 45 46 85 80 120c35 34 75 60 122 81c48 20 97 30 149 30c79 0 150 -21 198 -51c24 -16 46 -34 65 -55c38 -41 59 -81 71 -123l-179 -47c-5 22 -19 45 -43 70c-24 23 -65 40 -114 40
c-55 0 -101 -20 -139 -59c-37 -39 -55 -89 -55 -150c0 -59 18 -110 55 -151c36 -40 84 -61 141 -61c37 0 70 9 100 28c30 18 49 41 56 69h-210v148h402z" />
    <glyph glyph-name="gdotaccent" unicode="&#x121;" horiz-adv-x="640" 
d="M307 564c-28 0 -52 10 -72 30c-21 20 -31 44 -31 71c0 29 10 54 31 74c20 20 44 30 72 30c29 0 53 -10 73 -30c20 -21 30 -45 30 -74c0 -27 -10 -51 -30 -71s-44 -30 -73 -30zM405 75h-3c-37 -48 -82 -71 -137 -71c-69 0 -124 23 -167 71c-43 47 -65 106 -65 178
c0 74 27 140 70 182c43 43 101 69 163 69c48 0 100 -19 138 -67h3v60h175v-472c0 -85 -26 -152 -79 -200c-53 -49 -122 -74 -208 -74c-76 0 -144 24 -186 58c-42 35 -69 77 -77 121l157 47c9 -44 48 -74 99 -74c73 0 117 36 117 112v60zM379 185c19 19 28 42 28 69
s-9 50 -28 69c-19 18 -41 27 -69 27c-27 0 -50 -9 -69 -28c-18 -18 -27 -42 -27 -69c0 -28 9 -50 27 -69c19 -19 42 -28 69 -28c28 0 50 9 69 29z" />
    <glyph glyph-name="Gcommaaccent" unicode="&#x122;" horiz-adv-x="795" 
d="M764 399v-72c0 -93 -35 -178 -95 -239c-59 -61 -149 -99 -253 -99c-71 0 -136 16 -195 49c-58 32 -103 77 -136 134c-34 58 -50 122 -50 193c0 50 10 98 30 145c20 45 46 85 80 120c35 34 75 60 122 81c48 20 97 30 149 30c79 0 150 -21 198 -51c24 -16 46 -34 65 -55
c38 -41 59 -81 71 -123l-179 -47c-5 22 -19 45 -43 70c-24 23 -65 40 -114 40c-55 0 -101 -20 -139 -59c-37 -39 -55 -89 -55 -150c0 -59 18 -110 55 -151c36 -40 84 -61 141 -61c37 0 70 9 100 28c30 18 49 41 56 69h-210v148h402zM321 -365v60c49 10 84 26 93 67
c-8 -2 -16 -4 -26 -4c-23 0 -43 7 -58 22s-22 35 -22 58c0 24 9 44 27 60c18 17 39 25 63 25c32 0 55 -11 72 -33c17 -21 25 -48 25 -80c0 -50 -16 -91 -48 -121c-32 -31 -74 -49 -126 -54z" />
    <glyph glyph-name="gcommaaccent" unicode="&#x123;" horiz-adv-x="640" 
d="M405 75h-3c-37 -48 -82 -71 -137 -71c-69 0 -124 23 -167 71c-43 47 -65 106 -65 178c0 74 27 140 70 182c43 43 101 69 163 69c48 0 100 -19 138 -67h3v60h175v-472c0 -85 -26 -152 -79 -200c-53 -49 -122 -74 -208 -74c-76 0 -144 24 -186 58c-42 35 -69 77 -77 121
l157 47c9 -44 48 -74 99 -74c73 0 117 36 117 112v60zM379 185c19 19 28 42 28 69s-9 50 -28 69c-19 18 -41 27 -69 27c-27 0 -50 -9 -69 -28c-18 -18 -27 -42 -27 -69c0 -28 9 -50 27 -69c19 -19 42 -28 69 -28c28 0 50 9 69 29zM377 862v-61c-54 -9 -85 -31 -93 -66
c8 3 16 4 26 4c24 0 43 -8 58 -23s22 -34 22 -57c0 -24 -9 -44 -26 -61c-18 -16 -39 -24 -64 -24c-31 0 -55 11 -71 32c-17 21 -26 48 -26 80c0 51 16 92 48 122c33 31 74 49 126 54z" />
    <glyph glyph-name="Hbar" unicode="&#x126;" horiz-adv-x="832" 
d="M551 280h-271v-280h-183v532h-82v123h82v74h183v-74h271v74h184v-74h81v-123h-81v-532h-184v280zM551 532h-271v-83h271v83z" />
    <glyph glyph-name="hbar" unicode="&#x127;" 
d="M378 507c131 0 174 -110 174 -206v-301h-177v270c0 21 -6 39 -18 54c-12 14 -29 21 -50 21c-43 0 -72 -28 -72 -75v-270h-177v566h-68v118h68v74h177v-74h141v-118h-141v-127h1c37 46 91 68 142 68z" />
    <glyph glyph-name="Itilde" unicode="&#x128;" horiz-adv-x="335" 
d="M75 729h185v-729h-185v729zM247 795c-24 0 -52 8 -83 25c-15 8 -25 14 -32 17c-12 5 -22 8 -32 8c-19 0 -29 -16 -30 -49h-94l-1 26c0 42 9 75 28 100c18 25 47 38 87 38c23 0 49 -8 80 -25c13 -7 24 -13 32 -16c12 -5 22 -8 31 -8c17 0 29 10 33 31l2 16h90l1 -28
c1 -40 -7 -73 -26 -98c-18 -25 -48 -37 -86 -37z" />
    <glyph glyph-name="itilde" unicode="&#x129;" horiz-adv-x="295" 
d="M58 0v497h178v-497h-178zM227 581c-24 0 -52 9 -83 25c-15 9 -25 14 -32 17c-12 6 -22 8 -32 8c-19 0 -29 -16 -30 -49h-94l-1 27c0 41 9 75 28 100c18 25 47 37 87 37c23 0 49 -8 80 -24c13 -8 24 -13 32 -17c12 -5 22 -8 31 -8c17 0 29 11 33 31l2 16h90l1 -27
c1 -41 -7 -74 -26 -99c-18 -25 -48 -37 -86 -37z" />
    <glyph glyph-name="Imacron" unicode="&#x12a;" horiz-adv-x="335" 
d="M1 935h333v-127h-333v127zM75 729h185v-729h-185v729z" />
    <glyph glyph-name="imacron" unicode="&#x12b;" horiz-adv-x="295" 
d="M-12 712h318v-127h-318v127zM58 0v497h178v-497h-178z" />
    <glyph glyph-name="Ibreve" unicode="&#x12c;" horiz-adv-x="335" 
d="M240 980h120c-5 -54 -25 -97 -61 -130c-35 -34 -79 -50 -132 -50c-52 0 -96 16 -132 50c-35 34 -55 77 -60 130h121c6 -43 31 -71 71 -71s67 28 73 71zM75 729h185v-729h-185v729z" />
    <glyph glyph-name="ibreve" unicode="&#x12d;" horiz-adv-x="295" 
d="M220 757h120c-5 -54 -25 -97 -60 -130c-36 -33 -80 -50 -132 -50c-53 0 -97 17 -133 50c-35 34 -56 77 -60 130h122c6 -43 31 -71 71 -71s66 28 72 71zM58 0v497h179v-497h-179z" />
    <glyph glyph-name="Iogonek" unicode="&#x12e;" horiz-adv-x="335" 
d="M260 729v-729c-28 -14 -59 -33 -86 -64c-14 -16 -21 -30 -21 -42c0 -13 6 -24 19 -30c12 -7 26 -11 40 -11c10 0 25 2 45 6v-93c-34 -9 -67 -13 -99 -13c-34 0 -67 8 -96 24c-28 17 -47 46 -47 82c0 48 34 95 103 141h-43v729h185z" />
    <glyph glyph-name="iogonek" unicode="&#x12f;" horiz-adv-x="295" 
d="M147 564c-28 0 -52 10 -72 30c-21 20 -31 44 -31 71c0 29 10 54 31 74c20 20 44 30 72 30c29 0 53 -10 73 -30c20 -21 30 -45 30 -74c0 -27 -10 -51 -30 -71s-44 -30 -73 -30zM236 497v-497c-27 -14 -58 -33 -85 -64c-14 -16 -21 -30 -21 -42c0 -13 6 -24 19 -30
c12 -7 26 -11 40 -11c10 0 25 2 44 6v-93c-22 -9 -51 -13 -88 -13c-54 0 -100 12 -130 45c-15 17 -23 37 -23 61c0 49 34 96 103 141h-37v497h178z" />
    <glyph glyph-name="Idot" unicode="&#x130;" horiz-adv-x="335" 
d="M168 795c-28 0 -53 10 -73 30s-31 45 -31 72c0 29 10 53 31 73c20 21 44 31 73 31c28 0 53 -10 73 -31c20 -20 30 -44 30 -73c0 -27 -10 -52 -30 -72s-45 -30 -73 -30zM75 729h185v-729h-185v729z" />
    <glyph glyph-name="dotlessi" unicode="&#x131;" horiz-adv-x="295" 
d="M58 0v497h178v-497h-178z" />
    <glyph glyph-name="IJ" unicode="&#x132;" horiz-adv-x="658" 
d="M332 -10c-151 -3 -265 94 -264 249v34h186v-28c0 -59 31 -84 76 -84s74 32 74 81v487h185v-485c0 -79 -24 -140 -72 -186c-47 -46 -109 -68 -185 -68zM254 729v-361h-186v361h186z" />
    <glyph glyph-name="Kcommaaccent" unicode="&#x136;" horiz-adv-x="711" 
d="M260 729v-313l225 313h216l-250 -346l268 -383h-229l-230 345v-345h-185v729h185zM275 -365v60c49 10 83 26 93 67c-8 -2 -17 -4 -27 -4c-23 0 -42 7 -57 22s-23 35 -23 58c0 24 9 44 28 60c17 17 39 25 63 25c31 0 55 -11 72 -33c16 -21 25 -48 25 -80
c0 -50 -16 -91 -49 -121c-32 -31 -74 -49 -125 -54z" />
    <glyph glyph-name="kcommaaccent" unicode="&#x137;" horiz-adv-x="595" 
d="M58 759h177v-468l150 206h204l-167 -231l173 -266h-207l-149 242h-4v-242h-177v759zM222 -365v60c49 10 83 26 93 67c-8 -2 -16 -4 -26 -4c-24 0 -43 7 -58 22s-22 35 -22 58c0 24 9 44 27 60c18 17 39 25 63 25c31 0 55 -11 72 -33c17 -21 25 -48 25 -80
c0 -50 -16 -91 -48 -121c-33 -31 -74 -49 -126 -54z" />
    <glyph glyph-name="Lacute" unicode="&#x139;" horiz-adv-x="579" 
d="M108 793l103 183h189l-159 -183h-133zM566 167v-167h-491v729h185v-562h306z" />
    <glyph glyph-name="lacute" unicode="&#x13a;" horiz-adv-x="295" 
d="M80 821l103 183h188l-158 -183h-133zM58 759h179v-759h-179v759z" />
    <glyph glyph-name="Lcommaaccent" unicode="&#x13b;" horiz-adv-x="578" 
d="M565 167v-167h-490v729h184v-562h306zM238 -365v60c50 10 84 26 93 67c-7 -2 -16 -4 -26 -4c-23 0 -42 7 -57 22s-23 35 -23 58c0 24 9 44 27 60c18 17 39 25 63 25c32 0 55 -11 72 -33c17 -21 25 -48 25 -80c0 -50 -16 -91 -48 -121c-32 -31 -74 -49 -126 -54z" />
    <glyph glyph-name="lcommaaccent" unicode="&#x13c;" horiz-adv-x="295" 
d="M58 759h179v-759h-179v759zM65 -365v60c50 10 84 26 94 67c-8 -2 -17 -4 -27 -4c-23 0 -42 7 -57 22s-23 35 -23 58c0 24 9 44 28 60c17 17 39 25 63 25c31 0 55 -11 72 -33c16 -21 25 -48 25 -80c0 -50 -16 -91 -49 -121c-32 -31 -74 -49 -126 -54z" />
    <glyph glyph-name="Lcaron" unicode="&#x13d;" horiz-adv-x="589" 
d="M383 532v218h182l-50 -218h-132zM565 167v-167h-490v729h184v-562h306z" />
    <glyph glyph-name="lcaron" unicode="&#x13e;" horiz-adv-x="313" 
d="M58 759h179v-759h-179v759zM287 541v218h183l-50 -218h-133z" />
    <glyph glyph-name="Ldot" unicode="&#x13f;" horiz-adv-x="587" 
d="M565 167v-167h-490v729h184v-562h306zM461 276c-28 0 -52 10 -72 30c-21 20 -31 44 -31 72s10 53 31 73c20 20 44 30 72 30c29 0 54 -10 74 -30c20 -21 30 -45 30 -73s-10 -52 -30 -72s-45 -30 -74 -30z" />
    <glyph glyph-name="ldot" unicode="&#x140;" horiz-adv-x="467" 
d="M58 759h179v-759h-179v759zM381 190c-28 0 -52 10 -73 30c-20 20 -30 44 -30 71c0 29 10 54 30 74s44 30 73 30s53 -10 73 -30c20 -21 30 -45 30 -74c0 -27 -10 -51 -30 -71s-44 -30 -73 -30z" />
    <glyph glyph-name="Lslash" unicode="&#x141;" horiz-adv-x="632" 
d="M129 410v319h184v-236l191 86v-163l-191 -86v-163h307v-167h-491v248l-96 -43v162z" />
    <glyph glyph-name="lslash" unicode="&#x142;" horiz-adv-x="432" 
d="M308 459l95 47v-161l-95 -46v-299h-179v210l-95 -47v162l95 46v388h179v-300z" />
    <glyph glyph-name="Nacute" unicode="&#x143;" horiz-adv-x="805" 
d="M348 793l103 183h189l-159 -183h-133zM75 729h207l265 -426h1v426h182v-729h-202l-268 432h-1v-432h-184v729z" />
    <glyph glyph-name="nacute" unicode="&#x144;" horiz-adv-x="606" 
d="M160 580l103 182h188l-158 -182h-133zM376 0v269c0 21 -6 40 -18 55c-13 14 -29 21 -50 21c-44 0 -73 -28 -73 -76v-269h-177v497h177v-62h1c36 49 91 72 143 72c131 0 174 -110 174 -206v-301h-177z" />
    <glyph glyph-name="Ncommaaccent" unicode="&#x145;" horiz-adv-x="805" 
d="M75 729h206l265 -426h1v426h183v-729h-203l-268 432h-1v-432h-183v729zM320 -365v60c50 10 84 26 94 67c-8 -2 -17 -4 -27 -4c-23 0 -42 7 -57 22s-23 35 -23 58c0 24 9 44 28 60c17 17 39 25 63 25c31 0 55 -11 72 -33c16 -21 25 -48 25 -80c0 -50 -16 -91 -49 -121
c-32 -31 -74 -49 -126 -54z" />
    <glyph glyph-name="ncommaaccent" unicode="&#x146;" 
d="M375 0v269c0 21 -5 40 -18 55c-12 14 -29 21 -50 21c-43 0 -72 -28 -72 -76v-269h-177v497h176v-62h1c36 49 92 72 143 72c131 0 174 -110 174 -206v-301h-177zM222 -365v60c49 10 83 26 93 67c-8 -2 -16 -4 -26 -4c-24 0 -43 7 -58 22s-22 35 -22 58c0 24 9 44 27 60
c18 17 39 25 63 25c31 0 55 -11 72 -33c17 -21 25 -48 25 -80c0 -50 -16 -91 -48 -121c-33 -31 -74 -49 -126 -54z" />
    <glyph glyph-name="Ncaron" unicode="&#x147;" horiz-adv-x="805" 
d="M512 795h-164l-117 176h142l57 -94l56 94h143zM75 729h207l265 -426h1v426h182v-729h-202l-268 432h-1v-432h-184v729z" />
    <glyph glyph-name="ncaron" unicode="&#x148;" horiz-adv-x="606" 
d="M387 581h-163l-117 176h141l57 -94l57 94h142zM553 301v-301h-177v269c0 21 -6 40 -18 55c-13 14 -29 21 -50 21c-44 0 -73 -28 -73 -76v-269h-177v497h177v-62h1c36 49 91 72 143 72c131 0 174 -110 174 -206z" />
    <glyph glyph-name="Eng" unicode="&#x14a;" horiz-adv-x="805" 
d="M553 -1l-294 445h-1v-444h-183v729h206l265 -406h1v406h183v-786c0 -60 -18 -107 -53 -139c-35 -33 -82 -49 -141 -49c-36 0 -68 5 -94 14v137c23 -1 39 -2 47 -2c43 0 64 19 64 58v37z" />
    <glyph glyph-name="eng" unicode="&#x14b;" 
d="M552 301v-358c0 -60 -17 -107 -52 -139c-35 -33 -82 -49 -141 -49c-37 0 -68 5 -94 14v137c23 -1 39 -2 46 -2c43 0 64 19 64 58v307c0 21 -5 40 -18 55c-12 14 -29 21 -50 21c-43 0 -72 -28 -72 -76v-269h-177v497h176v-62h1c36 49 92 72 143 72
c131 0 174 -110 174 -206z" />
    <glyph glyph-name="Omacron" unicode="&#x14c;" horiz-adv-x="831" 
d="M237 935h359v-127h-359v127zM35 365c0 69 17 132 51 190s81 104 140 137s122 49 191 49s133 -16 191 -49c58 -32 104 -77 138 -135c34 -57 50 -121 50 -190c0 -52 -10 -101 -30 -148s-47 -87 -81 -120c-34 -34 -75 -61 -121 -80c-47 -20 -97 -30 -149 -30
c-69 0 -133 16 -191 50c-58 32 -104 77 -138 135s-51 121 -51 191zM222 366c0 -55 19 -103 56 -144c37 -40 83 -61 138 -61c54 0 100 21 138 61c36 41 55 89 55 144c3 106 -85 206 -193 204c-36 0 -69 -10 -99 -29s-53 -44 -70 -75s-25 -64 -25 -100z" />
    <glyph glyph-name="omacron" unicode="&#x14d;" horiz-adv-x="610" 
d="M125 712h360v-127h-360v127zM31 248c0 73 33 142 84 187c50 45 120 73 192 73s141 -27 191 -71c49 -44 81 -112 81 -185c0 -74 -32 -143 -82 -189s-120 -74 -194 -74c-73 0 -143 27 -192 72s-80 113 -80 187zM236 320c-18 -20 -27 -43 -27 -70c0 -28 9 -51 28 -71
c18 -21 42 -31 68 -31c27 0 50 10 69 31c18 20 27 43 27 71c0 27 -9 50 -27 70c-19 20 -42 30 -69 30s-50 -10 -69 -30z" />
    <glyph glyph-name="Ohungarumlaut" unicode="&#x150;" horiz-adv-x="830" 
d="M235 793l105 183h179l-155 -183h-129zM459 793l104 183h179l-155 -183h-128zM34 365c0 69 17 132 52 190c34 58 81 104 139 137c59 33 123 49 192 49s133 -16 191 -49c57 -32 103 -77 137 -135c34 -57 51 -121 51 -190c0 -52 -10 -101 -30 -148c-21 -47 -47 -87 -81 -120
c-35 -34 -75 -61 -122 -80c-47 -20 -96 -30 -148 -30c-70 0 -133 16 -191 50c-59 32 -104 77 -139 135c-34 58 -51 121 -51 191zM222 366c0 -55 18 -103 56 -144c37 -40 83 -61 137 -61c55 0 101 21 138 61c37 41 56 89 56 144c2 106 -85 206 -194 204
c-35 0 -69 -10 -99 -29s-53 -44 -69 -75c-17 -31 -25 -64 -25 -100z" />
    <glyph glyph-name="ohungarumlaut" unicode="&#x151;" horiz-adv-x="610" 
d="M126 580l104 182h179l-154 -182h-129zM349 580l104 182h179l-154 -182h-129zM31 248c0 73 33 142 84 187c50 45 120 73 192 73s141 -27 191 -71c49 -44 81 -112 81 -185c0 -74 -32 -143 -82 -189s-120 -74 -194 -74c-73 0 -143 27 -192 72s-80 113 -80 187zM236 320
c-18 -20 -27 -43 -27 -70c0 -28 9 -51 28 -71c18 -21 42 -31 68 -31c27 0 50 10 69 31c18 20 27 43 27 71c0 27 -9 50 -27 70c-19 20 -42 30 -69 30s-50 -10 -69 -30z" />
    <glyph glyph-name="OE" unicode="&#x152;" horiz-adv-x="1171" 
d="M609 65h-3c-58 -51 -124 -76 -198 -76c-52 0 -101 10 -147 29c-46 20 -86 46 -119 79s-59 73 -79 120c-19 46 -29 95 -29 148c0 51 11 100 31 147c21 47 49 88 83 121s75 59 121 79c46 19 93 29 143 29c72 0 138 -24 195 -73h2v61h510v-163h-329v-119h299v-157h-299v-126
h332v-164h-513v65zM247 466c-52 -91 -22 -221 70 -276c31 -19 64 -29 100 -29c37 0 70 10 100 29c31 20 54 45 71 76c52 94 21 222 -71 276c-30 18 -63 28 -100 28c-36 0 -69 -10 -100 -29c-30 -19 -53 -44 -70 -75z" />
    <glyph glyph-name="oe" unicode="&#x153;" horiz-adv-x="949" 
d="M916 204h-346c5 -22 15 -40 34 -55c17 -15 40 -22 67 -22c9 0 14 0 34 6c20 5 40 21 55 44l145 -51c-22 -49 -59 -85 -92 -103c-17 -9 -35 -17 -54 -22c-40 -11 -61 -12 -87 -12c-74 0 -140 27 -187 73c-50 -46 -115 -73 -183 -73c-48 0 -93 11 -134 33
c-42 22 -75 53 -100 94c-25 40 -38 85 -38 135c0 49 13 93 39 133c25 39 59 70 100 92c41 21 86 32 133 32c66 0 133 -28 183 -73c47 46 112 73 183 73c46 0 87 -11 126 -33c38 -21 69 -52 91 -90c22 -39 34 -82 34 -129c0 -21 -1 -38 -3 -52zM660 373c-21 0 -40 -7 -57 -21
c-16 -14 -27 -31 -31 -50h176c-7 44 -43 71 -88 71zM235 320c-18 -19 -27 -43 -27 -70c0 -28 9 -52 27 -72s40 -30 67 -30s50 10 68 31c18 20 27 43 27 71c0 27 -9 51 -27 70c-19 20 -41 30 -68 30s-49 -10 -67 -30z" />
    <glyph glyph-name="Racute" unicode="&#x154;" horiz-adv-x="691" 
d="M243 793l104 183h188l-159 -183h-133zM75 729h299c83 0 149 -20 199 -59c49 -40 74 -99 74 -175c0 -104 -50 -173 -134 -208l151 -287h-196l-134 256h-75v-256h-184v729zM259 413h101c67 0 103 26 103 75s-33 82 -104 82h-100v-157z" />
    <glyph glyph-name="racute" unicode="&#x155;" horiz-adv-x="426" 
d="M132 580l104 182h188l-159 -182h-133zM408 498l-1 -171c-14 3 -29 4 -43 4c-85 0 -128 -42 -128 -126v-205h-178v497h177v-72h1c19 31 46 55 74 64c27 9 46 12 65 12c10 0 21 -1 33 -3z" />
    <glyph glyph-name="Rcommaaccent" unicode="&#x156;" horiz-adv-x="691" 
d="M75 0v729h299c83 0 149 -20 199 -59c49 -40 74 -99 74 -175c0 -104 -50 -173 -134 -208l151 -287h-196l-134 256h-75v-256h-184zM259 413h101c67 0 103 26 103 75s-33 82 -104 82h-100v-157zM265 -365v60c50 10 84 26 94 67c-8 -2 -17 -4 -27 -4c-23 0 -42 7 -57 22
s-23 35 -23 58c0 24 9 44 28 60c17 17 39 25 63 25c31 0 55 -11 72 -33c16 -21 25 -48 25 -80c0 -50 -16 -91 -49 -121c-32 -31 -74 -49 -126 -54z" />
    <glyph glyph-name="rcommaaccent" unicode="&#x157;" horiz-adv-x="425" 
d="M407 498l-1 -171c-14 3 -29 4 -43 4c-85 0 -128 -42 -128 -126v-205h-177v497h176v-72h1c19 31 46 55 74 64c27 9 46 12 65 12c11 0 21 -1 33 -3zM72 -365v60c49 10 83 26 93 67c-8 -2 -16 -4 -26 -4c-24 0 -43 7 -58 22s-22 35 -22 58c0 24 9 44 27 60
c18 17 39 25 63 25c31 0 55 -11 72 -33c17 -21 25 -48 25 -80c0 -50 -16 -91 -48 -121c-33 -31 -74 -49 -126 -54z" />
    <glyph glyph-name="Rcaron" unicode="&#x158;" horiz-adv-x="691" 
d="M413 795h-163l-117 176h141l57 -94l57 94h142zM75 729h299c83 0 149 -20 199 -59c49 -40 74 -99 74 -175c0 -104 -50 -173 -134 -208l151 -287h-196l-134 256h-75v-256h-184v729zM259 413h101c67 0 103 26 103 75s-33 82 -104 82h-100v-157z" />
    <glyph glyph-name="rcaron" unicode="&#x159;" horiz-adv-x="426" 
d="M315 581h-163l-118 176h142l58 -94l56 94h142zM408 498l-1 -171c-14 3 -29 4 -43 4c-85 0 -128 -42 -128 -126v-205h-178v497h177v-72h1c19 31 46 55 74 64c27 9 46 12 65 12c10 0 21 -1 33 -3z" />
    <glyph glyph-name="Sacute" unicode="&#x15a;" horiz-adv-x="647" 
d="M250 793l103 183h188l-158 -183h-133zM333 -10c-88 0 -158 20 -209 63c-52 42 -84 98 -97 170l165 39c8 -55 40 -92 78 -107c19 -7 40 -11 64 -11c30 0 52 7 67 21c15 15 23 31 23 49c0 30 -21 50 -63 58l-100 19c-62 13 -112 37 -149 74c-37 38 -56 85 -56 141
c0 67 32 129 81 170c48 41 116 65 187 65s131 -18 171 -46c20 -14 37 -30 52 -49c29 -37 43 -75 49 -115l-161 -46c-10 62 -48 102 -112 102c-26 0 -47 -7 -62 -21s-22 -29 -22 -46c0 -33 18 -53 54 -60l104 -20c68 -13 120 -39 157 -78c37 -38 55 -86 55 -141
c0 -59 -27 -116 -72 -160c-46 -43 -120 -71 -204 -71z" />
    <glyph glyph-name="sacute" unicode="&#x15b;" horiz-adv-x="498" 
d="M175 580l104 182h188l-159 -182h-133zM248 509c67 0 125 -20 157 -49c31 -29 49 -61 50 -92l-143 -27c-6 32 -31 44 -59 44c-30 0 -45 -17 -45 -32c0 -14 10 -23 28 -26l71 -15c42 -8 78 -24 108 -47c31 -25 50 -62 50 -106s-20 -85 -54 -118c-35 -32 -92 -52 -159 -52
c-66 0 -120 16 -152 38c-15 10 -29 23 -40 38c-22 28 -30 52 -32 76l145 28c3 -34 32 -54 71 -54c36 0 51 18 51 34s-15 26 -45 32l-54 11c-41 9 -75 22 -106 45c-30 23 -48 59 -48 103c-2 93 95 171 206 169z" />
    <glyph glyph-name="Scircumflex" unicode="&#x15c;" horiz-adv-x="647" 
d="M245 970h164l117 -175h-141l-58 94l-56 -94h-142zM333 -10c-88 0 -158 20 -209 63c-52 42 -84 98 -97 170l165 39c8 -55 40 -92 78 -107c19 -7 40 -11 64 -11c30 0 52 7 67 21c15 15 23 31 23 49c0 30 -21 50 -63 58l-100 19c-62 13 -112 37 -149 74
c-37 38 -56 85 -56 141c0 67 32 129 81 170c48 41 116 65 187 65s131 -18 171 -46c20 -14 37 -30 52 -49c29 -37 43 -75 49 -115l-161 -46c-10 62 -48 102 -112 102c-26 0 -47 -7 -62 -21s-22 -29 -22 -46c0 -33 18 -53 54 -60l104 -20c68 -13 120 -39 157 -78
c37 -38 55 -86 55 -141c0 -59 -27 -116 -72 -160c-46 -43 -120 -71 -204 -71z" />
    <glyph glyph-name="scircumflex" unicode="&#x15d;" horiz-adv-x="498" 
d="M170 757h164l116 -176h-141l-57 94l-57 -94h-143zM248 509c67 0 125 -20 157 -49c31 -29 49 -61 50 -92l-143 -27c-6 32 -31 44 -59 44c-30 0 -45 -17 -45 -32c0 -14 10 -23 28 -26l71 -15c42 -8 78 -24 108 -47c31 -25 50 -62 50 -106s-20 -85 -54 -118
c-35 -32 -92 -52 -159 -52c-66 0 -120 16 -152 38c-15 10 -29 23 -40 38c-22 28 -30 52 -32 76l145 28c3 -34 32 -54 71 -54c36 0 51 18 51 34s-15 26 -45 32l-54 11c-41 9 -75 22 -106 45c-30 23 -48 59 -48 103c-2 93 95 171 206 169z" />
    <glyph glyph-name="Scedilla" unicode="&#x15e;" horiz-adv-x="646" 
d="M609 221c0 -53 -19 -101 -57 -144c-37 -42 -89 -70 -153 -82c11 -25 17 -54 17 -89c0 -96 -56 -154 -176 -154c-26 0 -49 4 -70 11v99l35 -3c62 -5 89 24 89 86c0 13 -2 28 -5 46c-75 7 -135 31 -179 72s-71 94 -83 160l164 39c6 -40 22 -70 48 -89s57 -29 94 -29
c30 0 53 7 68 21c15 15 22 31 22 49c0 30 -21 50 -62 58l-101 19c-62 13 -111 37 -149 74c-37 38 -56 85 -56 141c0 67 32 129 81 170s117 65 188 65c70 0 131 -18 171 -46c20 -14 37 -30 52 -49c29 -37 43 -75 48 -115l-161 -46c-9 62 -48 102 -111 102
c-27 0 -47 -7 -62 -21s-23 -29 -23 -46c0 -33 18 -53 54 -60l105 -20c68 -13 120 -39 157 -78c36 -38 55 -86 55 -141z" />
    <glyph glyph-name="scedilla" unicode="&#x15f;" horiz-adv-x="496" 
d="M464 159c0 -37 -13 -70 -38 -100c-25 -31 -61 -51 -106 -63c12 -25 18 -55 18 -90c0 -96 -56 -154 -176 -154c-26 0 -49 4 -70 11v99l35 -3c62 -6 89 23 89 86c0 12 -1 27 -5 45c-53 6 -97 24 -123 45c-13 11 -24 23 -33 36c-18 27 -25 49 -27 70l143 28
c4 -34 33 -54 72 -54c36 0 51 18 51 34s-15 26 -45 32l-54 11c-42 9 -75 23 -105 46c-30 22 -48 58 -48 102c0 47 20 87 60 120c39 32 88 49 144 49c68 0 125 -20 157 -49s49 -61 51 -92l-143 -27c-6 32 -31 44 -59 44c-30 0 -45 -17 -45 -32c0 -13 9 -22 28 -26l71 -15
c42 -8 77 -24 108 -47c31 -25 50 -62 50 -106z" />
    <glyph glyph-name="Scaron" unicode="&#x160;" horiz-adv-x="647" 
d="M409 799h-164l-116 176h141l57 -95l57 95h142zM333 -10c-88 0 -158 20 -210 63c-51 42 -83 98 -96 170l165 39c8 -55 40 -92 78 -107c19 -7 40 -11 64 -11c30 0 52 7 67 21c15 15 23 31 23 49c0 30 -21 50 -63 58l-100 19c-62 13 -112 37 -149 74c-38 38 -57 85 -57 141
c0 45 13 85 38 122c25 36 58 64 99 84c41 19 85 29 132 29c71 0 131 -18 171 -46c20 -14 37 -30 52 -49c29 -37 43 -75 49 -115l-161 -46c-10 62 -48 102 -112 102c-26 0 -47 -7 -62 -21s-22 -29 -22 -46c0 -33 18 -53 54 -60l104 -20c68 -13 120 -39 157 -78
c37 -38 55 -86 55 -141c0 -59 -27 -116 -72 -160c-46 -43 -120 -71 -204 -71z" />
    <glyph glyph-name="scaron" unicode="&#x161;" horiz-adv-x="497" 
d="M328 581h-163l-118 176h142l57 -94l57 94h142zM247 509c68 0 125 -20 157 -49c31 -29 49 -61 51 -92l-144 -27c-6 32 -31 44 -59 44c-30 0 -45 -17 -45 -32c0 -14 10 -23 28 -26l71 -15c42 -8 78 -24 109 -47c30 -25 49 -62 49 -106s-19 -85 -54 -118
c-35 -32 -92 -52 -159 -52c-66 0 -120 16 -151 38c-16 10 -29 23 -40 38c-22 28 -30 52 -32 76l144 28c3 -34 32 -54 71 -54c36 0 51 18 51 34s-15 26 -45 32l-54 11c-41 9 -75 22 -105 45s-48 59 -48 103c0 47 20 87 60 120c39 32 88 49 145 49z" />
    <glyph glyph-name="uni0162" unicode="&#x162;" horiz-adv-x="630" 
d="M407 562v-562c13 -25 20 -56 20 -94c0 -96 -57 -154 -176 -154c-26 0 -50 4 -70 11v99l35 -3c61 -5 89 24 89 86c0 17 -3 35 -8 55h-74v562h-206v167h596v-167h-206z" />
    <glyph glyph-name="uni0163" unicode="&#x163;" horiz-adv-x="444" 
d="M291 350v-152c0 -38 21 -58 64 -58c8 0 23 1 46 3v-137c-25 -9 -52 -14 -83 -14c11 -24 16 -53 16 -86c0 -96 -56 -154 -176 -154c-26 0 -49 4 -70 11v99l35 -3c62 -5 89 24 89 86c0 8 -1 20 -3 34c-3 15 -5 27 -9 37h1c-56 29 -87 86 -87 164v170h-98v147h102v161h173
v-161h115v-147h-115z" />
    <glyph glyph-name="Tcaron" unicode="&#x164;" horiz-adv-x="630" 
d="M397 795h-164l-117 176h142l57 -94l56 94h143zM407 0h-183v562h-207v167h596v-167h-206v-562z" />
    <glyph glyph-name="tcaron" unicode="&#x165;" horiz-adv-x="440" 
d="M339 545v218h182l-50 -218h-132zM397 143v-137c-26 -10 -57 -14 -94 -14c-58 0 -105 16 -140 49c-36 32 -53 79 -53 139v170h-94v147h98v161h173v-161h115v-147h-115v-152c0 -38 21 -58 64 -58c8 0 23 1 46 3z" />
    <glyph glyph-name="Tbar" unicode="&#x166;" horiz-adv-x="643" 
d="M121 244v124h109v194h-206v167h596v-167h-206v-194h109v-124h-109v-244h-184v244h-109z" />
    <glyph glyph-name="tbar" unicode="&#x167;" horiz-adv-x="442" 
d="M24 198v97h88v56h-93v146h98v161h173v-161h115v-146h-115v-56h87v-97h-87c0 -38 21 -58 64 -58c7 0 23 1 46 3v-137c-26 -10 -57 -14 -94 -14c-59 0 -106 16 -141 49c-35 32 -53 79 -53 139v18h-88z" />
    <glyph glyph-name="Utilde" unicode="&#x168;" horiz-adv-x="744" 
d="M676 729v-439c0 -95 -26 -168 -77 -221s-128 -79 -229 -79c-104 0 -184 30 -231 84c-48 54 -71 125 -71 214v441h185v-438c0 -39 10 -70 30 -94s49 -36 89 -36c44 0 77 15 94 40s24 53 24 86v442h186zM451 795c-23 0 -51 8 -82 25c-15 8 -26 14 -33 17c-11 5 -21 8 -31 8
c-19 0 -30 -16 -31 -49h-94v26c0 42 9 75 27 100c19 25 48 38 87 38c23 0 50 -8 80 -25c14 -7 25 -13 33 -16c12 -5 22 -8 30 -8c18 0 29 10 33 31l3 16h90l1 -28c1 -40 -8 -73 -26 -98c-19 -25 -48 -37 -87 -37z" />
    <glyph glyph-name="utilde" unicode="&#x169;" horiz-adv-x="607" 
d="M232 497v-269c0 -22 6 -40 18 -54c13 -15 29 -23 50 -23c44 0 72 29 72 77v269h177v-497h-176v62h-1c-36 -49 -91 -72 -143 -72c-132 0 -176 110 -176 206v301h179zM380 581c-23 0 -51 9 -82 25c-15 9 -26 14 -33 17c-11 6 -21 8 -31 8c-19 0 -29 -16 -31 -49h-93l-1 27
c0 41 9 75 27 100c19 25 48 37 87 37c23 0 50 -8 80 -24c14 -8 25 -13 33 -17c12 -5 22 -8 30 -8c18 0 29 11 34 31l2 16h90l1 -27c1 -41 -8 -74 -26 -99c-19 -25 -48 -37 -87 -37z" />
    <glyph glyph-name="Umacron" unicode="&#x16a;" horiz-adv-x="744" 
d="M192 935h359v-127h-359v127zM676 729v-439c0 -95 -26 -168 -77 -221s-128 -79 -229 -79c-104 0 -184 30 -231 84c-48 54 -71 125 -71 214v441h185v-438c0 -39 10 -70 30 -94s49 -36 89 -36c44 0 77 15 94 40s24 53 24 86v442h186z" />
    <glyph glyph-name="umacron" unicode="&#x16b;" horiz-adv-x="606" 
d="M121 712h359v-127h-359v127zM53 497h177v-269c0 -22 6 -40 19 -54c12 -15 28 -23 49 -23c44 0 72 29 72 77v269h177v-497h-176v62h-1c-36 -49 -90 -72 -143 -72c-128 0 -174 110 -174 206v301z" />
    <glyph glyph-name="Uring" unicode="&#x16e;" horiz-adv-x="745" 
d="M372 789c-40 0 -74 13 -103 41c-29 27 -44 60 -44 99s15 72 44 99s63 41 103 41s75 -14 104 -40c29 -28 43 -61 43 -100s-14 -73 -43 -99c-29 -28 -64 -41 -104 -41zM335 967c-11 -11 -16 -23 -16 -38s5 -28 16 -38c10 -11 22 -16 37 -16s28 5 38 16c11 10 16 23 16 38
s-5 27 -16 38c-10 10 -23 15 -38 15s-27 -5 -37 -15zM677 729v-439c0 -95 -26 -168 -77 -221s-128 -79 -229 -79c-104 0 -184 30 -232 84s-71 125 -71 214v441h186v-438c0 -39 10 -70 30 -94s49 -36 89 -36c43 0 77 15 94 40s24 53 24 86v442h186z" />
    <glyph glyph-name="uring" unicode="&#x16f;" horiz-adv-x="607" 
d="M300 566c-39 0 -74 14 -102 41c-29 27 -44 60 -44 99s15 72 44 99c28 28 63 41 102 41c41 0 76 -13 105 -40c28 -27 43 -61 43 -100s-15 -72 -43 -99c-29 -27 -64 -41 -105 -41zM263 744c-10 -10 -15 -23 -15 -38s5 -27 15 -38c11 -10 23 -15 38 -15s28 5 38 15
c11 11 16 23 16 38s-5 28 -16 38c-10 11 -23 16 -38 16s-27 -5 -38 -16zM53 497h177v-269c0 -22 6 -40 19 -54c12 -15 28 -23 49 -23c44 0 72 29 72 77v269h177v-497h-176v62h-1c-36 -49 -90 -72 -143 -72c-128 0 -174 110 -174 206v301z" />
    <glyph glyph-name="Uhungarumlaut" unicode="&#x170;" horiz-adv-x="745" 
d="M197 793l104 183h179l-155 -183h-128zM420 793l104 183h179l-154 -183h-129zM677 729v-439c0 -95 -26 -168 -77 -221s-128 -79 -229 -79c-104 0 -184 30 -232 84s-71 125 -71 214v441h186v-438c0 -39 10 -70 30 -94s49 -36 89 -36c43 0 77 15 94 40s24 53 24 86v442h186z
" />
    <glyph glyph-name="uhungarumlaut" unicode="&#x171;" horiz-adv-x="607" 
d="M126 580l104 182h180l-155 -182h-129zM350 580l104 182h179l-155 -182h-128zM53 497h177v-269c0 -22 6 -40 19 -54c12 -15 28 -23 49 -23c44 0 72 29 72 77v269h177v-497h-176v62h-1c-36 -49 -90 -72 -143 -72c-128 0 -174 110 -174 206v301z" />
    <glyph glyph-name="Uogonek" unicode="&#x172;" horiz-adv-x="744" 
d="M418 -106c0 -13 7 -24 19 -30c13 -7 26 -11 40 -11c10 0 25 2 44 6v-93c-22 -9 -51 -13 -87 -13c-54 0 -100 12 -131 45c-15 17 -23 37 -23 61c0 44 27 87 81 131c-81 1 -149 25 -193 62c-23 19 -41 40 -57 65c-31 49 -43 102 -43 158v454h185v-448
c0 -73 44 -117 115 -117c40 0 70 11 91 34c21 22 31 51 31 84v447h186v-455c0 -95 -36 -169 -107 -223l-15 -11c-47 -35 -82 -64 -103 -86c-22 -22 -33 -42 -33 -60z" />
    <glyph glyph-name="uogonek" unicode="&#x173;" horiz-adv-x="606" 
d="M53 497h177v-269c0 -22 6 -40 19 -54c12 -15 28 -23 49 -23c44 0 72 29 72 77v269h177v-497c-23 -12 -47 -28 -71 -49c-24 -20 -36 -39 -36 -57c0 -13 7 -24 20 -30c12 -7 25 -11 40 -11c10 0 24 2 44 6v-93c-23 -9 -52 -13 -88 -13c-76 0 -153 30 -153 106
c0 49 34 96 102 141h-34v62h-1c-36 -49 -90 -72 -143 -72c-128 0 -174 110 -174 206v301z" />
    <glyph glyph-name="Wcircumflex" unicode="&#x174;" horiz-adv-x="1115" 
d="M476 990h164l116 -176h-142l-56 94l-58 -94h-141zM203 729l123 -461h3l140 461h177l144 -462h2l126 462h186l-215 -729h-185l-146 493h-2l-149 -493h-182l-214 729h192z" />
    <glyph glyph-name="wcircumflex" unicode="&#x175;" horiz-adv-x="848" 
d="M343 757h164l117 -176h-142l-57 94l-56 -94h-143zM265 230l87 267h144l89 -269h1l83 269h169l-160 -497h-168l-86 266h-1l-88 -266h-166l-158 497h176l77 -267h1z" />
    <glyph glyph-name="Ycircumflex" unicode="&#x176;" horiz-adv-x="715" 
d="M276 990h164l116 -176h-142l-56 94l-58 -94h-141zM213 729l146 -261l148 261h203l-260 -448v-281h-185v281l-260 448h208z" />
    <glyph glyph-name="ycircumflex" unicode="&#x177;" horiz-adv-x="599" 
d="M226 757h164l116 -176h-141l-57 94l-57 -94h-142zM311 243h1l94 254h187l-303 -742h-189l119 293l-217 449h194z" />
    <glyph glyph-name="Ydieresis" unicode="&#x178;" horiz-adv-x="715" 
d="M308 898c0 -27 -8 -48 -26 -66s-40 -27 -67 -27c-26 0 -48 9 -65 27c-18 18 -27 39 -27 66s9 49 27 67c17 17 39 26 65 26c27 0 49 -9 67 -26c18 -18 26 -40 26 -67zM577 898c0 -27 -8 -48 -26 -66s-40 -27 -66 -27c-27 0 -49 9 -66 27c-18 18 -27 39 -27 66s9 49 27 67
c17 17 39 26 66 26c26 0 48 -9 66 -26c18 -18 26 -40 26 -67zM213 729l146 -261l148 261h203l-260 -448v-281h-185v281l-260 448h208z" />
    <glyph glyph-name="Zacute" unicode="&#x179;" horiz-adv-x="654" 
d="M269 793l103 183h188l-158 -183h-133zM52 567v162h558v-154l-337 -411h338v-164h-575v155l337 412h-321z" />
    <glyph glyph-name="zacute" unicode="&#x17a;" horiz-adv-x="522" 
d="M191 580l104 182h188l-158 -182h-134zM480 497v-131l-218 -221h220v-145h-443v140l208 211h-200v146h433z" />
    <glyph glyph-name="Zdotaccent" unicode="&#x17b;" horiz-adv-x="654" 
d="M324 795c-29 0 -53 10 -73 30c-21 20 -31 45 -31 72c0 29 10 53 31 74c20 20 44 30 73 30c28 0 53 -10 73 -31c20 -20 30 -44 30 -73c0 -27 -10 -52 -30 -72s-45 -30 -73 -30zM52 567v162h558v-154l-337 -411h338v-164h-575v155l337 412h-321z" />
    <glyph glyph-name="zdotaccent" unicode="&#x17c;" horiz-adv-x="522" 
d="M260 564c-28 0 -52 10 -73 30c-20 20 -30 44 -30 71c0 29 10 54 30 74s44 30 73 30s53 -10 73 -30c20 -21 30 -45 30 -74c0 -27 -10 -51 -30 -71s-44 -30 -73 -30zM480 497v-131l-218 -221h220v-145h-443v140l208 211h-200v146h433z" />
    <glyph glyph-name="Zcaron" unicode="&#x17d;" horiz-adv-x="654" 
d="M405 794h-163l-117 176h141l58 -94l56 94h142zM36 155l337 412h-321v162h558v-154l-337 -411h338v-164h-575v155z" />
    <glyph glyph-name="zcaron" unicode="&#x17e;" horiz-adv-x="522" 
d="M342 581h-163l-118 176h142l57 -94l57 94h142zM47 351v146h433v-131l-218 -221h220v-145h-443v140l208 211h-200z" />
    <glyph glyph-name="florin" unicode="&#x192;" horiz-adv-x="591" 
d="M399 353l-37 -183c-24 -121 -98 -181 -222 -181c-35 0 -68 5 -98 15v141c28 -7 52 -11 73 -11c38 0 65 26 73 62l32 157h-88v144h117l11 53c24 121 98 182 221 182c35 0 68 -5 98 -15v-142c-28 8 -52 12 -73 12c-38 0 -66 -27 -73 -63l-6 -27h110v-144h-138z" />
    <glyph glyph-name="uni01B5" unicode="&#x1b5;" horiz-adv-x="654" 
d="M372 567h-320v162h558v-152l-130 -158h130v-103h-213l-125 -152h338v-164h-574v153l134 163h-118v103h200z" />
    <glyph glyph-name="uni01B6" unicode="&#x1b6;" horiz-adv-x="522" 
d="M480 497v-113l-100 -101h100v-70h-163l-69 -73h234v-140h-443v122l86 91h-78v70h145l68 73h-213v141h433z" />
    <glyph glyph-name="uni01CD" unicode="&#x1cd;" horiz-adv-x="752" 
d="M458 799h-163l-117 176h141l57 -95l57 95h142zM273 729h207l280 -729h-195l-50 134h-281l-49 -134h-192zM462 290l-88 232l-87 -232h175z" />
    <glyph glyph-name="uni01CE" unicode="&#x1ce;" horiz-adv-x="558" 
d="M352 581h-163l-119 176h143l57 -94l57 94h142zM264 373c-37 0 -67 -22 -74 -54l-148 32c9 54 43 98 86 122c44 23 92 36 142 36c89 0 160 -29 203 -91c21 -32 32 -70 32 -114v-224c0 -30 1 -57 4 -80h-169c-3 15 -4 35 -4 58l-2 1c-39 -46 -89 -69 -150 -69
c-43 0 -78 15 -108 43c-29 27 -44 62 -44 104c0 72 47 114 108 136c41 15 83 21 128 21h26c22 0 36 11 36 30c0 27 -24 49 -66 49zM254 113c44 0 76 27 76 71v15h-62c-15 0 -29 -4 -41 -11c-12 -8 -18 -18 -18 -33c0 -23 21 -42 45 -42z" />
    <glyph glyph-name="uni01CF" unicode="&#x1cf;" horiz-adv-x="335" 
d="M250 795h-164l-117 176h141l58 -94l56 94h142zM75 729h185v-729h-185v729z" />
    <glyph glyph-name="uni01D0" unicode="&#x1d0;" horiz-adv-x="295" 
d="M230 581h-164l-118 176h142l58 -94l56 94h142zM58 0v497h178v-497h-178z" />
    <glyph glyph-name="uni01D1" unicode="&#x1d1;" horiz-adv-x="830" 
d="M497 799h-164l-117 176h142l57 -95l56 95h143zM34 365c0 69 17 132 52 190c34 58 81 104 139 137c59 33 123 49 192 49s133 -16 191 -49c57 -32 103 -77 137 -135c34 -57 51 -121 51 -190c0 -52 -10 -101 -30 -148c-21 -47 -47 -87 -81 -120c-35 -34 -75 -61 -122 -80
c-47 -20 -96 -30 -148 -30c-70 0 -133 16 -191 50c-59 32 -104 77 -139 135c-34 58 -51 121 -51 191zM222 366c0 -55 18 -103 56 -144c37 -40 83 -61 137 -61c55 0 101 21 138 61c37 41 56 89 56 144c2 106 -85 206 -194 204c-35 0 -69 -10 -99 -29s-53 -44 -69 -75
c-17 -31 -25 -64 -25 -100z" />
    <glyph glyph-name="uni01D2" unicode="&#x1d2;" horiz-adv-x="610" 
d="M387 581h-164l-117 176h142l57 -94l56 94h143zM31 248c0 73 33 142 84 187c50 45 120 73 192 73s141 -27 191 -71c49 -44 81 -112 81 -185c0 -74 -32 -143 -82 -189s-120 -74 -194 -74c-73 0 -143 27 -192 72s-80 113 -80 187zM236 320c-18 -20 -27 -43 -27 -70
c0 -28 9 -51 28 -71c18 -21 42 -31 68 -31c27 0 50 10 69 31c18 20 27 43 27 71c0 27 -9 50 -27 70c-19 20 -42 30 -69 30s-50 -10 -69 -30z" />
    <glyph glyph-name="uni01D3" unicode="&#x1d3;" horiz-adv-x="744" 
d="M454 799h-164l-117 176h142l57 -95l56 95h142zM676 729v-439c0 -95 -26 -168 -77 -221s-128 -79 -229 -79c-104 0 -184 30 -231 84c-48 54 -71 125 -71 214v441h185v-438c0 -39 10 -70 30 -94s49 -36 89 -36c44 0 77 15 94 40s24 53 24 86v442h186z" />
    <glyph glyph-name="uni01D4" unicode="&#x1d4;" 
d="M382 581h-163l-117 176h141l57 -94l57 94h142zM53 497h177v-269c0 -22 6 -40 19 -54c12 -15 28 -23 49 -23c44 0 72 29 72 77v269h177v-497h-176v62h-1c-36 -49 -90 -72 -143 -72c-128 0 -174 110 -174 206v301z" />
    <glyph glyph-name="uni01D5" unicode="&#x1d5;" horiz-adv-x="744" 
d="M676 729v-439c0 -95 -26 -168 -77 -221s-128 -79 -229 -79c-104 0 -184 30 -231 84c-48 54 -71 125 -71 214v441h185v-438c0 -39 10 -70 30 -94s49 -36 89 -36c44 0 77 15 94 40s24 53 24 86v442h186zM193 1106h358v-127h-358v127zM312 923c18 -18 27 -40 27 -67
c0 -26 -9 -48 -26 -66c-18 -17 -40 -26 -66 -26c-27 0 -49 9 -66 26c-18 18 -26 40 -26 66c0 27 8 49 26 67c17 18 39 27 66 27c26 0 48 -9 65 -27zM590 856c0 -26 -9 -48 -26 -66c-18 -17 -40 -26 -67 -26s-48 9 -66 26c-17 18 -26 40 -26 66c0 27 9 49 26 67
c18 18 39 27 66 27s49 -9 67 -27c17 -18 26 -40 26 -67z" />
    <glyph glyph-name="uni01D6" unicode="&#x1d6;" 
d="M121 897h359v-126h-359v126zM272 634c0 -27 -9 -49 -27 -66c-17 -18 -40 -26 -66 -26c-27 0 -49 8 -66 26c-18 17 -27 39 -27 66c0 26 9 49 27 66c17 18 39 27 66 27c26 0 49 -9 66 -27c18 -17 27 -40 27 -66zM487 700c18 -17 27 -40 27 -66s-9 -48 -27 -66
c-17 -18 -40 -26 -66 -26c-27 0 -49 8 -66 26c-18 17 -26 39 -26 66c0 26 8 49 26 66c18 18 40 27 66 27s48 -9 66 -27zM53 497h177v-269c0 -22 6 -40 19 -54c12 -15 28 -23 49 -23c44 0 72 29 72 77v269h177v-497h-176v62h-1c-36 -49 -90 -72 -143 -72
c-128 0 -174 110 -174 206v301z" />
    <glyph glyph-name="uni01D7" unicode="&#x1d7;" horiz-adv-x="744" 
d="M676 729v-439c0 -95 -26 -168 -77 -221s-128 -79 -229 -79c-104 0 -184 30 -231 84c-48 54 -71 125 -71 214v441h185v-438c0 -39 10 -70 30 -94s49 -36 89 -36c44 0 77 15 94 40s24 53 24 86v442h186zM304 965l96 170h185l-148 -170h-133zM344 856c0 -26 -9 -48 -26 -66
c-18 -18 -40 -27 -67 -27c-26 0 -49 9 -66 27c-18 18 -27 40 -27 66s9 49 27 66c18 18 40 27 66 27s49 -9 66 -27c18 -17 27 -40 27 -66zM585 856c0 -26 -8 -48 -26 -66s-40 -27 -67 -27c-26 0 -48 9 -65 27s-26 40 -26 66s9 49 27 66c17 18 38 27 64 27c27 0 49 -9 67 -27
c18 -17 26 -40 26 -66z" />
    <glyph glyph-name="uni01D8" unicode="&#x1d8;" 
d="M232 752l103 183h189l-159 -183h-133zM272 634c0 -27 -9 -49 -27 -66c-17 -18 -40 -26 -66 -26c-27 0 -49 8 -66 26c-18 17 -27 39 -27 66c0 26 9 49 27 66c18 18 40 27 66 27s49 -9 66 -27c18 -17 27 -40 27 -66zM487 700c18 -17 27 -40 27 -66s-9 -48 -27 -66
c-17 -18 -40 -26 -66 -26c-27 0 -49 8 -66 26c-17 17 -25 39 -25 66c0 26 8 49 26 66c17 18 39 27 65 27s49 -9 66 -27zM53 497h177v-269c0 -22 6 -40 19 -54c12 -15 28 -23 49 -23c44 0 72 29 72 77v269h177v-497h-176v62h-1c-36 -49 -90 -72 -143 -72
c-128 0 -174 110 -174 206v301z" />
    <glyph glyph-name="uni01D9" unicode="&#x1d9;" horiz-adv-x="744" 
d="M676 729v-439c0 -95 -26 -168 -77 -221s-128 -79 -229 -79c-104 0 -184 30 -231 84c-48 54 -71 125 -71 214v441h185v-438c0 -39 10 -70 30 -94s49 -36 89 -36c44 0 77 15 94 40s24 53 24 86v442h186zM450 965h-156l-121 170h142l56 -88l57 88h142zM345 856
c0 -26 -9 -48 -27 -66s-40 -27 -67 -27c-26 0 -48 9 -66 27c-17 18 -26 40 -26 66c0 27 9 49 26 66c18 18 40 27 66 27c27 0 49 -9 67 -27c18 -17 27 -40 27 -66zM586 856c0 -26 -8 -48 -26 -66s-40 -27 -67 -27c-26 0 -48 9 -65 27c-18 18 -27 40 -27 66c0 27 9 49 27 66
c17 18 39 27 65 27s48 -9 67 -27c17 -17 26 -40 26 -66z" />
    <glyph glyph-name="uni01DA" unicode="&#x1da;" 
d="M383 753h-164l-118 176h142l58 -94l55 94h143zM272 634c0 -27 -9 -49 -27 -66c-17 -18 -40 -26 -66 -26c-27 0 -49 8 -66 26c-18 17 -27 39 -27 66c0 26 9 49 27 66c18 18 40 27 66 27s49 -9 66 -27c18 -17 27 -40 27 -66zM487 700c18 -17 27 -40 27 -66s-9 -48 -27 -66
c-17 -18 -40 -26 -66 -26c-27 0 -49 8 -66 26c-17 17 -25 39 -25 66c0 26 8 49 26 66c17 18 39 27 65 27s49 -9 66 -27zM53 497h177v-269c0 -22 6 -40 19 -54c12 -15 28 -23 49 -23c44 0 72 29 72 77v269h177v-497h-176v62h-1c-36 -49 -90 -72 -143 -72
c-128 0 -174 110 -174 206v301z" />
    <glyph glyph-name="uni01DB" unicode="&#x1db;" horiz-adv-x="744" 
d="M676 729v-439c0 -95 -26 -168 -77 -221s-128 -79 -229 -79c-104 0 -184 30 -231 84c-48 54 -71 125 -71 214v441h185v-438c0 -39 10 -70 30 -94s49 -36 89 -36c44 0 77 15 94 40s24 53 24 86v442h186zM307 965l-148 170h185l96 -170h-133zM585 856c0 26 -8 49 -26 66
c-18 18 -40 27 -67 27c-26 0 -47 -9 -64 -27c-18 -17 -27 -40 -27 -66s9 -48 26 -66s39 -27 65 -27c27 0 49 9 67 27s26 40 26 66zM344 856c0 26 -9 49 -27 66c-17 18 -40 27 -66 27s-48 -9 -66 -27c-18 -17 -27 -40 -27 -66s9 -48 27 -66c17 -18 40 -27 66 -27
c27 0 49 9 67 27c17 18 26 40 26 66z" />
    <glyph glyph-name="uni01DC" unicode="&#x1dc;" 
d="M268 935l103 -183h-133l-159 183h189zM272 634c0 -27 -9 -49 -27 -66c-17 -18 -40 -26 -66 -26c-27 0 -49 8 -66 26c-18 17 -27 39 -27 66c0 26 9 49 27 66c18 18 40 27 66 27s49 -9 66 -27c18 -17 27 -40 27 -66zM487 700c18 -17 27 -40 27 -66s-9 -48 -27 -66
c-17 -18 -40 -26 -66 -26c-27 0 -49 8 -66 26c-17 17 -25 39 -25 66c0 26 8 49 26 66c17 18 39 27 65 27s49 -9 66 -27zM53 497h177v-269c0 -22 6 -40 19 -54c12 -15 28 -23 49 -23c44 0 72 29 72 77v269h177v-497h-176v62h-1c-36 -49 -90 -72 -143 -72
c-128 0 -174 110 -174 206v301z" />
    <glyph glyph-name="Gcaron" unicode="&#x1e6;" horiz-adv-x="796" 
d="M500 795h-164l-117 176h141l58 -94l57 94h142zM573 251h-209v148h401v-72c0 -93 -35 -178 -95 -239c-59 -61 -149 -99 -252 -99c-72 0 -137 16 -196 49c-58 32 -104 77 -137 134c-34 58 -51 122 -51 193c0 50 10 98 31 145c20 45 47 85 81 120c34 34 74 60 122 81
c47 20 97 30 149 30c79 0 150 -21 198 -51c25 -16 46 -34 65 -55c38 -41 60 -81 71 -123l-178 -47c-6 22 -19 45 -43 70c-25 23 -66 40 -115 40c-55 0 -101 -20 -138 -59s-56 -89 -56 -150c0 -59 18 -110 55 -151c37 -40 84 -61 142 -61c36 0 69 9 100 28c30 18 48 41 55 69
z" />
    <glyph glyph-name="gcaron" unicode="&#x1e7;" horiz-adv-x="640" 
d="M389 581h-164l-117 176h142l57 -94l56 94h142zM405 75h-3c-37 -48 -82 -71 -137 -71c-69 0 -124 23 -167 71c-43 47 -65 106 -65 178c0 74 27 140 70 182c43 43 101 69 163 69c48 0 100 -19 138 -67h3v60h175v-472c0 -85 -26 -152 -79 -200c-53 -49 -122 -74 -208 -74
c-76 0 -144 24 -186 58c-42 35 -69 77 -77 121l157 47c9 -44 48 -74 99 -74c73 0 117 36 117 112v60zM379 185c19 19 28 42 28 69s-9 50 -28 69c-19 18 -41 27 -69 27c-27 0 -50 -9 -69 -28c-18 -18 -27 -42 -27 -69c0 -28 9 -50 27 -69c19 -19 42 -28 69 -28
c28 0 50 9 69 29z" />
    <glyph glyph-name="uni01E8" unicode="&#x1e8;" horiz-adv-x="712" 
d="M470 795h-163l-117 176h141l58 -94l56 94h142zM75 729h186v-313l225 313h216l-250 -346l268 -383h-229l-230 345v-345h-186v729z" />
    <glyph glyph-name="uni01E9" unicode="&#x1e9;" horiz-adv-x="595" 
d="M58 759h177v-468l150 206h204l-167 -231l173 -266h-207l-149 242h-4v-242h-177v759zM418 757h-142l117 -176h164l117 176h-143l-56 -94z" />
    <glyph glyph-name="uni01F4" unicode="&#x1f4;" horiz-adv-x="797" 
d="M345 793l104 183h188l-158 -183h-134zM766 399v-72c0 -93 -35 -178 -95 -239c-59 -61 -149 -99 -252 -99c-72 0 -137 16 -196 49c-58 32 -105 77 -138 134c-34 58 -51 122 -51 193c0 50 10 98 31 145c20 45 47 85 81 120c34 34 75 60 123 81c47 20 97 30 149 30
c79 0 150 -21 198 -51c24 -16 46 -34 65 -55c38 -41 59 -81 71 -123l-178 -47c-6 22 -19 45 -44 70c-24 23 -65 40 -114 40c-55 0 -101 -20 -138 -59c-38 -39 -56 -89 -56 -150c0 -59 18 -110 55 -151c37 -40 84 -61 142 -61c36 0 69 9 100 28c30 18 48 41 55 69h-209v148
h401z" />
    <glyph glyph-name="uni01F5" unicode="&#x1f5;" horiz-adv-x="640" 
d="M220 580l104 182h188l-159 -182h-133zM405 75h-3c-37 -48 -82 -71 -137 -71c-69 0 -124 23 -167 71c-43 47 -65 106 -65 178c0 74 27 140 70 182c43 43 101 69 163 69c48 0 100 -19 138 -67h3v60h175v-472c0 -85 -26 -152 -79 -200c-53 -49 -122 -74 -208 -74
c-76 0 -144 24 -186 58c-42 35 -69 77 -77 121l157 47c9 -44 48 -74 99 -74c73 0 117 36 117 112v60zM379 185c19 19 28 42 28 69s-9 50 -28 69c-19 18 -41 27 -69 27c-27 0 -50 -9 -69 -28c-18 -18 -27 -42 -27 -69c0 -28 9 -50 27 -69c19 -19 42 -28 69 -28
c28 0 50 9 69 29z" />
    <glyph glyph-name="Aringacute" unicode="&#x1fa;" horiz-adv-x="752" 
d="M666 1007l-156 -181c7 -17 11 -35 11 -55c0 -30 -9 -57 -26 -81l265 -690h-195l-50 134h-281l-49 -134h-192l264 688c-19 25 -29 52 -29 83c0 39 15 72 44 99c28 27 63 41 103 41c15 0 30 -2 45 -7l58 103h188zM413 809c-11 10 -23 15 -38 15s-28 -5 -38 -15
c-11 -11 -16 -24 -16 -39s5 -27 16 -37c10 -11 23 -16 38 -16s27 5 38 16c10 10 15 22 15 37s-5 28 -15 39zM462 290l-88 232l-87 -232h175z" />
    <glyph glyph-name="aringacute" unicode="&#x1fb;" horiz-adv-x="558" 
d="M568 790l-158 -181c9 -18 13 -37 13 -56c0 -27 -8 -51 -22 -73c65 -32 104 -93 104 -176v-224c0 -30 1 -57 4 -80h-168c-3 15 -5 35 -5 58l-1 1c-40 -46 -90 -69 -151 -69c-42 0 -78 15 -107 43c-30 27 -44 62 -44 104c0 72 47 114 107 136c42 15 83 21 128 21h27
c22 0 35 11 35 30c0 27 -24 49 -66 49c-37 0 -67 -22 -74 -54l-148 32c11 59 47 104 107 132c-13 21 -20 44 -20 70c0 39 15 72 44 99c28 27 63 41 102 41c16 0 31 -3 45 -7l60 104h188zM314 591c-11 10 -24 15 -39 15s-27 -5 -37 -15c-11 -11 -16 -23 -16 -38s5 -28 16 -38
c10 -10 22 -16 37 -16s28 6 39 16c10 10 15 23 15 38s-5 27 -15 38zM330 199h-61c-16 0 -29 -4 -41 -11c-13 -8 -18 -18 -18 -33c0 -23 20 -42 45 -42c44 0 75 27 75 71v15z" />
    <glyph glyph-name="AEacute" unicode="&#x1fc;" horiz-adv-x="1000" 
d="M471 793l104 183h188l-158 -183h-134zM948 566h-323v-119h293v-157h-293v-126h325v-164h-503v115h-213l-52 -115h-193l342 729h617v-163zM438 569l-133 -298h142v298h-9z" />
    <glyph glyph-name="aeacute" unicode="&#x1fd;" horiz-adv-x="880" 
d="M370 580l103 182h188l-158 -182h-133zM846 204h-344c3 -22 13 -41 32 -55c18 -15 41 -22 69 -22c6 0 8 -1 23 3c8 1 15 4 21 7c13 7 32 21 43 40l145 -51c-41 -91 -121 -137 -241 -137c-82 0 -151 33 -197 89c-51 -59 -118 -89 -200 -89h-6c-44 0 -81 14 -112 42
c-31 29 -47 64 -47 106c0 72 47 114 108 136c41 15 83 21 128 21h26c22 0 36 11 36 30c0 27 -24 49 -66 49c-37 0 -67 -22 -74 -54l-148 32c9 54 43 98 86 122c44 23 92 36 142 36c70 0 125 -18 168 -53c45 35 97 52 157 52c47 0 90 -11 129 -33c38 -21 69 -51 91 -90
c23 -39 34 -82 34 -129c0 -25 -1 -42 -3 -52zM592 373c-22 0 -41 -7 -57 -21s-27 -31 -31 -50h173c-7 45 -40 71 -85 71zM254 113c44 0 76 27 76 71v15h-62c-15 0 -29 -4 -41 -11c-12 -8 -18 -18 -18 -33c0 -23 21 -42 45 -42z" />
    <glyph glyph-name="Oslashacute" unicode="&#x1fe;" horiz-adv-x="832" 
d="M348 793l103 183h189l-159 -183h-133zM796 688l-81 -86c55 -68 82 -146 82 -235c0 -52 -10 -101 -30 -148s-47 -87 -81 -120c-34 -34 -75 -61 -122 -80c-47 -20 -96 -30 -148 -30c-80 0 -151 21 -215 65l-80 -85l-86 78l80 85c-53 68 -80 145 -80 233c0 69 17 132 52 190
c34 58 81 104 139 137c59 33 123 49 192 49c77 0 147 -20 211 -61l82 87zM417 572c-37 0 -70 -9 -100 -28c-31 -19 -54 -44 -71 -76c-16 -31 -25 -65 -25 -101c0 -35 8 -67 23 -98l264 281c-28 15 -58 22 -91 22zM417 160c36 0 69 10 100 29c30 19 53 45 70 76
c17 32 25 66 25 102c0 35 -8 69 -24 100l-266 -282c28 -17 60 -25 95 -25z" />
    <glyph glyph-name="oslashacute" unicode="&#x1ff;" horiz-adv-x="611" 
d="M237 580l104 182h189l-159 -182h-134zM579 482l-62 -64c42 -47 63 -102 63 -166c0 -74 -32 -143 -82 -189s-120 -74 -194 -74c-57 0 -108 14 -154 44l-65 -65l-53 51l60 63c-40 47 -61 103 -61 168c0 48 13 92 39 132s60 71 102 93s87 33 135 33c55 0 106 -14 153 -43
l65 68zM209 250c0 -14 2 -27 7 -40l127 132c-12 5 -24 8 -38 8c-27 0 -50 -10 -68 -30c-19 -20 -28 -43 -28 -70zM306 148c27 0 50 10 69 31c18 20 27 43 27 71c0 13 -2 26 -8 40l-128 -133c13 -6 26 -9 40 -9z" />
    <glyph glyph-name="Scommaaccent" unicode="&#x218;" horiz-adv-x="646" 
d="M332 -10c-88 0 -157 20 -209 63c-51 42 -83 98 -96 170l165 39c7 -55 39 -92 78 -107c19 -7 40 -11 63 -11c30 0 53 7 68 21c15 15 22 31 22 49c0 30 -21 50 -62 58l-101 19c-62 13 -111 37 -149 74c-37 38 -56 85 -56 141c0 67 32 129 81 170s117 65 188 65
c70 0 131 -18 171 -46c20 -14 37 -30 52 -49c29 -37 43 -75 48 -115l-161 -46c-9 62 -48 102 -111 102c-27 0 -47 -7 -62 -21s-23 -29 -23 -46c0 -33 18 -53 54 -60l105 -20c68 -13 120 -39 157 -78c36 -38 55 -86 55 -141c0 -59 -27 -116 -73 -160
c-46 -43 -120 -71 -204 -71zM231 -365v60c50 10 84 26 94 67c-8 -2 -17 -4 -27 -4c-23 0 -42 7 -57 22s-23 35 -23 58c0 24 9 44 27 60c18 17 40 25 64 25c31 0 55 -11 71 -33c17 -21 25 -48 25 -80c0 -50 -15 -91 -48 -121c-32 -31 -74 -49 -126 -54z" />
    <glyph glyph-name="scommaaccent" unicode="&#x219;" horiz-adv-x="496" 
d="M246 509c68 0 125 -20 157 -49s49 -61 51 -92l-144 -27c-5 32 -30 44 -58 44c-31 0 -45 -17 -45 -32c0 -14 9 -23 28 -26l70 -15c43 -8 78 -24 109 -47c31 -25 50 -62 50 -106s-20 -85 -54 -118c-35 -32 -92 -52 -160 -52c-65 0 -119 16 -150 38c-16 10 -30 23 -40 38
c-22 28 -30 52 -32 76l143 28c4 -34 33 -54 71 -54c37 0 52 18 52 34s-15 26 -45 32l-54 11c-42 9 -76 22 -105 45c-30 23 -48 59 -48 103c0 47 20 87 59 120c40 32 89 49 145 49zM158 -365v60c50 10 84 26 93 67c-7 -2 -16 -4 -26 -4c-23 0 -42 7 -57 22s-23 35 -23 58
c0 24 9 44 27 60c18 17 39 25 63 25c32 0 55 -11 72 -33c17 -21 25 -48 25 -80c0 -50 -16 -91 -48 -121c-32 -31 -74 -49 -126 -54z" />
    <glyph glyph-name="uni021A" unicode="&#x21a;" horiz-adv-x="630" 
d="M17 729h596v-167h-206v-562h-184v562h-206v167zM230 -365v60c50 10 84 26 94 67c-8 -2 -17 -4 -27 -4c-23 0 -42 7 -57 22s-23 35 -23 58c0 24 9 44 28 60c17 17 39 25 63 25c31 0 55 -11 72 -33c16 -21 25 -48 25 -80c0 -50 -16 -91 -49 -121c-32 -31 -74 -49 -126 -54z
" />
    <glyph glyph-name="uni021B" unicode="&#x21b;" horiz-adv-x="440" 
d="M397 143v-137c-26 -10 -57 -14 -94 -14c-58 0 -105 16 -140 49c-36 32 -53 79 -53 139v170h-94v147h98v161h173v-161h115v-147h-115v-152c0 -38 21 -58 64 -58c8 0 23 1 46 3zM144 -365v60c49 10 83 26 93 67c-8 -2 -17 -4 -27 -4c-23 0 -42 7 -57 22s-23 35 -23 58
c0 24 10 44 28 60c17 17 39 25 63 25c31 0 55 -11 72 -33c17 -21 25 -48 25 -80c0 -50 -16 -91 -48 -121c-33 -31 -75 -49 -126 -54z" />
    <glyph glyph-name="uni0237" unicode="&#x237;" horiz-adv-x="302" 
d="M65 -39v536h179v-541c0 -60 -17 -109 -50 -146c-34 -37 -83 -55 -147 -55c-20 0 -40 1 -58 5c-18 3 -30 6 -35 9v139c14 -3 28 -5 43 -5c46 0 68 19 68 58z" />
    <glyph glyph-name="gravecomb" unicode="&#x300;" horiz-adv-x="0" 
d="M42 762l104 -182h-133l-159 182h188z" />
    <glyph glyph-name="acutecomb" unicode="&#x301;" horiz-adv-x="0" 
d="M-146 580l104 182h188l-159 -182h-133z" />
    <glyph glyph-name="uni0302" unicode="&#x302;" horiz-adv-x="0" 
d="M-82 757h164l117 -176h-142l-57 94l-56 -94h-143z" />
    <glyph glyph-name="tildecomb" unicode="&#x303;" horiz-adv-x="0" 
d="M80 581c-24 0 -52 9 -83 25c-15 9 -26 14 -32 17c-12 6 -22 8 -32 8c-19 0 -29 -16 -31 -49h-93l-1 27c0 41 9 75 27 100c19 25 48 37 87 37c23 0 50 -8 80 -24c14 -8 25 -13 33 -17c12 -5 22 -8 30 -8c18 0 30 11 34 31l2 16h90l1 -27c1 -41 -7 -74 -26 -99
s-48 -37 -86 -37z" />
    <glyph glyph-name="uni0304" unicode="&#x304;" horiz-adv-x="0" 
d="M-180 712h360v-127h-360v127z" />
    <glyph glyph-name="brevecomb" unicode="&#x306;" horiz-adv-x="0" 
d="M72 757h120c-5 -54 -25 -97 -60 -130c-36 -33 -80 -50 -132 -50c-53 0 -96 17 -132 50c-36 34 -56 77 -60 130h121c6 -43 31 -71 71 -71s66 28 72 71z" />
    <glyph glyph-name="uni0307" unicode="&#x307;" horiz-adv-x="0" 
d="M-103 564c-28 0 -52 10 -73 30c-20 20 -30 44 -30 71c0 29 10 54 30 74s44 30 73 30c28 0 53 -10 73 -30c20 -21 30 -45 30 -74c0 -27 -10 -51 -30 -71s-45 -30 -73 -30z" />
    <glyph glyph-name="uni0308" unicode="&#x308;" horiz-adv-x="0" 
d="M-165 666c0 -26 -9 -48 -26 -66c-18 -18 -40 -26 -67 -26s-48 8 -66 26c-17 18 -26 40 -26 66c0 27 9 49 26 67c18 17 40 26 66 26c27 0 48 -9 66 -26c18 -18 27 -40 27 -67zM77 666c0 -26 -8 -48 -26 -66s-40 -26 -67 -26s-49 8 -66 26s-26 40 -26 66c0 27 9 49 26 67
c18 17 40 26 66 26s49 -9 66 -26c18 -18 27 -40 27 -67z" />
    <glyph glyph-name="uni030A" unicode="&#x30a;" horiz-adv-x="0" 
d="M0 566c-40 0 -75 14 -104 41c-28 27 -43 60 -43 99s15 72 43 99c29 28 64 41 104 41s75 -13 104 -40c28 -27 43 -61 43 -100s-15 -72 -43 -99c-29 -27 -64 -41 -104 -41zM-38 744c-11 -10 -16 -23 -16 -38s5 -27 16 -38c10 -10 23 -15 38 -15s27 5 38 15
c10 11 15 23 15 38s-5 28 -15 38c-11 11 -23 16 -38 16s-28 -5 -38 -16z" />
    <glyph glyph-name="uni030B" unicode="&#x30b;" horiz-adv-x="0" 
d="M-253 580l104 182h179l-155 -182h-128zM-30 580l104 182h179l-154 -182h-129z" />
    <glyph glyph-name="uni030C" unicode="&#x30c;" horiz-adv-x="0" 
d="M82 581h-164l-117 176h142l57 -94l56 94h143z" />
    <glyph glyph-name="uni0312" unicode="&#x312;" horiz-adv-x="0" 
d="M77 862v-61c-54 -9 -85 -31 -93 -66c7 3 16 4 26 4c23 0 42 -8 57 -23s23 -34 23 -57c0 -24 -9 -44 -27 -61c-18 -16 -39 -24 -63 -24c-31 0 -55 11 -72 32s-25 48 -25 80c0 51 16 92 48 122c32 31 74 49 126 54z" />
    <glyph glyph-name="uni0326" unicode="&#x326;" horiz-adv-x="0" 
d="M-77 -365v60c49 10 83 26 93 67c-8 -2 -16 -4 -26 -4c-24 0 -43 7 -58 22s-22 35 -22 58c0 24 9 44 26 60c19 17 40 25 64 25c31 0 55 -11 72 -33c17 -21 25 -48 25 -80c0 -50 -16 -91 -48 -121c-33 -31 -74 -49 -126 -54z" />
    <glyph glyph-name="uni0327" unicode="&#x327;" horiz-adv-x="0" 
d="M122 -94c0 -52 -16 -90 -47 -114c-32 -23 -75 -35 -129 -35c-27 0 -50 3 -68 8v98c17 -3 34 -4 49 -4c53 0 80 33 80 88c0 18 -4 36 -12 53h106c14 -27 21 -58 21 -94z" />
    <glyph glyph-name="uni0328" unicode="&#x328;" horiz-adv-x="0" 
d="M16 -106c0 -13 6 -24 19 -30c12 -7 25 -11 40 -11c10 0 25 2 44 6v-93c-22 -9 -51 -13 -88 -13c-54 0 -100 12 -131 45c-15 17 -22 37 -22 61c0 49 34 96 102 141h142c-27 -14 -58 -33 -85 -64c-14 -16 -21 -30 -21 -42z" />
    <glyph glyph-name="Theta" unicode="&#x398;" horiz-adv-x="830" 
d="M415 -11c-70 0 -133 16 -191 50c-59 32 -104 77 -139 135c-34 58 -51 121 -51 191c0 69 17 132 52 190c34 58 81 104 139 137c59 33 123 49 192 49s133 -16 191 -49c57 -32 103 -77 137 -135c34 -57 51 -121 51 -190c0 -52 -10 -101 -30 -148c-21 -47 -47 -87 -81 -120
c-35 -34 -75 -61 -122 -80c-47 -20 -96 -30 -148 -30zM415 572c-110 2 -199 -99 -196 -206c-3 -107 86 -209 196 -207c110 -2 199 100 196 207c0 36 -8 70 -25 101c-16 32 -40 57 -71 76c-30 19 -63 29 -100 29zM295 295v145h242v-145h-242z" />
    <glyph glyph-name="uni03A9" unicode="&#x3a9;" horiz-adv-x="840" 
d="M454 0v203c42 8 78 31 106 67c27 35 41 75 41 119c0 50 -18 93 -53 128c-35 36 -78 53 -128 53s-93 -17 -128 -53c-35 -35 -53 -78 -53 -128c0 -44 14 -84 42 -119c28 -36 63 -59 105 -67v-203h-330v162h110c-36 24 -64 58 -84 103c-20 44 -30 89 -30 135
c-1 116 67 218 159 277c62 41 137 64 211 64c47 0 93 -9 137 -26c44 -18 83 -41 117 -71s61 -66 81 -109c21 -43 31 -88 31 -135c0 -46 -10 -91 -30 -135c-21 -45 -48 -79 -84 -103h110v-162h-330z" />
    <glyph glyph-name="theta" unicode="&#x3b8;" horiz-adv-x="704" 
d="M466 10c-35 -14 -74 -21 -115 -21s-80 7 -115 21c-35 13 -64 32 -89 56c-74 73 -112 184 -112 306c0 120 40 235 115 309c50 49 122 80 204 80c101 0 186 -46 237 -118s79 -165 79 -267c0 -81 -17 -157 -51 -222c-35 -66 -83 -116 -153 -144zM219 450h267
c-6 39 -19 73 -40 102s-54 48 -94 48c-82 0 -123 -78 -133 -150zM487 306h-270c6 -41 18 -76 40 -106c21 -31 55 -50 95 -50s75 20 96 51c22 31 34 67 39 105z" />
    <glyph glyph-name="pi" unicode="&#x3c0;" horiz-adv-x="731" 
d="M577 350v-152c0 -38 21 -58 64 -58c8 0 23 1 46 3v-137c-26 -10 -57 -14 -94 -14c-58 0 -104 16 -138 48c-34 33 -51 79 -51 140v170h-107v-350h-176v350h-100v147h666v-147h-110z" />
    <glyph glyph-name="uni0401" unicode="&#x401;" horiz-adv-x="637" 
d="M296 898c0 -27 -9 -48 -26 -66c-18 -18 -40 -27 -67 -27s-48 9 -66 27c-17 18 -26 39 -26 66s9 49 26 67c18 17 40 26 66 26c27 0 49 -9 67 -26c17 -18 26 -40 26 -67zM547 898c0 -27 -9 -48 -27 -66c-17 -18 -39 -27 -66 -27s-49 9 -66 27c-18 18 -26 39 -26 66
s8 49 26 67c18 17 40 26 66 26s49 -9 66 -26c18 -18 27 -40 27 -67zM257 447h298v-157h-298v-126h330v-164h-512v729h510v-163h-328v-119z" />
    <glyph glyph-name="uni0402" unicode="&#x402;" horiz-adv-x="803" 
d="M368 562v-136c52 28 107 42 166 42c74 0 133 -22 177 -67c45 -45 67 -111 67 -198c0 -89 -25 -160 -69 -204s-104 -67 -175 -67c-25 0 -54 3 -87 8v165h32c73 0 110 31 110 94c0 60 -42 97 -114 97c-39 0 -75 -10 -107 -29v-267h-183v562h-167v167h614v-167h-264z" />
    <glyph glyph-name="uni0403" unicode="&#x403;" horiz-adv-x="577" 
d="M240 793l104 183h188l-158 -183h-134zM561 560h-302v-560h-184v729h486v-169z" />
    <glyph glyph-name="uni0404" unicode="&#x404;" horiz-adv-x="787" 
d="M599 294l167 -52c-12 -46 -42 -108 -101 -161c-40 -34 -85 -63 -150 -80c-33 -8 -68 -12 -104 -12c-52 0 -101 10 -147 29c-47 19 -87 46 -120 79c-34 33 -60 73 -79 119c-20 47 -30 96 -30 149c0 51 10 100 29 145c18 46 45 86 78 120c33 35 73 61 121 81s99 30 153 30
c84 0 159 -25 209 -60c24 -17 46 -37 66 -61c39 -46 58 -88 70 -131l-166 -51c-7 28 -30 70 -71 101c-26 19 -67 33 -111 33c-42 0 -79 -12 -111 -35c-32 -24 -56 -56 -70 -94h258v-149h-260c14 -40 37 -72 69 -97s70 -37 114 -37c53 0 101 19 130 47s47 58 56 87z" />
    <glyph glyph-name="uni0405" unicode="&#x405;" horiz-adv-x="646" 
d="M332 -10c-88 0 -157 20 -209 63c-51 42 -83 98 -96 170l165 39c7 -55 39 -92 78 -107c19 -7 40 -11 63 -11c30 0 53 7 68 21c15 15 22 31 22 49c0 30 -21 50 -62 58l-101 19c-62 13 -111 37 -149 74c-37 38 -56 85 -56 141c0 67 32 129 81 170s117 65 188 65
c70 0 131 -18 171 -46c20 -14 37 -30 52 -49c29 -37 43 -75 48 -115l-161 -46c-9 62 -48 102 -111 102c-27 0 -47 -7 -62 -21s-23 -29 -23 -46c0 -33 18 -53 54 -60l105 -20c68 -13 120 -39 157 -78c36 -38 55 -86 55 -141c0 -59 -27 -116 -73 -160
c-46 -43 -120 -71 -204 -71z" />
    <glyph glyph-name="uni0406" unicode="&#x406;" horiz-adv-x="335" 
d="M75 729h185v-729h-185v729z" />
    <glyph glyph-name="uni0407" unicode="&#x407;" horiz-adv-x="335" 
d="M118 898c0 -27 -9 -48 -27 -66c-17 -18 -39 -27 -66 -27s-49 9 -66 27c-18 18 -26 39 -26 66s8 49 26 67c18 17 40 26 66 26s49 -9 66 -26c18 -18 27 -40 27 -67zM356 898c0 -27 -9 -48 -26 -66c-18 -18 -40 -27 -67 -27s-48 9 -66 27c-17 18 -26 39 -26 66s9 49 26 67
c18 17 40 26 66 26c27 0 49 -9 67 -26c17 -18 26 -40 26 -67zM75 729h185v-729h-185v729z" />
    <glyph glyph-name="uni0408" unicode="&#x408;" horiz-adv-x="607" 
d="M283 -10c-150 -3 -260 94 -259 249v80h176v-74c0 -55 33 -84 79 -84c45 0 74 33 74 81v487h186v-485c0 -78 -24 -140 -72 -186s-109 -68 -184 -68z" />
    <glyph glyph-name="uni0409" unicode="&#x409;" horiz-adv-x="1166" 
d="M744 472h139c73 0 135 -18 184 -55c48 -37 77 -98 77 -177c0 -165 -124 -240 -271 -240h-313v560h-197l-21 -229c-6 -70 -20 -130 -50 -189c-15 -29 -33 -55 -55 -76c-42 -42 -107 -70 -186 -70l-32 3v159c46 0 84 28 105 68s33 80 36 116l35 387h549v-257zM744 162h122
c64 0 95 27 95 80c0 48 -27 75 -96 75h-121v-155z" />
    <glyph glyph-name="uni040A" unicode="&#x40a;" horiz-adv-x="1145" 
d="M713 462h152c70 0 132 -17 180 -53s78 -97 78 -175c0 -166 -123 -234 -268 -234h-326v292h-270v-292h-184v729h184v-267h270v267h184v-267zM713 162h135c61 0 92 23 92 75c0 48 -31 73 -93 73h-134v-148z" />
    <glyph glyph-name="uni040B" unicode="&#x40b;" horiz-adv-x="811" 
d="M594 0v172c0 85 -35 124 -109 124c-49 0 -88 -10 -117 -29v-267h-183v562h-167v167h614v-167h-264v-136c52 28 107 42 166 42c71 0 129 -21 175 -63c46 -43 68 -98 68 -166v-239h-183z" />
    <glyph glyph-name="uni040C" unicode="&#x40c;" horiz-adv-x="712" 
d="M297 793l103 183h189l-159 -183h-133zM261 729v-313l225 313h216l-250 -346l268 -383h-229l-230 345v-345h-186v729h186z" />
    <glyph glyph-name="uni040E" unicode="&#x40e;" horiz-adv-x="687" 
d="M158 972l100 18c14 -47 43 -83 92 -83s77 36 91 83l101 -18c-7 -52 -27 -94 -62 -126c-34 -32 -78 -49 -130 -49c-53 0 -96 17 -131 50s-55 75 -61 125zM265 240l-267 489h206l159 -303l141 303h199l-251 -504c-9 -19 -17 -35 -23 -46s-15 -26 -26 -44s-21 -33 -31 -44
c-9 -11 -22 -22 -36 -35c-29 -26 -57 -38 -97 -48c-20 -5 -41 -8 -64 -8h-116v164h96c26 0 48 5 64 15c16 9 31 30 46 61z" />
    <glyph glyph-name="uni040F" unicode="&#x40f;" horiz-adv-x="778" 
d="M301 0h-226v729h184v-560h260v560h184v-729h-226v-153h-176v153z" />
    <glyph glyph-name="uni0410" unicode="&#x410;" horiz-adv-x="752" 
d="M273 729h207l280 -729h-195l-50 134h-281l-49 -134h-192zM462 290l-88 232l-87 -232h175z" />
    <glyph glyph-name="uni0411" unicode="&#x411;" horiz-adv-x="700" 
d="M256 459h157c72 0 134 -19 181 -54c47 -37 75 -97 75 -173c0 -166 -124 -232 -272 -232h-322v729h549v-162h-368v-108zM256 162h140c61 0 91 23 91 75c0 47 -31 71 -92 71h-139v-146z" />
    <glyph glyph-name="uni0412" unicode="&#x412;" horiz-adv-x="689" 
d="M655 206c0 -143 -125 -206 -260 -206h-320v729h316c71 0 141 -24 184 -68c31 -32 49 -77 49 -125c0 -72 -44 -126 -116 -156v-3c46 -7 82 -27 108 -58s39 -69 39 -113zM441 507c0 43 -31 65 -84 65h-103v-132h105c53 0 82 25 82 67zM472 227c0 22 -8 39 -24 51
s-36 17 -59 17h-135v-137h135c49 0 83 25 83 69z" />
    <glyph glyph-name="uni0413" unicode="&#x413;" horiz-adv-x="576" 
d="M561 560h-302v-560h-184v729h486v-169z" />
    <glyph glyph-name="uni0414" unicode="&#x414;" horiz-adv-x="878" 
d="M13 165h3c49 0 92 32 120 81c27 49 45 109 51 172l28 311h548v-560h76v-322h-177v153h-472v-153h-177v318zM381 560l-15 -163c-3 -45 -7 -70 -19 -114c-12 -43 -34 -82 -66 -114h299v391h-199z" />
    <glyph glyph-name="uni0415" unicode="&#x415;" horiz-adv-x="637" 
d="M257 447h298v-157h-298v-126h330v-164h-512v729h510v-163h-328v-119z" />
    <glyph glyph-name="uni0416" unicode="&#x416;" horiz-adv-x="1086" 
d="M5 729h211l231 -342l3 1v341h185v-342h4l231 342h211l-242 -357l249 -372h-218l-231 354h-4v-354h-185v354h-2l-232 -354h-218l249 372z" />
    <glyph glyph-name="uni0417" unicode="&#x417;" horiz-adv-x="649" 
d="M320 -11c-88 0 -164 30 -213 76c-48 46 -77 105 -83 168l170 27c1 -33 14 -60 36 -82c23 -23 51 -33 85 -33c33 0 59 9 80 28c20 19 30 41 30 66c0 23 -10 44 -27 62c-18 18 -42 27 -73 27c-21 1 -47 -6 -75 -19l-81 118l192 143h-311v159h537v-157l-162 -120
c55 -10 98 -35 132 -76c34 -40 51 -86 51 -137c0 -79 -35 -145 -95 -190c-53 -40 -118 -60 -193 -60z" />
    <glyph glyph-name="uni0418" unicode="&#x418;" horiz-adv-x="799" 
d="M518 729h206v-729h-182v441h-1l-260 -441h-206v729h182v-440h1z" />
    <glyph glyph-name="uni0419" unicode="&#x419;" horiz-adv-x="799" 
d="M208 972l100 18c14 -47 42 -83 92 -83c48 0 77 36 90 83l102 -18c-7 -52 -27 -94 -62 -126s-78 -49 -131 -49c-52 0 -95 17 -130 50s-56 75 -61 125zM518 729h206v-729h-182v441h-1l-260 -441h-206v729h182v-440h1z" />
    <glyph glyph-name="uni041A" unicode="&#x41a;" horiz-adv-x="711" 
d="M260 729v-313l225 313h216l-250 -346l268 -383h-229l-230 345v-345h-185v729h185z" />
    <glyph glyph-name="uni041B" unicode="&#x41b;" horiz-adv-x="819" 
d="M20 -1v159c45 0 83 28 105 68c21 40 33 80 36 116l35 387h548v-729h-184v560h-197l-20 -229c-15 -169 -89 -335 -292 -335z" />
    <glyph glyph-name="uni041C" unicode="&#x41c;" horiz-adv-x="980" 
d="M253 458h-2v-458h-176v729h236l179 -447l171 447h244v-729h-180v464h-1l-178 -464h-113z" />
    <glyph glyph-name="uni041D" unicode="&#x41d;" horiz-adv-x="788" 
d="M75 729h184v-275h270v275h184v-729h-184v284h-270v-284h-184v729z" />
    <glyph glyph-name="uni041E" unicode="&#x41e;" horiz-adv-x="831" 
d="M35 365c0 69 17 132 51 190s81 104 140 137s122 49 191 49s133 -16 191 -49c58 -32 104 -77 138 -135c34 -57 50 -121 50 -190c0 -52 -10 -101 -30 -148s-47 -87 -81 -120c-34 -34 -75 -61 -121 -80c-47 -20 -97 -30 -149 -30c-69 0 -133 16 -191 50
c-58 32 -104 77 -138 135s-51 121 -51 191zM222 366c0 -55 19 -103 56 -144c37 -40 83 -61 138 -61c54 0 100 21 138 61c36 41 55 89 55 144c3 106 -85 206 -193 204c-36 0 -69 -10 -99 -29s-53 -44 -70 -75s-25 -64 -25 -100z" />
    <glyph glyph-name="uni041F" unicode="&#x41f;" horiz-adv-x="778" 
d="M75 729h628v-729h-184v560h-260v-560h-184v729z" />
    <glyph glyph-name="uni0420" unicode="&#x420;" horiz-adv-x="655" 
d="M75 729h285c79 0 145 -19 195 -58c49 -38 78 -100 78 -179c0 -80 -31 -144 -83 -182c-52 -39 -120 -59 -200 -59h-91v-251h-184v729zM259 408h87c67 0 103 27 103 77c0 52 -31 83 -104 83h-86v-160z" />
    <glyph glyph-name="uni0421" unicode="&#x421;" horiz-adv-x="785" 
d="M411 -11c-52 0 -101 10 -147 29c-47 19 -87 46 -120 79c-34 33 -60 73 -79 119c-20 47 -30 96 -30 149c0 51 10 100 29 145c18 46 45 86 78 120c33 35 73 61 121 81c47 20 98 30 153 30c84 0 160 -25 209 -61c25 -17 48 -38 67 -61c39 -47 58 -89 70 -132l-172 -53
c-6 27 -28 70 -68 101c-25 19 -65 34 -109 34c-54 0 -100 -20 -136 -59c-36 -40 -54 -87 -54 -144c0 -56 18 -104 53 -143c35 -40 81 -60 137 -60c53 0 100 20 128 48c28 29 45 58 53 87l172 -54c-9 -39 -28 -82 -68 -129c-20 -23 -43 -44 -69 -62
c-52 -37 -131 -64 -218 -64z" />
    <glyph glyph-name="uni0422" unicode="&#x422;" horiz-adv-x="628" 
d="M16 729h596v-167h-206v-562h-184v562h-206v167z" />
    <glyph glyph-name="uni0423" unicode="&#x423;" horiz-adv-x="687" 
d="M703 729l-251 -504c-9 -19 -17 -35 -23 -46s-15 -26 -26 -44s-21 -33 -31 -44c-9 -11 -22 -22 -36 -35c-29 -26 -57 -38 -97 -48c-20 -5 -41 -8 -64 -8h-116v164h96c26 0 48 5 64 15c16 9 31 30 46 61l-267 489h206l159 -303l141 303h199z" />
    <glyph glyph-name="uni0424" unicode="&#x424;" horiz-adv-x="958" 
d="M387 -23v78c-97 0 -179 26 -233 67c-28 21 -51 45 -69 73c-39 55 -55 115 -55 179c0 100 41 182 107 233s153 79 250 79v66h184v-66c97 0 184 -28 250 -79s107 -133 107 -233c1 -93 -40 -189 -123 -252c-55 -41 -138 -67 -234 -67v-78h-184zM387 220v301
c-52 0 -93 -13 -124 -41c-32 -27 -47 -64 -47 -109c0 -47 16 -84 48 -111c32 -26 73 -40 123 -40zM571 521v-301c50 0 91 14 124 40c31 27 47 64 47 111c0 45 -15 82 -46 109c-31 28 -73 41 -125 41z" />
    <glyph glyph-name="uni0425" unicode="&#x425;" horiz-adv-x="714" 
d="M8 729h212l140 -215l139 215h206l-239 -355l253 -374h-212l-151 231l-152 -231h-209l255 373z" />
    <glyph glyph-name="uni0426" unicode="&#x426;" horiz-adv-x="818" 
d="M75 0v729h184v-560h260v560h184v-560h76v-322h-177v153h-527z" />
    <glyph glyph-name="uni0427" unicode="&#x427;" horiz-adv-x="734" 
d="M475 0v280c-22 -10 -40 -19 -56 -25c-16 -7 -37 -14 -62 -20c-25 -5 -48 -9 -71 -9c-40 0 -76 5 -121 26c-23 10 -43 23 -60 40c-33 33 -60 96 -60 174v263h185v-218c0 -76 31 -113 94 -113c26 0 54 4 81 12c28 8 51 20 70 34v285h184v-729h-184z" />
    <glyph glyph-name="uni0428" unicode="&#x428;" horiz-adv-x="1160" 
d="M488 729h184v-560h229v560h184v-729h-1010v729h184v-560h229v560z" />
    <glyph glyph-name="uni0429" unicode="&#x429;" horiz-adv-x="1200" 
d="M75 729h184v-560h229v560h184v-560h229v560h184v-560h76v-322h-176v153h-910v729z" />
    <glyph glyph-name="uni042A" unicode="&#x42a;" horiz-adv-x="785" 
d="M353 472h148c73 0 135 -18 184 -55c48 -37 77 -98 77 -177c0 -165 -124 -240 -271 -240h-322v567h-150v162h334v-257zM353 162h131c63 0 95 27 95 80c0 48 -27 75 -96 75h-130v-155z" />
    <glyph glyph-name="uni042B" unicode="&#x42b;" horiz-adv-x="1030" 
d="M259 472h148c73 0 135 -18 184 -55s77 -98 77 -177c0 -165 -123 -240 -271 -240h-322v729h184v-257zM770 729h185v-729h-185v729zM259 162h131c64 0 95 27 95 80c0 48 -27 75 -95 75h-131v-155z" />
    <glyph glyph-name="uni042C" unicode="&#x42c;" horiz-adv-x="691" 
d="M259 472h148c73 0 135 -18 184 -55s77 -98 77 -177c0 -165 -123 -240 -271 -240h-322v729h184v-257zM259 162h131c64 0 95 27 95 80c0 48 -27 75 -95 75h-131v-155z" />
    <glyph glyph-name="uni042D" unicode="&#x42d;" horiz-adv-x="787" 
d="M378 741c53 0 104 -10 151 -30c46 -20 86 -46 119 -80c65 -68 104 -162 104 -264c0 -53 -10 -103 -29 -150c-20 -47 -46 -87 -80 -120c-33 -33 -73 -60 -120 -79s-97 -29 -150 -29c-85 0 -163 26 -214 63c-26 18 -49 39 -69 62c-40 46 -60 88 -69 128l167 52
c9 -29 27 -59 57 -87s77 -47 131 -47c44 0 82 12 114 37c31 24 54 57 66 97h-259v149h258c-14 38 -37 70 -69 94c-31 23 -68 35 -110 35c-116 0 -172 -87 -185 -134l-166 51c12 42 33 86 74 131c20 23 42 44 68 61c51 36 128 60 211 60z" />
    <glyph glyph-name="uni042E" unicode="&#x42e;" horiz-adv-x="1139" 
d="M736 741c52 0 100 -9 146 -29c46 -19 85 -46 117 -79s58 -73 76 -119c19 -47 28 -96 28 -148c0 -70 -16 -133 -47 -191c-32 -58 -76 -103 -132 -136s-119 -50 -188 -50c-92 0 -171 28 -238 83s-108 128 -125 216h-113v-288h-185v729h185v-283h114c17 85 63 160 126 212
s147 83 236 83zM736 160c36 0 69 10 97 29c27 19 49 44 63 76c15 30 22 64 22 101c0 73 -29 138 -85 176c-28 19 -61 29 -97 29c-55 0 -99 -19 -132 -57c-34 -39 -51 -88 -51 -148c-2 -107 73 -207 183 -206z" />
    <glyph glyph-name="uni042F" unicode="&#x42f;" horiz-adv-x="691" 
d="M27 0l153 287c-85 34 -135 103 -135 209c0 154 112 235 272 233h299v-729h-183v256h-77l-134 -256h-195zM433 570h-101c-71 0 -103 -32 -103 -84c0 -47 36 -73 102 -73h102v157z" />
    <glyph glyph-name="uni0430" unicode="&#x430;" horiz-adv-x="558" 
d="M264 373c-37 0 -67 -22 -74 -54l-148 32c9 54 43 98 86 122c44 23 92 36 142 36c89 0 160 -29 203 -91c21 -32 32 -70 32 -114v-224c0 -30 1 -57 4 -80h-169c-3 15 -4 35 -4 58l-2 1c-39 -46 -89 -69 -150 -69c-43 0 -78 15 -108 43c-29 27 -44 62 -44 104
c0 72 47 114 108 136c41 15 83 21 128 21h26c22 0 36 11 36 30c0 27 -24 49 -66 49zM254 113c44 0 76 27 76 71v15h-62c-15 0 -29 -4 -41 -11c-12 -8 -18 -18 -18 -33c0 -23 21 -42 45 -42z" />
    <glyph glyph-name="uni0431" unicode="&#x431;" horiz-adv-x="624" 
d="M180 401l3 -1c46 58 107 87 183 87c64 0 118 -22 161 -66s65 -99 65 -164c0 -80 -25 -144 -76 -194c-51 -49 -117 -74 -201 -74s-150 26 -199 80c-49 53 -74 130 -74 231c0 47 1 74 7 121c3 23 7 44 12 61c10 36 28 81 54 113c25 32 63 67 110 91s110 45 186 58l122 19
l23 -147l-131 -24c-73 -14 -124 -32 -159 -55c-25 -17 -40 -28 -52 -47c-13 -18 -19 -29 -24 -47c-6 -19 -7 -25 -10 -42zM218 253c0 -30 9 -54 27 -75c18 -20 41 -30 71 -30c29 0 54 10 73 29c18 20 27 44 27 73c0 30 -9 54 -27 74c-18 19 -43 29 -73 29
c-29 0 -52 -10 -71 -29c-18 -19 -27 -43 -27 -71z" />
    <glyph glyph-name="uni0432" unicode="&#x432;" horiz-adv-x="594" 
d="M58 497h320c58 0 109 -16 142 -55c16 -19 24 -42 24 -69c0 -52 -31 -94 -82 -112v-1c65 -17 98 -58 98 -123c0 -47 -19 -82 -56 -106c-34 -21 -77 -31 -131 -31h-315v497zM232 302h93c29 0 44 15 44 38c0 19 -14 33 -43 33h-94v-71zM232 126h100c33 0 51 16 51 40
c0 23 -18 38 -54 38h-97v-78z" />
    <glyph glyph-name="uni0433" unicode="&#x433;" horiz-adv-x="474" 
d="M458 350h-223v-350h-177v497h400v-147z" />
    <glyph glyph-name="uni0434" unicode="&#x434;" horiz-adv-x="699" 
d="M499 -153v153h-313v-153h-161v298c31 0 53 14 67 43c14 28 22 62 26 109l19 200h459v-352h64v-298h-161zM424 351h-132c-2 -22 -4 -40 -6 -54s-5 -32 -10 -52c-9 -42 -25 -75 -48 -100h196v206z" />
    <glyph glyph-name="uni0435" unicode="&#x435;" horiz-adv-x="581" 
d="M548 204h-345c5 -24 17 -43 36 -56c18 -14 40 -21 65 -21c36 0 68 19 87 50l146 -51c-42 -93 -129 -137 -237 -137c-48 0 -93 11 -134 34c-41 22 -74 53 -98 93c-25 40 -37 84 -37 134c0 47 12 91 36 131c24 39 57 71 97 94c41 22 85 33 132 33s90 -11 129 -33
c39 -21 70 -51 92 -90s33 -82 33 -129c0 -21 0 -38 -2 -52zM293 373c-20 0 -39 -7 -56 -20c-17 -14 -27 -31 -32 -51h173c-6 44 -39 71 -85 71z" />
    <glyph glyph-name="uni0436" unicode="&#x436;" horiz-adv-x="893" 
d="M880 497l-155 -241l161 -256h-202l-145 241h-4v-241h-178v241h-3l-145 -241h-202l160 256l-154 241h197l145 -230h2v230h178v-230h3l145 230h197z" />
    <glyph glyph-name="uni0437" unicode="&#x437;" horiz-adv-x="510" 
d="M473 168c0 -58 -26 -105 -70 -136c-42 -29 -94 -43 -155 -43c-50 -1 -115 18 -163 61c-31 27 -55 72 -59 124l144 29c6 -60 50 -71 69 -71c31 0 59 17 59 44c0 26 -17 39 -51 39c-15 0 -32 -2 -50 -8l-34 87l114 66l-1 3l-107 -3h-124v137h415v-126l-107 -61
c96 -20 120 -97 120 -142z" />
    <glyph glyph-name="uni0438" unicode="&#x438;" horiz-adv-x="618" 
d="M230 497v-238l2 -1l158 239h170v-497h-173v244l-2 1l-161 -245h-166v497h172z" />
    <glyph glyph-name="uni0439" unicode="&#x439;" horiz-adv-x="618" 
d="M117 752l100 18c14 -48 43 -83 92 -83c48 0 77 35 91 83l101 -19c-7 -51 -27 -93 -62 -126c-34 -32 -78 -48 -131 -48c-52 0 -95 17 -130 50s-56 75 -61 125zM230 497v-238l2 -1l158 239h170v-497h-173v244l-2 1l-161 -245h-166v497h172z" />
    <glyph glyph-name="uni043A" unicode="&#x43a;" horiz-adv-x="611" 
d="M58 497h177v-227h3l169 227h202l-187 -240l191 -257h-208l-166 232h-4v-232h-177v497z" />
    <glyph glyph-name="uni043B" unicode="&#x43b;" horiz-adv-x="647" 
d="M22 -1v143c50 0 79 41 85 106l22 249h460v-497h-177v350h-125l-10 -110c-7 -75 -32 -146 -82 -194c-33 -30 -85 -50 -146 -50z" />
    <glyph glyph-name="uni043C" unicode="&#x43c;" horiz-adv-x="786" 
d="M231 283h-2v-283h-171v497h223l114 -273l108 273h225v-497h-172v293h-1l-115 -293h-93z" />
    <glyph glyph-name="uni043D" unicode="&#x43d;" horiz-adv-x="611" 
d="M58 497h177v-178h141v178h177v-497h-177v177h-141v-177h-177v497z" />
    <glyph glyph-name="uni043E" unicode="&#x43e;" horiz-adv-x="610" 
d="M31 248c0 73 33 142 84 187c50 45 120 73 192 73s141 -27 191 -71c49 -44 81 -112 81 -185c0 -74 -32 -143 -82 -189s-120 -74 -194 -74c-73 0 -143 27 -192 72s-80 113 -80 187zM236 320c-18 -20 -27 -43 -27 -70c0 -28 9 -51 28 -71c18 -21 42 -31 68 -31
c27 0 50 10 69 31c18 20 27 43 27 71c0 27 -9 50 -27 70c-19 20 -42 30 -69 30s-50 -10 -69 -30z" />
    <glyph glyph-name="uni043F" unicode="&#x43f;" horiz-adv-x="607" 
d="M58 0v497h491v-497h-177v351h-138v-351h-176z" />
    <glyph glyph-name="uni0440" unicode="&#x440;" horiz-adv-x="645" 
d="M377 -10c-58 0 -104 23 -138 69h-4v-304h-177v742h176v-60h3c33 44 88 70 143 70c45 0 85 -12 121 -36s63 -56 83 -95c19 -39 29 -81 29 -127c0 -66 -24 -130 -64 -179c-40 -48 -103 -80 -172 -80zM234 250c0 -28 9 -52 29 -72c19 -20 42 -30 70 -30c27 0 50 10 70 30
c19 20 29 44 29 72c0 27 -10 50 -29 70c-20 20 -43 30 -70 30c-28 0 -51 -10 -70 -30c-20 -20 -29 -43 -29 -70z" />
    <glyph glyph-name="uni0441" unicode="&#x441;" horiz-adv-x="572" 
d="M304 -11c-50 0 -96 11 -137 32c-42 22 -75 53 -99 93c-24 39 -37 84 -37 135c0 73 33 141 83 186c49 45 119 74 191 74c75 0 143 -26 192 -79c25 -27 41 -59 49 -95l-156 -47c-13 38 -45 61 -85 61c-27 0 -50 -9 -68 -29c-17 -19 -27 -42 -27 -70s9 -52 26 -71
c17 -20 40 -29 69 -29c39 0 73 24 88 61l156 -47c-31 -112 -132 -177 -245 -175z" />
    <glyph glyph-name="uni0442" unicode="&#x442;" horiz-adv-x="516" 
d="M17 497h482v-147h-151v-350h-180v350h-151v147z" />
    <glyph glyph-name="uni0443" unicode="&#x443;" horiz-adv-x="599" 
d="M311 243h1l94 254h187l-303 -742h-189l119 293l-217 449h194z" />
    <glyph glyph-name="uni0444" unicode="&#x444;" horiz-adv-x="872" 
d="M347 -227v252c-33 -21 -67 -31 -101 -31c-149 0 -213 127 -212 257c0 124 61 252 213 252c36 0 69 -11 100 -34v260h178v-260c25 18 63 34 100 34c152 0 213 -127 213 -254c0 -126 -63 -255 -212 -255c-34 0 -67 10 -101 31v-252h-178zM214 249c0 -28 8 -51 23 -70
s37 -29 66 -29c17 0 32 3 44 9v179c-14 7 -29 10 -44 10c-26 0 -48 -10 -64 -29c-17 -20 -25 -43 -25 -70zM658 250c0 26 -8 50 -24 69c-17 20 -39 29 -64 29c-16 0 -31 -3 -45 -10v-179c13 -6 27 -9 45 -9c28 0 50 10 65 29s23 43 23 71z" />
    <glyph glyph-name="uni0445" unicode="&#x445;" horiz-adv-x="586" 
d="M7 497h198l90 -130l90 130h195l-184 -247l187 -250h-199l-92 134l-92 -134h-196l186 251z" />
    <glyph glyph-name="uni0446" unicode="&#x446;" horiz-adv-x="651" 
d="M58 0v497h177v-352h137v352h177v-352h64v-298h-162v153h-393z" />
    <glyph glyph-name="uni0447" unicode="&#x447;" horiz-adv-x="580" 
d="M345 0v152c-35 -15 -80 -23 -132 -23s-95 16 -128 47c-34 31 -50 72 -50 124v197h178v-150c0 -47 18 -70 56 -70c31 0 57 7 76 20v200h177v-497h-177z" />
    <glyph glyph-name="uni0448" unicode="&#x448;" horiz-adv-x="904" 
d="M363 497h177v-352h128v352h177v-497h-787v497h177v-352h128v352z" />
    <glyph glyph-name="uni0449" unicode="&#x449;" horiz-adv-x="948" 
d="M58 0v497h177v-352h128v352h177v-352h128v352h177v-352h64v-298h-161v153h-690z" />
    <glyph glyph-name="uni044A" unicode="&#x44a;" horiz-adv-x="663" 
d="M318 359h112c69 0 122 -16 159 -49c36 -32 55 -75 55 -128s-18 -97 -53 -131s-86 -51 -154 -51h-296v353h-123v144h300v-138zM318 128h85c55 0 63 34 63 55c0 27 -17 50 -64 50h-84v-105z" />
    <glyph glyph-name="uni044B" unicode="&#x44b;" horiz-adv-x="875" 
d="M235 359h112c69 0 123 -16 159 -49c37 -32 55 -75 55 -128s-17 -97 -52 -131s-86 -51 -154 -51h-297v497h177v-138zM638 0v497h178v-497h-178zM235 128h85c42 0 63 18 63 55c0 27 -17 50 -64 50h-84v-105z" />
    <glyph glyph-name="uni044C" unicode="&#x44c;" horiz-adv-x="580" 
d="M235 359h112c69 0 123 -16 159 -49c37 -32 55 -75 55 -128s-17 -97 -52 -131s-86 -51 -154 -51h-297v497h177v-138zM235 128h85c42 0 63 18 63 55c0 27 -17 50 -64 50h-84v-105z" />
    <glyph glyph-name="uni044D" unicode="&#x44d;" horiz-adv-x="567" 
d="M265 509c50 0 95 -11 137 -34c41 -22 74 -52 98 -92c24 -39 36 -84 36 -133c0 -50 -12 -95 -37 -135c-24 -40 -58 -71 -99 -93s-87 -33 -138 -33c-57 0 -106 14 -149 43c-43 28 -74 68 -91 119l141 44c21 -40 55 -59 101 -59c47 0 82 26 98 66h-141v95h141
c-17 40 -52 66 -97 66c-44 0 -81 -20 -100 -58l-140 45c32 100 135 160 240 159z" />
    <glyph glyph-name="uni044E" unicode="&#x44e;" horiz-adv-x="876" 
d="M582 508c48 0 92 -11 132 -33s72 -53 96 -92c23 -40 35 -84 35 -133c0 -75 -30 -143 -77 -188c-48 -46 -116 -73 -190 -73c-62 0 -116 17 -163 51c-46 34 -77 79 -92 136h-87v-176h-178v497h178v-176h87c16 56 47 101 96 136c47 34 102 51 163 51zM580 148
c27 0 48 10 64 30s23 44 23 72s-7 51 -23 71c-16 19 -37 29 -64 29c-28 0 -50 -10 -65 -28c-16 -19 -24 -43 -24 -72c0 -28 8 -52 25 -72c16 -20 38 -30 64 -30z" />
    <glyph glyph-name="uni044F" unicode="&#x44f;" horiz-adv-x="609" 
d="M19 0l127 187c-69 29 -104 77 -104 143c0 49 19 89 58 120s86 47 144 47h306v-497h-175v149h-65l-94 -149h-197zM375 364h-95c-45 0 -61 -21 -61 -47c0 -25 17 -46 61 -46h95v93z" />
    <glyph glyph-name="uni0451" unicode="&#x451;" horiz-adv-x="581" 
d="M269 666c0 -26 -9 -48 -27 -66c-17 -18 -39 -26 -66 -26s-49 8 -66 26c-18 18 -26 40 -26 66c0 27 8 49 26 67c18 17 40 26 66 26s49 -9 66 -26c18 -18 27 -40 27 -67zM511 666c0 -26 -9 -48 -26 -66c-18 -18 -40 -26 -67 -26s-49 8 -66 26s-26 40 -26 66
c0 27 9 49 26 67c18 17 39 26 66 26c26 0 48 -9 66 -26c18 -18 27 -40 27 -67zM548 204h-345c5 -24 17 -43 36 -56c18 -14 40 -21 65 -21c36 0 68 19 87 50l146 -51c-42 -93 -129 -137 -237 -137c-48 0 -93 11 -134 34c-41 22 -74 53 -98 93c-25 40 -37 84 -37 134
c0 47 12 91 36 131c24 39 57 71 97 94c41 22 85 33 132 33s90 -11 129 -33c39 -21 70 -51 92 -90s33 -82 33 -129c0 -21 0 -38 -2 -52zM293 373c-20 0 -39 -7 -56 -20c-17 -14 -27 -31 -32 -51h173c-6 44 -39 71 -85 71z" />
    <glyph glyph-name="uni0452" unicode="&#x452;" horiz-adv-x="595" 
d="M290 -235v144c4 -1 9 -1 15 -1c43 0 70 30 70 84v278c0 21 -6 39 -18 54c-12 14 -29 21 -50 21c-43 0 -72 -28 -72 -75v-270h-177v566h-68v118h68v74h177v-74h141v-118h-141v-127h1c37 46 91 68 142 68c131 0 174 -110 174 -206v-361c0 -58 -15 -103 -45 -136
c-31 -34 -73 -50 -126 -50c-30 0 -60 4 -91 11z" />
    <glyph glyph-name="uni0453" unicode="&#x453;" horiz-adv-x="474" 
d="M165 580l104 182h188l-159 -182h-133zM458 350h-223v-350h-177v497h400v-147z" />
    <glyph glyph-name="uni0454" unicode="&#x454;" horiz-adv-x="567" 
d="M404 195l141 -44c-17 -51 -48 -91 -91 -119c-44 -29 -94 -43 -150 -43c-75 0 -145 27 -194 72s-79 112 -79 188c0 48 13 92 38 133c25 40 59 71 101 93c41 23 87 34 135 34c55 0 105 -14 148 -42c43 -27 73 -67 89 -117l-141 -45c-19 39 -51 58 -96 58s-83 -27 -100 -66
h141v-95h-141c16 -40 53 -66 100 -66c45 0 78 19 99 59z" />
    <glyph glyph-name="uni0455" unicode="&#x455;" horiz-adv-x="496" 
d="M246 509c68 0 125 -20 157 -49s49 -61 51 -92l-144 -27c-5 32 -30 44 -58 44c-31 0 -45 -17 -45 -32c0 -14 9 -23 28 -26l70 -15c43 -8 78 -24 109 -47c31 -25 50 -62 50 -106s-20 -85 -54 -118c-35 -32 -92 -52 -160 -52c-65 0 -119 16 -150 38c-16 10 -30 23 -40 38
c-22 28 -30 52 -32 76l143 28c4 -34 33 -54 71 -54c37 0 52 18 52 34s-15 26 -45 32l-54 11c-42 9 -76 22 -105 45c-30 23 -48 59 -48 103c0 47 20 87 59 120c40 32 89 49 145 49z" />
    <glyph glyph-name="uni0456" unicode="&#x456;" horiz-adv-x="295" 
d="M147 564c-28 0 -52 10 -72 30c-21 20 -31 44 -31 71c0 29 10 54 31 74c20 20 44 30 72 30c29 0 53 -10 73 -30c20 -21 30 -45 30 -74c0 -27 -10 -51 -30 -71s-44 -30 -73 -30zM58 0v497h178v-497h-178z" />
    <glyph glyph-name="uni0457" unicode="&#x457;" horiz-adv-x="296" 
d="M122 666c0 -26 -9 -48 -27 -66c-17 -18 -39 -26 -66 -26s-49 8 -66 26c-18 18 -26 40 -26 66c0 27 8 49 26 67c18 17 40 26 66 26s49 -9 66 -26c18 -18 27 -40 27 -67zM359 666c0 -26 -9 -48 -26 -66c-18 -18 -40 -26 -67 -26c-26 0 -48 8 -66 26c-17 18 -26 40 -26 66
c0 27 9 49 26 67c18 17 40 26 66 26c27 0 49 -9 67 -26c17 -18 26 -40 26 -67zM58 0v497h180v-497h-180z" />
    <glyph glyph-name="uni0458" unicode="&#x458;" horiz-adv-x="302" 
d="M155 564c-28 0 -52 10 -72 30c-21 20 -31 44 -31 71c0 29 10 54 31 74c20 20 44 30 72 30c29 0 54 -10 74 -30c20 -21 30 -45 30 -74c0 -27 -10 -51 -30 -71s-45 -30 -74 -30zM65 -39v536h179v-541c0 -60 -17 -109 -50 -146c-34 -37 -83 -55 -147 -55c-20 0 -40 1 -58 5
c-18 3 -30 6 -35 9v139c14 -3 28 -5 43 -5c46 0 68 19 68 58z" />
    <glyph glyph-name="uni0459" unicode="&#x459;" horiz-adv-x="935" 
d="M287 350l-10 -110c-7 -75 -32 -146 -82 -194c-33 -30 -85 -50 -146 -50l-27 3v143c50 0 79 41 85 106l22 249h460v-138h112c69 0 123 -16 159 -49c37 -32 55 -75 55 -128s-17 -97 -52 -131s-86 -51 -154 -51h-297v350h-125zM589 128h85c42 0 63 18 63 55
c0 27 -17 50 -64 50h-84v-105z" />
    <glyph glyph-name="uni045A" unicode="&#x45a;" horiz-adv-x="899" 
d="M58 0v497h177v-144h142v144h177v-144h111c70 0 123 -16 160 -47c36 -31 55 -74 55 -126c0 -53 -18 -97 -53 -130s-86 -50 -154 -50h-296v211h-142v-211h-177zM554 128h85c42 0 63 17 63 52c0 26 -17 47 -64 47h-84v-99z" />
    <glyph glyph-name="uni045B" unicode="&#x45b;" 
d="M378 507c131 0 174 -110 174 -206v-301h-177v270c0 21 -6 39 -18 54c-12 14 -29 21 -50 21c-43 0 -72 -28 -72 -75v-270h-177v566h-68v118h68v74h177v-74h141v-118h-141v-127h1c37 46 91 68 142 68z" />
    <glyph glyph-name="uni045C" unicode="&#x45c;" horiz-adv-x="611" 
d="M254 580l103 182h188l-158 -182h-133zM58 497h178v-227h3l168 227h202l-187 -240l192 -257h-209l-165 232h-4v-232h-178v497z" />
    <glyph glyph-name="uni045E" unicode="&#x45e;" horiz-adv-x="599" 
d="M110 752l100 18c15 -48 43 -83 92 -83s78 35 92 83l101 -19c-7 -51 -28 -93 -62 -126c-35 -32 -78 -48 -131 -48c-52 0 -96 17 -131 50s-55 75 -61 125zM220 48l-217 449h194l114 -254h1l94 254h187l-303 -742h-189z" />
    <glyph glyph-name="uni045F" unicode="&#x45f;" horiz-adv-x="607" 
d="M223 0h-165v497h177v-352h137v352h177v-497h-165v-153h-161v153z" />
    <glyph glyph-name="uni0490" unicode="&#x490;" horiz-adv-x="576" 
d="M384 884h177v-324h-302v-560h-184v729h309v155z" />
    <glyph glyph-name="uni0491" unicode="&#x491;" horiz-adv-x="474" 
d="M58 497h239v157h161v-304h-223v-350h-177v497z" />
    <glyph glyph-name="uni0496" unicode="&#x496;" horiz-adv-x="1113" 
d="M1088 -153h-176v153h-42l-231 354h-4v-354h-185v354h-2l-232 -354h-218l249 372l-242 357h211l231 -342l3 1v341h185v-342h4l231 342h211l-242 -357l136 -203h113v-322z" />
    <glyph glyph-name="uni0497" unicode="&#x497;" horiz-adv-x="915" 
d="M886 -153h-161v153h-41l-145 241h-4v-241h-178v241h-3l-145 -241h-202l160 256l-154 241h197l145 -230h2v230h178v-230h3l145 230h197l-155 -241l70 -111h91v-298z" />
    <glyph glyph-name="uni0498" unicode="&#x498;" horiz-adv-x="649" 
d="M408 -153h-176v153c-41 10 -77 27 -108 51s-54 52 -71 84c-16 30 -26 63 -29 98l170 27c1 -33 14 -60 36 -82c23 -23 51 -33 85 -33c33 0 59 9 80 28c20 19 30 41 30 66c0 23 -10 44 -27 62c-18 18 -42 27 -73 27c-21 1 -47 -6 -75 -19l-81 118l192 143h-311v159h537
v-157l-162 -120c55 -10 98 -35 132 -76c34 -40 51 -86 51 -137c0 -79 -35 -145 -95 -190c-30 -22 -65 -39 -105 -49v-153z" />
    <glyph glyph-name="uni0499" unicode="&#x499;" horiz-adv-x="510" 
d="M473 168c0 -58 -26 -105 -70 -136c-21 -14 -46 -25 -74 -33v-152h-160v155c-39 13 -71 33 -97 62c-27 29 -42 65 -46 110l144 29c6 -60 50 -71 69 -71c31 0 59 17 59 44c0 26 -17 39 -51 39c-15 0 -32 -2 -50 -8l-34 87l114 66l-2 3l-105 -3h-125v137h415v-126l-107 -61
c96 -20 120 -97 120 -142z" />
    <glyph glyph-name="uni049A" unicode="&#x49a;" horiz-adv-x="740" 
d="M719 -153h-176v153h-53l-230 345v-345h-185v729h185v-313l225 313h216l-250 -346l149 -214h119v-322z" />
    <glyph glyph-name="uni049B" unicode="&#x49b;" horiz-adv-x="634" 
d="M613 -153h-162v153h-46l-166 232h-4v-232h-177v497h177v-227h3l169 227h202l-187 -240l83 -112h108v-298z" />
    <glyph glyph-name="uni04A2" unicode="&#x4a2;" horiz-adv-x="828" 
d="M789 -153h-177v153h-83v284h-270v-284h-184v729h184v-275h270v275h184v-560h76v-322z" />
    <glyph glyph-name="uni04A3" unicode="&#x4a3;" horiz-adv-x="655" 
d="M617 -153h-162v153h-79v177h-141v-177h-177v497h177v-178h141v178h177v-352h64v-298z" />
    <glyph glyph-name="uni04AA" unicode="&#x4aa;" horiz-adv-x="785" 
d="M495 -153h-176v153c-84 20 -152 63 -204 130c-54 67 -80 145 -80 235c0 51 10 100 29 145c18 46 45 86 78 120c33 35 73 61 121 81c47 20 98 30 153 30c84 0 160 -25 209 -61c25 -17 48 -38 67 -61c39 -47 58 -89 70 -132l-172 -53c-6 27 -28 70 -68 101
c-25 19 -65 34 -109 34c-54 0 -100 -20 -136 -59c-36 -40 -54 -87 -54 -144c0 -56 18 -104 53 -143c35 -40 81 -60 137 -60c53 0 100 20 128 48c28 29 45 58 53 87l172 -54c-7 -33 -23 -69 -54 -111c-16 -20 -33 -39 -53 -57c-39 -35 -99 -66 -164 -79v-150z" />
    <glyph glyph-name="uni04AB" unicode="&#x4ab;" horiz-adv-x="571" 
d="M384 -153h-162v153c-57 15 -103 45 -138 90c-35 44 -53 97 -53 159c0 73 33 141 82 186c50 45 120 74 192 74c75 0 143 -26 192 -79c24 -27 41 -59 49 -95l-156 -47c-13 38 -46 61 -86 61c-27 0 -49 -9 -67 -29c-18 -19 -27 -42 -27 -70s9 -52 26 -71
c17 -20 40 -29 69 -29c38 0 72 24 87 61l157 -47c-24 -84 -84 -141 -165 -164v-153z" />
    <glyph glyph-name="uni04AC" unicode="&#x4ac;" horiz-adv-x="633" 
d="M482 -153h-177v153h-83v562h-206v167h596v-167h-206v-393h76v-322z" />
    <glyph glyph-name="uni04AD" unicode="&#x4ad;" horiz-adv-x="520" 
d="M411 -153h-161v153h-82v350h-151v147h482v-147h-151v-205h63v-298z" />
    <glyph glyph-name="uni04B2" unicode="&#x4b2;" horiz-adv-x="742" 
d="M719 -153h-177v153h-35l-151 231l-152 -231h-209l255 373l-242 356h212l140 -215l139 215h206l-239 -355l139 -205h114v-322z" />
    <glyph glyph-name="uni04B3" unicode="&#x4b3;" horiz-adv-x="610" 
d="M583 -153h-162v153h-37l-92 134l-92 -134h-196l186 251l-183 246h198l90 -130l90 130h195l-184 -247l78 -105h109v-298z" />
    <glyph glyph-name="uni04B6" unicode="&#x4b6;" horiz-adv-x="774" 
d="M735 -153h-176v153h-84v280c-22 -10 -40 -19 -56 -25c-16 -7 -37 -14 -62 -20c-25 -5 -48 -9 -71 -9c-40 0 -76 5 -121 26c-23 10 -43 23 -60 40c-33 33 -60 96 -60 174v263h185v-218c0 -76 31 -113 94 -113c26 0 54 4 81 12c28 8 51 20 70 34v285h184v-560h76v-322z" />
    <glyph glyph-name="uni04B7" unicode="&#x4b7;" horiz-adv-x="624" 
d="M585 -153h-161v153h-79v152c-35 -15 -80 -23 -132 -23s-95 16 -128 47c-34 31 -50 72 -50 124v197h178v-150c0 -47 18 -70 56 -70c31 0 57 7 76 20v200h177v-352h63v-298z" />
    <glyph glyph-name="uni04C0" unicode="&#x4c0;" horiz-adv-x="335" 
d="M75 729h185v-729h-185v729z" />
    <glyph glyph-name="uni04C1" unicode="&#x4c1;" horiz-adv-x="1086" 
d="M351 972l100 18c14 -47 43 -83 92 -83c48 0 77 36 91 83l101 -18c-7 -52 -27 -94 -62 -126c-34 -32 -78 -49 -131 -49c-52 0 -95 17 -130 50s-56 75 -61 125zM5 729h211l231 -342l3 1v341h185v-342h4l231 342h211l-242 -357l249 -372h-218l-231 354h-4v-354h-185v354h-2
l-232 -354h-218l249 372z" />
    <glyph glyph-name="uni04C2" unicode="&#x4c2;" horiz-adv-x="893" 
d="M255 752l100 18c14 -48 42 -83 91 -83s78 35 92 83l101 -19c-7 -51 -28 -93 -62 -126c-35 -32 -78 -48 -131 -48c-52 0 -96 17 -131 50s-55 75 -60 125zM880 497l-155 -241l161 -256h-202l-145 241h-4v-241h-178v241h-3l-145 -241h-202l160 256l-154 241h197l145 -230h2
v230h178v-230h3l145 230h197z" />
    <glyph glyph-name="uni04CF" unicode="&#x4cf;" horiz-adv-x="295" 
d="M58 0v497h178v-497h-178z" />
    <glyph glyph-name="uni04D0" unicode="&#x4d0;" horiz-adv-x="752" 
d="M184 972l100 18c14 -47 43 -83 92 -83s77 36 91 83l101 -18c-7 -52 -27 -94 -62 -126c-34 -32 -78 -49 -131 -49c-52 0 -95 17 -130 50s-55 75 -61 125zM273 729h207l280 -729h-195l-50 134h-281l-49 -134h-192zM462 290l-88 232l-87 -232h175z" />
    <glyph glyph-name="uni04D1" unicode="&#x4d1;" horiz-adv-x="558" 
d="M80 752l100 18c15 -48 43 -83 92 -83s78 35 92 83l101 -19c-7 -51 -28 -93 -62 -126c-35 -32 -78 -48 -131 -48c-52 0 -96 17 -131 50s-55 75 -61 125zM264 373c-37 0 -67 -22 -74 -54l-148 32c9 54 43 98 86 122c44 23 92 36 142 36c89 0 160 -29 203 -91
c21 -32 32 -70 32 -114v-224c0 -30 1 -57 4 -80h-169c-3 15 -4 35 -4 58l-2 1c-39 -46 -89 -69 -150 -69c-43 0 -78 15 -108 43c-29 27 -44 62 -44 104c0 72 47 114 108 136c41 15 83 21 128 21h26c22 0 36 11 36 30c0 27 -24 49 -66 49zM254 113c44 0 76 27 76 71v15h-62
c-15 0 -29 -4 -41 -11c-12 -8 -18 -18 -18 -33c0 -23 21 -42 45 -42z" />
    <glyph glyph-name="uni04D2" unicode="&#x4d2;" horiz-adv-x="752" 
d="M343 898c0 -27 -8 -48 -26 -66s-40 -27 -67 -27c-26 0 -48 9 -65 27c-18 18 -27 39 -27 66s9 49 27 67c17 17 39 26 65 26c27 0 49 -9 67 -26c18 -18 26 -40 26 -67zM594 898c0 -27 -9 -48 -26 -66c-18 -18 -40 -27 -67 -27c-26 0 -48 9 -66 27c-17 18 -26 39 -26 66
s9 49 26 67c18 17 40 26 66 26c27 0 49 -9 67 -26c17 -18 26 -40 26 -67zM273 729h207l280 -729h-195l-50 134h-281l-49 -134h-192zM462 290l-88 232l-87 -232h175z" />
    <glyph glyph-name="uni04D3" unicode="&#x4d3;" horiz-adv-x="558" 
d="M243 666c0 -26 -9 -48 -27 -66c-17 -18 -39 -26 -66 -26s-49 8 -66 26c-18 18 -26 40 -26 66c0 27 8 49 26 67c18 17 40 26 66 26s49 -9 66 -26c18 -18 27 -40 27 -67zM485 666c0 -26 -9 -48 -26 -66c-18 -18 -40 -26 -67 -26s-49 8 -66 26s-26 40 -26 66
c0 27 9 49 26 67c18 17 39 26 66 26c26 0 48 -9 66 -26c18 -18 27 -40 27 -67zM264 373c-37 0 -67 -22 -74 -54l-148 32c9 54 43 98 86 122c44 23 92 36 142 36c89 0 160 -29 203 -91c21 -32 32 -70 32 -114v-224c0 -30 1 -57 4 -80h-169c-3 15 -4 35 -4 58l-2 1
c-39 -46 -89 -69 -150 -69c-43 0 -78 15 -108 43c-29 27 -44 62 -44 104c0 72 47 114 108 136c41 15 83 21 128 21h26c22 0 36 11 36 30c0 27 -24 49 -66 49zM254 113c44 0 76 27 76 71v15h-62c-15 0 -29 -4 -41 -11c-12 -8 -18 -18 -18 -33c0 -23 21 -42 45 -42z" />
    <glyph glyph-name="uni04D4" unicode="&#x4d4;" horiz-adv-x="1000" 
d="M948 566h-323v-119h293v-157h-293v-126h325v-164h-503v115h-213l-52 -115h-193l342 729h617v-163zM438 569l-133 -298h142v298h-9z" />
    <glyph glyph-name="uni04D5" unicode="&#x4d5;" horiz-adv-x="880" 
d="M846 204h-344c3 -22 13 -41 32 -55c18 -15 41 -22 69 -22c6 0 8 -1 23 3c8 1 15 4 21 7c13 7 32 21 43 40l145 -51c-41 -91 -121 -137 -241 -137c-82 0 -151 33 -197 89c-51 -59 -118 -89 -200 -89h-6c-44 0 -81 14 -112 42c-31 29 -47 64 -47 106c0 72 47 114 108 136
c41 15 83 21 128 21h26c22 0 36 11 36 30c0 27 -24 49 -66 49c-37 0 -67 -22 -74 -54l-148 32c9 54 43 98 86 122c44 23 92 36 142 36c70 0 125 -18 168 -53c45 35 97 52 157 52c47 0 90 -11 129 -33c38 -21 69 -51 91 -90c23 -39 34 -82 34 -129c0 -22 -1 -41 -2 -47z
M592 373c-22 0 -41 -7 -57 -21s-27 -31 -31 -50h173c-7 45 -40 71 -85 71zM254 113c44 0 76 27 76 71v15h-62c-15 0 -29 -4 -41 -11c-12 -8 -18 -18 -18 -33c0 -23 21 -42 45 -42z" />
    <glyph glyph-name="uni04D6" unicode="&#x4d6;" horiz-adv-x="637" 
d="M139 972l100 18c14 -47 43 -83 92 -83s77 36 91 83l101 -18c-7 -52 -27 -94 -62 -126c-34 -32 -78 -49 -131 -49c-52 0 -95 17 -130 50s-55 75 -61 125zM257 447h298v-157h-298v-126h330v-164h-512v729h510v-163h-328v-119z" />
    <glyph glyph-name="uni04D7" unicode="&#x4d7;" horiz-adv-x="581" 
d="M101 752l100 18c14 -48 43 -83 92 -83s77 35 92 83l100 -19c-6 -51 -27 -93 -61 -126c-35 -32 -79 -48 -131 -48c-53 0 -96 17 -131 50s-55 75 -61 125zM548 204h-345c5 -24 17 -43 36 -56c18 -14 40 -21 65 -21c36 0 68 19 87 50l146 -51c-42 -93 -129 -137 -237 -137
c-48 0 -93 11 -134 34c-41 22 -74 53 -98 93c-25 40 -37 84 -37 134c0 47 12 91 36 131c24 39 57 71 97 94c41 22 85 33 132 33s90 -11 129 -33c39 -21 70 -51 92 -90s33 -82 33 -129c0 -21 0 -38 -2 -52zM293 373c-20 0 -39 -7 -56 -20c-17 -14 -27 -31 -32 -51h173
c-6 44 -39 71 -85 71z" />
    <glyph glyph-name="uni04DC" unicode="&#x4dc;" horiz-adv-x="1086" 
d="M511 898c0 -27 -9 -48 -26 -66c-18 -18 -40 -27 -67 -27s-48 9 -66 27c-17 18 -26 39 -26 66s9 49 26 67c18 17 40 26 66 26c27 0 49 -9 67 -26c17 -18 26 -40 26 -67zM762 898c0 -27 -9 -48 -27 -66c-17 -18 -39 -27 -66 -27s-49 9 -66 27c-18 18 -26 39 -26 66
s8 49 26 67c18 17 40 26 66 26s49 -9 66 -26c18 -18 27 -40 27 -67zM5 729h211l231 -342l3 1v341h185v-342h4l231 342h211l-242 -357l249 -372h-218l-231 354h-4v-354h-185v354h-2l-232 -354h-218l249 372z" />
    <glyph glyph-name="uni04DD" unicode="&#x4dd;" horiz-adv-x="893" 
d="M418 666c0 -26 -9 -48 -27 -66c-17 -18 -39 -26 -66 -26s-49 8 -66 26c-18 18 -26 40 -26 66c0 27 8 49 26 67c18 17 40 26 66 26s49 -9 66 -26c18 -18 27 -40 27 -67zM660 666c0 -26 -9 -48 -26 -66c-18 -18 -40 -26 -67 -26s-49 8 -66 26s-26 40 -26 66
c0 27 9 49 26 67c18 17 39 26 66 26c26 0 48 -9 66 -26c18 -18 27 -40 27 -67zM880 497l-155 -241l161 -256h-202l-145 241h-4v-241h-178v241h-3l-145 -241h-202l160 256l-154 241h197l145 -230h2v230h178v-230h3l145 230h197z" />
    <glyph glyph-name="uni04DE" unicode="&#x4de;" horiz-adv-x="649" 
d="M289 909c0 -27 -9 -50 -27 -68c-18 -17 -40 -26 -67 -26s-49 9 -67 26c-18 18 -27 41 -27 68c0 26 9 49 27 67s40 27 67 27s49 -9 67 -27s27 -41 27 -67zM543 909c0 -27 -9 -50 -27 -68c-18 -17 -40 -26 -67 -26s-49 9 -67 26c-17 18 -27 41 -27 68c0 26 10 49 27 67
c18 18 40 27 67 27s49 -9 67 -27s27 -41 27 -67zM320 -11c-88 0 -164 30 -213 76c-48 46 -77 105 -83 168l170 27c1 -33 14 -60 36 -82c23 -23 51 -33 85 -33c33 0 59 9 80 28c20 19 30 41 30 66c0 23 -10 44 -27 62c-18 18 -42 27 -73 27c-21 1 -47 -6 -75 -19l-81 118
l192 143h-311v159h537v-157l-162 -120c55 -10 98 -35 132 -76c34 -40 51 -86 51 -137c0 -79 -35 -145 -95 -190c-53 -40 -118 -60 -193 -60z" />
    <glyph glyph-name="uni04DF" unicode="&#x4df;" horiz-adv-x="510" 
d="M221 666c0 -26 -9 -48 -26 -66c-18 -18 -40 -26 -67 -26s-48 8 -66 26c-17 18 -26 40 -26 66c0 27 9 49 26 67c18 17 40 26 66 26c27 0 49 -9 67 -26c17 -18 26 -40 26 -67zM463 666c0 -26 -8 -48 -26 -66s-40 -26 -67 -26s-49 8 -66 26s-26 40 -26 66c0 27 9 49 27 67
c17 17 39 26 65 26s49 -9 66 -26c18 -18 27 -40 27 -67zM473 168c0 -58 -26 -105 -70 -136c-42 -29 -94 -43 -155 -43c-50 -1 -115 18 -163 61c-31 27 -55 72 -59 124l144 29c6 -60 50 -71 69 -71c31 0 59 17 59 44c0 26 -17 39 -51 39c-15 0 -32 -2 -50 -8l-34 87l114 66
l-1 3l-107 -3h-124v137h415v-126l-107 -61c96 -20 120 -97 120 -142z" />
    <glyph glyph-name="uni04E2" unicode="&#x4e2;" horiz-adv-x="799" 
d="M220 935h360v-127h-360v127zM518 729h206v-729h-182v441h-1l-260 -441h-206v729h182v-440h1z" />
    <glyph glyph-name="uni04E3" unicode="&#x4e3;" horiz-adv-x="618" 
d="M130 712h359v-127h-359v127zM230 497v-238l2 -1l158 239h170v-497h-173v244l-2 1l-161 -245h-166v497h172z" />
    <glyph glyph-name="uni04E4" unicode="&#x4e4;" horiz-adv-x="799" 
d="M366 898c0 -27 -8 -48 -26 -66s-40 -27 -66 -27c-27 0 -49 9 -66 27c-18 18 -27 39 -27 66s9 49 27 67c17 17 39 26 66 26c26 0 48 -9 66 -26c18 -18 26 -40 26 -67zM617 898c0 -27 -8 -48 -26 -66s-40 -27 -66 -27c-27 0 -49 9 -66 27c-18 18 -27 39 -27 66s9 49 27 67
c17 17 39 26 66 26c26 0 48 -9 66 -26c18 -18 26 -40 26 -67zM518 729h206v-729h-182v441h-1l-260 -441h-206v729h182v-440h1z" />
    <glyph glyph-name="uni04E5" unicode="&#x4e5;" horiz-adv-x="618" 
d="M280 666c0 -26 -9 -48 -26 -66c-18 -18 -40 -26 -67 -26s-48 8 -66 26c-17 18 -26 40 -26 66c0 27 9 49 26 67c18 17 40 26 66 26c27 0 49 -9 67 -26c17 -18 26 -40 26 -67zM522 666c0 -26 -8 -48 -26 -66s-40 -26 -67 -26s-49 8 -66 26s-26 40 -26 66c0 27 9 49 27 67
c17 17 39 26 65 26s49 -9 66 -26c18 -18 27 -40 27 -67zM230 497v-238l2 -1l158 239h170v-497h-173v244l-2 1l-161 -245h-166v497h172z" />
    <glyph glyph-name="uni04E6" unicode="&#x4e6;" horiz-adv-x="831" 
d="M382 898c0 -27 -9 -48 -27 -66c-17 -18 -39 -27 -66 -27s-49 9 -66 27c-18 18 -26 39 -26 66s8 49 26 67c18 17 40 26 66 26s49 -9 66 -26c18 -18 27 -40 27 -67zM633 898c0 -27 -9 -48 -27 -66c-17 -18 -39 -27 -66 -27s-49 9 -66 27c-18 18 -26 39 -26 66s8 49 26 67
c18 17 40 26 66 26s49 -9 66 -26c18 -18 27 -40 27 -67zM35 365c0 69 17 132 51 190s81 104 140 137s122 49 191 49s133 -16 191 -49c58 -32 104 -77 138 -135c34 -57 50 -121 50 -190c0 -52 -10 -101 -30 -148s-47 -87 -81 -120c-34 -34 -75 -61 -121 -80
c-47 -20 -97 -30 -149 -30c-69 0 -133 16 -191 50c-58 32 -104 77 -138 135s-51 121 -51 191zM222 366c0 -55 19 -103 56 -144c37 -40 83 -61 138 -61c54 0 100 21 138 61c36 41 55 89 55 144c3 106 -85 206 -193 204c-36 0 -69 -10 -99 -29s-53 -44 -70 -75
s-25 -64 -25 -100z" />
    <glyph glyph-name="uni04E7" unicode="&#x4e7;" horiz-adv-x="610" 
d="M278 666c0 -26 -9 -48 -27 -66c-17 -18 -39 -26 -66 -26s-49 8 -66 26c-18 18 -26 40 -26 66c0 27 8 49 26 67c18 17 40 26 66 26s49 -9 66 -26c18 -18 27 -40 27 -67zM520 666c0 -26 -9 -48 -26 -66c-18 -18 -40 -26 -67 -26s-49 8 -66 26s-26 40 -26 66
c0 27 9 49 26 67c18 17 39 26 66 26c26 0 48 -9 66 -26c18 -18 27 -40 27 -67zM31 248c0 73 33 142 84 187c50 45 120 73 192 73s141 -27 191 -71c49 -44 81 -112 81 -185c0 -74 -32 -143 -82 -189s-120 -74 -194 -74c-73 0 -143 27 -192 72s-80 113 -80 187zM236 320
c-18 -20 -27 -43 -27 -70c0 -28 9 -51 28 -71c18 -21 42 -31 68 -31c27 0 50 10 69 31c18 20 27 43 27 71c0 27 -9 50 -27 70c-19 20 -42 30 -69 30s-50 -10 -69 -30z" />
    <glyph glyph-name="uni04E8" unicode="&#x4e8;" horiz-adv-x="831" 
d="M415 -11c-69 0 -133 16 -191 50c-58 32 -104 77 -138 135s-51 121 -51 191c0 69 17 132 51 190s81 104 140 137s122 49 191 49s133 -16 191 -49c58 -32 104 -77 138 -135c34 -57 50 -121 50 -190c0 -52 -10 -101 -30 -148s-47 -87 -81 -120c-34 -34 -75 -61 -121 -80
c-47 -20 -97 -30 -149 -30zM532 535c-35 26 -73 39 -116 39s-81 -13 -116 -39c-34 -25 -57 -57 -70 -95h371c-11 38 -34 69 -69 95zM602 295h-373c11 -39 35 -72 70 -98c34 -27 73 -40 117 -40c43 0 82 13 117 40s58 59 69 98z" />
    <glyph glyph-name="uni04E9" unicode="&#x4e9;" horiz-adv-x="609" 
d="M303 -11c-50 0 -95 11 -137 33c-41 22 -74 53 -99 93c-24 39 -37 84 -37 133c0 73 33 141 84 187c50 45 120 73 192 73c49 0 94 -11 136 -32c41 -21 74 -52 99 -91c25 -40 38 -84 38 -133s-13 -94 -38 -135c-25 -40 -58 -72 -101 -94c-42 -23 -88 -34 -137 -34zM410 205
h-211c7 -22 21 -40 41 -54c19 -14 41 -21 65 -21s46 7 65 21c20 14 33 32 40 54zM305 369c-25 0 -47 -7 -66 -21c-20 -14 -34 -33 -41 -54h213c-7 21 -21 40 -40 54c-20 14 -42 21 -66 21z" />
    <glyph glyph-name="uni04EA" unicode="&#x4ea;" horiz-adv-x="831" 
d="M382 898c0 -27 -9 -48 -27 -66c-17 -18 -39 -27 -66 -27s-49 9 -66 27c-18 18 -26 39 -26 66s8 49 26 67c18 17 40 26 66 26s49 -9 66 -26c18 -18 27 -40 27 -67zM633 898c0 -27 -9 -48 -27 -66c-17 -18 -39 -27 -66 -27s-49 9 -66 27c-18 18 -26 39 -26 66s8 49 26 67
c18 17 40 26 66 26s49 -9 66 -26c18 -18 27 -40 27 -67zM415 -11c-69 0 -133 16 -191 50c-58 32 -104 77 -138 135s-51 121 -51 191c0 69 17 132 51 190s81 104 140 137s122 49 191 49s133 -16 191 -49c58 -32 104 -77 138 -135c34 -57 50 -121 50 -190
c0 -52 -10 -101 -30 -148s-47 -87 -81 -120c-34 -34 -75 -61 -121 -80c-47 -20 -97 -30 -149 -30zM532 535c-35 26 -73 39 -116 39s-81 -13 -116 -39c-34 -25 -57 -57 -70 -95h371c-11 38 -34 69 -69 95zM602 295h-373c11 -39 35 -72 70 -98c34 -27 73 -40 117 -40
c43 0 82 13 117 40s58 59 69 98z" />
    <glyph glyph-name="uni04EB" unicode="&#x4eb;" horiz-adv-x="610" 
d="M278 666c0 -26 -9 -48 -27 -66c-17 -18 -39 -26 -66 -26s-49 8 -66 26c-18 18 -26 40 -26 66c0 27 8 49 26 67c18 17 40 26 66 26s49 -9 66 -26c18 -18 27 -40 27 -67zM520 666c0 -26 -9 -48 -26 -66c-18 -18 -40 -26 -67 -26s-49 8 -66 26s-26 40 -26 66
c0 27 9 49 26 67c18 17 39 26 66 26c26 0 48 -9 66 -26c18 -18 27 -40 27 -67zM303 -11c-49 0 -95 11 -136 33c-42 22 -75 53 -99 93c-25 39 -37 84 -37 133c0 73 33 141 83 187c51 45 121 73 193 73c49 0 94 -11 136 -32c41 -21 74 -52 99 -91c25 -40 38 -84 38 -133
c0 -74 -33 -143 -82 -189c-50 -46 -121 -74 -195 -74zM199 205c8 -22 21 -40 41 -54s41 -21 66 -21c24 0 46 7 65 21c20 14 33 32 40 54h-212zM305 369c-24 0 -46 -7 -65 -21c-20 -14 -34 -33 -41 -54h212c-6 21 -20 39 -40 53c-19 14 -41 22 -66 22z" />
    <glyph glyph-name="uni04EC" unicode="&#x4ec;" horiz-adv-x="787" 
d="M348 898c0 -27 -9 -48 -27 -66c-17 -18 -39 -27 -66 -27s-49 9 -66 27c-18 18 -26 39 -26 66s8 49 26 67c18 17 40 26 66 26s49 -9 66 -26c18 -18 27 -40 27 -67zM599 898c0 -27 -9 -48 -27 -66c-17 -18 -39 -27 -66 -27s-49 9 -66 27c-18 18 -26 39 -26 66s8 49 26 67
c18 17 40 26 66 26s49 -9 66 -26c18 -18 27 -40 27 -67zM378 741c53 0 104 -10 151 -30c46 -20 86 -46 119 -80c65 -68 104 -162 104 -264c0 -53 -10 -103 -29 -150c-20 -47 -46 -87 -80 -120c-33 -33 -73 -60 -120 -79s-97 -29 -150 -29c-85 0 -163 26 -214 63
c-26 18 -49 39 -69 62c-40 46 -60 88 -69 128l167 52c9 -29 27 -59 57 -87s77 -47 131 -47c44 0 82 12 114 37c31 24 54 57 66 97h-259v149h258c-14 38 -37 70 -69 94c-31 23 -68 35 -110 35c-116 0 -172 -87 -185 -134l-166 51c12 42 33 86 74 131c20 23 42 44 68 61
c51 36 128 60 211 60z" />
    <glyph glyph-name="uni04ED" unicode="&#x4ed;" horiz-adv-x="567" 
d="M250 666c0 -26 -8 -48 -26 -66s-39 -26 -66 -26s-49 8 -66 26c-18 18 -27 40 -27 66c0 27 9 49 27 67c18 17 39 26 66 26c26 0 48 -9 66 -26c18 -18 26 -40 26 -67zM493 666c0 -26 -9 -48 -27 -66c-17 -18 -40 -26 -66 -26c-27 0 -49 8 -66 26c-18 18 -26 40 -26 66
c0 27 8 49 26 67c17 17 39 26 66 26c26 0 48 -9 66 -26c18 -18 27 -40 27 -67zM265 509c50 0 95 -11 137 -34c41 -22 74 -52 98 -92c24 -39 36 -84 36 -133c0 -50 -12 -95 -37 -135c-24 -40 -58 -71 -99 -93s-87 -33 -138 -33c-57 0 -106 14 -149 43c-43 28 -74 68 -91 119
l141 44c21 -40 55 -59 101 -59c47 0 82 26 98 66h-141v95h141c-17 40 -52 66 -97 66c-44 0 -81 -20 -100 -58l-140 45c32 100 135 160 240 159z" />
    <glyph glyph-name="uni04EE" unicode="&#x4ee;" horiz-adv-x="687" 
d="M170 935h360v-127h-360v127zM703 729l-251 -504c-9 -19 -17 -35 -23 -46s-15 -26 -26 -44s-21 -33 -31 -44c-9 -11 -22 -22 -36 -35c-29 -26 -57 -38 -97 -48c-20 -5 -41 -8 -64 -8h-116v164h96c26 0 48 5 64 15c16 9 31 30 46 61l-267 489h206l159 -303l141 303h199z
" />
    <glyph glyph-name="uni04EF" unicode="&#x4ef;" horiz-adv-x="599" 
d="M119 712h359v-127h-359v127zM311 243h1l94 254h187l-303 -742h-189l119 293l-217 449h194z" />
    <glyph glyph-name="uni04F0" unicode="&#x4f0;" horiz-adv-x="687" 
d="M320 898c0 -27 -8 -48 -26 -66s-39 -27 -66 -27s-49 9 -66 27c-18 18 -27 39 -27 66s9 49 27 67c18 17 39 26 66 26c26 0 48 -9 66 -26c18 -18 26 -40 26 -67zM571 898c0 -27 -8 -48 -26 -66s-40 -27 -66 -27c-27 0 -49 9 -66 27c-18 18 -27 39 -27 66s9 49 27 67
c17 17 39 26 66 26c26 0 48 -9 66 -26c18 -18 26 -40 26 -67zM703 729l-251 -504c-9 -19 -17 -35 -23 -46s-15 -26 -26 -44s-21 -33 -31 -44c-9 -11 -22 -22 -36 -35c-29 -26 -57 -38 -97 -48c-20 -5 -41 -8 -64 -8h-116v164h96c26 0 48 5 64 15c16 9 31 30 46 61l-267 489
h206l159 -303l141 303h199z" />
    <glyph glyph-name="uni04F1" unicode="&#x4f1;" horiz-adv-x="599" 
d="M274 666c0 -26 -9 -48 -26 -66c-18 -18 -40 -26 -67 -26c-26 0 -48 8 -66 26c-17 18 -26 40 -26 66c0 27 9 49 26 67c18 17 40 26 66 26c27 0 49 -9 67 -26c17 -18 26 -40 26 -67zM516 666c0 -26 -8 -48 -26 -66s-40 -26 -67 -26s-48 8 -66 26c-17 18 -26 40 -26 66
c0 27 9 49 27 67c17 17 39 26 65 26c27 0 49 -9 67 -26c17 -18 26 -40 26 -67zM311 243h1l94 254h187l-303 -742h-189l119 293l-217 449h194z" />
    <glyph glyph-name="uni04F2" unicode="&#x4f2;" horiz-adv-x="687" 
d="M175 793l105 183h179l-155 -183h-129zM399 793l104 183h179l-155 -183h-128zM703 729l-251 -504c-9 -19 -17 -35 -23 -46s-15 -26 -26 -44s-21 -33 -31 -44c-9 -11 -22 -22 -36 -35c-29 -26 -57 -38 -97 -48c-20 -5 -41 -8 -64 -8h-116v164h96c26 0 48 5 64 15
c16 9 31 30 46 61l-267 489h206l159 -303l141 303h199z" />
    <glyph glyph-name="uni04F3" unicode="&#x4f3;" horiz-adv-x="599" 
d="M117 580l104 182h179l-155 -182h-128zM340 580l104 182h179l-154 -182h-129zM311 243h1l94 254h187l-303 -742h-189l119 293l-217 449h194z" />
    <glyph glyph-name="uni04F4" unicode="&#x4f4;" horiz-adv-x="734" 
d="M319 898c0 -27 -9 -48 -27 -66c-17 -18 -39 -27 -66 -27s-49 9 -66 27c-18 18 -26 39 -26 66s8 49 26 67c18 17 40 26 66 26s49 -9 66 -26c18 -18 27 -40 27 -67zM570 898c0 -27 -9 -48 -27 -66s-39 -27 -66 -27s-49 9 -66 27c-18 18 -26 39 -26 66s8 49 26 67
c18 17 39 26 66 26c26 0 48 -9 66 -26c18 -18 27 -40 27 -67zM475 0v280c-22 -10 -40 -19 -56 -25c-16 -7 -37 -14 -62 -20c-25 -5 -48 -9 -71 -9c-40 0 -76 5 -121 26c-23 10 -43 23 -60 40c-33 33 -60 96 -60 174v263h185v-218c0 -76 31 -113 94 -113c26 0 54 4 81 12
c28 8 51 20 70 34v285h184v-729h-184z" />
    <glyph glyph-name="uni04F5" unicode="&#x4f5;" horiz-adv-x="580" 
d="M250 666c0 -26 -9 -48 -27 -66s-39 -26 -66 -26s-49 8 -66 26c-18 18 -26 40 -26 66c0 27 8 49 26 67c18 17 39 26 66 26c26 0 48 -9 66 -26c18 -18 27 -40 27 -67zM492 666c0 -26 -9 -48 -27 -66c-17 -18 -40 -26 -66 -26c-27 0 -49 8 -66 26c-18 18 -26 40 -26 66
c0 27 8 49 26 67c17 17 39 26 66 26c26 0 48 -9 66 -26c18 -18 27 -40 27 -67zM345 0v152c-35 -15 -80 -23 -132 -23s-95 16 -128 47c-34 31 -50 72 -50 124v197h178v-150c0 -47 18 -70 56 -70c31 0 57 7 76 20v200h177v-497h-177z" />
    <glyph glyph-name="uni04F8" unicode="&#x4f8;" horiz-adv-x="1030" 
d="M485 898c0 -27 -9 -48 -27 -66s-39 -27 -66 -27s-49 9 -66 27c-18 18 -26 39 -26 66s8 49 26 67c18 17 39 26 66 26c26 0 48 -9 66 -26c18 -18 27 -40 27 -67zM735 898c0 -27 -8 -48 -26 -66s-39 -27 -66 -27s-49 9 -66 27c-18 18 -27 39 -27 66s9 49 27 67
c18 17 39 26 66 26c26 0 48 -9 66 -26c18 -18 26 -40 26 -67zM259 472h148c73 0 135 -18 184 -55s77 -98 77 -177c0 -165 -123 -240 -271 -240h-322v729h184v-257zM770 729h185v-729h-185v729zM259 162h131c64 0 95 27 95 80c0 48 -27 75 -95 75h-131v-155z" />
    <glyph glyph-name="uni04F9" unicode="&#x4f9;" horiz-adv-x="875" 
d="M408 666c0 -26 -8 -48 -26 -66s-40 -26 -67 -26c-26 0 -48 8 -65 26c-18 18 -27 40 -27 66c0 27 9 49 27 67c17 17 39 26 65 26c27 0 49 -9 67 -26c18 -18 26 -40 26 -67zM650 666c0 -26 -8 -48 -26 -66s-40 -26 -67 -26s-48 8 -66 26c-17 18 -26 40 -26 66
c0 27 9 49 27 67c17 17 39 26 65 26c27 0 49 -9 67 -26c17 -18 26 -40 26 -67zM235 359h112c69 0 123 -16 159 -49c37 -32 55 -75 55 -128s-17 -97 -52 -131s-86 -51 -154 -51h-297v497h177v-138zM638 0v497h178v-497h-178zM235 128h85c42 0 63 18 63 55c0 27 -17 50 -64 50
h-84v-105z" />
    <glyph glyph-name="uni0E3F" unicode="&#xe3f;" horiz-adv-x="694" 
d="M508 380v-4c45 -7 81 -26 107 -57c27 -31 40 -69 40 -113c0 -143 -125 -206 -260 -206h-14v-95h-68v95h-238v729h238v101h68v-101h10c72 0 141 -24 184 -68c32 -33 49 -74 49 -124c0 -72 -44 -127 -116 -157zM253 440h62v136h-62v-136zM448 509c0 43 -23 65 -68 67v-136
c44 3 68 29 68 69zM253 155h62v142h-62v-142zM380 155h15c48 0 80 25 80 71c0 47 -34 71 -80 71h-15v-142z" />
    <glyph glyph-name="uni1E20" unicode="&#x1e20;" horiz-adv-x="795" 
d="M238 925h359v-126h-359v126zM764 399v-72c0 -93 -35 -178 -94 -239c-60 -61 -150 -99 -253 -99c-72 0 -137 16 -195 49c-59 32 -105 77 -138 134c-33 58 -50 122 -50 193c0 50 10 98 31 145c20 45 46 85 80 120c35 34 75 60 122 81c48 20 97 30 149 30
c79 0 150 -21 199 -51c24 -16 45 -34 64 -55c38 -41 60 -81 71 -123l-178 -47c-6 22 -19 45 -43 70c-24 23 -66 40 -114 40c-55 0 -102 -20 -139 -59s-56 -89 -56 -150c0 -59 18 -110 55 -151c37 -40 84 -61 142 -61c36 0 69 9 100 28c30 18 48 41 55 69h-209v148h401z" />
    <glyph glyph-name="uni1E21" unicode="&#x1e21;" horiz-adv-x="640" 
d="M127 712h359v-127h-359v127zM405 75h-3c-37 -48 -82 -71 -137 -71c-69 0 -124 23 -167 71c-43 47 -65 106 -65 178c0 74 27 140 70 182c43 43 101 69 163 69c48 0 100 -19 138 -67h3v60h175v-472c0 -85 -26 -152 -79 -200c-53 -49 -122 -74 -208 -74
c-76 0 -144 24 -186 58c-42 35 -69 77 -77 121l157 47c9 -44 48 -74 99 -74c73 0 117 36 117 112v60zM379 185c19 19 28 42 28 69s-9 50 -28 69c-19 18 -41 27 -69 27c-27 0 -50 -9 -69 -28c-18 -18 -27 -42 -27 -69c0 -28 9 -50 27 -69c19 -19 42 -28 69 -28
c28 0 50 9 69 29z" />
    <glyph glyph-name="uni1E30" unicode="&#x1e30;" horiz-adv-x="712" 
d="M297 793l103 183h189l-159 -183h-133zM261 729v-313l225 313h216l-250 -346l268 -383h-229l-230 345v-345h-186v729h186z" />
    <glyph glyph-name="uni1E31" unicode="&#x1e31;" horiz-adv-x="595" 
d="M341 580l104 182h188l-158 -182h-134zM58 759h177v-468l150 206h204l-167 -231l173 -266h-207l-149 242h-4v-242h-177v759z" />
    <glyph glyph-name="uni1E60" unicode="&#x1e60;" horiz-adv-x="647" 
d="M327 795c-28 0 -52 10 -72 30c-21 20 -31 45 -31 72c0 29 10 53 31 74c20 20 44 30 72 30c29 0 53 -10 73 -31c20 -20 30 -44 30 -73c0 -27 -10 -52 -30 -72s-44 -30 -73 -30zM333 -10c-88 0 -158 20 -210 63c-51 42 -83 98 -96 170l165 39c8 -55 40 -92 78 -107
c19 -7 40 -11 64 -11c30 0 52 7 67 21c15 15 23 31 23 49c0 30 -21 50 -63 58l-100 19c-62 13 -112 37 -149 74c-38 38 -57 85 -57 141c0 45 13 85 38 122c25 36 58 64 99 84c41 19 85 29 132 29c71 0 131 -18 171 -46c20 -14 37 -30 52 -49c29 -37 43 -75 49 -115l-161 -46
c-10 62 -48 102 -112 102c-26 0 -47 -7 -62 -21s-22 -29 -22 -46c0 -33 18 -53 54 -60l104 -20c68 -13 120 -39 157 -78c37 -38 55 -86 55 -141c0 -59 -27 -116 -72 -160c-46 -43 -120 -71 -204 -71z" />
    <glyph glyph-name="uni1E61" unicode="&#x1e61;" horiz-adv-x="498" 
d="M250 564c-27 0 -51 10 -72 30c-20 20 -30 44 -30 71c0 29 10 54 30 74s44 30 72 30c30 0 54 -10 74 -30c20 -21 30 -45 30 -74c0 -27 -10 -51 -30 -71s-45 -30 -74 -30zM248 509c85 -1 143 -29 174 -66c22 -25 31 -50 33 -75l-143 -27c-6 32 -31 44 -59 44
c-30 0 -45 -17 -45 -32c0 -14 10 -23 28 -26l71 -15c42 -8 78 -24 108 -47c31 -25 50 -62 50 -106s-20 -85 -54 -118c-35 -32 -92 -52 -159 -52c-66 0 -120 16 -152 38c-15 10 -29 23 -40 38c-22 28 -30 52 -32 76l145 28c3 -34 32 -54 71 -54c36 0 51 18 51 34
s-15 26 -45 32l-54 11c-41 9 -75 22 -106 45c-30 23 -48 59 -48 103c-2 93 95 171 206 169z" />
    <glyph glyph-name="Wgrave" unicode="&#x1e80;" horiz-adv-x="1115" 
d="M520 995l103 -183h-133l-159 183h189zM203 729l123 -461h3l140 461h177l144 -462h2l126 462h186l-215 -729h-185l-146 493h-2l-149 -493h-182l-214 729h192z" />
    <glyph glyph-name="wgrave" unicode="&#x1e81;" horiz-adv-x="848" 
d="M388 762l104 -182h-133l-159 182h188zM265 230l87 267h144l89 -269h1l83 269h169l-160 -497h-168l-86 266h-1l-88 -266h-166l-158 497h176l77 -267h1z" />
    <glyph glyph-name="Wacute" unicode="&#x1e82;" horiz-adv-x="1115" 
d="M494 812l103 183h188l-158 -183h-133zM203 729l123 -461h3l140 461h177l144 -462h2l126 462h186l-215 -729h-185l-146 493h-2l-149 -493h-182l-214 729h192z" />
    <glyph glyph-name="wacute" unicode="&#x1e83;" horiz-adv-x="848" 
d="M360 580l104 182h188l-158 -182h-134zM265 230l87 267h144l89 -269h1l83 269h169l-160 -497h-168l-86 266h-1l-88 -266h-166l-158 497h176l77 -267h1z" />
    <glyph glyph-name="Wdieresis" unicode="&#x1e84;" horiz-adv-x="1115" 
d="M529 899c0 -27 -9 -49 -26 -67c-18 -17 -40 -26 -67 -26c-26 0 -48 9 -66 26c-17 18 -26 40 -26 67c0 26 9 48 26 66c18 18 40 26 66 26c27 0 49 -8 67 -26c17 -18 26 -40 26 -66zM771 899c0 -27 -8 -49 -26 -67c-18 -17 -40 -26 -67 -26s-48 9 -66 26
c-17 18 -26 40 -26 67c0 26 9 48 27 66c17 18 39 26 65 26c27 0 49 -8 67 -26c17 -18 26 -40 26 -66zM203 729l123 -461h3l140 461h177l144 -462h2l126 462h186l-215 -729h-185l-146 493h-2l-149 -493h-182l-214 729h192z" />
    <glyph glyph-name="wdieresis" unicode="&#x1e85;" horiz-adv-x="848" 
d="M396 666c0 -26 -8 -48 -26 -66s-40 -26 -66 -26c-27 0 -49 8 -66 26c-18 18 -27 40 -27 66c0 27 9 49 27 67c17 17 39 26 66 26c26 0 48 -9 66 -26c18 -18 26 -40 26 -67zM639 666c0 -26 -9 -48 -27 -66c-17 -18 -40 -26 -67 -26c-26 0 -48 8 -65 26
c-18 18 -26 40 -26 66c0 27 8 49 26 67c17 17 39 26 65 26c27 0 49 -9 67 -26c18 -18 27 -40 27 -67zM265 230l87 267h144l89 -269h1l83 269h169l-160 -497h-168l-86 266h-1l-88 -266h-166l-158 497h176l77 -267h1z" />
    <glyph glyph-name="uni1E90" unicode="&#x1e90;" horiz-adv-x="654" 
d="M242 970h163l117 -175h-141l-57 94l-57 -94h-142zM36 155l337 412h-321v162h558v-154l-337 -411h338v-164h-575v155z" />
    <glyph glyph-name="uni1E91" unicode="&#x1e91;" horiz-adv-x="522" 
d="M179 757h163l117 -176h-141l-58 94l-56 -94h-143zM47 351v146h433v-131l-218 -221h220v-145h-443v140l208 211h-200z" />
    <glyph glyph-name="uni1EBC" unicode="&#x1ebc;" horiz-adv-x="637" 
d="M257 447h298v-157h-298v-126h330v-164h-512v729h510v-163h-328v-119zM410 795c-23 0 -51 8 -82 25c-15 8 -26 14 -33 17c-11 5 -21 8 -31 8c-19 0 -29 -16 -31 -49h-93l-1 26c0 42 9 75 27 100c19 25 48 38 87 38c23 0 50 -8 80 -25c14 -7 25 -13 33 -16
c12 -5 22 -8 30 -8c18 0 29 10 34 31l2 16h90l1 -28c1 -40 -8 -73 -26 -98c-19 -25 -48 -37 -87 -37z" />
    <glyph glyph-name="uni1EBD" unicode="&#x1ebd;" horiz-adv-x="581" 
d="M548 204h-345c5 -24 17 -43 35 -56c19 -14 41 -21 66 -21c37 0 66 17 87 50l146 -51c-42 -93 -129 -137 -237 -137c-48 0 -93 11 -135 34c-41 22 -74 53 -98 93s-36 84 -36 134c0 47 12 91 36 131c24 39 57 71 97 94c41 22 85 33 132 33c71 0 136 -27 181 -72
c45 -44 73 -109 73 -180c0 -20 -1 -37 -2 -52zM371 581c-24 0 -51 9 -83 25c-15 9 -25 14 -32 17c-11 6 -22 8 -31 8c-20 0 -30 -16 -31 -49h-94v27c-1 41 8 75 27 100c18 25 48 37 87 37c23 0 49 -8 80 -24c13 -8 24 -13 32 -17c12 -5 22 -8 31 -8c18 0 29 11 33 31l2 16
h90l1 -27c2 -41 -7 -74 -26 -99c-18 -25 -47 -37 -86 -37zM293 373c-21 0 -39 -7 -56 -20c-17 -14 -27 -31 -32 -51h173c-7 44 -40 71 -85 71z" />
    <glyph glyph-name="Ygrave" unicode="&#x1ef2;" horiz-adv-x="715" 
d="M332 995l103 -183h-133l-158 183h188zM213 729l146 -261l148 261h203l-260 -448v-281h-185v281l-260 448h208z" />
    <glyph glyph-name="ygrave" unicode="&#x1ef3;" horiz-adv-x="599" 
d="M276 762l104 -182h-134l-158 182h188zM311 243h1l94 254h187l-303 -742h-189l119 293l-217 449h194z" />
    <glyph glyph-name="uni2000" unicode="&#x2000;" horiz-adv-x="567" 
 />
    <glyph glyph-name="uni2001" unicode="&#x2001;" horiz-adv-x="1135" 
 />
    <glyph glyph-name="uni2002" unicode="&#x2002;" horiz-adv-x="567" 
 />
    <glyph glyph-name="uni2003" unicode="&#x2003;" horiz-adv-x="1135" 
 />
    <glyph glyph-name="uni2004" unicode="&#x2004;" horiz-adv-x="378" 
 />
    <glyph glyph-name="uni2005" unicode="&#x2005;" horiz-adv-x="284" 
 />
    <glyph glyph-name="uni2006" unicode="&#x2006;" horiz-adv-x="189" 
 />
    <glyph glyph-name="uni2007" unicode="&#x2007;" horiz-adv-x="189" 
 />
    <glyph glyph-name="uni2008" unicode="&#x2008;" horiz-adv-x="142" 
 />
    <glyph glyph-name="uni2009" unicode="&#x2009;" horiz-adv-x="227" 
 />
    <glyph glyph-name="uni200A" unicode="&#x200a;" horiz-adv-x="63" 
 />
    <glyph glyph-name="uni2010" unicode="&#x2010;" horiz-adv-x="416" 
d="M55 229v148h306v-148h-306z" />
    <glyph glyph-name="uni2011" unicode="&#x2011;" horiz-adv-x="416" 
d="M55 229v148h306v-148h-306z" />
    <glyph glyph-name="figuredash" unicode="&#x2012;" horiz-adv-x="416" 
d="M55 229v148h306v-148h-306z" />
    <glyph glyph-name="endash" unicode="&#x2013;" horiz-adv-x="570" 
d="M54 376h461v-146h-461v146z" />
    <glyph glyph-name="emdash" unicode="&#x2014;" horiz-adv-x="926" 
d="M54 376h818v-146h-818v146z" />
    <glyph glyph-name="quoteleft" unicode="&#x2018;" horiz-adv-x="293" 
d="M238 736v-78c-58 -18 -91 -42 -102 -87c7 1 15 2 24 2c27 0 49 -9 67 -27c17 -17 26 -40 26 -66c0 -28 -11 -52 -31 -71c-21 -19 -46 -29 -74 -29c-79 0 -113 65 -113 131c0 58 19 107 55 149c35 41 85 66 148 76z" />
    <glyph glyph-name="quoteright" unicode="&#x2019;" horiz-adv-x="296" 
d="M61 379v77c59 19 91 43 102 88c-7 -2 -15 -2 -24 -2c-27 0 -49 9 -66 27c-18 17 -27 39 -27 66c0 28 11 51 31 70c21 20 46 29 74 29c79 0 113 -65 113 -131c0 -57 -19 -106 -54 -148c-36 -41 -86 -67 -149 -76z" />
    <glyph glyph-name="quotesinglbase" unicode="&#x201a;" horiz-adv-x="300" 
d="M55 -173v78c58 18 91 42 102 87c-7 -2 -16 -2 -24 -2c-27 0 -49 9 -67 27c-17 18 -26 39 -26 66c0 28 10 52 31 71c20 19 45 28 74 28c79 0 112 -65 112 -131c0 -57 -18 -106 -54 -148c-36 -41 -85 -67 -148 -76z" />
    <glyph glyph-name="quotedblleft" unicode="&#x201c;" horiz-adv-x="548" 
d="M238 736v-78c-58 -18 -91 -42 -102 -87c7 1 15 2 24 2c27 0 49 -9 67 -27c17 -17 26 -40 26 -66c0 -28 -11 -52 -31 -71c-21 -19 -46 -29 -74 -29c-79 0 -113 65 -113 131c0 58 19 107 55 149c35 41 85 66 148 76zM492 736v-78c-58 -18 -91 -42 -102 -87c8 1 16 2 25 2
c26 0 49 -9 66 -27c18 -17 26 -40 26 -66c0 -28 -10 -52 -31 -71c-20 -19 -45 -29 -74 -29c-78 0 -112 65 -112 131c0 58 18 107 54 149c36 41 86 66 148 76z" />
    <glyph glyph-name="quotedblright" unicode="&#x201d;" horiz-adv-x="551" 
d="M61 379v77c59 19 91 43 102 88c-7 -2 -15 -2 -24 -2c-27 0 -49 9 -66 27c-18 17 -27 39 -27 66c0 28 11 51 31 70c21 20 46 29 74 29c79 0 113 -65 113 -131c0 -57 -19 -106 -54 -148c-36 -41 -86 -67 -149 -76zM316 379v77c58 19 91 43 102 88c-8 -2 -16 -2 -24 -2
c-27 0 -49 9 -67 27c-17 17 -26 39 -26 66c0 28 10 51 31 70c20 20 45 29 74 29c79 0 112 -65 112 -131c0 -57 -18 -106 -54 -148c-36 -41 -85 -67 -148 -76z" />
    <glyph glyph-name="quotedblbase" unicode="&#x201e;" horiz-adv-x="554" 
d="M55 -173v78c58 18 91 42 102 87c-7 -2 -16 -2 -24 -2c-27 0 -49 9 -67 27c-17 18 -26 39 -26 66c0 28 10 52 31 71c20 19 45 28 74 28c79 0 112 -65 112 -131c0 -57 -18 -106 -54 -148c-36 -41 -85 -67 -148 -76zM310 -173v78c58 18 90 42 101 87c-7 -2 -15 -2 -24 -2
c-27 0 -49 9 -66 27c-18 18 -26 39 -26 66c0 28 10 52 30 71c21 19 46 28 75 28c78 0 112 -65 112 -131c0 -57 -18 -106 -54 -148c-36 -41 -86 -67 -148 -76z" />
    <glyph glyph-name="dagger" unicode="&#x2020;" horiz-adv-x="660" 
d="M72 517h175v213h166v-213h175v-147h-175v-370h-166v370h-175v147z" />
    <glyph glyph-name="daggerdbl" unicode="&#x2021;" horiz-adv-x="660" 
d="M50 148h197v202h-197v147h197v193h166v-193h198v-147h-198v-202h198v-148h-198v-191h-166v191h-197v148z" />
    <glyph glyph-name="bullet" unicode="&#x2022;" horiz-adv-x="436" 
d="M218 177c-45 0 -83 16 -114 48c-32 31 -48 70 -48 115c0 44 16 83 48 115c31 33 70 49 114 49s82 -16 114 -49c32 -32 48 -71 48 -115c0 -45 -16 -84 -48 -115c-31 -32 -69 -48 -114 -48z" />
    <glyph glyph-name="ellipsis" unicode="&#x2026;" horiz-adv-x="965" 
d="M147 -10c-29 0 -55 10 -76 31c-21 22 -32 47 -32 76c0 31 10 57 31 78c22 21 47 32 77 32c31 0 56 -11 78 -32c20 -21 31 -47 31 -78c0 -29 -11 -54 -31 -76c-22 -21 -47 -31 -78 -31zM482 -10c-29 0 -55 10 -76 31c-21 22 -32 47 -32 76c0 31 10 57 31 78
c22 21 47 32 77 32c31 0 57 -11 78 -32c20 -21 31 -47 31 -78c0 -29 -11 -54 -31 -76c-22 -21 -47 -31 -78 -31zM817 -10c-29 0 -55 10 -76 31c-21 22 -32 47 -32 76c0 31 10 57 31 78c22 21 47 32 77 32c31 0 57 -11 78 -32s31 -47 31 -78c0 -29 -10 -54 -31 -76
c-22 -21 -47 -31 -78 -31z" />
    <glyph glyph-name="uni202F" unicode="&#x202f;" horiz-adv-x="227" 
 />
    <glyph glyph-name="perthousand" unicode="&#x2030;" horiz-adv-x="1274" 
d="M207 382c-48 0 -90 18 -125 52c-35 35 -52 76 -52 125s17 91 52 126c35 34 77 51 125 51c49 0 91 -17 126 -51c34 -35 52 -77 52 -126s-18 -90 -52 -125c-35 -34 -77 -52 -126 -52zM135 0l478 729h148l-477 -729h-149zM207 614c-30 0 -52 -25 -52 -55
c0 -29 22 -54 52 -54c31 0 53 25 53 54c0 31 -22 55 -53 55zM690 -5c-49 0 -91 17 -125 51c-35 35 -53 77 -53 125c0 49 18 91 53 126c34 34 76 52 125 52s90 -18 125 -52c35 -35 52 -77 52 -126c0 -48 -17 -90 -52 -125c-35 -34 -76 -51 -125 -51zM690 226
c-31 0 -53 -25 -53 -55c0 -29 22 -53 53 -53c30 0 52 24 52 53c0 31 -22 55 -52 55zM1071 -5c-48 0 -90 17 -125 51c-35 35 -52 77 -52 125c0 49 17 91 52 126c35 34 77 52 125 52c49 0 91 -18 126 -52c34 -35 52 -77 52 -126c0 -48 -18 -90 -52 -125
c-35 -34 -77 -51 -126 -51zM1071 226c-30 0 -52 -25 -52 -55c0 -29 22 -53 52 -53c31 0 53 24 53 53c0 31 -22 55 -53 55z" />
    <glyph glyph-name="guilsinglleft" unicode="&#x2039;" horiz-adv-x="372" 
d="M330 408l-131 -127l131 -129l-90 -86l-217 214l217 215z" />
    <glyph glyph-name="guilsinglright" unicode="&#x203a;" horiz-adv-x="372" 
d="M173 280l-131 128l90 87l217 -215l-217 -214l-90 86z" />
    <glyph glyph-name="uni203D" unicode="&#x203d;" horiz-adv-x="563" 
d="M310 464l7 -80c32 41 48 78 48 111c0 60 -27 102 -87 102c-58 0 -94 -38 -102 -97l-147 17c0 42 11 80 34 115c22 34 53 61 91 80c37 19 78 29 122 29c65 0 125 -21 170 -59c45 -37 73 -97 73 -168c3 -44 -19 -94 -44 -132c-8 -13 -20 -28 -34 -45s-26 -32 -38 -44
c-11 -13 -26 -29 -45 -50h-164l-29 221h145zM275 192c28 0 52 -10 72 -30c19 -20 29 -44 29 -72s-10 -52 -29 -71c-20 -20 -44 -30 -72 -30s-52 10 -72 30c-20 19 -30 43 -30 71s10 52 30 72s44 30 72 30z" />
    <glyph glyph-name="uni2042" unicode="&#x2042;" horiz-adv-x="855" 
d="M285 442l61 86l-101 33l31 92l100 -32v108h101v-108l101 32l32 -92l-102 -33l62 -86l-79 -58l-64 86l-64 -86zM66 42l62 85l-101 33l31 93l100 -33v109h101v-109l101 33l31 -93l-101 -33l62 -85l-79 -58l-64 86l-64 -86zM503 42l61 85l-101 33l31 93l101 -33v109h100
v-109l101 33l32 -93l-102 -33l62 -85l-79 -58l-64 86l-64 -86z" />
    <glyph glyph-name="fraction" unicode="&#x2044;" horiz-adv-x="629" 
d="M-3 0l478 729h157l-477 -729h-158z" />
    <glyph glyph-name="uni2051" unicode="&#x2051;" horiz-adv-x="445" 
d="M80 442l61 86l-101 33l31 92l100 -32v108h101v-108l101 32l32 -92l-102 -33l62 -86l-79 -58l-64 86l-64 -86zM80 42l61 85l-101 33l31 93l100 -33v109h101v-109l101 33l32 -93l-102 -33l62 -85l-79 -58l-64 86l-64 -86z" />
    <glyph glyph-name="uni205F" unicode="&#x205f;" horiz-adv-x="284" 
 />
    <glyph glyph-name="lira" unicode="&#x20a4;" horiz-adv-x="673" 
d="M485 256l155 -15c-6 -56 -18 -101 -41 -143c-13 -21 -27 -38 -44 -52c-34 -28 -85 -46 -150 -46h-351v138c23 10 44 25 64 44c20 18 34 39 42 62h-106v81h105c-2 9 -7 25 -14 47h-91v82h65c-4 20 -7 40 -7 58c0 44 12 84 34 119c23 35 53 63 89 82c37 18 78 28 122 28
c62 0 121 -20 167 -56c46 -37 78 -95 84 -165l-172 -27c-1 58 -30 94 -77 94c-21 0 -39 -7 -53 -22c-14 -14 -21 -32 -21 -54c0 -14 2 -30 8 -47l3 -10h145v-82h-117c5 -19 9 -34 11 -47h106v-81h-112c-12 -36 -34 -65 -67 -87h114c50 2 74 13 89 41c5 9 10 18 12 26
s5 19 8 32z" />
    <glyph glyph-name="uni20A9" unicode="&#x20a9;" horiz-adv-x="1181" 
d="M1019 331h114v-105h-145l-67 -226h-184l-147 493h-1l-149 -493h-182l-67 226h-142v105h111l-13 47h-98v105h67l-72 246h191l124 -461h2l141 461h177l144 -462h2l125 462h187l-73 -246h69v-105h-100z" />
    <glyph glyph-name="dong" unicode="&#x20ab;" horiz-adv-x="686" 
d="M413 61h-4c-37 -47 -85 -71 -144 -71c-43 0 -82 12 -118 35c-36 24 -64 55 -83 95c-20 40 -30 83 -30 130c0 74 28 141 71 185c44 45 103 72 165 72c16 0 32 -2 59 -10c27 -7 56 -27 78 -57h4v126h-123v118h123v74h177v-74h60v-118h-60v-566h-175v61zM244 179
c19 -20 42 -30 70 -30c27 0 50 10 70 30c19 20 29 43 29 71c0 27 -10 51 -29 70c-20 20 -43 30 -70 30c-28 0 -51 -10 -71 -30c-19 -19 -29 -43 -29 -70c0 -28 10 -51 30 -71zM69 -54h519v-146h-519v146z" />
    <glyph glyph-name="Euro" unicode="&#x20ac;" horiz-adv-x="870" 
d="M665 298l172 -54c-12 -46 -41 -108 -100 -161c-40 -35 -86 -65 -151 -81c-33 -9 -67 -13 -104 -13c-84 0 -158 24 -223 71c-65 46 -110 108 -134 185h-90v98h71v22c0 5 0 14 1 25h-72v98h91c25 75 70 137 135 183c64 47 140 70 226 70c84 0 160 -25 209 -61
c25 -17 48 -38 67 -61c39 -47 58 -89 70 -132l-172 -53c-6 27 -28 70 -68 101c-25 19 -65 34 -109 34c-64 0 -119 -31 -153 -81h219l-32 -98h-223c0 -8 -1 -16 -1 -24c0 -6 1 -13 1 -23h211l-31 -98h-145c34 -51 89 -82 154 -82c53 0 100 20 128 48c28 29 45 58 53 87z" />
    <glyph glyph-name="uni20AE" unicode="&#x20ae;" horiz-adv-x="671" 
d="M430 340v-50l164 55v-112l-164 -55v-178h-182v118l-163 -54v112l163 54v50l-163 -55v113l163 54v170h-207v167h596v-167h-207v-110l164 55v-112z" />
    <glyph glyph-name="uni20B1" unicode="&#x20b1;" horiz-adv-x="777" 
d="M748 448h-73c-15 -87 -72 -148 -150 -175c-38 -13 -82 -20 -130 -20h-95v-253h-180v448h-78v82h78v199h285c75 0 137 -17 185 -50c49 -34 78 -84 86 -149h72v-82zM300 530h194c-12 28 -41 42 -87 42h-107v-42zM300 406h108c47 0 75 14 87 42h-195v-42z" />
    <glyph glyph-name="uni20B4" unicode="&#x20b4;" horiz-adv-x="715" 
d="M45 501h382c2 6 3 12 3 19c0 17 -7 32 -21 46s-34 21 -60 21c-20 0 -41 -7 -62 -20c-22 -13 -40 -32 -53 -57l-135 100c23 41 57 74 103 97s97 34 151 34c71 0 136 -22 183 -61c47 -38 76 -98 76 -165c0 -6 0 -10 -1 -14h57v-107h-623v107zM668 241h-388
c-5 -8 -8 -17 -8 -27c0 -31 20 -70 86 -70c21 0 45 5 76 16c31 12 63 38 85 73l134 -102c-44 -58 -84 -93 -133 -114c-24 -10 -49 -17 -75 -22c-25 -4 -56 -5 -92 -5c-85 0 -155 25 -198 67c-44 41 -68 95 -68 155c0 11 0 21 2 29h-44v107h623v-107z" />
    <glyph glyph-name="uni20B8" unicode="&#x20b8;" horiz-adv-x="680" 
d="M638 729v-166h-596v166h596zM42 510h596v-166h-206v-344h-183v344h-207v166z" />
    <glyph glyph-name="uni20B9" unicode="&#x20b9;" horiz-adv-x="615" 
d="M580 596h-119c14 -17 24 -37 29 -61h90v-85h-89c-12 -78 -56 -133 -132 -163l146 -287h-199l-126 256h-132v148h155c48 0 81 15 97 46h-252v85h251c-18 31 -50 46 -97 46h-154v148h532v-133z" />
    </font>
</defs>
</svg>
