<?xml version="1.0" standalone="no"?>
<!DOCTYPE svg PUBLIC "-//W3C//DTD SVG 1.1//EN" "http://www.w3.org/Graphics/SVG/1.1/DTD/svg11.dtd" >
<svg xmlns="http://www.w3.org/2000/svg" width="100%" height="100%">
<metadata>
Created by FontXChange 20110222 at Sat Feb 23 11:16:39 2019
 By Mitchell Warren
Copyright (c) 2016 by THOMAS GILLETT. All rights reserved.
</metadata>
<defs>
<font id="Gordita-Medium" horiz-adv-x="589" >
  <font-face 
    font-family="Gordita"
    font-weight="500"
    font-stretch="normal"
    units-per-em="1000"
    panose-1="0 0 0 0 0 0 0 0 0 0"
    ascent="800"
    descent="-200"
    x-height="497"
    cap-height="729"
    bbox="-203 -332 1354 1053"
    underline-thickness="46"
    underline-position="-47"
    stemh="100"
    stemv="111"
    unicode-range="U+000D-FB04"
  />
<missing-glyph horiz-adv-x="744" 
d="M84 0v729h614v-729h-614zM657 688h-537l537 -651v651z" />
    <glyph glyph-name="ff" unicode="ff" horiz-adv-x="712" 
d="M564 399v-399h-111v399h-221v-399h-112v399h-95v98h95v58c0 72 21 128 55 159c35 31 78 46 129 46c26 0 47 -2 62 -8v-94c-8 2 -21 4 -40 4s-47 -5 -70 -28c-13 -14 -24 -42 -24 -78v-59h221v58c0 72 20 128 55 159c34 31 77 46 128 46c26 0 47 -2 63 -8v-94
c-9 2 -22 4 -40 4c-19 0 -48 -5 -70 -28c-14 -14 -25 -42 -25 -78v-59h131v-98h-131z" />
    <glyph glyph-name="fi" unicode="fi" horiz-adv-x="638" 
d="M453 399h-222v-399h-111v399h-95v98h95v58c0 72 21 128 55 159c35 31 78 46 129 46c26 0 47 -2 62 -8v-94c-8 2 -21 4 -40 4s-36 -4 -58 -17c-22 -14 -37 -45 -37 -89v-59h333v-497h-111v399zM435 658c0 21 8 38 22 52c14 15 31 22 51 22s37 -7 52 -22
c14 -14 21 -31 21 -52c0 -20 -7 -37 -21 -51s-32 -22 -52 -22s-37 8 -51 22s-22 31 -22 51z" />
    <glyph glyph-name="fl" unicode="fl" horiz-adv-x="638" 
d="M231 399v-399h-111v399h-95v98h95v58c0 72 21 128 55 159c35 31 78 46 129 46c26 0 47 -2 62 -8v-94c-8 2 -21 4 -40 4s-36 -4 -58 -17c-22 -14 -37 -45 -37 -89v-59h222v262h111v-759h-111v399h-222z" />
    <glyph glyph-name="ffi" unicode="ffi" horiz-adv-x="970" 
d="M785 399h-221v-399h-111v399h-221v-399h-112v399h-95v98h95v58c0 72 21 128 55 159c35 31 78 46 129 46c26 0 47 -2 62 -8v-94c-8 2 -21 4 -40 4s-47 -5 -70 -28c-13 -14 -24 -42 -24 -78v-59h221v58c0 72 20 128 55 159c34 31 77 46 128 46c26 0 47 -2 63 -8v-94
c-9 2 -22 4 -40 4c-19 0 -48 -5 -70 -28c-14 -14 -25 -42 -25 -78v-59h332v-497h-111v399zM767 658c0 21 8 38 22 52c14 15 31 22 51 22s38 -7 52 -22c14 -14 22 -31 22 -52c0 -20 -8 -37 -22 -51s-32 -22 -52 -22s-37 8 -51 22s-22 31 -22 51z" />
    <glyph glyph-name="ffl" unicode="ffl" horiz-adv-x="970" 
d="M564 399v-399h-111v399h-221v-399h-112v399h-95v98h95v58c0 72 21 128 55 159c35 31 78 46 129 46c26 0 47 -2 62 -8v-94c-8 2 -21 4 -40 4s-47 -5 -70 -28c-13 -14 -24 -42 -24 -78v-59h221v58c0 72 20 128 55 159c34 31 77 46 128 46c26 0 47 -2 63 -8v-94
c-9 2 -22 4 -40 4c-19 0 -48 -5 -70 -28c-14 -14 -25 -42 -25 -78v-59h221v262h111v-759h-111v399h-221z" />
    <glyph glyph-name=".notdef" horiz-adv-x="744" 
d="M84 0v729h614v-729h-614zM657 688h-537l537 -651v651z" />
    <glyph glyph-name="_1" horiz-adv-x="0" 
 />
    <glyph glyph-name="nonmarkingreturn" horiz-adv-x="310" 
 />
    <glyph glyph-name="NULL" horiz-adv-x="0" 
 />
    <glyph glyph-name="NULL" horiz-adv-x="0" 
 />
    <glyph glyph-name="CR" unicode="&#xd;" horiz-adv-x="246" 
 />
    <glyph glyph-name="space" unicode=" " horiz-adv-x="246" 
 />
    <glyph glyph-name="exclam" unicode="!" horiz-adv-x="290" 
d="M85 729h120v-111l-10 -393h-100l-10 393v111zM72 66c0 -20 7 -37 21 -51s32 -21 52 -21s37 7 51 21s22 31 22 51c0 21 -8 38 -22 52s-31 22 -51 22s-38 -8 -52 -22s-21 -32 -21 -52z" />
    <glyph glyph-name="quotedbl" unicode="&#x22;" horiz-adv-x="432" 
d="M189 647c0 -8 -1 -17 -4 -27l-39 -188h-51l-40 188c-2 9 -3 17 -3 27c0 46 28 77 69 77c40 0 68 -31 68 -77zM286 432l-39 188c-2 10 -4 19 -4 27c0 45 29 77 69 77c41 0 68 -31 68 -77c0 -8 -1 -17 -3 -27l-40 -188h-51z" />
    <glyph glyph-name="numbersign" unicode="#" horiz-adv-x="771" 
d="M676 283v-90h-142l-42 -193h-97l43 193h-183l-42 -193h-97l42 193h-122v90h142l39 178h-122v90h142l39 178h97l-39 -178h182l39 178h97l-39 -178h122v-90h-142l-39 -178h122zM458 283l39 178h-184l-39 -178h184z" />
    <glyph glyph-name="dollar" unicode="$" horiz-adv-x="596" 
d="M553 206c0 -49 -20 -96 -54 -134c-35 -39 -93 -67 -159 -75v-92h-74v92c-70 8 -129 37 -166 76c-36 39 -59 85 -64 133l110 30c14 -71 57 -121 121 -134v215l-26 5c-58 13 -103 36 -135 72c-32 35 -48 76 -48 125c-2 107 94 204 208 215v96h74v-97c64 -8 115 -33 146 -67
s49 -70 56 -107l-106 -34c-6 23 -17 44 -34 63s-38 32 -63 40v-209l17 -4c128 -26 197 -101 197 -209zM267 433v197c-27 -5 -49 -18 -67 -37c-17 -19 -26 -40 -26 -63c0 -22 8 -42 25 -60c16 -19 38 -31 66 -36zM339 302v-201c29 5 52 17 70 34c18 18 27 39 27 64
c0 53 -37 88 -97 103z" />
    <glyph glyph-name="percent" unicode="%" horiz-adv-x="815" 
d="M315 688c32 -32 48 -71 48 -116c0 -46 -16 -84 -48 -117c-32 -32 -71 -48 -116 -48c-46 0 -84 16 -117 48c-32 33 -48 71 -48 117c0 45 16 84 48 116c33 32 71 48 117 48c45 0 84 -16 116 -48zM115 0l475 729h109l-474 -729h-110zM249 522c14 14 21 30 21 50
c0 19 -7 36 -21 50s-31 21 -50 21c-20 0 -37 -7 -50 -21c-14 -14 -21 -31 -21 -50c0 -20 7 -36 21 -50c13 -14 30 -21 50 -21c19 0 36 7 50 21zM780 160c0 -46 -15 -85 -48 -117c-32 -32 -71 -48 -116 -48c-46 0 -84 16 -116 48c-33 32 -49 71 -49 117c0 45 16 83 49 115
c32 33 70 49 116 49c45 0 84 -16 116 -49c33 -32 48 -70 48 -115zM687 160c0 19 -7 35 -21 50c-14 13 -31 20 -50 20c-20 0 -36 -7 -50 -20c-14 -15 -21 -31 -21 -50c0 -20 7 -37 21 -50c14 -15 30 -21 50 -21c19 0 36 6 50 21c14 13 21 30 21 50z" />
    <glyph glyph-name="ampersand" unicode="&#x26;" horiz-adv-x="679" 
d="M518 0l-60 70c-66 -52 -128 -79 -187 -79c-61 0 -116 16 -158 47c-42 30 -68 81 -68 145c0 78 47 137 145 198l-42 49c-35 40 -53 88 -53 124c0 98 82 186 200 186c54 0 100 -18 141 -54c40 -36 60 -79 60 -127c0 -66 -34 -119 -114 -168l-46 -27l130 -150
c35 42 60 84 74 126h107c-17 -63 -61 -137 -117 -200l121 -140h-133zM364 616c-18 18 -40 27 -67 27s-49 -9 -67 -27c-18 -17 -27 -38 -27 -62c0 -26 7 -45 32 -74l40 -46l68 41c32 19 47 45 47 79c0 24 -9 45 -26 62zM273 93c37 0 78 17 121 51l-144 168
c-25 -15 -41 -27 -61 -46s-31 -43 -31 -68c0 -54 27 -81 57 -93c22 -10 40 -12 58 -12z" />
    <glyph glyph-name="quotesingle" unicode="'" horiz-adv-x="240" 
d="M95 432l-40 188c-2 10 -3 19 -3 27c0 45 28 77 69 77c40 0 68 -31 68 -77c0 -8 -1 -17 -4 -27l-39 -188h-51z" />
    <glyph glyph-name="parenleft" unicode="(" horiz-adv-x="372" 
d="M353 -65l-48 -62c-82 47 -146 109 -191 187s-68 168 -68 269v27c0 102 23 192 68 272c46 79 109 142 191 188l48 -61c-64 -46 -113 -104 -149 -171c-35 -68 -53 -144 -53 -228v-26c0 -167 74 -302 202 -395z" />
    <glyph glyph-name="parenright" unicode=")" horiz-adv-x="372" 
d="M67 -127l-47 62c127 93 201 227 201 395v26c0 84 -18 160 -53 228s-85 125 -148 171l47 61c82 -46 146 -109 191 -188c46 -80 68 -170 68 -272v-27c0 -101 -22 -191 -67 -269c-46 -78 -109 -140 -192 -187z" />
    <glyph glyph-name="asterisk" unicode="*" horiz-adv-x="465" 
d="M314 360l-83 110l-80 -110l-63 46l79 110l-129 43l25 73l128 -42v139h81v-139l129 42l25 -73l-129 -43l79 -110z" />
    <glyph glyph-name="plus" unicode="+" horiz-adv-x="577" 
d="M340 99h-103v191h-195v101h195v188h103v-188h195v-101h-195v-191z" />
    <glyph glyph-name="comma" unicode="," horiz-adv-x="279" 
d="M69 -152v52c25 5 45 17 61 37c16 19 24 42 25 67c-7 -4 -16 -7 -28 -7c-20 0 -37 7 -50 21c-13 13 -20 30 -20 50c0 22 8 39 23 53s34 20 55 20c27 0 49 -9 64 -29c15 -19 23 -43 23 -71c2 -93 -57 -179 -153 -193z" />
    <glyph glyph-name="hyphen" unicode="-" horiz-adv-x="432" 
d="M367 359v-113h-302v113h302z" />
    <glyph glyph-name="period" unicode="." horiz-adv-x="272" 
d="M55 76c0 23 8 43 24 59c16 15 35 24 57 24c23 0 42 -9 58 -24c16 -16 23 -36 23 -59c0 -22 -7 -41 -23 -57s-35 -24 -58 -24c-22 0 -41 9 -57 25c-16 15 -24 34 -24 56z" />
    <glyph glyph-name="slash" unicode="/" horiz-adv-x="502" 
d="M363 759h111l-333 -764h-111z" />
    <glyph glyph-name="zero" unicode="0" horiz-adv-x="711" 
d="M515 42c-47 -34 -100 -51 -160 -51s-114 17 -160 50c-47 34 -83 78 -108 134c-25 57 -37 120 -37 190c0 103 31 198 84 265s132 109 223 109c60 0 113 -16 160 -49c47 -34 83 -78 108 -135c25 -56 37 -119 37 -189c0 -69 -12 -132 -37 -189c-26 -57 -62 -102 -110 -135z
M455 597c-30 24 -63 37 -100 37c-38 0 -70 -12 -99 -36c-57 -48 -88 -133 -88 -232c-2 -145 76 -271 189 -269c37 0 70 12 99 37c29 24 50 56 65 96c15 41 23 85 23 135c0 97 -31 182 -89 232z" />
    <glyph glyph-name="one" unicode="1" horiz-adv-x="430" 
d="M223 606l-163 -98l-53 87l222 134h109v-729h-115v606z" />
    <glyph glyph-name="two" unicode="2" horiz-adv-x="619" 
d="M47 0l-1 31c-1 107 56 194 174 264l113 66c73 43 110 85 110 150c0 34 -12 64 -37 88c-25 23 -57 35 -98 35c-59 0 -103 -29 -124 -70c-9 -18 -14 -44 -15 -78l-116 15c-2 63 27 135 88 185c39 32 100 54 169 54c77 0 144 -28 186 -70c41 -42 65 -98 65 -157
c0 -43 -11 -84 -36 -123c-24 -39 -57 -70 -100 -95l-133 -78c-10 -6 -18 -12 -26 -17c-7 -5 -17 -12 -29 -22c-24 -20 -41 -46 -48 -74h379v-104h-521z" />
    <glyph glyph-name="three" unicode="3" horiz-adv-x="625" 
d="M306 -8c-76 0 -144 26 -188 66c-45 40 -73 95 -80 154l111 20c3 -39 19 -72 47 -97c28 -26 64 -40 110 -40c49 0 95 18 125 60c15 20 23 45 23 74c0 37 -14 67 -40 89c-27 21 -60 32 -99 32c-29 0 -52 -5 -71 -15l-54 85l215 206h-344v103h494v-96l-200 -189
c135 -7 221 -100 219 -213c0 -75 -32 -138 -81 -177c-49 -40 -115 -62 -187 -62z" />
    <glyph glyph-name="four" unicode="4" horiz-adv-x="663" 
d="M404 0v161h-375v128l347 440h140v-464h109v-104h-109v-161h-112zM404 265v337l-267 -337h267z" />
    <glyph glyph-name="five" unicode="5" horiz-adv-x="607" 
d="M297 -8c-114 0 -241 60 -262 205l110 24c5 -46 30 -82 61 -100c32 -18 63 -26 93 -26c33 0 68 12 97 34s49 61 49 106s-15 79 -43 104c-29 25 -63 37 -103 37c-56 0 -101 -20 -136 -60l-104 40l85 373h387v-103h-306l-45 -196c23 20 55 34 86 40c30 5 45 5 60 5
c73 0 130 -22 174 -66c43 -44 64 -102 64 -171c0 -76 -31 -141 -80 -182s-116 -64 -187 -64z" />
    <glyph glyph-name="six" unicode="6" horiz-adv-x="638" 
d="M395 638c-67 0 -127 -31 -166 -78c-39 -48 -63 -110 -68 -175h2c21 30 48 52 83 69c35 16 70 24 107 24c72 0 136 -26 179 -73c42 -45 63 -100 63 -165c0 -49 -13 -92 -37 -130c-25 -39 -58 -68 -98 -89c-40 -20 -85 -30 -133 -30c-91 0 -165 40 -209 103
s-68 143 -68 230c-1 127 41 251 123 330c53 53 132 86 223 86c73 0 132 -14 179 -40l-38 -99c-41 25 -88 37 -142 37zM328 378c-41 0 -77 -13 -107 -40c-31 -27 -46 -60 -46 -101c0 -43 15 -77 44 -103s66 -39 109 -39s78 12 107 38c28 26 42 60 42 102c0 43 -14 78 -42 104
s-64 39 -107 39z" />
    <glyph glyph-name="seven" unicode="7" horiz-adv-x="573" 
d="M416 625h-389v104h521v-94l-335 -635h-132z" />
    <glyph glyph-name="eight" unicode="8" horiz-adv-x="632" 
d="M316 -8c-67 0 -130 18 -181 51c-50 33 -84 90 -84 156c0 38 12 74 36 106c24 33 57 57 100 71v0c-36 12 -65 34 -87 64s-33 63 -33 99c0 60 32 114 80 147c47 34 109 54 169 54c42 0 82 -8 119 -24c38 -16 69 -39 94 -70c24 -31 36 -67 36 -107c0 -34 -11 -66 -33 -97
c-22 -32 -52 -53 -87 -66v0c44 -14 77 -38 101 -71c24 -32 35 -68 35 -106c0 -80 -50 -141 -117 -173c-45 -23 -97 -34 -148 -34zM180 530c0 -31 14 -57 40 -78c27 -21 59 -31 96 -31c39 0 72 10 98 31c25 20 37 47 37 78c0 32 -13 58 -40 79c-26 21 -58 31 -96 31
c-39 0 -72 -10 -97 -30c-25 -21 -38 -47 -38 -80zM165 210c0 -33 15 -61 44 -85c29 -23 65 -34 107 -34c43 0 79 11 108 33c28 22 43 51 43 86c0 34 -15 62 -44 85c-30 22 -66 34 -108 34s-78 -11 -106 -34c-29 -22 -44 -50 -44 -85z" />
    <glyph glyph-name="nine" unicode="9" horiz-adv-x="636" 
d="M245 92c67 0 127 31 166 79s63 110 67 177h-2c-21 -31 -50 -55 -84 -71c-35 -17 -71 -25 -110 -25c-131 -2 -241 101 -239 238c0 75 31 140 80 182c48 42 115 68 187 68c110 0 189 -60 232 -145c31 -57 45 -123 45 -192c1 -127 -40 -249 -119 -328
c-53 -51 -130 -84 -221 -84c-75 0 -137 13 -183 39l37 99c41 -24 89 -37 144 -37zM306 352c42 0 78 13 109 40c30 27 45 60 45 101c0 43 -14 77 -44 104c-29 26 -66 39 -110 39c-42 0 -77 -13 -105 -39s-41 -60 -41 -102c0 -44 13 -78 40 -104c28 -26 63 -39 106 -39z" />
    <glyph glyph-name="colon" unicode=":" horiz-adv-x="292" 
d="M65 423c0 22 8 42 24 58s35 24 57 24c23 0 42 -8 58 -24s23 -35 23 -58c0 -22 -7 -41 -23 -57s-35 -24 -58 -24c-22 0 -41 8 -57 24s-24 35 -24 57zM65 76c0 23 8 43 24 59c16 15 35 24 57 24c23 0 42 -9 58 -24c16 -16 23 -36 23 -59c0 -22 -7 -41 -23 -57
s-35 -24 -58 -24c-22 0 -41 9 -57 25c-16 15 -24 34 -24 56z" />
    <glyph glyph-name="semicolon" unicode=";" horiz-adv-x="300" 
d="M68 423c0 22 8 42 24 58s35 24 57 24c23 0 42 -8 58 -24s23 -35 23 -58s-7 -41 -23 -57s-35 -24 -58 -24c-22 0 -41 8 -57 24s-24 35 -24 57zM80 -152v52c24 5 45 17 60 37c16 19 25 42 25 67c-6 -4 -15 -7 -27 -7c-21 0 -38 7 -51 21c-13 13 -19 30 -19 50
c0 22 7 39 22 53s34 20 55 20c28 0 49 -9 65 -29c15 -19 22 -43 22 -71c2 -93 -57 -179 -152 -193z" />
    <glyph glyph-name="less" unicode="&#x3c;" horiz-adv-x="617" 
d="M545 578v-108l-368 -162l368 -162v-110l-510 231v82z" />
    <glyph glyph-name="equal" unicode="=" horiz-adv-x="584" 
d="M517 522v-103h-450v103h450zM517 262v-103h-450v103h450z" />
    <glyph glyph-name="greater" unicode="&#x3e;" horiz-adv-x="617" 
d="M440 308l-368 162v108l510 -229v-82l-510 -231v110z" />
    <glyph glyph-name="question" unicode="?" horiz-adv-x="535" 
d="M154 488l-117 4c-1 15 -2 28 -2 39c0 41 11 78 33 110c22 33 51 57 86 74c35 16 73 25 113 25c55 0 113 -20 157 -53c44 -32 74 -85 74 -142c0 -74 -35 -128 -98 -174c-30 -21 -51 -40 -64 -55c-21 -25 -32 -56 -32 -91h-104c-4 15 -6 29 -6 44c0 41 15 77 36 102
c22 25 50 47 75 67c39 28 73 59 73 104c0 27 -12 49 -34 67c-22 17 -48 26 -76 26c-33 0 -61 -12 -83 -35s-33 -51 -33 -85c0 -8 1 -17 2 -27zM201 118c-14 -14 -21 -31 -21 -52c0 -20 7 -37 21 -51s31 -21 51 -21c21 0 38 7 52 21s21 31 21 51c0 21 -7 38 -21 52
s-31 22 -52 22c-20 0 -37 -8 -51 -22z" />
    <glyph glyph-name="at" unicode="@" horiz-adv-x="807" 
d="M580 110c-21 0 -41 6 -61 16c-19 11 -34 24 -43 42c-13 -18 -30 -32 -51 -42c-20 -10 -40 -15 -59 -15c-28 0 -54 8 -78 24c-23 15 -42 35 -54 59c-13 23 -19 48 -19 73c-2 112 83 214 189 213c20 0 40 -5 63 -22c12 -8 20 -20 26 -33l10 51h102l-39 -232
c-6 -38 5 -56 33 -56c26 0 51 16 76 48c23 32 35 71 35 116c0 72 -29 137 -78 183c-48 45 -122 74 -204 74c-42 0 -83 -8 -122 -25s-73 -39 -101 -68c-29 -28 -52 -61 -69 -101s-26 -81 -26 -124c0 -82 30 -158 82 -214c53 -57 135 -93 231 -93c64 0 136 21 195 65l32 -51
c-25 -22 -60 -40 -104 -54s-85 -21 -123 -21c-73 0 -138 16 -195 48c-57 33 -101 78 -133 134c-31 55 -46 117 -46 185c0 52 10 102 30 149c21 46 48 86 82 121c34 33 74 60 121 80c46 20 95 30 146 30c64 0 122 -14 175 -41c52 -27 93 -64 124 -113c30 -49 45 -103 45 -163
c0 -72 -23 -135 -58 -177c-35 -41 -84 -66 -134 -66zM414 383c-26 0 -48 -11 -66 -33c-18 -21 -27 -45 -27 -72c1 -18 7 -35 19 -50c13 -15 29 -22 50 -22c24 0 45 11 63 33c17 22 26 47 26 75c0 40 -26 69 -65 69z" />
    <glyph glyph-name="A" unicode="A" horiz-adv-x="729" 
d="M185 171l-68 -171h-117l297 729h135l295 -729h-119l-67 171h-356zM225 273h277l-139 346z" />
    <glyph glyph-name="B" unicode="B" horiz-adv-x="684" 
d="M93 729h279c70 0 127 -17 170 -51c43 -35 64 -82 64 -141c0 -22 -5 -47 -20 -78c-14 -31 -45 -61 -85 -79c53 -17 91 -47 111 -80c19 -34 27 -65 27 -96c0 -61 -22 -110 -66 -148c-44 -37 -108 -56 -193 -56h-287v729zM206 420h144c47 0 83 10 106 30c24 20 36 45 36 75
c0 60 -43 101 -136 101h-150v-206zM207 103h175c93 0 143 44 143 110c0 64 -50 107 -150 107h-168v-217z" />
    <glyph glyph-name="C" unicode="C" horiz-adv-x="785" 
d="M411 -9c-110 -1 -220 50 -290 139c-47 58 -76 141 -76 232c0 54 10 104 30 152c20 47 47 87 81 120c34 32 74 58 119 77s92 29 141 29c79 0 151 -23 201 -55c24 -17 46 -35 66 -57c38 -43 59 -85 70 -127l-113 -39c-5 23 -13 46 -36 79c-12 17 -26 32 -42 44
c-31 26 -85 47 -147 47c-65 0 -126 -27 -173 -72c-46 -45 -77 -115 -77 -194s30 -150 76 -195s108 -72 173 -72c57 0 109 20 141 45c16 13 31 27 44 44c25 33 36 59 43 84l113 -39c-13 -46 -43 -105 -100 -154c-39 -33 -84 -60 -145 -76c-32 -8 -65 -12 -99 -12z" />
    <glyph glyph-name="D" unicode="D" horiz-adv-x="757" 
d="M713 364c2 -101 -44 -211 -134 -284c-59 -48 -149 -80 -253 -80h-233v729h231c78 0 148 -17 200 -45c52 -29 96 -69 125 -113c44 -67 64 -141 64 -207zM593 364c2 68 -30 147 -92 201c-41 35 -105 58 -179 58h-115v-517h114c74 0 138 23 179 56c20 17 38 37 53 59
c28 45 40 93 40 143z" />
    <glyph glyph-name="E" unicode="E" horiz-adv-x="617" 
d="M93 729h467v-104h-353v-202h321v-104h-321v-215h356v-104h-470v729z" />
    <glyph glyph-name="F" unicode="F" horiz-adv-x="597" 
d="M207 412h323v-106h-323v-306h-114v729h465v-106h-351v-211z" />
    <glyph glyph-name="G" unicode="G" horiz-adv-x="794" 
d="M740 518l-112 -35c-9 33 -30 67 -64 98s-88 52 -149 52c-47 0 -89 -11 -128 -34c-38 -24 -68 -56 -90 -97s-33 -87 -33 -137c-3 -147 106 -270 250 -268c61 0 111 16 148 46c38 31 61 70 69 118h-261v104h385v-40c0 -92 -34 -175 -90 -235c-57 -61 -146 -98 -250 -98
c-72 0 -136 16 -192 48c-57 33 -101 77 -132 133c-31 57 -46 120 -46 190c0 53 10 104 29 151c18 46 44 86 77 119c66 66 161 107 265 107c176 0 291 -106 324 -222z" />
    <glyph glyph-name="H" unicode="H" horiz-adv-x="775" 
d="M207 315v-315h-114v729h114v-306h361v306h115v-729h-115v315h-361z" />
    <glyph glyph-name="I" unicode="I" horiz-adv-x="300" 
d="M207 729v-729h-114v729h114z" />
    <glyph glyph-name="J" unicode="J" horiz-adv-x="587" 
d="M271 -8c-72 0 -130 20 -173 62c-43 41 -65 96 -65 166v77h112v-71c0 -40 12 -71 36 -93c24 -23 52 -34 84 -34c35 0 64 11 87 34s34 52 34 87v509h115v-509c0 -65 -21 -120 -65 -163c-43 -43 -98 -65 -165 -65z" />
    <glyph glyph-name="K" unicode="K" horiz-adv-x="662" 
d="M207 0h-114v729h114v-315l291 315h152l-326 -349l345 -380h-155l-307 344v-344z" />
    <glyph glyph-name="L" unicode="L" horiz-adv-x="551" 
d="M93 729h114v-623h329v-106h-443v729z" />
    <glyph glyph-name="M" unicode="M" horiz-adv-x="969" 
d="M876 0h-114v546h-2l-228 -546h-97l-227 544h-3v-544h-112v729h155l236 -564h1l232 564h159v-729z" />
    <glyph glyph-name="N" unicode="N" horiz-adv-x="800" 
d="M708 0h-128l-374 558v-558h-113v729h132l370 -555v555h113v-729z" />
    <glyph glyph-name="O" unicode="O" horiz-adv-x="838" 
d="M45 363c0 52 10 102 30 148c19 47 46 87 80 120c33 34 73 60 120 79c45 20 94 30 145 30c68 0 131 -17 188 -49s102 -77 135 -135c33 -57 50 -121 50 -190c0 -53 -10 -102 -30 -149s-47 -87 -80 -119c-34 -33 -74 -59 -120 -78c-47 -19 -95 -29 -146 -29s-99 10 -145 29
c-46 18 -86 44 -119 76c-33 33 -59 72 -79 119c-19 45 -29 95 -29 148zM165 365c-3 -144 113 -270 254 -267c70 0 135 31 181 78c45 48 73 117 73 189c0 49 -11 94 -33 135c-23 41 -54 73 -93 97s-82 36 -128 36c-141 3 -257 -122 -254 -268z" />
    <glyph glyph-name="P" unicode="P" horiz-adv-x="635" 
d="M606 502c0 -63 -24 -120 -68 -163s-115 -69 -201 -69h-130v-270h-114v729h258c109 0 180 -40 218 -98c26 -40 37 -82 37 -129zM490 500c0 55 -29 123 -149 123h-134v-248h134c53 0 94 16 116 41s33 53 33 84z" />
    <glyph glyph-name="Q" unicode="Q" horiz-adv-x="840" 
d="M729 -15l-89 78c-66 -48 -140 -72 -223 -72c-51 0 -99 10 -145 29c-46 18 -86 44 -119 76c-33 33 -59 72 -79 119c-19 45 -29 95 -29 148c0 52 10 102 30 148c19 47 46 87 80 120c33 34 73 60 120 79c45 20 94 30 145 30s100 -10 145 -29c46 -19 86 -45 119 -78
s60 -73 80 -119c19 -47 29 -96 29 -148c0 -85 -25 -161 -75 -227l83 -71zM165 365c0 -48 11 -93 33 -134s53 -73 92 -97s82 -36 129 -36c49 0 94 13 135 39l-135 116l73 84l138 -122c29 45 43 95 43 150c0 49 -11 94 -33 135c-23 41 -54 73 -93 97s-82 36 -128 36
c-141 3 -257 -122 -254 -268z" />
    <glyph glyph-name="R" unicode="R" horiz-adv-x="670" 
d="M359 277h-152v-277h-114v729h274c88 0 155 -27 193 -70c38 -44 55 -95 55 -155c0 -95 -50 -171 -144 -204l162 -300h-127zM207 380h148c110 0 144 64 144 121c0 56 -25 122 -144 122h-148v-243z" />
    <glyph glyph-name="S" unicode="S" horiz-adv-x="606" 
d="M309 -8c-82 0 -152 27 -195 68c-44 41 -70 92 -75 145l111 30c8 -43 26 -77 54 -102s64 -38 107 -38c37 0 68 10 94 29c25 19 38 43 38 73c0 57 -43 93 -108 107l-90 18c-58 12 -103 36 -135 72c-33 36 -49 78 -49 126c-3 118 112 222 240 220c99 -1 165 -36 202 -83
c27 -32 40 -63 47 -97l-107 -33c-7 28 -23 54 -48 76s-55 33 -91 33c-35 0 -65 -10 -89 -31c-25 -21 -37 -45 -37 -74c0 -22 8 -42 25 -61c17 -18 39 -30 67 -36l92 -18c129 -26 199 -102 199 -211c0 -54 -24 -106 -65 -146c-42 -40 -109 -67 -187 -67z" />
    <glyph glyph-name="T" unicode="T" horiz-adv-x="614" 
d="M250 0v623h-232v106h578v-106h-232v-623h-114z" />
    <glyph glyph-name="U" unicode="U" horiz-adv-x="736" 
d="M652 729v-446c0 -86 -25 -158 -72 -210c-46 -53 -120 -82 -213 -82c-94 0 -169 31 -214 83s-68 122 -68 204v451h114v-447c0 -56 16 -101 47 -134c32 -33 73 -49 123 -49c53 0 94 16 124 50c29 33 44 76 44 129v451h115z" />
    <glyph glyph-name="V" unicode="V" horiz-adv-x="720" 
d="M18 729h127l217 -597l219 597h121l-276 -729h-131z" />
    <glyph glyph-name="W" unicode="W" horiz-adv-x="1093" 
d="M22 729h122l164 -567l175 567h127l177 -567l167 567h119l-223 -729h-130l-174 570h-1l-175 -570h-129z" />
    <glyph glyph-name="X" unicode="X" horiz-adv-x="682" 
d="M340 286l-205 -286h-133l271 375l-255 354h137l187 -266l187 266h135l-254 -353l269 -376h-136z" />
    <glyph glyph-name="Y" unicode="Y" horiz-adv-x="699" 
d="M292 0v291l-274 438h132l200 -327l201 327h131l-275 -435v-294h-115z" />
    <glyph glyph-name="Z" unicode="Z" horiz-adv-x="619" 
d="M433 626h-383v103h522v-98l-398 -528h406v-103h-545v99z" />
    <glyph glyph-name="bracketleft" unicode="[" horiz-adv-x="399" 
d="M365 807v-88h-172v-747h172v-89h-276v924h276z" />
    <glyph glyph-name="backslash" unicode="\" horiz-adv-x="502" 
d="M472 -5h-111l-333 764h112z" />
    <glyph glyph-name="bracketright" unicode="]" horiz-adv-x="399" 
d="M205 -28v747h-171v88h276v-924h-276v89h171z" />
    <glyph glyph-name="asciicircum" unicode="^" horiz-adv-x="576" 
d="M160 420h-116l201 309h86l202 -309h-115l-130 203z" />
    <glyph glyph-name="underscore" unicode="_" horiz-adv-x="501" 
d="M501 -65v-99h-501v99h501z" />
    <glyph glyph-name="grave" unicode="`" horiz-adv-x="273" 
d="M252 582h-96l-135 160h135z" />
    <glyph glyph-name="a" unicode="a" horiz-adv-x="535" 
d="M470 0h-108c-3 14 -5 36 -5 68c-17 -28 -38 -47 -64 -59c-27 -12 -54 -18 -82 -18c-48 0 -89 14 -120 42c-31 27 -47 62 -47 105v5c1 69 42 111 96 132c38 15 74 20 110 20h62c31 0 46 14 46 42c0 21 -8 39 -25 54c-17 14 -41 22 -73 22c-59 0 -100 -33 -108 -83l-101 23
c3 23 14 48 34 75c20 26 45 46 78 60c28 13 62 19 101 19c93 0 155 -34 186 -102c11 -24 17 -53 17 -88v-237c0 -33 1 -60 3 -80zM357 201v16h-107c-24 0 -45 -6 -65 -18c-20 -13 -30 -30 -30 -51c0 -41 32 -68 79 -68c37 0 68 11 90 33s33 51 33 88z" />
    <glyph glyph-name="b" unicode="b" horiz-adv-x="634" 
d="M593 250c0 -45 -10 -87 -30 -126c-21 -39 -50 -71 -88 -95c-39 -24 -81 -37 -129 -37c-28 0 -58 8 -91 23s-57 35 -73 61v-76h-108v758h111v-334c16 26 40 46 72 61s63 22 92 22c74 0 139 -33 180 -82c40 -49 64 -111 64 -175zM183 249c0 -44 14 -80 42 -111
c28 -30 63 -45 107 -45s80 15 108 45c28 31 41 67 41 111s-13 81 -41 112c-28 30 -64 45 -108 45s-79 -15 -107 -45c-28 -31 -42 -68 -42 -112z" />
    <glyph glyph-name="c" unicode="c" horiz-adv-x="567" 
d="M300 -9c-144 -2 -262 115 -259 259c0 46 11 89 34 129c22 39 54 71 94 94s84 34 132 34c59 0 109 -15 151 -47c42 -31 68 -69 79 -113l-100 -33c-6 21 -18 41 -38 61c-20 19 -53 32 -92 32c-41 0 -76 -15 -104 -43c-28 -29 -42 -67 -42 -113s14 -84 41 -114
c28 -30 64 -45 106 -45c63 0 107 32 131 95l101 -33c-11 -40 -36 -77 -74 -109c-38 -33 -95 -54 -160 -54z" />
    <glyph glyph-name="d" unicode="d" horiz-adv-x="634" 
d="M40 249c0 64 24 127 65 176c42 49 108 82 183 82c27 0 56 -7 87 -21c32 -13 57 -33 74 -60v332h111v-758h-109v78c-12 -20 -29 -37 -51 -51c-23 -13 -44 -22 -63 -27s-37 -8 -52 -8c-46 0 -89 13 -126 37c-38 24 -67 56 -88 95c-20 39 -31 81 -31 125zM450 249
c0 44 -13 81 -41 112c-28 30 -64 45 -108 45s-79 -15 -107 -45c-28 -31 -42 -68 -42 -112s14 -80 42 -111c28 -30 63 -45 107 -45s80 15 108 45c28 31 41 67 41 111z" />
    <glyph glyph-name="e" unicode="e" horiz-adv-x="573" 
d="M532 216h-378c2 -74 74 -131 146 -130c64 0 113 27 132 84l93 -29c-18 -61 -68 -110 -128 -133c-31 -11 -62 -17 -96 -17c-143 -3 -263 114 -260 258c0 47 11 90 32 129c22 40 51 71 90 94c38 23 81 35 128 35c76 0 135 -23 178 -71c43 -47 65 -109 65 -186
c0 -12 -1 -24 -2 -34zM292 412c-34 0 -64 -10 -88 -31c-24 -20 -39 -47 -44 -81h261c-2 34 -15 61 -39 82c-25 20 -55 30 -90 30z" />
    <glyph glyph-name="f" unicode="f" horiz-adv-x="380" 
d="M232 399v-399h-112v399h-95v98h95v58c0 72 21 128 55 159c35 31 78 46 129 46c26 0 47 -2 62 -8v-94c-8 2 -21 4 -40 4s-47 -5 -70 -28c-13 -14 -24 -42 -24 -78v-59h130v-98h-130z" />
    <glyph glyph-name="g" unicode="g" horiz-adv-x="630" 
d="M282 -4c-69 0 -133 30 -174 77c-42 47 -68 111 -68 177c0 62 24 124 65 173c40 49 106 82 180 82c27 0 56 -6 88 -20c32 -15 57 -35 75 -64v76h108v-494c0 -52 -12 -96 -36 -135c-24 -38 -55 -68 -96 -87c-40 -20 -86 -30 -137 -30c-75 0 -144 22 -196 74
c-26 26 -42 58 -49 94l104 30c6 -27 22 -50 48 -69c26 -20 55 -30 89 -30c82 0 162 44 162 148v82c-12 -20 -30 -37 -51 -50c-22 -13 -42 -22 -61 -27c-18 -4 -35 -7 -51 -7zM447 252c0 44 -14 81 -41 110c-27 30 -63 44 -107 44s-80 -14 -108 -44c-27 -29 -41 -66 -41 -110
s14 -81 42 -111c28 -31 63 -46 107 -46s79 15 107 46c27 30 41 67 41 111z" />
    <glyph glyph-name="h" unicode="h" 
d="M410 0v278c0 75 -37 124 -110 124c-35 0 -63 -11 -84 -34s-31 -53 -31 -91v-277h-111v758h111v-324c15 19 32 34 51 46c20 11 37 19 53 22c15 3 30 5 45 5c61 0 107 -18 139 -56c32 -37 47 -86 47 -145v-306h-110z" />
    <glyph glyph-name="i" unicode="i" horiz-adv-x="259" 
d="M78 607c-14 14 -22 31 -22 51c0 21 8 38 22 52c14 15 31 22 51 22c21 0 38 -7 52 -22c14 -14 21 -31 21 -52c0 -20 -7 -37 -21 -51s-31 -22 -52 -22c-20 0 -37 8 -51 22zM74 0v497h111v-497h-111z" />
    <glyph glyph-name="j" unicode="j" horiz-adv-x="266" 
d="M64 658c0 21 7 38 21 52c15 15 32 22 51 22c21 0 38 -7 53 -22c14 -14 21 -31 21 -52c0 -20 -7 -37 -21 -51c-15 -14 -32 -22 -53 -22c-20 0 -37 8 -51 22s-21 31 -21 51zM81 -70v567h111v-573c0 -119 -48 -170 -147 -170c-24 0 -48 3 -71 9v94c16 -2 28 -3 36 -3
c47 0 71 26 71 76z" />
    <glyph glyph-name="k" unicode="k" horiz-adv-x="540" 
d="M185 243v-243h-111v758h111v-457h1l193 196h151l-225 -225l237 -272h-147l-207 243h-3z" />
    <glyph glyph-name="l" unicode="l" horiz-adv-x="259" 
d="M185 758v-758h-111v758h111z" />
    <glyph glyph-name="m" unicode="m" horiz-adv-x="907" 
d="M401 0v279c0 75 -34 124 -106 124c-35 0 -61 -11 -80 -34c-20 -24 -30 -54 -30 -92v-277h-111v497h108v-67c15 20 32 36 52 48c19 12 36 21 51 25c15 3 31 5 46 5c71 0 122 -27 153 -81c25 28 51 48 78 62c27 13 58 19 95 19c61 0 109 -22 138 -58c29 -37 43 -85 43 -143
v-307h-111v280c0 75 -33 123 -106 123c-34 0 -61 -11 -80 -34c-20 -23 -30 -54 -30 -91v-278h-110z" />
    <glyph glyph-name="n" unicode="n" 
d="M410 0v278c0 75 -37 124 -110 124c-35 0 -63 -11 -84 -34s-31 -53 -31 -91v-277h-111v497h108v-67c15 20 33 36 53 48s37 20 53 24c15 3 31 5 46 5c61 0 107 -18 139 -56c32 -37 47 -86 47 -145v-306h-110z" />
    <glyph glyph-name="o" unicode="o" horiz-adv-x="605" 
d="M40 249c0 48 12 92 36 132c24 39 55 71 96 93c40 22 84 33 132 33c46 0 90 -11 130 -33s72 -53 96 -92c23 -40 35 -83 35 -131c3 -144 -120 -263 -262 -260c-48 0 -91 12 -131 34c-41 22 -72 54 -96 93c-24 40 -36 83 -36 131zM154 251c0 -43 14 -81 42 -112
s64 -47 108 -47s79 15 107 46c27 30 41 67 41 111s-14 82 -42 112c-27 31 -63 46 -107 46s-80 -15 -108 -45s-41 -67 -41 -111z" />
    <glyph glyph-name="p" unicode="p" horiz-adv-x="634" 
d="M593 250c0 -45 -10 -87 -30 -126c-21 -39 -50 -71 -88 -95c-39 -24 -81 -37 -129 -37c-30 0 -66 8 -110 33c-22 13 -39 29 -51 48v-318h-111v742h108v-77c20 32 52 57 83 69s60 18 84 18c74 0 139 -33 180 -82c40 -49 64 -111 64 -175zM183 249c0 -44 14 -80 42 -111
c28 -30 63 -45 107 -45s80 15 108 45c28 31 41 67 41 111s-13 81 -41 112c-28 30 -64 45 -108 45s-79 -15 -107 -45c-28 -31 -42 -68 -42 -112z" />
    <glyph glyph-name="q" unicode="q" horiz-adv-x="634" 
d="M40 249c0 64 24 127 65 176c42 49 108 82 183 82c32 0 70 -8 113 -35c21 -13 38 -29 50 -49v74h109v-742h-111v319c-13 -19 -30 -35 -52 -48s-42 -22 -61 -27c-18 -4 -36 -7 -51 -7c-46 0 -89 13 -126 37c-38 24 -67 56 -88 95c-20 39 -31 81 -31 125zM450 249
c0 44 -13 81 -41 112c-28 30 -64 45 -108 45s-79 -15 -107 -45c-28 -31 -42 -68 -42 -112s14 -80 42 -111c28 -30 63 -45 107 -45s80 15 108 45c28 31 41 67 41 111z" />
    <glyph glyph-name="r" unicode="r" horiz-adv-x="366" 
d="M346 499v-114c-9 2 -19 3 -31 3c-84 0 -130 -49 -130 -135v-253h-111v497h109v-77c29 53 82 81 136 81c10 0 19 -1 27 -2z" />
    <glyph glyph-name="s" unicode="s" horiz-adv-x="461" 
d="M236 -9c-80 1 -134 32 -163 70c-21 27 -31 51 -33 75l95 25c10 -46 45 -79 100 -79c45 0 70 23 70 58c0 27 -17 45 -59 55l-63 15c-88 20 -132 75 -132 142c0 43 17 79 51 110c33 30 75 46 125 46c77 -1 126 -30 153 -66c19 -25 27 -46 30 -67l-93 -26
c-9 38 -37 69 -90 69c-18 0 -34 -5 -48 -16c-14 -10 -20 -24 -20 -40c0 -28 20 -46 50 -52l68 -14c44 -10 79 -28 104 -55c24 -27 37 -59 37 -95c0 -76 -58 -155 -182 -155z" />
    <glyph glyph-name="t" unicode="t" horiz-adv-x="396" 
d="M355 497v-100h-126v-237c0 -44 22 -64 76 -64c11 0 26 1 45 4v-95c-22 -6 -49 -10 -79 -10c-51 0 -90 12 -115 36s-38 65 -38 123v243h-96v100h96v154h111v-154h126z" />
    <glyph glyph-name="u" unicode="u" 
d="M180 497v-278c0 -75 36 -124 109 -124c35 0 63 11 84 34s31 54 31 91v277h111v-497h-108v67c-15 -20 -32 -36 -52 -48c-20 -13 -38 -20 -54 -24c-15 -4 -31 -5 -46 -5c-80 0 -139 39 -166 99c-14 30 -20 64 -20 102v306h111z" />
    <glyph glyph-name="v" unicode="v" horiz-adv-x="562" 
d="M337 0h-111l-210 497h120l146 -368l146 368h117z" />
    <glyph glyph-name="w" unicode="w" horiz-adv-x="819" 
d="M579 145h1l105 352h114l-160 -497h-114l-115 349h-2l-116 -349h-113l-159 497h115l105 -351h1l113 351h111z" />
    <glyph glyph-name="x" unicode="x" horiz-adv-x="531" 
d="M265 173l-125 -173h-127l189 251l-182 246h127l119 -165l120 165h125l-182 -244l188 -253h-127z" />
    <glyph glyph-name="y" unicode="y" horiz-adv-x="570" 
d="M236 56l-221 441h126l155 -326l143 326h120l-341 -742h-118z" />
    <glyph glyph-name="z" unicode="z" horiz-adv-x="492" 
d="M310 400h-263v97h402v-88l-274 -313h275v-96h-410v92z" />
    <glyph glyph-name="braceleft" unicode="{" horiz-adv-x="419" 
d="M123 90l15 102c6 43 -3 72 -26 87s-49 20 -86 20h-7v90h7c36 0 63 6 86 21s32 45 26 87l-15 103c-13 78 2 134 42 165c40 30 93 42 169 42h50v-88h-44c-69 -1 -99 -17 -109 -51c-3 -15 -5 -26 -4 -47c2 -21 3 -35 7 -61l11 -74c7 -47 -7 -123 -110 -141v0
c103 -19 117 -95 110 -140l-11 -75c-4 -30 -6 -45 -7 -68c-1 -22 2 -34 8 -49c12 -28 43 -41 105 -42h44v-88h-50c-144 0 -236 42 -211 207z" />
    <glyph glyph-name="bar" unicode="|" horiz-adv-x="283" 
d="M194 830v-938h-105v938h105z" />
    <glyph glyph-name="braceright" unicode="}" horiz-adv-x="419" 
d="M281 192l15 -102c24 -165 -67 -207 -211 -207h-50v88h45c35 0 60 6 77 14c18 7 27 25 32 40c5 14 4 42 2 64c-1 10 -3 24 -6 41l-12 75c-7 45 8 121 111 140v0c-103 18 -117 94 -110 141l11 74c4 26 5 40 7 61c1 10 1 19 0 25c-2 14 -5 31 -12 40c-17 21 -45 33 -100 33
h-45v88h50c145 1 235 -46 211 -207l-15 -103c-6 -42 4 -72 27 -87c22 -15 49 -21 85 -21h7v-90h-7c-37 0 -63 -5 -85 -20c-23 -15 -33 -44 -27 -87z" />
    <glyph glyph-name="asciitilde" unicode="~" horiz-adv-x="591" 
d="M393 192c-17 0 -35 4 -54 12s-36 17 -50 26c-14 10 -30 19 -47 26c-17 8 -32 12 -45 12c-27 0 -52 -14 -72 -43l-64 60c34 59 79 89 136 89c19 0 38 -4 59 -12c20 -8 37 -17 51 -26c14 -10 29 -19 45 -26c16 -8 29 -12 41 -12c27 0 51 14 72 42l64 -60
c-34 -58 -79 -88 -136 -88z" />
    <glyph glyph-name="uni00A0" unicode="&#xa0;" horiz-adv-x="246" 
 />
    <glyph glyph-name="exclamdown" unicode="&#xa1;" horiz-adv-x="275" 
d="M64 435c0 20 7 37 21 51c15 14 32 21 52 21s38 -7 52 -21s21 -31 21 -51c0 -21 -7 -38 -21 -52s-32 -22 -52 -22s-37 8 -51 22c-15 14 -22 32 -22 52zM197 -228h-119v111l9 392l101 1l9 -393v-111z" />
    <glyph glyph-name="cent" unicode="&#xa2;" horiz-adv-x="577" 
d="M437 187l101 -33c-11 -36 -32 -70 -65 -101s-82 -54 -137 -60v-88h-70v89c-64 9 -117 37 -158 85c-42 47 -63 104 -63 171c0 64 21 120 63 169c41 47 94 76 158 86v88h70v-88c52 -5 95 -23 131 -53s58 -65 68 -105l-100 -33c-6 21 -17 39 -33 56c-17 18 -39 29 -67 34
v-309c48 8 81 39 102 92zM189 350c-20 -27 -30 -60 -30 -99c0 -38 10 -71 30 -99c19 -27 46 -46 78 -55v305c-32 -8 -58 -26 -78 -52z" />
    <glyph glyph-name="sterling" unicode="&#xa3;" horiz-adv-x="638" 
d="M492 206l110 -10c0 -57 -17 -104 -52 -141s-81 -55 -137 -55h-358v99c32 16 60 39 83 68c23 30 34 62 34 96c0 13 -2 29 -5 47h-108v95h76c-19 52 -29 93 -29 124s7 60 19 86s29 49 50 67c41 36 98 57 158 57c125 2 225 -79 224 -194l-112 -19c0 30 -10 56 -30 77
c-21 20 -47 31 -80 31c-32 0 -58 -10 -79 -31c-21 -20 -31 -46 -31 -77c0 -13 1 -27 5 -42c4 -16 7 -28 10 -37c4 -9 9 -23 16 -42h202v-95h-171c3 -14 3 -26 3 -36c0 -69 -29 -126 -89 -171h192c32 0 56 11 73 32c17 20 26 44 26 71z" />
    <glyph glyph-name="currency" unicode="&#xa4;" horiz-adv-x="625" 
d="M90 252c0 42 12 81 36 118v0l-79 81l68 68l82 -84c36 21 74 32 116 32c41 0 80 -11 115 -31l82 83l68 -69l-79 -80c24 -35 36 -75 36 -118c0 -42 -11 -74 -35 -116l-2 -3l81 -80l-68 -68l-82 84c-43 -21 -81 -32 -116 -32s-74 11 -116 32l-82 -84l-68 69l80 80
c-25 36 -37 75 -37 118zM397 336c-23 22 -51 33 -85 33s-62 -11 -85 -33c-22 -22 -34 -51 -34 -85s12 -61 34 -83c23 -23 51 -33 85 -33s62 10 85 33c22 22 33 49 33 83s-11 63 -33 85z" />
    <glyph glyph-name="yen" unicode="&#xa5;" horiz-adv-x="705" 
d="M630 365v-85h-220v-74h220v-85h-220v-121h-116v121h-219v85h219v74h-219v85h180l-221 364h132l187 -323l187 323h131l-223 -364h182z" />
    <glyph glyph-name="brokenbar" unicode="&#xa6;" horiz-adv-x="281" 
d="M193 466h-105v364h105v-364zM88 -108v363h105v-363h-105z" />
    <glyph glyph-name="section" unicode="&#xa7;" horiz-adv-x="620" 
d="M318 83c24 0 50 6 70 24c10 9 15 21 15 34c0 29 -32 47 -89 61l-99 25c-46 11 -82 25 -115 47c-34 21 -55 53 -55 90c0 65 44 106 111 123c-34 22 -57 57 -57 96c0 50 28 92 69 117s91 40 142 40c71 0 132 -20 172 -50c39 -30 64 -67 75 -108l-94 -33
c-9 27 -25 51 -50 69s-60 27 -103 27c-32 0 -92 -14 -92 -56c0 -30 34 -49 96 -64l93 -23c113 -27 169 -73 169 -136c0 -66 -43 -105 -111 -123c34 -19 58 -57 58 -96c0 -107 -107 -159 -204 -159c-70 0 -127 16 -172 47c-46 32 -75 71 -87 118l94 31c16 -48 56 -79 98 -91
c20 -7 43 -10 66 -10zM237 440c-46 0 -79 -24 -79 -57c0 -31 33 -51 120 -73c49 -12 85 -19 107 -19c23 0 42 6 57 17c15 10 22 24 22 40c0 31 -34 51 -120 73c-50 12 -86 19 -107 19z" />
    <glyph glyph-name="dieresis" unicode="&#xa8;" horiz-adv-x="391" 
d="M92 578c-19 0 -36 7 -49 20c-13 14 -20 30 -20 50c0 19 7 35 20 49c13 13 29 20 49 20c19 0 36 -7 49 -20c14 -14 21 -30 21 -49c0 -20 -7 -36 -21 -50c-13 -13 -30 -20 -49 -20zM299 578c-20 0 -36 7 -49 20c-14 14 -21 30 -21 50c0 19 7 35 20 49c13 13 30 20 50 20
c19 0 36 -7 49 -20c13 -14 20 -30 20 -49c0 -20 -7 -36 -20 -50c-14 -13 -30 -20 -49 -20z" />
    <glyph glyph-name="copyright" unicode="&#xa9;" horiz-adv-x="834" 
d="M416 -9c-50 0 -97 10 -143 30c-46 19 -85 46 -118 79c-34 34 -60 74 -79 120c-20 45 -30 94 -30 145c0 50 10 99 30 145c19 46 45 86 79 120c33 33 72 60 118 80c46 19 93 29 143 29c51 0 99 -10 144 -29c46 -20 85 -47 119 -80c33 -34 59 -74 79 -120
c19 -46 29 -95 29 -145c0 -51 -10 -100 -29 -145c-20 -46 -46 -86 -79 -120c-34 -33 -73 -60 -119 -79c-45 -20 -93 -30 -144 -30zM416 680c-42 0 -82 -8 -120 -25s-71 -39 -98 -67s-49 -62 -65 -101s-24 -80 -24 -122c0 -43 8 -84 24 -123c16 -38 38 -72 65 -100
c54 -56 133 -91 218 -91c43 0 83 8 121 25c38 16 71 39 98 66c28 28 50 62 65 100c16 39 25 80 25 123c0 42 -9 83 -25 122c-15 39 -37 73 -65 101c-27 28 -60 50 -98 67s-78 25 -121 25zM542 309l90 -29c-10 -35 -32 -69 -66 -97c-33 -29 -85 -48 -143 -48
c-65 0 -120 22 -164 66s-67 99 -67 164c0 42 10 80 31 115c20 35 47 64 83 84c36 21 75 31 119 31c52 0 97 -14 135 -41c36 -28 60 -62 70 -102l-90 -29c-10 35 -42 82 -115 82c-37 0 -69 -12 -94 -38s-37 -59 -37 -100s12 -75 37 -102c25 -26 56 -40 94 -40
c56 0 95 28 117 84z" />
    <glyph glyph-name="ordfeminine" unicode="&#xaa;" horiz-adv-x="519" 
d="M351 360v45c-12 -17 -29 -29 -51 -38c-21 -8 -40 -12 -57 -12c-49 0 -91 17 -124 53s-50 78 -50 126c0 87 65 180 176 180c18 0 37 -4 57 -12c20 -9 36 -21 49 -37v42h87v-347h-87zM255 634c-29 0 -52 -9 -70 -29c-18 -19 -27 -43 -27 -71s9 -52 27 -71s41 -29 70 -29
s52 10 70 29c18 20 27 43 27 71s-9 52 -27 71c-18 20 -42 29 -70 29zM74 269h364v-79h-364v79z" />
    <glyph glyph-name="guillemotleft" unicode="&#xab;" horiz-adv-x="591" 
d="M306 423l-145 -143l145 -142l-64 -63l-209 205l209 206zM539 423l-145 -143l146 -142l-65 -63l-209 205l209 206z" />
    <glyph glyph-name="logicalnot" unicode="&#xac;" horiz-adv-x="647" 
d="M46 417v103h530v-298h-105v195h-425z" />
    <glyph glyph-name="uni00AD" unicode="&#xad;" horiz-adv-x="432" 
d="M367 359v-113h-302v113h302z" />
    <glyph glyph-name="registered" unicode="&#xae;" horiz-adv-x="604" 
d="M427 274c-38 -22 -80 -34 -125 -34s-87 12 -125 34s-68 52 -91 91c-22 38 -33 80 -33 125s11 86 33 125c23 38 53 69 91 91s80 34 125 34s87 -12 125 -34s68 -53 91 -91c22 -39 33 -80 33 -125s-11 -87 -33 -125c-23 -39 -53 -69 -91 -91zM302 692
c-56 0 -102 -19 -141 -59c-39 -39 -58 -87 -58 -143s19 -104 58 -143c39 -40 85 -59 141 -59s103 19 142 59c38 39 57 87 57 143s-19 104 -57 143c-39 40 -86 59 -142 59zM305 450h-41v-103h-58v286h106c33 0 58 -8 75 -26c16 -18 24 -40 24 -65c0 -35 -16 -65 -49 -80
l59 -115h-64zM353 541c0 25 -15 38 -46 38h-43v-76h43c32 0 46 18 46 38z" />
    <glyph glyph-name="degree" unicode="&#xb0;" horiz-adv-x="422" 
d="M210 401c-45 0 -85 17 -117 49c-33 33 -49 72 -49 119c0 45 16 84 49 117c32 33 72 49 117 49c47 0 86 -16 119 -49c32 -32 49 -71 49 -117c0 -47 -17 -87 -49 -119s-72 -49 -119 -49zM210 645c-21 0 -39 -7 -54 -22c-14 -15 -21 -33 -21 -54c0 -22 7 -39 21 -54
c15 -15 33 -23 54 -23c22 0 40 8 55 23s22 32 22 54c0 20 -8 38 -23 53s-33 23 -54 23z" />
    <glyph glyph-name="plusminus" unicode="&#xb1;" horiz-adv-x="633" 
d="M369 176h-105v168h-199v101h199v166h105v-166h198v-101h-198v-168zM566 122v-99h-500v99h500z" />
    <glyph glyph-name="uni00B2" unicode="&#xb2;" horiz-adv-x="433" 
d="M215 830c46 0 83 -14 112 -41c28 -27 43 -60 43 -98c0 -52 -35 -102 -88 -134l-66 -40c-22 -12 -36 -25 -42 -38h198v-83h-315v26c0 58 30 117 107 162l58 34c37 21 56 45 56 72c0 30 -25 56 -65 56c-19 0 -34 -6 -47 -20c-12 -13 -18 -29 -18 -47l-88 13
c1 38 16 70 45 97c28 27 65 41 110 41z" />
    <glyph glyph-name="uni00B3" unicode="&#xb3;" horiz-adv-x="417" 
d="M365 529c0 -42 -16 -77 -48 -103s-69 -40 -112 -40c-41 0 -77 13 -109 38c-31 25 -48 58 -50 99l91 14c0 -19 7 -35 20 -47c13 -13 29 -19 48 -19c37 0 66 23 66 60c0 16 -6 29 -19 39s-28 15 -45 15c-11 0 -21 -1 -30 -5l-41 64l113 95h-192v81h303v-77l-103 -88h2
c31 -4 57 -18 76 -42c20 -24 30 -52 30 -84z" />
    <glyph glyph-name="acute" unicode="&#xb4;" horiz-adv-x="265" 
d="M111 742h136l-135 -160h-96z" />
    <glyph glyph-name="uni00B5" unicode="&#xb5;" horiz-adv-x="615" 
d="M195 497v-278c0 -75 36 -124 110 -124c35 0 62 11 83 34s32 54 32 91v277h110v-497h-108v67c-37 -50 -86 -75 -147 -75c-28 0 -63 10 -83 23v-168h-108v650h111z" />
    <glyph glyph-name="paragraph" unicode="&#xb6;" horiz-adv-x="504" 
d="M290 335h-48c-58 0 -107 20 -147 59c-41 38 -62 85 -62 139c-2 107 96 198 209 196h163v-729h-115v335z" />
    <glyph glyph-name="middot" unicode="&#xb7;" horiz-adv-x="281" 
d="M59 300c0 24 8 43 24 59s35 24 57 24c23 0 42 -8 58 -24s24 -35 24 -59c0 -22 -8 -40 -24 -56s-35 -24 -58 -24c-22 0 -41 8 -57 24s-24 35 -24 56z" />
    <glyph glyph-name="uni00B9" unicode="&#xb9;" horiz-adv-x="323" 
d="M156 723l-96 -58l-42 70l141 85h93v-424h-96v327z" />
    <glyph glyph-name="ordmasculine" unicode="&#xba;" horiz-adv-x="509" 
d="M255 355c-51 0 -95 17 -131 51c-37 35 -55 78 -55 129c0 50 18 93 55 128c36 34 80 51 131 51s95 -17 130 -51c36 -34 55 -77 55 -127c0 -51 -18 -94 -54 -129s-80 -52 -131 -52zM255 634c-29 0 -53 -9 -70 -28c-19 -19 -28 -42 -28 -70s9 -52 28 -72
c19 -19 42 -29 70 -29c29 0 52 9 70 29c17 19 26 42 26 71c0 28 -9 51 -26 70c-19 20 -42 29 -70 29zM74 269h361v-79h-361v79z" />
    <glyph glyph-name="guillemotright" unicode="&#xbb;" horiz-adv-x="591" 
d="M198 280l-145 143l64 63l208 -206l-208 -205l-65 63zM431 280l-145 143l64 63l209 -206l-209 -205l-65 63z" />
    <glyph glyph-name="onequarter" unicode="&#xbc;" horiz-adv-x="896" 
d="M169 631l-97 -57l-42 70l142 85h93v-424h-96v326zM144 0l475 729h109l-473 -729h-111zM691 0v86h-214v102l190 235h117v-255h72v-82h-72v-86h-93zM691 168v159l-128 -159h128z" />
    <glyph glyph-name="onehalf" unicode="&#xbd;" horiz-adv-x="902" 
d="M169 631l-97 -57l-42 70l141 85h94v-424h-96v326zM144 0l475 729h109l-474 -729h-110zM694 433c46 0 84 -13 112 -40c29 -28 43 -60 43 -98c0 -52 -34 -102 -88 -134l-66 -40c-22 -14 -36 -26 -41 -38h197v-83h-315v25c0 58 30 117 107 162l58 34c37 22 56 46 56 72
c0 31 -24 57 -64 57c-19 0 -35 -6 -47 -20c-12 -13 -19 -29 -19 -48l-88 14c1 38 16 70 45 97c28 27 65 40 110 40z" />
    <glyph glyph-name="threequarters" unicode="&#xbe;" horiz-adv-x="918" 
d="M359 438c0 -43 -16 -77 -48 -103c-32 -27 -70 -40 -112 -40s-78 13 -109 38c-32 25 -49 58 -50 98l90 15c0 -19 7 -35 20 -47c13 -13 29 -19 48 -19c37 0 67 23 67 60c0 16 -6 29 -20 39c-13 10 -28 15 -45 15c-11 0 -21 -2 -30 -5l-40 64l112 94h-192v82h304v-78
l-104 -87h2c32 -4 57 -19 77 -43s30 -52 30 -83zM172 0l475 729h109l-474 -729h-110zM719 0v86h-214v102l190 235h117v-255h72v-82h-72v-86h-93zM719 168v159l-129 -159h129z" />
    <glyph glyph-name="questiondown" unicode="&#xbf;" horiz-adv-x="524" 
d="M327 486c14 -14 21 -31 21 -51c0 -21 -7 -38 -21 -52s-32 -22 -51 -22c-21 0 -38 8 -52 22s-22 31 -22 52c0 20 8 37 22 51s31 21 52 21c20 0 37 -7 51 -21zM374 13l117 -5c1 -21 2 -34 2 -38c0 -41 -11 -78 -33 -110c-22 -33 -51 -57 -86 -74c-35 -16 -73 -25 -113 -25
c-38 0 -74 8 -108 24c-35 15 -64 38 -88 68c-23 31 -35 65 -35 103c0 74 35 127 99 174c26 19 47 37 62 55c22 25 33 55 33 91h104c4 -16 7 -31 7 -44c0 -41 -15 -77 -37 -102s-49 -47 -75 -67c-39 -28 -73 -59 -73 -104c0 -27 11 -49 34 -67c22 -17 48 -26 76 -26
c33 0 61 12 83 35s33 51 33 84c0 10 -1 19 -2 28z" />
    <glyph glyph-name="Agrave" unicode="&#xc0;" horiz-adv-x="729" 
d="M415 796h-96l-135 160h136zM185 171l-68 -171h-117l297 729h135l295 -729h-119l-67 171h-356zM225 273h277l-139 346z" />
    <glyph glyph-name="Aacute" unicode="&#xc1;" horiz-adv-x="729" 
d="M411 955h136l-135 -160h-96zM185 171l-68 -171h-117l297 729h135l295 -729h-119l-67 171h-356zM225 273h277l-139 346z" />
    <glyph glyph-name="Acircumflex" unicode="&#xc2;" horiz-adv-x="729" 
d="M189 795l128 160h87l134 -160h-106l-69 86l-64 -86h-110zM185 171l-68 -171h-117l297 729h135l295 -729h-119l-67 171h-356zM225 273h277l-139 346z" />
    <glyph glyph-name="Atilde" unicode="&#xc3;" horiz-adv-x="729" 
d="M530 942v-10c0 -82 -32 -124 -96 -124c-48 -2 -97 47 -131 46c-19 0 -29 -15 -31 -45h-77v11c0 82 33 124 98 124c43 1 102 -47 133 -45c19 0 31 14 34 43h70zM185 171l-68 -171h-117l297 729h135l295 -729h-119l-67 171h-356zM225 273h277l-139 346z" />
    <glyph glyph-name="Adieresis" unicode="&#xc4;" horiz-adv-x="729" 
d="M258 790c-19 0 -36 7 -49 21c-14 14 -20 30 -20 49c0 20 6 36 20 50c13 14 30 20 49 20s36 -6 49 -20c14 -14 21 -30 21 -50c0 -19 -7 -35 -21 -49c-13 -14 -30 -21 -49 -21zM523 811c-13 -14 -30 -21 -49 -21c-20 0 -36 7 -49 21c-14 13 -20 30 -20 49c0 20 6 36 20 50
c13 14 29 20 49 20c19 0 36 -6 49 -20c14 -14 21 -30 21 -50c0 -19 -7 -35 -21 -49zM185 171l-68 -171h-117l297 729h135l295 -729h-119l-67 171h-356zM225 273h277l-139 346z" />
    <glyph glyph-name="Aring" unicode="&#xc5;" horiz-adv-x="728" 
d="M608 0l-67 171h-356l-68 -171h-117l279 684c-31 24 -50 61 -50 101c0 35 13 66 40 91c26 25 58 38 95 38s69 -13 96 -38c26 -25 39 -56 39 -91c0 -41 -16 -75 -49 -100l277 -685h-119zM364 845c-19 0 -34 -6 -46 -17c-12 -12 -18 -26 -18 -43s6 -31 19 -43
c12 -12 27 -18 45 -18c17 0 33 6 45 18s18 26 18 43c0 15 -6 30 -19 42s-28 18 -44 18zM363 619l-138 -346h277z" />
    <glyph glyph-name="AE" unicode="&#xc6;" horiz-adv-x="980" 
d="M114 0h-125l396 729h538v-104h-348v-202h316v-104h-316v-215h351v-104h-465v171h-255zM260 273h201v353h-11z" />
    <glyph glyph-name="Ccedilla" unicode="&#xc7;" horiz-adv-x="785" 
d="M457 -6c14 -22 21 -46 21 -74c0 -31 -8 -59 -25 -81c-17 -23 -38 -40 -63 -50c-25 -11 -53 -16 -83 -16c-29 0 -53 4 -72 11v74c19 -5 40 -7 62 -7c58 0 98 29 98 86c0 18 -5 37 -14 56c-104 8 -203 60 -267 147c-43 56 -69 135 -69 222c0 54 10 104 30 152
c20 47 47 87 81 120c34 32 74 58 119 77s92 29 141 29c79 0 151 -23 201 -55c24 -17 46 -35 66 -57c38 -43 59 -85 70 -127l-113 -39c-5 23 -13 46 -36 79c-12 17 -26 32 -42 44c-31 26 -85 47 -147 47c-65 0 -126 -27 -173 -72c-46 -45 -77 -115 -77 -194s30 -150 76 -195
s108 -72 173 -72c57 0 109 20 141 45c16 13 31 27 44 44c25 33 36 59 43 84l113 -39c-9 -35 -27 -73 -61 -114c-18 -21 -37 -39 -59 -56c-43 -34 -107 -62 -178 -69z" />
    <glyph glyph-name="Egrave" unicode="&#xc8;" horiz-adv-x="618" 
d="M412 796h-96l-136 160h137zM528 319h-321v-215h357v-104h-471v729h467v-104h-353v-202h321v-104z" />
    <glyph glyph-name="Eacute" unicode="&#xc9;" horiz-adv-x="618" 
d="M368 955h135l-135 -160h-97zM93 729h467v-104h-353v-202h321v-104h-321v-215h357v-104h-471v729z" />
    <glyph glyph-name="Ecircumflex" unicode="&#xca;" horiz-adv-x="618" 
d="M264 795h-111l130 160h87l133 -160h-106l-68 86zM528 319h-321v-215h357v-104h-471v729h467v-104h-353v-202h321v-104z" />
    <glyph glyph-name="Edieresis" unicode="&#xcb;" horiz-adv-x="617" 
d="M221 790c-20 0 -36 7 -49 21c-14 14 -21 30 -21 49c0 20 7 36 20 50c14 14 30 20 50 20c19 0 35 -6 49 -20s20 -30 20 -50c0 -19 -6 -35 -20 -49s-30 -21 -49 -21zM486 811c-14 -14 -30 -21 -50 -21c-19 0 -36 7 -49 21c-13 13 -20 30 -20 49c0 20 7 36 20 50
s30 20 49 20c20 0 36 -6 50 -20s20 -30 20 -50c0 -19 -6 -35 -20 -49zM93 729h467v-104h-353v-202h321v-104h-321v-215h356v-104h-470v729z" />
    <glyph glyph-name="Igrave" unicode="&#xcc;" horiz-adv-x="300" 
d="M199 796h-96l-135 160h135zM93 0v729h114v-729h-114z" />
    <glyph glyph-name="Iacute" unicode="&#xcd;" horiz-adv-x="300" 
d="M198 955h135l-135 -160h-97zM207 729v-729h-114v729h114z" />
    <glyph glyph-name="Icircumflex" unicode="&#xce;" horiz-adv-x="300" 
d="M86 795h-111l130 160h86l134 -160h-106l-69 86zM93 0v729h114v-729h-114z" />
    <glyph glyph-name="Idieresis" unicode="&#xcf;" horiz-adv-x="300" 
d="M48 790c-19 0 -36 7 -49 21c-14 14 -20 30 -20 49c0 20 6 36 20 50c13 14 30 20 49 20c20 0 36 -6 50 -20c13 -14 20 -30 20 -50c0 -19 -7 -35 -20 -49c-14 -14 -31 -21 -50 -21zM250 790c-19 0 -35 7 -48 21c-14 14 -21 30 -21 49c0 20 7 36 20 50c14 14 30 20 49 20
c20 0 36 -6 50 -20s20 -30 20 -50c0 -19 -6 -35 -20 -49s-30 -21 -50 -21zM207 729v-729h-114v729h114z" />
    <glyph glyph-name="Eth" unicode="&#xd0;" horiz-adv-x="777" 
d="M112 319h-98v104h98v306h232c90 0 171 -23 226 -61c28 -18 52 -40 74 -64c63 -73 87 -164 89 -240c1 -101 -44 -211 -134 -284c-59 -48 -150 -80 -254 -80h-233v319zM227 423h162v-104h-162v-213h113c75 0 138 23 180 56c20 17 38 37 52 59c29 45 41 93 41 143
c1 68 -30 147 -93 201c-40 35 -105 58 -179 58h-114v-200z" />
    <glyph glyph-name="Ntilde" unicode="&#xd1;" horiz-adv-x="800" 
d="M568 942v-10c0 -82 -33 -124 -97 -124c-48 -2 -97 47 -131 46c-19 0 -29 -15 -30 -45h-78v11c0 82 33 124 98 124c44 1 103 -47 133 -45c20 0 31 14 34 43h71zM708 0h-128l-374 558v-558h-113v729h132l370 -555v555h113v-729z" />
    <glyph glyph-name="Ograve" unicode="&#xd2;" horiz-adv-x="838" 
d="M474 796h-96l-135 160h136zM45 363c0 52 10 102 30 148c19 47 46 87 80 120c33 34 73 60 120 79c45 20 94 30 145 30c68 0 131 -17 188 -49s102 -77 135 -135c33 -57 50 -121 50 -190c0 -53 -10 -102 -30 -149s-47 -87 -80 -119c-34 -33 -74 -59 -120 -78
c-47 -19 -95 -29 -146 -29s-99 10 -145 29c-46 18 -86 44 -119 76c-33 33 -59 72 -79 119c-19 45 -29 95 -29 148zM165 365c-3 -144 113 -270 254 -267c70 0 135 31 181 78c45 48 73 117 73 189c0 49 -11 94 -33 135c-23 41 -54 73 -93 97s-82 36 -128 36
c-141 3 -257 -122 -254 -268z" />
    <glyph glyph-name="Oacute" unicode="&#xd3;" horiz-adv-x="838" 
d="M465 955h135l-135 -160h-96zM45 363c0 52 10 102 30 148c19 47 46 87 80 120c33 34 73 60 120 79c45 20 94 30 145 30c68 0 131 -17 188 -49s102 -77 135 -135c33 -57 50 -121 50 -190c0 -53 -10 -102 -30 -149s-47 -87 -80 -119c-34 -33 -74 -59 -120 -78
c-47 -19 -95 -29 -146 -29s-99 10 -145 29c-46 18 -86 44 -119 76c-33 33 -59 72 -79 119c-19 45 -29 95 -29 148zM165 365c-3 -144 113 -270 254 -267c70 0 135 31 181 78c45 48 73 117 73 189c0 49 -11 94 -33 135c-23 41 -54 73 -93 97s-82 36 -128 36
c-141 3 -257 -122 -254 -268z" />
    <glyph glyph-name="Ocircumflex" unicode="&#xd4;" horiz-adv-x="838" 
d="M354 795h-110l129 160h87l133 -160h-106l-68 86zM45 363c0 52 10 102 30 148c19 47 46 87 80 120c33 34 73 60 120 79c45 20 94 30 145 30c68 0 131 -17 188 -49s102 -77 135 -135c33 -57 50 -121 50 -190c0 -53 -10 -102 -30 -149s-47 -87 -80 -119
c-34 -33 -74 -59 -120 -78c-47 -19 -95 -29 -146 -29s-99 10 -145 29c-46 18 -86 44 -119 76c-33 33 -59 72 -79 119c-19 45 -29 95 -29 148zM165 365c-3 -144 113 -270 254 -267c70 0 135 31 181 78c45 48 73 117 73 189c0 49 -11 94 -33 135c-23 41 -54 73 -93 97
s-82 36 -128 36c-141 3 -257 -122 -254 -268z" />
    <glyph glyph-name="Otilde" unicode="&#xd5;" horiz-adv-x="838" 
d="M587 942v-10c0 -82 -32 -124 -96 -124c-48 -2 -97 47 -131 46c-19 0 -30 -15 -31 -45h-77v11c0 82 33 124 98 124c44 1 101 -47 133 -45c19 0 31 14 34 43h70zM45 363c0 52 10 102 30 148c19 47 46 87 80 120c33 34 73 60 120 79c45 20 94 30 145 30
c68 0 131 -17 188 -49s102 -77 135 -135c33 -57 50 -121 50 -190c0 -53 -10 -102 -30 -149s-47 -87 -80 -119c-34 -33 -74 -59 -120 -78c-47 -19 -95 -29 -146 -29s-99 10 -145 29c-46 18 -86 44 -119 76c-33 33 -59 72 -79 119c-19 45 -29 95 -29 148zM165 365
c-3 -144 113 -270 254 -267c70 0 135 31 181 78c45 48 73 117 73 189c0 49 -11 94 -33 135c-23 41 -54 73 -93 97s-82 36 -128 36c-141 3 -257 -122 -254 -268z" />
    <glyph glyph-name="Odieresis" unicode="&#xd6;" horiz-adv-x="838" 
d="M313 790c-20 0 -36 7 -49 21c-14 14 -21 30 -21 49c0 20 7 36 20 50s30 20 50 20c19 0 35 -6 49 -20c13 -14 20 -30 20 -50c0 -19 -7 -35 -20 -49c-14 -14 -30 -21 -49 -21zM578 811c-14 -14 -30 -21 -50 -21c-19 0 -36 7 -49 21c-13 13 -20 30 -20 49c0 20 7 36 20 50
s30 20 49 20c20 0 36 -6 50 -20c13 -14 20 -30 20 -50c0 -19 -7 -35 -20 -49zM45 363c0 52 10 102 30 148c19 47 46 87 80 120c33 34 73 60 120 79c45 20 94 30 145 30c68 0 131 -17 188 -49s102 -77 135 -135c33 -57 50 -121 50 -190c0 -53 -10 -102 -30 -149
s-47 -87 -80 -119c-34 -33 -74 -59 -120 -78c-47 -19 -95 -29 -146 -29s-99 10 -145 29c-46 18 -86 44 -119 76c-33 33 -59 72 -79 119c-19 45 -29 95 -29 148zM165 365c-3 -144 113 -270 254 -267c70 0 135 31 181 78c45 48 73 117 73 189c0 49 -11 94 -33 135
c-23 41 -54 73 -93 97s-82 36 -128 36c-141 3 -257 -122 -254 -268z" />
    <glyph glyph-name="multiply" unicode="&#xd7;" horiz-adv-x="629" 
d="M126 59l-71 73l188 188l-188 189l71 73l189 -191l188 191l72 -73l-189 -189l189 -188l-72 -73l-188 190z" />
    <glyph glyph-name="Oslash" unicode="&#xd8;" horiz-adv-x="843" 
d="M800 704l-91 -96c55 -65 87 -150 87 -242c0 -53 -10 -102 -30 -149s-47 -87 -81 -119c-34 -33 -74 -59 -120 -78s-95 -29 -145 -29c-85 0 -160 24 -225 73l-86 -88l-64 59l85 90c-55 66 -83 146 -83 238c0 52 10 102 30 148c20 47 47 87 80 120c34 34 74 60 120 79
c46 20 95 30 146 30c83 0 157 -25 222 -72l91 96zM167 365c0 -57 15 -109 45 -154l356 374c-43 32 -92 48 -147 48c-140 3 -256 -122 -254 -268zM675 365c0 59 -15 112 -47 158l-357 -375c44 -33 94 -50 150 -50c71 0 136 31 181 78c45 48 73 117 73 189z" />
    <glyph glyph-name="Ugrave" unicode="&#xd9;" horiz-adv-x="736" 
d="M426 796h-96l-135 160h136zM537 278v451h115v-446c0 -86 -25 -158 -72 -210c-46 -53 -120 -82 -213 -82c-94 0 -169 31 -214 83s-68 122 -68 204v451h114v-447c0 -56 16 -101 47 -134c32 -33 73 -49 123 -49c52 0 94 16 124 50c29 33 44 76 44 129z" />
    <glyph glyph-name="Uacute" unicode="&#xda;" horiz-adv-x="737" 
d="M406 955h136l-135 -160h-96zM653 729v-446c0 -86 -25 -158 -72 -210c-46 -53 -121 -82 -213 -82c-94 0 -169 31 -214 83c-46 52 -69 122 -69 204v451h115v-447c0 -56 16 -101 47 -134c32 -33 73 -49 123 -49c53 0 94 16 124 50c29 33 44 76 44 129v451h115z" />
    <glyph glyph-name="Ucircumflex" unicode="&#xdb;" horiz-adv-x="737" 
d="M304 795h-110l129 160h87l133 -160h-106l-68 86zM538 278v451h115v-446c0 -86 -25 -158 -72 -210c-46 -53 -121 -82 -213 -82c-94 0 -169 31 -214 83c-46 52 -69 122 -69 204v451h115v-447c0 -56 16 -101 47 -134c32 -33 73 -49 123 -49c52 0 94 16 124 50
c29 33 44 76 44 129z" />
    <glyph glyph-name="Udieresis" unicode="&#xdc;" horiz-adv-x="736" 
d="M260 790c-19 0 -35 7 -49 21c-13 14 -20 30 -20 49c0 20 7 36 20 50s30 20 49 20c20 0 36 -6 50 -20c13 -14 20 -30 20 -50c0 -19 -7 -35 -20 -49c-14 -14 -30 -21 -50 -21zM525 811c-13 -14 -30 -21 -49 -21c-20 0 -36 7 -49 21c-13 13 -20 30 -20 49c0 20 7 36 20 50
s29 20 49 20c19 0 36 -6 49 -20c14 -14 21 -30 21 -50c0 -19 -7 -35 -21 -49zM652 729v-446c0 -86 -25 -158 -72 -210c-46 -53 -120 -82 -213 -82c-94 0 -169 31 -214 83s-68 122 -68 204v451h114v-447c0 -56 16 -101 47 -134c32 -33 73 -49 123 -49c53 0 94 16 124 50
c29 33 44 76 44 129v451h115z" />
    <glyph glyph-name="Yacute" unicode="&#xdd;" horiz-adv-x="700" 
d="M389 955h135l-135 -160h-96zM292 0v291l-274 438h133l200 -327l201 327h131l-275 -435v-294h-116z" />
    <glyph glyph-name="Thorn" unicode="&#xde;" horiz-adv-x="635" 
d="M207 600h143c110 -1 181 -40 218 -99c27 -39 37 -82 37 -129c0 -63 -24 -120 -67 -162c-44 -43 -116 -70 -201 -70h-130v-140h-114v730h114v-130zM207 245h133c53 0 95 16 117 41s32 54 32 84c0 55 -29 124 -149 124h-133v-249z" />
    <glyph glyph-name="germandbls" unicode="&#xdf;" horiz-adv-x="611" 
d="M580 147c0 -38 -13 -73 -39 -104s-74 -52 -136 -52c-51 0 -92 14 -124 40c-32 27 -49 61 -50 104l96 19c0 -24 8 -41 23 -54c15 -12 33 -18 54 -18c23 0 41 6 52 18c12 12 18 26 18 42c0 28 -19 50 -57 65l-36 15c-71 29 -106 72 -106 129c0 58 31 99 70 124l23 15
c42 27 59 48 59 80c0 27 -11 49 -31 66c-21 16 -49 24 -83 24c-40 0 -71 -14 -93 -42c-24 -29 -35 -67 -35 -115v-503h-111v510c0 82 26 148 70 189c44 40 101 61 169 61c105 0 224 -55 224 -186c0 -41 -12 -76 -33 -101s-38 -39 -63 -54l-21 -13c-23 -14 -33 -25 -33 -45
c0 -19 11 -31 46 -45l38 -16c32 -13 58 -33 79 -60c20 -26 30 -57 30 -93z" />
    <glyph glyph-name="agrave" unicode="&#xe0;" horiz-adv-x="535" 
d="M318 582h-96l-135 160h136zM211 -9c-48 0 -89 14 -120 42c-31 27 -47 62 -47 105v5c1 69 42 111 96 132c38 15 74 20 110 20h62c31 0 46 14 46 42c0 21 -8 39 -25 54c-17 14 -41 22 -73 22c-59 0 -100 -33 -108 -83l-101 23c3 23 14 48 34 75c20 26 45 46 78 60
c28 13 62 19 101 19c93 0 155 -34 186 -102c11 -24 17 -53 17 -88v-237c0 -33 1 -60 3 -80h-108c-3 14 -5 36 -5 68c-17 -28 -38 -47 -64 -59c-27 -12 -54 -18 -82 -18zM357 217h-107c-24 0 -45 -6 -65 -18c-20 -13 -30 -30 -30 -51c0 -41 32 -68 79 -68c37 0 68 11 90 33
s33 51 33 88v16z" />
    <glyph glyph-name="aacute" unicode="&#xe1;" horiz-adv-x="535" 
d="M304 742h136l-135 -160h-96zM211 -9c-48 0 -89 14 -120 42c-31 27 -47 62 -47 105v5c1 69 42 111 96 132c38 15 74 20 110 20h62c31 0 46 14 46 42c0 21 -8 39 -25 54c-17 14 -41 22 -73 22c-59 0 -100 -33 -108 -83l-101 23c3 23 14 48 34 75c20 26 45 46 78 60
c28 13 62 19 101 19c93 0 155 -34 186 -102c11 -24 17 -53 17 -88v-237c0 -33 1 -60 3 -80h-108c-3 14 -5 36 -5 68c-17 -28 -38 -47 -64 -59c-27 -12 -54 -18 -82 -18zM357 217h-107c-24 0 -45 -6 -65 -18c-20 -13 -30 -30 -30 -51c0 -41 32 -68 79 -68c37 0 68 11 90 33
s33 51 33 88v16z" />
    <glyph glyph-name="acircumflex" unicode="&#xe2;" horiz-adv-x="535" 
d="M197 581h-110l129 161h87l133 -161h-106l-68 86zM211 -9c-48 0 -89 14 -120 42c-31 27 -47 62 -47 105v5c1 69 42 111 96 132c38 15 74 20 110 20h62c31 0 46 14 46 42c0 21 -8 39 -25 54c-17 14 -41 22 -73 22c-59 0 -100 -33 -108 -83l-101 23c3 23 14 48 34 75
c20 26 45 46 78 60c28 13 62 19 101 19c93 0 155 -34 186 -102c11 -24 17 -53 17 -88v-237c0 -33 1 -60 3 -80h-108c-3 14 -5 36 -5 68c-17 -28 -38 -47 -64 -59c-27 -12 -54 -18 -82 -18zM357 217h-107c-24 0 -45 -6 -65 -18c-20 -13 -30 -30 -30 -51c0 -41 32 -68 79 -68
c37 0 68 11 90 33s33 51 33 88v16z" />
    <glyph glyph-name="atilde" unicode="&#xe3;" horiz-adv-x="535" 
d="M429 724v-10c0 -83 -32 -124 -96 -124c-48 -2 -98 47 -132 45c-18 0 -29 -15 -30 -44h-77v10c0 83 32 124 98 124c43 2 101 -46 133 -44c19 0 30 14 34 43h70zM211 -9c-48 0 -89 14 -120 42c-31 27 -47 62 -47 105v5c1 69 42 111 96 132c38 15 74 20 110 20h62
c31 0 46 14 46 42c0 21 -8 39 -25 54c-17 14 -41 22 -73 22c-59 0 -100 -33 -108 -83l-101 23c3 23 14 48 34 75c20 26 45 46 78 60c28 13 62 19 101 19c93 0 155 -34 186 -102c11 -24 17 -53 17 -88v-237c0 -33 1 -60 3 -80h-108c-3 14 -5 36 -5 68
c-17 -28 -38 -47 -64 -59c-27 -12 -54 -18 -82 -18zM357 217h-107c-24 0 -45 -6 -65 -18c-20 -13 -30 -30 -30 -51c0 -41 32 -68 79 -68c37 0 68 11 90 33s33 51 33 88v16z" />
    <glyph glyph-name="adieresis" unicode="&#xe4;" horiz-adv-x="535" 
d="M160 578c-20 0 -36 7 -49 20c-14 14 -21 30 -21 50c0 19 7 35 20 49c14 13 30 20 50 20c19 0 35 -7 49 -20c14 -14 21 -30 21 -49c0 -20 -7 -36 -21 -50c-14 -13 -30 -20 -49 -20zM366 578c-19 0 -36 7 -49 20c-13 14 -20 30 -20 50c0 19 7 35 20 49c13 13 30 20 49 20
c20 0 36 -7 50 -20c13 -14 20 -30 20 -49c0 -20 -7 -36 -21 -50c-13 -13 -30 -20 -49 -20zM211 -9c-48 0 -89 14 -120 42c-31 27 -47 62 -47 105v5c1 69 42 111 96 132c38 15 74 20 110 20h62c31 0 46 14 46 42c0 21 -8 39 -25 54c-17 14 -41 22 -73 22
c-59 0 -100 -33 -108 -83l-101 23c3 23 14 48 34 75c20 26 45 46 78 60c28 13 62 19 101 19c93 0 155 -34 186 -102c11 -24 17 -53 17 -88v-237c0 -33 1 -60 3 -80h-108c-3 14 -5 36 -5 68c-17 -28 -38 -47 -64 -59c-27 -12 -54 -18 -82 -18zM357 201v16h-107
c-24 0 -45 -6 -65 -18c-20 -13 -30 -30 -30 -51c0 -41 32 -68 79 -68c37 0 68 11 90 33s33 51 33 88z" />
    <glyph glyph-name="aring" unicode="&#xe5;" horiz-adv-x="535" 
d="M467 317v-237c0 -33 2 -60 4 -80h-109c-3 14 -4 36 -4 68c-17 -28 -38 -47 -65 -59s-53 -18 -81 -18c-49 0 -89 14 -121 42c-31 27 -47 62 -47 105v5c1 69 43 111 97 132c37 15 73 20 110 20h61c31 0 47 14 47 42c0 21 -9 39 -26 54c-17 14 -41 22 -72 22
c-60 0 -100 -33 -109 -83l-100 23c3 29 18 61 50 93c16 16 34 29 54 39c-18 23 -28 50 -28 80c0 35 13 65 40 90s58 38 95 38c38 0 70 -12 97 -37c26 -25 39 -56 39 -91c0 -30 -9 -56 -28 -79c36 -17 63 -44 79 -81c12 -24 17 -53 17 -88zM264 621c-34 0 -59 -25 -59 -56
c0 -16 5 -29 17 -40c11 -12 25 -17 42 -17s31 5 43 17c11 11 17 24 17 40c0 15 -6 28 -18 39s-26 17 -42 17zM358 217h-108c-23 0 -45 -6 -65 -18c-20 -13 -30 -30 -30 -51c0 -41 32 -68 79 -68c38 0 68 11 91 33c22 22 33 51 33 88v16z" />
    <glyph glyph-name="ae" unicode="&#xe6;" horiz-adv-x="885" 
d="M846 250c0 -11 0 -22 -1 -34h-380c1 -36 16 -67 46 -92s64 -38 102 -38c69 0 112 28 131 83l95 -28c-14 -46 -42 -83 -84 -110c-43 -26 -90 -40 -141 -40c-80 0 -152 34 -200 90c-51 -60 -117 -90 -198 -90h-2c-49 0 -89 14 -122 42c-32 27 -48 62 -48 105v5
c1 69 42 111 96 132c38 15 74 20 110 20h71c27 0 41 14 41 42c0 42 -36 75 -98 76c-31 0 -57 -8 -77 -23c-21 -15 -33 -35 -37 -59l-99 22c3 23 14 47 35 74c22 27 49 47 81 62c28 12 61 18 99 18c77 0 132 -23 164 -71c43 45 107 71 176 71c75 0 134 -23 177 -71
c42 -47 63 -109 63 -186zM470 300h265c-2 35 -15 62 -39 82s-55 30 -91 30c-35 0 -65 -10 -90 -31c-25 -20 -40 -47 -45 -81zM360 217h-110c-24 0 -45 -6 -65 -18c-20 -13 -30 -30 -30 -51c0 -41 32 -68 79 -68c38 0 69 11 92 32c23 22 34 51 34 89v16z" />
    <glyph glyph-name="ccedilla" unicode="&#xe7;" horiz-adv-x="567" 
d="M268 -7c-66 8 -120 36 -163 84s-64 105 -64 173c0 46 11 89 34 129c22 39 54 71 94 94s84 34 132 34c59 0 109 -15 151 -47c42 -31 68 -69 79 -113l-100 -33c-6 21 -18 41 -38 61c-20 19 -53 32 -92 32c-41 0 -76 -15 -104 -43c-28 -29 -42 -67 -42 -113s14 -84 41 -114
c28 -30 64 -45 106 -45c63 0 107 32 131 95l101 -33c-14 -47 -43 -91 -98 -125c-28 -18 -59 -29 -93 -34c14 -22 22 -47 22 -75c0 -31 -9 -59 -25 -81c-17 -23 -38 -40 -63 -50c-26 -11 -53 -16 -84 -16c-28 0 -53 4 -71 11v74c18 -5 39 -7 61 -7c59 0 98 29 98 86
c0 18 -5 37 -13 56z" />
    <glyph glyph-name="egrave" unicode="&#xe8;" horiz-adv-x="573" 
d="M345 582h-96l-135 160h135zM532 216h-378c2 -74 74 -131 146 -130c64 0 113 27 132 84l93 -29c-18 -61 -68 -110 -128 -133c-31 -11 -62 -17 -96 -17c-143 -3 -263 114 -260 258c0 47 11 90 32 129c22 40 51 71 90 94c38 23 81 35 128 35c76 0 135 -23 178 -71
c43 -47 65 -109 65 -186c0 -12 -1 -24 -2 -34zM292 412c-34 0 -64 -10 -88 -31c-24 -20 -39 -47 -44 -81h261c-2 34 -15 61 -39 82c-25 20 -55 30 -90 30z" />
    <glyph glyph-name="eacute" unicode="&#xe9;" horiz-adv-x="573" 
d="M336 742h136l-135 -160h-96zM532 216h-378c2 -74 74 -131 146 -130c64 0 113 27 132 84l93 -29c-18 -61 -68 -110 -128 -133c-31 -11 -62 -17 -96 -17c-143 -3 -263 114 -260 258c0 47 11 90 32 129c22 40 51 71 90 94c38 23 81 35 128 35c76 0 135 -23 178 -71
c43 -47 65 -109 65 -186c0 -12 -1 -24 -2 -34zM292 412c-34 0 -64 -10 -88 -31c-24 -20 -39 -47 -44 -81h261c-2 34 -15 61 -39 82c-25 20 -55 30 -90 30z" />
    <glyph glyph-name="ecircumflex" unicode="&#xea;" horiz-adv-x="573" 
d="M224 581h-110l128 161h87l134 -161h-106l-69 86zM532 216h-378c2 -74 74 -131 146 -130c64 0 113 27 132 84l93 -29c-18 -61 -68 -110 -128 -133c-31 -11 -62 -17 -96 -17c-143 -3 -263 114 -260 258c0 47 11 90 32 129c22 40 51 71 90 94c38 23 81 35 128 35
c76 0 135 -23 178 -71c43 -47 65 -109 65 -186c0 -12 -1 -24 -2 -34zM292 412c-34 0 -64 -10 -88 -31c-24 -20 -39 -47 -44 -81h261c-2 34 -15 61 -39 82c-25 20 -55 30 -90 30z" />
    <glyph glyph-name="edieresis" unicode="&#xeb;" horiz-adv-x="573" 
d="M186 578c-19 0 -36 7 -49 20c-13 14 -20 30 -20 50c0 19 7 35 20 49c13 13 29 20 49 20c19 0 36 -7 49 -20c14 -14 21 -30 21 -49c0 -20 -7 -36 -21 -50c-13 -13 -30 -20 -49 -20zM393 578c-20 0 -36 7 -49 20c-14 14 -21 30 -21 50c0 19 7 35 20 49c13 13 30 20 50 20
c19 0 36 -7 49 -20c13 -14 20 -30 20 -49c0 -20 -7 -36 -20 -50c-14 -13 -30 -20 -49 -20zM534 250c0 -12 -1 -24 -2 -34h-378c2 -74 74 -131 146 -130c64 0 113 27 132 84l93 -29c-18 -61 -68 -110 -128 -133c-31 -11 -62 -17 -96 -17c-143 -3 -263 114 -260 258
c0 47 11 90 32 129c22 40 51 71 90 94c38 23 81 35 128 35c76 0 135 -23 178 -71c43 -47 65 -109 65 -186zM160 300h261c-2 34 -15 61 -39 82c-25 20 -55 30 -90 30c-34 0 -64 -10 -88 -31c-24 -20 -39 -47 -44 -81z" />
    <glyph glyph-name="igrave" unicode="&#xec;" horiz-adv-x="260" 
d="M177 578h-96l-135 160h136zM74 0v497h111v-497h-111z" />
    <glyph glyph-name="iacute" unicode="&#xed;" horiz-adv-x="260" 
d="M178 742h136l-135 -160h-97zM185 497v-497h-111v497h111z" />
    <glyph glyph-name="icircumflex" unicode="&#xee;" horiz-adv-x="260" 
d="M65 581h-110l129 161h86l135 -161h-106l-69 86zM74 0v497h111v-497h-111z" />
    <glyph glyph-name="idieresis" unicode="&#xef;" horiz-adv-x="259" 
d="M24 578c-19 0 -36 7 -49 20c-14 14 -20 30 -20 50c0 19 6 35 20 49c13 13 29 20 49 20c19 0 36 -7 49 -20c14 -14 21 -30 21 -49c0 -20 -7 -36 -21 -50c-13 -13 -30 -20 -49 -20zM230 578c-19 0 -35 7 -49 20c-13 14 -20 30 -20 50c0 19 7 35 20 49c13 13 30 20 49 20
c20 0 36 -7 50 -20c13 -14 20 -30 20 -49c0 -20 -7 -36 -20 -50c-14 -13 -30 -20 -50 -20zM185 497v-497h-111v497h111z" />
    <glyph glyph-name="eth" unicode="&#xf0;" horiz-adv-x="610" 
d="M513 656l-84 -37c85 -87 132 -203 132 -337c0 -106 -41 -197 -123 -251c-41 -26 -88 -40 -142 -40c-46 0 -89 11 -128 34c-39 22 -70 52 -93 91c-22 39 -34 82 -34 129c-2 130 110 238 240 235c26 0 54 -5 82 -17c29 -12 52 -27 71 -45h1c-23 66 -56 119 -100 158
l-143 -64l-29 68l104 45c-35 20 -78 37 -130 52l38 83c74 -18 138 -48 193 -88l115 53zM301 90c44 0 79 15 107 45c28 29 42 65 42 107c0 41 -15 76 -44 104c-28 28 -65 42 -109 42c-43 0 -78 -13 -104 -41c-27 -28 -40 -63 -40 -106c0 -41 14 -76 42 -106s64 -45 106 -45z
" />
    <glyph glyph-name="ntilde" unicode="&#xf1;" 
d="M465 724v-10c0 -83 -32 -124 -96 -124c-49 -2 -98 47 -132 45c-18 0 -29 -15 -30 -44h-77v10c0 83 32 124 98 124c43 2 102 -46 132 -44c20 0 31 14 35 43h70zM410 0v278c0 75 -37 124 -110 124c-35 0 -63 -11 -84 -34s-31 -53 -31 -91v-277h-111v497h108v-67
c15 20 33 36 53 48s37 20 53 24c15 3 31 5 46 5c61 0 107 -18 139 -56c32 -37 47 -86 47 -145v-306h-110z" />
    <glyph glyph-name="ograve" unicode="&#xf2;" horiz-adv-x="605" 
d="M355 582h-95l-135 160h135zM40 249c0 48 12 92 36 132c24 39 56 71 96 93c41 22 84 33 132 33c47 0 91 -11 131 -33c39 -22 71 -53 95 -92c23 -40 35 -83 35 -131s-12 -92 -35 -131c-23 -40 -55 -72 -95 -95c-40 -22 -84 -34 -132 -34c-47 0 -91 12 -131 34
c-41 22 -72 54 -96 93c-24 40 -36 83 -36 131zM154 251c0 -43 14 -81 42 -112s64 -47 108 -47s79 15 107 46c27 30 41 67 41 111s-14 82 -42 112c-27 31 -63 46 -107 46s-80 -15 -108 -45s-41 -67 -41 -111z" />
    <glyph glyph-name="oacute" unicode="&#xf3;" horiz-adv-x="605" 
d="M345 742h136l-135 -160h-96zM40 249c0 48 12 92 36 132c24 39 56 71 96 93c41 22 84 33 132 33c47 0 91 -11 131 -33s71 -53 95 -92c23 -40 35 -83 35 -131c3 -144 -119 -263 -262 -260c-47 0 -91 12 -131 34c-41 22 -72 54 -96 93c-24 40 -36 83 -36 131zM154 251
c0 -43 14 -81 42 -112s64 -47 108 -47s80 15 107 46c27 30 41 67 41 111s-14 82 -42 112c-27 31 -63 46 -107 46s-80 -15 -108 -45c-27 -30 -41 -67 -41 -111z" />
    <glyph glyph-name="ocircumflex" unicode="&#xf4;" horiz-adv-x="605" 
d="M238 581h-110l129 161h87l133 -161h-106l-68 86zM40 249c0 48 12 92 36 132c24 39 56 71 96 93c41 22 84 33 132 33c47 0 91 -11 131 -33s71 -53 95 -92c23 -40 35 -83 35 -131c3 -144 -119 -263 -262 -260c-47 0 -91 12 -131 34c-41 22 -72 54 -96 93
c-24 40 -36 83 -36 131zM154 251c0 -43 14 -81 42 -112s64 -47 108 -47s80 15 107 46c27 30 41 67 41 111s-14 82 -42 112c-27 31 -63 46 -107 46s-80 -15 -108 -45c-27 -30 -41 -67 -41 -111z" />
    <glyph glyph-name="otilde" unicode="&#xf5;" horiz-adv-x="605" 
d="M470 724v-10c0 -83 -32 -124 -96 -124c-48 -2 -97 47 -131 45c-19 0 -29 -15 -31 -44h-77v10c0 83 33 124 98 124c43 2 102 -46 133 -44c19 0 31 14 34 43h70zM40 249c0 48 12 92 36 132c24 39 56 71 96 93c41 22 84 33 132 33c47 0 91 -11 131 -33s71 -53 95 -92
c23 -40 35 -83 35 -131c3 -144 -119 -263 -262 -260c-47 0 -91 12 -131 34c-41 22 -72 54 -96 93c-24 40 -36 83 -36 131zM154 251c0 -43 14 -81 42 -112s64 -47 108 -47s79 15 107 46c27 30 41 67 41 111s-14 82 -42 112c-27 31 -63 46 -107 46s-80 -15 -108 -45
s-41 -67 -41 -111z" />
    <glyph glyph-name="odieresis" unicode="&#xf6;" horiz-adv-x="605" 
d="M199 578c-19 0 -36 7 -49 20c-14 14 -20 30 -20 50c0 19 6 35 20 49c13 13 29 20 49 20c19 0 36 -7 49 -20c14 -14 21 -30 21 -49c0 -20 -7 -36 -21 -50c-13 -13 -30 -20 -49 -20zM405 578c-19 0 -35 7 -49 20c-13 14 -20 30 -20 50c0 19 7 35 20 49c13 13 30 20 49 20
c20 0 36 -7 50 -20c13 -14 20 -30 20 -49c0 -20 -7 -36 -20 -50c-14 -13 -30 -20 -50 -20zM40 249c0 48 12 92 36 132c24 39 55 71 96 93c40 22 84 33 132 33c46 0 90 -11 130 -33s72 -53 96 -92c23 -40 35 -83 35 -131c3 -144 -120 -263 -262 -260c-48 0 -91 12 -131 34
c-41 22 -72 54 -96 93c-24 40 -36 83 -36 131zM154 251c0 -43 14 -81 42 -112s64 -47 108 -47s79 15 107 46c27 30 41 67 41 111s-14 82 -42 112c-27 31 -63 46 -107 46s-80 -15 -108 -45s-41 -67 -41 -111z" />
    <glyph glyph-name="divide" unicode="&#xf7;" horiz-adv-x="556" 
d="M228 507c-14 14 -21 30 -21 50c0 19 7 36 21 50c14 13 30 20 50 20c19 0 36 -7 50 -20c13 -14 20 -31 20 -50c0 -20 -7 -37 -20 -50c-14 -14 -31 -21 -50 -21c-20 0 -36 7 -50 21zM504 395v-103h-452v103h452zM228 81c-14 14 -21 30 -21 49c0 20 7 36 21 50s30 21 50 21
c19 0 36 -7 50 -21c13 -13 20 -30 20 -50c0 -19 -7 -36 -20 -50c-14 -13 -31 -20 -50 -20c-20 0 -36 7 -50 21z" />
    <glyph glyph-name="oslash" unicode="&#xf8;" horiz-adv-x="610" 
d="M568 460l-54 -54c35 -46 53 -98 53 -157c0 -48 -12 -91 -35 -131c-23 -39 -55 -71 -95 -93s-84 -34 -132 -34c-56 0 -107 16 -152 47l-55 -55l-56 54l53 55c-35 46 -52 98 -52 157c0 48 12 92 35 131c23 40 55 71 95 94c40 22 84 33 132 33c56 0 108 -16 153 -47l54 55z
M155 249c0 -29 6 -55 18 -79l212 215c-24 14 -50 21 -80 21c-44 0 -80 -15 -108 -45c-27 -31 -42 -68 -42 -112zM454 249c0 29 -6 55 -18 78l-211 -214c23 -14 49 -21 80 -21c44 0 80 15 107 46c28 30 42 67 42 111z" />
    <glyph glyph-name="ugrave" unicode="&#xf9;" 
d="M348 582h-96l-135 160h136zM180 497v-278c0 -75 36 -124 109 -124c35 0 63 11 84 34s31 54 31 91v277h111v-497h-108v67c-15 -20 -32 -36 -52 -48c-20 -13 -38 -20 -54 -24c-15 -4 -31 -5 -46 -5c-80 0 -139 39 -166 99c-14 30 -20 64 -20 102v306h111z" />
    <glyph glyph-name="uacute" unicode="&#xfa;" 
d="M331 742h135l-135 -160h-96zM180 497v-278c0 -75 36 -124 109 -124c35 0 63 11 84 34s31 54 31 91v277h111v-497h-108v67c-15 -20 -32 -36 -52 -48c-20 -13 -38 -20 -54 -24c-15 -4 -31 -5 -46 -5c-80 0 -139 39 -166 99c-14 30 -20 64 -20 102v306h111z" />
    <glyph glyph-name="ucircumflex" unicode="&#xfb;" 
d="M227 581h-110l129 161h87l133 -161h-106l-68 86zM180 497v-278c0 -75 36 -124 109 -124c35 0 63 11 84 34s31 54 31 91v277h111v-497h-108v67c-15 -20 -32 -36 -52 -48c-20 -13 -38 -20 -54 -24c-15 -4 -31 -5 -46 -5c-80 0 -139 39 -166 99c-14 30 -20 64 -20 102v306
h111z" />
    <glyph glyph-name="udieresis" unicode="&#xfc;" 
d="M186 578c-19 0 -36 7 -49 20c-13 14 -20 30 -20 50c0 19 7 35 20 49c13 13 29 20 49 20c19 0 36 -7 49 -20c14 -14 21 -30 21 -49c0 -20 -7 -36 -21 -50c-13 -13 -30 -20 -49 -20zM393 578c-20 0 -36 7 -49 20c-14 14 -21 30 -21 50c0 19 7 35 20 49c13 13 30 20 50 20
c19 0 36 -7 49 -20c13 -14 20 -30 20 -49c0 -20 -7 -36 -20 -50c-14 -13 -30 -20 -49 -20zM180 497v-278c0 -75 36 -124 109 -124c35 0 63 11 84 34s31 54 31 91v277h111v-497h-108v67c-15 -20 -32 -36 -52 -48c-20 -13 -38 -20 -54 -24c-15 -4 -31 -5 -46 -5
c-80 0 -139 39 -166 99c-14 30 -20 64 -20 102v306h111z" />
    <glyph glyph-name="yacute" unicode="&#xfd;" horiz-adv-x="570" 
d="M331 742h135l-135 -160h-96zM237 56l-222 441h127l154 -326l144 326h120l-341 -742h-119z" />
    <glyph glyph-name="thorn" unicode="&#xfe;" horiz-adv-x="617" 
d="M575 250c0 -135 -82 -259 -241 -259c-68 0 -117 24 -149 70v-265h-111v962h111v-327c12 18 27 33 47 44c19 12 38 20 55 24c18 4 34 6 51 6c157 0 238 -129 237 -255zM463 249c0 46 -14 84 -41 112c-27 29 -61 43 -102 43s-75 -15 -102 -44c-26 -30 -39 -67 -39 -111
c0 -43 13 -79 41 -110c27 -30 60 -45 100 -45c39 0 73 15 101 45s42 66 42 110z" />
    <glyph glyph-name="ydieresis" unicode="&#xff;" horiz-adv-x="570" 
d="M186 578c-19 0 -36 7 -49 20c-13 14 -20 30 -20 50c0 19 7 35 20 49c13 13 29 20 49 20c19 0 36 -7 49 -20c14 -14 21 -30 21 -49c0 -20 -7 -36 -21 -50c-13 -13 -30 -20 -49 -20zM393 578c-20 0 -36 7 -49 20c-14 14 -21 30 -21 50c0 19 7 35 20 49c13 13 30 20 50 20
c19 0 36 -7 49 -20c13 -14 20 -30 20 -49c0 -20 -7 -36 -20 -50c-14 -13 -30 -20 -49 -20zM236 56l-221 441h126l155 -326l143 326h120l-341 -742h-118z" />
    <glyph glyph-name="Amacron" unicode="&#x100;" horiz-adv-x="729" 
d="M525 828h-322v88h322v-88zM185 171l-68 -171h-117l297 729h135l295 -729h-119l-67 171h-356zM225 273h277l-139 346z" />
    <glyph glyph-name="amacron" unicode="&#x101;" horiz-adv-x="535" 
d="M419 591h-323v89h323v-89zM211 -9c-48 0 -89 14 -120 42c-31 27 -47 62 -47 105v5c1 69 42 111 96 132c38 15 74 20 110 20h62c31 0 46 14 46 42c0 21 -8 39 -25 54c-17 14 -41 22 -73 22c-59 0 -100 -33 -108 -83l-101 23c3 23 14 48 34 75c20 26 45 46 78 60
c28 13 62 19 101 19c93 0 155 -34 186 -102c11 -24 17 -53 17 -88v-237c0 -33 1 -60 3 -80h-108c-3 14 -5 36 -5 68c-17 -28 -38 -47 -64 -59c-27 -12 -54 -18 -82 -18zM357 217h-107c-24 0 -45 -6 -65 -18c-20 -13 -30 -30 -30 -51c0 -41 32 -68 79 -68c37 0 68 11 90 33
s33 51 33 88v16z" />
    <glyph glyph-name="Abreve" unicode="&#x102;" horiz-adv-x="729" 
d="M365 794c-86 -2 -161 54 -170 159h95c3 -51 30 -79 75 -79c44 0 72 26 76 79h93c-4 -50 -21 -89 -52 -117s-70 -42 -117 -42zM185 171l-68 -171h-117l297 729h135l295 -729h-119l-67 171h-356zM225 273h277l-139 346z" />
    <glyph glyph-name="abreve" unicode="&#x103;" horiz-adv-x="535" 
d="M259 580c-86 -3 -162 54 -171 159h95c4 -51 31 -79 76 -79c44 0 72 26 76 79h93c-4 -50 -22 -89 -52 -117c-31 -28 -70 -42 -117 -42zM211 -9c-48 0 -89 14 -120 42c-31 27 -47 62 -47 105v5c1 69 42 111 96 132c38 15 74 20 110 20h62c31 0 46 14 46 42
c0 21 -8 39 -25 54c-17 14 -41 22 -73 22c-59 0 -100 -33 -108 -83l-101 23c3 23 14 48 34 75c20 26 45 46 78 60c28 13 62 19 101 19c93 0 155 -34 186 -102c11 -24 17 -53 17 -88v-237c0 -33 1 -60 3 -80h-108c-3 14 -5 36 -5 68c-17 -28 -38 -47 -64 -59
c-27 -12 -54 -18 -82 -18zM357 217h-107c-24 0 -45 -6 -65 -18c-20 -13 -30 -30 -30 -51c0 -41 32 -68 79 -68c37 0 68 11 90 33s33 51 33 88v16z" />
    <glyph glyph-name="Aogonek" unicode="&#x104;" horiz-adv-x="729" 
d="M723 -149v-76c-11 -1 -22 -2 -34 -2c-38 0 -70 9 -96 27c-26 17 -39 42 -39 75c0 38 29 80 87 125h-33l-67 171h-356l-68 -171h-117l297 729h135l295 -729c-14 -11 -26 -20 -35 -29c-10 -8 -19 -19 -28 -32c-9 -14 -14 -26 -14 -38c0 -33 24 -50 72 -50h1zM225 273h277
l-139 346z" />
    <glyph glyph-name="aogonek" unicode="&#x105;" horiz-adv-x="535" 
d="M393 -99c0 -33 24 -50 72 -50h1v-76c-11 -1 -22 -2 -34 -2c-38 0 -70 9 -96 27c-26 17 -39 42 -39 75c0 38 29 80 87 125h-22c-3 14 -5 36 -5 68c-17 -28 -38 -47 -64 -59c-27 -12 -54 -18 -82 -18c-48 0 -89 14 -120 42c-31 27 -47 62 -47 105v5c1 69 42 111 96 132
c38 15 74 20 110 20h62c31 0 46 14 46 42c0 21 -8 39 -25 54c-17 14 -41 22 -73 22c-59 0 -100 -33 -108 -83l-101 23c3 23 14 48 34 75c20 26 45 46 78 60c28 13 62 19 101 19c93 0 155 -34 186 -102c11 -24 17 -53 17 -88v-237c0 -33 1 -60 3 -80c-14 -11 -25 -20 -35 -29
c-10 -8 -19 -19 -28 -32c-9 -14 -14 -26 -14 -38zM357 217h-107c-24 0 -45 -6 -65 -18c-20 -13 -30 -30 -30 -51c0 -41 32 -68 79 -68c37 0 68 11 90 33s33 51 33 88v16z" />
    <glyph glyph-name="Cacute" unicode="&#x106;" horiz-adv-x="785" 
d="M465 955h135l-135 -160h-96zM411 -9c-110 -1 -220 50 -290 139c-47 58 -76 141 -76 232c0 54 10 104 30 152c20 47 47 87 81 120c34 32 74 58 119 77s92 29 141 29c79 0 151 -23 201 -55c24 -17 46 -35 66 -57c38 -43 59 -85 70 -127l-113 -39c-5 23 -13 46 -36 79
c-12 17 -26 32 -42 44c-31 26 -85 47 -147 47c-65 0 -126 -27 -173 -72c-46 -45 -77 -115 -77 -194s30 -150 76 -195s108 -72 173 -72c57 0 109 20 141 45c16 13 31 27 44 44c25 33 36 59 43 84l113 -39c-13 -46 -43 -105 -100 -154c-39 -33 -84 -60 -145 -76
c-32 -8 -65 -12 -99 -12z" />
    <glyph glyph-name="cacute" unicode="&#x107;" horiz-adv-x="568" 
d="M340 742h136l-135 -160h-96zM300 -9c-144 -2 -262 115 -260 259c0 46 12 89 35 129c22 39 54 71 94 94s84 34 133 34c58 0 109 -15 151 -47c41 -31 67 -69 79 -113l-101 -33c-6 21 -18 41 -38 61c-20 19 -53 32 -92 32c-41 0 -76 -15 -104 -43c-28 -29 -42 -67 -42 -113
s14 -84 42 -114s63 -45 105 -45c63 0 107 32 131 95l102 -33c-12 -40 -37 -77 -75 -109c-38 -33 -95 -54 -160 -54z" />
    <glyph glyph-name="Ccircumflex" unicode="&#x108;" horiz-adv-x="785" 
d="M351 795h-110l129 160h87l133 -160h-105l-69 86zM411 -9c-110 -1 -220 50 -290 139c-47 58 -76 141 -76 232c0 54 10 104 30 152c20 47 47 87 81 120c34 32 74 58 119 77s92 29 141 29c79 0 151 -23 201 -55c24 -17 46 -35 66 -57c38 -43 59 -85 70 -127l-113 -39
c-5 23 -13 46 -36 79c-12 17 -26 32 -42 44c-31 26 -85 47 -147 47c-65 0 -126 -27 -173 -72c-46 -45 -77 -115 -77 -194s30 -150 76 -195s108 -72 173 -72c57 0 109 20 141 45c16 13 31 27 44 44c25 33 36 59 43 84l113 -39c-13 -46 -43 -105 -100 -154
c-39 -33 -84 -60 -145 -76c-32 -8 -65 -12 -99 -12z" />
    <glyph glyph-name="ccircumflex" unicode="&#x109;" horiz-adv-x="568" 
d="M239 581h-110l128 161h87l134 -161h-106l-69 86zM300 -9c-144 -2 -262 115 -260 259c0 46 12 89 35 129c22 39 54 71 94 94s84 34 133 34c58 0 109 -15 151 -47c41 -31 67 -69 79 -113l-101 -33c-6 21 -18 41 -38 61c-20 19 -53 32 -92 32c-41 0 -76 -15 -104 -43
c-28 -29 -42 -67 -42 -113s14 -84 42 -114s63 -45 105 -45c63 0 107 32 131 95l102 -33c-12 -40 -37 -77 -75 -109c-38 -33 -95 -54 -160 -54z" />
    <glyph glyph-name="Cdotaccent" unicode="&#x10a;" horiz-adv-x="785" 
d="M467 812c-14 -14 -32 -22 -52 -22s-37 8 -51 22s-22 31 -22 52c0 20 7 37 21 52c14 14 32 21 52 21s38 -7 52 -21c14 -15 22 -32 22 -52c0 -21 -8 -38 -22 -52zM411 -9c-110 -1 -220 50 -290 139c-47 58 -76 141 -76 232c0 54 10 104 30 152c20 47 47 87 81 120
c34 32 74 58 119 77s92 29 141 29c79 0 151 -23 201 -55c24 -17 46 -35 66 -57c38 -43 59 -85 70 -127l-113 -39c-5 23 -13 46 -36 79c-12 17 -26 32 -42 44c-31 26 -85 47 -147 47c-65 0 -126 -27 -173 -72c-46 -45 -77 -115 -77 -194s30 -150 76 -195s108 -72 173 -72
c57 0 109 20 141 45c16 13 31 27 44 44c25 33 36 59 43 84l113 -39c-13 -46 -43 -105 -100 -154c-39 -33 -84 -60 -145 -76c-32 -8 -65 -12 -99 -12z" />
    <glyph glyph-name="cdotaccent" unicode="&#x10b;" horiz-adv-x="567" 
d="M354 600c-15 -15 -32 -22 -53 -22c-20 0 -37 7 -51 22c-14 14 -21 31 -21 51c0 21 6 38 21 53c14 14 31 21 51 21c21 0 39 -7 53 -21c14 -15 21 -32 21 -53c0 -20 -7 -37 -21 -51zM300 -9c-144 -2 -262 115 -259 259c0 46 11 89 34 129c22 39 54 71 94 94s84 34 132 34
c59 0 109 -15 151 -47c42 -31 68 -69 79 -113l-100 -33c-6 21 -18 41 -38 61c-20 19 -53 32 -92 32c-41 0 -76 -15 -104 -43c-28 -29 -42 -67 -42 -113s14 -84 41 -114c28 -30 64 -45 106 -45c63 0 107 32 131 95l101 -33c-11 -40 -36 -77 -74 -109
c-38 -33 -95 -54 -160 -54z" />
    <glyph glyph-name="Ccaron" unicode="&#x10c;" horiz-adv-x="785" 
d="M372 796l-129 160h110l65 -86l68 86h106l-133 -160h-87zM411 -9c-110 -1 -220 50 -290 139c-47 58 -76 141 -76 232c0 54 10 104 30 152c20 47 47 87 81 120c34 32 74 58 119 77s92 29 141 29c79 0 151 -23 201 -55c24 -17 46 -35 66 -57c38 -43 59 -85 70 -127l-113 -39
c-5 23 -13 46 -36 79c-12 17 -26 32 -42 44c-31 26 -85 47 -147 47c-65 0 -126 -27 -173 -72c-46 -45 -77 -115 -77 -194s30 -150 76 -195s108 -72 173 -72c57 0 109 20 141 45c16 13 31 27 44 44c25 33 36 59 43 84l113 -39c-13 -46 -43 -105 -100 -154
c-39 -33 -84 -60 -145 -76c-32 -8 -65 -12 -99 -12z" />
    <glyph glyph-name="ccaron" unicode="&#x10d;" horiz-adv-x="568" 
d="M256 581l-128 161h110l64 -86l69 86h106l-134 -161h-87zM300 -9c-144 -2 -262 115 -260 259c0 46 12 89 35 129c22 39 54 71 94 94s84 34 133 34c58 0 109 -15 151 -47c41 -31 67 -69 79 -113l-101 -33c-6 21 -18 41 -38 61c-20 19 -53 32 -92 32c-41 0 -76 -15 -104 -43
c-28 -29 -42 -67 -42 -113s14 -84 42 -114s63 -45 105 -45c63 0 107 32 131 95l102 -33c-12 -40 -37 -77 -75 -109c-38 -33 -95 -54 -160 -54z" />
    <glyph glyph-name="Dcaron" unicode="&#x10e;" horiz-adv-x="759" 
d="M284 796l-129 160h110l65 -86l68 86h106l-134 -160h-86zM715 364c1 -101 -45 -211 -135 -284c-59 -48 -149 -80 -253 -80h-234v729h232c78 0 149 -17 200 -45c52 -29 96 -69 125 -113c44 -67 65 -141 65 -207zM597 364c1 68 -30 147 -92 201c-41 35 -105 58 -180 58h-115
v-517h115c74 0 137 23 179 56c20 17 38 37 52 59c29 45 41 93 41 143z" />
    <glyph glyph-name="dcaron" unicode="&#x10f;" horiz-adv-x="652" 
d="M635 759h124l-54 -218h-84zM40 249c0 64 24 127 65 176c42 49 108 82 183 82c27 0 56 -7 87 -21c32 -13 57 -33 74 -60v332h111v-758h-109v78c-12 -20 -29 -37 -51 -51c-23 -13 -44 -22 -63 -27s-37 -8 -52 -8c-46 0 -89 13 -126 37c-38 24 -67 56 -88 95
c-20 39 -31 81 -31 125zM450 249c0 44 -13 81 -41 112c-28 30 -64 45 -108 45s-79 -15 -107 -45c-28 -31 -42 -68 -42 -112s14 -80 42 -111c28 -30 63 -45 107 -45s80 15 108 45c28 31 41 67 41 111z" />
    <glyph glyph-name="Dcroat" unicode="&#x110;" horiz-adv-x="777" 
d="M112 319h-98v104h98v306h232c90 0 171 -23 226 -61c28 -18 52 -40 74 -64c63 -73 87 -164 89 -240c1 -101 -44 -211 -134 -284c-59 -48 -150 -80 -254 -80h-233v319zM227 423h162v-104h-162v-213h113c75 0 138 23 180 56c20 17 38 37 52 59c29 45 41 93 41 143
c1 68 -30 147 -93 201c-40 35 -105 58 -179 58h-114v-200z" />
    <glyph glyph-name="dslash" unicode="&#x111;" horiz-adv-x="634" 
d="M560 585v-585h-109v78c-12 -20 -29 -37 -51 -51c-23 -13 -44 -22 -63 -27c-20 -5 -37 -8 -52 -8c-47 0 -89 13 -126 37c-38 24 -67 56 -88 95c-20 39 -31 81 -31 125c0 64 24 127 65 176c42 49 108 82 183 82c26 0 55 -7 87 -21c32 -13 57 -33 74 -60v159h-155v81h155v92
h111v-92h65v-81h-65zM450 249c0 44 -13 81 -41 112c-28 30 -64 45 -108 45s-80 -15 -107 -45c-28 -31 -42 -68 -42 -112s14 -81 42 -111s63 -45 107 -45s80 15 108 45c28 31 41 67 41 111z" />
    <glyph glyph-name="Emacron" unicode="&#x112;" horiz-adv-x="618" 
d="M490 828h-323v88h323v-88zM93 731h467v-104h-352v-202h320v-104h-320v-215h356v-104h-471v729z" />
    <glyph glyph-name="emacron" unicode="&#x113;" horiz-adv-x="573" 
d="M453 591h-323v89h323v-89zM532 216h-378c2 -74 74 -131 146 -130c64 0 113 27 132 84l93 -29c-18 -61 -68 -110 -128 -133c-31 -11 -62 -17 -96 -17c-143 -3 -263 114 -260 258c0 47 11 90 32 129c22 40 51 71 90 94c38 23 81 35 128 35c76 0 135 -23 178 -71
c43 -47 65 -109 65 -186c0 -12 -1 -24 -2 -34zM292 412c-34 0 -64 -10 -88 -31c-24 -20 -39 -47 -44 -81h261c-2 34 -15 61 -39 82c-25 20 -55 30 -90 30z" />
    <glyph glyph-name="Edotaccent" unicode="&#x116;" horiz-adv-x="618" 
d="M385 812c-15 -14 -32 -22 -53 -22c-20 0 -37 8 -51 22s-21 31 -21 52c0 20 6 37 20 52c15 14 32 21 52 21c21 0 38 -7 53 -21c14 -15 21 -32 21 -52c0 -21 -7 -38 -21 -52zM93 729h467v-104h-352v-202h320v-104h-320v-215h356v-104h-471v729z" />
    <glyph glyph-name="edotaccent" unicode="&#x117;" horiz-adv-x="573" 
d="M345 600c-14 -15 -31 -22 -52 -22c-20 0 -38 7 -52 22c-14 14 -21 31 -21 51c0 21 7 38 21 53c14 14 32 21 52 21c21 0 38 -7 52 -21c15 -15 22 -32 22 -53c0 -20 -7 -37 -22 -51zM532 216h-378c2 -74 74 -131 146 -130c64 0 113 27 132 84l93 -29
c-18 -61 -68 -110 -128 -133c-31 -11 -62 -17 -96 -17c-143 -3 -263 114 -260 258c0 47 11 90 32 129c22 40 51 71 90 94c38 23 81 35 128 35c76 0 135 -23 178 -71c43 -47 65 -109 65 -186c0 -12 -1 -24 -2 -34zM292 412c-34 0 -64 -10 -88 -31c-24 -20 -39 -47 -44 -81
h261c-2 34 -15 61 -39 82c-25 20 -55 30 -90 30z" />
    <glyph glyph-name="Eogonek" unicode="&#x118;" horiz-adv-x="617" 
d="M560 -149v-76c-11 -1 -23 -2 -35 -2c-38 0 -70 9 -96 27c-26 17 -39 42 -39 75c0 38 29 80 87 125h-384v729h467v-104h-353v-202h321v-104h-321v-215h356v-104h1c-14 -11 -26 -20 -36 -29c-9 -8 -18 -19 -28 -32c-9 -14 -14 -26 -14 -38c0 -33 24 -50 72 -50h2z" />
    <glyph glyph-name="eogonek" unicode="&#x119;" horiz-adv-x="573" 
d="M306 -9h-5c-143 -3 -263 114 -260 258c0 47 11 90 32 129c22 40 51 71 90 94c38 23 81 35 128 35c76 0 135 -23 178 -71c43 -47 65 -109 65 -186c0 -12 -1 -24 -2 -34h-378c2 -74 74 -131 146 -130c64 0 113 27 132 84l93 -29c-10 -38 -35 -72 -73 -102l-53 -43
c-49 -40 -73 -66 -73 -95c0 -33 24 -50 72 -50h2v-76c-11 -1 -23 -2 -35 -2c-38 0 -70 9 -96 27c-26 17 -39 42 -39 75c0 35 25 75 76 116zM292 412c-34 0 -64 -10 -88 -31c-24 -20 -39 -47 -44 -81h261c-2 34 -15 61 -39 82c-25 20 -55 30 -90 30z" />
    <glyph glyph-name="Ecaron" unicode="&#x11a;" horiz-adv-x="618" 
d="M287 796l-129 160h110l65 -86l68 86h106l-133 -160h-87zM93 729h467v-104h-352v-202h320v-104h-320v-215h356v-104h-471v729z" />
    <glyph glyph-name="ecaron" unicode="&#x11b;" horiz-adv-x="573" 
d="M246 581l-128 161h110l64 -86l69 86h106l-134 -161h-87zM532 216h-378c2 -74 74 -131 146 -130c64 0 113 27 132 84l93 -29c-18 -61 -68 -110 -128 -133c-31 -11 -62 -17 -96 -17c-143 -3 -263 114 -260 258c0 47 11 90 32 129c22 40 51 71 90 94c38 23 81 35 128 35
c76 0 135 -23 178 -71c43 -47 65 -109 65 -186c0 -12 -1 -24 -2 -34zM292 412c-34 0 -64 -10 -88 -31c-24 -20 -39 -47 -44 -81h261c-2 34 -15 61 -39 82c-25 20 -55 30 -90 30z" />
    <glyph glyph-name="Gcircumflex" unicode="&#x11c;" horiz-adv-x="795" 
d="M354 795h-110l129 160h87l133 -160h-106l-68 86zM741 518l-112 -35c-9 33 -30 67 -64 98s-88 52 -149 52c-71 0 -131 -25 -179 -77c-49 -51 -73 -115 -73 -191c0 -49 11 -95 32 -135c21 -41 50 -73 89 -97s82 -36 130 -36c61 0 111 16 148 46c37 31 61 70 69 118h-262
v104h385v-40c0 -92 -33 -175 -90 -235c-56 -61 -145 -98 -249 -98c-72 0 -136 16 -193 48c-57 33 -100 77 -131 133c-32 57 -47 120 -47 190c0 53 10 104 29 151c19 46 45 86 78 119s72 59 118 78s95 29 147 29c176 0 291 -106 324 -222z" />
    <glyph glyph-name="gcircumflex" unicode="&#x11d;" horiz-adv-x="630" 
d="M234 581h-111l129 161h87l134 -161h-106l-69 86zM282 -4c-69 0 -133 30 -174 77c-42 47 -68 111 -68 177c0 62 24 124 65 173c40 49 106 82 180 82c27 0 56 -6 88 -20c32 -15 57 -35 75 -64v76h108v-494c0 -52 -12 -96 -36 -135c-24 -38 -55 -68 -96 -87
c-40 -20 -86 -30 -137 -30c-75 0 -144 22 -196 74c-26 26 -42 58 -49 94l104 30c6 -27 22 -50 48 -69c26 -20 55 -30 89 -30c82 0 162 44 162 148v82c-12 -20 -30 -37 -51 -50c-22 -13 -42 -22 -61 -27c-18 -4 -35 -7 -51 -7zM447 252c0 44 -14 81 -41 110
c-27 30 -63 44 -107 44s-80 -14 -108 -44c-27 -29 -41 -66 -41 -110s14 -81 42 -111c28 -31 63 -46 107 -46s79 15 107 46c27 30 41 67 41 111z" />
    <glyph glyph-name="Gbreve" unicode="&#x11e;" horiz-adv-x="795" 
d="M419 794c-86 -2 -161 54 -170 159h95c3 -51 30 -79 75 -79c44 0 72 26 76 79h93c-4 -50 -21 -89 -52 -117s-70 -42 -117 -42zM741 518l-112 -35c-9 33 -30 67 -64 98s-88 52 -149 52c-71 0 -131 -25 -179 -77c-49 -51 -73 -115 -73 -191c0 -49 11 -95 32 -135
c21 -41 50 -73 89 -97s82 -36 130 -36c61 0 111 16 148 46c37 31 61 70 69 118h-262v104h385v-40c0 -92 -33 -175 -90 -235c-56 -61 -145 -98 -249 -98c-72 0 -136 16 -193 48c-57 33 -100 77 -131 133c-32 57 -47 120 -47 190c0 53 10 104 29 151c19 46 45 86 78 119
s72 59 118 78s95 29 147 29c176 0 291 -106 324 -222z" />
    <glyph glyph-name="gbreve" unicode="&#x11f;" horiz-adv-x="630" 
d="M299 580c-87 -3 -162 54 -171 159h95c4 -51 31 -79 76 -79c44 0 72 26 76 79h93c-4 -50 -22 -89 -52 -117c-31 -28 -70 -42 -117 -42zM282 -4c-69 0 -133 30 -174 77c-42 47 -68 111 -68 177c0 62 24 124 65 173c40 49 106 82 180 82c27 0 56 -6 88 -20
c32 -15 57 -35 75 -64v76h108v-494c0 -52 -12 -96 -36 -135c-24 -38 -55 -68 -96 -87c-40 -20 -86 -30 -137 -30c-75 0 -144 22 -196 74c-26 26 -42 58 -49 94l104 30c6 -27 22 -50 48 -69c26 -20 55 -30 89 -30c82 0 162 44 162 148v82c-12 -20 -30 -37 -51 -50
c-22 -13 -42 -22 -61 -27c-18 -4 -35 -7 -51 -7zM447 252c0 44 -14 81 -41 110c-27 30 -63 44 -107 44s-80 -14 -108 -44c-27 -29 -41 -66 -41 -110s14 -81 42 -111c28 -31 63 -46 107 -46s79 15 107 46c27 30 41 67 41 111z" />
    <glyph glyph-name="Gdotaccent" unicode="&#x120;" horiz-adv-x="794" 
d="M470 812c-15 -14 -32 -22 -53 -22c-20 0 -37 8 -51 22s-21 31 -21 52c0 20 6 37 20 52c15 14 32 21 52 21c21 0 38 -7 53 -21c14 -15 21 -32 21 -52c0 -21 -7 -38 -21 -52zM740 518l-112 -35c-9 33 -30 67 -64 98s-88 52 -149 52c-47 0 -89 -11 -128 -34
c-38 -24 -68 -56 -90 -97s-33 -87 -33 -137c-3 -147 106 -270 250 -268c61 0 111 16 148 46c38 31 61 70 69 118h-261v104h385v-40c0 -92 -34 -175 -90 -235c-57 -61 -146 -98 -250 -98c-72 0 -136 16 -192 48c-57 33 -101 77 -132 133c-31 57 -46 120 -46 190
c0 53 10 104 29 151c18 46 44 86 77 119c66 66 161 107 265 107c176 0 291 -106 324 -222z" />
    <glyph glyph-name="gdotaccent" unicode="&#x121;" horiz-adv-x="630" 
d="M350 600c-15 -15 -32 -22 -52 -22c-21 0 -38 7 -52 22c-14 14 -21 31 -21 51c0 21 7 38 21 53c14 14 31 21 52 21c20 0 38 -7 52 -21c14 -15 21 -32 21 -53c0 -20 -7 -37 -21 -51zM282 -4c-69 0 -133 30 -174 77c-42 47 -68 111 -68 177c0 62 24 124 65 173
c40 49 106 82 180 82c27 0 56 -6 88 -20c32 -15 57 -35 75 -64v76h108v-494c0 -52 -12 -96 -36 -135c-24 -38 -55 -68 -96 -87c-40 -20 -86 -30 -137 -30c-75 0 -144 22 -196 74c-26 26 -42 58 -49 94l104 30c6 -27 22 -50 48 -69c26 -20 55 -30 89 -30c82 0 162 44 162 148
v82c-12 -20 -30 -37 -51 -50c-22 -13 -42 -22 -61 -27c-18 -4 -35 -7 -51 -7zM447 252c0 44 -14 81 -41 110c-27 30 -63 44 -107 44s-80 -14 -108 -44c-27 -29 -41 -66 -41 -110s14 -81 42 -111c28 -31 63 -46 107 -46s79 15 107 46c27 30 41 67 41 111z" />
    <glyph glyph-name="Gcommaaccent" unicode="&#x122;" horiz-adv-x="794" 
d="M740 518l-112 -35c-9 33 -30 67 -64 98s-88 52 -149 52c-47 0 -89 -11 -128 -34c-38 -24 -68 -56 -90 -97s-33 -87 -33 -137c-3 -147 106 -270 250 -268c61 0 111 16 148 46c38 31 61 70 69 118h-261v104h385v-40c0 -92 -34 -175 -90 -235c-57 -61 -146 -98 -250 -98
c-72 0 -136 16 -192 48c-57 33 -101 77 -132 133c-31 57 -46 120 -46 190c0 53 10 104 29 151c18 46 44 86 77 119c66 66 161 107 265 107c176 0 291 -106 324 -222zM347 -332v44c48 7 79 39 80 83c-8 -6 -18 -9 -31 -9c-34 0 -59 26 -59 61c0 18 7 33 19 44
c13 12 29 18 47 18c23 0 42 -8 55 -24c13 -17 19 -37 19 -61c0 -85 -48 -143 -130 -156z" />
    <glyph glyph-name="gcommaaccent" unicode="&#x123;" horiz-adv-x="630" 
d="M360 812v-44c-49 -7 -80 -39 -80 -82c7 5 17 8 30 8c35 0 60 -25 60 -60c0 -19 -7 -34 -20 -45c-12 -12 -28 -18 -46 -18c-24 0 -42 9 -54 25c-14 17 -20 37 -20 61c0 85 48 143 130 155zM282 -4c-69 0 -133 30 -174 77c-42 47 -68 111 -68 177c0 62 24 124 65 173
c40 49 106 82 180 82c27 0 56 -6 88 -20c32 -15 57 -35 75 -64v76h108v-494c0 -52 -12 -96 -36 -135c-24 -38 -55 -68 -96 -87c-40 -20 -86 -30 -137 -30c-75 0 -144 22 -196 74c-26 26 -42 58 -49 94l104 30c6 -27 22 -50 48 -69c26 -20 55 -30 89 -30c82 0 162 44 162 148
v82c-12 -20 -30 -37 -51 -50c-22 -13 -42 -22 -61 -27c-18 -4 -35 -7 -51 -7zM447 252c0 44 -14 81 -41 110c-27 30 -63 44 -107 44s-80 -14 -108 -44c-27 -29 -41 -66 -41 -110s14 -81 42 -111c28 -31 63 -46 107 -46s79 15 107 46c27 30 41 67 41 111z" />
    <glyph glyph-name="Hbar" unicode="&#x126;" horiz-adv-x="783" 
d="M211 315v-315h-115v537h-71v88h71v104h115v-104h361v104h114v-104h74v-88h-74v-537h-114v315h-361zM572 423v114h-361v-114h361z" />
    <glyph glyph-name="hbar" unicode="&#x127;" 
d="M74 758h111v-92h155v-81h-155v-151c15 19 32 34 51 46c20 11 37 19 53 22c15 3 30 5 45 5c61 0 107 -18 139 -56c32 -37 47 -86 47 -145v-306h-110v278c0 75 -37 124 -110 124c-35 0 -63 -11 -84 -34s-31 -53 -31 -91v-277h-111v585h-65v81h65v92z" />
    <glyph glyph-name="Itilde" unicode="&#x128;" horiz-adv-x="300" 
d="M318 942v-10c0 -82 -33 -124 -97 -124c-48 -2 -97 47 -131 46c-19 0 -29 -15 -30 -45h-78v11c0 82 33 124 98 124c44 1 102 -47 133 -45c20 0 31 14 34 43h71zM207 729v-729h-114v729h114z" />
    <glyph glyph-name="itilde" unicode="&#x129;" horiz-adv-x="259" 
d="M297 724v-10c0 -83 -32 -124 -97 -124c-48 -2 -97 47 -131 45c-19 0 -29 -15 -30 -44h-78v10c0 83 33 124 99 124c43 2 101 -46 132 -44c20 0 31 14 34 43h71zM185 497v-497h-111v497h111z" />
    <glyph glyph-name="Imacron" unicode="&#x12a;" horiz-adv-x="301" 
d="M298 828h-295v88h295v-88zM208 729v-729h-115v729h115z" />
    <glyph glyph-name="imacron" unicode="&#x12b;" horiz-adv-x="259" 
d="M275 591h-291v89h291v-89zM185 497v-497h-111v497h111z" />
    <glyph glyph-name="Ibreve" unicode="&#x12c;" horiz-adv-x="300" 
d="M150 794c-85 -2 -160 54 -170 159h95c4 -51 30 -79 75 -79s73 26 76 79h94c-5 -50 -22 -89 -52 -117c-31 -28 -70 -42 -118 -42zM207 729v-729h-114v729h114z" />
    <glyph glyph-name="ibreve" unicode="&#x12d;" horiz-adv-x="259" 
d="M130 580c-86 -3 -161 54 -170 159h95c3 -51 30 -79 75 -79c44 0 72 26 76 79h93c-4 -50 -21 -89 -52 -117s-70 -42 -117 -42zM185 497v-497h-111v497h111z" />
    <glyph glyph-name="Iogonek" unicode="&#x12e;" horiz-adv-x="300" 
d="M130 -99c0 -33 24 -50 72 -50h2v-76c-11 -1 -23 -2 -35 -2c-38 0 -70 9 -96 27c-26 17 -39 42 -39 75c0 38 29 80 87 125h-28v729h114v-729h1c-21 -15 -33 -26 -51 -44c-17 -18 -27 -37 -27 -55z" />
    <glyph glyph-name="iogonek" unicode="&#x12f;" horiz-adv-x="259" 
d="M129 585c-20 0 -37 8 -51 22s-22 31 -22 51c0 21 8 38 22 52c14 15 31 22 51 22c21 0 38 -7 52 -22c14 -14 21 -31 21 -52c0 -20 -7 -37 -21 -51s-31 -22 -52 -22zM185 0c-20 -15 -33 -26 -50 -44s-27 -37 -27 -55c0 -33 24 -50 72 -50h1v-76c-11 -1 -22 -2 -34 -2
c-38 0 -71 9 -97 27c-25 17 -39 42 -39 75c0 38 29 80 88 125h-25v497h111v-497z" />
    <glyph glyph-name="Idot" unicode="&#x130;" horiz-adv-x="300" 
d="M202 812c-15 -14 -32 -22 -52 -22c-21 0 -38 8 -52 22s-21 31 -21 52c0 20 7 37 21 52c14 14 31 21 52 21c20 0 38 -7 52 -21c14 -15 21 -32 21 -52c0 -21 -7 -38 -21 -52zM207 729v-729h-114v729h114z" />
    <glyph glyph-name="dotlessi" unicode="&#x131;" horiz-adv-x="259" 
d="M185 497v-497h-111v497h111z" />
    <glyph glyph-name="IJ" unicode="&#x132;" horiz-adv-x="641" 
d="M324 -8c-72 0 -130 20 -174 62c-44 41 -65 96 -65 166v41h115v-35c0 -40 11 -71 35 -94c24 -22 52 -33 84 -33c35 0 64 11 87 34s34 52 34 87v509h115v-509c0 -65 -22 -120 -65 -163s-99 -65 -166 -65zM200 729h-115v-361h115v361z" />
    <glyph glyph-name="Kcommaaccent" unicode="&#x136;" horiz-adv-x="662" 
d="M207 0h-114v729h114v-315l291 315h152l-326 -349l345 -380h-155l-307 344v-344zM282 -332v44c49 7 80 39 80 83c-7 -6 -18 -9 -30 -9c-35 0 -59 26 -59 61c0 18 6 33 19 44c13 12 28 18 46 18c23 0 42 -8 55 -24c13 -17 19 -37 19 -61c0 -85 -47 -143 -130 -156z" />
    <glyph glyph-name="kcommaaccent" unicode="&#x137;" horiz-adv-x="540" 
d="M185 243v-243h-111v758h111v-457h1l193 196h151l-225 -225l237 -272h-147l-207 243h-3zM218 -332v44c49 7 80 39 80 83c-8 -6 -18 -9 -30 -9c-35 0 -59 26 -59 61c0 18 6 33 19 44c12 12 28 18 46 18c23 0 41 -8 55 -24c13 -17 19 -37 19 -61c0 -85 -48 -143 -130 -156z
" />
    <glyph glyph-name="Lacute" unicode="&#x139;" horiz-adv-x="551" 
d="M204 955h135l-135 -160h-96zM93 729h114v-623h329v-106h-443v729z" />
    <glyph glyph-name="lacute" unicode="&#x13a;" horiz-adv-x="259" 
d="M178 982h135l-135 -160h-96zM185 758v-758h-111v758h111z" />
    <glyph glyph-name="Lcommaaccent" unicode="&#x13b;" horiz-adv-x="551" 
d="M93 729h114v-623h329v-106h-443v729zM248 -332v44c49 7 80 39 80 83c-8 -6 -18 -9 -30 -9c-35 0 -59 26 -59 61c0 18 6 33 19 44c12 12 28 18 46 18c23 0 41 -8 55 -24c13 -17 19 -37 19 -61c0 -85 -48 -143 -130 -156z" />
    <glyph glyph-name="lcommaaccent" unicode="&#x13c;" horiz-adv-x="259" 
d="M185 758v-758h-111v758h111zM66 -332v44c49 7 80 39 80 83c-7 -6 -18 -9 -30 -9c-35 0 -59 26 -59 61c0 18 6 33 19 44c13 12 28 18 47 18c23 0 41 -8 54 -24c13 -17 20 -37 20 -61c0 -85 -48 -143 -131 -156z" />
    <glyph glyph-name="Lcaron" unicode="&#x13d;" horiz-adv-x="565" 
d="M412 750h124l-54 -218h-84zM93 729h114v-623h329v-106h-443v729z" />
    <glyph glyph-name="lcaron" unicode="&#x13e;" horiz-adv-x="277" 
d="M260 759h124l-54 -218h-84zM185 758v-758h-111v758h111z" />
    <glyph glyph-name="Ldot" unicode="&#x13f;" horiz-adv-x="564" 
d="M93 729h114v-623h329v-106h-443v729zM411 310c-14 14 -21 31 -21 51c0 21 7 38 21 53c14 14 32 21 52 21s37 -7 52 -21c14 -15 21 -32 21 -53c0 -20 -7 -37 -21 -51c-15 -14 -32 -21 -52 -21s-38 7 -52 21z" />
    <glyph glyph-name="ldot" unicode="&#x140;" horiz-adv-x="392" 
d="M185 758v-758h-111v758h111zM272 301c-14 14 -21 31 -21 51c0 21 7 38 21 53c14 14 32 21 52 21s37 -7 51 -21c15 -15 22 -32 22 -53c0 -20 -7 -37 -22 -51c-14 -14 -31 -21 -51 -21s-38 7 -52 21z" />
    <glyph glyph-name="Lslash" unicode="&#x141;" horiz-adv-x="576" 
d="M116 290l-96 -43v110l96 43v329h115v-277l207 93v-110l-207 -93v-236h329v-106h-444v290z" />
    <glyph glyph-name="lslash" unicode="&#x142;" horiz-adv-x="370" 
d="M37 195v113l95 55v395h111v-331l95 56v-113l-95 -54v-316h-111v250z" />
    <glyph glyph-name="Nacute" unicode="&#x143;" horiz-adv-x="801" 
d="M448 955h135l-135 -160h-96zM708 0h-128l-374 558v-558h-113v729h132l370 -555v555h113v-729z" />
    <glyph glyph-name="nacute" unicode="&#x144;" horiz-adv-x="590" 
d="M346 742h135l-135 -160h-96zM410 0v278c0 75 -36 124 -110 124c-35 0 -63 -11 -83 -34c-21 -23 -32 -53 -32 -91v-277h-111v497h109v-67c15 20 32 36 52 48s38 20 53 24c16 3 31 5 47 5c60 0 106 -18 138 -56c32 -37 48 -86 48 -145v-306h-111z" />
    <glyph glyph-name="Ncommaaccent" unicode="&#x145;" horiz-adv-x="800" 
d="M708 0h-128l-374 558v-558h-113v729h132l370 -555v555h113v-729zM346 -332v44c49 7 79 39 80 83c-8 -6 -18 -9 -30 -9c-35 0 -60 26 -60 61c0 18 7 33 20 44c13 12 28 18 46 18c23 0 42 -8 55 -24c13 -17 19 -37 19 -61c0 -85 -48 -143 -130 -156z" />
    <glyph glyph-name="ncommaaccent" unicode="&#x146;" 
d="M410 0v278c0 75 -37 124 -110 124c-35 0 -63 -11 -84 -34s-31 -53 -31 -91v-277h-111v497h108v-67c15 20 33 36 53 48s37 20 53 24c15 3 31 5 46 5c61 0 107 -18 139 -56c32 -37 47 -86 47 -145v-306h-110zM236 -332v44c49 7 80 39 80 83c-7 -6 -18 -9 -30 -9
c-35 0 -59 26 -59 61c0 18 6 33 19 44c13 12 28 18 46 18c23 0 42 -8 55 -24c13 -17 19 -37 19 -61c0 -85 -47 -143 -130 -156z" />
    <glyph glyph-name="Ncaron" unicode="&#x147;" horiz-adv-x="801" 
d="M355 796l-129 160h110l64 -86l69 86h106l-134 -160h-86zM708 0h-128l-374 558v-558h-113v729h132l370 -555v555h113v-729z" />
    <glyph glyph-name="ncaron" unicode="&#x148;" horiz-adv-x="590" 
d="M256 581l-128 161h110l64 -86l69 86h106l-134 -161h-87zM410 0v278c0 75 -36 124 -110 124c-35 0 -63 -11 -83 -34c-21 -23 -32 -53 -32 -91v-277h-111v497h109v-67c15 20 32 36 52 48s38 20 53 24c16 3 31 5 47 5c125 0 186 -88 186 -201v-306h-111z" />
    <glyph glyph-name="Eng" unicode="&#x14a;" horiz-adv-x="800" 
d="M708 729v-804c0 -119 -49 -171 -150 -171c-24 0 -48 3 -71 9v94c16 -2 28 -3 36 -3c53 0 72 28 72 77v66l-389 564v-561h-113v729h132l370 -539v539h113z" />
    <glyph glyph-name="eng" unicode="&#x14b;" 
d="M410 -70v348c0 75 -37 124 -110 124c-35 0 -63 -11 -84 -34s-31 -53 -31 -91v-277h-111v497h108v-67c15 20 33 36 53 48s37 20 53 24c15 3 31 5 46 5c61 0 107 -18 139 -56c32 -37 47 -86 47 -145v-382c0 -119 -48 -170 -147 -170c-24 0 -48 3 -71 9v94
c16 -2 28 -3 36 -3c47 0 72 26 72 76z" />
    <glyph glyph-name="Omacron" unicode="&#x14c;" horiz-adv-x="838" 
d="M580 828h-322v88h322v-88zM45 363c0 52 10 102 30 148c19 47 46 87 80 120c33 34 73 60 120 79c45 20 94 30 145 30c68 0 131 -17 188 -49s102 -77 135 -135c33 -57 50 -121 50 -190c0 -53 -10 -102 -30 -149s-47 -87 -80 -119c-34 -33 -74 -59 -120 -78
c-47 -19 -95 -29 -146 -29s-99 10 -145 29c-46 18 -86 44 -119 76c-33 33 -59 72 -79 119c-19 45 -29 95 -29 148zM165 365c-3 -144 113 -270 254 -267c70 0 135 31 181 78c45 48 73 117 73 189c0 49 -11 94 -33 135c-23 41 -54 73 -93 97s-82 36 -128 36
c-141 3 -257 -122 -254 -268z" />
    <glyph glyph-name="omacron" unicode="&#x14d;" horiz-adv-x="605" 
d="M464 591h-323v89h323v-89zM40 249c0 48 12 92 36 132c24 39 56 71 96 93c41 22 84 33 132 33c47 0 91 -11 131 -33s71 -53 95 -92c23 -40 35 -83 35 -131c3 -144 -119 -263 -262 -260c-47 0 -91 12 -131 34c-41 22 -72 54 -96 93c-24 40 -36 83 -36 131zM154 251
c0 -43 14 -81 42 -112s64 -47 108 -47s80 15 107 46c27 30 41 67 41 111s-14 82 -42 112c-27 31 -63 46 -107 46s-80 -15 -108 -45c-27 -30 -41 -67 -41 -111z" />
    <glyph glyph-name="Ohungarumlaut" unicode="&#x150;" horiz-adv-x="838" 
d="M376 955h131l-131 -160h-91zM559 955h131l-130 -160h-91zM45 363c0 52 10 102 30 148c19 47 46 87 80 120c33 34 73 60 120 79c45 20 94 30 145 30c68 0 131 -17 188 -49s102 -77 135 -135c33 -57 50 -121 50 -190c0 -53 -10 -102 -30 -149s-47 -87 -80 -119
c-34 -33 -74 -59 -120 -78c-47 -19 -95 -29 -146 -29s-99 10 -145 29c-46 18 -86 44 -119 76c-33 33 -59 72 -79 119c-19 45 -29 95 -29 148zM165 365c-3 -144 113 -270 254 -267c70 0 135 31 181 78c45 48 73 117 73 189c0 49 -11 94 -33 135c-23 41 -54 73 -93 97
s-82 36 -128 36c-141 3 -257 -122 -254 -268z" />
    <glyph glyph-name="ohungarumlaut" unicode="&#x151;" horiz-adv-x="605" 
d="M252 742h131l-131 -160h-91zM435 742h131l-130 -160h-91zM40 249c0 48 12 92 36 132c24 39 55 71 96 93c40 22 84 33 132 33c46 0 90 -11 130 -33s72 -53 96 -92c23 -40 35 -83 35 -131c3 -144 -120 -263 -262 -260c-48 0 -91 12 -131 34c-41 22 -72 54 -96 93
c-24 40 -36 83 -36 131zM154 251c0 -43 14 -81 42 -112s64 -47 108 -47s79 15 107 46c27 30 41 67 41 111s-14 82 -42 112c-27 31 -63 46 -107 46s-80 -15 -108 -45s-41 -67 -41 -111z" />
    <glyph glyph-name="OE" unicode="&#x152;" horiz-adv-x="1195" 
d="M672 108h-2c-29 -37 -67 -66 -113 -86c-47 -21 -95 -31 -146 -31c-50 0 -97 10 -142 29c-45 18 -84 44 -117 76c-33 33 -59 72 -78 119c-19 45 -29 95 -29 148c0 52 10 102 30 148c20 47 46 87 80 120c33 34 72 60 118 79c46 20 93 30 143 30c49 0 96 -11 142 -31
c45 -21 82 -50 111 -87h3v107h465v-104h-353v-202h321v-104h-321v-215h356v-104h-468v108zM165 365c0 -49 11 -93 33 -134s52 -73 91 -97s82 -36 129 -36c70 0 137 31 182 78c46 48 75 116 75 189c0 49 -12 94 -35 135c-22 41 -53 73 -93 97c-39 24 -82 36 -129 36
c-71 0 -136 -31 -180 -78c-45 -48 -73 -117 -73 -190z" />
    <glyph glyph-name="oe" unicode="&#x153;" horiz-adv-x="982" 
d="M941 216h-378c2 -74 74 -131 147 -130c63 0 113 27 131 84l94 -29c-18 -61 -68 -110 -129 -133c-30 -11 -62 -17 -95 -17c-84 0 -157 37 -204 99c-48 -62 -122 -99 -205 -99c-47 0 -92 12 -132 34s-71 54 -95 93c-23 40 -35 83 -35 131s12 92 36 131c23 40 55 71 95 94
c40 22 84 33 131 33c83 0 156 -36 204 -97c44 61 113 97 194 97c76 0 135 -23 179 -71c42 -47 64 -109 64 -186c0 -11 -1 -22 -2 -34zM701 412c-34 0 -64 -10 -88 -31c-24 -20 -39 -47 -44 -81h261c-1 34 -15 61 -39 82c-25 20 -55 30 -90 30zM153 249c0 -44 14 -81 42 -111
c28 -31 63 -46 107 -46s80 15 108 46c28 30 41 67 41 111s-13 81 -41 112c-28 30 -64 45 -108 45s-80 -15 -107 -45c-28 -31 -42 -68 -42 -112z" />
    <glyph glyph-name="Racute" unicode="&#x154;" horiz-adv-x="670" 
d="M366 955h135l-135 -160h-96zM359 277h-152v-277h-114v729h274c88 0 155 -27 193 -70c38 -44 55 -95 55 -155c0 -95 -50 -171 -144 -204l162 -300h-127zM207 380h148c110 0 144 64 144 121c0 56 -25 122 -144 122h-148v-243z" />
    <glyph glyph-name="racute" unicode="&#x155;" horiz-adv-x="366" 
d="M258 742h136l-135 -160h-96zM346 499v-114c-9 2 -19 3 -31 3c-84 0 -130 -49 -130 -135v-253h-111v497h109v-77c29 53 82 81 136 81c10 0 19 -1 27 -2z" />
    <glyph glyph-name="Rcommaaccent" unicode="&#x156;" horiz-adv-x="670" 
d="M359 277h-152v-277h-114v729h274c88 0 155 -27 193 -70c38 -44 55 -95 55 -155c0 -95 -50 -171 -144 -204l162 -300h-127zM207 380h148c110 0 144 64 144 121c0 56 -25 122 -144 122h-148v-243zM273 -332v44c49 7 80 39 80 83c-8 -6 -18 -9 -30 -9c-35 0 -59 26 -59 61
c0 18 6 33 19 44c12 12 28 18 46 18c23 0 41 -8 55 -24c13 -17 19 -37 19 -61c0 -85 -48 -143 -130 -156z" />
    <glyph glyph-name="rcommaaccent" unicode="&#x157;" horiz-adv-x="366" 
d="M346 499v-114c-9 2 -19 3 -31 3c-84 0 -130 -49 -130 -135v-253h-111v497h109v-77c29 53 82 81 136 81c10 0 19 -1 27 -2zM68 -332v44c49 7 80 39 80 83c-8 -6 -18 -9 -30 -9c-35 0 -59 26 -59 61c0 18 6 33 19 44c12 12 28 18 46 18c23 0 41 -8 55 -24
c13 -17 19 -37 19 -61c0 -85 -48 -143 -130 -156z" />
    <glyph glyph-name="Rcaron" unicode="&#x158;" horiz-adv-x="670" 
d="M283 796l-129 160h110l65 -86l68 86h106l-133 -160h-87zM359 277h-152v-277h-114v729h274c88 0 155 -27 193 -70c38 -44 55 -95 55 -155c0 -95 -50 -171 -144 -204l162 -300h-127zM207 380h148c110 0 144 64 144 121c0 56 -25 122 -144 122h-148v-243z" />
    <glyph glyph-name="rcaron" unicode="&#x159;" horiz-adv-x="366" 
d="M165 581l-130 161h111l65 -86l69 86h105l-133 -161h-87zM346 499v-114c-9 2 -19 3 -31 3c-84 0 -130 -49 -130 -135v-253h-111v497h109v-77c29 53 82 81 136 81c10 0 19 -1 27 -2z" />
    <glyph glyph-name="Sacute" unicode="&#x15a;" horiz-adv-x="606" 
d="M348 955h135l-135 -160h-96zM309 -8c-82 0 -152 27 -195 68c-44 41 -70 92 -75 145l111 30c8 -43 26 -77 54 -102s64 -38 107 -38c37 0 68 10 94 29c25 19 38 43 38 73c0 57 -43 93 -108 107l-90 18c-58 12 -103 36 -135 72c-33 36 -49 78 -49 126
c-3 118 112 222 240 220c99 -1 165 -36 202 -83c27 -32 40 -63 47 -97l-107 -33c-7 28 -23 54 -48 76s-55 33 -91 33c-35 0 -65 -10 -89 -31c-25 -21 -37 -45 -37 -74c0 -22 8 -42 25 -61c17 -18 39 -30 67 -36l92 -18c129 -26 199 -102 199 -211c0 -54 -24 -106 -65 -146
c-42 -40 -109 -67 -187 -67z" />
    <glyph glyph-name="sacute" unicode="&#x15b;" horiz-adv-x="462" 
d="M268 742h136l-135 -160h-96zM237 -9c-80 1 -135 32 -164 70c-21 27 -31 51 -33 75l95 25c10 -46 46 -79 100 -79c45 0 71 23 71 58c0 27 -18 45 -59 55l-64 15c-87 20 -132 75 -132 142c0 42 17 78 51 109s76 47 125 47c78 -1 127 -30 153 -66c20 -25 27 -46 31 -67
l-94 -26c-8 38 -37 69 -90 69c-18 0 -34 -5 -47 -16c-14 -10 -21 -24 -21 -40c0 -28 21 -46 50 -52l68 -14c45 -10 79 -28 104 -55s37 -59 37 -95c0 -76 -58 -155 -181 -155z" />
    <glyph glyph-name="Scircumflex" unicode="&#x15c;" horiz-adv-x="607" 
d="M240 795h-110l128 160h87l134 -160h-106l-69 86zM310 -8c-102 0 -177 39 -220 93c-31 37 -47 78 -52 120l112 30c9 -43 27 -77 55 -102s64 -38 107 -38c37 0 68 10 93 29s38 43 38 73c0 58 -42 93 -107 107l-90 18c-58 12 -104 36 -136 72c-33 36 -49 78 -49 126
c0 40 11 76 33 110c21 34 51 60 88 80s77 30 120 30c98 -1 165 -36 202 -83c27 -32 40 -63 46 -97l-107 -33c-7 28 -23 54 -47 76c-25 22 -56 33 -91 33s-65 -10 -90 -31c-24 -21 -36 -45 -36 -74c0 -22 8 -42 25 -61c16 -18 39 -30 67 -36l92 -18
c129 -26 199 -102 199 -211c0 -54 -24 -106 -65 -146c-42 -40 -109 -67 -187 -67z" />
    <glyph glyph-name="scircumflex" unicode="&#x15d;" horiz-adv-x="461" 
d="M165 581h-111l129 161h87l134 -161h-106l-69 86zM236 -9c-80 1 -134 32 -163 70c-21 27 -31 51 -33 75l95 25c10 -46 45 -79 100 -79c45 0 70 23 70 58c0 27 -17 45 -59 55l-63 15c-88 20 -132 75 -132 142c0 43 17 79 51 110c33 30 75 46 125 46c77 -1 126 -30 153 -66
c19 -25 27 -46 30 -67l-93 -26c-9 38 -37 69 -90 69c-18 0 -34 -5 -48 -16c-14 -10 -20 -24 -20 -40c0 -28 20 -46 50 -52l68 -14c44 -10 79 -28 104 -55c24 -27 37 -59 37 -95c0 -76 -58 -155 -182 -155z" />
    <glyph glyph-name="Scedilla" unicode="&#x15e;" horiz-adv-x="606" 
d="M270 -6c-70 7 -129 36 -166 76c-38 39 -60 86 -65 135l111 30c8 -43 26 -77 54 -102s64 -38 107 -38c37 0 68 10 94 29c25 19 38 43 38 73c0 57 -43 93 -108 107l-90 18c-58 12 -103 36 -135 72c-33 36 -49 78 -49 126c-3 118 112 222 240 220c99 -1 165 -36 202 -83
c27 -32 40 -63 47 -97l-107 -33c-7 28 -23 54 -48 76s-55 33 -91 33c-35 0 -65 -10 -89 -31c-25 -21 -37 -45 -37 -74c0 -22 8 -42 25 -61c17 -18 39 -30 67 -36l92 -18c129 -26 199 -102 199 -211c0 -50 -20 -98 -55 -136c-36 -39 -93 -68 -160 -75c14 -22 21 -46 21 -74
c0 -31 -8 -59 -25 -81c-17 -23 -38 -40 -63 -50c-25 -11 -53 -16 -84 -16c-28 0 -52 4 -71 11v74c19 -5 39 -7 61 -7c59 0 98 29 98 86c0 19 -4 38 -13 57z" />
    <glyph glyph-name="scedilla" unicode="&#x15f;" horiz-adv-x="461" 
d="M277 -5c14 -22 22 -47 22 -75c0 -31 -9 -59 -25 -81c-17 -23 -38 -40 -63 -50c-26 -11 -53 -16 -84 -16c-28 0 -52 4 -71 11v74c19 -5 39 -7 61 -7c59 0 98 29 98 86c0 19 -5 38 -14 57c-65 8 -109 39 -133 74c-17 24 -26 47 -28 68l95 25c10 -46 45 -79 100 -79
c45 0 70 23 70 58c0 27 -17 45 -59 55l-63 15c-88 20 -132 75 -132 142c0 43 17 79 51 110c33 30 75 46 125 46c77 -1 126 -30 153 -66c19 -25 27 -46 30 -67l-93 -26c-9 38 -37 69 -90 69c-18 0 -34 -5 -48 -16c-14 -10 -20 -24 -20 -40c0 -28 20 -46 50 -52l68 -14
c44 -10 79 -28 104 -55c24 -27 37 -59 37 -95s-13 -69 -37 -97c-24 -29 -59 -48 -104 -54z" />
    <glyph glyph-name="Scaron" unicode="&#x160;" horiz-adv-x="606" 
d="M256 796l-129 160h110l65 -86l68 86h106l-133 -160h-87zM309 -8c-82 0 -152 27 -195 68c-44 41 -69 92 -75 145l111 30c8 -43 26 -77 55 -102c28 -25 63 -38 106 -38c38 0 69 10 94 29s38 43 38 73c0 57 -42 93 -108 107l-89 18c-59 12 -104 36 -136 72s-49 78 -49 126
c-3 118 113 222 241 220c98 -1 164 -36 202 -83c26 -32 39 -63 46 -97l-107 -33c-7 28 -23 54 -48 76s-55 33 -91 33c-35 0 -65 -10 -89 -31s-36 -45 -36 -74c0 -22 8 -42 25 -61c16 -18 38 -30 66 -36l93 -18c128 -26 198 -102 198 -211c0 -54 -23 -106 -65 -146
c-41 -40 -109 -67 -187 -67z" />
    <glyph glyph-name="scaron" unicode="&#x161;" horiz-adv-x="462" 
d="M183 581l-128 161h110l64 -86l69 86h106l-134 -161h-87zM237 -9c-64 0 -117 22 -147 52c-30 31 -46 62 -50 93l95 25c10 -46 46 -79 100 -79c45 0 71 23 71 58c0 27 -18 45 -59 55l-64 15c-87 20 -132 75 -132 142c0 43 17 79 51 110c34 30 76 46 125 46
c78 -1 127 -30 153 -66c20 -25 27 -46 31 -67l-94 -26c-8 38 -37 69 -90 69c-18 0 -34 -5 -47 -16c-14 -10 -21 -24 -21 -40c0 -28 21 -46 50 -52l68 -14c45 -10 79 -28 104 -55s37 -59 37 -95c0 -76 -58 -155 -181 -155z" />
    <glyph glyph-name="uni0162" unicode="&#x162;" horiz-adv-x="614" 
d="M364 623v-623c17 -24 25 -50 25 -80c0 -31 -8 -59 -25 -81c-17 -23 -38 -40 -63 -50c-26 -11 -53 -16 -84 -16c-28 0 -52 4 -71 11v74c19 -5 39 -7 61 -7c59 0 98 29 98 86c0 23 -5 44 -17 63h-38v623h-232v106h578v-106h-232z" />
    <glyph glyph-name="uni0163" unicode="&#x163;" horiz-adv-x="396" 
d="M131 -149c59 0 98 29 98 86c0 23 -6 44 -18 65c-61 16 -93 61 -93 152v243h-96v100h96v154h111v-154h126v-100h-126v-237c0 -44 22 -64 76 -64c11 0 26 1 45 4v-95c-16 -5 -36 -8 -60 -9c15 -22 23 -48 23 -76c0 -31 -8 -59 -25 -81c-17 -23 -38 -40 -63 -50
c-25 -11 -53 -16 -84 -16c-16 0 -32 2 -46 4v77c12 -2 24 -3 36 -3z" />
    <glyph glyph-name="Tcaron" unicode="&#x164;" horiz-adv-x="615" 
d="M261 796l-128 160h110l64 -86l69 86h106l-134 -160h-87zM250 0v623h-232v106h578v-106h-231v-623h-115z" />
    <glyph glyph-name="tcaron" unicode="&#x165;" horiz-adv-x="396" 
d="M308 759h125l-55 -214h-83zM229 397v-237c0 -44 22 -64 76 -64c11 0 26 1 45 4v-95c-22 -6 -49 -10 -79 -10c-51 0 -90 12 -115 36s-38 65 -38 123v243h-96v100h96v154h111v-154h126v-100h-126z" />
    <glyph glyph-name="Tbar" unicode="&#x166;" horiz-adv-x="625" 
d="M255 315h-124v99h124v209h-231v106h578v-106h-232v-209h124v-99h-124v-315h-115v315z" />
    <glyph glyph-name="tbar" unicode="&#x167;" horiz-adv-x="401" 
d="M360 497v-100h-127v-85h108v-97h-108v-55c0 -44 22 -64 77 -64c11 0 26 1 45 4v-95c-22 -6 -49 -10 -80 -10c-51 0 -90 12 -115 36s-37 65 -37 123v61h-92v97h92v85h-97v100h97v154h110v-154h127z" />
    <glyph glyph-name="Utilde" unicode="&#x168;" horiz-adv-x="736" 
d="M536 942v-10c0 -82 -32 -124 -96 -124c-49 -2 -98 47 -132 46c-18 0 -29 -15 -30 -45h-78v11c0 82 33 124 99 124c43 1 102 -47 132 -45c20 0 31 14 34 43h71zM652 729v-446c0 -86 -25 -158 -72 -210c-46 -53 -120 -82 -213 -82c-94 0 -169 31 -214 83s-68 122 -68 204
v451h114v-447c0 -56 16 -101 47 -134c32 -33 73 -49 123 -49c53 0 94 16 124 50c29 33 44 76 44 129v451h115z" />
    <glyph glyph-name="utilde" unicode="&#x169;" horiz-adv-x="590" 
d="M464 724v-10c0 -83 -32 -124 -96 -124c-48 -2 -98 47 -132 45c-18 0 -29 -15 -30 -44h-77v10c0 83 32 124 98 124c43 2 102 -46 133 -44c19 0 30 14 34 43h70zM180 497v-278c0 -75 36 -124 109 -124c35 0 63 11 84 34s31 54 31 91v277h111v-497h-108v67
c-15 -20 -32 -36 -52 -48c-20 -13 -38 -20 -54 -24c-15 -4 -31 -5 -46 -5c-80 0 -139 39 -166 99c-14 30 -20 64 -20 102v306h111z" />
    <glyph glyph-name="Umacron" unicode="&#x16a;" horiz-adv-x="737" 
d="M530 828h-323v88h323v-88zM652 729v-446c0 -86 -24 -158 -71 -210c-47 -53 -121 -82 -214 -82c-94 0 -168 31 -214 83c-45 52 -68 122 -68 204v451h115v-447c0 -56 15 -101 47 -134c31 -33 72 -49 123 -49c52 0 94 16 123 50c30 33 45 76 45 129v451h114z" />
    <glyph glyph-name="umacron" unicode="&#x16b;" horiz-adv-x="590" 
d="M454 591h-323v89h323v-89zM180 497v-278c0 -75 36 -124 109 -124c35 0 63 11 84 34s31 54 31 91v277h111v-497h-108v67c-15 -20 -32 -36 -52 -48c-20 -13 -38 -20 -54 -24c-15 -4 -31 -5 -46 -5c-80 0 -139 39 -166 99c-14 30 -20 64 -20 102v306h111z" />
    <glyph glyph-name="Uring" unicode="&#x16e;" horiz-adv-x="736" 
d="M368 792c-37 0 -69 13 -95 38c-27 25 -40 55 -40 91s13 66 40 91s58 38 95 38s69 -13 96 -38c26 -25 40 -55 40 -91s-14 -66 -40 -91c-27 -25 -59 -38 -96 -38zM368 981c-18 0 -33 -6 -45 -17c-13 -11 -18 -26 -18 -43c0 -16 6 -31 18 -42c12 -13 27 -19 45 -19
s33 6 46 19c12 11 18 26 18 42s-7 30 -19 42c-13 12 -28 18 -45 18zM652 729v-446c0 -86 -25 -158 -72 -210c-46 -53 -120 -82 -213 -82c-94 0 -169 31 -214 83s-68 122 -68 204v451h114v-447c0 -56 16 -101 47 -134c32 -33 73 -49 123 -49c53 0 94 16 124 50
c29 33 44 76 44 129v451h115z" />
    <glyph glyph-name="uring" unicode="&#x16f;" horiz-adv-x="590" 
d="M292 561c-37 0 -69 13 -95 38c-27 25 -40 56 -40 91c0 36 13 66 40 91s58 38 95 38c38 0 69 -13 96 -38s40 -55 40 -91s-13 -66 -40 -91s-58 -38 -96 -38zM292 750c-18 0 -33 -5 -45 -17c-12 -11 -18 -26 -18 -43c0 -16 6 -30 18 -42c13 -13 28 -18 45 -18
c18 0 33 5 46 18c12 12 18 26 18 42s-6 30 -19 42c-13 13 -28 18 -45 18zM180 497v-278c0 -75 36 -124 109 -124c35 0 63 11 84 34s31 54 31 91v277h111v-497h-108v67c-15 -20 -32 -36 -52 -48c-20 -13 -38 -20 -54 -24c-15 -4 -31 -5 -46 -5c-80 0 -139 39 -166 99
c-14 30 -20 64 -20 102v306h111z" />
    <glyph glyph-name="Uhungarumlaut" unicode="&#x170;" horiz-adv-x="736" 
d="M318 955h131l-130 -160h-92zM501 955h132l-131 -160h-91zM652 729v-446c0 -86 -25 -158 -72 -210c-46 -53 -120 -82 -213 -82c-94 0 -169 31 -214 83s-68 122 -68 204v451h114v-447c0 -56 16 -101 47 -134c32 -33 73 -49 123 -49c53 0 94 16 124 50c29 33 44 76 44 129
v451h115z" />
    <glyph glyph-name="uhungarumlaut" unicode="&#x171;" 
d="M242 742h131l-131 -160h-91zM425 742h131l-130 -160h-91zM180 497v-278c0 -75 36 -124 109 -124c35 0 63 11 84 34s31 54 31 91v277h111v-497h-108v67c-15 -20 -32 -36 -52 -48c-20 -13 -38 -20 -54 -24c-15 -4 -31 -5 -46 -5c-80 0 -139 39 -166 99
c-14 30 -20 64 -20 102v306h111z" />
    <glyph glyph-name="Uogonek" unicode="&#x172;" horiz-adv-x="736" 
d="M394 -8c-12 -1 -21 -1 -27 -1c-94 0 -169 31 -214 83s-68 122 -68 204v451h114v-447c0 -56 16 -101 47 -134c32 -33 73 -49 123 -49c53 0 94 16 124 50c29 33 44 76 44 129v451h115v-450c0 -101 -35 -180 -105 -236l-59 -47c-49 -38 -73 -66 -73 -95c0 -33 25 -50 72 -50
h2v-76c-11 -1 -23 -2 -34 -2c-39 0 -71 9 -97 27c-26 17 -39 42 -39 75c0 35 25 75 75 117z" />
    <glyph glyph-name="uogonek" unicode="&#x173;" 
d="M511 -149v-76c-11 -1 -23 -2 -35 -2c-38 0 -70 9 -96 27c-26 17 -39 42 -39 75c0 38 29 80 87 125h-21v67c-15 -20 -32 -36 -52 -48c-20 -13 -38 -20 -54 -24c-15 -4 -31 -5 -46 -5c-82 0 -140 39 -166 99c-14 29 -20 63 -20 102v306h111v-278c0 -75 36 -124 109 -124
c35 0 63 11 84 34s31 54 31 91v277h111v-497c-20 -15 -33 -26 -50 -44c-18 -18 -28 -37 -28 -55c0 -33 24 -50 72 -50h2z" />
    <glyph glyph-name="Wcircumflex" unicode="&#x174;" horiz-adv-x="1093" 
d="M483 795h-110l128 160h87l134 -160h-106l-69 86zM22 729h122l164 -567l175 567h127l177 -567l167 567h119l-223 -729h-130l-174 570h-1l-175 -570h-129z" />
    <glyph glyph-name="wcircumflex" unicode="&#x175;" horiz-adv-x="819" 
d="M345 581h-110l129 161h86l134 -161h-106l-68 86zM579 145h1l105 352h114l-160 -497h-114l-115 349h-2l-116 -349h-113l-159 497h115l105 -351h1l113 351h111z" />
    <glyph glyph-name="Ycircumflex" unicode="&#x176;" horiz-adv-x="699" 
d="M286 795h-110l129 160h86l134 -160h-106l-69 86zM292 0v291l-274 438h132l200 -327l201 327h131l-275 -435v-294h-115z" />
    <glyph glyph-name="ycircumflex" unicode="&#x177;" horiz-adv-x="570" 
d="M225 581h-110l129 161h87l134 -161h-106l-69 86zM236 56l-221 441h126l155 -326l143 326h120l-341 -742h-118z" />
    <glyph glyph-name="Ydieresis" unicode="&#x178;" horiz-adv-x="700" 
d="M247 790c-19 0 -36 7 -49 21s-20 30 -20 49c0 20 7 36 20 50c13 13 29 20 49 20c19 0 36 -7 49 -20c14 -14 21 -30 21 -50c0 -19 -7 -35 -21 -49c-13 -14 -30 -21 -49 -21zM454 790c-20 0 -36 7 -49 21c-14 14 -21 30 -21 49c0 20 7 36 20 50c13 13 30 20 50 20
c19 0 36 -7 49 -20c13 -14 20 -30 20 -50c0 -19 -7 -35 -20 -49c-14 -14 -30 -21 -49 -21zM408 294v-294h-116v291l-274 438h133l200 -327l201 327h131z" />
    <glyph glyph-name="Zacute" unicode="&#x179;" horiz-adv-x="620" 
d="M339 955h135l-135 -160h-96zM434 626h-384v103h523v-98l-398 -528h406v-103h-546v99z" />
    <glyph glyph-name="zacute" unicode="&#x17a;" horiz-adv-x="492" 
d="M293 742h135l-135 -160h-96zM310 400h-263v97h401v-88l-273 -313h274v-96h-409v92z" />
    <glyph glyph-name="Zdotaccent" unicode="&#x17b;" horiz-adv-x="619" 
d="M360 812c-15 -14 -32 -22 -52 -22c-21 0 -38 8 -52 22s-21 31 -21 52c0 20 7 37 21 52c14 14 31 21 52 21c20 0 38 -7 52 -21c14 -15 21 -32 21 -52c0 -21 -7 -38 -21 -52zM433 626h-383v103h522v-98l-398 -528h406v-103h-545v99z" />
    <glyph glyph-name="zdotaccent" unicode="&#x17c;" horiz-adv-x="492" 
d="M297 600c-15 -15 -32 -22 -52 -22c-21 0 -38 7 -52 22c-14 14 -21 31 -21 51c0 21 7 38 21 53c14 14 31 21 52 21c20 0 38 -7 52 -21c14 -15 21 -32 21 -53c0 -20 -7 -37 -21 -51zM310 400h-263v97h402v-88l-274 -313h275v-96h-410v92z" />
    <glyph glyph-name="Zcaron" unicode="&#x17d;" horiz-adv-x="619" 
d="M262 796l-128 160h110l64 -86l69 86h106l-134 -160h-87zM434 626h-383v103h522v-98l-398 -528h406v-103h-546v99z" />
    <glyph glyph-name="zcaron" unicode="&#x17e;" horiz-adv-x="492" 
d="M199 581l-129 161h110l65 -86l69 86h106l-134 -161h-87zM310 400h-263v97h402v-88l-274 -313h275v-96h-410v92z" />
    <glyph glyph-name="florin" unicode="&#x192;" horiz-adv-x="559" 
d="M499 633c-29 0 -54 -9 -74 -28c-20 -18 -33 -41 -38 -70l-7 -38h120v-97h-140l-45 -233c-7 -36 -18 -66 -40 -97c-12 -16 -25 -30 -39 -41c-30 -22 -76 -38 -130 -38c-22 0 -42 3 -61 7v97c18 -3 34 -5 48 -5c30 0 55 10 75 28c19 18 32 42 38 71l41 211h-100v97h120
l12 60c9 45 26 83 57 118s84 56 149 56c24 0 44 -1 60 -5v-97c-16 2 -32 4 -46 4z" />
    <glyph glyph-name="uni01B5" unicode="&#x1b5;" horiz-adv-x="622" 
d="M205 322h-153v98h227l156 206h-383v103h522v-98l-161 -211h161v-98h-233l-165 -219h406v-103h-545v99z" />
    <glyph glyph-name="uni01B6" unicode="&#x1b6;" horiz-adv-x="494" 
d="M145 211h-97v79h166l96 110h-262v97h401v-88l-106 -119h106v-79h-174l-100 -115h275v-96h-410v92z" />
    <glyph glyph-name="uni01CD" unicode="&#x1cd;" horiz-adv-x="729" 
d="M319 796l-129 160h110l65 -86l68 86h106l-134 -160h-86zM185 171l-68 -171h-117l297 729h135l295 -729h-119l-67 171h-356zM225 273h277l-139 346z" />
    <glyph glyph-name="uni01CE" unicode="&#x1ce;" horiz-adv-x="535" 
d="M212 581l-129 161h111l64 -86l69 86h106l-134 -161h-87zM211 -9c-48 0 -89 14 -120 42c-31 27 -47 62 -47 105v5c1 69 42 111 96 132c38 15 74 20 110 20h62c31 0 46 14 46 42c0 21 -8 39 -25 54c-17 14 -41 22 -73 22c-59 0 -100 -33 -108 -83l-101 23c3 23 14 48 34 75
c20 26 45 46 78 60c28 13 62 19 101 19c93 0 155 -34 186 -102c11 -24 17 -53 17 -88v-237c0 -33 1 -60 3 -80h-108c-3 14 -5 36 -5 68c-17 -28 -38 -47 -64 -59c-27 -12 -54 -18 -82 -18zM357 217h-107c-24 0 -45 -6 -65 -18c-20 -13 -30 -30 -30 -51c0 -41 32 -68 79 -68
c37 0 68 11 90 33s33 51 33 88v16z" />
    <glyph glyph-name="uni01CF" unicode="&#x1cf;" horiz-adv-x="301" 
d="M104 796l-129 160h110l65 -86l70 86h105l-134 -160h-87zM208 729v-729h-115v729h115z" />
    <glyph glyph-name="uni01D0" unicode="&#x1d0;" horiz-adv-x="259" 
d="M84 581l-129 161h110l65 -86l68 86h106l-134 -161h-86zM185 497v-497h-111v497h111z" />
    <glyph glyph-name="uni01D1" unicode="&#x1d1;" horiz-adv-x="838" 
d="M373 796l-128 160h110l64 -86l69 86h106l-134 -160h-87zM45 363c0 52 10 102 30 148c19 47 46 87 80 120c33 34 73 60 120 79c45 20 94 30 145 30c68 0 131 -17 188 -49s102 -77 135 -135c33 -57 50 -121 50 -190c0 -53 -10 -102 -30 -149s-47 -87 -80 -119
c-34 -33 -74 -59 -120 -78c-47 -19 -95 -29 -146 -29s-99 10 -145 29c-46 18 -86 44 -119 76c-33 33 -59 72 -79 119c-19 45 -29 95 -29 148zM165 365c-3 -144 113 -270 254 -267c70 0 135 31 181 78c45 48 73 117 73 189c0 49 -11 94 -33 135c-23 41 -54 73 -93 97
s-82 36 -128 36c-141 3 -257 -122 -254 -268z" />
    <glyph glyph-name="uni01D2" unicode="&#x1d2;" horiz-adv-x="605" 
d="M257 581l-129 161h110l65 -86l68 86h106l-133 -161h-87zM40 249c0 48 12 92 36 132c24 39 55 71 96 93c40 22 84 33 132 33c46 0 90 -11 130 -33s72 -53 96 -92c23 -40 35 -83 35 -131c3 -144 -120 -263 -262 -260c-48 0 -91 12 -131 34c-41 22 -72 54 -96 93
c-24 40 -36 83 -36 131zM154 251c0 -43 14 -81 42 -112s64 -47 108 -47s79 15 107 46c27 30 41 67 41 111s-14 82 -42 112c-27 31 -63 46 -107 46s-80 -15 -108 -45s-41 -67 -41 -111z" />
    <glyph glyph-name="uni01D3" unicode="&#x1d3;" horiz-adv-x="736" 
d="M322 796l-128 160h110l64 -86l69 86h106l-134 -160h-87zM652 729v-446c0 -86 -25 -158 -72 -210c-46 -53 -120 -82 -213 -82c-94 0 -169 31 -214 83s-68 122 -68 204v451h114v-447c0 -56 16 -101 47 -134c32 -33 73 -49 123 -49c53 0 94 16 124 50c29 33 44 76 44 129
v451h115z" />
    <glyph glyph-name="uni01D4" unicode="&#x1d4;" 
d="M246 581l-129 161h110l65 -86l68 86h106l-133 -161h-87zM180 497v-278c0 -75 36 -124 109 -124c35 0 63 11 84 34s31 54 31 91v277h111v-497h-108v67c-15 -20 -32 -36 -52 -48c-20 -13 -38 -20 -54 -24c-15 -4 -31 -5 -46 -5c-80 0 -139 39 -166 99
c-14 30 -20 64 -20 102v306h111z" />
    <glyph glyph-name="uni01D5" unicode="&#x1d5;" horiz-adv-x="736" 
d="M652 729v-446c0 -86 -25 -158 -72 -210c-46 -53 -120 -82 -213 -82c-94 0 -169 31 -214 83s-68 122 -68 204v451h114v-447c0 -56 16 -101 47 -134c32 -33 73 -49 123 -49c53 0 94 16 124 50c29 33 44 76 44 129v451h115zM530 920h-323v88h323v-88zM310 770
c-14 -14 -30 -20 -50 -20c-19 0 -35 6 -48 20c-13 13 -20 30 -20 49c0 20 6 36 19 50c14 13 30 20 49 20c20 0 36 -7 50 -20c14 -14 20 -31 20 -50s-6 -36 -20 -49zM477 750c-20 0 -37 6 -50 20c-13 13 -20 30 -20 49c0 20 7 36 20 50c13 13 30 20 50 20c19 0 36 -7 49 -20
c13 -14 19 -30 19 -50c0 -19 -6 -36 -20 -49c-13 -14 -29 -20 -48 -20z" />
    <glyph glyph-name="uni01D6" unicode="&#x1d6;" 
d="M453 720h-323v89h323v-89zM188 545c-19 0 -35 7 -48 21c-14 14 -21 30 -21 49c0 20 7 36 20 50c13 13 30 20 49 20c20 0 36 -7 50 -20c13 -14 20 -30 20 -50c0 -19 -7 -36 -20 -49c-14 -14 -30 -21 -50 -21zM444 566c-14 -14 -30 -21 -49 -21c-20 0 -36 7 -49 21
s-20 30 -20 49c0 20 6 36 19 50c14 13 30 20 50 20c19 0 35 -7 49 -20c14 -14 21 -30 21 -50c0 -19 -7 -35 -21 -49zM180 497v-278c0 -75 36 -124 109 -124c35 0 63 11 84 34s31 54 31 91v277h111v-497h-108v67c-15 -20 -32 -36 -52 -48c-20 -13 -38 -20 -54 -24
c-15 -4 -31 -5 -46 -5c-80 0 -139 39 -166 99c-14 30 -20 64 -20 102v306h111z" />
    <glyph glyph-name="uni01D7" unicode="&#x1d7;" horiz-adv-x="736" 
d="M652 729v-446c0 -86 -25 -158 -72 -210c-46 -53 -120 -82 -213 -82c-94 0 -169 31 -214 83s-68 122 -68 204v451h114v-447c0 -56 16 -101 47 -134c32 -33 73 -49 123 -49c53 0 94 16 124 50c29 33 44 76 44 129v451h115zM409 1052h133l-128 -151h-96zM260 750
c-20 0 -36 6 -49 20c-13 13 -20 30 -20 49c0 20 7 36 20 50c13 13 29 20 49 20c19 0 35 -7 49 -20c14 -14 21 -31 21 -50s-7 -36 -20 -49c-14 -14 -31 -20 -50 -20zM525 770c-14 -14 -30 -20 -49 -20s-36 6 -49 20c-13 13 -20 30 -20 49c0 20 6 36 19 50c14 13 30 20 50 20
c19 0 36 -7 49 -20c14 -14 20 -31 20 -50s-6 -36 -20 -49z" />
    <glyph glyph-name="uni01D8" unicode="&#x1d8;" 
d="M337 867h136l-135 -161h-96zM188 545c-19 0 -35 7 -48 21c-14 14 -21 30 -21 49c0 20 7 36 20 50c13 13 30 20 49 20c20 0 36 -7 50 -20c13 -14 20 -30 20 -50c0 -19 -7 -36 -20 -49c-14 -14 -30 -21 -50 -21zM444 566c-14 -14 -30 -21 -49 -21c-20 0 -36 7 -49 21
s-20 30 -20 49c0 20 6 36 19 50c14 13 30 20 50 20c19 0 35 -7 49 -20c14 -14 21 -30 21 -50c0 -19 -7 -35 -21 -49zM180 497v-278c0 -75 36 -124 109 -124c35 0 63 11 84 34s31 54 31 91v277h111v-497h-108v67c-15 -20 -32 -36 -52 -48c-20 -13 -38 -20 -54 -24
c-15 -4 -31 -5 -46 -5c-80 0 -139 39 -166 99c-14 30 -20 64 -20 102v306h111z" />
    <glyph glyph-name="uni01D9" unicode="&#x1d9;" horiz-adv-x="736" 
d="M652 729v-446c0 -86 -25 -158 -72 -210c-46 -53 -120 -82 -213 -82c-94 0 -169 31 -214 83s-68 122 -68 204v451h114v-447c0 -56 16 -101 47 -134c32 -33 73 -49 123 -49c53 0 94 16 124 50c29 33 44 76 44 129v451h115zM322 902l-128 151h110l65 -81l68 81h106
l-134 -151h-87zM310 770c-14 -14 -30 -20 -50 -20c-19 0 -35 6 -48 20c-13 13 -20 30 -20 49c0 20 6 36 19 50c14 13 30 20 49 20c20 0 36 -7 50 -20c14 -14 20 -31 20 -50s-6 -36 -20 -49zM477 750c-20 0 -37 6 -50 20c-13 13 -20 30 -20 49c0 20 7 36 20 50
c13 13 30 20 50 20c19 0 36 -7 49 -20c13 -14 19 -30 19 -50c0 -19 -6 -36 -20 -49c-13 -14 -29 -20 -48 -20z" />
    <glyph glyph-name="uni01DA" unicode="&#x1da;" 
d="M117 868h110l64 -86l69 86h106l-134 -161h-86zM235 566c-13 -14 -30 -21 -49 -21s-35 7 -49 21s-21 30 -21 49c0 20 7 36 21 50c13 13 30 20 49 20c20 0 36 -7 50 -20c13 -14 20 -30 20 -50c0 -19 -7 -35 -21 -49zM393 545c-20 0 -36 7 -49 21c-14 13 -21 30 -21 49
c0 20 7 36 20 50c13 13 30 20 50 20c19 0 36 -7 49 -20c14 -14 21 -30 21 -50c0 -19 -7 -35 -21 -49s-30 -21 -49 -21zM180 497v-278c0 -75 36 -124 109 -124c35 0 63 11 84 34s31 54 31 91v277h111v-497h-108v67c-15 -20 -32 -36 -52 -48c-20 -13 -38 -20 -54 -24
c-15 -4 -31 -5 -46 -5c-80 0 -139 39 -166 99c-14 30 -20 64 -20 102v306h111z" />
    <glyph glyph-name="uni01DB" unicode="&#x1db;" horiz-adv-x="736" 
d="M652 729v-446c0 -86 -25 -158 -72 -210c-46 -53 -120 -82 -213 -82c-94 0 -169 31 -214 83s-68 122 -68 204v451h114v-447c0 -56 16 -101 47 -134c32 -33 73 -49 123 -49c53 0 94 16 124 50c29 33 44 76 44 129v451h115zM427 770c13 -14 30 -20 49 -20s35 6 49 20
c14 13 20 30 20 49s-6 36 -20 50c-13 13 -30 20 -49 20c-20 0 -36 -7 -50 -20c-13 -14 -19 -30 -19 -50c0 -19 7 -36 20 -49zM260 750c19 0 36 6 50 20c13 13 20 30 20 49s-7 36 -21 50c-14 13 -30 20 -49 20c-20 0 -36 -7 -49 -20c-13 -14 -20 -30 -20 -50
c0 -19 7 -36 20 -49c13 -14 29 -20 49 -20zM422 901h-96l-128 151h133z" />
    <glyph glyph-name="uni01DC" unicode="&#x1dc;" 
d="M345 706h-95l-135 161h135zM188 545c-19 0 -35 7 -48 21c-14 14 -21 30 -21 49c0 20 7 36 20 50c13 13 30 20 49 20c20 0 36 -7 50 -20c13 -14 20 -30 20 -50c0 -19 -7 -36 -20 -49c-14 -14 -30 -21 -50 -21zM444 566c-14 -14 -30 -21 -49 -21c-20 0 -36 7 -49 21
s-20 30 -20 49c0 20 6 36 19 50c14 13 30 20 50 20c19 0 35 -7 49 -20c14 -14 21 -30 21 -50c0 -19 -7 -35 -21 -49zM180 497v-278c0 -75 36 -124 109 -124c35 0 63 11 84 34s31 54 31 91v277h111v-497h-108v67c-15 -20 -32 -36 -52 -48c-20 -13 -38 -20 -54 -24
c-15 -4 -31 -5 -46 -5c-80 0 -139 39 -166 99c-14 30 -20 64 -20 102v306h111z" />
    <glyph glyph-name="Gcaron" unicode="&#x1e6;" horiz-adv-x="795" 
d="M373 796l-129 160h110l65 -86l68 86h106l-133 -160h-87zM741 518l-112 -35c-9 33 -30 67 -64 98s-88 52 -149 52c-71 0 -131 -25 -179 -77c-49 -51 -73 -115 -73 -191c0 -49 11 -95 32 -135c21 -41 50 -73 89 -97s82 -36 130 -36c61 0 111 16 148 46c37 31 61 70 69 118
h-262v104h385v-40c0 -92 -33 -175 -90 -235c-56 -61 -145 -98 -249 -98c-72 0 -136 16 -193 48c-57 33 -100 77 -131 133c-32 57 -47 120 -47 190c0 53 10 104 29 151c19 46 45 86 78 119s72 59 118 78s95 29 147 29c176 0 291 -106 324 -222z" />
    <glyph glyph-name="gcaron" unicode="&#x1e7;" horiz-adv-x="630" 
d="M252 581l-129 161h111l64 -86l69 86h106l-134 -161h-87zM282 -4c-69 0 -133 30 -174 77c-42 47 -68 111 -68 177c0 62 24 124 65 173c40 49 106 82 180 82c27 0 56 -6 88 -20c32 -15 57 -35 75 -64v76h108v-494c0 -52 -12 -96 -36 -135c-24 -38 -55 -68 -96 -87
c-40 -20 -86 -30 -137 -30c-75 0 -144 22 -196 74c-26 26 -42 58 -49 94l104 30c6 -27 22 -50 48 -69c26 -20 55 -30 89 -30c82 0 162 44 162 148v82c-12 -20 -30 -37 -51 -50c-22 -13 -42 -22 -61 -27c-18 -4 -35 -7 -51 -7zM447 252c0 44 -14 81 -41 110
c-27 30 -63 44 -107 44s-80 -14 -108 -44c-27 -29 -41 -66 -41 -110s14 -81 42 -111c28 -31 63 -46 107 -46s79 15 107 46c27 30 41 67 41 111z" />
    <glyph glyph-name="uni01E8" unicode="&#x1e8;" horiz-adv-x="662" 
d="M303 796l-128 160h110l64 -86l69 86h106l-134 -160h-87zM499 729h151l-326 -349l345 -380h-155l-307 344v-344h-114v729h114v-315z" />
    <glyph glyph-name="uni01E9" unicode="&#x1e9;" horiz-adv-x="541" 
d="M186 243v-243h-112v758h112v-457h1l193 196h150l-224 -225l237 -272h-147l-207 243h-3zM361 581l-129 161h110l65 -86l68 86h106l-133 -161h-87z" />
    <glyph glyph-name="uni01F4" unicode="&#x1f4;" horiz-adv-x="794" 
d="M465 955h136l-135 -160h-96zM740 518l-112 -35c-9 33 -30 67 -64 98s-88 52 -149 52c-47 0 -89 -11 -128 -34c-38 -24 -68 -56 -90 -97s-33 -87 -33 -137c-3 -147 106 -270 250 -268c61 0 111 16 148 46c38 31 61 70 69 118h-261v104h385v-40c0 -92 -34 -175 -90 -235
c-57 -61 -146 -98 -250 -98c-72 0 -136 16 -192 48c-57 33 -101 77 -132 133c-31 57 -46 120 -46 190c0 53 10 104 29 151c18 46 44 86 77 119c66 66 161 107 265 107c176 0 291 -106 324 -222z" />
    <glyph glyph-name="uni01F5" unicode="&#x1f5;" horiz-adv-x="630" 
d="M342 742h135l-135 -160h-96zM282 -4c-69 0 -133 30 -174 77c-42 47 -68 111 -68 177c0 62 24 124 65 173c40 49 106 82 180 82c27 0 56 -6 88 -20c32 -15 57 -35 75 -64v76h108v-494c0 -52 -12 -96 -36 -135c-24 -38 -55 -68 -96 -87c-40 -20 -86 -30 -137 -30
c-75 0 -144 22 -196 74c-26 26 -42 58 -49 94l104 30c6 -27 22 -50 48 -69c26 -20 55 -30 89 -30c82 0 162 44 162 148v82c-12 -20 -30 -37 -51 -50c-22 -13 -42 -22 -61 -27c-18 -4 -35 -7 -51 -7zM447 252c0 44 -14 81 -41 110c-27 30 -63 44 -107 44s-80 -14 -108 -44
c-27 -29 -41 -66 -41 -110s14 -81 42 -111c28 -31 63 -46 107 -46s79 15 107 46c27 30 41 67 41 111z" />
    <glyph glyph-name="Aringacute" unicode="&#x1fa;" horiz-adv-x="728" 
d="M401 909l58 96h136l-122 -144c17 -22 26 -48 26 -76c0 -41 -16 -75 -49 -100l277 -685h-119l-67 171h-356l-68 -171h-117l279 684c-31 24 -50 61 -50 101c0 35 13 66 40 91c26 25 58 38 95 38c12 0 25 -2 37 -5zM364 845c-19 0 -34 -6 -46 -17c-12 -12 -18 -26 -18 -43
s6 -31 19 -43c12 -12 27 -18 45 -18c17 0 33 6 45 18s18 26 18 43c0 15 -6 30 -19 42s-28 18 -44 18zM502 273l-139 346l-138 -346h277z" />
    <glyph glyph-name="aringacute" unicode="&#x1fb;" horiz-adv-x="535" 
d="M304 687l56 94h135l-120 -143c16 -22 24 -47 24 -73c0 -30 -9 -56 -28 -79c36 -17 63 -44 79 -81c12 -24 17 -53 17 -88v-237c0 -33 2 -60 4 -80h-109c-3 14 -4 36 -4 68c-17 -28 -38 -47 -65 -59s-53 -18 -81 -18c-49 0 -89 14 -121 42c-31 27 -47 62 -47 105v5
c1 69 43 111 97 132c37 15 73 20 110 20h61c31 0 47 14 47 42c0 21 -9 39 -26 54c-17 14 -41 22 -72 22c-60 0 -100 -33 -109 -83l-100 23c3 29 18 61 50 93c16 16 34 29 54 39c-18 23 -28 50 -28 80c0 35 13 65 40 90s58 38 95 38c15 0 28 -2 41 -6zM264 621
c-34 0 -59 -25 -59 -56c0 -16 5 -29 17 -40c11 -12 25 -17 42 -17s31 5 43 17c11 11 17 24 17 40c0 15 -6 28 -18 39s-26 17 -42 17zM358 217h-108c-23 0 -45 -6 -65 -18c-20 -13 -30 -30 -30 -51c0 -41 32 -68 79 -68c38 0 68 11 91 33c22 22 33 51 33 88v16z" />
    <glyph glyph-name="AEacute" unicode="&#x1fc;" horiz-adv-x="980" 
d="M581 955h136l-135 -160h-96zM114 0h-125l396 729h538v-104h-348v-202h316v-104h-316v-215h351v-104h-465v171h-255zM260 273h201v353h-11z" />
    <glyph glyph-name="aeacute" unicode="&#x1fd;" horiz-adv-x="885" 
d="M485 742h135l-135 -160h-95zM846 250c0 -11 0 -22 -1 -34h-380c1 -36 16 -67 46 -92s64 -38 102 -38c69 0 112 28 131 83l95 -28c-14 -46 -42 -83 -84 -110c-43 -26 -90 -40 -141 -40c-80 0 -152 34 -200 90c-51 -60 -117 -90 -198 -90h-2c-49 0 -89 14 -122 42
c-32 27 -48 62 -48 105v5c1 69 42 111 96 132c38 15 74 20 110 20h71c27 0 41 14 41 42c0 42 -36 75 -98 76c-31 0 -57 -8 -77 -23c-21 -15 -33 -35 -37 -59l-99 22c3 23 14 47 35 74c22 27 49 47 81 62c28 12 61 18 99 18c77 0 132 -23 164 -71c43 45 107 71 176 71
c75 0 134 -23 177 -71c42 -47 63 -109 63 -186zM470 300h265c-2 35 -15 62 -39 82s-55 30 -91 30c-35 0 -65 -10 -90 -31c-25 -20 -40 -47 -45 -81zM360 217h-110c-24 0 -45 -6 -65 -18c-20 -13 -30 -30 -30 -51c0 -41 32 -68 79 -68c38 0 69 11 92 32c23 22 34 51 34 89v16
z" />
    <glyph glyph-name="Oslashacute" unicode="&#x1fe;" horiz-adv-x="843" 
d="M468 955h136l-135 -160h-96zM800 704l-91 -96c55 -65 87 -150 87 -242c0 -53 -10 -102 -30 -149s-47 -87 -81 -119c-34 -33 -74 -59 -120 -78s-95 -29 -145 -29c-85 0 -160 24 -225 73l-86 -88l-64 59l85 90c-55 66 -83 146 -83 238c0 52 10 102 30 148
c20 47 47 87 80 120c34 34 74 60 120 79c46 20 95 30 146 30c83 0 157 -25 222 -72l91 96zM167 365c0 -57 15 -109 45 -154l356 374c-43 32 -92 48 -147 48c-140 3 -256 -122 -254 -268zM675 365c0 59 -15 112 -47 158l-357 -375c44 -33 94 -50 150 -50c71 0 136 31 181 78
c45 48 73 117 73 189z" />
    <glyph glyph-name="oslashacute" unicode="&#x1ff;" horiz-adv-x="610" 
d="M346 742h136l-135 -160h-96zM568 460l-54 -54c35 -46 53 -98 53 -157c0 -48 -12 -91 -35 -131c-23 -39 -55 -71 -95 -93s-84 -34 -132 -34c-56 0 -107 16 -152 47l-55 -55l-56 54l53 55c-35 46 -52 98 -52 157c0 48 12 92 35 131c23 40 55 71 95 94c40 22 84 33 132 33
c56 0 108 -16 153 -47l54 55zM155 249c0 -29 6 -55 18 -79l212 215c-24 14 -50 21 -80 21c-44 0 -80 -15 -108 -45c-27 -31 -42 -68 -42 -112zM454 249c0 29 -6 55 -18 78l-211 -214c23 -14 49 -21 80 -21c44 0 80 15 107 46c28 30 42 67 42 111z" />
    <glyph glyph-name="Scommaaccent" unicode="&#x218;" horiz-adv-x="606" 
d="M309 -8c-82 0 -152 27 -195 68c-44 41 -70 92 -75 145l111 30c8 -43 26 -77 54 -102s64 -38 107 -38c37 0 68 10 94 29c25 19 38 43 38 73c0 57 -43 93 -108 107l-90 18c-58 12 -103 36 -135 72c-33 36 -49 78 -49 126c-3 118 112 222 240 220c99 -1 165 -36 202 -83
c27 -32 40 -63 47 -97l-107 -33c-7 28 -23 54 -48 76s-55 33 -91 33c-35 0 -65 -10 -89 -31c-25 -21 -37 -45 -37 -74c0 -22 8 -42 25 -61c17 -18 39 -30 67 -36l92 -18c129 -26 199 -102 199 -211c0 -54 -24 -106 -65 -146c-42 -40 -109 -67 -187 -67zM245 -332v44
c49 7 80 39 80 83c-7 -6 -18 -9 -30 -9c-35 0 -59 26 -59 61c0 18 6 33 19 44c13 12 28 18 46 18c24 0 42 -8 55 -24c13 -17 19 -37 19 -61c0 -85 -47 -143 -130 -156z" />
    <glyph glyph-name="scommaaccent" unicode="&#x219;" horiz-adv-x="461" 
d="M236 -9c-80 1 -134 32 -163 70c-21 27 -31 51 -33 75l95 25c10 -46 45 -79 100 -79c45 0 70 23 70 58c0 27 -17 45 -59 55l-63 15c-88 20 -132 75 -132 142c0 43 17 79 51 110c33 30 75 46 125 46c77 -1 126 -30 153 -66c19 -25 27 -46 30 -67l-93 -26
c-9 38 -37 69 -90 69c-18 0 -34 -5 -48 -16c-14 -10 -20 -24 -20 -40c0 -28 20 -46 50 -52l68 -14c44 -10 79 -28 104 -55c24 -27 37 -59 37 -95c0 -76 -58 -155 -182 -155zM166 -332v44c49 7 79 39 80 83c-8 -6 -18 -9 -31 -9c-35 0 -59 26 -59 61c0 18 7 33 19 44
c13 12 29 18 47 18c23 0 41 -8 54 -24c14 -17 20 -37 20 -61c0 -85 -48 -143 -130 -156z" />
    <glyph glyph-name="uni021A" unicode="&#x21a;" horiz-adv-x="614" 
d="M250 0v623h-232v106h578v-106h-232v-623h-114zM244 -332v44c48 7 79 39 80 83c-8 -6 -19 -9 -31 -9c-35 0 -59 26 -59 61c0 18 6 33 19 44c13 12 28 18 47 18c23 0 41 -8 54 -24c13 -17 20 -37 20 -61c0 -85 -48 -143 -130 -156z" />
    <glyph glyph-name="uni021B" unicode="&#x21b;" horiz-adv-x="396" 
d="M355 497v-100h-126v-237c0 -44 22 -64 76 -64c11 0 26 1 45 4v-95c-22 -6 -49 -10 -79 -10c-51 0 -90 12 -115 36s-38 65 -38 123v243h-96v100h96v154h111v-154h126zM154 -288v-44c82 13 130 71 130 156c0 24 -6 44 -19 61c-14 16 -32 24 -55 24c-18 0 -34 -6 -46 -18
c-13 -11 -19 -26 -19 -44c0 -35 24 -61 59 -61c12 0 22 3 30 9c0 -44 -31 -76 -80 -83z" />
    <glyph glyph-name="uni0237" unicode="&#x237;" horiz-adv-x="266" 
d="M81 -70v567h111v-573c0 -119 -48 -170 -147 -170c-24 0 -48 3 -71 9v94c16 -2 28 -3 36 -3c47 0 71 26 71 76z" />
    <glyph glyph-name="gravecomb" unicode="&#x300;" horiz-adv-x="0" 
d="M115 582h-95l-135 160h135z" />
    <glyph glyph-name="acutecomb" unicode="&#x301;" horiz-adv-x="0" 
d="M-20 742h135l-135 -160h-95z" />
    <glyph glyph-name="uni0302" unicode="&#x302;" horiz-adv-x="0" 
d="M-65 581h-110l129 161h87l134 -161h-106l-69 86z" />
    <glyph glyph-name="tildecomb" unicode="&#x303;" horiz-adv-x="0" 
d="M168 724v-10c0 -83 -33 -124 -97 -124c-48 -2 -97 47 -131 45c-19 0 -29 -15 -30 -44h-78v10c0 83 33 124 98 124c44 2 102 -46 133 -44c20 0 31 14 34 43h71z" />
    <glyph glyph-name="uni0304" unicode="&#x304;" horiz-adv-x="0" 
d="M161 591h-322v89h322v-89z" />
    <glyph glyph-name="uni0306" unicode="&#x306;" horiz-adv-x="0" 
d="M0 580c-85 -2 -160 54 -170 159h95c4 -51 30 -79 75 -79s73 26 76 79h94c-5 -50 -22 -89 -52 -117c-31 -28 -70 -42 -118 -42z" />
    <glyph glyph-name="uni0307" unicode="&#x307;" horiz-adv-x="0" 
d="M52 600c-15 -15 -32 -22 -52 -22c-21 0 -38 7 -52 22c-14 14 -21 31 -21 51c0 21 7 38 21 53c14 14 31 21 52 21c20 0 38 -7 52 -21c14 -15 21 -32 21 -53c0 -20 -7 -37 -21 -51z" />
    <glyph glyph-name="uni0308" unicode="&#x308;" horiz-adv-x="0" 
d="M-104 578c-19 0 -35 7 -49 20c-13 14 -20 30 -20 50c0 19 7 35 20 49c13 13 30 20 49 20c20 0 36 -7 50 -20c14 -14 20 -30 20 -49c0 -20 -6 -36 -20 -50c-14 -13 -30 -20 -50 -20zM103 578c-19 0 -36 7 -49 20c-14 14 -20 30 -20 50c0 19 6 35 20 49c13 13 30 20 49 20
c20 0 36 -7 50 -20c13 -14 20 -30 20 -49c0 -20 -7 -36 -21 -50c-13 -13 -30 -20 -49 -20z" />
    <glyph glyph-name="uni030A" unicode="&#x30a;" horiz-adv-x="0" 
d="M0 561c-37 0 -69 13 -96 38c-26 25 -39 56 -39 91c0 36 13 66 40 91c26 25 58 38 95 38s69 -13 96 -38c26 -25 39 -55 39 -91s-13 -66 -39 -91c-27 -25 -59 -38 -96 -38zM0 750c-19 0 -34 -5 -46 -17c-12 -11 -18 -26 -18 -43c0 -16 6 -30 18 -42c12 -13 28 -18 46 -18
c17 0 33 5 45 18c12 12 18 26 18 42s-6 30 -19 42c-13 13 -28 18 -44 18z" />
    <glyph glyph-name="uni030B" unicode="&#x30b;" horiz-adv-x="0" 
d="M-112 742h131l-130 -160h-92zM71 742h132l-131 -160h-91z" />
    <glyph glyph-name="uni030C" unicode="&#x30c;" horiz-adv-x="0" 
d="M-46 581l-129 161h110l65 -86l69 86h106l-134 -161h-87z" />
    <glyph glyph-name="uni0312" unicode="&#x312;" horiz-adv-x="0" 
d="M59 812v-44c-49 -7 -79 -39 -80 -82c7 5 17 8 31 8c34 0 59 -26 59 -60c0 -19 -7 -34 -19 -45c-13 -12 -29 -18 -47 -18c-23 0 -42 9 -55 25c-13 17 -19 37 -19 61c0 85 48 143 130 155z" />
    <glyph glyph-name="uni0326" unicode="&#x326;" horiz-adv-x="0" 
d="M-60 -332v44c48 7 79 39 80 83c-8 -6 -18 -9 -30 -9c-35 0 -60 26 -60 61c0 18 6 33 19 44c13 12 29 18 47 18c23 0 41 -8 54 -24c14 -17 20 -37 20 -61c0 -85 -48 -143 -130 -156z" />
    <glyph glyph-name="uni0327" unicode="&#x327;" horiz-adv-x="0" 
d="M21 0h75c17 -23 25 -50 25 -80c0 -31 -8 -59 -25 -81c-16 -23 -37 -40 -62 -50c-26 -11 -54 -16 -84 -16c-29 0 -53 4 -71 11v74c18 -5 39 -7 61 -7c59 0 98 29 98 86c0 22 -6 43 -17 63z" />
    <glyph glyph-name="uni0328" unicode="&#x328;" horiz-adv-x="0" 
d="M0 0h87c-21 -16 -33 -25 -51 -44c-17 -18 -27 -37 -27 -55c0 -33 24 -50 72 -50h2v-76c-11 -1 -23 -2 -34 -2c-39 0 -71 9 -97 27c-26 17 -39 42 -39 75c0 38 29 80 87 125z" />
    <glyph glyph-name="Theta" unicode="&#x398;" horiz-adv-x="838" 
d="M45 363c0 52 10 102 30 148c19 47 46 87 80 120c33 34 73 60 120 79c45 20 94 30 145 30c68 0 131 -17 188 -49s102 -77 135 -135c33 -57 50 -121 50 -190c0 -53 -10 -102 -30 -149s-47 -87 -80 -119c-34 -33 -74 -59 -120 -78c-47 -19 -95 -29 -146 -29s-99 10 -145 29
c-46 18 -86 44 -119 76c-33 33 -59 72 -79 119c-19 45 -29 95 -29 148zM164 365c0 -48 11 -93 34 -134c22 -41 52 -73 92 -97c39 -24 82 -36 129 -36c46 0 89 12 128 36s70 56 93 97c22 41 33 86 33 134c0 49 -11 94 -33 135c-23 41 -54 73 -93 97s-82 36 -128 36
c-47 0 -90 -12 -129 -36c-40 -24 -70 -56 -92 -97c-23 -41 -34 -86 -34 -135zM613 319h-388v104h388v-104z" />
    <glyph glyph-name="uni03A9" unicode="&#x3a9;" horiz-adv-x="815" 
d="M174 401c0 -57 17 -106 51 -147c35 -42 80 -68 138 -79v-175h-305v99h202v22c-61 26 -111 64 -149 115c-38 50 -57 108 -57 171c0 48 9 93 29 134c19 42 45 78 77 106c65 58 154 93 248 93c63 0 122 -14 176 -42c53 -28 96 -67 128 -118c33 -51 49 -108 49 -172
c0 -63 -19 -121 -57 -172c-39 -51 -89 -89 -149 -115v-22h201v-99h-304v175c57 11 103 37 138 79c34 41 51 90 51 147c3 130 -104 234 -234 232c-66 0 -121 -23 -166 -67s-67 -99 -67 -165z" />
    <glyph glyph-name="theta" unicode="&#x3b8;" horiz-adv-x="676" 
d="M337 -9c-108 0 -194 64 -242 160c-33 64 -50 142 -50 224c0 103 29 199 79 270c24 35 55 63 93 84c37 21 78 31 122 31c108 1 194 -64 241 -159c34 -64 51 -142 51 -224c0 -103 -29 -199 -78 -270c-25 -35 -56 -63 -93 -84c-38 -21 -79 -32 -123 -32zM159 427h358
c-5 63 -23 118 -52 162c-30 44 -75 71 -128 71c-110 0 -167 -110 -178 -233zM518 330h-359c5 -64 22 -120 51 -165s75 -73 129 -73s100 28 129 73s46 102 50 165z" />
    <glyph glyph-name="pi" unicode="&#x3c0;" horiz-adv-x="661" 
d="M506 398l1 -238c0 -17 2 -28 9 -42c8 -14 26 -22 52 -22c10 0 25 1 47 4v-94c-25 -7 -52 -11 -80 -11c-104 0 -140 70 -139 145v258h-158v-398h-111v398h-107v99h595v-99h-109z" />
    <glyph glyph-name="uni0401" unicode="&#x401;" horiz-adv-x="617" 
d="M221 790c-20 0 -36 7 -49 21c-14 14 -21 30 -21 49c0 20 7 36 20 50c14 14 30 20 50 20c19 0 35 -6 49 -20s20 -30 20 -50c0 -19 -6 -35 -20 -49s-30 -21 -49 -21zM486 811c-14 -14 -30 -21 -50 -21c-19 0 -36 7 -49 21c-13 13 -20 30 -20 49c0 20 7 36 20 50
s30 20 49 20c20 0 36 -6 50 -20s20 -30 20 -50c0 -19 -6 -35 -20 -49zM93 729h467v-104h-353v-202h321v-104h-321v-215h356v-104h-470v729z" />
    <glyph glyph-name="uni0402" unicode="&#x402;" horiz-adv-x="784" 
d="M513 -11c-30 0 -58 4 -84 11v110c18 -6 37 -9 58 -9c81 0 151 36 151 134c0 82 -56 129 -151 129c-73 0 -139 -27 -185 -69v-295h-115v624h-167v105h579v-105h-297v-216c66 46 136 68 211 68c73 0 132 -21 177 -65c44 -43 66 -101 66 -175c0 -79 -22 -140 -66 -183
s-103 -64 -177 -64z" />
    <glyph glyph-name="uni0403" unicode="&#x403;" horiz-adv-x="550" 
d="M344 955h136l-135 -160h-96zM93 0v729h439v-106h-325v-623h-114z" />
    <glyph glyph-name="uni0404" unicode="&#x404;" horiz-adv-x="789" 
d="M411 -9c-110 -1 -220 50 -290 139c-47 58 -76 141 -76 232c0 54 10 104 30 152c20 47 47 87 81 120c34 32 74 58 119 77s92 29 141 29c79 0 151 -23 200 -55c25 -17 47 -35 66 -57c39 -42 60 -85 71 -127l-111 -37c-7 24 -20 64 -56 102c-34 35 -91 68 -171 67
c-59 0 -111 -19 -158 -58c-47 -38 -76 -90 -88 -153h320v-102h-322c7 -44 23 -83 47 -117s54 -61 89 -78c35 -18 72 -27 111 -27c58 0 110 19 142 45c16 12 31 27 44 44c25 33 37 59 44 84l111 -39c-10 -38 -30 -79 -70 -123c-20 -22 -42 -42 -67 -59
c-50 -34 -125 -59 -207 -59z" />
    <glyph glyph-name="uni0405" unicode="&#x405;" horiz-adv-x="606" 
d="M309 -8c-82 0 -152 27 -195 68c-44 41 -70 92 -75 145l111 30c8 -43 26 -77 54 -102s64 -38 107 -38c37 0 68 10 94 29c25 19 38 43 38 73c0 57 -43 93 -108 107l-90 18c-58 12 -103 36 -135 72c-33 36 -49 78 -49 126c-3 118 112 222 240 220c99 -1 165 -36 202 -83
c27 -32 40 -63 47 -97l-107 -33c-7 28 -23 54 -48 76s-55 33 -91 33c-35 0 -65 -10 -89 -31c-25 -21 -37 -45 -37 -74c0 -22 8 -42 25 -61c17 -18 39 -30 67 -36l92 -18c129 -26 199 -102 199 -211c0 -54 -24 -106 -65 -146c-42 -40 -109 -67 -187 -67z" />
    <glyph glyph-name="uni0406" unicode="&#x406;" horiz-adv-x="300" 
d="M207 729v-729h-114v729h114z" />
    <glyph glyph-name="uni0407" unicode="&#x407;" horiz-adv-x="300" 
d="M48 790c-19 0 -36 7 -49 21c-14 14 -20 30 -20 49c0 20 6 36 20 50c13 14 30 20 49 20c20 0 36 -6 50 -20c13 -14 20 -30 20 -50c0 -19 -7 -35 -20 -49c-14 -14 -31 -21 -50 -21zM250 790c-19 0 -35 7 -48 21c-14 14 -21 30 -21 49c0 20 7 36 20 50c14 14 30 20 49 20
c20 0 36 -6 50 -20s20 -30 20 -50c0 -19 -6 -35 -20 -49s-30 -21 -50 -21zM207 729v-729h-114v729h114z" />
    <glyph glyph-name="uni0408" unicode="&#x408;" horiz-adv-x="587" 
d="M271 -8c-72 0 -130 20 -173 62c-43 41 -65 96 -65 166v77h112v-71c0 -40 12 -71 36 -93c24 -23 52 -34 84 -34c35 0 64 11 87 34s34 52 34 87v509h115v-509c0 -65 -21 -120 -65 -163c-43 -43 -98 -65 -165 -65z" />
    <glyph glyph-name="uni0409" unicode="&#x409;" horiz-adv-x="1139" 
d="M308 625l-38 -345c-1 -12 -3 -22 -4 -30s-3 -20 -6 -36s-6 -30 -10 -42c-7 -23 -23 -62 -38 -84c-16 -23 -41 -51 -70 -66s-68 -26 -113 -25l-8 1v103c39 2 66 15 87 43c14 20 22 31 30 57c4 14 7 24 9 31s3 17 6 30c2 13 3 22 4 26c0 4 1 11 2 21l46 420h475v-284h170
c126 0 260 -57 260 -218c0 -62 -21 -117 -63 -159c-41 -42 -111 -68 -198 -68h-284v625h-257zM680 104h165c58 0 100 15 121 40c22 25 30 51 30 84s-12 61 -36 82c-25 22 -64 33 -116 33h-164v-239z" />
    <glyph glyph-name="uni040A" unicode="&#x40a;" horiz-adv-x="1141" 
d="M682 435h175c124 0 255 -52 255 -213c0 -62 -20 -116 -61 -157c-41 -40 -111 -65 -198 -65h-286v332h-361v-332h-113v729h113v-294h361v294h115v-294zM682 105h170c98 0 147 40 147 119c0 71 -52 110 -149 110h-168v-229z" />
    <glyph glyph-name="uni040B" unicode="&#x40b;" horiz-adv-x="803" 
d="M642 0v209c0 97 -51 152 -151 152c-74 0 -137 -24 -189 -71v-290h-114v624h-168v105h579v-105h-297v-219c66 45 136 68 211 68c73 0 132 -20 177 -59c44 -39 66 -95 66 -166v-248h-114z" />
    <glyph glyph-name="uni040C" unicode="&#x40c;" horiz-adv-x="662" 
d="M393 955h135l-135 -160h-96zM207 0h-114v729h114v-315l291 315h152l-326 -349l345 -380h-155l-307 344v-344z" />
    <glyph glyph-name="uni040E" unicode="&#x40e;" horiz-adv-x="659" 
d="M338 792c-43 0 -81 13 -113 38c-31 26 -50 64 -56 115l75 14c17 -54 41 -85 94 -85c52 0 77 31 94 85l74 -14c-9 -69 -45 -117 -91 -138c-23 -10 -49 -15 -77 -15zM666 729l-260 -527c-23 -47 -42 -81 -55 -100c-35 -50 -78 -81 -131 -94c-21 -5 -45 -8 -70 -8h-85v111
h75c66 0 117 37 147 100l-283 518h127l218 -406l194 406h123z" />
    <glyph glyph-name="uni040F" unicode="&#x40f;" horiz-adv-x="770" 
d="M442 0v-154h-114v154h-235v729h114v-624h356v624h114v-729h-235z" />
    <glyph glyph-name="uni0410" unicode="&#x410;" horiz-adv-x="729" 
d="M185 171l-68 -171h-117l297 729h135l295 -729h-119l-67 171h-356zM225 273h277l-139 346z" />
    <glyph glyph-name="uni0411" unicode="&#x411;" horiz-adv-x="676" 
d="M207 436h171c77 1 154 -21 206 -69c32 -32 54 -83 54 -146c0 -62 -20 -115 -62 -156c-41 -40 -111 -65 -202 -65h-281v729h500v-104h-386v-189zM207 105h156c112 0 162 38 162 119c0 71 -52 111 -152 111h-166v-230z" />
    <glyph glyph-name="uni0412" unicode="&#x412;" horiz-adv-x="684" 
d="M93 729h279c70 0 127 -17 170 -51c43 -35 64 -82 64 -141c0 -22 -5 -47 -20 -78c-14 -31 -45 -61 -85 -79c53 -17 91 -47 111 -80c19 -34 27 -65 27 -96c0 -61 -22 -110 -66 -148c-44 -37 -108 -56 -193 -56h-287v729zM206 420h144c47 0 83 10 106 30c24 20 36 45 36 75
c0 60 -43 101 -136 101h-150v-206zM207 103h175c93 0 143 44 143 110c0 64 -50 107 -150 107h-168v-217z" />
    <glyph glyph-name="uni0413" unicode="&#x413;" horiz-adv-x="550" 
d="M93 0v729h439v-106h-325v-623h-114z" />
    <glyph glyph-name="uni0414" unicode="&#x414;" horiz-adv-x="810" 
d="M690 729v-626h77v-257h-115v154h-524v-154h-114v257h3c53 -1 92 44 116 95c16 33 27 74 33 104c3 15 5 28 7 42l46 385h471zM575 626h-254l-35 -289c-5 -44 -16 -88 -32 -131s-38 -77 -66 -102h387v522z" />
    <glyph glyph-name="uni0415" unicode="&#x415;" horiz-adv-x="617" 
d="M93 729h467v-104h-353v-202h321v-104h-321v-215h356v-104h-470v729z" />
    <glyph glyph-name="uni0416" unicode="&#x416;" horiz-adv-x="983" 
d="M549 387h4l277 342h143l-293 -357l302 -372h-146l-282 354h-5v-354h-115v354h-5l-283 -354h-145l301 372l-292 357h143l277 -342h4v342h115v-342z" />
    <glyph glyph-name="uni0417" unicode="&#x417;" horiz-adv-x="630" 
d="M306 -9c-76 0 -146 26 -192 67c-46 40 -76 95 -83 154l111 20c3 -38 20 -71 51 -97c30 -25 68 -39 115 -39c37 0 72 12 102 33s50 56 50 100c0 37 -15 67 -43 88c-29 22 -63 33 -103 33c-33 0 -59 -5 -77 -15l-54 85l225 206h-353v103h506v-97l-206 -188
c68 -4 122 -26 163 -66c42 -40 62 -89 62 -147c0 -76 -34 -140 -89 -182c-50 -39 -112 -58 -185 -58z" />
    <glyph glyph-name="uni0418" unicode="&#x418;" horiz-adv-x="796" 
d="M703 729v-729h-113v563l-365 -563h-132v729h113v-564l365 564h132z" />
    <glyph glyph-name="uni0419" unicode="&#x419;" horiz-adv-x="796" 
d="M399 792c-44 0 -81 13 -113 38c-32 26 -51 64 -57 115l75 14c18 -54 41 -85 95 -85c52 0 76 31 94 85l74 -14c-5 -35 -15 -64 -32 -87c-33 -47 -80 -66 -136 -66zM225 0h-132v729h113v-564l365 564h132v-729h-113v563z" />
    <glyph glyph-name="uni041A" unicode="&#x41a;" horiz-adv-x="662" 
d="M207 0h-114v729h114v-315l291 315h152l-326 -349l345 -380h-155l-307 344v-344z" />
    <glyph glyph-name="uni041B" unicode="&#x41b;" horiz-adv-x="778" 
d="M308 625l-38 -345c-7 -62 -17 -110 -41 -161c-12 -25 -26 -47 -43 -64c-33 -35 -86 -58 -152 -58c-6 0 -10 0 -13 1v103c29 0 55 11 73 27c17 15 31 41 41 64c9 23 16 57 20 79c1 12 3 24 4 38l46 420h480v-729h-114v625h-263z" />
    <glyph glyph-name="uni041C" unicode="&#x41c;" horiz-adv-x="969" 
d="M876 0h-114v546h-2l-228 -546h-97l-227 544h-3v-544h-112v729h155l236 -564h1l232 564h159v-729z" />
    <glyph glyph-name="uni041D" unicode="&#x41d;" horiz-adv-x="775" 
d="M207 315v-315h-114v729h114v-306h361v306h115v-729h-115v315h-361z" />
    <glyph glyph-name="uni041E" unicode="&#x41e;" horiz-adv-x="838" 
d="M45 363c0 52 10 102 30 148c19 47 46 87 80 120c33 34 73 60 120 79c45 20 94 30 145 30c68 0 131 -17 188 -49s102 -77 135 -135c33 -57 50 -121 50 -190c0 -53 -10 -102 -30 -149s-47 -87 -80 -119c-34 -33 -74 -59 -120 -78c-47 -19 -95 -29 -146 -29s-99 10 -145 29
c-46 18 -86 44 -119 76c-33 33 -59 72 -79 119c-19 45 -29 95 -29 148zM165 365c-3 -144 113 -270 254 -267c70 0 135 31 181 78c45 48 73 117 73 189c0 49 -11 94 -33 135c-23 41 -54 73 -93 97s-82 36 -128 36c-141 3 -257 -122 -254 -268z" />
    <glyph glyph-name="uni041F" unicode="&#x41f;" horiz-adv-x="767" 
d="M207 625v-625h-114v729h582v-729h-115v625h-353z" />
    <glyph glyph-name="uni0420" unicode="&#x420;" horiz-adv-x="635" 
d="M606 502c0 -63 -24 -120 -68 -163s-115 -69 -201 -69h-130v-270h-114v729h258c109 0 180 -40 218 -98c26 -40 37 -82 37 -129zM490 500c0 55 -29 123 -149 123h-134v-248h134c53 0 94 16 116 41s33 53 33 84z" />
    <glyph glyph-name="uni0421" unicode="&#x421;" horiz-adv-x="785" 
d="M411 -9c-110 -1 -220 50 -290 139c-47 58 -76 141 -76 232c0 54 10 104 30 152c20 47 47 87 81 120c34 32 74 58 119 77s92 29 141 29c79 0 151 -23 201 -55c24 -17 46 -35 66 -57c38 -43 59 -85 70 -127l-113 -39c-5 23 -13 46 -36 79c-12 17 -26 32 -42 44
c-31 26 -85 47 -147 47c-65 0 -126 -27 -173 -72c-46 -45 -77 -115 -77 -194s30 -150 76 -195s108 -72 173 -72c57 0 109 20 141 45c16 13 31 27 44 44c25 33 36 59 43 84l113 -39c-13 -46 -43 -105 -100 -154c-39 -33 -84 -60 -145 -76c-32 -8 -65 -12 -99 -12z" />
    <glyph glyph-name="uni0422" unicode="&#x422;" horiz-adv-x="613" 
d="M249 0v623h-231v106h577v-106h-231v-623h-115z" />
    <glyph glyph-name="uni0423" unicode="&#x423;" horiz-adv-x="659" 
d="M666 729l-260 -527c-23 -47 -42 -81 -55 -100c-35 -50 -78 -81 -131 -94c-21 -5 -45 -8 -70 -8h-85v111h75c66 0 117 37 147 100l-283 518h127l218 -406l194 406h123z" />
    <glyph glyph-name="uni0424" unicode="&#x424;" horiz-adv-x="904" 
d="M509 752v-68c135 0 245 -48 308 -143c32 -48 48 -104 48 -169c2 -189 -149 -316 -356 -314v-81h-114v81c-207 -3 -358 126 -356 315c0 97 39 178 103 230s153 81 253 81v68h114zM157 371c0 -66 24 -127 80 -167c36 -26 91 -42 158 -42v418c-80 0 -144 -25 -181 -64
c-38 -39 -57 -90 -57 -145zM747 371c0 55 -19 106 -56 145s-102 64 -182 64v-418c102 0 170 35 204 88c24 36 34 76 34 121z" />
    <glyph glyph-name="uni0425" unicode="&#x425;" horiz-adv-x="682" 
d="M340 286l-205 -286h-133l271 375l-255 354h137l187 -266l187 266h135l-254 -353l269 -376h-136z" />
    <glyph glyph-name="uni0426" unicode="&#x426;" horiz-adv-x="797" 
d="M640 -154v154h-547v729h114v-624h356v624h114v-624h77v-259h-114z" />
    <glyph glyph-name="uni0427" unicode="&#x427;" horiz-adv-x="708" 
d="M501 0v298c-81 -42 -151 -63 -210 -63c-76 0 -136 21 -177 62s-62 98 -62 172v260h114v-228c0 -102 42 -157 149 -157c33 0 67 6 101 19c34 12 62 26 85 42v324h114v-729h-114z" />
    <glyph glyph-name="uni0428" unicode="&#x428;" horiz-adv-x="1133" 
d="M206 729v-625h303v625h115v-625h302v625h114v-729h-947v729h113z" />
    <glyph glyph-name="uni0429" unicode="&#x429;" horiz-adv-x="1161" 
d="M207 729v-624h303v624h114v-624h302v624h115v-624h77v-259h-114v154h-911v729h114z" />
    <glyph glyph-name="uni042A" unicode="&#x42a;" horiz-adv-x="755" 
d="M295 445h170c76 0 154 -21 205 -72c34 -33 55 -84 55 -146s-21 -117 -62 -159c-42 -42 -112 -68 -199 -68h-284v625h-164v104h279v-284zM295 104h166c58 0 99 15 121 40s30 51 30 84s-12 61 -37 82c-24 22 -63 33 -115 33h-165v-239z" />
    <glyph glyph-name="uni042B" unicode="&#x42b;" horiz-adv-x="938" 
d="M623 311c10 -25 15 -53 15 -84c0 -32 -6 -60 -16 -87c-11 -27 -27 -51 -47 -72c-42 -42 -112 -68 -199 -68h-283v729h114v-284h170c53 0 101 -9 147 -31c45 -22 79 -53 99 -103zM845 729v-729h-120v729h120zM524 228c0 60 -39 115 -152 115h-165v-239h166
c57 0 99 15 121 40c21 25 30 51 30 84z" />
    <glyph glyph-name="uni042C" unicode="&#x42c;" horiz-adv-x="667" 
d="M623 311c10 -25 15 -53 15 -84c0 -32 -6 -60 -16 -87c-11 -27 -27 -51 -47 -72c-42 -42 -112 -68 -199 -68h-283v729h114v-284h170c53 0 101 -9 147 -31c45 -22 79 -53 99 -103zM524 228c0 60 -39 115 -152 115h-165v-239h166c57 0 99 15 121 40c21 25 30 51 30 84z" />
    <glyph glyph-name="uni042D" unicode="&#x42d;" horiz-adv-x="789" 
d="M376 -9c-80 0 -155 25 -205 59c-25 17 -47 37 -67 59c-39 44 -60 85 -70 123l111 39c7 -25 19 -51 45 -84c14 -17 29 -31 45 -44c33 -26 86 -45 144 -45c60 0 113 20 159 61s74 94 83 161h-321v102h320c-8 42 -24 80 -48 112s-53 57 -87 74c-33 17 -69 25 -107 25
c-62 0 -117 -20 -149 -46c-16 -13 -30 -27 -43 -44c-24 -33 -33 -57 -39 -79l-111 37c14 60 64 134 142 184c51 32 123 55 201 55c101 0 193 -39 259 -104c32 -32 58 -71 77 -118s29 -97 29 -151c0 -58 -11 -111 -31 -159c-21 -49 -49 -88 -83 -119
c-69 -62 -160 -98 -254 -98z" />
    <glyph glyph-name="uni042E" unicode="&#x42e;" horiz-adv-x="1080" 
d="M207 729v-310h109c8 61 28 116 61 165s75 86 128 114c51 28 108 42 170 42c68 0 130 -17 185 -49c55 -33 97 -78 128 -135s47 -121 47 -191c0 -105 -40 -202 -104 -267c-64 -66 -157 -107 -259 -107c-62 0 -119 14 -171 42c-51 27 -93 65 -126 114
c-32 48 -52 104 -59 166h-109v-313h-114v729h114zM434 365c0 -70 24 -137 66 -186c41 -49 104 -81 173 -81c47 0 89 12 126 36c36 24 65 56 85 97c20 40 30 85 30 134c0 73 -26 141 -68 189c-41 48 -104 79 -173 79c-46 0 -88 -13 -124 -37c-37 -25 -66 -57 -85 -98
c-20 -40 -30 -85 -30 -133z" />
    <glyph glyph-name="uni042F" unicode="&#x42f;" horiz-adv-x="670" 
d="M37 0l162 300c-95 33 -144 110 -144 206c0 67 24 133 81 177c38 28 96 46 167 46h274v-729h-115v277h-152l-147 -277h-126zM462 623h-147c-95 0 -144 -41 -144 -123c0 -30 10 -56 31 -80c21 -25 61 -40 113 -40h147v243z" />
    <glyph glyph-name="uni0430" unicode="&#x430;" horiz-adv-x="535" 
d="M211 -9c-48 0 -89 14 -120 42c-31 27 -47 62 -47 105v5c1 69 42 111 96 132c38 15 74 20 110 20h62c31 0 46 14 46 42c0 21 -8 39 -25 54c-17 14 -41 22 -73 22c-59 0 -100 -33 -108 -83l-101 23c3 23 14 48 34 75c20 26 45 46 78 60c28 13 62 19 101 19
c93 0 155 -34 186 -102c11 -24 17 -53 17 -88v-237c0 -33 1 -60 3 -80h-108c-3 14 -5 36 -5 68c-17 -28 -38 -47 -64 -59c-27 -12 -54 -18 -82 -18zM357 217h-107c-24 0 -45 -6 -65 -18c-20 -13 -30 -30 -30 -51c0 -41 32 -68 79 -68c37 0 68 11 90 33s33 51 33 88v16z" />
    <glyph glyph-name="uni0431" unicode="&#x431;" horiz-adv-x="617" 
d="M545 656l-175 -38c-70 -15 -121 -38 -152 -63c-16 -13 -28 -28 -38 -45c-20 -35 -25 -65 -29 -111l4 -1c15 27 40 50 75 72c34 20 71 31 110 31c62 0 121 -26 165 -70c43 -43 71 -107 71 -178c0 -78 -24 -141 -72 -189c-49 -48 -111 -72 -186 -72s-138 24 -186 72
c-47 47 -75 126 -75 226c0 47 1 75 6 121c2 22 6 41 10 58c8 34 23 76 44 105c20 30 50 62 88 84c37 22 87 43 146 55l175 37zM319 406c-40 0 -74 -14 -104 -43c-29 -30 -44 -67 -44 -112c0 -47 14 -85 43 -115c28 -29 63 -44 105 -44c41 0 76 15 104 44c27 30 41 68 41 115
c0 101 -73 155 -145 155z" />
    <glyph glyph-name="uni0432" unicode="&#x432;" horiz-adv-x="567" 
d="M74 497h264c48 0 88 -11 119 -32c31 -22 46 -53 46 -92c0 -52 -27 -90 -80 -113c28 -5 52 -19 72 -42c19 -23 29 -51 29 -83c0 -47 -22 -85 -57 -105c-36 -20 -77 -30 -125 -30h-268v497zM184 294h130c51 0 75 27 75 59s-27 55 -73 55h-132v-114zM184 91h142
c52 0 84 22 84 64c0 38 -37 58 -88 58h-138v-122z" />
    <glyph glyph-name="uni0433" unicode="&#x433;" horiz-adv-x="442" 
d="M74 0v497h350v-100h-239v-397h-111z" />
    <glyph glyph-name="uni0434" unicode="&#x434;" horiz-adv-x="658" 
d="M506 0h-372v-154h-109v252h2c77 0 108 103 115 165l28 234h382v-397h63v-254h-109v154zM269 397l-19 -144c-3 -30 -11 -59 -24 -87c-12 -28 -29 -50 -49 -66h263v297h-171z" />
    <glyph glyph-name="uni0435" unicode="&#x435;" horiz-adv-x="573" 
d="M532 216h-378c2 -74 74 -131 146 -130c64 0 113 27 132 84l93 -29c-18 -61 -68 -110 -128 -133c-31 -11 -62 -17 -96 -17c-143 -3 -263 114 -260 258c0 47 11 90 32 129c22 40 51 71 90 94c38 23 81 35 128 35c76 0 135 -23 178 -71c43 -47 65 -109 65 -186
c0 -12 -1 -24 -2 -34zM292 412c-34 0 -64 -10 -88 -31c-24 -20 -39 -47 -44 -81h261c-2 34 -15 61 -39 82c-25 20 -55 30 -90 30z" />
    <glyph glyph-name="uni0436" unicode="&#x436;" horiz-adv-x="811" 
d="M460 268h6l188 229h141l-205 -242l211 -255h-142l-194 241h-5v-241h-110v241h-5l-193 -241h-142l211 255l-205 242h141l188 -229h5v229h110v-229z" />
    <glyph glyph-name="uni0437" unicode="&#x437;" horiz-adv-x="506" 
d="M461 160c0 -59 -31 -106 -81 -136c-37 -22 -81 -33 -133 -33c-53 0 -99 14 -139 39c-41 26 -66 64 -77 111l99 30c8 -35 40 -85 117 -84c33 0 64 8 87 31c11 12 16 26 16 42c0 21 -9 38 -27 50c-19 11 -41 17 -66 17c-7 0 -17 -1 -30 -3c-12 -3 -23 -6 -32 -10l-46 72
l152 116h-250v95h396v-86l-142 -109c46 -2 84 -16 113 -43s43 -60 43 -99z" />
    <glyph glyph-name="uni0438" unicode="&#x438;" horiz-adv-x="600" 
d="M417 331l-235 -331h-108v497h109v-332l235 332h107v-497h-108v331z" />
    <glyph glyph-name="uni0439" unicode="&#x439;" horiz-adv-x="600" 
d="M300 579c-43 0 -80 12 -112 38s-51 64 -57 114l75 15c18 -55 41 -85 94 -85s77 30 95 84l74 -14c-9 -68 -46 -116 -92 -137c-23 -10 -48 -15 -77 -15zM417 331l-235 -331h-108v497h109v-332l235 332h107v-497h-108v331z" />
    <glyph glyph-name="uni043A" unicode="&#x43a;" horiz-adv-x="546" 
d="M185 0h-111v497h111v-209h5l197 209h147l-227 -238l243 -259h-150l-210 230h-5v-230z" />
    <glyph glyph-name="uni043B" unicode="&#x43b;" horiz-adv-x="609" 
d="M255 397l-25 -202c-5 -43 -12 -75 -31 -111c-10 -19 -22 -34 -36 -46c-28 -25 -74 -43 -134 -43h-3v100c34 0 59 14 72 38c14 23 20 46 24 77l34 287h379v-497h-111v397h-169z" />
    <glyph glyph-name="uni043C" unicode="&#x43c;" horiz-adv-x="754" 
d="M182 0h-108v497h157l147 -357l144 357h158v-497h-109v374l-152 -374h-82l-155 371v-371z" />
    <glyph glyph-name="uni043D" unicode="&#x43d;" horiz-adv-x="595" 
d="M185 203v-203h-111v497h111v-197h225v197h111v-497h-111v203h-225z" />
    <glyph glyph-name="uni043E" unicode="&#x43e;" horiz-adv-x="605" 
d="M40 249c0 48 12 92 36 132c24 39 55 71 96 93c40 22 84 33 132 33c46 0 90 -11 130 -33s72 -53 96 -92c23 -40 35 -83 35 -131c3 -144 -120 -263 -262 -260c-48 0 -91 12 -131 34c-41 22 -72 54 -96 93c-24 40 -36 83 -36 131zM154 251c0 -43 14 -81 42 -112
s64 -47 108 -47s79 15 107 46c27 30 41 67 41 111s-14 82 -42 112c-27 31 -63 46 -107 46s-80 -15 -108 -45s-41 -67 -41 -111z" />
    <glyph glyph-name="uni043F" unicode="&#x43f;" horiz-adv-x="592" 
d="M185 397v-397h-111v497h444v-497h-111v397h-222z" />
    <glyph glyph-name="uni0440" unicode="&#x440;" horiz-adv-x="634" 
d="M593 250c0 -45 -10 -87 -30 -126c-21 -39 -50 -71 -88 -95c-39 -24 -81 -37 -129 -37c-30 0 -66 8 -110 33c-22 13 -39 29 -51 48v-318h-111v742h108v-77c20 32 52 57 83 69s60 18 84 18c74 0 139 -33 180 -82c40 -49 64 -111 64 -175zM183 249c0 -44 14 -80 42 -111
c28 -30 63 -45 107 -45s80 15 108 45c28 31 41 67 41 111s-13 81 -41 112c-28 30 -64 45 -108 45s-79 -15 -107 -45c-28 -31 -42 -68 -42 -112z" />
    <glyph glyph-name="uni0441" unicode="&#x441;" horiz-adv-x="567" 
d="M300 -9c-144 -2 -262 115 -259 259c0 46 11 89 34 129c22 39 54 71 94 94s84 34 132 34c59 0 109 -15 151 -47c42 -31 68 -69 79 -113l-100 -33c-6 21 -18 41 -38 61c-20 19 -53 32 -92 32c-41 0 -76 -15 -104 -43c-28 -29 -42 -67 -42 -113s14 -84 41 -114
c28 -30 64 -45 106 -45c63 0 107 32 131 95l101 -33c-11 -40 -36 -77 -74 -109c-38 -33 -95 -54 -160 -54z" />
    <glyph glyph-name="uni0442" unicode="&#x442;" horiz-adv-x="474" 
d="M181 0v397h-162v100h436v-100h-163v-397h-111z" />
    <glyph glyph-name="uni0443" unicode="&#x443;" horiz-adv-x="570" 
d="M236 56l-221 441h126l155 -326l143 326h120l-341 -742h-118z" />
    <glyph glyph-name="uni0444" unicode="&#x444;" horiz-adv-x="825" 
d="M357 -227v265c-32 -28 -69 -43 -112 -43c-140 0 -201 120 -201 255c0 68 17 130 50 177c32 47 86 77 151 77c23 0 44 -5 65 -14c21 -10 37 -20 47 -32v271h111v-271c11 12 27 22 47 32c21 9 43 14 65 14c65 0 119 -29 152 -77c32 -47 49 -109 49 -179
c0 -133 -61 -253 -200 -253c-43 0 -81 15 -113 43v-265h-111zM277 407c-39 0 -69 -15 -90 -44c-20 -29 -31 -68 -31 -116c0 -100 41 -157 121 -157c29 0 56 11 80 33v250c-25 22 -52 34 -80 34zM550 407c-30 0 -57 -12 -82 -34v-250c25 -22 52 -33 82 -33
c80 0 119 57 119 159c0 46 -10 85 -30 114s-50 44 -89 44z" />
    <glyph glyph-name="uni0445" unicode="&#x445;" horiz-adv-x="531" 
d="M265 173l-125 -173h-127l189 251l-182 246h127l119 -165l120 165h125l-182 -244l188 -253h-127z" />
    <glyph glyph-name="uni0446" unicode="&#x446;" horiz-adv-x="624" 
d="M472 -153v153h-398v497h111v-397h221v397h112v-397h63v-253h-109z" />
    <glyph glyph-name="uni0447" unicode="&#x447;" horiz-adv-x="550" 
d="M364 0v180c-52 -25 -100 -38 -143 -38c-53 0 -96 13 -129 41c-33 27 -49 68 -49 122v192h112v-174c0 -51 33 -82 84 -82c42 0 84 12 125 36v220h111v-497h-111z" />
    <glyph glyph-name="uni0448" unicode="&#x448;" horiz-adv-x="863" 
d="M185 497v-397h191v397h110v-397h192v397h111v-497h-715v497h111z" />
    <glyph glyph-name="uni0449" unicode="&#x449;" horiz-adv-x="895" 
d="M185 497v-397h191v397h110v-397h192v397h111v-397h63v-253h-105v153h-673v497h111z" />
    <glyph glyph-name="uni044A" unicode="&#x44a;" horiz-adv-x="636" 
d="M609 171c0 -51 -17 -92 -51 -124c-33 -31 -82 -47 -144 -47h-250v398h-144v99h255v-164h130c79 0 140 -21 176 -70c19 -25 28 -56 28 -92zM497 172c0 49 -40 75 -100 75h-122v-154h124c60 0 98 25 98 79z" />
    <glyph glyph-name="uni044B" unicode="&#x44b;" horiz-adv-x="806" 
d="M519 171c0 -51 -17 -92 -51 -124c-33 -31 -82 -47 -144 -47h-250v497h111v-164h130c79 0 140 -21 176 -70c19 -25 28 -56 28 -92zM407 172c0 49 -40 75 -100 75h-122v-154h124c60 0 98 25 98 79zM732 497v-497h-111v497h111z" />
    <glyph glyph-name="uni044C" unicode="&#x44c;" horiz-adv-x="546" 
d="M519 171c0 -51 -17 -92 -51 -124c-33 -31 -82 -47 -144 -47h-250v497h111v-164h130c79 0 140 -21 176 -70c19 -25 28 -56 28 -92zM407 172c0 49 -40 75 -100 75h-122v-154h124c60 0 98 25 98 79z" />
    <glyph glyph-name="uni044D" unicode="&#x44d;" horiz-adv-x="568" 
d="M217 300h192c-9 33 -26 60 -51 80c-25 19 -55 29 -88 29c-38 0 -68 -10 -90 -29c-24 -19 -39 -40 -46 -64l-98 32c11 43 39 81 83 112c44 32 96 47 154 47c49 0 94 -11 132 -34c39 -23 69 -53 90 -92c21 -38 31 -81 31 -128c0 -76 -24 -139 -72 -188
c-49 -49 -111 -74 -186 -74c-62 0 -119 22 -158 53c-38 31 -65 70 -76 109l99 32c8 -23 20 -41 41 -61c21 -21 55 -34 95 -34c36 0 67 12 93 35c26 22 43 52 49 89h-194v86z" />
    <glyph glyph-name="uni044E" unicode="&#x44e;" horiz-adv-x="811" 
d="M184 296h85c10 62 38 112 84 152c46 39 101 59 165 59c72 0 133 -24 181 -73c47 -49 71 -111 71 -185c3 -144 -111 -260 -254 -258c-64 0 -118 20 -163 59c-45 40 -73 90 -83 153h-86v-203h-110v497h110v-201zM378 249c0 -44 13 -82 39 -112c25 -30 59 -45 101 -45
c43 0 77 15 102 45s37 67 37 112s-13 82 -38 113c-26 30 -60 45 -103 45s-77 -15 -101 -45c-25 -29 -37 -67 -37 -113z" />
    <glyph glyph-name="uni044F" unicode="&#x44f;" horiz-adv-x="571" 
d="M284 164l-121 -164h-132l139 183c-82 27 -119 82 -119 152c0 47 17 85 50 116c34 30 82 46 147 46h249v-497h-111v164h-102zM386 404h-126c-22 0 -41 -4 -62 -14c-22 -10 -35 -32 -35 -61c0 -21 8 -39 24 -54s41 -22 74 -22h125v151z" />
    <glyph glyph-name="uni0451" unicode="&#x451;" horiz-adv-x="573" 
d="M186 578c-19 0 -36 7 -49 20c-13 14 -20 30 -20 50c0 19 7 35 20 49c13 13 29 20 49 20c19 0 36 -7 49 -20c14 -14 21 -30 21 -49c0 -20 -7 -36 -21 -50c-13 -13 -30 -20 -49 -20zM393 578c-20 0 -36 7 -49 20c-14 14 -21 30 -21 50c0 19 7 35 20 49c13 13 30 20 50 20
c19 0 36 -7 49 -20c13 -14 20 -30 20 -49c0 -20 -7 -36 -20 -50c-14 -13 -30 -20 -49 -20zM534 250c0 -12 -1 -24 -2 -34h-378c2 -74 74 -131 146 -130c64 0 113 27 132 84l93 -29c-18 -61 -68 -110 -128 -133c-31 -11 -62 -17 -96 -17c-143 -3 -263 114 -260 258
c0 47 11 90 32 129c22 40 51 71 90 94c38 23 81 35 128 35c76 0 135 -23 178 -71c43 -47 65 -109 65 -186zM160 300h261c-2 34 -15 61 -39 82c-25 20 -55 30 -90 30c-34 0 -64 -10 -88 -31c-24 -20 -39 -47 -44 -81z" />
    <glyph glyph-name="uni0452" unicode="&#x452;" horiz-adv-x="576" 
d="M305 -149c32 0 57 11 77 32c19 22 29 51 29 88v307c0 75 -37 124 -110 124c-35 0 -63 -12 -84 -35c-22 -23 -32 -54 -32 -92v-275h-111v585h-65v81h65v92h111v-92h155v-81h-155v-152c21 27 46 46 73 57c27 12 52 17 77 17c60 0 107 -18 139 -56c32 -37 48 -86 48 -145
v-366c0 -57 -17 -102 -49 -135c-32 -34 -76 -50 -130 -50c-28 0 -54 3 -77 10v93c11 -5 24 -7 39 -7z" />
    <glyph glyph-name="uni0453" unicode="&#x453;" horiz-adv-x="442" 
d="M284 742h135l-135 -160h-96zM74 0v497h350v-100h-239v-397h-111z" />
    <glyph glyph-name="uni0454" unicode="&#x454;" horiz-adv-x="567" 
d="M350 214h-195c8 -37 25 -67 52 -89c27 -23 58 -35 94 -35c64 0 109 32 134 95l99 -32c-23 -75 -99 -162 -234 -162c-144 -2 -262 115 -259 259c0 46 11 89 34 129c22 39 54 71 94 94s84 34 132 34c59 0 109 -15 151 -46c41 -31 68 -69 79 -113l-98 -32
c-7 22 -19 41 -39 61c-20 19 -54 32 -93 32c-34 0 -64 -10 -90 -29c-26 -20 -43 -47 -52 -80h191v-86z" />
    <glyph glyph-name="uni0455" unicode="&#x455;" horiz-adv-x="461" 
d="M236 -9c-80 1 -134 32 -163 70c-21 27 -31 51 -33 75l95 25c10 -46 45 -79 100 -79c45 0 70 23 70 58c0 27 -17 45 -59 55l-63 15c-88 20 -132 75 -132 142c0 43 17 79 51 110c33 30 75 46 125 46c77 -1 126 -30 153 -66c19 -25 27 -46 30 -67l-93 -26
c-9 38 -37 69 -90 69c-18 0 -34 -5 -48 -16c-14 -10 -20 -24 -20 -40c0 -28 20 -46 50 -52l68 -14c44 -10 79 -28 104 -55c24 -27 37 -59 37 -95c0 -76 -58 -155 -182 -155z" />
    <glyph glyph-name="uni0456" unicode="&#x456;" horiz-adv-x="259" 
d="M78 607c-14 14 -22 31 -22 51c0 21 8 38 22 52c14 15 31 22 51 22c21 0 38 -7 52 -22c14 -14 21 -31 21 -52c0 -20 -7 -37 -21 -51s-31 -22 -52 -22c-20 0 -37 8 -51 22zM74 0v497h111v-497h-111z" />
    <glyph glyph-name="uni0457" unicode="&#x457;" horiz-adv-x="259" 
d="M24 578c-19 0 -36 7 -49 20c-14 14 -20 30 -20 50c0 19 6 35 20 49c13 13 29 20 49 20c19 0 36 -7 49 -20c14 -14 21 -30 21 -49c0 -20 -7 -36 -21 -50c-13 -13 -30 -20 -49 -20zM230 578c-19 0 -35 7 -49 20c-13 14 -20 30 -20 50c0 19 7 35 20 49c13 13 30 20 49 20
c20 0 36 -7 50 -20c13 -14 20 -30 20 -49c0 -20 -7 -36 -20 -50c-14 -13 -30 -20 -50 -20zM185 497v-497h-111v497h111z" />
    <glyph glyph-name="uni0458" unicode="&#x458;" horiz-adv-x="266" 
d="M64 658c0 21 7 38 21 52c15 15 32 22 51 22c21 0 38 -7 53 -22c14 -14 21 -31 21 -52c0 -20 -7 -37 -21 -51c-15 -14 -32 -22 -53 -22c-20 0 -37 8 -51 22s-21 31 -21 51zM81 -70v567h111v-573c0 -119 -48 -170 -147 -170c-24 0 -48 3 -71 9v94c16 -2 28 -3 36 -3
c47 0 71 26 71 76z" />
    <glyph glyph-name="uni0459" unicode="&#x459;" horiz-adv-x="896" 
d="M868 171c0 -51 -17 -92 -50 -124c-34 -31 -82 -47 -145 -47h-250v397h-168l-25 -202c-5 -42 -12 -74 -32 -110c-9 -19 -21 -35 -35 -47c-28 -25 -75 -43 -134 -43h-3v100c33 0 58 14 72 38c13 23 20 46 23 77l35 287h379v-164h130c79 0 140 -21 176 -70
c18 -25 27 -56 27 -92zM757 172c0 49 -40 75 -100 75h-122v-154h124c60 0 98 25 98 79z" />
    <glyph glyph-name="uni045A" unicode="&#x45a;" horiz-adv-x="882" 
d="M410 238h-225v-238h-111v497h111v-172h225v172h110v-172h131c115 0 203 -45 203 -158c0 -51 -17 -92 -50 -122c-34 -30 -82 -45 -145 -45h-249v238zM520 93h125c65 0 98 25 98 76c0 49 -39 70 -100 70h-123v-146z" />
    <glyph glyph-name="uni045B" unicode="&#x45b;" 
d="M74 758h111v-92h155v-81h-155v-151c15 19 32 34 51 46c20 11 37 19 53 22c15 3 30 5 45 5c61 0 107 -18 139 -56c32 -37 47 -86 47 -145v-306h-110v278c0 75 -37 124 -110 124c-35 0 -63 -11 -84 -34s-31 -53 -31 -91v-277h-111v585h-65v81h65v92z" />
    <glyph glyph-name="uni045C" unicode="&#x45c;" horiz-adv-x="546" 
d="M323 742h136l-135 -160h-96zM534 497l-227 -238l243 -259h-150l-210 230h-5v-230h-111v497h111v-209h5l197 209h147z" />
    <glyph glyph-name="uni045E" unicode="&#x45e;" horiz-adv-x="570" 
d="M292 579c-43 0 -81 12 -112 38c-32 26 -51 64 -57 114l75 15c17 -55 41 -85 94 -85s77 30 94 84l74 -14c-9 -68 -45 -116 -91 -137c-23 -10 -49 -15 -77 -15zM236 56l-221 441h126l155 -326l143 326h120l-341 -742h-118z" />
    <glyph glyph-name="uni045F" unicode="&#x45f;" horiz-adv-x="592" 
d="M243 -153v153h-169v497h111v-397h221v397h112v-497h-167v-153h-108z" />
    <glyph glyph-name="uni0490" unicode="&#x490;" horiz-adv-x="550" 
d="M207 0h-114v729h325v151h114v-257h-325v-623z" />
    <glyph glyph-name="uni0491" unicode="&#x491;" horiz-adv-x="442" 
d="M74 0v497h246v148h104v-248h-239v-397h-111z" />
    <glyph glyph-name="uni0496" unicode="&#x496;" horiz-adv-x="1002" 
d="M982 -154h-114v154h-32l-282 354h-5v-354h-115v354h-5l-283 -354h-145l301 372l-292 357h143l277 -342h4v342h115v-342h4l277 342h143l-293 -357l217 -267h85v-259z" />
    <glyph glyph-name="uni0497" unicode="&#x497;" horiz-adv-x="830" 
d="M801 -153h-105v153h-37l-194 241h-5v-241h-110v241h-5l-193 -241h-142l211 255l-205 242h141l188 -229h5v229h110v-229h6l188 229h141l-205 -242l129 -155h82v-253z" />
    <glyph glyph-name="uni0498" unicode="&#x498;" horiz-adv-x="630" 
d="M364 -154h-114v150c-62 10 -112 35 -151 76c-39 40 -62 87 -68 140l111 20c3 -38 20 -71 51 -97c30 -25 68 -39 115 -39c37 0 72 12 102 33s50 56 50 100c0 37 -15 67 -43 88c-29 22 -63 33 -103 33c-33 0 -59 -5 -77 -15l-54 85l225 206h-353v103h506v-97l-206 -188
c68 -4 122 -26 163 -66c42 -40 62 -89 62 -147c0 -76 -34 -140 -89 -182c-35 -27 -77 -45 -127 -53v-150z" />
    <glyph glyph-name="uni0499" unicode="&#x499;" horiz-adv-x="506" 
d="M300 -153h-105v149c-41 8 -77 24 -106 49c-30 25 -49 57 -58 96l99 30c8 -35 40 -85 117 -84c33 0 64 8 87 31c11 12 16 26 16 42c0 21 -9 38 -27 50c-19 11 -41 17 -66 17c-7 0 -17 -1 -30 -3c-12 -3 -23 -6 -32 -10l-46 72l152 116h-250v95h396v-86l-142 -109
c46 -2 84 -16 113 -43s43 -60 43 -99c0 -59 -31 -106 -81 -136c-24 -14 -50 -23 -80 -28v-149z" />
    <glyph glyph-name="uni049A" unicode="&#x49a;" horiz-adv-x="685" 
d="M669 -154h-114v154h-41l-307 344v-344h-114v729h114v-315l291 315h152l-326 -349l250 -275h95v-259z" />
    <glyph glyph-name="uni049B" unicode="&#x49b;" horiz-adv-x="567" 
d="M550 -153h-105v153h-45l-210 230h-5v-230h-111v497h111v-209h5l197 209h147l-227 -238l150 -159h93v-253z" />
    <glyph glyph-name="uni04A2" unicode="&#x4a2;" horiz-adv-x="803" 
d="M760 -154h-115v154h-77v315h-361v-315h-114v729h114v-306h361v306h115v-624h77v-259z" />
    <glyph glyph-name="uni04A3" unicode="&#x4a3;" horiz-adv-x="627" 
d="M585 -153h-105v153h-70v203h-225v-203h-111v497h111v-197h225v197h111v-397h64v-253z" />
    <glyph glyph-name="uni04AA" unicode="&#x4aa;" horiz-adv-x="785" 
d="M468 -154h-114v150c-163 24 -309 156 -309 366c0 54 10 104 30 152c20 47 47 87 81 120c34 32 74 58 119 77s92 29 141 29c79 0 151 -23 201 -55c24 -17 46 -35 66 -57c38 -43 59 -85 70 -127l-113 -39c-5 23 -13 46 -36 79c-12 17 -26 32 -42 44c-31 26 -85 47 -147 47
c-65 0 -126 -27 -173 -72c-46 -45 -77 -115 -77 -194s30 -150 76 -195s108 -72 173 -72c57 0 109 20 141 45c16 13 31 27 44 44c25 33 36 59 43 84l113 -39c-9 -35 -27 -72 -60 -112c-16 -21 -35 -39 -55 -56c-42 -33 -105 -61 -172 -70v-149z" />
    <glyph glyph-name="uni04AB" unicode="&#x4ab;" horiz-adv-x="567" 
d="M351 -153h-105v149c-60 12 -109 42 -147 89c-39 46 -58 101 -58 165c0 46 11 89 34 129c22 39 54 71 94 94s84 34 132 34c59 0 109 -15 151 -47c42 -31 68 -69 79 -113l-100 -33c-6 21 -18 41 -38 61c-20 19 -53 32 -92 32c-41 0 -76 -15 -104 -43
c-28 -29 -42 -67 -42 -113s14 -84 41 -114c28 -30 64 -45 106 -45c63 0 107 32 131 95l101 -33c-10 -37 -32 -70 -63 -100c-32 -30 -72 -49 -120 -58v-149z" />
    <glyph glyph-name="uni04AC" unicode="&#x4ac;" horiz-adv-x="617" 
d="M440 -154h-114v154h-77v623h-231v106h577v-106h-231v-518h76v-259z" />
    <glyph glyph-name="uni04AD" unicode="&#x4ad;" horiz-adv-x="478" 
d="M356 -153h-105v153h-70v397h-162v100h436v-100h-163v-297h64v-253z" />
    <glyph glyph-name="uni04B2" unicode="&#x4b2;" horiz-adv-x="700" 
d="M679 -154h-114v154h-22l-203 286l-205 -286h-133l271 375l-255 354h137l187 -266l187 266h135l-254 -353l194 -271h75v-259z" />
    <glyph glyph-name="uni04B3" unicode="&#x4b3;" horiz-adv-x="548" 
d="M518 -153h-105v153h-23l-125 173l-125 -173h-127l189 251l-182 246h127l119 -165l120 165h125l-182 -244l114 -153h75v-253z" />
    <glyph glyph-name="uni04B6" unicode="&#x4b6;" horiz-adv-x="737" 
d="M579 -154v154h-78v298c-81 -42 -151 -63 -210 -63c-76 0 -136 21 -177 62s-62 98 -62 172v260h114v-228c0 -102 42 -157 149 -157c33 0 67 6 101 19c34 12 62 26 85 42v324h116v-624h76v-259h-114z" />
    <glyph glyph-name="uni04B7" unicode="&#x4b7;" horiz-adv-x="581" 
d="M539 -153h-105v153h-70v180c-52 -25 -100 -38 -143 -38c-53 0 -96 13 -129 41c-33 27 -49 68 -49 122v192h112v-174c0 -51 33 -82 84 -82c42 0 84 12 125 36v220h111v-397h64v-253z" />
    <glyph glyph-name="uni04C0" unicode="&#x4c0;" horiz-adv-x="300" 
d="M207 729v-729h-114v729h114z" />
    <glyph glyph-name="uni04C1" unicode="&#x4c1;" horiz-adv-x="983" 
d="M491 792c-43 0 -81 13 -113 38c-32 26 -51 64 -57 115l75 14c18 -54 42 -85 95 -85c52 0 76 31 94 85l74 -14c-9 -69 -45 -117 -91 -138c-23 -10 -49 -15 -77 -15zM549 387h4l277 342h143l-293 -357l302 -372h-146l-282 354h-5v-354h-115v354h-5l-283 -354h-145l301 372
l-292 357h143l277 -342h4v342h115v-342z" />
    <glyph glyph-name="uni04C2" unicode="&#x4c2;" horiz-adv-x="811" 
d="M406 579c-43 0 -81 12 -112 38c-32 26 -51 64 -57 114l75 15c18 -55 41 -85 94 -85s77 30 94 84l75 -14c-10 -68 -46 -116 -92 -137c-23 -10 -48 -15 -77 -15zM460 268h6l188 229h141l-205 -242l211 -255h-142l-194 241h-5v-241h-110v241h-5l-193 -241h-142l211 255
l-205 242h141l188 -229h5v229h110v-229z" />
    <glyph glyph-name="uni04CF" unicode="&#x4cf;" horiz-adv-x="259" 
d="M185 497v-497h-111v497h111z" />
    <glyph glyph-name="uni04D0" unicode="&#x4d0;" horiz-adv-x="729" 
d="M365 792c-44 0 -81 13 -113 38c-32 26 -51 64 -57 115l75 14c18 -54 41 -85 95 -85c52 0 76 31 94 85l74 -14c-9 -69 -46 -117 -92 -138c-23 -10 -48 -15 -76 -15zM185 171l-68 -171h-117l297 729h135l295 -729h-119l-67 171h-356zM225 273h277l-139 346z" />
    <glyph glyph-name="uni04D1" unicode="&#x4d1;" horiz-adv-x="535" 
d="M258 579c-43 0 -81 12 -113 38s-51 64 -57 114l75 15c18 -55 42 -85 95 -85c52 0 76 30 94 84l74 -14c-9 -68 -46 -116 -91 -137c-24 -10 -49 -15 -77 -15zM211 -9c-48 0 -89 14 -120 42c-31 27 -47 62 -47 105v5c1 69 42 111 96 132c38 15 74 20 110 20h62
c31 0 46 14 46 42c0 21 -8 39 -25 54c-17 14 -41 22 -73 22c-59 0 -100 -33 -108 -83l-101 23c3 23 14 48 34 75c20 26 45 46 78 60c28 13 62 19 101 19c93 0 155 -34 186 -102c11 -24 17 -53 17 -88v-237c0 -33 1 -60 3 -80h-108c-3 14 -5 36 -5 68
c-17 -28 -38 -47 -64 -59c-27 -12 -54 -18 -82 -18zM357 217h-107c-24 0 -45 -6 -65 -18c-20 -13 -30 -30 -30 -51c0 -41 32 -68 79 -68c37 0 68 11 90 33s33 51 33 88v16z" />
    <glyph glyph-name="uni04D2" unicode="&#x4d2;" horiz-adv-x="729" 
d="M258 790c-19 0 -36 7 -49 21c-14 14 -20 30 -20 49c0 20 6 36 20 50c13 14 30 20 49 20s36 -6 49 -20c14 -14 21 -30 21 -50c0 -19 -7 -35 -21 -49c-13 -14 -30 -21 -49 -21zM523 811c-13 -14 -30 -21 -49 -21c-20 0 -36 7 -49 21c-14 13 -20 30 -20 49c0 20 6 36 20 50
c13 14 29 20 49 20c19 0 36 -6 49 -20c14 -14 21 -30 21 -50c0 -19 -7 -35 -21 -49zM185 171l-68 -171h-117l297 729h135l295 -729h-119l-67 171h-356zM225 273h277l-139 346z" />
    <glyph glyph-name="uni04D3" unicode="&#x4d3;" horiz-adv-x="535" 
d="M160 578c-20 0 -36 7 -49 20c-14 14 -21 30 -21 50c0 19 7 35 20 49c14 13 30 20 50 20c19 0 35 -7 49 -20c14 -14 21 -30 21 -49c0 -20 -7 -36 -21 -50c-14 -13 -30 -20 -49 -20zM366 578c-19 0 -36 7 -49 20c-13 14 -20 30 -20 50c0 19 7 35 20 49c13 13 30 20 49 20
c20 0 36 -7 50 -20c13 -14 20 -30 20 -49c0 -20 -7 -36 -21 -50c-13 -13 -30 -20 -49 -20zM211 -9c-48 0 -89 14 -120 42c-31 27 -47 62 -47 105v5c1 69 42 111 96 132c38 15 74 20 110 20h62c31 0 46 14 46 42c0 21 -8 39 -25 54c-17 14 -41 22 -73 22
c-59 0 -100 -33 -108 -83l-101 23c3 23 14 48 34 75c20 26 45 46 78 60c28 13 62 19 101 19c93 0 155 -34 186 -102c11 -24 17 -53 17 -88v-237c0 -33 1 -60 3 -80h-108c-3 14 -5 36 -5 68c-17 -28 -38 -47 -64 -59c-27 -12 -54 -18 -82 -18zM357 201v16h-107
c-24 0 -45 -6 -65 -18c-20 -13 -30 -30 -30 -51c0 -41 32 -68 79 -68c37 0 68 11 90 33s33 51 33 88z" />
    <glyph glyph-name="uni04D4" unicode="&#x4d4;" horiz-adv-x="980" 
d="M114 0h-125l396 729h538v-104h-348v-202h316v-104h-316v-215h351v-104h-465v171h-255zM260 273h201v353h-11z" />
    <glyph glyph-name="uni04D5" unicode="&#x4d5;" horiz-adv-x="885" 
d="M846 250c0 -11 0 -22 -1 -34h-380c1 -36 16 -67 46 -92s64 -38 102 -38c69 0 112 28 131 83l95 -28c-14 -46 -42 -83 -84 -110c-43 -26 -90 -40 -141 -40c-80 0 -152 34 -200 90c-51 -60 -117 -90 -198 -90h-2c-49 0 -89 14 -122 42c-32 27 -48 62 -48 105v5
c1 69 42 111 96 132c38 15 74 20 110 20h71c27 0 41 14 41 42c0 42 -36 75 -98 76c-31 0 -57 -8 -77 -23c-21 -15 -33 -35 -37 -59l-99 22c3 23 14 47 35 74c22 27 49 47 81 62c28 12 61 18 99 18c77 0 132 -23 164 -71c43 45 107 71 176 71c75 0 134 -23 177 -71
c42 -47 63 -109 63 -186zM470 300h265c-2 35 -15 62 -39 82s-55 30 -91 30c-35 0 -65 -10 -90 -31c-25 -20 -40 -47 -45 -81zM360 217h-110c-24 0 -45 -6 -65 -18c-20 -13 -30 -30 -30 -51c0 -41 32 -68 79 -68c38 0 69 11 92 32c23 22 34 51 34 89v16z" />
    <glyph glyph-name="uni04D6" unicode="&#x4d6;" horiz-adv-x="617" 
d="M326 792c-43 0 -81 13 -112 38c-32 26 -51 64 -57 115l75 14c18 -54 41 -85 94 -85s77 31 94 85l75 -14c-10 -69 -46 -117 -92 -138c-23 -10 -48 -15 -77 -15zM93 729h467v-104h-353v-202h321v-104h-321v-215h356v-104h-470v729z" />
    <glyph glyph-name="uni04D7" unicode="&#x4d7;" horiz-adv-x="573" 
d="M290 579c-43 0 -80 12 -112 38s-51 64 -57 114l75 15c18 -55 41 -85 94 -85s77 30 95 84l74 -14c-9 -68 -46 -116 -92 -137c-23 -10 -48 -15 -77 -15zM532 216h-378c2 -74 74 -131 146 -130c64 0 113 27 132 84l93 -29c-18 -61 -68 -110 -128 -133
c-31 -11 -62 -17 -96 -17c-143 -3 -263 114 -260 258c0 47 11 90 32 129c22 40 51 71 90 94c38 23 81 35 128 35c76 0 135 -23 178 -71c43 -47 65 -109 65 -186c0 -12 -1 -24 -2 -34zM292 412c-34 0 -64 -10 -88 -31c-24 -20 -39 -47 -44 -81h261c-2 34 -15 61 -39 82
c-25 20 -55 30 -90 30z" />
    <glyph glyph-name="uni04DC" unicode="&#x4dc;" horiz-adv-x="983" 
d="M383 790c-19 0 -35 7 -48 21c-14 14 -21 30 -21 49c0 20 7 36 20 50c13 13 30 20 49 20c20 0 36 -7 50 -20c13 -14 20 -30 20 -50c0 -19 -7 -35 -20 -49c-14 -14 -30 -21 -50 -21zM599 790c-19 0 -36 7 -49 21c-14 14 -20 30 -20 49c0 20 6 36 20 50c13 13 30 20 49 20
c20 0 36 -7 50 -20c13 -14 20 -30 20 -50c0 -19 -7 -35 -21 -49c-13 -14 -30 -21 -49 -21zM549 387h4l277 342h143l-293 -357l302 -372h-146l-282 354h-5v-354h-115v354h-5l-283 -354h-145l301 372l-292 357h143l277 -342h4v342h115v-342z" />
    <glyph glyph-name="uni04DD" unicode="&#x4dd;" horiz-adv-x="811" 
d="M302 578c-19 0 -36 7 -49 20c-13 14 -20 30 -20 50c0 19 7 35 20 49c13 13 29 20 49 20c19 0 36 -7 49 -20c14 -14 21 -30 21 -49c0 -20 -7 -36 -21 -50c-13 -13 -30 -20 -49 -20zM509 578c-20 0 -36 7 -49 20c-14 14 -21 30 -21 50c0 19 7 35 20 49c13 13 30 20 50 20
c19 0 36 -7 49 -20c13 -14 20 -30 20 -49c0 -20 -7 -36 -20 -50c-14 -13 -30 -20 -49 -20zM460 268h6l188 229h141l-205 -242l211 -255h-142l-194 241h-5v-241h-110v241h-5l-193 -241h-142l211 255l-205 242h141l188 -229h5v229h110v-229z" />
    <glyph glyph-name="uni04DE" unicode="&#x4de;" horiz-adv-x="630" 
d="M200 790c-20 0 -36 7 -49 21c-14 14 -21 30 -21 49c0 20 7 36 20 50c14 13 30 20 50 20c19 0 35 -7 49 -20c14 -14 21 -30 21 -50c0 -19 -7 -35 -21 -49s-30 -21 -49 -21zM415 790c-19 0 -35 7 -49 21c-13 14 -20 30 -20 49c0 20 7 36 20 50c13 13 30 20 49 20
c20 0 36 -7 50 -20c13 -14 20 -30 20 -50c0 -19 -7 -35 -20 -49c-14 -14 -30 -21 -50 -21zM306 -9c-76 0 -146 26 -192 67c-46 40 -76 95 -83 154l111 20c3 -38 20 -71 51 -97c30 -25 68 -39 115 -39c37 0 72 12 102 33s50 56 50 100c0 37 -15 67 -43 88
c-29 22 -63 33 -103 33c-33 0 -59 -5 -77 -15l-54 85l225 206h-353v103h506v-97l-206 -188c68 -4 122 -26 163 -66c42 -40 62 -89 62 -147c0 -76 -34 -140 -89 -182c-50 -39 -112 -58 -185 -58z" />
    <glyph glyph-name="uni04DF" unicode="&#x4df;" horiz-adv-x="506" 
d="M145 578c-19 0 -35 7 -49 20c-13 14 -20 30 -20 50c0 19 7 35 20 49c13 13 29 20 49 20s36 -7 50 -20c13 -14 20 -30 20 -49c0 -20 -7 -36 -20 -50c-14 -13 -30 -20 -50 -20zM352 578c-20 0 -36 7 -49 20c-14 14 -21 30 -21 50c0 19 7 35 20 49c13 13 30 20 50 20
c19 0 36 -7 49 -20c14 -14 20 -30 20 -49c0 -20 -6 -36 -20 -50c-14 -13 -30 -20 -49 -20zM461 160c0 -59 -31 -106 -81 -136c-37 -22 -81 -33 -133 -33c-53 0 -99 14 -139 39c-41 26 -66 64 -77 111l99 30c8 -35 40 -85 117 -84c33 0 64 8 87 31c11 12 16 26 16 42
c0 21 -9 38 -27 50c-19 11 -41 17 -66 17c-7 0 -17 -1 -30 -3c-12 -3 -23 -6 -32 -10l-46 72l152 116h-250v95h396v-86l-142 -109c46 -2 84 -16 113 -43s43 -60 43 -99z" />
    <glyph glyph-name="uni04E2" unicode="&#x4e2;" horiz-adv-x="796" 
d="M560 828h-323v88h323v-88zM703 729v-729h-113v563l-365 -563h-132v729h113v-564l365 564h132z" />
    <glyph glyph-name="uni04E3" unicode="&#x4e3;" horiz-adv-x="600" 
d="M461 591h-322v89h322v-89zM417 331l-235 -331h-108v497h109v-332l235 332h107v-497h-108v331z" />
    <glyph glyph-name="uni04E4" unicode="&#x4e4;" horiz-adv-x="796" 
d="M290 790c-19 0 -35 7 -49 21c-13 14 -20 30 -20 49c0 20 7 36 20 50c13 13 29 20 49 20s36 -7 50 -20c13 -14 20 -30 20 -50c0 -19 -7 -35 -20 -49c-14 -14 -30 -21 -50 -21zM506 790c-20 0 -36 7 -49 21c-14 14 -21 30 -21 49c0 20 7 36 20 50c14 13 30 20 50 20
c19 0 36 -7 49 -20c14 -14 20 -30 20 -50c0 -19 -6 -35 -20 -49s-30 -21 -49 -21zM703 729v-729h-113v563l-365 -563h-132v729h113v-564l365 564h132z" />
    <glyph glyph-name="uni04E5" unicode="&#x4e5;" horiz-adv-x="600" 
d="M196 578c-19 0 -35 7 -48 20c-14 14 -21 30 -21 50c0 19 7 35 20 49c13 13 30 20 49 20c20 0 36 -7 50 -20c14 -14 20 -30 20 -49c0 -20 -6 -36 -20 -50c-14 -13 -30 -20 -50 -20zM403 578c-19 0 -36 7 -49 20c-14 14 -20 30 -20 50c0 19 6 35 20 49c13 13 30 20 49 20
c20 0 36 -7 50 -20c13 -14 20 -30 20 -49c0 -20 -7 -36 -21 -50c-13 -13 -30 -20 -49 -20zM417 331l-235 -331h-108v497h109v-332l235 332h107v-497h-108v331z" />
    <glyph glyph-name="uni04E6" unicode="&#x4e6;" horiz-adv-x="838" 
d="M313 790c-20 0 -36 7 -49 21c-14 14 -21 30 -21 49c0 20 7 36 20 50s30 20 50 20c19 0 35 -6 49 -20c13 -14 20 -30 20 -50c0 -19 -7 -35 -20 -49c-14 -14 -30 -21 -49 -21zM578 811c-14 -14 -30 -21 -50 -21c-19 0 -36 7 -49 21c-13 13 -20 30 -20 49c0 20 7 36 20 50
s30 20 49 20c20 0 36 -6 50 -20c13 -14 20 -30 20 -50c0 -19 -7 -35 -20 -49zM45 363c0 52 10 102 30 148c19 47 46 87 80 120c33 34 73 60 120 79c45 20 94 30 145 30c68 0 131 -17 188 -49s102 -77 135 -135c33 -57 50 -121 50 -190c0 -53 -10 -102 -30 -149
s-47 -87 -80 -119c-34 -33 -74 -59 -120 -78c-47 -19 -95 -29 -146 -29s-99 10 -145 29c-46 18 -86 44 -119 76c-33 33 -59 72 -79 119c-19 45 -29 95 -29 148zM165 365c-3 -144 113 -270 254 -267c70 0 135 31 181 78c45 48 73 117 73 189c0 49 -11 94 -33 135
c-23 41 -54 73 -93 97s-82 36 -128 36c-141 3 -257 -122 -254 -268z" />
    <glyph glyph-name="uni04E7" unicode="&#x4e7;" horiz-adv-x="605" 
d="M199 578c-19 0 -36 7 -49 20c-14 14 -20 30 -20 50c0 19 6 35 20 49c13 13 29 20 49 20c19 0 36 -7 49 -20c14 -14 21 -30 21 -49c0 -20 -7 -36 -21 -50c-13 -13 -30 -20 -49 -20zM405 578c-19 0 -35 7 -49 20c-13 14 -20 30 -20 50c0 19 7 35 20 49c13 13 30 20 49 20
c20 0 36 -7 50 -20c13 -14 20 -30 20 -49c0 -20 -7 -36 -20 -50c-14 -13 -30 -20 -50 -20zM40 249c0 48 12 92 36 132c24 39 55 71 96 93c40 22 84 33 132 33c46 0 90 -11 130 -33s72 -53 96 -92c23 -40 35 -83 35 -131c3 -144 -120 -263 -262 -260c-48 0 -91 12 -131 34
c-41 22 -72 54 -96 93c-24 40 -36 83 -36 131zM154 251c0 -43 14 -81 42 -112s64 -47 108 -47s79 15 107 46c27 30 41 67 41 111s-14 82 -42 112c-27 31 -63 46 -107 46s-80 -15 -108 -45s-41 -67 -41 -111z" />
    <glyph glyph-name="uni04E8" unicode="&#x4e8;" horiz-adv-x="838" 
d="M45 363c0 52 10 102 30 148c19 47 46 87 80 120c33 34 73 60 120 79c45 20 94 30 145 30c68 0 131 -17 188 -49s102 -77 135 -135c33 -57 50 -121 50 -190c0 -53 -10 -102 -30 -149s-47 -87 -80 -119c-34 -33 -74 -59 -120 -78c-47 -19 -95 -29 -146 -29s-99 10 -145 29
c-46 18 -86 44 -119 76c-33 33 -59 72 -79 119c-19 45 -29 95 -29 148zM169 420h499c-10 62 -39 112 -86 153c-47 40 -102 60 -163 60c-63 0 -117 -20 -164 -60c-46 -41 -75 -91 -86 -153zM670 320h-503c9 -63 38 -116 85 -158c48 -42 103 -64 167 -64c63 0 119 22 166 64
c48 43 76 96 85 158z" />
    <glyph glyph-name="uni04E9" unicode="&#x4e9;" horiz-adv-x="605" 
d="M565 251c3 -144 -120 -263 -262 -260c-48 0 -91 12 -131 34c-41 22 -72 54 -96 93c-24 40 -36 83 -36 131s12 92 36 132c24 39 55 71 96 93c40 22 84 33 132 33c46 0 90 -11 130 -33s72 -53 96 -92c23 -40 35 -83 35 -131zM155 291h295c-7 34 -24 62 -51 84
c-27 23 -59 34 -96 34c-38 0 -71 -11 -98 -34c-27 -22 -44 -50 -50 -84zM450 209h-294c6 -34 23 -62 51 -84c28 -24 60 -35 97 -35s69 11 96 34c28 23 44 51 50 85z" />
    <glyph glyph-name="uni04EA" unicode="&#x4ea;" horiz-adv-x="838" 
d="M308 790c-19 0 -36 7 -49 21c-14 14 -20 30 -20 49c0 20 6 36 20 50c13 14 30 20 49 20s36 -6 49 -20c14 -14 21 -30 21 -50c0 -19 -7 -35 -21 -49c-13 -14 -30 -21 -49 -21zM582 811c-13 -14 -30 -21 -49 -21c-20 0 -36 7 -49 21c-14 13 -20 30 -20 49c0 20 6 36 20 50
c13 14 29 20 49 20c19 0 36 -6 49 -20c14 -14 21 -30 21 -50c0 -19 -7 -35 -21 -49zM45 363c0 52 10 102 30 148c19 47 46 87 80 120c33 34 73 60 120 79c45 20 94 30 145 30c68 0 131 -17 188 -49s102 -77 135 -135c33 -57 50 -121 50 -190c0 -53 -10 -102 -30 -149
s-47 -87 -80 -119c-34 -33 -74 -59 -120 -78c-47 -19 -95 -29 -146 -29s-99 10 -145 29c-46 18 -86 44 -119 76c-33 33 -59 72 -79 119c-19 45 -29 95 -29 148zM169 420h500c-11 62 -40 112 -87 153c-47 40 -102 60 -163 60c-63 0 -117 -20 -164 -60
c-46 -41 -75 -91 -86 -153zM670 320h-503c9 -63 38 -116 85 -158c48 -42 103 -64 167 -64c63 0 119 22 166 64c48 43 76 96 85 158z" />
    <glyph glyph-name="uni04EB" unicode="&#x4eb;" horiz-adv-x="605" 
d="M269 648c0 -20 -7 -36 -21 -50c-13 -13 -30 -20 -49 -20s-36 7 -49 20c-14 14 -20 30 -20 50c0 19 6 35 20 49c13 13 29 20 49 20c19 0 36 -7 49 -20c14 -14 21 -30 21 -49zM475 648c0 -20 -7 -36 -20 -50c-14 -13 -30 -20 -50 -20c-19 0 -35 7 -49 20
c-13 14 -20 30 -20 50c0 19 7 35 20 49c13 13 30 20 49 20c20 0 36 -7 50 -20c13 -14 20 -30 20 -49zM565 251c3 -144 -120 -263 -262 -260c-48 0 -91 12 -131 34c-41 22 -72 54 -96 93c-24 40 -36 83 -36 131s12 92 36 132c24 39 55 71 96 93c40 22 84 33 132 33
c46 0 90 -11 130 -33s72 -53 96 -92c23 -40 35 -83 35 -131zM155 291h295c-7 34 -24 62 -51 84c-27 23 -59 34 -96 34c-38 0 -71 -11 -98 -34c-27 -22 -44 -50 -50 -84zM450 209h-294c6 -34 23 -62 51 -84c28 -24 60 -35 97 -35s69 11 96 34c28 23 44 51 50 85z" />
    <glyph glyph-name="uni04EC" unicode="&#x4ec;" horiz-adv-x="789" 
d="M274 790c-19 0 -35 7 -49 21c-13 14 -20 30 -20 49c0 20 7 36 20 50c13 13 30 20 49 20c20 0 36 -7 50 -20c13 -14 20 -30 20 -50c0 -19 -7 -35 -20 -49c-14 -14 -30 -21 -50 -21zM490 790c-20 0 -36 7 -49 21c-14 14 -21 30 -21 49c0 20 7 36 20 50c14 13 30 20 50 20
s36 -7 50 -20c13 -14 20 -30 20 -50c0 -19 -7 -35 -21 -49s-30 -21 -49 -21zM376 -9c-80 0 -155 25 -205 59c-25 17 -47 37 -67 59c-39 44 -60 85 -70 123l111 39c7 -25 19 -51 45 -84c14 -17 29 -31 45 -44c33 -26 86 -45 144 -45c60 0 113 20 159 61s74 94 83 161h-321
v102h320c-8 42 -24 80 -48 112s-53 57 -87 74c-33 17 -69 25 -107 25c-62 0 -117 -20 -149 -46c-16 -13 -30 -27 -43 -44c-24 -33 -33 -57 -39 -79l-111 37c14 60 64 134 142 184c51 32 123 55 201 55c101 0 193 -39 259 -104c32 -32 58 -71 77 -118s29 -97 29 -151
c0 -58 -11 -111 -31 -159c-21 -49 -49 -88 -83 -119c-69 -62 -160 -98 -254 -98z" />
    <glyph glyph-name="uni04ED" unicode="&#x4ed;" horiz-adv-x="568" 
d="M162 578c-19 0 -36 7 -49 20c-13 14 -20 30 -20 50c0 19 7 35 20 49c13 13 29 20 49 20c19 0 36 -7 49 -20c14 -14 21 -30 21 -49c0 -20 -7 -36 -21 -50c-13 -13 -30 -20 -49 -20zM369 578c-20 0 -36 7 -49 20c-14 14 -21 30 -21 50c0 19 7 35 20 49c13 13 30 20 50 20
c19 0 36 -7 49 -20c13 -14 20 -30 20 -49c0 -20 -7 -36 -20 -50c-14 -13 -30 -20 -49 -20zM217 300h192c-9 33 -26 60 -51 80c-25 19 -55 29 -88 29c-38 0 -68 -10 -90 -29c-24 -19 -39 -40 -46 -64l-98 32c11 43 39 81 83 112c44 32 96 47 154 47c49 0 94 -11 132 -34
c39 -23 69 -53 90 -92c21 -38 31 -81 31 -128c0 -76 -24 -139 -72 -188c-49 -49 -111 -74 -186 -74c-62 0 -119 22 -158 53c-38 31 -65 70 -76 109l99 32c8 -23 20 -41 41 -61c21 -21 55 -34 95 -34c36 0 67 12 93 35c26 22 43 52 49 89h-194v86z" />
    <glyph glyph-name="uni04EE" unicode="&#x4ee;" horiz-adv-x="659" 
d="M498 828h-323v88h323v-88zM666 729l-260 -527c-23 -47 -42 -81 -55 -100c-35 -50 -78 -81 -131 -94c-21 -5 -45 -8 -70 -8h-85v111h75c66 0 117 37 147 100l-283 518h127l218 -406l194 406h123z" />
    <glyph glyph-name="uni04EF" unicode="&#x4ef;" horiz-adv-x="570" 
d="M450 591h-323v89h323v-89zM236 56l-221 441h126l155 -326l143 326h120l-341 -742h-118z" />
    <glyph glyph-name="uni04F0" unicode="&#x4f0;" horiz-adv-x="659" 
d="M231 790c-19 0 -35 7 -48 21c-14 14 -21 30 -21 49c0 20 7 36 20 50c13 13 30 20 49 20c20 0 36 -7 50 -20c14 -14 20 -30 20 -50c0 -19 -6 -35 -20 -49s-30 -21 -50 -21zM447 790c-19 0 -36 7 -49 21s-20 30 -20 49c0 20 7 36 20 50c13 13 30 20 49 20
c20 0 36 -7 50 -20c13 -14 20 -30 20 -50c0 -19 -7 -35 -21 -49c-13 -14 -30 -21 -49 -21zM666 729l-260 -527c-23 -47 -42 -81 -55 -100c-35 -50 -78 -81 -131 -94c-21 -5 -45 -8 -70 -8h-85v111h75c66 0 117 37 147 100l-283 518h127l218 -406l194 406h123z" />
    <glyph glyph-name="uni04F1" unicode="&#x4f1;" horiz-adv-x="570" 
d="M186 578c-19 0 -36 7 -49 20c-13 14 -20 30 -20 50c0 19 7 35 20 49c13 13 29 20 49 20c19 0 36 -7 49 -20c14 -14 21 -30 21 -49c0 -20 -7 -36 -21 -50c-13 -13 -30 -20 -49 -20zM393 578c-20 0 -36 7 -49 20c-14 14 -21 30 -21 50c0 19 7 35 20 49c13 13 30 20 50 20
c19 0 36 -7 49 -20c13 -14 20 -30 20 -49c0 -20 -7 -36 -20 -50c-14 -13 -30 -20 -49 -20zM236 56l-221 441h126l155 -326l143 326h120l-341 -742h-118z" />
    <glyph glyph-name="uni04F2" unicode="&#x4f2;" horiz-adv-x="659" 
d="M290 955h130l-130 -160h-91zM473 955h131l-130 -160h-92zM666 729l-260 -527c-23 -47 -42 -81 -55 -100c-35 -50 -78 -81 -131 -94c-21 -5 -45 -8 -70 -8h-85v111h75c66 0 117 37 147 100l-283 518h127l218 -406l194 406h123z" />
    <glyph glyph-name="uni04F3" unicode="&#x4f3;" horiz-adv-x="570" 
d="M243 742h131l-131 -160h-91zM426 742h131l-130 -160h-92zM236 56l-221 441h126l155 -326l143 326h120l-341 -742h-118z" />
    <glyph glyph-name="uni04F4" unicode="&#x4f4;" horiz-adv-x="708" 
d="M225 790c-19 0 -35 7 -48 21c-14 14 -21 30 -21 49c0 20 7 36 20 50c14 13 30 20 49 20c20 0 36 -7 50 -20c14 -14 20 -30 20 -50c0 -19 -6 -35 -20 -49s-30 -21 -50 -21zM441 790c-19 0 -36 7 -49 21s-20 30 -20 49c0 20 7 36 20 50c13 13 30 20 49 20
c20 0 36 -7 50 -20c13 -14 20 -30 20 -50c0 -19 -7 -35 -21 -49c-13 -14 -30 -21 -49 -21zM501 0v298c-81 -42 -151 -63 -210 -63c-76 0 -136 21 -177 62s-62 98 -62 172v260h114v-228c0 -102 42 -157 149 -157c33 0 67 6 101 19c34 12 62 26 85 42v324h114v-729h-114z" />
    <glyph glyph-name="uni04F5" unicode="&#x4f5;" horiz-adv-x="550" 
d="M155 578c-19 0 -35 7 -48 20c-14 14 -21 30 -21 50c0 19 7 35 20 49c14 13 30 20 49 20c20 0 36 -7 50 -20c14 -14 20 -30 20 -49c0 -20 -6 -36 -20 -50c-14 -13 -30 -20 -50 -20zM362 578c-19 0 -36 7 -49 20c-13 14 -20 30 -20 50c0 19 7 35 20 49c13 13 30 20 49 20
c20 0 36 -7 50 -20c13 -14 20 -30 20 -49c0 -20 -7 -36 -21 -50c-13 -13 -30 -20 -49 -20zM364 0v180c-52 -25 -100 -38 -143 -38c-53 0 -96 13 -129 41c-33 27 -49 68 -49 122v192h112v-174c0 -51 33 -82 84 -82c42 0 84 12 125 36v220h111v-497h-111z" />
    <glyph glyph-name="uni04F8" unicode="&#x4f8;" horiz-adv-x="938" 
d="M361 790c-19 0 -36 7 -49 21s-20 30 -20 49c0 20 7 36 20 50c13 13 29 20 49 20c19 0 36 -7 49 -20c14 -14 21 -30 21 -50c0 -19 -7 -35 -21 -49c-13 -14 -30 -21 -49 -21zM577 790c-20 0 -36 7 -49 21c-14 14 -21 30 -21 49c0 20 7 36 20 50c13 13 30 20 50 20
c19 0 36 -7 49 -20c14 -14 20 -30 20 -50c0 -19 -6 -35 -20 -49s-30 -21 -49 -21zM623 311c10 -25 15 -53 15 -84c0 -32 -6 -60 -16 -87c-11 -27 -27 -51 -47 -72c-42 -42 -112 -68 -199 -68h-283v729h114v-284h170c53 0 101 -9 147 -31c45 -22 79 -53 99 -103zM845 729
v-729h-120v729h120zM524 228c0 60 -39 115 -152 115h-165v-239h166c57 0 99 15 121 40c21 25 30 51 30 84z" />
    <glyph glyph-name="uni04F9" unicode="&#x4f9;" horiz-adv-x="806" 
d="M299 578c-19 0 -35 7 -49 20c-13 14 -20 30 -20 50c0 19 7 35 20 49c13 13 30 20 49 20c20 0 36 -7 50 -20c13 -14 20 -30 20 -49c0 -20 -7 -36 -20 -50c-14 -13 -30 -20 -50 -20zM506 578c-20 0 -36 7 -49 20c-14 14 -21 30 -21 50c0 19 7 35 20 49c14 13 30 20 50 20
c19 0 36 -7 49 -20c14 -14 20 -30 20 -49c0 -20 -6 -36 -20 -50c-14 -13 -30 -20 -49 -20zM519 171c0 -51 -17 -92 -51 -124c-33 -31 -82 -47 -144 -47h-250v497h111v-164h130c79 0 140 -21 176 -70c19 -25 28 -56 28 -92zM407 172c0 49 -40 75 -100 75h-122v-154h124
c60 0 98 25 98 79zM732 497v-497h-111v497h111z" />
    <glyph glyph-name="uni0E3F" unicode="&#xe3f;" horiz-adv-x="684" 
d="M93 0v729h212v101h75v-101c68 -1 123 -19 165 -54c41 -34 61 -80 61 -137c0 -23 -6 -48 -20 -78c-14 -31 -45 -62 -86 -80c53 -17 92 -48 112 -81c19 -33 27 -64 27 -95c0 -61 -22 -110 -66 -148c-44 -37 -108 -56 -193 -56v0v-95h-75v95h-212zM205 626v-206h101v206
h-101zM379 625v-203c76 8 114 49 114 104c0 54 -37 94 -114 99zM206 320v-218h100v218h-100zM379 102h3c93 0 143 44 143 110c0 64 -48 108 -146 108v-218z" />
    <glyph glyph-name="uni1E20" unicode="&#x1e20;" horiz-adv-x="795" 
d="M577 828h-323v88h323v-88zM741 518l-112 -35c-9 33 -30 67 -64 98s-88 52 -149 52c-71 0 -131 -25 -179 -77c-49 -51 -73 -115 -73 -191c0 -49 11 -95 32 -135c21 -41 50 -73 89 -97s82 -36 130 -36c61 0 111 16 148 46c37 31 61 70 69 118h-262v104h385v-40
c0 -92 -33 -175 -90 -235c-56 -61 -145 -98 -249 -98c-72 0 -136 16 -193 48c-57 33 -100 77 -131 133c-32 57 -47 120 -47 190c0 53 10 104 29 151c19 46 45 86 78 119s72 59 118 78s95 29 147 29c176 0 291 -106 324 -222z" />
    <glyph glyph-name="uni1E21" unicode="&#x1e21;" horiz-adv-x="630" 
d="M460 591h-324v89h324v-89zM282 -4c-69 0 -133 30 -174 77c-42 47 -68 111 -68 177c0 62 24 124 65 173c40 49 106 82 180 82c27 0 56 -6 88 -20c32 -15 57 -35 75 -64v76h108v-494c0 -52 -12 -96 -36 -135c-24 -38 -55 -68 -96 -87c-40 -20 -86 -30 -137 -30
c-75 0 -144 22 -196 74c-26 26 -42 58 -49 94l104 30c6 -27 22 -50 48 -69c26 -20 55 -30 89 -30c82 0 162 44 162 148v82c-12 -20 -30 -37 -51 -50c-22 -13 -42 -22 -61 -27c-18 -4 -35 -7 -51 -7zM447 252c0 44 -14 81 -41 110c-27 30 -63 44 -107 44s-80 -14 -108 -44
c-27 -29 -41 -66 -41 -110s14 -81 42 -111c28 -31 63 -46 107 -46s79 15 107 46c27 30 41 67 41 111z" />
    <glyph glyph-name="uni1E30" unicode="&#x1e30;" horiz-adv-x="662" 
d="M388 955h136l-135 -160h-96zM499 729h151l-326 -349l345 -380h-155l-307 344v-344h-114v729h114v-315z" />
    <glyph glyph-name="uni1E31" unicode="&#x1e31;" horiz-adv-x="541" 
d="M186 243v-243h-112v758h112v-457h1l193 196h150l-224 -225l237 -272h-147l-207 243h-3zM366 742h135l-135 -160h-96z" />
    <glyph glyph-name="uni1E60" unicode="&#x1e60;" horiz-adv-x="607" 
d="M355 812c-15 -14 -32 -22 -52 -22c-21 0 -38 8 -52 22s-21 31 -21 52c0 20 7 37 21 52c14 14 31 21 52 21c20 0 38 -7 52 -21c14 -15 21 -32 21 -52c0 -21 -7 -38 -21 -52zM310 -8c-102 0 -177 39 -220 93c-31 37 -47 78 -52 120l112 30c9 -43 27 -77 55 -102
s64 -38 107 -38c37 0 68 10 93 29s38 43 38 73c0 58 -42 93 -107 107l-90 18c-58 12 -104 36 -136 72s-49 78 -49 126c-2 118 113 222 241 220c98 -1 165 -36 202 -83c27 -32 40 -63 46 -97l-107 -33c-7 28 -23 54 -47 76c-25 22 -56 33 -91 33s-65 -10 -90 -31
c-24 -21 -36 -45 -36 -74c0 -22 8 -42 25 -61c16 -18 39 -30 67 -36l92 -18c129 -26 199 -102 199 -211c0 -54 -24 -106 -65 -146c-42 -40 -109 -67 -187 -67z" />
    <glyph glyph-name="uni1E61" unicode="&#x1e61;" horiz-adv-x="461" 
d="M280 600c-14 -15 -31 -22 -52 -22c-20 0 -37 7 -51 22c-14 14 -22 31 -22 51c0 21 7 38 21 53c14 14 32 21 52 21c21 0 38 -7 52 -21c15 -15 22 -32 22 -53c0 -20 -7 -37 -22 -51zM236 -9c-63 0 -116 22 -146 52c-30 31 -47 62 -51 93l96 25c10 -46 45 -79 100 -79
c45 0 70 23 70 58c0 27 -17 45 -59 55l-63 15c-88 20 -132 75 -132 142c0 43 17 79 51 110c33 30 75 46 125 46c77 -1 126 -30 153 -66c19 -25 27 -46 30 -67l-93 -26c-9 38 -37 69 -90 69c-18 0 -34 -5 -48 -16c-14 -10 -20 -24 -20 -40c0 -28 20 -46 50 -52l68 -14
c44 -10 79 -28 104 -55c24 -27 37 -59 37 -95c0 -76 -58 -155 -182 -155z" />
    <glyph glyph-name="Wgrave" unicode="&#x1e80;" horiz-adv-x="1093" 
d="M499 955l95 -160h-96l-135 160h136zM22 729h122l164 -567l175 567h127l177 -567l167 567h119l-223 -729h-130l-174 570h-1l-175 -570h-129z" />
    <glyph glyph-name="wgrave" unicode="&#x1e81;" horiz-adv-x="819" 
d="M460 582h-95l-135 160h135zM579 145h1l105 352h114l-160 -497h-114l-115 349h-2l-116 -349h-113l-159 497h115l105 -351h1l113 351h111z" />
    <glyph glyph-name="Wacute" unicode="&#x1e82;" horiz-adv-x="1093" 
d="M592 955h135l-135 -160h-96zM22 729h122l164 -567l175 567h127l177 -567l167 567h119l-223 -729h-130l-174 570h-1l-175 -570h-129z" />
    <glyph glyph-name="wacute" unicode="&#x1e83;" horiz-adv-x="819" 
d="M456 742h135l-135 -160h-96zM579 145h1l105 352h114l-160 -497h-114l-115 349h-2l-116 -349h-113l-159 497h115l105 -351h1l113 351h111z" />
    <glyph glyph-name="Wdieresis" unicode="&#x1e84;" horiz-adv-x="1093" 
d="M444 790c-19 0 -36 7 -49 21c-14 14 -20 30 -20 49c0 20 6 36 20 50c13 13 29 20 49 20c19 0 36 -7 49 -20c14 -14 21 -30 21 -50c0 -19 -7 -35 -21 -49c-13 -14 -30 -21 -49 -21zM650 790c-19 0 -35 7 -49 21c-13 14 -20 30 -20 49c0 20 7 36 20 50c13 13 30 20 49 20
c20 0 36 -7 50 -20c13 -14 20 -30 20 -50c0 -19 -7 -35 -20 -49c-14 -14 -30 -21 -50 -21zM22 729h122l164 -567l175 567h127l177 -567l167 567h119l-223 -729h-130l-174 570h-1l-175 -570h-129z" />
    <glyph glyph-name="wdieresis" unicode="&#x1e85;" horiz-adv-x="819" 
d="M306 578c-19 0 -36 7 -49 20c-13 14 -20 30 -20 50c0 19 7 35 20 49c13 13 29 20 49 20c19 0 36 -7 49 -20c14 -14 21 -30 21 -49c0 -20 -7 -36 -21 -50c-13 -13 -30 -20 -49 -20zM513 578c-20 0 -36 7 -49 20c-14 14 -21 30 -21 50c0 19 7 35 20 49c13 13 30 20 50 20
c19 0 36 -7 49 -20c13 -14 20 -30 20 -49c0 -20 -7 -36 -20 -50c-14 -13 -30 -20 -49 -20zM579 145h1l105 352h114l-160 -497h-114l-115 349h-2l-116 -349h-113l-159 497h115l105 -351h1l113 351h111z" />
    <glyph glyph-name="uni1E90" unicode="&#x1e90;" horiz-adv-x="620" 
d="M244 795h-110l129 160h87l133 -160h-106l-68 86zM573 631l-398 -528h406v-103h-546v99l399 527h-384v103h523v-98z" />
    <glyph glyph-name="uni1E91" unicode="&#x1e91;" horiz-adv-x="492" 
d="M180 581h-110l129 161h87l134 -161h-106l-69 86zM449 409l-274 -313h275v-96h-410v92l270 308h-263v97h402v-88z" />
    <glyph glyph-name="uni1EBC" unicode="&#x1ebc;" horiz-adv-x="617" 
d="M495 942v-10c0 -82 -32 -124 -96 -124c-48 -2 -97 47 -131 46c-19 0 -29 -15 -31 -45h-77v11c0 82 33 124 98 124c44 1 102 -47 133 -45c19 0 31 14 34 43h70zM93 729h467v-104h-353v-202h321v-104h-321v-215h356v-104h-470v729z" />
    <glyph glyph-name="uni1EBD" unicode="&#x1ebd;" horiz-adv-x="573" 
d="M455 724v-10c0 -83 -32 -124 -96 -124c-48 -2 -97 47 -131 45c-19 0 -29 -15 -31 -44h-77v10c0 83 33 124 98 124c44 2 102 -46 133 -44c19 0 31 14 34 43h70zM532 216h-378c2 -74 74 -131 146 -130c64 0 113 27 132 84l93 -29c-18 -61 -68 -110 -128 -133
c-31 -11 -62 -17 -96 -17c-143 -3 -263 114 -260 258c0 47 11 90 32 129c22 40 51 71 90 94c38 23 81 35 128 35c76 0 135 -23 178 -71c43 -47 65 -109 65 -186c0 -12 -1 -24 -2 -34zM292 412c-34 0 -64 -10 -88 -31c-24 -20 -39 -47 -44 -81h261c-2 34 -15 61 -39 82
c-25 20 -55 30 -90 30z" />
    <glyph glyph-name="Ygrave" unicode="&#x1ef2;" horiz-adv-x="699" 
d="M313 955l96 -160h-96l-135 160h135zM292 0v291l-274 438h132l200 -327l201 327h131l-275 -435v-294h-115z" />
    <glyph glyph-name="ygrave" unicode="&#x1ef3;" horiz-adv-x="570" 
d="M352 582h-96l-135 160h135zM236 56l-221 441h126l155 -326l143 326h120l-341 -742h-118z" />
    <glyph glyph-name="uni2000" unicode="&#x2000;" horiz-adv-x="526" 
 />
    <glyph glyph-name="uni2001" unicode="&#x2001;" horiz-adv-x="1053" 
 />
    <glyph glyph-name="uni2002" unicode="&#x2002;" horiz-adv-x="526" 
 />
    <glyph glyph-name="uni2003" unicode="&#x2003;" horiz-adv-x="1053" 
 />
    <glyph glyph-name="uni2004" unicode="&#x2004;" horiz-adv-x="351" 
 />
    <glyph glyph-name="uni2005" unicode="&#x2005;" horiz-adv-x="263" 
 />
    <glyph glyph-name="uni2006" unicode="&#x2006;" horiz-adv-x="175" 
 />
    <glyph glyph-name="uni2007" unicode="&#x2007;" horiz-adv-x="175" 
 />
    <glyph glyph-name="uni2008" unicode="&#x2008;" horiz-adv-x="131" 
 />
    <glyph glyph-name="uni2009" unicode="&#x2009;" horiz-adv-x="210" 
 />
    <glyph glyph-name="uni200A" unicode="&#x200a;" horiz-adv-x="58" 
 />
    <glyph glyph-name="uni2010" unicode="&#x2010;" horiz-adv-x="432" 
d="M367 359v-113h-302v113h302z" />
    <glyph glyph-name="uni2011" unicode="&#x2011;" horiz-adv-x="432" 
d="M367 359v-113h-302v113h302z" />
    <glyph glyph-name="figuredash" unicode="&#x2012;" horiz-adv-x="432" 
d="M367 359v-113h-302v113h302z" />
    <glyph glyph-name="endash" unicode="&#x2013;" horiz-adv-x="563" 
d="M495 355v-106h-427v106h427z" />
    <glyph glyph-name="emdash" unicode="&#x2014;" horiz-adv-x="948" 
d="M880 355v-106h-812v106h812z" />
    <glyph glyph-name="quoteleft" unicode="&#x2018;" horiz-adv-x="267" 
d="M202 736v-52c-25 -5 -45 -17 -61 -37c-16 -19 -25 -42 -25 -67c7 5 16 7 28 7c20 0 37 -7 50 -20c13 -14 19 -31 19 -51c0 -21 -7 -39 -22 -52c-15 -14 -34 -21 -55 -21c-27 0 -49 9 -64 29c-15 19 -23 43 -23 71c0 48 14 91 41 127c28 37 65 59 112 66z" />
    <glyph glyph-name="quoteright" unicode="&#x2019;" horiz-adv-x="268" 
d="M70 441v52c25 5 45 17 61 37s24 42 25 67c-7 -5 -16 -7 -28 -7c-20 0 -37 7 -50 20c-13 14 -19 31 -19 51c0 22 7 39 22 53c15 13 34 20 55 20c28 0 49 -9 64 -29c15 -19 23 -43 23 -70c0 -49 -14 -92 -41 -128c-27 -37 -65 -59 -112 -66z" />
    <glyph glyph-name="quotesinglbase" unicode="&#x201a;" horiz-adv-x="279" 
d="M69 -152v52c25 5 45 17 61 37c16 19 24 42 25 67c-7 -4 -16 -7 -28 -7c-20 0 -37 7 -50 21c-13 13 -20 30 -20 50c0 22 8 39 23 53s34 20 55 20c27 0 49 -9 64 -29c15 -19 23 -43 23 -71c2 -93 -57 -179 -153 -193z" />
    <glyph glyph-name="quotedblleft" unicode="&#x201c;" horiz-adv-x="476" 
d="M202 736v-52c-25 -5 -45 -17 -61 -37c-16 -19 -25 -42 -25 -67c7 5 16 7 28 7c41 0 69 -30 69 -72c0 -21 -7 -38 -22 -52c-15 -13 -34 -20 -55 -20c-27 0 -49 9 -64 29c-15 19 -23 43 -23 71c0 48 14 91 41 127c28 37 65 59 112 66zM411 736v-52c-25 -5 -45 -17 -61 -37
c-15 -19 -24 -42 -25 -67c7 5 16 7 28 7c41 0 70 -30 70 -72c0 -21 -8 -38 -23 -52c-15 -13 -34 -20 -55 -20c-27 0 -49 9 -64 29c-15 19 -22 43 -22 71c0 48 13 91 41 127c27 37 64 59 111 66z" />
    <glyph glyph-name="quotedblright" unicode="&#x201d;" horiz-adv-x="478" 
d="M70 441v52c25 5 45 17 61 37s24 42 25 67c-7 -5 -16 -7 -28 -7c-20 0 -37 7 -50 20c-13 14 -19 31 -19 51c0 22 7 39 22 53c15 13 34 20 55 20c28 0 49 -9 64 -29c15 -19 23 -43 23 -70c0 -49 -14 -92 -41 -128c-27 -37 -65 -59 -112 -66zM280 441v52c24 5 45 17 60 37
c16 20 25 42 25 67c-7 -5 -16 -7 -27 -7c-42 0 -70 30 -70 71c0 22 7 39 22 53c15 13 34 20 55 20c28 0 49 -9 65 -29c15 -19 22 -43 22 -70c0 -49 -13 -92 -41 -128c-27 -37 -64 -59 -111 -66z" />
    <glyph glyph-name="quotedblbase" unicode="&#x201e;" horiz-adv-x="485" 
d="M68 -151v52c25 5 45 17 61 37c16 19 24 42 25 67c-7 -5 -16 -7 -28 -7c-20 0 -37 7 -50 21c-13 13 -20 30 -20 50c0 21 8 39 23 53c15 13 34 20 55 20c27 0 49 -9 64 -29c15 -19 23 -43 23 -71c2 -93 -57 -179 -153 -193zM276 -151v52c24 5 45 17 61 37
c16 19 24 42 24 67c-6 -5 -15 -7 -27 -7c-20 0 -37 7 -50 21c-14 13 -20 30 -20 50c0 21 8 39 23 53c15 13 33 20 55 20c27 0 48 -9 64 -29c15 -19 23 -43 23 -71c1 -93 -58 -179 -153 -193z" />
    <glyph glyph-name="dagger" unicode="&#x2020;" horiz-adv-x="585" 
d="M235 0v393h-179v104h179v192h114v-192h180v-104h-180v-393h-114z" />
    <glyph glyph-name="daggerdbl" unicode="&#x2021;" horiz-adv-x="585" 
d="M349 0v-192h-114v192h-179v104h179v289h-179v104h179v192h114v-192h180v-104h-180v-289h180v-104h-180z" />
    <glyph glyph-name="bullet" unicode="&#x2022;" horiz-adv-x="458" 
d="M229 177c-45 0 -83 16 -114 48c-32 31 -48 70 -48 115c0 44 16 83 48 115c31 33 70 49 114 49s82 -16 114 -49c32 -32 47 -71 47 -115c0 -45 -15 -84 -47 -115c-31 -32 -69 -48 -114 -48z" />
    <glyph glyph-name="ellipsis" unicode="&#x2026;" horiz-adv-x="838" 
d="M55 76c0 23 8 43 24 59c16 15 35 24 57 24c23 0 42 -9 58 -24c16 -16 23 -36 23 -59c0 -22 -7 -41 -23 -56c-16 -16 -35 -24 -58 -24c-22 0 -41 8 -57 24c-16 15 -24 34 -24 56zM337 76c0 23 8 43 24 59c16 15 35 24 58 24c22 0 41 -9 57 -24c16 -16 24 -36 24 -59
c0 -22 -8 -41 -24 -56c-16 -16 -35 -24 -57 -24c-23 0 -42 8 -58 24c-16 15 -24 34 -24 56zM620 76c0 23 8 43 24 59c16 15 35 24 57 24c23 0 43 -9 59 -24c15 -16 23 -36 23 -59c0 -22 -8 -41 -23 -56c-16 -16 -36 -24 -59 -24c-22 0 -41 8 -57 24c-16 15 -24 34 -24 56z
" />
    <glyph glyph-name="uni202F" unicode="&#x202f;" horiz-adv-x="210" 
 />
    <glyph glyph-name="perthousand" unicode="&#x2030;" horiz-adv-x="1189" 
d="M315 688c32 -32 48 -71 48 -116c0 -46 -16 -84 -48 -117c-32 -32 -71 -48 -116 -48c-46 0 -84 16 -117 48c-32 33 -48 71 -48 117c0 45 16 84 48 116c33 32 71 48 117 48c45 0 84 -16 116 -48zM115 0l475 729h109l-474 -729h-110zM249 522c14 14 21 30 21 50
c0 19 -7 36 -21 50s-31 21 -50 21c-20 0 -37 -7 -50 -21c-14 -14 -21 -31 -21 -50c0 -20 7 -36 21 -50c13 -14 30 -21 50 -21c19 0 36 7 50 21zM732 276c32 -32 48 -71 48 -116c0 -46 -16 -85 -48 -117s-71 -48 -117 -48c-45 0 -84 16 -116 48s-48 71 -48 117
c0 45 16 84 48 116s71 48 116 48c46 0 85 -16 117 -48zM665 110c15 13 21 30 21 50c0 19 -6 36 -21 50c-14 14 -30 20 -50 20c-19 0 -35 -6 -50 -20c-14 -14 -20 -31 -20 -50c0 -20 6 -37 20 -50c15 -15 31 -21 50 -21c20 0 36 6 50 21zM1107 276c32 -32 48 -71 48 -116
c0 -46 -16 -85 -48 -117s-71 -48 -117 -48c-45 0 -84 16 -116 48s-48 71 -48 117c0 45 16 84 48 116s71 48 116 48c46 0 85 -16 117 -48zM1041 110c14 13 20 30 20 50c0 19 -6 36 -20 50s-31 20 -51 20c-19 0 -36 -6 -50 -20s-20 -31 -20 -50c0 -20 6 -37 20 -50
c14 -15 31 -21 50 -21c20 0 37 6 51 21z" />
    <glyph glyph-name="guilsinglleft" unicode="&#x2039;" horiz-adv-x="358" 
d="M306 423l-146 -143l146 -142l-65 -63l-208 205l209 206z" />
    <glyph glyph-name="guilsinglright" unicode="&#x203a;" horiz-adv-x="358" 
d="M198 280l-145 143l64 63l208 -206l-208 -205l-65 63z" />
    <glyph glyph-name="uni203D" unicode="&#x203d;" horiz-adv-x="534" 
d="M147 488l-110 4c-2 15 -2 28 -2 39c0 41 10 78 33 110c22 33 51 57 86 74c35 16 72 25 113 25c37 0 73 -8 108 -24c35 -15 64 -38 87 -68c23 -31 35 -65 35 -103c0 -75 -34 -128 -98 -174c-29 -20 -49 -38 -63 -55c-21 -25 -32 -56 -32 -91h-101l-9 310h114
c-1 -21 -2 -57 -3 -108c50 38 78 71 78 115c0 29 -12 53 -35 71c-24 18 -51 27 -81 27c-35 0 -64 -12 -87 -36s-35 -54 -35 -89c0 -8 1 -17 2 -27zM202 15c-14 14 -22 31 -22 51c0 21 8 38 22 52s31 22 51 22s37 -8 52 -22c14 -14 21 -31 21 -52c0 -20 -7 -37 -21 -51
s-32 -21 -52 -21s-37 7 -51 21z" />
    </font>
</defs>
</svg>
