
<svg xmlns="http://www.w3.org/2000/svg" version="1.1" xmlns:xlink="http://www.w3.org/1999/xlink" preserveAspectRatio="none" x="0px" y="0px" width="300px" height="34px" viewBox="0 0 300 34">
<defs>
<g id="Layer0_0_FILL">
<path fill="#27272F" stroke="none" d="
M 741.45 939.85
L 748.65 939.85 743.65 958.3 756 958.3 760.9 939.85 766.5 939.85 767.35 936.7 761.75 936.7 763.75 929.2 751.45 929.2 749.5 936.7 742.3 936.7 741.45 939.85
M 658.4 943.55
L 654.5 958.3 666.85 958.3 671.45 941.15 658.4 943.55
M 709.75 936.7
L 697.35 936.7 691.6 958.3 703.95 958.3 709.75 936.7
M 712.55 939.85
L 718.15 939.85 713.2 958.3 725.55 958.3 730.55 939.85 738.25 939.85 739.1 936.7 731.35 936.7 731.35 936.65 732.5 932.35 743.45 932.35 744.3 929.2 727.6 929.2
Q 724.8 929.2 722.5 930.8 720.1 932.4 719.55 934.5
L 718.95 936.65 718.95 936.7 713.4 936.7 712.55 939.85
M 699.4 929.2
L 698.1 934.15 710.45 934.15 711.8 929.2 699.4 929.2
M 629.3 936.7
Q 626.7 936.85 624.65 938.25 622.3 939.85 621.7 942
L 620.8 945.4
Q 620.6 946 620.6 946.5 620.6 948.4 622.1 949.55 623.45 950.55 625.3 950.7
L 639.95 950.7 638.9 954.65 593.3 954.65 597.15 940.35 605.4 940.35 601.75 953.9 614.8 951.5 620.8 929.2 608.4 929.2 606.4 936.7 592.4 936.7
Q 589.55 936.7 587.25 938.25 584.95 939.85 584.3 942
L 581.35 953
Q 581.15 953.55 581.15 954.15 581.15 956 582.7 957.15 584 958.15 585.85 958.3
L 643.65 958.3
Q 646.45 958.3 648.8 956.75 651.1 955.15 651.7 953 652 952 652.25 950.9 652.8 948.75 652.8 948.5 652.8 946.65 651.25 945.5 649.95 944.5 648.05 944.35
L 633.5 944.35 634.5 940.35 679.1 940.4 674.3 958.3 686.7 958.3 691.05 942
Q 691.2 941.45 691.2 940.85 691.2 939 689.7 937.85 688.4 936.85 686.5 936.7
L 672.65 936.7 674.65 929.2 662.3 929.2 660.25 936.7 629.3 936.7
M 491.85 924.95
L 489.7 924.95
Q 485.4 925.05 481.85 926.4 476.1 928.45 474.65 933.05
L 467.8 958.3 499.3 958.3 502.55 953 484.3 953 491.85 924.95
M 540.7 937.85
Q 539.35 936.85 537.5 936.7
L 516.75 936.65
Q 513.9 936.65 511.6 938.25 509.3 939.85 508.7 941.95
L 505.8 953
Q 505.6 953.55 505.6 954.15 505.6 956.05 507.1 957.15 508.45 958.15 510.3 958.3
L 530.95 958.3
Q 533.75 958.3 536.1 956.7 538.45 955.15 539 953
L 539.05 953 542 942
Q 542.2 941.45 542.2 940.85 542.2 939 540.7 937.85
M 526.3 954.55
L 526.25 954.55 526.2 954.65 517.7 954.65 521.5 940.35 530.1 940.35 526.3 954.55
M 553.15 936.65
L 552.25 939.8 567.75 939.8 567 942.45 552.75 942.45
Q 549.9 942.45 547.6 944.05 545.45 945.5 544.8 947.55
L 544.75 947.55 543.3 953 543.25 953
Q 543.1 953.55 543.1 954.15 543.1 956 544.6 957.15 545.9 958.15 547.8 958.3
L 575.1 958.3 579.5 942
Q 579.65 941.45 579.65 940.85 579.65 939 578.15 937.85 576.85 936.85 574.95 936.7
L 553.15 936.65
M 566 946.15
L 563.7 954.65 555.2 954.65 557.5 946.15 566 946.15 Z"/>
</g>
</defs>

<g transform="matrix( 1, 0, 0, 1, -467.8,-924.95) ">
<use xlink:href="#Layer0_0_FILL"/>
</g>
</svg>
