
<svg xmlns="http://www.w3.org/2000/svg" version="1.1" xmlns:xlink="http://www.w3.org/1999/xlink" preserveAspectRatio="none" x="0px" y="0px" width="340px" height="340px" viewBox="0 0 340 340">
<defs>
<linearGradient id="Gradient_1" gradientUnits="userSpaceOnUse" x1="573.925" y1="472.9" x2="1126.4750000000001" y2="472.9" spreadMethod="pad">
<stop  offset="0%" stop-color="#EF2E67"/>

<stop  offset="100%" stop-color="#1FB5C3"/>
</linearGradient>

<g id="Layer0_0_FILL">
<path fill="#1B1B21" stroke="none" d="
M 914 648
L 914 308 574 308 574 648 914 648 Z"/>
</g>

<g id="Layer0_1_FILL">
<path fill="#FFFFFF" stroke="none" d="
M 670.7 543.3
L 670.7 526.2 601 526.2 601 543.3 626.05 543.3 626.05 614.45 645.65 614.45 645.65 543.3 670.7 543.3
M 705.65 543.85
Q 708.55 541.5 713.45 541.5 725.7 541.5 737.15 550.25
L 747.15 535.85
Q 740.55 530.25 731.75 527.25 722.9 524.25 714.1 524.25 700.55 524.25 691.6 531.05 682.55 537.9 682.55 550.45 682.55 556.7 684.3 561.3 686.1 565.9 689.7 568.9 696.85 574.7 712.1 578.35 721.85 580.75 725.15 583.1 728.45 585.45 728.45 589.35 728.45 593.35 725.3 595.75 722.3 598.05 716.8 598.05 704.75 598.05 690.45 585.55
L 678.75 599.95
Q 695.5 615.45 716.45 615.45 723.75 615.45 729.55 613.6 735.45 611.7 739.85 608.1 748.7 600.7 748.7 588.8 748.7 582.9 747 578.4 745.25 573.95 741.85 570.8 734.9 564.6 722.3 561.55 709.8 558.45 706.3 556.2 702.85 553.9 702.85 550.05 702.85 546.2 705.65 543.85
M 670.7 451.2
L 670.7 434.1 601 434.1 601 451.2 626.05 451.2 626.05 522.35 645.65 522.35 645.65 451.2 670.7 451.2
M 744.2 486.6
L 744.2 469.85 704.75 469.85 704.75 451.7 748.65 451.7 748.65 434.1 685.05 434.1 685.05 522.35 750.05 522.35 750.05 504.9 704.75 504.9 704.75 486.6 744.2 486.6
M 848.95 434.1
L 829.25 434.1 829.25 490.95 785.95 434.1 767.55 434.1 767.55 522.35 787.25 522.35 787.25 467.1 829.25 522.35 848.95 522.35 848.95 434.1
M 886.25 342
L 866.55 342 866.55 398.85 823.2 342 804.85 342 804.85 430.25 824.55 430.25 824.55 375 866.55 430.25 886.25 430.25 886.25 342
M 708.95 353.15
Q 702.3 359.65 698.95 367.7 695.65 375.85 695.65 385.6 695.65 405 708.95 418.05 722.35 431.1 742 431.1 761.45 431.1 774.85 418.05 781.6 411.5 784.9 403.45 788.25 395.35 788.25 385.6 788.25 375.85 784.9 367.7 781.6 359.65 774.85 353.15 761.45 340 742 340 722.35 340 708.95 353.15
M 715.85 385.65
Q 715.85 373.9 723.4 365.45 727.2 361.35 731.8 359.3 736.45 357.2 742 357.2 753.05 357.2 760.6 365.45 768.2 373.9 768.2 385.65 768.2 397.45 760.6 405.7 753.05 413.95 742 413.95 736.45 413.95 731.8 411.85 727.2 409.85 723.4 405.7 715.85 397.45 715.85 385.65
M 650.2 358.8
Q 664.1 358.8 673.5 370.45
L 685.75 356.55
Q 671.05 340 649.4 340 629.9 340 616.5 353.15 603.05 366.3 603.05 385.85 603.05 405.55 616.2 418.3 629.4 431.2 649.8 431.2 659.95 431.2 668.85 427 677.65 422.8 685.2 414.3
L 672.6 401.35
Q 663.4 412.8 648.9 412.8 643.55 412.8 639 410.95 634.5 409.15 630.8 405.4 627.1 401.65 625.25 396.75 623.35 391.8 623.35 385.65 623.35 379.5 625.35 374.6 627.3 369.65 631.3 366.1 639.15 358.8 650.2 358.8 Z"/>
</g>

<path id="Layer0_0_1_STROKES" stroke="url(#Gradient_1)" stroke-width="1" stroke-linejoin="round" stroke-linecap="round" fill="none" d="
M 914 648
L 574 648 574 308 914 308 914 648 Z"/>
</defs>

<g transform="matrix( 1, 0, 0, 1, -574,-308) ">
<use xlink:href="#Layer0_0_FILL"/>

<use xlink:href="#Layer0_0_1_STROKES"/>
</g>

<g transform="matrix( 1, 0, 0, 1, -574,-308) ">
<use xlink:href="#Layer0_1_FILL"/>
</g>
</svg>
