
<svg xmlns="http://www.w3.org/2000/svg" version="1.1" xmlns:xlink="http://www.w3.org/1999/xlink" preserveAspectRatio="none" x="0px" y="0px" width="513px" height="509px" viewBox="0 0 513 509">
<defs>
<g id="Layer5_0_FILL">
<path fill="#2196A0" stroke="none" d="
M 239.55 245.85
Q 236.95 243.25 233.25 243.25 229.6 243.25 226.95 245.85 224.35 248.5 224.35 252.15 224.35 255.85 226.95 258.45 229.6 261.05 233.25 261.05 236.95 261.05 239.55 258.45 242.15 255.85 242.15 252.15 242.15 248.45 239.55 245.85 Z"/>
</g>

<g id="Layer5_1_FILL">
<path fill="#3D84D1" stroke="none" d="
M 229.4 342.2
Q 229.4 339.5 227.5 337.6 225.6 335.7 222.9 335.7 220.2 335.7 218.3 337.6 216.35 339.5 216.35 342.2 216.35 344.9 218.3 346.8 220.2 348.7 222.9 348.7 225.6 348.7 227.5 346.8 229.4 344.9 229.4 342.2 Z"/>
</g>

<g id="Layer5_2_FILL">
<path fill="#45A7E0" stroke="none" d="
M 521.85 465.5
Q 519.65 467.7 519.65 470.85 519.65 474 521.85 476.25 524.05 478.45 527.2 478.45 530.35 478.45 532.6 476.25 534.8 474 534.8 470.85 534.8 467.7 532.6 465.5 530.35 463.25 527.2 463.25 524.05 463.25 521.85 465.5 Z"/>
</g>

<g id="Layer5_3_FILL">
<path fill="#45A7E0" stroke="none" d="
M 308.65 241.65
Q 308.65 239 306.8 237.1 304.9 235.2 302.25 235.2 299.6 235.2 297.7 237.1 295.8 239 295.8 241.65 295.8 244.3 297.7 246.2 299.6 248.1 302.25 248.1 304.9 248.1 306.8 246.2 308.65 244.3 308.65 241.65 Z"/>
</g>

<g id="Layer5_4_FILL">
<path fill="#45A7E0" stroke="none" d="
M 458.5 307.55
Q 458.5 303.65 455.75 300.9 453 298.15 449.15 298.15 445.25 298.15 442.5 300.9 439.75 303.65 439.75 307.55 439.75 311.4 442.5 314.15 445.25 316.9 449.15 316.9 453 316.9 455.75 314.15 458.5 311.4 458.5 307.55 Z"/>
</g>

<g id="Layer5_5_FILL">
<path fill="#3D84D1" stroke="none" d="
M 633.1 384.05
Q 633.1 380.55 630.65 378.1 628.2 375.6 624.7 375.6 621.2 375.6 618.7 378.1 616.25 380.55 616.25 384.05 616.25 387.55 618.7 390 621.2 392.45 624.7 392.45 628.2 392.45 630.65 390 633.1 387.55 633.1 384.05 Z"/>
</g>

<g id="Layer5_6_FILL">
<path fill="#45A7E0" stroke="none" d="
M 338.85 205.9
Q 338.85 202.75 336.65 200.55 334.4 198.3 331.25 198.3 328.1 198.3 325.9 200.55 323.65 202.75 323.65 205.9 323.65 209 325.9 211.25 328.1 213.5 331.25 213.5 334.4 213.5 336.65 211.25 338.85 209 338.85 205.9 Z"/>
</g>

<g id="Layer5_7_FILL">
<path fill="#3D84D1" stroke="none" d="
M 627 353.15
Q 627 350.95 625.45 349.35 623.85 347.8 621.65 347.8 619.4 347.8 617.85 349.35 616.25 350.95 616.25 353.15 616.25 355.4 617.85 357 619.4 358.55 621.65 358.55 623.85 358.55 625.45 357 627 355.4 627 353.15 Z"/>
</g>

<g id="Layer5_8_FILL">
<path fill="#3D84D1" stroke="none" d="
M 637.7 438.7
Q 637.7 435.4 635.35 433.05 633 430.7 629.65 430.7 626.35 430.7 624 433.05 621.65 435.4 621.65 438.7 621.65 442.05 624 444.4 626.35 446.75 629.65 446.75 633 446.75 635.35 444.4 637.7 442.05 637.7 438.7 Z"/>
</g>

<path id="Layer0_0_1_STROKES" stroke="#000000" stroke-opacity="0" stroke-width="1" stroke-linejoin="round" stroke-linecap="round" fill="none" d="
M 0 0
L 513 0 513 509 0 509 0 0 Z"/>
</defs>

<g transform="matrix( 1, 0, 0, 1, -131.5,-188.95) ">
<use xlink:href="#Layer5_0_FILL"/>
</g>

<g transform="matrix( 1, 0, 0, 1, -131.5,-188.95) ">
<use xlink:href="#Layer5_1_FILL"/>
</g>

<g transform="matrix( 1, 0, 0, 1, -131.5,-188.95) ">
<use xlink:href="#Layer5_2_FILL"/>
</g>

<g transform="matrix( 1, 0, 0, 1, -131.5,-188.95) ">
<use xlink:href="#Layer5_3_FILL"/>
</g>

<g transform="matrix( 1, 0, 0, 1, -131.5,-188.95) ">
<use xlink:href="#Layer5_4_FILL"/>
</g>

<g transform="matrix( 1, 0, 0, 1, -131.5,-188.95) ">
<use xlink:href="#Layer5_5_FILL"/>
</g>

<g transform="matrix( 1, 0, 0, 1, -131.5,-188.95) ">
<use xlink:href="#Layer5_6_FILL"/>
</g>

<g transform="matrix( 1, 0, 0, 1, -131.5,-188.95) ">
<use xlink:href="#Layer5_7_FILL"/>
</g>

<g transform="matrix( 1, 0, 0, 1, -131.5,-188.95) ">
<use xlink:href="#Layer5_8_FILL"/>
</g>

<g transform="matrix( 1, 0, 0, 1, 0,0) ">
<use xlink:href="#Layer0_0_1_STROKES"/>
</g>
</svg>
