
<svg xmlns="http://www.w3.org/2000/svg" version="1.1" xmlns:xlink="http://www.w3.org/1999/xlink" preserveAspectRatio="none" x="0px" y="0px" width="513px" height="509px" viewBox="0 0 513 509">
<defs>
<g id="Layer4_0_FILL">
<path fill="#E5A536" stroke="none" d="
M 281 235.2
Q 281 232.4 279.05 230.45 277.05 228.45 274.25 228.45 271.5 228.45 269.5 230.45 267.5 232.45 267.5 235.2 267.5 238 269.5 240 271.45 241.95 274.25 241.95 277.05 241.95 279.05 240 281 238 281 235.2 Z"/>
</g>

<g id="Layer4_1_FILL">
<path fill="#CA4F30" stroke="none" d="
M 346.9 243.25
Q 346.9 239.9 344.55 237.55 342.2 235.2 338.85 235.2 335.55 235.2 333.2 237.55 330.85 239.9 330.85 243.25 330.85 246.55 333.2 248.9 335.55 251.25 338.85 251.25 342.2 251.25 344.55 248.9 346.9 246.55 346.9 243.25 Z"/>
</g>

<g id="Layer4_2_FILL">
<path fill="#E48232" stroke="none" d="
M 160.95 326.75
Q 158.65 324.45 155.4 324.45 152.2 324.45 149.9 326.75 147.65 329 147.65 332.25 147.65 335.5 149.9 337.75 152.2 340.05 155.4 340.05 158.65 340.05 160.95 337.75 163.2 335.5 163.2 332.25 163.2 329 160.95 326.75 Z"/>
</g>

<g id="Layer4_3_FILL">
<path fill="#E35E2F" stroke="none" d="
M 439.55 443.65
Q 439.55 439.2 436.4 436 433.25 432.85 428.8 432.85 424.35 432.85 421.15 436 418 439.2 418 443.65 418 448.1 421.15 451.25 424.35 454.4 428.8 454.4 433.25 454.4 436.4 451.25 439.55 448.1 439.55 443.65 Z"/>
</g>

<g id="Layer4_4_FILL">
<path fill="#E5A536" stroke="none" d="
M 512.15 409.6
Q 512.15 405.85 509.5 403.2 506.85 400.55 503.15 400.55 499.4 400.55 496.75 403.2 494.1 405.85 494.1 409.6 494.1 413.3 496.75 415.95 499.4 418.6 503.15 418.6 506.85 418.6 509.5 415.95 512.15 413.3 512.15 409.6 Z"/>
</g>

<g id="Layer4_5_FILL">
<path fill="#E35E2F" stroke="none" d="
M 409.7 429
Q 409.7 426.1 407.65 424 405.6 421.95 402.65 421.95 399.75 421.95 397.7 424 395.65 426.1 395.65 429 395.65 431.9 397.7 433.95 399.75 436 402.65 436 405.55 436 407.65 433.95 409.7 431.9 409.7 429 Z"/>
</g>

<g id="Layer4_6_FILL">
<path fill="#E5A536" stroke="none" d="
M 423.7 464.35
Q 423.7 461.45 421.65 459.4 419.6 457.35 416.7 457.35 413.8 457.35 411.75 459.4 409.7 461.45 409.7 464.35 409.7 467.3 411.75 469.35 413.8 471.4 416.7 471.4 419.6 471.4 421.65 469.35 423.7 467.25 423.7 464.35 Z"/>
</g>

<g id="Layer4_7_FILL">
<path fill="#E35E2F" stroke="none" d="
M 350.9 470.75
Q 350.9 468.25 349.15 466.45 347.35 464.7 344.85 464.7 342.35 464.7 340.6 466.45 338.85 468.25 338.85 470.75 338.85 473.25 340.6 475 342.4 476.75 344.85 476.75 347.35 476.75 349.15 475 350.9 473.25 350.9 470.75 Z"/>
</g>

<g id="Layer4_8_FILL">
<path fill="#E48232" stroke="none" d="
M 403.35 509.05
Q 399.2 509.05 396.25 512 393.35 514.95 393.35 519.1 393.35 523.25 396.25 526.2 399.2 529.15 403.35 529.15 407.5 529.15 410.45 526.2 413.4 523.25 413.4 519.1 413.4 514.95 410.45 512 407.5 509.05 403.35 509.05 Z"/>
</g>

<g id="Layer4_9_FILL">
<path fill="#E35E2F" stroke="none" d="
M 443.35 481.4
Q 440.15 481.4 437.95 483.65 435.7 485.85 435.7 489 435.7 492.15 437.95 494.4 440.15 496.65 443.35 496.65 446.5 496.65 448.75 494.4 450.95 492.15 450.95 489 450.95 485.85 448.75 483.65 446.5 481.4 443.35 481.4 Z"/>
</g>

<g id="Layer4_10_FILL">
<path fill="#E35E2F" stroke="none" d="
M 456.35 524.1
Q 456.35 522.05 454.9 520.55 453.4 519.1 451.3 519.1 449.25 519.1 447.75 520.55 446.3 522.05 446.3 524.1 446.3 526.2 447.75 527.7 449.25 529.15 451.3 529.15 453.4 529.15 454.9 527.7 456.35 526.2 456.35 524.1 Z"/>
</g>

<g id="Layer4_11_FILL">
<path fill="#CA4F30" stroke="none" d="
M 438 569.15
Q 438 566.2 435.9 564.1 433.8 562 430.85 562 427.9 562 425.8 564.1 423.7 566.2 423.7 569.15 423.7 572.1 425.8 574.2 427.9 576.3 430.85 576.3 433.8 576.3 435.9 574.2 438 572.1 438 569.15 Z"/>
</g>

<g id="Layer4_12_FILL">
<path fill="#E35E2F" stroke="none" d="
M 439.75 538.65
Q 439.75 536.25 438.1 534.6 436.4 532.9 434 532.9 431.6 532.9 429.9 534.6 428.2 536.25 428.2 538.65 428.2 541.05 429.9 542.75 431.6 544.45 434 544.45 436.4 544.45 438.1 542.75 439.75 541.05 439.75 538.65 Z"/>
</g>

<g id="Layer4_13_FILL">
<path fill="#E35E2F" stroke="none" d="
M 393.75 540.6
Q 391.8 538.65 389.1 538.65 386.35 538.65 384.45 540.6 382.5 542.5 382.5 545.2 382.5 547.95 384.45 549.85 386.35 551.8 389.1 551.8 391.8 551.8 393.75 549.85 395.65 547.95 395.65 545.2 395.65 542.5 393.75 540.6 Z"/>
</g>

<path id="Layer0_0_1_STROKES" stroke="#000000" stroke-opacity="0" stroke-width="1" stroke-linejoin="round" stroke-linecap="round" fill="none" d="
M 0 0
L 513 0 513 509 0 509 0 0 Z"/>
</defs>

<g transform="matrix( 1, 0, 0, 1, -131.5,-188.95) ">
<use xlink:href="#Layer4_0_FILL"/>
</g>

<g transform="matrix( 1, 0, 0, 1, -131.5,-188.95) ">
<use xlink:href="#Layer4_1_FILL"/>
</g>

<g transform="matrix( 1, 0, 0, 1, -131.5,-188.95) ">
<use xlink:href="#Layer4_2_FILL"/>
</g>

<g transform="matrix( 1, 0, 0, 1, -131.5,-188.95) ">
<use xlink:href="#Layer4_3_FILL"/>
</g>

<g transform="matrix( 1, 0, 0, 1, -131.5,-188.95) ">
<use xlink:href="#Layer4_4_FILL"/>
</g>

<g transform="matrix( 1, 0, 0, 1, -131.5,-188.95) ">
<use xlink:href="#Layer4_5_FILL"/>
</g>

<g transform="matrix( 1, 0, 0, 1, -131.5,-188.95) ">
<use xlink:href="#Layer4_6_FILL"/>
</g>

<g transform="matrix( 1, 0, 0, 1, -131.5,-188.95) ">
<use xlink:href="#Layer4_7_FILL"/>
</g>

<g transform="matrix( 1, 0, 0, 1, -131.5,-188.95) ">
<use xlink:href="#Layer4_8_FILL"/>
</g>

<g transform="matrix( 1, 0, 0, 1, -131.5,-188.95) ">
<use xlink:href="#Layer4_9_FILL"/>
</g>

<g transform="matrix( 1, 0, 0, 1, -131.5,-188.95) ">
<use xlink:href="#Layer4_10_FILL"/>
</g>

<g transform="matrix( 1, 0, 0, 1, -131.5,-188.95) ">
<use xlink:href="#Layer4_11_FILL"/>
</g>

<g transform="matrix( 1, 0, 0, 1, -131.5,-188.95) ">
<use xlink:href="#Layer4_12_FILL"/>
</g>

<g transform="matrix( 1, 0, 0, 1, -131.5,-188.95) ">
<use xlink:href="#Layer4_13_FILL"/>
</g>

<g transform="matrix( 1, 0, 0, 1, 0,0) ">
<use xlink:href="#Layer0_0_1_STROKES"/>
</g>
</svg>
