
<svg xmlns="http://www.w3.org/2000/svg" version="1.1" xmlns:xlink="http://www.w3.org/1999/xlink" preserveAspectRatio="none" x="0px" y="0px" width="1004px" height="573px" viewBox="0 0 1004 573">
<defs>
<g id="Layer1_1_FILL">
<path fill="#9D9C9E" stroke="none" d="
M 439.5 549.5
L 439.85 551.9 439.55 549.45 439.5 549.5 Z"/>
</g>

<g id="Layer1_1_MEMBER_0_FILL">
<path fill="#3A393C" stroke="none" d="
M 908 26
Q 908 15.25 900.35 7.6 892.75 0 882 0
L 120.05 0
Q 109.3 0 101.65 7.6 94.05 15.25 94.05 26
L 94.1 557.95 908 557.95 908 26
M 882 28
L 882 515 122 515 122 28 882 28 Z"/>
</g>

<g id="Layer1_1_MEMBER_1_MEMBER_0_FILL">
<path fill="#3A393C" stroke="none" d="
M 1003.9 552.1
L 994.05 552.1
Q 993.6 552.05 993.25 552.05
L 10.65 552.05
Q 10.3 552.05 9.85 552.1
L 0 552.1 0 559
Q 16.4 574.1 117 573.05
L 886.9 573.05
Q 987.5 574.1 1003.9 559
L 1003.9 552.1 Z"/>
</g>

<g id="Layer1_1_MEMBER_1_MEMBER_1_FILL">
<path fill="#333333" stroke="none" d="
M 912 558.95
Q 912.35 559 912.7 559
L 1003.95 559 1003.95 548
Q 1003.95 543 998.95 543
L 977.95 543 977.95 542.95 29 542.95 29 543 5.05 543
Q 0.05 543 0.05 548
L 0.05 559 93.05 559
Q 93.55 559 94 558.95
L 912 558.95
M 440.15 554
L 439.5 549.5 439.55 549.45 439.6 549.45 440.15 554 Z"/>
</g>

<g id="Layer1_1_MEMBER_1_MEMBER_1_MEMBER_0_FILL">
<path fill="#474747" stroke="none" d="
M 573.4 544
L 573.35 542.95 430.7 542.95
Q 430.65 543.35 430.65 543.75
L 430.65 544
Q 430.65 548.15 433.4 551.05 436.2 554 440.1 554
L 563.95 554
Q 567.9 554 570.6 551.05 573.4 548.15 573.4 544 Z"/>
</g>

<path id="Layer1_0_MEMBER_0_1_STROKES" stroke="#00FF00" stroke-width="0.1" stroke-linejoin="round" stroke-linecap="round" fill="none" d="
M 213 140.95
L 974.95 140.95
Q 985.7 140.95 993.3 148.55 1000.95 156.2 1000.95 166.95
L 1000.95 669.9
Q 1000.95 680.65 993.3 688.25 985.7 695.9 974.95 695.9
L 213 695.9
Q 202.25 695.9 194.6 688.25 187 680.65 187 669.9
L 187 166.95
Q 187 156.2 194.6 148.55 202.25 140.95 213 140.95 Z"/>

<path id="Layer1_0_MEMBER_1_1_STROKES" stroke="#00FF00" stroke-width="0.1" stroke-linejoin="round" stroke-linecap="round" fill="none" d="
M 207 168.95
L 980.95 168.95 980.95 655.95 207 655.95 207 168.95 Z"/>

<path id="Layer1_0_MEMBER_2_1_STROKES" stroke="#00FF00" stroke-width="0.1" stroke-linejoin="round" stroke-linecap="round" fill="none" d="
M 1826.3618530273438 358.84999999999997
L 1950.2057861328126 358.84999999999997
Q 1954.1290863037111 358.84999999999997 1956.870669555664 361.74999999999994 1959.659521484375 364.7 1959.659521484375 368.84999999999997 1959.659521484375 372.99999999999994 1956.870669555664 375.90000000000003 1954.1290863037111 378.84999999999997 1950.2057861328126 378.84999999999997
L 1826.3618530273438 378.84999999999997
Q 1822.4385528564453 378.84999999999997 1819.6497009277346 375.90000000000003 1816.9081176757813 372.99999999999994 1816.9081176757813 368.84999999999997 1816.9081176757813 364.7 1819.6497009277346 361.74999999999994 1822.4385528564453 358.84999999999997 1826.3618530273438 358.84999999999997 Z"/>

<path id="Layer1_0_MEMBER_3_1_STROKES" stroke="#00FF00" stroke-width="0.1" stroke-linejoin="round" stroke-linecap="round" fill="none" d="
M 1889.35 396.8
L 2327.35 396.8"/>

<path id="Layer1_0_MEMBER_3_MEMBER_0_1_STROKES" stroke="#00FF00" stroke-width="0.1" stroke-linejoin="round" stroke-linecap="round" fill="none" d="
M 1390.2594848632812 367.8
L 2386.2310485839844 367.8
Q 2389.231414794922 367.8 2389.231414794922 370.8
L 2389.231414794922 380.8
Q 2389.231414794922 383.8 2386.2310485839844 383.8
L 1390.2594848632812 383.8
Q 1387.2591186523437 383.8 1387.2591186523437 380.8
L 1387.2591186523437 370.8
Q 1387.2591186523437 367.8 1390.2594848632812 367.8 Z"/>

<path id="Layer1_1_MEMBER_0_1_STROKES" stroke="#3A393C" stroke-width="0.1" stroke-linejoin="round" stroke-linecap="round" fill="none" d="
M 120.05 0
L 882 0
Q 892.75 0 900.35 7.6 908 15.25 908 26
L 908 557.95 94.1 557.95 94.05 26
Q 94.05 15.25 101.65 7.6 109.3 0 120.05 0 Z
M 882 28
L 882 515 122 515 122 28 882 28 Z"/>

<path id="Layer1_1_MEMBER_1_MEMBER_0_1_STROKES" stroke="#3A393C" stroke-width="0.1" stroke-linejoin="round" stroke-linecap="round" fill="none" d="
M 1003.9 552.1
L 994.05 552.1
Q 993.6 552.05 993.25 552.05
L 10.65 552.05
Q 10.3 552.05 9.85 552.1
L 0 552.1
M 0 559
Q 16.4 574.1 117 573.05
L 886.9 573.05
Q 987.5 574.1 1003.9 559"/>

<path id="Layer1_1_MEMBER_1_MEMBER_1_1_STROKES" stroke="#3A393C" stroke-width="0.1" stroke-linejoin="round" stroke-linecap="round" fill="none" d="
M 29 542.95
L 977.95 542.95 977.95 543 998.95 543
Q 1003.95 543 1003.95 548
L 1003.95 559 912.7 559
Q 912.35 559 912 558.95
L 94 558.95
Q 93.55 559 93.05 559
L 0.05 559 0.05 548
Q 0.05 543 5.05 543
L 29 543 29 542.95 Z"/>
</defs>

<g transform="matrix( 1, 0, 0, 1, 1294.3,-316.1) ">
<use xlink:href="#Layer1_0_MEMBER_0_1_STROKES"/>
</g>

<g transform="matrix( 1, 0, 0, 1, 1294.3,-316.1) ">
<use xlink:href="#Layer1_0_MEMBER_1_1_STROKES"/>
</g>

<g transform="matrix( 0.94537353515625, 0, 0, 1, 1328.15,-313.05) ">
<use xlink:href="#Layer1_0_MEMBER_2_1_STROKES" transform="matrix( 1.057769775390625, 0, 0, 0.9999847412109375, -1404.85,313.05) "/>
</g>

<g transform="matrix( 1, 0, 0, 1, 0,0) ">
<use xlink:href="#Layer1_0_MEMBER_3_1_STROKES"/>
</g>

<g transform="matrix( 1.0001220703125, 0, 0, 1, 493.25,-43.15) ">
<use xlink:href="#Layer1_0_MEMBER_3_MEMBER_0_1_STROKES" transform="matrix( 0.9998779296875, 0, 0, 1, -493.15,43.15) "/>
</g>

<g transform="matrix( 1, 0, 0, 1, 0,0) ">
<use xlink:href="#Layer1_1_FILL"/>
</g>

<g transform="matrix( 1, 0, 0, 1, 0,0) ">
<use xlink:href="#Layer1_1_MEMBER_0_FILL"/>

<use xlink:href="#Layer1_1_MEMBER_0_1_STROKES"/>
</g>

<g transform="matrix( 1, 0, 0, 1, 0,0) ">
<use xlink:href="#Layer1_1_MEMBER_1_MEMBER_0_FILL"/>

<use xlink:href="#Layer1_1_MEMBER_1_MEMBER_0_1_STROKES"/>
</g>

<g transform="matrix( 1, 0, 0, 1, 0,0) ">
<use xlink:href="#Layer1_1_MEMBER_1_MEMBER_1_FILL"/>

<use xlink:href="#Layer1_1_MEMBER_1_MEMBER_1_1_STROKES"/>
</g>

<g transform="matrix( 1, 0, 0, 1, 0,0) ">
<use xlink:href="#Layer1_1_MEMBER_1_MEMBER_1_MEMBER_0_FILL"/>
</g>
</svg>
