
<svg xmlns="http://www.w3.org/2000/svg" version="1.1" xmlns:xlink="http://www.w3.org/1999/xlink" preserveAspectRatio="none" x="0px" y="0px" width="222px" height="469px" viewBox="0 0 222 469">
<defs>
<g id="Layer0_0_FILL">
<path fill="#FFFFFF" stroke="none" d="
M 596.7 6205.65
Q 564.75 6205.65 564.75 6237.6
L 564.75 6642.05
Q 564.75 6674 596.7 6674
L 754.25 6674
Q 786.2 6674 786.2 6642.05
L 786.2 6237.6
Q 786.2 6205.65 754.25 6205.65
L 596.7 6205.65
M 581.8 6273.8
L 769.15 6273.8 769.15 6605.95 581.8 6605.95 581.8 6273.8
M 662.25 6627.75
Q 667.7 6622.35 675.5 6622.35 683.25 6622.35 688.55 6627.75 694.1 6633.2 694.1 6641 694.1 6648.75 688.55 6654.1 683.25 6659.6 675.5 6659.6 667.7 6659.6 662.25 6654.1 656.85 6648.75 656.85 6641 656.85 6633.2 662.25 6627.75 Z"/>

<path fill="#E8E8E8" stroke="none" d="
M 675.5 6622.35
Q 667.7 6622.35 662.25 6627.75 656.85 6633.2 656.85 6641 656.85 6648.75 662.25 6654.1 667.7 6659.6 675.5 6659.6 683.25 6659.6 688.55 6654.1 694.1 6648.75 694.1 6641 694.1 6633.2 688.55 6627.75 683.25 6622.35 675.5 6622.35 Z"/>
</g>

<path id="Layer0_0_1_STROKES" stroke="#FFFFFF" stroke-width="2.5" stroke-linejoin="round" stroke-linecap="round" fill="none" d="
M 581.8 6273.8
L 769.15 6273.8 769.15 6605.95 581.8 6605.95 581.8 6273.8 Z"/>

<path id="Layer0_0_2_STROKES" stroke="#FFFFFF" stroke-width="2" stroke-linejoin="round" stroke-linecap="round" fill="none" d="
M 694.1 6641
Q 694.1 6648.75 688.55 6654.1 683.25 6659.6 675.5 6659.6 667.7 6659.6 662.25 6654.1 656.85 6648.75 656.85 6641 656.85 6633.2 662.25 6627.75 667.7 6622.35 675.5 6622.35 683.25 6622.35 688.55 6627.75 694.1 6633.2 694.1 6641 Z"/>
</defs>

<g transform="matrix( 1, 0, 0, 1, -564.75,-6205.65) ">
<use xlink:href="#Layer0_0_FILL"/>

<use xlink:href="#Layer0_0_1_STROKES"/>

<use xlink:href="#Layer0_0_2_STROKES"/>
</g>
</svg>
