
<svg xmlns="http://www.w3.org/2000/svg" version="1.1" xmlns:xlink="http://www.w3.org/1999/xlink" preserveAspectRatio="none" x="0px" y="0px" width="320px" height="676px" viewBox="0 0 320 676">
<defs>
<g id="Layer1_0_FILL">
<path fill="#FFFFFF" stroke="none" d="
M 70.2 -19.25
Q 65.5064453125 -14.5564453125 62.4 -9.2 56.5 1.0791015625 56.5 13.8
L 56.5 596.3
Q 56.5 613.4759765625 67.3 626.2 68.6607421875 627.8107421875 70.2 629.35 83.9 643.05 103.25 643.05
L 329.75 643.05
Q 349.1 643.05 362.8 629.35 364.3392578125 627.8107421875 365.7 626.2 376.5 613.4759765625 376.5 596.3
L 376.5 13.8
Q 376.5 1.0791015625 370.55 -9.2 367.4935546875 -14.5564453125 362.8 -19.25 349.1 -32.95 329.75 -32.95
L 103.25 -32.95
Q 83.9 -32.95 70.2 -19.25
M 76 58.05
L 357 58.05 357 551 76 551 76 58.05 Z"/>
</g>

<g id="Layer1_0_MEMBER_0_FILL">
<path fill="#E8E8E8" stroke="none" d="
M 234.85 578.6
Q 227.25 571 216.5 571 205.75 571 198.1 578.6 190.5 586.25 190.5 597 190.5 607.75 198.1 615.35 205.75 623 216.5 623 227.25 623 234.85 615.35 242.5 607.75 242.5 597 242.5 586.25 234.85 578.6 Z"/>
</g>

<path id="Layer1_0_1_STROKES" stroke="#FFFFFF" stroke-width="0.1" stroke-linejoin="round" stroke-linecap="round" fill="none" d="
M 76 58.05
L 357 58.05 357 551 76 551 76 58.05 Z"/>
</defs>

<g transform="matrix( 1, 0, 0, 1, -56.5,32.95) ">
<use xlink:href="#Layer1_0_FILL"/>

<use xlink:href="#Layer1_0_1_STROKES"/>
</g>

<g transform="matrix( 1, 0, 0, 1, -56.5,32.95) ">
<use xlink:href="#Layer1_0_MEMBER_0_FILL"/>
</g>
</svg>
