
<svg xmlns="http://www.w3.org/2000/svg" version="1.1" xmlns:xlink="http://www.w3.org/1999/xlink" preserveAspectRatio="none" x="0px" y="0px" width="858px" height="148px" viewBox="0 0 858 148">
<defs>
<g id="Layer0_0_FILL">
<path fill="#E4E6E8" stroke="none" d="
M 229.75 93.55
Q 229.75 70.4 213.7 54.55 197.7 38.6 173.55 38.6 149.3 38.6 133.3 54.55 117.25 70.4 117.25 93.55 117.25 116.7 133.3 132.55 149.3 148.3 173.55 148.3 197.7 148.3 213.7 132.55 229.75 116.7 229.75 93.55
M 173.55 63.9
Q 185.05 63.9 192.5 72.2 199.9 80.5 199.9 93.55 199.9 106.6 192.5 114.8 185.05 123 173.55 123 161.95 123 154.55 114.8 147.1 106.6 147.1 93.55 147.1 80.5 154.55 72.2 161.95 63.9 173.55 63.9
M 350.15 146.75
L 350.15 40.35 320.3 40.35 320.3 97.7
Q 320.3 109.95 313.75 116.45 307.25 122.8 298.4 122.8 280.35 122.8 280.35 98.3
L 280.35 40.35 250.5 40.35 250.5 104.85
Q 250.5 120.85 257.05 131.05 259.3 134.6 262.35 137.4 274.25 148.3 291.7 148.3 309.2 148.3 320.3 132.75
L 320.3 146.75 350.15 146.75
M 478.85 35.25
L 478.85 8.5 369.65 8.5 369.65 35.25 408.85 35.25 408.85 146.75 439.65 146.75 439.65 35.25 478.85 35.25
M 596.85 40.35
L 567 40.35 567 97.7
Q 567 109.95 560.45 116.45 553.95 122.8 545.1 122.8 527.05 122.8 527.05 98.3
L 527.05 40.35 497.2 40.35 497.2 104.85
Q 497.2 126.4 509.05 137.4 520.95 148.3 538.4 148.3 555.9 148.3 567 132.75
L 567 146.75 596.85 146.75 596.85 40.35
M 719.9 53.65
Q 705.5 38.6 686.1 38.6 666.8 38.6 654.55 52.2
L 654.55 0 624.8 0 624.8 146.75 654.55 146.75 654.55 132.75
Q 667 148.3 685.8 148.3 704.75 148.3 719.5 132.25 734.4 116.35 734.4 92.6 734.4 68.85 719.9 53.65
M 661.3 72.1
Q 668.55 63.5 679.05 63.5 689.5 63.5 697 72.2 704.55 80.9 704.55 93.75 704.55 106.6 696.85 114.8 689.1 123 678.85 123 668.55 123 661.3 114.8 654.15 106.6 654.15 93.65 654.15 80.7 661.3 72.1
M 857.35 88.25
Q 857.35 65.05 842 51.85 826.65 38.6 804.75 38.6 782.8 38.6 766.7 53.4 750.55 68.25 750.55 93.35 750.55 118.45 766.4 133.45 782.25 148.3 806.45 148.3 830.6 148.3 848.65 131.3
L 832.05 113.35
Q 821.9 123.75 806.35 123.75 796.6 123.75 788.9 118.25 781.15 112.75 779.8 104.05
L 857.35 104.05 857.35 88.25
M 820.2 68.25
Q 826.25 73.35 827.3 82.85
L 780.6 82.85
Q 781.85 73.75 789.1 68.45 796.4 63.15 805.2 63.15 814 63.15 820.2 68.25
M 126.55 8.5
L 93.15 8.5 63.3 59.95 33.5 8.5 0 8.5 47.85 92.2 47.85 146.75 78.75 146.75 78.75 92.2 126.55 8.5 Z"/>
</g>
</defs>

<g transform="matrix( 1, 0, 0, 1, 0,0) ">
<use xlink:href="#Layer0_0_FILL"/>
</g>
</svg>
