
<svg xmlns="http://www.w3.org/2000/svg" version="1.1" xmlns:xlink="http://www.w3.org/1999/xlink" preserveAspectRatio="none" x="0px" y="0px" width="1255px" height="187px" viewBox="0 0 1255 187">
<defs>
<g id="Layer3_0_FILL">
<path fill="#505061" stroke="none" d="
M 190.25 48.8
L 170.1 48.8 152.7 85.65 135.4 48.8 115.15 48.8 115.15 115.9 130.15 115.9 130.15 73.65 148.2 110.3 157.1 110.3 175.25 73.65 175.25 115.9 190.25 115.9 190.25 48.8
M 273.3 81.9
Q 273.3 67.15 263.15 57.2 252.95 47.3 238.1 47.3 223.2 47.3 213.05 57.2 202.85 67.15 202.85 81.9 202.85 96.7 213.05 106.6 223.2 116.55 238.1 116.55 252.95 116.55 263.15 106.6 273.3 96.7 273.3 81.9
M 258.1 81.95
Q 258.1 90.95 252.3 97.25 246.55 103.55 238.15 103.55 229.75 103.55 224 97.25 218.25 90.95 218.25 81.95 218.25 73 224 66.65 229.75 60.3 238.15 60.3 246.55 60.3 252.3 66.65 258.1 73 258.1 81.95
M 367.05 48.8
L 352.05 48.8 352.05 115.9 367.05 115.9 367.05 48.8
M 335.8 66.55
Q 335.8 60.05 331.3 54.8 328.8 52.05 323.85 50.4 318.9 48.8 312.05 48.8
L 285.95 48.8 285.95 115.9 315.35 115.9
Q 329.15 115.9 334.75 109.65 339.55 104.3 339.55 97.3 339.55 90.95 335.85 86.65 332.1 82.4 325.9 81.05
L 328.3 79.95 330.65 78.25
Q 335.8 74.4 335.8 66.55
M 308.1 61.5
Q 314.75 61.5 317.55 62.95 320.3 64.35 320.3 68.8 320.3 73.3 317.3 74.6 314.25 75.95 308.05 75.95
L 300.95 75.95 300.95 61.5 308.1 61.5
M 309.75 87.8
Q 317.25 87.8 320.65 89.3 324.05 90.75 324.05 95.4 324.05 100.05 320.85 101.65 317.65 103.25 311.2 103.25
L 300.95 103.25 300.95 87.8 309.75 87.8
M 398.5 48.8
L 383.5 48.8 383.5 115.9 427.1 115.9 427.1 102.55 398.5 102.55 398.5 48.8
M 453 48.8
L 438 48.8 438 115.9 453 115.9 453 48.8
M 518.45 48.8
L 541.7 89.4 541.7 115.9 556.7 115.9 556.7 89.4 579.95 48.8 563.7 48.8 549.2 73.75 534.75 48.8 518.45 48.8
M 497.85 61.75
L 516.9 61.75 516.9 48.8 463.85 48.8 463.85 61.75 482.9 61.75 482.9 115.9 497.85 115.9 497.85 61.75 Z"/>
</g>
</defs>

<g transform="matrix( 2.7004241943359375, 0, 0, 2.7003631591796875, -310.95,-127.75) ">
<use xlink:href="#Layer3_0_FILL"/>
</g>
</svg>
