
<svg xmlns="http://www.w3.org/2000/svg" version="1.1" xmlns:xlink="http://www.w3.org/1999/xlink" preserveAspectRatio="none" x="0px" y="0px" width="300px" height="34px" viewBox="0 0 300 34">
<defs>
<linearGradient id="Gradient_1" gradientUnits="userSpaceOnUse" x1="11.75" y1="11.262500000000003" x2="11.75" y2="56.6375" spreadMethod="pad">
<stop  offset="0%" stop-color="#2981CB"/>

<stop  offset="100%" stop-color="#1C5796"/>
</linearGradient>

<g id="Layer0_0_FILL">
<path fill="url(#Gradient_1)" stroke="none" d="
M 24.05 0
L 21.9 0
Q 17.6 0.1 14.05 1.45 8.3 3.5 6.85 8.1
L 0 33.35 31.5 33.35 34.75 28.05 16.5 28.05 24.05 0
M 74.4 15.9
Q 74.4 14.05 72.9 12.9 71.55 11.9 69.7 11.75
L 48.95 11.7
Q 46.1 11.7 43.8 13.3 41.5 14.9 40.9 17
L 38 28.05
Q 37.8 28.6 37.8 29.2 37.8 31.1 39.3 32.2 40.65 33.2 42.5 33.35
L 63.15 33.35
Q 65.95 33.35 68.3 31.75 70.65 30.2 71.2 28.05
L 71.25 28.05 74.2 17.05
Q 74.4 16.5 74.4 15.9
M 58.5 29.6
L 58.45 29.6 58.4 29.7 49.9 29.7 53.7 15.4 62.3 15.4 58.5 29.6
M 110.35 12.9
Q 109.05 11.9 107.15 11.75
L 85.35 11.7 84.45 14.85 99.95 14.85 99.2 17.5 84.95 17.5
Q 82.1 17.5 79.8 19.1 77.65 20.55 77 22.6
L 76.95 22.6 75.5 28.05 75.45 28.05
Q 75.3 28.6 75.3 29.2 75.3 31.05 76.8 32.2 78.1 33.2 80 33.35
L 107.3 33.35 111.7 17.05
Q 111.85 16.5 111.85 15.9 111.85 14.05 110.35 12.9
M 89.7 21.2
L 98.2 21.2 95.9 29.7 87.4 29.7 89.7 21.2
M 186.7 33.35
L 199.05 33.35 203.65 16.2 190.6 18.6 186.7 33.35
M 241.95 11.75
L 229.55 11.75 223.8 33.35 236.15 33.35 241.95 11.75
M 223.25 17.05
Q 223.4 16.5 223.4 15.9 223.4 14.05 221.9 12.9 220.6 11.9 218.7 11.75
L 204.85 11.75 206.85 4.25 194.5 4.25 192.45 11.75 161.5 11.75
Q 158.9 11.9 156.85 13.3 154.5 14.9 153.9 17.05
L 153 20.45
Q 152.8 21.05 152.8 21.55 152.8 23.45 154.3 24.6 155.65 25.6 157.5 25.75
L 172.15 25.75 171.1 29.7 125.5 29.7 129.35 15.4 137.6 15.4 133.95 28.95 147 26.55 153 4.25 140.6 4.25 138.6 11.75 124.6 11.75
Q 121.75 11.75 119.45 13.3 117.15 14.9 116.5 17.05
L 113.55 28.05
Q 113.35 28.6 113.35 29.2 113.35 31.05 114.9 32.2 116.2 33.2 118.05 33.35
L 175.85 33.35
Q 178.65 33.35 181 31.8 183.3 30.2 183.9 28.05 184.2 27.05 184.45 25.95 185 23.8 185 23.55 185 21.7 183.45 20.55 182.15 19.55 180.25 19.4
L 165.7 19.4 166.7 15.4 211.3 15.45 206.5 33.35 218.9 33.35 223.25 17.05
M 230.3 9.2
L 242.65 9.2 244 4.25 231.6 4.25 230.3 9.2
M 275.65 7.4
L 276.5 4.25 259.8 4.25
Q 257 4.25 254.7 5.85 252.3 7.45 251.75 9.55
L 251.15 11.7 251.15 11.75 245.6 11.75 244.75 14.9 250.35 14.9 245.4 33.35 257.75 33.35 262.75 14.9 270.45 14.9 271.3 11.75 263.55 11.75 263.55 11.7 264.7 7.4 275.65 7.4
M 299.55 11.75
L 293.95 11.75 295.95 4.25 283.65 4.25 281.7 11.75 274.5 11.75 273.65 14.9 280.85 14.9 275.85 33.35 288.2 33.35 293.1 14.9 298.7 14.9 299.55 11.75 Z"/>
</g>
</defs>

<g transform="matrix( 1, 0, 0, 1, 0,0) ">
<use xlink:href="#Layer0_0_FILL"/>
</g>
</svg>
