
<svg xmlns="http://www.w3.org/2000/svg" version="1.1" xmlns:xlink="http://www.w3.org/1999/xlink" preserveAspectRatio="none" x="0px" y="0px" width="302px" height="428px" viewBox="0 0 302 428">
<defs>
<linearGradient id="Gradient_1" gradientUnits="userSpaceOnUse" x1="587.2249999999999" y1="-638.6625" x2="869.875" y2="-438.1375" spreadMethod="pad">
<stop  offset="0%" stop-color="#D991D9"/>

<stop  offset="100%" stop-color="#996699"/>
</linearGradient>

<g id="Layer0_0_FILL">
<path fill="url(#Gradient_1)" stroke="none" d="
M 301.9 144.15
L 259.85 144.15 226.35 271.75 192.8 144.15 146.8 144.15 202.4 331.3 202.4 423.9 246.3 423.9 246.3 331.3 301.9 144.15
M 43.95 144.15
L 0.25 144.15 0.25 357.1
Q 0.25 427.45 65.85 427.45 131.2 427.45 131.2 357.1
L 131.2 144.15 89.55 144.15 89.55 360
Q 89.55 387.3 66.85 387.3 43.95 387.3 43.95 360
L 43.95 144.15
M 51.9 0
L 21.2 0 0 133 19.1 133 22.7 108.85 48.4 108.85 52.1 133 73.05 133 51.9 0
M 25.35 90.75
L 35.45 23.55 45.55 90.75 25.35 90.75
M 148.9 0
L 130.25 0 130.25 79.65 108.7 0 82.55 0 82.55 133 101.35 133 101.35 36.7 127.4 133 148.9 133 148.9 0
M 229.95 0
L 211.35 0 211.35 79.65 189.75 0 163.65 0 163.65 133 182.45 133 182.45 36.7 208.45 133 229.95 133 229.95 0
M 301.9 19
L 301.9 0 244.9 0 244.9 133 301.9 133 301.9 114 265.75 114 265.75 75 294.45 75 294.45 56.1 265.75 56.1 265.75 19 301.9 19 Z"/>
</g>
</defs>

<g transform="matrix( 1, 0, 0, 1, 0,0) ">
<use xlink:href="#Layer0_0_FILL"/>
</g>
</svg>
