
<svg xmlns="http://www.w3.org/2000/svg" version="1.1" xmlns:xlink="http://www.w3.org/1999/xlink" preserveAspectRatio="none" x="0px" y="0px" width="302px" height="428px" viewBox="0 0 302 428">
<defs>
<g id="Layer0_0_MEMBER_0_FILL">
<path fill="#FFFFFF" stroke="none" d="
M 746.45 470.4
L 736.45 470.4 736.45 522.25
Q 736.45 528.8 731 528.8 725.5 528.8 725.5 522.25
L 725.5 470.4 715 470.4 715 521.55
Q 715 538.45 730.75 538.45 746.45 538.45 746.45 521.55
L 746.45 470.4
M 761.25 470.4
L 750.2 470.4 763.55 515.35 763.55 537.6 774.1 537.6 774.1 515.35 787.45 470.4 777.35 470.4 769.3 501.05 761.25 470.4 Z"/>
</g>

<g id="Layer0_0_MEMBER_1_FILL">
<path fill="#FFFFFF" stroke="none" d="
M 865.2 388.8
L 865.2 379.2 836.4 379.2 836.4 446.4 865.2 446.4 865.2 436.8 846.95 436.8 846.95 417.1 861.45 417.1 861.45 407.55 846.95 407.55 846.95 388.8 865.2 388.8
M 738.9 379.2
L 723.4 379.2 712.7 446.4 722.35 446.4 724.15 434.2 737.15 434.2 739 446.4 749.6 446.4 738.9 379.2
M 735.7 425.05
L 725.5 425.05 730.6 391.1 735.7 425.05
M 808.55 379.2
L 795.35 379.2 795.35 446.4 804.85 446.4 804.85 397.75 818 446.4 828.85 446.4 828.85 379.2 819.45 379.2 819.45 419.45 808.55 379.2
M 767.6 379.2
L 754.4 379.2 754.4 446.4 763.9 446.4 763.9 397.75 777.05 446.4 787.9 446.4 787.9 379.2 778.5 379.2 778.5 419.45 767.6 379.2 Z"/>
</g>
</defs>

<g transform="matrix( 4.1634368896484375, 0, 0, 4.1634368896484375, -2976.6,-1814.35) ">
<use xlink:href="#Layer0_0_MEMBER_0_FILL"/>
</g>

<g transform="matrix( 1.9795379638671875, 0, 0, 1.9795379638671875, -1410.8,-750.65) ">
<use xlink:href="#Layer0_0_MEMBER_1_FILL"/>
</g>
</svg>
