
<svg xmlns="http://www.w3.org/2000/svg" version="1.1" xmlns:xlink="http://www.w3.org/1999/xlink" preserveAspectRatio="none" x="0px" y="0px" width="372px" height="347px" viewBox="0 0 372 347">
<defs>
<g id="Layer0_0_MEMBER_0_FILL">
<path fill="#FFFFFF" stroke="none" d="
M 602.3 304.75
L 586.8 304.75 576.1 371.95 585.75 371.95 587.55 359.75 600.55 359.75 602.4 371.95 613 371.95 602.3 304.75
M 599.1 350.6
L 588.9 350.6 594 316.65 599.1 350.6
M 649.5 325.5
L 649.5 320.2
Q 649.5 304.75 633.85 304.75
L 617.9 304.75 617.9 371.95 628.45 371.95 628.45 344.6 632.1 344.6
Q 639 344.6 639 353.15
L 639 363.7
Q 639 369.1 639.95 371.95
L 650.7 371.95
Q 649.6 369.25 649.6 363.8
L 649.6 353.45
Q 649.6 342.05 642.55 339.15 649.5 335.85 649.5 325.5
M 628.45 314.35
L 633.55 314.35
Q 638.9 314.35 638.9 321.3
L 638.9 327.9
Q 638.9 335 632.55 335
L 628.45 335 628.45 314.35
M 653.35 304.75
L 653.35 314.35 664.4 314.35 664.4 371.95 674.95 371.95 674.95 314.35 686 314.35 686 304.75 653.35 304.75
M 701.15 304.75
L 690.6 304.75 690.6 371.95 701.15 371.95 701.15 304.75
M 712.1 308.4
Q 707.9 312.8 707.9 320.85
L 707.9 355.85
Q 707.9 363.95 712.1 368.3 716.2 372.7 723.95 372.7 727.9 372.7 731.35 371.5 733.65 376.1 740.5 376.1
L 741.9 376.1 741.9 366.65 740.95 366.65
Q 738.5 366.65 738 365.25 740 361.5 740 355.85
L 740 320.85
Q 740 312.8 735.85 308.4 731.7 304 723.95 304 716.2 304 712.1 308.4
M 718.5 320.2
Q 718.5 313.6 723.95 313.6 729.4 313.6 729.4 320.2
L 729.4 356.5
Q 729.4 363.15 723.95 363.15 718.5 363.15 718.5 356.5
L 718.5 320.2 Z"/>
</g>

<g id="Layer0_0_MEMBER_1_FILL">
<path fill="#FFFFFF" stroke="none" d="
M 132.65 164.75
L 104.2 164.75 104.2 345.95 179.65 345.95 179.65 320.05 132.65 320.05 132.65 164.75
M 28.35 164.75
L 0 164.75 0 302.65
Q 0 348.3 42.5 348.3 84.8 348.3 84.8 302.65
L 84.8 164.75 57.85 164.75 57.85 304.55
Q 57.85 322.15 43.15 322.15 28.35 322.15 28.35 304.55
L 28.35 164.75
M 269.45 190.65
L 269.45 164.75 191.85 164.75 191.85 345.95 269.45 345.95 269.45 320.05 220.35 320.05 220.35 267 259.35 267 259.35 241.2 220.35 241.2 220.35 190.65 269.45 190.65
M 366.7 190.65
L 366.7 169.55 366.45 169.55
Q 355.9 169.55 350.2 164.75
L 278.65 164.75 278.65 190.65 308.5 190.65 308.5 345.95 336.85 345.95 336.85 190.65 366.7 190.65 Z"/>
</g>
</defs>

<g transform="matrix( 2.2427520751953125, 0, 0, 2.2427520751953125, -1292.05,-681.8) ">
<use xlink:href="#Layer0_0_MEMBER_0_FILL"/>
</g>

<g transform="matrix( 1, 0, 0, 1, 0,-2) ">
<use xlink:href="#Layer0_0_MEMBER_1_FILL"/>
</g>
</svg>
