<?xml version="1.0" encoding="utf-8"?>
<!-- Generator: Adobe Illustrator 14.0.0, SVG Export Plug-In  -->
<!DOCTYPE svg PUBLIC "-//W3C//DTD SVG 1.1//EN" "http://www.w3.org/Graphics/SVG/1.1/DTD/svg11.dtd" [
	<!ENTITY ns_flows "http://ns.adobe.com/Flows/1.0/">
]>
<svg version="1.1"
	 xmlns="http://www.w3.org/2000/svg" xmlns:xlink="http://www.w3.org/1999/xlink" xmlns:a="http://ns.adobe.com/AdobeSVGViewerExtensions/3.0/"
	 x="0px" y="0px" width="41px" height="38px" viewBox="-0.1 -0.1 41 38" enable-background="new -0.1 -0.1 41 38"
	 xml:space="preserve">
<defs>
</defs>
<path id="path_1_" fill="#FBEDD6" d="M31.124,31.466c0.099-0.146,0.244-0.244,0.343-0.341c1.902-1.656,3.123-3.506,3.708-5.648
	c2.294-3.604,2.928-7.597,1.951-12.125c-1.023-4.48-4.879-8.083-11.612-10.859C16.096,2.201,8.875,5.61,3.897,12.67
	c-2.05,3.214-2.636,6.428-1.757,9.69c0.976,1.997,2.146,3.117,3.416,3.214c0.585,2.094,1.854,3.944,3.708,5.551
	c0.098,0.146,0.194,0.243,0.342,0.341c2.976,2.435,6.538,3.701,10.735,3.701C24.537,35.167,28.132,33.933,31.124,31.466z"/>
<path id="path1_1_" fill="#1F1F1F" d="M40.5,22.1c0-6.05-1.949-11.3-5.899-15.6C30.634,2.167,25.851,0,20.25,0
	C14.7,0,9.9,2.15,5.95,6.5c-1.6,1.75-2.899,3.65-3.85,5.7C0.7,15.2,0,18.5,0,22.1C0,28,1.851,33.05,5.45,37.25v-21.4
	c0.601-0.05,1.15-0.1,1.65-0.15c0.149-0.05,0.25-0.05,0.35-0.05c0.15,0,0.351-0.05,0.5-0.05c0.4-0.05,0.75-0.1,1.05-0.2
	c2.601-0.4,5-1.05,7.2-1.95c0.601-0.25,1.101-0.5,1.7-0.8c1.55-0.75,3-1.65,4.4-2.65C24,8.75,25.551,7.25,26.95,5.55
	c4.351,2.3,7.101,6.1,8.101,11.3V37.2C38.7,33,40.5,28,40.5,22.1z"/>
<path id="path2_1_" fill="#3D1B2C" d="M31.75,12.5c-0.3-0.3-0.649-0.45-1.1-0.45H22.7c-0.434,0-0.816,0.15-1.149,0.45
	c-0.301,0.35-0.45,0.7-0.45,1.15v1.3c-0.601,0.15-1.3,0.15-1.95,0v-1.3c0-0.45-0.15-0.8-0.45-1.15c-0.2-0.2-0.45-0.35-0.7-0.4
	c-0.149-0.05-0.3-0.05-0.449-0.05h-7.95c-0.4,0-0.8,0.15-1.05,0.45c-0.351,0.35-0.5,0.7-0.5,1.15v5.45c0,0.4,0.149,0.8,0.5,1.1
	c0.25,0.35,0.649,0.5,1.05,0.5h7.95c0.449,0,0.85-0.15,1.149-0.5c0.3-0.3,0.45-0.7,0.45-1.1v-3.05c0.6-0.25,1.3-0.25,1.95,0v3.05
	c0,0.4,0.149,0.8,0.45,1.1c0.35,0.35,0.75,0.5,1.149,0.5h7.95c0.45,0,0.8-0.15,1.1-0.5c0.351-0.3,0.5-0.7,0.5-1.1v-5.45
	C32.25,13.2,32.101,12.85,31.75,12.5z M31.15,14.45v3.9c0,0.45-0.15,0.85-0.45,1.1c-0.3,0.35-0.7,0.5-1.149,0.5h-6.2
	c-0.4,0-0.8-0.15-1.101-0.5c-0.35-0.25-0.5-0.65-0.5-1.1v-3.9c0-0.45,0.15-0.75,0.5-1.1c0.301-0.3,0.7-0.45,1.101-0.45h6.2
	c0.449,0,0.85,0.15,1.149,0.45C31,13.7,31.15,14,31.15,14.45z M18.051,13.35c0.3,0.35,0.5,0.65,0.5,1.1v3.9c0,0.45-0.2,0.85-0.5,1.1
	c-0.301,0.35-0.7,0.5-1.15,0.5h-6.15c-0.449,0-0.85-0.15-1.149-0.5c-0.351-0.25-0.5-0.65-0.5-1.1v-3.9c0-0.45,0.149-0.75,0.5-1.1
	c0.3-0.3,0.7-0.45,1.149-0.45h6.15C17.351,12.9,17.75,13.05,18.051,13.35z"/>
<path id="path6_1_" fill="#1F1F1F" d="M24.25,15.55c-0.35,0.35-0.5,0.7-0.5,1.15c0,0.45,0.15,0.9,0.5,1.2
	c0.351,0.3,0.7,0.45,1.15,0.45s0.9-0.15,1.2-0.45c0.35-0.3,0.45-0.75,0.45-1.2c0-0.45-0.101-0.8-0.45-1.15
	c-0.3-0.35-0.75-0.5-1.2-0.5S24.601,15.2,24.25,15.55z M13.75,15.55c-0.35,0.35-0.5,0.7-0.5,1.15c0,0.45,0.15,0.9,0.5,1.2
	c0.351,0.3,0.7,0.45,1.15,0.45s0.9-0.15,1.2-0.45c0.35-0.3,0.45-0.75,0.45-1.2c0-0.45-0.101-0.8-0.45-1.15
	c-0.3-0.35-0.75-0.5-1.2-0.5S14.101,15.2,13.75,15.55z"/>
<path id="path12_1_" fill="#FDC9D1" d="M31.4,25.75c0.55-0.45,0.8-1.05,0.8-1.75c0-0.65-0.25-1.3-0.8-1.8
	c-0.45-0.45-1.05-0.7-1.75-0.7s-1.3,0.233-1.8,0.7c-0.5,0.5-0.75,1.15-0.75,1.8c0,0.7,0.25,1.3,0.75,1.75c0.5,0.5,1.1,0.8,1.8,0.8
	S30.95,26.25,31.4,25.75z M8.7,24c0,0.7,0.2,1.3,0.7,1.75c0.5,0.5,1.1,0.8,1.8,0.8s1.3-0.3,1.75-0.8c0.5-0.45,0.75-1.05,0.75-1.75
	c0-0.65-0.25-1.3-0.75-1.8c-0.45-0.45-1.05-0.7-1.75-0.7s-1.3,0.25-1.8,0.7C8.9,22.7,8.7,23.35,8.7,24z"/>
<path id="path15_1_" fill="#E47181" d="M23.15,27.75c0.75-0.75,1.15-1.75,1.15-2.85c0-0.3,0-0.6-0.101-0.9h-1
	c-0.1,0.3-0.3,0.55-0.45,0.8c-0.649,0.75-1.449,1.15-2.35,1.15s-1.65-0.4-2.35-1.15c-0.2-0.25-0.351-0.5-0.5-0.8h-0.9
	c-0.05,0.3-0.1,0.6-0.1,0.9c0,1.1,0.35,2.1,1.149,2.85c0.75,0.8,1.65,1.15,2.75,1.15C21.5,28.9,22.4,28.55,23.15,27.75z"/>
<path id="path16_1_" fill="#873D63" d="M10.75,12.9h6.15c0.15,0,0.3,0,0.3,0.05l1.2-0.7c0-0.05-0.2-0.1-0.4-0.15
	c-0.149-0.05-0.3-0.05-0.449-0.05h-7.95c-0.4,0-0.8,0.15-1.05,0.45c-0.351,0.35-0.5,0.7-0.5,1.15v1.95l1.05-0.25v-0.9
	c0-0.433,0.167-0.8,0.5-1.1C9.9,13.05,10.301,12.9,10.75,12.9z"/>
<path id="path17_1_" fill="#1F1F1F" d="M5.9,37.2V14.35H1.7c-0.833,2.4-1.25,4.966-1.25,7.7C0.45,27.95,2.301,33,5.9,37.2z"/>
</svg>
