
<svg xmlns="http://www.w3.org/2000/svg" version="1.1" xmlns:xlink="http://www.w3.org/1999/xlink" preserveAspectRatio="none" x="0px" y="0px" width="813px" height="132px" viewBox="0 0 813 132">
<defs>
<g id="Layer0_0_FILL">
<path fill="#000000" fill-opacity="0.7490196078431373" stroke="none" d="
M 241.7 72.1
L 241.7 61.15 239.05 60.95
Q 230.3 60.95 226.05 68.75
L 226.05 61.35 215.6 61.35 215.6 109.05 226.2 109.05 226.2 84.75
Q 226.2 71.8 238.7 71.8
L 241.7 72.1
M 207.15 45.85
L 207.15 36.85
Q 205.25 36.1 201.2 36.1 193.8 36.1 188.8 40.5 183.55 45.3 183.55 55.75
L 183.55 61.35 174.4 61.35 174.4 70.75 183.55 70.75 183.55 109.05 194.25 109.05 194.25 70.75 206.75 70.75 206.75 61.35 194.25 61.35 194.25 55.65
Q 194.25 50.7 196.55 48.2 199.3 45.5 203.3 45.5
L 207.15 45.85
M 262.8 97.25
Q 258.45 93.55 258.3 88.35
L 294.65 88.35 294.85 85.05
Q 294.85 74.05 288.55 67.2 282.45 60.4 271.5 60.4 264.75 60.4 259.2 63.7 253.75 66.95 250.6 72.75 247.5 78.5 247.5 85.15 247.25 95.5 254.7 102.8 262.1 110.15 272.45 109.9 277.05 109.9 281.65 108.3 291.25 104.6 293.95 95.5
L 285.05 92.75
Q 282.3 100.8 272.35 100.8 267.05 100.85 262.8 97.25
M 263.15 72.5
Q 266.5 69.5 271.6 69.5 276.65 69.5 280.2 72.4 283.7 75.4 283.95 80.25
L 258.95 80.25
Q 259.65 75.4 263.15 72.5
M 371.3 36.3
L 360.7 36.3 360.7 109.05 371.3 109.05 371.3 36.3
M 348.95 95.5
L 340.05 92.75
Q 337.3 100.8 327.35 100.8 322.05 100.85 317.8 97.25 313.45 93.55 313.3 88.35
L 349.65 88.35 349.85 85.05
Q 349.85 74.05 343.55 67.2 337.45 60.4 326.5 60.4 319.75 60.4 314.2 63.7 308.75 66.95 305.6 72.75 302.5 78.5 302.5 85.15 302.25 95.5 309.7 102.8 317.1 110.15 327.45 109.9 332.05 109.9 336.65 108.3 346.25 104.6 348.95 95.5
M 335.2 72.4
Q 338.7 75.4 338.95 80.25
L 313.95 80.25
Q 314.65 75.4 318.15 72.5 321.5 69.5 326.6 69.5 331.65 69.5 335.2 72.4
M 461.8 60.4
L 457.4 60.85
Q 455.25 61.4 452.3 63.15 449.35 64.95 447.25 67.75
L 447.25 61.35 436.9 61.35 436.9 109.05 447.5 109.05 447.5 82.45
Q 447.5 77 450.45 73.7 453.45 70.45 458.55 70.45 463.7 70.45 466.45 73.7 469.15 76.85 469.15 82.4
L 469.15 109.05 479.65 109.05 479.65 79.65
Q 479.65 71 475.15 65.75 470.65 60.4 461.8 60.4
M 412.75 76.7
Q 412.75 80.75 408.35 80.75
L 402.4 80.75
Q 396.7 80.75 391.85 82.65 382.75 86.2 382.6 95.3
L 382.6 95.8
Q 382.6 101.95 387.1 105.85 391.6 109.9 398.65 109.9 402.65 109.9 406.55 108.2 410.3 106.45 412.65 102.55 412.65 106.8 413.15 109.05
L 423.55 109.05 423.2 101.35 423.2 78.65
Q 423.2 73.75 421.6 70.2 417.1 60.4 403.75 60.4 398 60.4 394.05 62.2 389.5 64.15 386.55 67.95 383.75 71.8 383.3 75.15
L 393 77.35
Q 393.6 73.75 396.35 71.6 399.15 69.4 403.35 69.4 407.8 69.4 410.35 71.5 412.75 73.6 412.75 76.7
M 412.65 88.25
L 412.65 89.75
Q 412.65 95.05 409.55 98.2 406.35 101.35 400.85 101.35 397.5 101.35 395.35 99.6 393.25 97.8 393.25 94.85 393.25 91.8 396.15 89.95 399.05 88.25 402.4 88.25
L 412.65 88.25
M 493.45 72.7
Q 490.2 78.35 490.2 85.05 489.95 95.4 497.3 102.7 504.65 110.1 515.05 109.9 524.45 109.9 530.4 104.75 535.9 100.1 537.55 94.3
L 527.85 91.1
Q 524.35 100.25 515.2 100.25 509.1 100.25 505.05 95.9 501.1 91.5 501.1 84.95 501.1 78.3 505.15 74.15 509.3 69.95 515.15 69.95 520.75 69.95 524 73.05 526.75 75.8 527.65 78.9
L 537.2 75.7
Q 535.6 69.3 529.65 64.9 523.7 60.4 515.15 60.4 508.15 60.4 502.45 63.65 496.65 67 493.45 72.7
M 628.9 61.15
L 626.25 60.95
Q 617.5 60.95 613.25 68.75
L 613.25 61.35 602.8 61.35 602.8 109.05 613.4 109.05 613.4 84.75
Q 613.4 71.8 625.9 71.8
L 628.9 72.1 628.9 61.15
M 591.05 95.5
L 582.15 92.75
Q 579.4 100.8 569.45 100.8 564.15 100.85 559.9 97.25 555.55 93.55 555.4 88.35
L 591.75 88.35 591.95 85.05
Q 591.95 74.05 585.65 67.2 579.55 60.4 568.6 60.4 561.85 60.4 556.3 63.7 550.85 66.95 547.7 72.75 544.6 78.5 544.6 85.15 544.35 95.5 551.8 102.8 559.2 110.15 569.55 109.9 574.15 109.9 578.75 108.3 588.35 104.6 591.05 95.5
M 577.3 72.4
Q 580.8 75.4 581.05 80.25
L 556.05 80.25
Q 556.75 75.4 560.25 72.5 563.6 69.5 568.7 69.5 573.75 69.5 577.3 72.4 Z"/>
</g>
</defs>

<g transform="matrix( 1.788665771484375, 0, 0, 1.7886199951171875, -311.9,-64.55) ">
<use xlink:href="#Layer0_0_FILL"/>
</g>
</svg>
