
<svg xmlns="http://www.w3.org/2000/svg" version="1.1" xmlns:xlink="http://www.w3.org/1999/xlink" preserveAspectRatio="none" x="0px" y="0px" width="508px" height="70px" viewBox="0 0 508 70">
<defs>
<g id="Layer0_0_FILL">
<path fill="#EFF1F4" stroke="none" d="
M 57.7 14.8
L 57.7 1.85 4.65 1.85 4.65 14.8 23.7 14.8 23.7 68.95 38.65 68.95 38.65 14.8 57.7 14.8
M 125.15 39.35
L 125.15 1.85 110.2 1.85 110.2 38.9
Q 110.2 42.95 109.25 46.1 108.3 49.3 106.5 51.6 104.65 53.95 102.1 55.1 99.65 56.3 96.45 56.3 93.25 56.3 90.75 55.1 88.25 53.95 86.35 51.6 82.6 46.95 82.6 38.9
L 82.6 1.85 67.65 1.85 67.65 39.35
Q 67.65 46.65 69.7 52.2 71.7 57.8 75.75 61.75 83.9 69.6 96.45 69.6 102.75 69.6 107.9 67.7 113.05 65.7 117.05 61.8 125.15 54 125.15 39.35
M 169.05 14.8
L 188.1 14.8 188.1 1.85 135.05 1.85 135.05 14.8 154.1 14.8 154.1 68.95 169.05 68.95 169.05 14.8
M 263.1 48.55
Q 265.6 42.35 265.6 34.95 265.6 27.55 263.1 21.35 260.55 15.25 255.45 10.25 245.25 0.35 230.4 0.35 215.5 0.35 205.35 10.25 200.25 15.25 197.7 21.35 195.15 27.55 195.15 34.95 195.15 49.75 205.35 59.65 215.5 69.6 230.4 69.6 245.25 69.6 255.45 59.65 260.55 54.7 263.1 48.55
M 244.6 19.7
Q 250.4 26.05 250.4 35 250.4 44 244.6 50.3 238.85 56.6 230.45 56.6 226.25 56.6 222.7 55 219.15 53.45 216.3 50.3 210.55 44 210.55 35 210.55 26.05 216.3 19.7 219.15 16.55 222.7 14.95 226.25 13.35 230.45 13.35 238.85 13.35 244.6 19.7
M 332.65 24.15
Q 332.65 12.4 326 7.1 322.7 4.5 317.1 3.2 311.55 1.85 303.7 1.85
L 278.25 1.85 278.25 68.95 293.25 68.95 293.25 47.55 303.6 47.55 318.45 68.95 336.9 68.95 319.9 44.95
Q 326.3 42.6 329.5 37.4 332.65 32.2 332.65 24.15
M 304.45 14.7
Q 311.65 14.7 314.55 16.75 316 17.7 316.7 19.6 317.45 21.45 317.45 24.2 317.45 29.6 314.65 32.1 313.25 33.35 310.65 34 308 34.6 304.15 34.6
L 293.25 34.6 293.25 14.7 304.45 14.7
M 363 1.85
L 348 1.85 348 68.95 363 68.95 363 1.85
M 427.25 68.95
L 443.2 68.95 414.25 1.85 399.7 1.85 370.75 68.95 386.65 68.95 392.9 54.45 421.05 54.45 427.25 68.95
M 407 21.8
L 415.35 41.3 398.6 41.3 407 21.8
M 494.55 68.95
L 494.55 55.6 465.95 55.6 465.95 1.85 450.95 1.85 450.95 68.95 494.55 68.95
M 548.65 35.7
Q 543.35 31.05 533.8 28.7 524.3 26.35 521.6 24.6 519 22.85 519 19.9 519 17 521.15 15.25 523.3 13.45 527.05 13.45 536.4 13.45 545.1 20.1
L 552.7 9.15
Q 547.7 4.9 541 2.6 534.3 0.35 527.55 0.35 517.25 0.35 510.4 5.5 503.55 10.7 503.55 20.25 503.55 25.05 504.9 28.5 506.25 32 508.95 34.25 514.4 38.7 526.1 41.5 533.5 43.3 535.95 45.1 538.5 46.85 538.5 49.85 538.5 52.9 536.1 54.7 533.75 56.5 529.65 56.5 520.45 56.5 509.6 46.95
L 500.65 57.9
Q 513.4 69.7 529.35 69.7 534.9 69.7 539.35 68.3 543.8 66.9 547.15 64.1 553.9 58.5 553.9 49.45 553.9 44.95 552.6 41.55 551.3 38.1 548.65 35.7 Z"/>
</g>

<g id="Layer0_1_FILL">
<path fill="#1B1B21" stroke="none" d="
M 488.75 14.45
L 488.75 1.5 435.7 1.5 435.7 14.45 454.75 14.45 454.75 68.6 469.7 68.6 469.7 14.45 488.75 14.45
M 87.05 44.15
Q 90.65 41.25 92.45 36.7 94.3 32.15 94.3 25.95 94.3 13.5 87.2 7.5 83.7 4.5 78.1 3 72.45 1.5 64.7 1.5
L 41 1.5 41 68.6 56 68.6 56 49.9 64.9 49.9
Q 79.8 49.9 87.05 44.15
M 64.55 14.35
Q 71.95 14.35 75.4 16.8 78.9 19.25 78.9 25.05 78.9 27.95 78.25 30.15 77.55 32.35 76.25 33.9 73.55 36.9 66.1 36.9
L 56 36.9 56 14.35 64.55 14.35
M 153.7 6.75
Q 150.4 4.15 144.8 2.85 139.25 1.5 131.4 1.5
L 105.95 1.5 105.95 68.6 120.95 68.6 120.95 47.2 131.3 47.2 146.15 68.6 164.6 68.6 147.6 44.6
Q 154 42.25 157.2 37.05 160.35 31.85 160.35 23.8 160.35 12.05 153.7 6.75
M 142.25 16.4
Q 143.7 17.35 144.4 19.25 145.15 21.1 145.15 23.85 145.15 29.25 142.35 31.75 140.95 33 138.35 33.65 135.7 34.25 131.85 34.25
L 120.95 34.25 120.95 14.35 132.15 14.35
Q 139.35 14.35 142.25 16.4
M 239.8 48.2
Q 242.3 42 242.3 34.6 242.3 27.2 239.8 21 237.25 14.9 232.15 9.9 221.95 0 207.1 0 192.2 0 182.05 9.9 176.95 14.9 174.4 21 171.85 27.2 171.85 34.6 171.85 49.4 182.05 59.3 192.2 69.25 207.1 69.25 221.95 69.25 232.15 59.3 237.25 54.35 239.8 48.2
M 221.3 19.35
Q 227.1 25.7 227.1 34.65 227.1 43.65 221.3 49.95 215.55 56.25 207.15 56.25 202.95 56.25 199.4 54.65 195.85 53.1 193 49.95 187.25 43.65 187.25 34.65 187.25 25.7 193 19.35 195.85 16.2 199.4 14.6 202.95 13 207.15 13 215.55 13 221.3 19.35
M 292.4 45.25
L 292.4 1.5 257.45 1.5 257.45 14.35 277.3 14.35 277.3 45.85
Q 277.3 48.3 276.75 50.15 276.2 51.95 275.05 53.2 272.8 55.65 269.6 55.65 266.35 55.65 263.15 54 260 52.4 256.95 49.1
L 249.2 59.9
Q 253.7 64.5 259 66.85 264.3 69.15 270.35 69.15 275.15 69.15 279.15 67.7 283.1 66.2 286.2 63.2 292.4 57.25 292.4 45.25
M 356.7 14.85
L 356.7 1.5 308.3 1.5 308.3 68.6 357.75 68.6 357.75 55.35 323.3 55.35 323.3 41.4 353.35 41.4 353.35 28.65 323.3 28.65 323.3 14.85 356.7 14.85
M 420.6 23.1
L 429.95 12.55
Q 418.75 0 402.25 0 387.45 0 377.25 9.95 367 19.95 367 34.85 367 49.8 377.05 59.55 387.1 69.35 402.6 69.35 410.35 69.35 417.1 66.15 423.8 62.95 429.5 56.5
L 419.95 46.6
Q 412.9 55.35 401.9 55.35 397.85 55.35 394.4 53.95 390.95 52.5 388.15 49.7 385.3 46.85 383.9 43.1 382.5 39.35 382.5 34.65 382.5 30 384 26.25 385.5 22.5 388.5 19.8 394.5 14.25 402.95 14.25 413.45 14.25 420.6 23.1
M 546.8 41.2
Q 545.5 37.75 542.85 35.35 537.55 30.7 528 28.35 518.5 26 515.8 24.25 513.2 22.5 513.2 19.55 513.2 16.65 515.35 14.9 517.5 13.1 521.25 13.1 530.6 13.1 539.3 19.75
L 546.9 8.8
Q 541.9 4.55 535.2 2.25 528.5 0 521.75 0 511.45 0 504.6 5.15 497.75 10.35 497.75 19.9 497.75 24.7 499.1 28.15 500.45 31.65 503.15 33.9 508.6 38.35 520.3 41.15 527.7 42.95 530.15 44.75 532.7 46.5 532.7 49.5 532.7 52.55 530.3 54.35 527.95 56.15 523.85 56.15 514.65 56.15 503.8 46.6
L 494.85 57.55
Q 507.6 69.35 523.55 69.35 529.1 69.35 533.55 67.95 538 66.55 541.35 63.75 548.1 58.15 548.1 49.1 548.1 44.6 546.8 41.2 Z"/>
</g>

<g id="Layer0_2_FILL">
<path fill="#EFF1F4" stroke="none" d="
M 44.45 19.75
L 52.05 8.8
Q 47.05 4.55 40.35 2.25 33.65 0 26.9 0 16.6 0 9.75 5.15 2.9 10.35 2.9 19.9 2.9 24.7 4.25 28.15 5.6 31.65 8.3 33.9 13.75 38.35 25.45 41.15 32.85 42.95 35.3 44.75 37.85 46.5 37.85 49.5 37.85 52.55 35.45 54.35 33.1 56.15 29 56.15 19.8 56.15 8.95 46.6
L 0 57.55
Q 12.75 69.35 28.7 69.35 34.25 69.35 38.7 67.95 43.15 66.55 46.5 63.75 53.25 58.15 53.25 49.1 53.25 44.6 51.95 41.2 50.65 37.75 48 35.35 42.7 30.7 33.15 28.35 23.65 26 20.95 24.25 18.35 22.5 18.35 19.55 18.35 16.65 20.5 14.9 22.65 13.1 26.4 13.1 35.75 13.1 44.45 19.75
M 81 41.4
L 111.05 41.4 111.05 28.65 81 28.65 81 14.85 114.4 14.85 114.4 1.5 66 1.5 66 68.6 115.45 68.6 115.45 55.35 81 55.35 81 41.4
M 180 37.05
Q 183.15 31.85 183.15 23.8 183.15 12.05 176.5 6.75 173.2 4.15 167.6 2.85 162.05 1.5 154.2 1.5
L 128.75 1.5 128.75 68.6 143.75 68.6 143.75 47.2 154.1 47.2 168.95 68.6 187.4 68.6 170.4 44.6
Q 176.8 42.25 180 37.05
M 167.95 23.85
Q 167.95 29.25 165.15 31.75 163.75 33 161.15 33.65 158.5 34.25 154.65 34.25
L 143.75 34.25 143.75 14.35 154.95 14.35
Q 162.15 14.35 165.05 16.4 166.5 17.35 167.2 19.25 167.95 21.1 167.95 23.85
M 240.35 1.5
L 223.3 44.25 206.2 1.5 189.95 1.5 216.9 68.6 229.65 68.6 256.6 1.5 240.35 1.5
M 279.5 1.5
L 264.5 1.5 264.5 68.6 279.5 68.6 279.5 1.5
M 345.5 23.1
L 354.85 12.55
Q 343.65 0 327.15 0 312.35 0 302.15 9.95 291.9 19.95 291.9 34.85 291.9 49.8 301.95 59.55 312 69.35 327.5 69.35 335.25 69.35 342 66.15 348.7 62.95 354.4 56.5
L 344.85 46.6
Q 337.8 55.35 326.8 55.35 322.75 55.35 319.3 53.95 315.85 52.5 313.05 49.7 310.2 46.85 308.8 43.1 307.4 39.35 307.4 34.65 307.4 30 308.9 26.25 310.4 22.5 313.4 19.8 319.4 14.25 327.85 14.25 338.35 14.25 345.5 23.1
M 411.25 41.4
L 411.25 28.65 381.2 28.65 381.2 14.85 414.6 14.85 414.6 1.5 366.2 1.5 366.2 68.6 415.65 68.6 415.65 55.35 381.2 55.35 381.2 41.4 411.25 41.4
M 476.2 8.8
Q 471.2 4.55 464.5 2.25 457.8 0 451.05 0 440.75 0 433.9 5.15 427.05 10.35 427.05 19.9 427.05 24.7 428.4 28.15 429.75 31.65 432.45 33.9 437.9 38.35 449.6 41.15 457 42.95 459.45 44.75 462 46.5 462 49.5 462 52.55 459.6 54.35 457.25 56.15 453.15 56.15 443.95 56.15 433.1 46.6
L 424.15 57.55
Q 436.9 69.35 452.85 69.35 458.4 69.35 462.85 67.95 467.3 66.55 470.65 63.75 477.4 58.15 477.4 49.1 477.4 44.6 476.1 41.2 474.8 37.75 472.15 35.35 466.85 30.7 457.3 28.35 447.8 26 445.1 24.25 442.5 22.5 442.5 19.55 442.5 16.65 444.65 14.9 446.8 13.1 450.55 13.1 459.9 13.1 468.6 19.75
L 476.2 8.8 Z"/>
</g>

<g id="Layer0_3_FILL">
<path fill="#EFF1F4" stroke="none" d="
M 470.7 -11.75
L 422.3 -11.75 422.3 55.35 471.75 55.35 471.75 42.1 437.3 42.1 437.3 28.15 467.35 28.15 467.35 15.4 437.3 15.4 437.3 1.6 470.7 1.6 470.7 -11.75
M 351 -11.75
L 330.75 -11.75 330.75 55.35 345.75 55.35 345.75 13.1 363.8 49.75 372.7 49.75 390.85 13.1 390.85 55.35 405.85 55.35 405.85 -11.75 385.7 -11.75 368.3 25.1 351 -11.75
M 183.15 -11.75
L 134.75 -11.75 134.75 55.35 184.2 55.35 184.2 42.1 149.75 42.1 149.75 28.15 179.8 28.15 179.8 15.4 149.75 15.4 149.75 1.6 183.15 1.6 183.15 -11.75
M 272.7 -11.75
L 257.75 -11.75 257.75 25.75
Q 257.75 33.05 259.8 38.6 261.8 44.2 265.85 48.15 274 56 286.55 56 292.85 56 298 54.1 303.15 52.1 307.15 48.2 315.25 40.4 315.25 25.75
L 315.25 -11.75 300.3 -11.75 300.3 25.3
Q 300.3 29.35 299.35 32.5 298.4 35.7 296.6 38 294.75 40.35 292.2 41.5 289.75 42.7 286.55 42.7 283.35 42.7 280.85 41.5 278.35 40.35 276.45 38 272.7 33.35 272.7 25.3
L 272.7 -11.75
M 233.05 -11
Q 226.35 -13.25 219.6 -13.25 209.3 -13.25 202.45 -8.1 195.6 -2.9 195.6 6.65 195.6 11.45 196.95 14.9 198.3 18.4 201 20.65 206.45 25.1 218.15 27.9 225.55 29.7 228 31.5 230.55 33.25 230.55 36.25 230.55 39.3 228.15 41.1 225.8 42.9 221.7 42.9 212.5 42.9 201.65 33.35
L 192.7 44.3
Q 205.45 56.1 221.4 56.1 226.95 56.1 231.4 54.7 235.85 53.3 239.2 50.5 245.95 44.9 245.95 35.85 245.95 31.35 244.65 27.95 243.35 24.5 240.7 22.1 235.4 17.45 225.85 15.1 216.35 12.75 213.65 11 211.05 9.25 211.05 6.3 211.05 3.4 213.2 1.65 215.35 -0.15 219.1 -0.15 228.45 -0.15 237.15 6.5
L 244.75 -4.45
Q 239.75 -8.7 233.05 -11
M 103.85 -10.4
Q 98.3 -11.75 90.45 -11.75
L 65 -11.75 65 55.35 80 55.35 80 33.95 90.35 33.95 105.2 55.35 123.65 55.35 106.65 31.35
Q 113.05 29 116.25 23.8 119.4 18.6 119.4 10.55 119.4 -1.2 112.75 -6.5 109.45 -9.1 103.85 -10.4
M 97.4 20.4
Q 94.75 21 90.9 21
L 80 21 80 1.1 91.2 1.1
Q 98.4 1.1 101.3 3.15 102.75 4.1 103.45 6 104.2 7.85 104.2 10.6 104.2 16 101.4 18.5 100 19.75 97.4 20.4 Z"/>
</g>

<g id="Layer0_4_FILL">
<path fill="#EFF1F4" stroke="none" d="
M 347 -6.15
L 298.6 -6.15 298.6 60.95 348.05 60.95 348.05 47.7 313.6 47.7 313.6 33.75 343.65 33.75 343.65 21 313.6 21 313.6 7.2 347 7.2 347 -6.15
M 526.6 -6.15
L 478.2 -6.15 478.2 60.95 527.65 60.95 527.65 47.7 493.2 47.7 493.2 33.75 523.25 33.75 523.25 21 493.2 21 493.2 7.2 526.6 7.2 526.6 -6.15
M 461.75 -6.15
L 441.6 -6.15 424.2 30.7 406.9 -6.15 386.65 -6.15 386.65 60.95 401.65 60.95 401.65 18.7 419.7 55.35 428.6 55.35 446.75 18.7 446.75 60.95 461.75 60.95 461.75 -6.15
M 267.7 -4.8
Q 262.15 -6.15 254.3 -6.15
L 228.85 -6.15 228.85 60.95 243.85 60.95 243.85 39.55 254.2 39.55 269.05 60.95 287.5 60.95 270.5 36.95
Q 276.9 34.6 280.1 29.4 283.25 24.2 283.25 16.15 283.25 4.4 276.6 -0.9 273.3 -3.5 267.7 -4.8
M 268.05 16.2
Q 268.05 21.6 265.25 24.1 263.85 25.35 261.25 26 258.6 26.6 254.75 26.6
L 243.85 26.6 243.85 6.7 255.05 6.7
Q 262.25 6.7 265.15 8.75 266.6 9.7 267.3 11.6 268.05 13.45 268.05 16.2
M 212.4 -6.15
L 197.4 -6.15 197.4 60.95 212.4 60.95 212.4 -6.15
M 139.25 -6.15
L 124.25 -6.15 124.25 60.95 139.25 60.95 139.25 34.55 165.9 34.55 165.9 60.95 180.9 60.95 180.9 -6.15 165.9 -6.15 165.9 21.85 139.25 21.85 139.25 -6.15 Z"/>
</g>
</defs>

<g transform="matrix( 1, 0, 0, 1, -257,-295.95) ">
<use xlink:href="#Layer0_0_FILL"/>
</g>

<g transform="matrix( 1, 0, 0, 1, -41,0) ">
<use xlink:href="#Layer0_1_FILL"/>
</g>

<g transform="matrix( 1, 0, 0, 1, -327,-108.95) ">
<use xlink:href="#Layer0_2_FILL"/>
</g>

<g transform="matrix( 1, 0, 0, 1, -594,35.25) ">
<use xlink:href="#Layer0_3_FILL"/>
</g>

<g transform="matrix( 1, 0, 0, 1, -95.25,293.15) ">
<use xlink:href="#Layer0_4_FILL"/>
</g>
</svg>
