
<svg xmlns="http://www.w3.org/2000/svg" version="1.1" xmlns:xlink="http://www.w3.org/1999/xlink" preserveAspectRatio="none" x="0px" y="0px" width="479px" height="71px" viewBox="0 0 479 71">
<defs>
<g id="Layer0_0_FILL">
<path fill="#EFF1F4" stroke="none" d="
M 57.7 14.8
L 57.7 1.85 4.65 1.85 4.65 14.8 23.7 14.8 23.7 68.95 38.65 68.95 38.65 14.8 57.7 14.8
M 125.15 39.35
L 125.15 1.85 110.2 1.85 110.2 38.9
Q 110.2 42.95 109.25 46.1 108.3 49.3 106.5 51.6 104.65 53.95 102.1 55.1 99.65 56.3 96.45 56.3 93.25 56.3 90.75 55.1 88.25 53.95 86.35 51.6 82.6 46.95 82.6 38.9
L 82.6 1.85 67.65 1.85 67.65 39.35
Q 67.65 46.65 69.7 52.2 71.7 57.8 75.75 61.75 83.9 69.6 96.45 69.6 102.75 69.6 107.9 67.7 113.05 65.7 117.05 61.8 125.15 54 125.15 39.35
M 169.05 14.8
L 188.1 14.8 188.1 1.85 135.05 1.85 135.05 14.8 154.1 14.8 154.1 68.95 169.05 68.95 169.05 14.8
M 263.1 48.55
Q 265.6 42.35 265.6 34.95 265.6 27.55 263.1 21.35 260.55 15.25 255.45 10.25 245.25 0.35 230.4 0.35 215.5 0.35 205.35 10.25 200.25 15.25 197.7 21.35 195.15 27.55 195.15 34.95 195.15 49.75 205.35 59.65 215.5 69.6 230.4 69.6 245.25 69.6 255.45 59.65 260.55 54.7 263.1 48.55
M 244.6 19.7
Q 250.4 26.05 250.4 35 250.4 44 244.6 50.3 238.85 56.6 230.45 56.6 226.25 56.6 222.7 55 219.15 53.45 216.3 50.3 210.55 44 210.55 35 210.55 26.05 216.3 19.7 219.15 16.55 222.7 14.95 226.25 13.35 230.45 13.35 238.85 13.35 244.6 19.7
M 332.65 24.15
Q 332.65 12.4 326 7.1 322.7 4.5 317.1 3.2 311.55 1.85 303.7 1.85
L 278.25 1.85 278.25 68.95 293.25 68.95 293.25 47.55 303.6 47.55 318.45 68.95 336.9 68.95 319.9 44.95
Q 326.3 42.6 329.5 37.4 332.65 32.2 332.65 24.15
M 304.45 14.7
Q 311.65 14.7 314.55 16.75 316 17.7 316.7 19.6 317.45 21.45 317.45 24.2 317.45 29.6 314.65 32.1 313.25 33.35 310.65 34 308 34.6 304.15 34.6
L 293.25 34.6 293.25 14.7 304.45 14.7
M 363 1.85
L 348 1.85 348 68.95 363 68.95 363 1.85
M 427.25 68.95
L 443.2 68.95 414.25 1.85 399.7 1.85 370.75 68.95 386.65 68.95 392.9 54.45 421.05 54.45 427.25 68.95
M 407 21.8
L 415.35 41.3 398.6 41.3 407 21.8
M 494.55 68.95
L 494.55 55.6 465.95 55.6 465.95 1.85 450.95 1.85 450.95 68.95 494.55 68.95
M 548.65 35.7
Q 543.35 31.05 533.8 28.7 524.3 26.35 521.6 24.6 519 22.85 519 19.9 519 17 521.15 15.25 523.3 13.45 527.05 13.45 536.4 13.45 545.1 20.1
L 552.7 9.15
Q 547.7 4.9 541 2.6 534.3 0.35 527.55 0.35 517.25 0.35 510.4 5.5 503.55 10.7 503.55 20.25 503.55 25.05 504.9 28.5 506.25 32 508.95 34.25 514.4 38.7 526.1 41.5 533.5 43.3 535.95 45.1 538.5 46.85 538.5 49.85 538.5 52.9 536.1 54.7 533.75 56.5 529.65 56.5 520.45 56.5 509.6 46.95
L 500.65 57.9
Q 513.4 69.7 529.35 69.7 534.9 69.7 539.35 68.3 543.8 66.9 547.15 64.1 553.9 58.5 553.9 49.45 553.9 44.95 552.6 41.55 551.3 38.1 548.65 35.7 Z"/>
</g>

<g id="Layer0_1_FILL">
<path fill="#EFF1F4" stroke="none" d="
M 109.2 195
L 119.55 195 134.4 216.4 152.85 216.4 135.85 192.4
Q 142.25 190.05 145.45 184.85 148.6 179.65 148.6 171.6 148.6 159.85 141.95 154.55 138.65 151.95 133.05 150.65 127.5 149.3 119.65 149.3
L 94.2 149.3 94.2 216.4 109.2 216.4 109.2 195
M 109.2 162.15
L 120.4 162.15
Q 127.6 162.15 130.5 164.2 131.95 165.15 132.65 167.05 133.4 168.9 133.4 171.65 133.4 177.05 130.6 179.55 129.2 180.8 126.6 181.45 123.95 182.05 120.1 182.05
L 109.2 182.05 109.2 162.15
M 75.45 155.3
Q 71.95 152.3 66.35 150.8 60.7 149.3 52.95 149.3
L 29.25 149.3 29.25 216.4 44.25 216.4 44.25 197.7 53.15 197.7
Q 68.05 197.7 75.3 191.95 78.9 189.05 80.7 184.5 82.55 179.95 82.55 173.75 82.55 161.3 75.45 155.3
M 63.65 164.6
Q 67.15 167.05 67.15 172.85 67.15 175.75 66.5 177.95 65.8 180.15 64.5 181.7 61.8 184.7 54.35 184.7
L 44.25 184.7 44.25 162.15 52.8 162.15
Q 60.2 162.15 63.65 164.6
M 245.7 162.15
L 265.55 162.15 265.55 193.65
Q 265.55 196.1 265 197.95 264.45 199.75 263.3 201 261.05 203.45 257.85 203.45 254.6 203.45 251.4 201.8 248.25 200.2 245.2 196.9
L 237.45 207.7
Q 241.95 212.3 247.25 214.65 252.55 216.95 258.6 216.95 263.4 216.95 267.4 215.5 271.35 214 274.45 211 280.65 205.05 280.65 193.05
L 280.65 149.3 245.7 149.3 245.7 162.15
M 170.3 157.7
Q 165.2 162.7 162.65 168.8 160.1 175 160.1 182.4 160.1 197.2 170.3 207.1 180.45 217.05 195.35 217.05 210.2 217.05 220.4 207.1 225.5 202.15 228.05 196 230.55 189.8 230.55 182.4 230.55 175 228.05 168.8 225.5 162.7 220.4 157.7 210.2 147.8 195.35 147.8 180.45 147.8 170.3 157.7
M 187.65 162.4
Q 191.2 160.8 195.4 160.8 203.8 160.8 209.55 167.15 215.35 173.5 215.35 182.45 215.35 191.45 209.55 197.75 203.8 204.05 195.4 204.05 191.2 204.05 187.65 202.45 184.1 200.9 181.25 197.75 175.5 191.45 175.5 182.45 175.5 173.5 181.25 167.15 184.1 164 187.65 162.4
M 423.95 162.25
L 443 162.25 443 216.4 457.95 216.4 457.95 162.25 477 162.25 477 149.3 423.95 149.3 423.95 162.25
M 376.75 167.6
Q 382.75 162.05 391.2 162.05 401.7 162.05 408.85 170.9
L 418.2 160.35
Q 407 147.8 390.5 147.8 375.7 147.8 365.5 157.75 355.25 167.75 355.25 182.65 355.25 197.6 365.3 207.35 375.35 217.15 390.85 217.15 398.6 217.15 405.35 213.95 412.05 210.75 417.75 204.3
L 408.2 194.4
Q 401.15 203.15 390.15 203.15 386.1 203.15 382.65 201.75 379.2 200.3 376.4 197.5 373.55 194.65 372.15 190.9 370.75 187.15 370.75 182.45 370.75 177.8 372.25 174.05 373.75 170.3 376.75 167.6
M 344.95 162.65
L 344.95 149.3 296.55 149.3 296.55 216.4 346 216.4 346 203.15 311.55 203.15 311.55 189.2 341.6 189.2 341.6 176.45 311.55 176.45 311.55 162.65 344.95 162.65
M 492.85 152.95
Q 486 158.15 486 167.7 486 172.5 487.35 175.95 488.7 179.45 491.4 181.7 496.85 186.15 508.55 188.95 515.95 190.75 518.4 192.55 520.95 194.3 520.95 197.3 520.95 200.35 518.55 202.15 516.2 203.95 512.1 203.95 502.9 203.95 492.05 194.4
L 483.1 205.35
Q 495.85 217.15 511.8 217.15 517.35 217.15 521.8 215.75 526.25 214.35 529.6 211.55 536.35 205.95 536.35 196.9 536.35 192.4 535.05 189 533.75 185.55 531.1 183.15 525.8 178.5 516.25 176.15 506.75 173.8 504.05 172.05 501.45 170.3 501.45 167.35 501.45 164.45 503.6 162.7 505.75 160.9 509.5 160.9 518.85 160.9 527.55 167.55
L 535.15 156.6
Q 530.15 152.35 523.45 150.05 516.75 147.8 510 147.8 499.7 147.8 492.85 152.95 Z"/>
</g>

<g id="Layer0_2_FILL">
<path fill="#EFF1F4" stroke="none" d="
M 60.45 35.7
Q 55.15 31.05 45.6 28.7 36.1 26.35 33.4 24.6 30.8 22.85 30.8 19.9 30.8 17 32.95 15.25 35.1 13.45 38.85 13.45 48.2 13.45 56.9 20.1
L 64.5 9.15
Q 59.5 4.9 52.8 2.6 46.1 0.35 39.35 0.35 29.05 0.35 22.2 5.5 15.35 10.7 15.35 20.25 15.35 25.05 16.7 28.5 18.05 32 20.75 34.25 26.2 38.7 37.9 41.5 45.3 43.3 47.75 45.1 50.3 46.85 50.3 49.85 50.3 52.9 47.9 54.7 45.55 56.5 41.45 56.5 32.25 56.5 21.4 46.95
L 12.45 57.9
Q 25.2 69.7 41.15 69.7 46.7 69.7 51.15 68.3 55.6 66.9 58.95 64.1 65.7 58.5 65.7 49.45 65.7 44.95 64.4 41.55 63.1 38.1 60.45 35.7
M 126.85 15.2
L 126.85 1.85 78.45 1.85 78.45 68.95 127.9 68.95 127.9 55.7 93.45 55.7 93.45 41.75 123.5 41.75 123.5 29 93.45 29 93.45 15.2 126.85 15.2
M 195.6 24.15
Q 195.6 12.4 188.95 7.1 185.65 4.5 180.05 3.2 174.5 1.85 166.65 1.85
L 141.2 1.85 141.2 68.95 156.2 68.95 156.2 47.55 166.55 47.55 181.4 68.95 199.85 68.95 182.85 44.95
Q 189.25 42.6 192.45 37.4 195.6 32.2 195.6 24.15
M 167.4 14.7
Q 174.6 14.7 177.5 16.75 178.95 17.7 179.65 19.6 180.4 21.45 180.4 24.2 180.4 29.6 177.6 32.1 176.2 33.35 173.6 34 170.95 34.6 167.1 34.6
L 156.2 34.6 156.2 14.7 167.4 14.7
M 276.95 1.85
L 276.95 68.95 291.95 68.95 291.95 1.85 276.95 1.85
M 269.05 1.85
L 252.8 1.85 235.75 44.6 218.65 1.85 202.4 1.85 229.35 68.95 242.1 68.95 269.05 1.85
M 340.3 14.6
Q 350.8 14.6 357.95 23.45
L 367.3 12.9
Q 356.1 0.35 339.6 0.35 324.8 0.35 314.6 10.3 304.35 20.3 304.35 35.2 304.35 50.15 314.4 59.9 324.45 69.7 339.95 69.7 347.7 69.7 354.45 66.5 361.15 63.3 366.85 56.85
L 357.3 46.95
Q 350.25 55.7 339.25 55.7 335.2 55.7 331.75 54.3 328.3 52.85 325.5 50.05 322.65 47.2 321.25 43.45 319.85 39.7 319.85 35 319.85 30.35 321.35 26.6 322.85 22.85 325.85 20.15 331.85 14.6 340.3 14.6
M 427.05 15.2
L 427.05 1.85 378.65 1.85 378.65 68.95 428.1 68.95 428.1 55.7 393.65 55.7 393.65 41.75 423.7 41.75 423.7 29 393.65 29 393.65 15.2 427.05 15.2
M 489.85 49.45
Q 489.85 44.95 488.55 41.55 487.25 38.1 484.6 35.7 479.3 31.05 469.75 28.7 460.25 26.35 457.55 24.6 454.95 22.85 454.95 19.9 454.95 17 457.1 15.25 459.25 13.45 463 13.45 472.35 13.45 481.05 20.1
L 488.65 9.15
Q 483.65 4.9 476.95 2.6 470.25 0.35 463.5 0.35 453.2 0.35 446.35 5.5 439.5 10.7 439.5 20.25 439.5 25.05 440.85 28.5 442.2 32 444.9 34.25 450.35 38.7 462.05 41.5 469.45 43.3 471.9 45.1 474.45 46.85 474.45 49.85 474.45 52.9 472.05 54.7 469.7 56.5 465.6 56.5 456.4 56.5 445.55 46.95
L 436.6 57.9
Q 449.35 69.7 465.3 69.7 470.85 69.7 475.3 68.3 479.75 66.9 483.1 64.1 489.85 58.5 489.85 49.45 Z"/>
</g>
</defs>

<g transform="matrix( 1, 0, 0, 1, -257,-295.95) ">
<use xlink:href="#Layer0_0_FILL"/>
</g>

<g transform="matrix( 1, 0, 0, 1, 148.75,-309.75) ">
<use xlink:href="#Layer0_1_FILL"/>
</g>

<g transform="matrix( 1, 0, 0, 1, -12.45,-0.35) ">
<use xlink:href="#Layer0_2_FILL"/>
</g>
</svg>
