
<svg xmlns="http://www.w3.org/2000/svg" version="1.1" xmlns:xlink="http://www.w3.org/1999/xlink" preserveAspectRatio="none" x="0px" y="0px" width="420px" height="88px" viewBox="0 0 420 88">
<defs>
<g id="Layer0_0_FILL">
<path fill="#EFF1F4" stroke="none" d="
M 41.6 14.5
L 41.6 1.75 0 1.75 0 14.5 12.4 14.5 12.4 86.1 29.45 86.1 29.45 14.5 41.6 14.5
M 95.85 62.05
Q 96.05 58.75 96.05 54.75
L 96.05 1.75 79 1.75 78.7 65.85 78.05 69.9 76.8 72.4
Q 75.95 73.75 74.65 74.15
L 71.45 74.55 68.25 74.15
Q 66.95 73.75 66.15 72.35
L 64.85 69.85 63.95 60.8 63.9 1.75 46.85 1.75 47.1 62.05 48 68.85
Q 48.65 72.35 49.8 75.1 50.9 77.75 52.8 80.25 54.65 82.7 57.2 84.25 59.75 85.85 63.35 86.8 66.95 87.75 71.45 87.75 75.95 87.75 79.55 86.8 83.15 85.85 85.75 84.25 88.3 82.7 90.15 80.25 92.05 77.75 93.15 75.1 94.3 72.35 94.95 68.85
L 95.85 62.05
M 142.95 14.5
L 142.95 1.75 101.35 1.75 101.35 14.5 113.75 14.5 113.75 86.1 130.8 86.1 130.8 14.5 142.95 14.5
M 196.85 30
Q 196.85 0.1 172.15 0.1 147.5 0.1 147.5 30
L 147.5 58.35
Q 147.5 63.4 148.3 67.7 149.05 71.95 150.85 75.75 152.65 79.5 155.4 82.1 158.2 84.7 162.45 86.25 166.7 87.75 172.15 87.75 177.65 87.75 181.9 86.2 186.15 84.65 188.95 82 191.75 79.25 193.55 75.4 195.35 71.55 196.1 67.3 196.85 63 196.85 57.95
L 196.85 30
M 168.25 14.45
Q 169.85 13.25 172.15 13.25 179.8 13.25 179.8 25.75
L 179.8 62.2
Q 179.8 74.6 172.15 74.6 164.55 74.6 164.55 62.2
L 164.55 25.75 164.9 21.5 165.9 17.55
Q 166.65 15.55 168.25 14.45
M 275.4 1.75
L 258.3 1.75 258.3 86.1 275.4 86.1 275.4 1.75
M 249.35 13.6
Q 247.5 9.25 243.9 6.7 240.25 4.1 235.5 2.95 230.65 1.75 224.35 1.75
L 205.75 1.75 205.75 86.1 222.85 86.1 222.85 47.25 225.65 47.25 235.3 86.1 252.95 86.1 239.75 45.3
Q 242.75 44 244.95 42.05 247.15 40.05 248.35 38.05 249.5 36 250.2 33.35
L 251.05 28.65 251.25 23.95
Q 251.25 17.9 249.35 13.6
M 222.85 14.25
L 228.5 14.25
Q 230.3 14.25 231.55 15.5 232.75 16.75 233.35 18.7
L 234.1 22.2 234.05 28.5 233.15 32.2
Q 232.5 34.2 231.1 35.5 229.65 36.85 227.7 36.85
L 222.85 36.85 222.85 14.25
M 314.1 1.75
L 299 1.75 280.75 86.1 297.7 86.1 301 68.05 312 68.05 315.45 86.1 332.3 86.1 314.1 1.75
M 310.85 57.55
L 302.15 57.55 306.6 26.25 310.85 57.55
M 354.8 1.75
L 337.7 1.75 337.7 86.1 371.55 86.1 371.55 74.4 354.8 74.4 354.8 1.75
M 419.45 21.75
Q 419.45 12.75 413.15 6.35 406.85 0 397.9 0 387.15 0 380.6 6 374.1 11.95 374.1 22.2 374.1 25.75 374.95 28.85 375.75 32 376.9 34.25 378.05 36.45 380.1 38.85
L 383.6 42.65 392.95 50.65
Q 402.95 59.45 402.95 68.3 402.95 74.75 397.85 74.75 396.2 74.75 394.95 73.75 393.7 72.75 393.05 71.3
L 391.95 67.5 391.35 58.65 374.05 61.95
Q 374.3 67.1 375.8 71.6 377.3 76.1 380.1 79.8 382.85 83.5 387.4 85.7 391.95 87.85 397.85 87.85 406.85 87.85 413.2 82.2 419.55 76.55 419.55 67.7 419.55 62.95 418.45 58.85 417.35 54.8 415.1 51.25 412.9 47.75 410.45 45
L 404.35 39 397.25 33 394.2 29.7
Q 392.55 27.7 391.75 25.4 390.9 23.1 390.9 20.5 390.9 17.5 392.3 15.25 393.7 13.05 396.5 13.05 398.1 13.05 399.25 14 400.35 14.9 400.9 16.45
L 401.65 19.55 401.9 22.75 401.75 26.2 419.4 23.75 419.45 21.75 Z"/>
</g>
</defs>

<g transform="matrix( 1, 0, 0, 1, 0,0) ">
<use xlink:href="#Layer0_0_FILL"/>
</g>
</svg>
