
<svg xmlns="http://www.w3.org/2000/svg" version="1.1" xmlns:xlink="http://www.w3.org/1999/xlink" preserveAspectRatio="none" x="0px" y="0px" width="420px" height="88px" viewBox="0 0 420 88">
<defs>
<g id="Layer0_0_FILL">
<path fill="#EFF1F4" stroke="none" d="
M 143.65 139.05
L 126.6 139.05 126.3 203.15 125.65 207.2 124.4 209.7
Q 123.55 211.05 122.25 211.45
L 119.05 211.85 115.85 211.45
Q 114.55 211.05 113.75 209.65
L 112.45 207.15 111.55 198.1 111.5 139.05 94.45 139.05 94.7 199.35 95.6 206.15
Q 96.25 209.65 97.4 212.4 98.5 215.05 100.4 217.55 102.25 220 104.8 221.55 107.35 223.15 110.95 224.1 114.55 225.05 119.05 225.05 123.55 225.05 127.15 224.1 130.75 223.15 133.35 221.55 135.9 220 137.75 217.55 139.65 215.05 140.75 212.4 141.9 209.65 142.55 206.15
L 143.45 199.35
Q 143.65 196.05 143.65 192.05
L 143.65 139.05
M 47.6 151.8
L 60 151.8 60 223.4 77.05 223.4 77.05 151.8 89.2 151.8 89.2 139.05 47.6 139.05 47.6 151.8
M 271.95 139.05
L 253.35 139.05 253.35 223.4 270.45 223.4 270.45 184.55 273.25 184.55 282.9 223.4 300.55 223.4 287.35 182.6
Q 290.35 181.3 292.55 179.35 294.75 177.35 295.95 175.35 297.1 173.3 297.8 170.65
L 298.65 165.95 298.85 161.25
Q 298.85 155.2 296.95 150.9 295.1 146.55 291.5 144 287.85 141.4 283.1 140.25 278.25 139.05 271.95 139.05
M 281.7 159.5
L 281.65 165.8 280.75 169.5
Q 280.1 171.5 278.7 172.8 277.25 174.15 275.3 174.15
L 270.45 174.15 270.45 151.55 276.1 151.55
Q 277.9 151.55 279.15 152.8 280.35 154.05 280.95 156
L 281.7 159.5
M 323 139.05
L 305.9 139.05 305.9 223.4 323 223.4 323 139.05
M 178.4 151.8
L 190.55 151.8 190.55 139.05 148.95 139.05 148.95 151.8 161.35 151.8 161.35 223.4 178.4 223.4 178.4 151.8
M 195.1 167.3
L 195.1 195.65
Q 195.1 200.7 195.9 205 196.65 209.25 198.45 213.05 200.25 216.8 203 219.4 205.8 222 210.05 223.55 214.3 225.05 219.75 225.05 225.25 225.05 229.5 223.5 233.75 221.95 236.55 219.3 239.35 216.55 241.15 212.7 242.95 208.85 243.7 204.6 244.45 200.3 244.45 195.25
L 244.45 167.3
Q 244.45 137.4 219.75 137.4 195.1 137.4 195.1 167.3
M 219.75 150.55
Q 227.4 150.55 227.4 163.05
L 227.4 199.5
Q 227.4 211.9 219.75 211.9 212.15 211.9 212.15 199.5
L 212.15 163.05 212.5 158.8 213.5 154.85
Q 214.25 152.85 215.85 151.75 217.45 150.55 219.75 150.55
M 460.75 143.65
Q 454.45 137.3 445.5 137.3 434.75 137.3 428.2 143.3 421.7 149.25 421.7 159.5 421.7 163.05 422.55 166.15 423.35 169.3 424.5 171.55 425.65 173.75 427.7 176.15
L 431.2 179.95 440.55 187.95
Q 450.55 196.75 450.55 205.6 450.55 212.05 445.45 212.05 443.8 212.05 442.55 211.05 441.3 210.05 440.65 208.6
L 439.55 204.8 438.95 195.95 421.65 199.25
Q 421.9 204.4 423.4 208.9 424.9 213.4 427.7 217.1 430.45 220.8 435 223 439.55 225.15 445.45 225.15 454.45 225.15 460.8 219.5 467.15 213.85 467.15 205 467.15 200.25 466.05 196.15 464.95 192.1 462.7 188.55 460.5 185.05 458.05 182.3
L 451.95 176.3 444.85 170.3 441.8 167
Q 440.15 165 439.35 162.7 438.5 160.4 438.5 157.8 438.5 154.8 439.9 152.55 441.3 150.35 444.1 150.35 445.7 150.35 446.85 151.3 447.95 152.2 448.5 153.75
L 449.25 156.85 449.5 160.05 449.35 163.5 467 161.05 467.05 159.05
Q 467.05 150.05 460.75 143.65
M 361.7 139.05
L 346.6 139.05 328.35 223.4 345.3 223.4 348.6 205.35 359.6 205.35 363.05 223.4 379.9 223.4 361.7 139.05
M 349.75 194.85
L 354.2 163.55 358.45 194.85 349.75 194.85
M 402.4 139.05
L 385.3 139.05 385.3 223.4 419.15 223.4 419.15 211.7 402.4 211.7 402.4 139.05 Z"/>
</g>
</defs>

<g transform="matrix( 1, 0, 0, 1, -47.6,-137.3) ">
<use xlink:href="#Layer0_0_FILL"/>
</g>
</svg>
