
<svg xmlns="http://www.w3.org/2000/svg" version="1.1" xmlns:xlink="http://www.w3.org/1999/xlink" preserveAspectRatio="none" x="0px" y="0px" width="556px" height="71px" viewBox="0 0 556 71">
<defs>
<g id="Layer0_0_FILL">
<path fill="#EFF1F4" stroke="none" d="
M 548.65 35.7
Q 543.35 31.05 533.8 28.7 524.3 26.35 521.6 24.6 519 22.85 519 19.9 519 17 521.15 15.25 523.3 13.45 527.05 13.45 536.4 13.45 545.1 20.1
L 552.7 9.15
Q 547.7 4.9 541 2.6 534.3 0.35 527.55 0.35 517.25 0.35 510.4 5.5 503.55 10.7 503.55 20.25 503.55 25.05 504.9 28.5 506.25 32 508.95 34.25 514.4 38.7 526.1 41.5 533.5 43.3 535.95 45.1 538.5 46.85 538.5 49.85 538.5 52.9 536.1 54.7 533.75 56.5 529.65 56.5 520.45 56.5 509.6 46.95
L 500.65 57.9
Q 513.4 69.7 529.35 69.7 534.9 69.7 539.35 68.3 543.8 66.9 547.15 64.1 553.9 58.5 553.9 49.45 553.9 44.95 552.6 41.55 551.3 38.1 548.65 35.7
M 494.55 68.95
L 494.55 55.6 465.95 55.6 465.95 1.85 450.95 1.85 450.95 68.95 494.55 68.95
M 427.25 68.95
L 443.2 68.95 414.25 1.85 399.7 1.85 370.75 68.95 386.65 68.95 392.9 54.45 421.05 54.45 427.25 68.95
M 407 21.8
L 415.35 41.3 398.6 41.3 407 21.8
M 363 1.85
L 348 1.85 348 68.95 363 68.95 363 1.85
M 332.65 24.15
Q 332.65 12.4 326 7.1 322.7 4.5 317.1 3.2 311.55 1.85 303.7 1.85
L 278.25 1.85 278.25 68.95 293.25 68.95 293.25 47.55 303.6 47.55 318.45 68.95 336.9 68.95 319.9 44.95
Q 326.3 42.6 329.5 37.4 332.65 32.2 332.65 24.15
M 304.45 14.7
Q 311.65 14.7 314.55 16.75 316 17.7 316.7 19.6 317.45 21.45 317.45 24.2 317.45 29.6 314.65 32.1 313.25 33.35 310.65 34 308 34.6 304.15 34.6
L 293.25 34.6 293.25 14.7 304.45 14.7
M 263.1 48.55
Q 265.6 42.35 265.6 34.95 265.6 27.55 263.1 21.35 260.55 15.25 255.45 10.25 245.25 0.35 230.4 0.35 215.5 0.35 205.35 10.25 200.25 15.25 197.7 21.35 195.15 27.55 195.15 34.95 195.15 49.75 205.35 59.65 215.5 69.6 230.4 69.6 245.25 69.6 255.45 59.65 260.55 54.7 263.1 48.55
M 244.6 19.7
Q 250.4 26.05 250.4 35 250.4 44 244.6 50.3 238.85 56.6 230.45 56.6 226.25 56.6 222.7 55 219.15 53.45 216.3 50.3 210.55 44 210.55 35 210.55 26.05 216.3 19.7 219.15 16.55 222.7 14.95 226.25 13.35 230.45 13.35 238.85 13.35 244.6 19.7
M 169.05 14.8
L 188.1 14.8 188.1 1.85 135.05 1.85 135.05 14.8 154.1 14.8 154.1 68.95 169.05 68.95 169.05 14.8
M 125.15 39.35
L 125.15 1.85 110.2 1.85 110.2 38.9
Q 110.2 42.95 109.25 46.1 108.3 49.3 106.5 51.6 104.65 53.95 102.1 55.1 99.65 56.3 96.45 56.3 93.25 56.3 90.75 55.1 88.25 53.95 86.35 51.6 82.6 46.95 82.6 38.9
L 82.6 1.85 67.65 1.85 67.65 39.35
Q 67.65 46.65 69.7 52.2 71.7 57.8 75.75 61.75 83.9 69.6 96.45 69.6 102.75 69.6 107.9 67.7 113.05 65.7 117.05 61.8 125.15 54 125.15 39.35
M 57.7 14.8
L 57.7 1.85 4.65 1.85 4.65 14.8 23.7 14.8 23.7 68.95 38.65 68.95 38.65 14.8 57.7 14.8 Z"/>
</g>
</defs>

<g transform="matrix( 1, 0, 0, 1, 0,0) ">
<use xlink:href="#Layer0_0_FILL"/>
</g>
</svg>
