
<svg xmlns="http://www.w3.org/2000/svg" version="1.1" xmlns:xlink="http://www.w3.org/1999/xlink" preserveAspectRatio="none" x="0px" y="0px" width="432px" height="35px" viewBox="0 0 432 35">
<defs>
<linearGradient id="Gradient_1" gradientUnits="userSpaceOnUse" x1="105.52499999999999" y1="97.47500000000001" x2="272.475" y2="-69.47500000000001" spreadMethod="pad">
<stop  offset="0%" stop-color="#EF2163"/>

<stop  offset="100%" stop-color="#1FB5C3"/>
</linearGradient>

<g id="Layer1_0_FILL">
<path fill="url(#Gradient_1)" stroke="none" d="
M 287.3 9.5
Q 285.9 8.7 284.3 8.3 282.65 7.85 281.1 7.85 279.7 7.85 278.45 8.25 277.25 8.65 276.4 9.4 275.5 10.15 275 11.15 274.55 12.2 274.55 13.45
L 274.55 13.5
Q 274.55 14.75 275.1 15.7 275.6 16.55 276.6 17.25 277.85 18.05 280.95 18.95 283.35 19.6 284.3 20.2 285 20.6 285.4 21.1 285.8 21.65 285.8 22.35
L 285.8 22.4
Q 285.8 23.85 284.65 24.7 283.5 25.55 281.75 25.55 280.2 25.55 278.6 25 277.15 24.45 275.6 23.45 275.35 23.2 274.95 23.2 274.35 23.2 273.95 23.6 273.6 23.95 273.6 24.45 273.6 25.15 274.15 25.55 275.7 26.65 277.7 27.3 279.7 27.9 281.65 27.9 283.05 27.9 284.3 27.6 285.55 27.2 286.5 26.45 287.5 25.65 288 24.55 288.5 23.5 288.5 22.1
L 288.5 22.05
Q 288.5 20.8 287.95 19.85 287.5 19 286.5 18.3 285.75 17.75 284.55 17.3
L 282.25 16.5
Q 279.7 15.7 278.85 15.25 278.1 14.85 277.7 14.35 277.3 13.85 277.3 13.2
L 277.3 13.1
Q 277.3 11.85 278.35 11.1 279.35 10.3 281.05 10.3 282.25 10.3 283.55 10.7 284.85 11.1 286.1 11.8
L 286.75 11.95
Q 287.25 11.95 287.65 11.55 288.05 11.2 288.05 10.7 288.05 9.9 287.3 9.5
M 21.5 10.4
Q 22.65 10.4 23.6 10.75 24.55 11.15 25.15 11.9 25.8 12.7 26.15 13.75 26.5 14.85 26.5 16.25
L 26.5 26.25
Q 26.5 26.9 26.95 27.35 27.35 27.75 27.95 27.75 28.55 27.75 29 27.35 29.4 26.9 29.4 26.25
L 29.4 15.6
Q 29.4 13.75 28.95 12.35 28.4 10.85 27.45 9.85 26.55 8.9 25.15 8.3 23.85 7.8 22.2 7.8 20.95 7.8 19.9 8.1 18.9 8.35 18 8.9 17.2 9.4 16.55 10.15
L 15.35 11.65
Q 14.95 10.8 14.4 10.15 13.8 9.4 13 8.9 12.2 8.35 11.3 8.1 10.3 7.8 9.15 7.8 7.95 7.8 7 8.1 6 8.35 5.3 8.9 4.05 9.75 2.9 11.45
L 2.9 9.45
Q 2.9 8.85 2.45 8.45 2.05 7.95 1.4 7.95 0.85 7.95 0.4 8.45 0 8.9 0 9.45
L 0 26.25
Q 0 26.9 0.4 27.35 0.85 27.75 1.5 27.75 2.05 27.75 2.5 27.35 2.9 26.9 2.9 26.25
L 2.9 16.5
Q 2.9 15.2 3.3 14.05 3.7 12.95 4.45 12.1 5.15 11.35 6.15 10.85 7.15 10.4 8.3 10.4 9.45 10.4 10.35 10.75 11.25 11.15 11.95 11.9 12.55 12.7 12.9 13.7 13.25 14.85 13.25 16.15
L 13.25 26.25
Q 13.25 26.9 13.7 27.35 14.1 27.75 14.65 27.75 15.3 27.75 15.75 27.35 16.15 26.9 16.15 26.25
L 16.15 16.4
Q 16.15 15 16.6 13.85 17 12.75 17.75 11.95 18.45 11.2 19.45 10.8 20.35 10.4 21.5 10.4
M 38.75 9.45
Q 38.75 8.85 38.35 8.45 37.9 7.95 37.3 7.95 36.7 7.95 36.3 8.45 35.85 8.9 35.85 9.45
L 35.85 26.25
Q 35.85 26.9 36.3 27.35 36.7 27.75 37.35 27.75 37.95 27.75 38.35 27.35 38.75 26.9 38.75 26.25
L 38.75 9.45
M 39.05 2.6
L 39.05 2.1
Q 39.05 1.45 38.55 1 38.05 0.6 37.3 0.6 36.6 0.6 36.1 1 35.65 1.45 35.65 2.1
L 35.65 2.6
Q 35.65 3.25 36.1 3.7 36.6 4.15 37.3 4.15 38.05 4.15 38.55 3.7 39.05 3.25 39.05 2.6
M 55.3 8.55
Q 54.9 8.2 54.4 8.2
L 49.35 8.2 49.35 3.6
Q 49.35 3.05 48.95 2.6 48.45 2.1 47.9 2.1 47.3 2.1 46.9 2.6 46.45 3.05 46.45 3.6
L 46.45 8.2 44.9 8.2
Q 44.4 8.2 44 8.55 43.6 8.95 43.6 9.45 43.6 9.95 44 10.35 44.4 10.75 44.9 10.75
L 46.45 10.75 46.45 22.4
Q 46.45 23.9 46.9 24.95 47.3 26 48 26.65 48.75 27.3 49.8 27.65 50.75 27.9 51.95 27.9 53.55 27.9 54.8 27.4 55.65 27.05 55.65 26.25 55.65 25.75 55.25 25.4 54.9 25 54.4 25 53.65 25.3 52.6 25.3 51.1 25.3 50.25 24.55 49.35 23.75 49.35 22.05
L 49.35 10.75 54.4 10.75
Q 54.9 10.75 55.3 10.35 55.7 10 55.7 9.45 55.7 8.95 55.3 8.55
M 76.3 11.6
Q 76.3 11 75.85 10.6 74.4 9.3 72.85 8.6 70.35 7.8 68.7 7.8
L 66.65 7.95 64.8 8.6
Q 63 9.35 61.65 10.75 60.3 12.2 59.55 14 58.8 15.85 58.8 17.9
L 58.8 17.95
Q 58.8 20 59.55 21.85 60.3 23.65 61.65 25.1 63 26.45 64.8 27.25
L 66.65 27.8 68.7 28.05
Q 69.9 28.05 71 27.8 72 27.6 72.9 27.2 74.55 26.4 76.05 24.9 76.45 24.55 76.45 24 76.45 23.5 76.05 23.1 75.65 22.7 75.15 22.7 74.65 22.7 74.25 23.1 73.15 24.15 71.9 24.75 70.45 25.4 68.85 25.4 67.4 25.4 66.05 24.85 64.8 24.3 63.8 23.25 62.85 22.25 62.3 20.85 61.75 19.45 61.75 17.9
L 61.75 17.85
Q 61.75 16.25 62.3 14.9 62.8 13.55 63.75 12.5 64.75 11.5 65.9 10.95 67.25 10.3 68.7 10.3 70.3 10.3 71.7 11 72.8 11.55 74 12.65 74.4 12.95 74.9 12.95 75.45 12.95 75.85 12.6 76.3 12.2 76.3 11.6
M 96.4 9.9
Q 95.4 8.9 94.05 8.3 92.65 7.8 90.85 7.8 89.65 7.8 88.65 8.1 87.65 8.35 86.8 8.9 86.05 9.4 85.35 10.1
L 84.25 11.55 84.25 1.5
Q 84.25 0.85 83.8 0.45 83.35 0 82.8 0 82.25 0 81.75 0.45 81.4 0.85 81.4 1.5
L 81.4 26.25
Q 81.4 26.9 81.75 27.35 82.25 27.75 82.85 27.75 83.4 27.75 83.9 27.35 84.25 26.9 84.25 26.25
L 84.25 16.5
Q 84.25 15.15 84.65 14 85.15 12.9 85.9 12.05 86.65 11.25 87.75 10.8 88.8 10.4 90.05 10.4 91.3 10.4 92.35 10.8 93.3 11.2 94.05 11.95 94.75 12.75 95.05 13.85 95.4 14.9 95.4 16.25
L 95.4 26.25
Q 95.4 26.9 95.85 27.35 96.25 27.75 96.9 27.75 97.45 27.75 97.9 27.35 98.3 26.9 98.3 26.25
L 98.3 15.55
Q 98.3 13.85 97.8 12.4 97.3 10.95 96.4 9.9
M 134.75 10.15
Q 134.1 8.75 133.2 7.6 132.35 6.4 131.25 5.35 130.15 4.35 128.85 3.55 127.5 2.7 126.05 2.05 124.55 1.5 122.95 1.2 121.35 0.85 119.6 0.85 117.9 0.85 116.25 1.2 114.7 1.55 113.2 2.2 111.7 2.8 110.35 3.7 109.1 4.6 107.95 5.75 106.85 6.85 106 8.15 105.05 9.5 104.45 10.95 103.8 12.4 103.55 14.05 103.2 15.65 103.2 17.3 103.2 19 103.55 20.6 103.8 22.2 104.45 23.65 105.05 25.1 105.95 26.4 106.85 27.75 107.95 28.85 109.1 29.95 110.4 30.8 111.8 31.7 113.25 32.35 114.8 32.95 116.45 33.3 118.15 33.65 119.9 33.65 121.85 33.65 125.15 32.9 127.4 32.3 129.6 31.05 129.9 30.7 129.9 30.55 129.9 29.9 129.35 29.9
L 129 29.95
Q 126.85 31.2 124.8 31.8 121.7 32.35 119.9 32.35 118.25 32.35 116.65 32.05 115.15 31.8 113.7 31.2 112.35 30.65 111.1 29.8 109.9 29 108.9 27.95 107.85 26.95 107 25.75 106.25 24.55 105.7 23.2 105.15 21.85 104.85 20.35 104.55 18.9 104.55 17.3 104.55 15.75 104.85 14.3 105.15 12.8 105.7 11.45 106.25 10.1 107.05 8.85 107.85 7.65 108.8 6.6 109.85 5.6 111.05 4.75 112.3 3.95 113.6 3.35 115 2.75 116.5 2.45 118.05 2.1 119.6 2.1 121.2 2.1 122.75 2.45 124.2 2.75 125.6 3.3 126.95 3.85 128.15 4.6 129.35 5.35 130.35 6.35 131.35 7.3 132.1 8.45 132.9 9.5 133.5 10.7 134.05 11.9 134.35 13.15 134.6 14.45 134.6 15.7 134.6 17.65 134.15 19.15 133.75 20.6 133 21.6 132.3 22.5 131.35 22.95 130.4 23.45 129.4 23.45 127.85 23.45 127 22.65 126.2 21.85 126.2 20.4
L 127.8 10.55
Q 127.9 9.9 127.5 9.45 127.2 9 126.55 9 125.45 9 125.25 10.25
L 124.95 11.85
Q 124.15 10.45 122.95 9.75 122.3 9.3 121.45 9 120.55 8.75 119.45 8.75 117.9 8.75 116.35 9.45 114.8 10.2 113.55 11.45 112.3 12.75 111.55 14.4 110.8 16.15 110.8 18.1 110.8 19.55 111.3 20.85 111.85 22.1 112.8 23.05 113.7 23.95 114.9 24.45 116.15 24.9 117.5 24.9 118.55 24.9 119.45 24.7 120.3 24.45 121.1 24 122.45 23.2 123.7 21.8 124.3 23.2 125.6 24.05 126.25 24.45 127.05 24.7 127.95 24.9 129 24.9 130.3 24.9 131.5 24.4 132.8 23.85 133.75 22.7 134.8 21.55 135.35 19.85 136 18.05 136 15.7 136 14.3 135.65 12.85 135.3 11.45 134.75 10.15
M 122.9 12.4
Q 123.55 13.1 123.9 13.95 124.2 14.85 124.2 15.8 124.2 17.1 123.7 18.35 123.25 19.55 122.4 20.55 121.5 21.5 120.4 22 119.3 22.6 118.1 22.6 117.05 22.6 116.25 22.3 115.4 21.95 114.8 21.35 114.15 20.75 113.8 19.9 113.55 19 113.55 17.9 113.55 16.5 114.05 15.2 114.5 14 115.4 13.05 116.25 12.1 117.4 11.6 118.5 11.1 119.7 11.1 120.65 11.1 121.5 11.45 122.3 11.8 122.9 12.4
M 144.3 1.5
Q 144.3 0.85 143.9 0.45 143.45 0 142.8 0 142.25 0 141.85 0.45 141.4 0.85 141.4 1.5
L 141.4 26.25
Q 141.4 26.9 141.85 27.35 142.25 27.75 142.85 27.75 143.5 27.75 143.9 27.35 144.3 26.9 144.3 26.25
L 144.3 1.5
M 154.1 9.45
Q 154.1 8.85 153.7 8.45 153.25 7.95 152.65 7.95 152.05 7.95 151.65 8.45 151.2 8.9 151.2 9.45
L 151.2 26.25
Q 151.2 26.9 151.65 27.35 152.05 27.75 152.7 27.75 153.3 27.75 153.7 27.35 154.1 26.9 154.1 26.25
L 154.1 9.45
M 152.65 4.15
Q 153.45 4.15 153.9 3.7 154.4 3.25 154.4 2.6
L 154.4 2.1
Q 154.4 1.45 153.9 1 153.45 0.6 152.65 0.6 151.95 0.6 151.45 1 151 1.45 151 2.1
L 151 2.6
Q 151 3.25 151.45 3.7 151.95 4.15 152.65 4.15
M 179.3 9.45
Q 179.3 8.9 178.85 8.45 178.4 7.95 177.8 7.95 177.2 7.95 176.8 8.45 176.4 8.9 176.4 9.45
L 176.4 11.9
Q 174.7 9.8 173.45 9.05 172.45 8.45 171.4 8.1 170.25 7.8 168.95 7.8 167.2 7.8 165.55 8.5 163.9 9.15 162.6 10.4 161.2 11.8 160.5 13.6 159.7 16.25 159.7 17.85
L 159.7 17.9 159.9 20.2 160.5 22.2
Q 161.2 24 162.6 25.35 163.9 26.6 165.55 27.3 167.2 27.95 168.95 27.95 170.25 27.95 171.4 27.65 172.45 27.3 173.4 26.7 174.65 25.95 176.4 23.65
L 176.4 32.3
Q 176.4 32.9 176.8 33.35 177.2 33.75 177.8 33.75 178.45 33.75 178.85 33.35 179.3 32.9 179.3 32.3
L 179.3 9.45
M 166.85 10.85
Q 168.05 10.35 169.45 10.35 170.8 10.35 172.05 10.85 173.3 11.45 174.35 12.4 175.35 13.45 175.9 14.8 176.5 16.2 176.5 17.85
L 176.5 17.9
Q 176.5 19.5 175.9 20.95 175.35 22.3 174.35 23.3 173.3 24.35 172.05 24.85 170.8 25.4 169.45 25.4 168.1 25.4 166.85 24.85 165.65 24.35 164.7 23.35 163.7 22.35 163.2 21 162.65 19.55 162.65 17.9
L 162.65 17.85
Q 162.65 16.1 163.2 14.7 163.7 13.3 164.65 12.35 165.6 11.4 166.85 10.85
M 202.3 9.45
Q 202.3 8.85 201.9 8.45 201.5 7.95 200.9 7.95 200.25 7.95 199.85 8.45 199.45 8.85 199.45 9.45
L 199.45 19.3
Q 199.45 20.65 199 21.8 198.6 22.85 197.8 23.7 197 24.5 195.95 24.9 194.85 25.35 193.65 25.35 192.35 25.35 191.4 24.95 190.35 24.55 189.7 23.75 189 23.05 188.65 21.95 188.25 20.85 188.25 19.5
L 188.25 9.45
Q 188.25 8.85 187.85 8.45 187.4 7.95 186.85 7.95 186.2 7.95 185.8 8.45 185.45 8.85 185.45 9.45
L 185.45 20.25
Q 185.45 21.95 185.9 23.35 186.4 24.8 187.35 25.8 188.3 26.9 189.7 27.4 191.1 27.95 192.8 27.95 194 27.95 195.1 27.7 196.05 27.4 196.9 26.9 198 26.2 199.45 24.2
L 199.45 26.25
Q 199.45 26.9 199.85 27.35 200.3 27.75 200.9 27.75 201.5 27.75 201.9 27.3 202.3 26.9 202.3 26.25
L 202.3 9.45
M 211.9 9.45
Q 211.9 8.85 211.5 8.45 211.05 7.95 210.45 7.95 209.85 7.95 209.45 8.45 209 8.9 209 9.45
L 209 26.25
Q 209 26.9 209.45 27.35 209.85 27.75 210.5 27.75 211.1 27.75 211.5 27.35 211.9 26.9 211.9 26.25
L 211.9 9.45
M 211.7 1
Q 211.25 0.6 210.45 0.6 209.75 0.6 209.25 1 208.8 1.45 208.8 2.1
L 208.8 2.6
Q 208.8 3.25 209.25 3.7 209.75 4.15 210.45 4.15 211.25 4.15 211.7 3.7 212.2 3.25 212.2 2.6
L 212.2 2.1
Q 212.2 1.45 211.7 1
M 237.1 1.5
Q 237.1 0.85 236.65 0.4 236.25 0 235.6 0 235 0 234.6 0.4 234.2 0.85 234.2 1.5
L 234.2 11.9
Q 232.5 9.8 231.25 9.05 230.25 8.45 229.2 8.1 228.05 7.8 226.75 7.8 225 7.8 223.35 8.5 221.7 9.15 220.35 10.4 219 11.8 218.25 13.6 217.5 16.25 217.5 17.85
L 217.5 17.9 217.7 20.2 218.25 22.2
Q 219 24 220.35 25.35 221.7 26.6 223.35 27.3 225 27.95 226.75 27.95 228.05 27.95 229.2 27.65 230.25 27.3 231.15 26.7 232.4 25.95 234.2 23.65
L 234.2 26.25
Q 234.2 26.9 234.6 27.35 235 27.75 235.6 27.75 236.25 27.75 236.65 27.35 237.1 26.9 237.1 26.25
L 237.1 1.5
M 227.25 10.35
Q 228.6 10.35 229.85 10.85 231.1 11.45 232.15 12.4 233.15 13.45 233.65 14.8 234.3 16.2 234.3 17.85
L 234.3 17.9
Q 234.3 19.5 233.65 20.95 233.15 22.3 232.15 23.3 231.1 24.35 229.85 24.85 228.6 25.4 227.25 25.4 225.9 25.4 224.65 24.85 223.45 24.35 222.5 23.35 221.5 22.35 221 21 220.45 19.55 220.45 17.9
L 220.45 17.85
Q 220.45 16.1 221 14.7 221.5 13.3 222.4 12.35 223.4 11.4 224.65 10.85 225.85 10.35 227.25 10.35
M 260.2 10.15
L 260.4 9.45
Q 260.4 8.85 259.95 8.45 259.55 7.95 258.95 7.95 257.95 7.95 257.6 9.05
L 251.25 24.3 245 9.1
Q 244.55 7.95 243.5 7.95 242.9 7.95 242.4 8.45 242.05 8.9 242.05 9.45
L 242.2 10.2 249.45 26.65
Q 250.05 27.85 251.1 27.85
L 251.3 27.85
Q 252.35 27.85 252.9 26.65
L 260.2 10.15
M 268.1 8.45
Q 267.65 7.95 267.05 7.95 266.45 7.95 266.05 8.45 265.6 8.9 265.6 9.45
L 265.6 26.25
Q 265.6 26.9 266.05 27.35 266.45 27.75 267.1 27.75 267.7 27.75 268.1 27.35 268.5 26.9 268.5 26.25
L 268.5 9.45
Q 268.5 8.85 268.1 8.45
M 268.8 2.6
L 268.8 2.1
Q 268.8 1.45 268.3 1 267.85 0.6 267.05 0.6 266.35 0.6 265.85 1 265.4 1.45 265.4 2.1
L 265.4 2.6
Q 265.4 3.25 265.85 3.7 266.35 4.15 267.05 4.15 267.85 4.15 268.3 3.7 268.8 3.25 268.8 2.6
M 310.45 9.45
Q 310.45 8.85 310.05 8.45 309.65 7.95 309 7.95 308.4 7.95 308 8.45 307.6 8.85 307.6 9.45
L 307.6 19.3
Q 307.6 20.65 307.15 21.8 306.75 22.85 305.95 23.7 305.15 24.5 304.1 24.9 303 25.35 301.8 25.35 300.5 25.35 299.55 24.95 298.5 24.55 297.85 23.75 297.15 23.05 296.8 21.95 296.4 20.85 296.4 19.5
L 296.4 9.45
Q 296.4 8.85 296 8.45 295.55 7.95 295 7.95 294.35 7.95 293.95 8.45 293.55 8.85 293.55 9.45
L 293.55 20.25
Q 293.55 21.95 294 23.35 294.55 24.8 295.5 25.8 296.45 26.9 297.85 27.4 299.25 27.95 300.95 27.95 302.15 27.95 303.25 27.7 304.2 27.4 305.05 26.9 306.15 26.2 307.6 24.2
L 307.6 26.25
Q 307.6 26.9 308 27.35 308.45 27.75 309 27.75 309.65 27.75 310.05 27.3 310.45 26.9 310.45 26.25
L 310.45 9.45
M 330.5 10.1
Q 329.45 9 327.85 8.5 326.3 7.9 324.2 7.9 322.45 7.9 320.85 8.25 319.4 8.6 317.9 9.2 317.1 9.55 317.1 10.4 317.1 10.95 317.5 11.35 317.85 11.65 318.4 11.65
L 318.9 11.55
Q 320.05 11.05 321.2 10.75 322.55 10.45 323.9 10.45 325.3 10.45 326.35 10.8 327.45 11.15 328.2 11.85 328.9 12.45 329.3 13.5 329.7 14.45 329.7 15.75
L 329.7 16.45
Q 326.2 15.65 323.75 15.65 321.85 15.65 320.4 16.05 318.85 16.45 317.8 17.25 316.65 18.05 316.05 19.15 315.45 20.35 315.45 21.9
L 315.45 21.95
Q 315.45 23.35 316.05 24.55 316.65 25.65 317.7 26.45 318.75 27.25 320.05 27.65 321.3 27.95 322.7 27.95 323.9 27.95 325.05 27.75 326.05 27.45 327 26.95 328.55 26.15 329.7 24.6
L 329.7 26.45
Q 329.7 27 330.05 27.35 330.5 27.75 331.05 27.75 331.7 27.75 332.1 27.35 332.5 26.95 332.5 26.35
L 332.5 15.7
Q 332.5 13.9 332 12.45 331.45 11.05 330.5 10.1
M 324.05 17.75
Q 326.4 17.75 329.75 18.55
L 329.75 20.45
Q 329.75 21.6 329.25 22.6 328.75 23.5 327.85 24.2 326.95 24.95 325.8 25.3 324.55 25.7 323.25 25.7 322.25 25.7 321.35 25.4 320.5 25.2 319.8 24.7 319.15 24.15 318.75 23.5 318.4 22.75 318.4 21.85
L 318.4 21.8
Q 318.4 20.85 318.75 20.15 319.15 19.4 319.8 18.85 320.55 18.3 321.65 18.05 322.7 17.75 324.05 17.75
M 341.75 1.5
Q 341.75 0.85 341.35 0.45 340.9 0 340.3 0 339.7 0 339.3 0.45 338.85 0.85 338.85 1.5
L 338.85 26.25
Q 338.85 26.9 339.3 27.35 339.7 27.75 340.35 27.75 340.95 27.75 341.35 27.35 341.75 26.9 341.75 26.25
L 341.75 1.5
M 351.1 23.95
Q 350.55 23.45 349.85 23.45 349.05 23.45 348.5 23.95 348.05 24.45 348.05 25.2
L 348.05 26
Q 348.05 26.7 348.5 27.25 349.05 27.75 349.85 27.75 350.55 27.75 351.1 27.25 351.6 26.7 351.6 26
L 351.6 25.2
Q 351.6 24.45 351.1 23.95
M 370.45 8.6
Q 367.95 7.8 366.3 7.8
L 364.25 7.95 362.4 8.6
Q 360.6 9.35 359.25 10.75 357.9 12.2 357.15 14 356.4 15.85 356.4 17.9
L 356.4 17.95
Q 356.4 20 357.15 21.85 357.9 23.65 359.25 25.1 360.6 26.45 362.4 27.25
L 364.25 27.8 366.3 28.05
Q 367.5 28.05 368.6 27.8 369.6 27.6 370.5 27.2 372.15 26.4 373.65 24.9 374.05 24.55 374.05 24 374.05 23.5 373.65 23.1 373.25 22.7 372.75 22.7 372.25 22.7 371.9 23.1 370.75 24.15 369.5 24.75 368.05 25.4 366.5 25.4 365 25.4 363.65 24.85 362.4 24.3 361.4 23.25 360.45 22.25 359.9 20.85 359.35 19.45 359.35 17.9
L 359.35 17.85
Q 359.35 16.25 359.9 14.9 360.4 13.55 361.35 12.5 362.35 11.5 363.5 10.95 364.85 10.3 366.3 10.3 367.9 10.3 369.3 11 370.4 11.55 371.6 12.65 372 12.95 372.5 12.95 373.05 12.95 373.45 12.6 373.9 12.2 373.9 11.6 373.9 11 373.45 10.6 372 9.3 370.45 8.6
M 387.35 7.8
L 385.25 7.95 383.25 8.6
Q 381.5 9.35 380.05 10.75 378.7 12.2 377.95 14 377.2 15.85 377.2 17.9
L 377.2 17.95
Q 377.2 20 377.95 21.85 378.7 23.65 380.05 25.1 381.4 26.45 383.25 27.25
L 385.15 27.8 387.2 28.05
Q 388.7 28.05 391.3 27.25 393.15 26.45 394.55 25 395.9 23.6 396.65 21.8 397.4 19.95 397.4 17.9
L 397.4 17.85
Q 397.4 15.8 396.65 13.95 395.9 12.1 394.55 10.75 393.2 9.35 391.35 8.55 388.75 7.8 387.35 7.8
M 387.2 10.3
Q 388.75 10.3 390.1 10.95 391.4 11.5 392.4 12.6 393.35 13.6 393.9 14.95 394.45 16.4 394.45 17.9
L 394.45 17.95
Q 394.45 19.5 393.9 20.85 393.4 22.25 392.45 23.25 391.5 24.3 390.25 24.85 388.85 25.4 387.35 25.4 385.8 25.4 384.5 24.85 383.2 24.3 382.2 23.25 381.25 22.2 380.7 20.8 380.15 19.45 380.15 17.9
L 380.15 17.85
Q 380.15 16.25 380.7 14.9 381.2 13.55 382.1 12.5 383.05 11.5 384.4 10.95 385.7 10.3 387.2 10.3
M 430.05 9.85
Q 429.15 8.9 427.8 8.3 426.5 7.8 424.85 7.8 423.6 7.8 422.5 8.1 421.55 8.35 420.65 8.9 419.85 9.4 419.15 10.15
L 417.95 11.65
Q 417.55 10.8 417 10.15 416.45 9.4 415.65 8.9 414.85 8.35 413.95 8.1 412.9 7.8 411.75 7.8 410.55 7.8 409.6 8.1 408.65 8.35 407.9 8.9 406.65 9.75 405.5 11.45
L 405.5 9.45
Q 405.5 8.85 405.05 8.45 404.65 7.95 404.05 7.95 403.45 7.95 403 8.45 402.6 8.9 402.6 9.45
L 402.6 26.25
Q 402.6 26.9 403 27.35 403.45 27.75 404.1 27.75 404.65 27.75 405.1 27.35 405.5 26.9 405.5 26.25
L 405.5 16.5
Q 405.5 15.2 405.9 14.05 406.3 12.95 407.05 12.1 407.8 11.35 408.75 10.85 409.8 10.4 410.9 10.4 412.05 10.4 412.95 10.75 413.85 11.15 414.55 11.9 415.2 12.7 415.5 13.7 415.85 14.85 415.85 16.15
L 415.85 26.25
Q 415.85 26.9 416.3 27.35 416.7 27.75 417.3 27.75 417.9 27.75 418.35 27.35 418.75 26.9 418.75 26.25
L 418.75 16.4
Q 418.75 15 419.2 13.85 419.6 12.75 420.35 11.95 421.1 11.2 422.05 10.8 422.95 10.4 424.1 10.4 425.3 10.4 426.2 10.75 427.15 11.15 427.8 11.9 428.4 12.7 428.75 13.75 429.1 14.85 429.1 16.25
L 429.1 26.25
Q 429.1 26.9 429.55 27.35 429.95 27.75 430.6 27.75 431.15 27.75 431.6 27.35 432 26.9 432 26.25
L 432 15.6
Q 432 13.75 431.55 12.35 431.05 10.85 430.05 9.85 Z"/>
</g>
</defs>

<g transform="matrix( 1, 0, 0, 1, 0,0) ">
<use xlink:href="#Layer1_0_FILL"/>
</g>
</svg>
