
<svg xmlns="http://www.w3.org/2000/svg" version="1.1" xmlns:xlink="http://www.w3.org/1999/xlink" preserveAspectRatio="none" x="0px" y="0px" width="106px" height="215px" viewBox="0 0 106 215">
<defs>
<g id="Layer0_0_FILL">
<path fill="#eff1f4" stroke="none" d="
M 0 0
Q 2 30.95 10.8 47.45 16.25 57.5 16.25 74.3 14.6134765625 95.9212890625 16.9 117.1 16.9306640625 117.275 16.95 117.45 18.5 131.85 23.4 140.25 26.6 145.45 30.75 143.35 33.4 141.7 35.5 137.85 41.3 129.75 40.15 156.55
L 40.15 206.65
Q 40.3 210.25 42.1 212 45.95 215.7 50.5 213.2 55.05 210.4 55.9 204.75 56.8 197.45 55.45 182.7 54.166015625 143.9693359375 54.8 117.1 56.0833984375 61.30703125 65.6 56.65 79.7 49.7 82 94.55 83.05 108.7 84.45 115.55 84.6205078125 116.378515625 84.8 117.1 85.3328125 119.33984375 85.9 120.55 88.95 126.15 96.1 120.55 97.75703125 119.3072265625 98.9 117.1 99.316796875 116.3767578125 99.65 115.55 99.85 114.95 100.1 114.3 101.4 110.3 102.1 104.55 107.55 55.2 104.1 0
L 0 0 Z"/>
</g>
</defs>

<g transform="matrix( 1, 0, 0, 1, 0,0) ">
<use xlink:href="#Layer0_0_FILL"/>
</g>
</svg>
