
<svg xmlns="http://www.w3.org/2000/svg" version="1.1" xmlns:xlink="http://www.w3.org/1999/xlink" preserveAspectRatio="none" x="0px" y="0px" width="136px" height="323px" viewBox="0 0 136 323">
<defs>
<g id="Layer0_0_FILL">
<path fill="#DCDEE1" stroke="none" d="
M 106.85 93.2
Q 109.2810546875 36.0197265625 112.4 20.5 115.5716796875 4.983203125 124.55 0
L 0 0
Q 2 30.95 10.8 47.45 16.25 57.5 16.25 74.3 15.41484375 80.7814453125 19.95 90.05 24.5318359375 99.319921875 30.2 99.6 35.921484375 99.8771484375 38.5 116.3 41.06953125 132.7259765625 40.15 156.55
L 40.15 206.65
Q 40.3 210.25 42.1 212 45.95 215.7 50.5 213.2 55.05 210.4 55.9 204.75 56.8 197.45 55.45 182.7 54.1560546875 143.9650390625 55.35 99.1 56.611328125 54.2875 79.1 53.85 88.7984375 52.587109375 91.5 142.2 94.206640625 231.8177734375 91.4 272.9 90.5451171875 285.9103515625 91.85 294.6 93.9017578125 304.3724609375 101.05 305.65
L 101.05 305.6
Q 107.0861328125 307.4390625 108.85 301.6 112.2849609375 270.3173828125 108.35 210.35 104.4630859375 150.3853515625 106.85 93.2 Z"/>
</g>
</defs>

<g transform="matrix( 1, 0, 0, 1, 0,0) ">
<use xlink:href="#Layer0_0_FILL"/>
</g>
</svg>
