
<svg xmlns="http://www.w3.org/2000/svg" version="1.1" xmlns:xlink="http://www.w3.org/1999/xlink" preserveAspectRatio="none" x="0px" y="0px" width="676px" height="132px" viewBox="0 0 676 132">
<defs>
<g id="Layer1_0_FILL">
<path fill="#1B1B21" stroke="none" d="
M 548.3 -116.35
Q 538.25 -116.3 530.9 -110.15 523.55 -103.85 523.55 -94.55 523.55 -86.7 528.55 -81.4 533.75 -76.05 542.2 -74.5
L 552.05 -72.5
Q 555.7 -71.85 557.9 -69.75 560.05 -67.8 560.05 -65.15 560.05 -61.8 557.2 -59.5 554.55 -57.3 549.5 -57.3 543.55 -57.3 539.5 -60.4 535.4 -63.5 534.5 -69.1
L 521 -65.9
Q 522.7 -55.8 529.8 -50 536.9 -44.2 549 -44.2 561.05 -44.2 568.2 -51.05 574.7 -57.7 574.7 -66 574.7 -73.6 569.65 -79.3 564.5 -84.85 554.95 -86.6
L 545.2 -88.4
Q 537.95 -89.85 537.95 -95.7 537.95 -98.8 540.85 -101.1 543.85 -103.4 548.15 -103.4 558.35 -103.4 560.4 -93.85
L 573.6 -97.7
Q 572.55 -104.9 566.55 -110.5 559.95 -116.35 548.3 -116.35
M 477.6 -115.3
L 463.2 -115.3 463.2 -45.3 477.6 -45.3 477.6 -78.55 502.75 -45.3 521.4 -45.3 492.95 -81.75 519.65 -115.3 501.6 -115.3 477.6 -84.85 477.6 -115.3
M 443.1 -109.8
Q 436.15 -115.3 425.6 -115.3
L 397.95 -115.3 397.95 -45.3 412.45 -45.3 412.45 -70.45 422.95 -70.45 436.25 -45.3 452 -45.3 437.25 -73.15
Q 450.25 -78.45 450.25 -93.1 450.25 -103.85 443.1 -109.8
M 412.35 -101.55
L 424.35 -101.55
Q 435.6 -101.55 435.6 -92.85 435.6 -88.25 432.3 -86.1 429.05 -83.8 424.45 -83.8
L 412.35 -83.8 412.35 -101.55
M 316.15 -94.4
Q 313.3 -87.6 313.3 -80.2 313.3 -65.1 323.85 -54.65 334.35 -44.2 349.5 -44.2 356.95 -44.2 363.7 -47.15 370.3 -49.8 375.3 -54.8 380.15 -59.5 383.1 -66.45 385.95 -73.05 385.95 -80.55 385.95 -87.9 383.2 -94.65 380.3 -101.25 375.5 -106.05 370.6 -110.85 363.95 -113.55 357.45 -116.35 349.75 -116.35 342.55 -116.3 335.65 -113.55 328.6 -110.55 323.95 -105.85 319.05 -101.15 316.15 -94.4
M 338.75 -99.35
Q 343.65 -102.3 349.65 -102.3 358.55 -102.5 364.95 -95.9 371.35 -89.25 371.2 -80.35 371.2 -74.4 368.35 -69.3 365.45 -64.25 360.55 -61.25 355.7 -58.25 349.65 -58.25 343.65 -58.25 338.75 -61.25 333.85 -64.25 330.95 -69.3 328.15 -74.4 328.15 -80.35 328.15 -86.25 330.95 -91.4 333.85 -96.5 338.75 -99.35
M 263.95 -115.3
L 248.6 -115.3 233.5 -65.55 220.2 -115.3 204.75 -115.3 225.15 -45.3 240.85 -45.3 256.1 -96.05 256.3 -96.05 271.45 -45.3 287.1 -45.3 307.8 -115.3 292.95 -115.3 279.15 -65.15 263.95 -115.3 Z"/>
</g>
</defs>

<g transform="matrix( 1.8295745849609375, 0, 0, 1.82952880859375, -374.6,212.85) ">
<use xlink:href="#Layer1_0_FILL"/>
</g>
</svg>
