
<svg xmlns="http://www.w3.org/2000/svg" version="1.1" xmlns:xlink="http://www.w3.org/1999/xlink" preserveAspectRatio="none" x="0px" y="0px" width="686px" height="132px" viewBox="0 0 686 132">
<defs>
<g id="Layer1_0_FILL">
<path fill="#1B1B21" stroke="none" d="
M 268 34.65
L 250.15 34.65 238.05 79 237.85 79 224 34.65 207 34.65 193.6 78.9 193.3 78.9 181.5 34.65 163.1 34.65 183.6 104.65 201.1 104.65 215.4 57.3 215.6 57.3 229.6 104.65 247.35 104.65 268 34.65
M 345.4 69.4
Q 345.4 59.35 340.55 51.15 335.65 42.85 327.35 38.25 319.1 33.5 309.05 33.5 299 33.5 290.6 38.25 282.15 43 277.25 51.35 272.3 59.65 272.3 69.6 272.3 79.55 277.15 87.95 282.3 96.45 290.5 100.9 298.65 105.75 308.85 105.75 316.3 105.75 323.05 102.8 329.55 100.2 334.75 95.15 339.4 90.65 342.55 83.6 345.4 76.85 345.4 69.4
M 295.65 83.3
Q 290.35 77.55 290.35 69.5 290.35 64.3 292.7 59.95 295 55.45 299.35 52.7 303.75 49.95 308.85 49.95 316.6 49.8 322.15 55.85 327.6 61.75 327.45 69.5 327.45 77.35 322.1 83.3 316.65 89.2 308.85 89.2 301.1 89.2 295.65 83.3
M 403.65 40.35
Q 396.4 34.65 384.55 34.65
L 355.85 34.65 355.85 104.65 373.5 104.65 373.5 80.1 380.7 80.1 393.55 104.65 412.4 104.65 397.9 77.1
Q 410.75 71.75 410.75 57.1 410.75 46.15 403.65 40.35
M 373.5 65
L 373.5 49.95 383.1 49.95
Q 393.1 49.95 393.1 57.8 393.1 65 383.2 65
L 373.5 65
M 482.25 34.65
L 461.5 34.65 439.9 64.7 439.9 34.65 422.15 34.65 422.15 104.65 439.9 104.65 439.9 71.5 462 104.65 483.95 104.65 458.25 67.9 482.25 34.65
M 532.8 42.65
Q 530.7 39.9 527.85 37.95 521.5 33.5 511.45 33.5 500.85 33.5 493.4 39.8 485.6 46.25 485.6 56.1 485.6 64.1 490.95 69.6 496.35 74.85 505.25 76.7
L 514.95 78.55
Q 520.9 79.7 520.9 84.1 520.9 86.7 518.8 88.8 516.65 90.8 512.25 90.8 509.1 90.8 506.2 89.8 499.7 87.25 498.7 79.5
L 482.9 83.25
Q 484.75 93.5 492.1 99.55 499.45 105.6 512.2 105.6 524.45 105.6 531.75 98.8 538.75 92.1 538.75 83.4 538.75 75.5 533.5 69.9 528.15 64.3 518.4 62.4
L 508.35 60.5
Q 503.15 59.45 503.15 54.75 503.15 52.4 505.4 50.3 507.55 48.3 511.3 48.3 520.5 48.3 521.95 58.1
L 537.45 53.7
Q 536.65 47.55 532.8 42.65 Z"/>
</g>
</defs>

<g transform="matrix( 1.82696533203125, 0, 0, 1.826995849609375, -298,-61.2) ">
<use xlink:href="#Layer1_0_FILL"/>
</g>
</svg>
