
<svg xmlns="http://www.w3.org/2000/svg" version="1.1" xmlns:xlink="http://www.w3.org/1999/xlink" preserveAspectRatio="none" x="0px" y="0px" width="1300px" height="350px" viewBox="0 0 1300 350">
<defs>
<g id="Layer4_0_FILL">
<path fill="#222222" stroke="none" d="
M 298.75 51.25
Q 247.5 0 175 0 102.5 0 51.25 51.25 0 102.5 0 175 0 247.5 51.25 298.75 102.5 350 175 350 247.5 350 298.75 298.75 350 247.5 350 175 350 102.5 298.75 51.25
M 59 140.8
Q 59 132.85 64.4 127.3 69.85 121.75 77.5 121.75 81.3 121.75 84.55 123.15 88.6 124.5 91.85 127.75
L 161.4 197.3
Q 167 202.9 167.05 210.7 167.15 218.45 161.75 223.85 156.3 229.3 148.55 229.15 147.8 229.15 147.15 229.1
L 78.55 229.1
Q 78.05 229.15 77.5 229.15 69.85 229.15 64.4 223.6 59 218 59 210.15
L 59 140.8
M 164.3 143.8
Q 168.1 141.9 172.7 141.9
L 271 141.9
Q 279 141.9 284.5 147.4 290.1 152.8 290.05 160.45 290.05 168.15 284.5 173.5 283.95 174.05 283.45 174.45
L 234.95 222.95
Q 234.65 223.35 234.25 223.75 228.85 229.15 221.05 229.05 213.25 228.95 207.7 223.4
L 158.65 174.35
Q 153.05 168.75 153 161 152.9 153.2 158.3 147.8 161 145.1 164.3 143.8 Z"/>
</g>

<g id="Layer1_0_FILL">
<path fill="#222222" stroke="none" d="
M 1244.8 117.7
L 1228.1 117.7 1228.1 228.5 1244.8 228.5 1244.8 117.7
M 1166.6 180.6
Q 1151.8 180.6 1143.2 186.35 1134.5 192.2 1134.5 203.95 1134.5 215.65 1142.7 222.65 1150.8 229.65 1163.15 229.65 1179.8 229.65 1189.6 217.95
L 1189.6 228.5 1204.85 228.5 1204.85 177.35
Q 1204.85 162.1 1195.95 154.95 1187.05 147.9 1173 147.9 1154.65 147.9 1140.2 159.4
L 1147.65 169.85
Q 1159.6 161.8 1170.65 161.8 1188.25 161.8 1188.25 177.65
L 1188.25 180.6 1166.6 180.6
M 1169.3 192.2
L 1188.1 192.2 1188.1 198.9
Q 1188.1 206.55 1182.1 211 1176.15 215.55 1168.2 215.55 1160.2 215.55 1155.75 212.45 1151.2 209.4 1151.2 203.55 1151.2 192.2 1169.3 192.2
M 1043.2 149.05
L 1043.2 197.75
Q 1043.2 213.25 1051.45 221.5 1059.75 229.65 1073.2 229.65 1081.4 229.65 1088.5 225.5 1095.55 221.35 1099.65 214
L 1099.65 228.5 1116.35 228.5 1116.35 149.05 1099.65 149.05 1099.65 192.05
Q 1099.65 203.15 1093.2 208.9 1086.8 214.65 1078.15 214.65 1059.9 214.65 1059.9 192.65
L 1059.9 149.05 1043.2 149.05
M 1002.35 181.2
L 986.25 176.25
Q 982.3 174.5 982.3 170.55 982.3 166.25 986.1 164.05 989.8 161.95 995.8 161.95 1007.1 161.95 1016.8 168.35
L 1023.05 156
Q 1010.8 147.9 997.1 147.9 983.4 147.9 974.8 154.5 966.2 161.15 966.2 172.25 966.2 187.9 990.95 194.6
L 992.8 195.2
Q 1008.6 200 1008.6 206 1008.6 210 1005.35 212.6 1002.05 215.25 996.35 215.25 983.4 215.25 969.45 204.75
L 961.45 217.8
Q 968.6 223.4 977.95 226.55 987.25 229.65 995.95 229.65 1008.75 229.65 1016.9 222.9 1025.15 216.1 1025.15 204.75 1025.15 193.45 1017.05 188.05
L 1009.55 183.9 1002.35 181.2
M 944.4 149.05
L 927.7 149.05 927.7 228.5 944.4 228.5 944.4 149.05
M 943.65 118.35
Q 940.55 115.25 936.25 115.25 931.85 115.25 928.7 118.35 925.6 121.5 925.6 125.8 925.6 130.1 928.7 133.25 931.85 136.35 936.25 136.35 940.55 136.35 943.65 133.25 946.8 130.1 946.8 125.8 946.8 121.5 943.65 118.35
M 848.75 149.05
L 831.4 149.05 863.4 228.5 882.5 228.5 914.45 149.05 897.15 149.05 872.95 209.1 848.75 149.05
M 748.45 158.95
Q 736.95 169.95 736.95 188.5 736.95 207 748.15 218.35 759.3 229.65 774.4 229.65 792.2 229.65 801.45 216.55
L 801.45 228.5 818.15 228.5 818.15 117.7 801.45 117.7 801.45 161.3
Q 791.75 147.9 775.85 147.9 760 147.9 748.45 158.95
M 753.7 189.15
Q 753.7 177.75 760.85 170.1 768 162.55 778 162.55 788.05 162.55 794.9 170.1 801.75 177.75 801.75 189.05 801.75 200.45 794.9 207.65 788.05 214.95 778.2 214.95 768.3 214.95 761 207.75 753.7 200.6 753.7 189.15
M 717.85 149.05
L 701.15 149.05 701.15 228.5 717.85 228.5 717.85 149.05
M 702.15 133.25
Q 705.3 136.35 709.7 136.35 714 136.35 717.1 133.25 720.25 130.1 720.25 125.8 720.25 121.5 717.1 118.35 714 115.25 709.7 115.25 705.3 115.25 702.15 118.35 699.05 121.5 699.05 125.8 699.05 130.1 702.15 133.25
M 660.3 149.05
L 660.3 192.05
Q 660.3 203.15 653.85 208.9 647.45 214.65 638.8 214.65 620.55 214.65 620.55 192.65
L 620.55 149.05 603.85 149.05 603.85 197.75
Q 603.85 213.25 612.1 221.5 620.4 229.65 633.85 229.65 642.05 229.65 649.15 225.5 656.2 221.35 660.3 214
L 660.3 228.5 677 228.5 677 149.05 660.3 149.05
M 510.75 158.95
Q 499.4 169.95 499.4 188.35 499.4 206.7 510.7 218.2 521.9 229.65 536.95 229.65 551.95 229.65 563.9 216.55
L 563.9 257.45 580.6 257.45 580.6 149.05 563.9 149.05 563.9 163
Q 554.05 147.9 538.1 147.9 522.15 147.9 510.75 158.95
M 516.15 189
Q 516.15 177.65 523.3 170.05 530.45 162.55 540.45 162.55 550.5 162.55 557.35 170.05 564.2 177.65 564.2 188.9 564.2 200.3 557.35 207.5 550.5 214.8 540.65 214.8 530.75 214.8 523.45 207.6 516.15 200.45 516.15 189
M 480.3 149.05
L 463.6 149.05 463.6 228.5 480.3 228.5 480.3 149.05
M 464.6 133.25
Q 467.75 136.35 472.15 136.35 476.45 136.35 479.55 133.25 482.7 130.1 482.7 125.8 482.7 121.5 479.55 118.35 476.45 115.25 472.15 115.25 467.75 115.25 464.6 118.35 461.5 121.5 461.5 125.8 461.5 130.1 464.6 133.25
M 439.4 117.7
L 422.7 117.7 422.7 228.5 439.4 228.5 439.4 117.7 Z"/>
</g>
</defs>

<g transform="matrix( 1, 0, 0, 1, 0,0) ">
<use xlink:href="#Layer4_0_FILL"/>
</g>

<g transform="matrix( 1, 0, 0, 1, 0,0) ">
<use xlink:href="#Layer1_0_FILL"/>
</g>
</svg>
