
<svg xmlns="http://www.w3.org/2000/svg" version="1.1" xmlns:xlink="http://www.w3.org/1999/xlink" preserveAspectRatio="none" x="0px" y="0px" width="914px" height="132px" viewBox="0 0 914 132">
<defs>
<g id="Layer2_0_FILL">
<path fill="#FFFFFF" stroke="none" d="
M 101.1 27.55
L 101.1 2.9 0 2.9 0 27.55 36.3 27.55 36.3 130.8 64.8 130.8 64.8 27.55 101.1 27.55
M 244.1 91.9
Q 248.85 80.1 248.85 65.95 248.85 51.85 244.1 40.05 239.2 28.4 229.5 18.9 210.05 0 181.75 0 153.35 0 134 18.9 124.3 28.4 119.4 40.05 114.55 51.85 114.55 65.95 114.55 94.2 134 113.05 153.35 132 181.75 132 210.05 132 229.5 113.05 239.2 103.6 244.1 91.9
M 167.05 27.85
Q 173.85 24.8 181.85 24.8 197.85 24.8 208.8 36.9 219.85 49 219.85 66.05 219.85 83.2 208.8 95.25 197.85 107.25 181.85 107.25 173.85 107.25 167.05 104.2 160.3 101.25 154.85 95.25 143.9 83.2 143.9 66.05 143.9 49 154.85 36.9 160.3 30.9 167.05 27.85
M 395.15 40.05
Q 390.25 28.4 380.55 18.9 361.1 0 332.8 0 304.4 0 285.05 18.9 275.35 28.4 270.45 40.05 265.6 51.85 265.6 65.95 265.6 94.2 285.05 113.05 304.4 132 332.8 132 361.1 132 380.55 113.05 390.25 103.6 395.15 91.9 399.9 80.1 399.9 65.95 399.9 51.85 395.15 40.05
M 332.9 24.8
Q 348.9 24.8 359.85 36.9 370.95 49 370.95 66.05 370.95 83.2 359.85 95.25 348.9 107.25 332.9 107.25 324.9 107.25 318.15 104.2 311.35 101.25 305.95 95.25 294.95 83.2 294.95 66.05 294.95 49 305.95 36.9 311.35 30.9 318.15 27.85 324.9 24.8 332.9 24.8
M 507.1 130.8
L 507.1 105.35 452.6 105.35 452.6 2.9 424 2.9 424 130.8 507.1 130.8
M 622.9 36.7
Q 622.9 24.3 614.35 14.3 609.55 9.05 600.15 5.95 590.7 2.9 577.65 2.9
L 527.9 2.9 527.9 130.8 583.95 130.8
Q 597.1 130.8 606.35 127.85 615.6 124.8 620.9 118.85 630.05 108.65 630.05 95.35 630.05 89.25 628.25 84.25 626.45 79.1 623 75.05 615.85 66.9 604.05 64.35
L 608.6 62.25 613.1 59
Q 622.9 51.7 622.9 36.7
M 588.15 29.85
Q 593.35 32.5 593.35 41 593.35 49.6 587.65 52.05 581.85 54.65 570 54.65
L 556.5 54.65 556.5 27.1 570.1 27.1
Q 582.8 27.1 588.15 29.85
M 594.05 80.1
Q 597.3 81.5 598.9 84.35 600.5 87.2 600.5 91.7 600.5 96.1 599 99.15 597.45 102.1 594.4 103.6 588.3 106.65 576 106.65
L 556.5 106.65 556.5 77.2 573.25 77.2
Q 587.55 77.2 594.05 80.1
M 776.05 91.9
Q 780.85 80.1 780.85 65.95 780.85 51.85 776.05 40.05 771.2 28.4 761.5 18.9 742.05 0 713.75 0 685.35 0 666 18.9 656.25 28.4 651.4 40.05 646.55 51.85 646.55 65.95 646.55 94.2 666 113.05 685.35 132 713.75 132 742.05 132 761.5 113.05 771.2 103.6 776.05 91.9
M 751.85 66.05
Q 751.85 83.2 740.8 95.25 729.85 107.25 713.85 107.25 705.85 107.25 699.05 104.2 692.3 101.25 686.85 95.25 675.9 83.2 675.9 66.05 675.9 49 686.85 36.9 692.3 30.9 699.05 27.85 705.85 24.8 713.85 24.8 729.85 24.8 740.8 36.9 751.85 49 751.85 66.05
M 876.9 2.9
L 852.6 40.7 828.2 2.9 794 2.9 834.1 65.3 791.05 130.8 825.55 130.8 852.6 88.65 879.85 130.8 914.55 130.8 871.45 64.55 911.3 2.9 876.9 2.9 Z"/>
</g>
</defs>

<g transform="matrix( 1, 0, 0, 1, 0,0) ">
<use xlink:href="#Layer2_0_FILL"/>
</g>
</svg>
