
<svg xmlns="http://www.w3.org/2000/svg" version="1.1" xmlns:xlink="http://www.w3.org/1999/xlink" preserveAspectRatio="none" x="0px" y="0px" width="683px" height="132px" viewBox="0 0 683 132">
<defs>
<g id="Layer1_0_FILL">
<path fill="#1B1B21" stroke="none" d="
M 93.95 37.1
L 94.35 37.1 122.05 129.95 150.7 129.95 188.55 1.9 161.4 1.9 136.15 93.65 108.3 1.9 80.25 1.9 52.6 92.9 28.3 1.9 0 1.9 37.35 129.95 66.05 129.95 93.95 37.1
M 326.3 91.25
Q 331.5 79.2 331.5 65.5 331.5 52.05 326.5 39.7 321.2 27.6 312.4 18.8 303.45 10.05 291.25 5.1 279.4 0 265.3 0 252.1 0.05 239.5 5.1 226.6 10.6 218.1 19.2 209.15 27.8 203.8 40.15 198.6 52.6 198.6 66.1 198.6 93.75 217.9 112.85 237.1 132 264.85 132 278.45 132 290.8 126.6 302.9 121.75 312.05 112.6 320.9 104 326.3 91.25
M 245.15 31.1
Q 254.15 25.7 265.1 25.7 281.4 25.3 293.1 37.4 304.8 49.55 304.55 65.85 304.55 76.75 299.3 86.05 294 95.3 285.05 100.8 276.2 106.25 265.1 106.25 254.15 106.25 245.15 100.8 236.2 95.3 230.9 86.05 225.8 76.75 225.8 65.85 225.8 55.05 230.9 45.65 236.2 36.3 245.15 31.1
M 449.15 42.5
Q 449.15 22.85 436.05 11.95 423.35 1.9 404.05 1.9
L 353.45 1.9 353.45 129.95 380 129.95 380 83.95 399.2 83.95 423.55 129.95 452.35 129.95 425.35 79
Q 449.15 69.3 449.15 42.5
M 422.35 42.95
Q 422.35 51.4 416.3 55.3 410.35 59.55 401.95 59.55
L 379.8 59.55 379.8 27.05 401.75 27.05
Q 422.35 27.05 422.35 42.95
M 499.2 57.6
L 499.2 1.9 472.85 1.9 472.85 129.95 499.2 129.95 499.2 69.15 545.2 129.95 579.3 129.95 527.25 63.3 576.1 1.9 543.1 1.9 499.2 57.6
M 620.4 27.9
Q 625.9 23.65 633.75 23.65 652.4 23.65 656.15 41.15
L 680.3 34.1
Q 678.4 20.95 667.4 10.7 655.35 0 634 0 615.65 0.05 602.2 11.3 588.75 22.85 588.75 39.85 588.75 54.2 597.9 63.9 607.4 73.7 622.85 76.55
L 640.9 80.2
Q 647.55 81.4 651.6 85.25 655.5 88.8 655.5 93.65 655.5 99.8 650.3 104 645.45 108 636.2 108 625.35 108 617.9 102.35 610.4 96.65 608.75 86.4
L 584.1 92.3
Q 587.2 110.75 600.2 121.35 613.15 132 635.3 132 657.35 132 670.45 119.45 682.3 107.3 682.3 92.1 682.3 78.2 673.1 67.75 663.65 57.6 646.2 54.4
L 628.35 51.1
Q 615.1 48.45 615.1 37.75 615.1 32.1 620.4 27.9 Z"/>
</g>
</defs>

<g transform="matrix( 1, 0, 0, 1, 0,0) ">
<use xlink:href="#Layer1_0_FILL"/>
</g>
</svg>
