
<svg xmlns="http://www.w3.org/2000/svg" version="1.1" xmlns:xlink="http://www.w3.org/1999/xlink" preserveAspectRatio="none" x="0px" y="0px" width="963px" height="132px" viewBox="0 0 963 132">
<defs>
<g id="Layer2_0_FILL">
<path fill="#EFF1F4" stroke="none" d="
M 0 130.6
L 30.25 130.6 42.15 103 95.7 103 107.5 130.6 137.9 130.6 82.8 2.85 55.1 2.85 0 130.6
M 53 77.95
L 69 40.85 84.85 77.95 53 77.95
M 244.75 39.4
L 259.5 18
Q 239.25 0 211.85 0 198.05 0 186.25 4.65 174.5 9.45 164.8 18.95 145.3 38 145.3 66.35 145.3 94.8 164.45 113.35 183.45 132 211.75 132 228.5 132 241.6 126.8 254.75 121.45 264.25 110.9
L 264.25 65.6 235.6 65.6 235.6 100.6
Q 225.7 106.3 210.9 106.3 196.2 106.3 185.45 95.45 180.15 89.95 177.45 82.8 174.8 75.6 174.8 66.45 174.8 57.4 177.55 50.05 180.35 42.85 185.95 37.2 197.1 26.3 213.35 26.3 221.75 26.3 228.95 29.05 236.2 31.9 244.75 39.4
M 381.8 28.3
L 381.8 2.85 289.7 2.85 289.7 130.6 383.8 130.6 383.8 105.35 318.25 105.35 318.25 78.8 375.45 78.8 375.45 54.55 318.25 54.55 318.25 28.3 381.8 28.3
M 526.95 2.85
L 498.5 2.85 498.5 85.1 435.75 2.85 409.1 2.85 409.1 130.6 437.65 130.6 437.65 50.55 498.5 130.6 526.95 130.6 526.95 2.85
M 652.65 44
L 670.45 23.9
Q 649.15 0 617.75 0 589.55 0 570.15 18.95 550.65 38 550.65 66.35 550.65 94.8 569.75 113.35 588.9 132 618.4 132 633.15 132 646 125.9 658.75 119.85 669.6 107.55
L 651.4 88.7
Q 638 105.35 617.05 105.35 609.35 105.35 602.8 102.7 596.2 99.95 590.9 94.6 585.45 89.2 582.8 82.05 580.15 74.9 580.15 65.95 580.15 57.1 583 50 585.85 42.85 591.55 37.7 603 27.15 619.05 27.15 639.05 27.15 652.65 44
M 720.6 2.85
L 692.05 2.85 692.05 130.6 720.6 130.6 720.6 2.85
M 844.05 28.3
L 844.05 2.85 751.9 2.85 751.9 130.6 846.05 130.6 846.05 105.35 780.45 105.35 780.45 78.8 837.65 78.8 837.65 54.55 780.45 54.55 780.45 28.3 844.05 28.3
M 946.85 37.6
L 961.3 16.75
Q 951.75 8.65 939 4.3 926.25 0 913.4 0 893.8 0 880.8 9.8 867.75 19.7 867.75 37.9 867.75 47 870.3 53.6 872.9 60.25 878 64.55 888.4 73 910.65 78.35 924.75 81.75 929.4 85.2 934.25 88.5 934.25 94.25 934.25 100.05 929.7 103.45 925.2 106.9 917.4 106.9 899.9 106.9 879.25 88.7
L 862.2 109.55
Q 886.5 132 916.85 132 927.4 132 935.9 129.35 944.35 126.7 950.75 121.35 963.55 110.7 963.55 93.45 963.55 84.9 961.1 78.45 958.65 71.85 953.6 67.3 943.5 58.45 925.3 53.95 907.25 49.5 902.1 46.15 897.15 42.85 897.15 37.2 897.15 31.7 901.25 28.35 905.35 24.95 912.45 24.95 930.25 24.95 946.85 37.6 Z"/>
</g>
</defs>

<g transform="matrix( 1, 0, 0, 1, 0,0) ">
<use xlink:href="#Layer2_0_FILL"/>
</g>
</svg>
