
<svg xmlns="http://www.w3.org/2000/svg" version="1.1" xmlns:xlink="http://www.w3.org/1999/xlink" preserveAspectRatio="none" x="0px" y="0px" width="326px" height="132px" viewBox="0 0 326 132">
<defs>
<g id="Layer1_0_FILL">
<path fill="#FFFFFF" stroke="none" d="
M 165.7 76.95
L 165.7 65.2 151.3 65.2 151.3 76.95 141.8 76.95 164.6 38.8 148.3 38.8 124.35 78.45 124.35 89.85 151.3 89.85 151.3 105.9 165.7 105.9 165.7 89.85 173.3 89.85 173.3 76.95 165.7 76.95
M 231.25 46.7
Q 224.3 37.3 210.45 37.3 196.5 37.3 189.6 46.7 182.7 56.15 182.7 71.95 182.7 87.75 189.6 97.25 196.5 106.65 210.45 106.65 224.35 106.65 231.25 97.25 238.15 87.75 238.15 71.95 238.15 56.15 231.25 46.7
M 197.35 72
Q 197.35 61.95 200.55 55.8 203.7 49.65 210.45 49.65 217.15 49.65 220.35 55.8 223.45 61.95 223.45 72 223.45 82.1 220.35 88.25 217.15 94.35 210.45 94.35 203.7 94.35 200.55 88.25 197.35 82.1 197.35 72
M 273.9 76.95
L 264.4 76.95 287.2 38.8 270.9 38.8 246.95 78.45 246.95 89.85 273.9 89.85 273.9 105.9 288.3 105.9 288.3 89.85 295.9 89.85 295.9 76.95 288.3 76.95 288.3 65.2 273.9 65.2 273.9 76.95 Z"/>
</g>
</defs>

<g transform="matrix( 1.9031829833984375, 0, 0, 1.9032745361328125, -236.65,-71) ">
<use xlink:href="#Layer1_0_FILL"/>
</g>
</svg>
