
<svg xmlns="http://www.w3.org/2000/svg" version="1.1" xmlns:xlink="http://www.w3.org/1999/xlink" preserveAspectRatio="none" x="0px" y="0px" width="1350px" height="132px" viewBox="0 0 1350 132">
<defs>
<g id="Layer2_0_FILL">
<path fill="#1B1B21" stroke="none" d="
M 87.75 27.85
L 87.75 2.85 0 2.85 0 130.55 28.55 130.55 28.55 80.5 84.8 80.5 84.8 55.45 28.55 55.45 28.55 27.85 87.75 27.85
M 215.4 45.3
Q 215.4 22.9 202.7 12.85 196.45 7.9 185.8 5.4 175.2 2.85 160.25 2.85
L 111.85 2.85 111.85 130.55 140.4 130.55 140.4 89.8 160.1 89.8 188.35 130.55 223.45 130.55 191.1 84.85
Q 203.3 80.4 209.4 70.5 215.4 60.6 215.4 45.3
M 180.9 31.2
Q 183.7 33 185 36.6 186.45 40.15 186.45 45.4 186.45 55.65 181.1 60.4 178.45 62.8 173.5 64.05 168.45 65.15 161.15 65.15
L 140.4 65.15 140.4 27.3 161.7 27.3
Q 175.4 27.3 180.9 31.2
M 336.7 28.25
L 336.7 2.85 244.6 2.85 244.6 130.55 338.7 130.55 338.7 105.35 273.15 105.35 273.15 78.8 330.35 78.8 330.35 54.5 273.15 54.5 273.15 28.25 336.7 28.25
M 456.15 28.25
L 456.15 2.85 364.05 2.85 364.05 130.55 458.15 130.55 458.15 105.35 392.6 105.35 392.6 78.8 449.75 78.8 449.75 54.5 392.6 54.5 392.6 28.25 456.15 28.25
M 566.45 130.55
L 566.45 105.15 512 105.15 512 2.85 483.45 2.85 483.45 130.55 566.45 130.55
M 666.4 102.95
L 678.2 130.55 708.55 130.55 653.45 2.85 625.75 2.85 570.65 130.55 600.9 130.55 612.8 102.95 666.4 102.95
M 623.65 77.95
L 639.65 40.8 655.55 77.95 623.65 77.95
M 841.1 2.85
L 812.65 2.85 812.65 85.05 749.95 2.85 723.3 2.85 723.3 130.55 751.85 130.55 751.85 50.5 812.65 130.55 841.1 130.55 841.1 2.85
M 933.25 27.1
Q 953.2 27.1 966.8 43.95
L 984.6 23.85
Q 963.3 0 931.9 0 903.75 0 884.3 18.9 864.8 37.95 864.8 66.3 864.8 94.75 883.95 113.35 903.05 132 932.55 132 947.3 132 960.15 125.9 972.9 119.8 983.75 107.5
L 965.6 88.7
Q 952.15 105.35 931.25 105.35 923.5 105.35 916.95 102.65 910.4 99.9 905.05 94.6 899.65 89.15 896.95 82 894.3 74.9 894.3 65.95 894.3 57.1 897.15 49.95 900 42.8 905.75 37.65 917.15 27.1 933.25 27.1
M 1098.35 28.25
L 1098.35 2.85 1006.2 2.85 1006.2 130.55 1100.35 130.55 1100.35 105.35 1034.75 105.35 1034.75 78.8 1091.95 78.8 1091.95 54.5 1034.75 54.5 1034.75 28.25 1098.35 28.25
M 1229.2 45.3
Q 1229.2 22.9 1216.55 12.85 1210.25 7.9 1199.6 5.4 1189.05 2.85 1174.1 2.85
L 1125.65 2.85 1125.65 130.55 1154.2 130.55 1154.2 89.8 1173.9 89.8 1202.2 130.55 1237.3 130.55 1204.95 84.85
Q 1217.1 80.4 1223.2 70.5 1229.2 60.6 1229.2 45.3
M 1175.55 27.3
Q 1189.25 27.3 1194.75 31.2 1197.5 33 1198.85 36.6 1200.25 40.15 1200.25 45.4 1200.25 55.65 1194.95 60.4 1192.3 62.8 1187.35 64.05 1182.3 65.15 1174.95 65.15
L 1154.2 65.15 1154.2 27.3 1175.55 27.3
M 1299.55 24.9
Q 1317.35 24.9 1333.9 37.55
L 1348.35 16.75
Q 1338.85 8.65 1326.1 4.25 1313.35 0 1300.5 0 1280.9 0 1267.85 9.8 1254.8 19.7 1254.8 37.85 1254.8 47 1257.35 53.55 1259.95 60.2 1265.1 64.5 1275.45 73 1297.7 78.3 1311.8 81.75 1316.45 85.15 1321.35 88.5 1321.35 94.2 1321.35 100 1316.75 103.45 1312.3 106.85 1304.5 106.85 1286.95 106.85 1266.3 88.7
L 1249.3 109.5
Q 1273.55 132 1303.9 132 1314.45 132 1322.95 129.3 1331.4 126.65 1337.8 121.3 1350.65 110.65 1350.65 93.45 1350.65 84.85 1348.15 78.4 1345.7 71.85 1340.65 67.25 1330.55 58.4 1312.4 53.95 1294.3 49.45 1289.15 46.15 1284.2 42.8 1284.2 37.2 1284.2 31.65 1288.3 28.35 1292.4 24.9 1299.55 24.9 Z"/>
</g>
</defs>

<g transform="matrix( 1, 0, 0, 1, 0,0) ">
<use xlink:href="#Layer2_0_FILL"/>
</g>
</svg>
