
<svg xmlns="http://www.w3.org/2000/svg" version="1.1" xmlns:xlink="http://www.w3.org/1999/xlink" preserveAspectRatio="none" x="0px" y="0px" width="708px" height="132px" viewBox="0 0 708 132">
<defs>
<g id="Layer1_0_FILL">
<path fill="#27272F" stroke="none" d="
M 156.45 2.85
L 131.05 76.3 108.5 2.85 78.8 2.85 56.15 76.3 30.9 2.85 0 2.85 44.65 130.55 65.75 130.55 93.55 41.8 121.5 130.55 142.65 130.55 187.3 2.85 156.45 2.85
M 324.4 91.75
Q 329.15 79.95 329.15 65.85 329.15 51.75 324.4 39.95 319.55 28.35 309.85 18.85 290.45 0 262.2 0 233.8 0 214.5 18.85 204.8 28.35 199.95 39.95 195.1 51.75 195.1 65.85 195.1 94 214.5 112.85 233.8 131.8 262.2 131.8 290.45 131.8 309.85 112.85 319.55 103.45 324.4 91.75
M 247.5 27.8
Q 254.3 24.75 262.25 24.75 278.25 24.75 289.2 36.85 300.25 48.9 300.25 65.95 300.25 83.1 289.2 95.05 278.25 107.05 262.25 107.05 254.3 107.05 247.5 104 240.75 101.05 235.35 95.05 224.4 83.1 224.4 65.95 224.4 48.9 235.35 36.85 240.75 30.85 247.5 27.8
M 444.15 12.85
Q 437.85 7.9 427.2 5.4 416.65 2.85 401.7 2.85
L 353.25 2.85 353.25 130.55 381.8 130.55 381.8 89.85 401.5 89.85 429.75 130.55 464.9 130.55 432.5 84.9
Q 444.7 80.4 450.8 70.5 456.8 60.6 456.8 45.3 456.8 22.95 444.15 12.85
M 426.45 36.65
Q 427.85 40.15 427.85 45.4 427.85 55.65 422.55 60.45 419.85 62.8 414.9 64.05 409.9 65.2 402.55 65.2
L 381.8 65.2 381.8 27.3 403.1 27.3
Q 416.8 27.3 422.35 31.2 425.1 33 426.45 36.65
M 514.55 2.85
L 486 2.85 486 130.55 514.55 130.55 514.55 94.3 527.3 80.15 564.8 130.55 598.1 130.55 547.2 59.3 598.1 2.85 562.7 2.85 514.55 55.3 514.55 2.85
M 691.2 37.6
L 705.65 16.75
Q 696.15 8.65 683.4 4.3 670.65 0 657.8 0 638.2 0 625.15 9.8 612.1 19.7 612.1 37.85 612.1 47 614.65 53.6 617.25 60.25 622.4 64.5 632.75 73 655 78.3 669.1 81.75 673.75 85.15 678.65 88.5 678.65 94.2 678.65 100 674.05 103.45 669.6 106.85 661.8 106.85 644.25 106.85 623.6 88.7
L 606.6 109.55
Q 630.85 132 661.2 132 671.75 132 680.25 129.35 688.7 126.65 695.1 121.35 707.95 110.7 707.95 93.45 707.95 84.9 705.45 78.4 703 71.85 697.95 67.3 687.85 58.45 669.7 53.95 651.6 49.5 646.45 46.15 641.5 42.8 641.5 37.2 641.5 31.7 645.6 28.35 649.7 24.95 656.85 24.95 674.65 24.95 691.2 37.6 Z"/>
</g>
</defs>

<g transform="matrix( 1, 0, 0, 1, 0,0) ">
<use xlink:href="#Layer1_0_FILL"/>
</g>
</svg>
