
<svg xmlns="http://www.w3.org/2000/svg" version="1.1" xmlns:xlink="http://www.w3.org/1999/xlink" preserveAspectRatio="none" x="0px" y="0px" width="763px" height="132px" viewBox="0 0 763 132">
<defs>
<g id="Layer3_0_FILL">
<path fill="#FFFFFF" stroke="none" d="
M 205.5 87
L 205.5 15.75 194.8 15.75 194.8 87 205.5 87
M 231.8 35.9
L 221.1 35.9 221.1 87 231.8 87 231.8 35.9
M 233.35 20.95
Q 233.35 18.2 231.35 16.15 229.35 14.15 226.55 14.15 223.75 14.15 221.75 16.15 219.7 18.2 219.7 20.95 219.7 23.7 221.75 25.75 223.75 27.75 226.55 27.75 229.35 27.75 231.35 25.75 233.35 23.7 233.35 20.95
M 285.6 35.9
L 285.6 44.85
Q 279.25 35.15 269 35.15 258.75 35.15 251.4 42.3 247.75 45.8 245.95 50.55 244.1 55.25 244.1 61.15 244.1 67.1 245.95 71.85 247.75 76.7 251.35 80.4 255 84.1 259.2 85.9 263.4 87.75 268.25 87.75 273.05 87.75 277.45 85.65 281.75 83.55 285.6 79.3
L 285.6 105.6 296.3 105.6 296.3 35.9 285.6 35.9
M 276.45 45.8
Q 279.15 47 281.35 49.4 283.55 51.85 284.7 54.9 285.75 57.9 285.75 61.55 285.75 65.2 284.7 68.2 283.55 71.2 281.35 73.5 279.15 75.85 276.45 77 273.75 78.2 270.65 78.2 267.45 78.2 264.7 77 261.9 75.85 259.55 73.55 254.9 68.95 254.9 61.6 254.9 54.3 259.5 49.4 261.75 47 264.55 45.8 267.3 44.6 270.5 44.6 273.75 44.6 276.45 45.8
M 358.35 35.9
L 347.6 35.9 347.6 63.55
Q 347.6 67.15 346.55 69.85 345.55 72.5 343.5 74.4 339.35 78.1 333.75 78.1 327.9 78.1 324.95 74.55 322.05 71 322.05 63.95
L 322.05 35.9 311.3 35.9 311.3 67.2
Q 311.3 77.2 316.6 82.5 321.95 87.75 330.6 87.75 335.9 87.75 340.45 85.1 342.75 83.7 344.5 81.9 346.3 80.05 347.6 77.65
L 347.6 87 358.35 87 358.35 35.9
M 384.6 35.9
L 373.9 35.9 373.9 87 384.6 87 384.6 35.9
M 384.15 16.15
Q 382.15 14.15 379.35 14.15 376.55 14.15 374.55 16.15 372.5 18.2 372.5 20.95 372.5 23.7 374.55 25.75 376.55 27.75 379.35 27.75 382.15 27.75 384.15 25.75 386.15 23.7 386.15 20.95 386.15 18.2 384.15 16.15
M 431.15 37.3
Q 427.05 35.15 421.95 35.15 411.7 35.15 404.3 42.3 400.6 45.8 398.8 50.6 396.9 55.3 396.9 61.25 396.9 73.15 404.1 80.5 407.75 84.15 411.95 85.9 416.15 87.75 421 87.75 432.45 87.75 438.4 79.3
L 438.4 87 449.1 87 449.1 15.75 438.4 15.75 438.4 43.8
Q 435.25 39.45 431.15 37.3
M 423.3 44.6
Q 429.75 44.6 434.15 49.45 436.35 51.9 437.5 54.95 438.55 58.05 438.55 61.65 438.55 65.3 437.5 68.3 436.35 71.3 434.15 73.6 431.95 75.95 429.25 77.1 426.55 78.3 423.45 78.3 420.25 78.3 417.5 77.1 414.7 75.95 412.35 73.65 407.7 69.05 407.7 61.7 407.7 54.4 412.3 49.45 416.85 44.6 423.3 44.6
M 530.3 87
L 530.3 35.9 519.6 35.9 519.6 87 530.3 87
M 511.05 35.9
L 499.95 35.9 484.35 74.55 468.8 35.9 457.65 35.9 478.25 87 490.5 87 511.05 35.9
M 531.85 20.95
Q 531.85 18.2 529.85 16.15 527.85 14.15 525.05 14.15 522.25 14.15 520.25 16.15 518.2 18.2 518.2 20.95 518.2 23.7 520.25 25.75 522.25 27.75 525.05 27.75 527.85 27.75 529.85 25.75 531.85 23.7 531.85 20.95
M 576.85 48.35
L 580.9 40.35
Q 573 35.15 564.2 35.15 559.8 35.15 556.2 36.25 552.65 37.3 549.85 39.4 547.1 41.6 545.75 44.4 544.35 47.25 544.35 50.8 544.35 60.9 560.25 65.2
L 561.45 65.6
Q 566.5 67.15 569.05 68.85 571.6 70.6 571.6 72.5 571.6 75.1 569.5 76.8 567.4 78.45 563.75 78.45 555.4 78.45 546.45 71.7
L 541.3 80.1
Q 544.35 82.5 551.9 85.75 557.9 87.75 563.45 87.75 567.6 87.75 570.95 86.65 574.35 85.6 576.95 83.4 579.65 81.25 580.95 78.3 582.25 75.4 582.25 71.7 582.25 68.1 580.95 65.4 579.7 62.7 577.05 61
L 572.25 58.3 557.25 53.4
Q 554.7 52.25 554.7 49.75 554.7 46.95 557.15 45.55 559.5 44.2 563.35 44.2 567 44.2 570.4 45.25 573.75 46.25 576.85 48.35
M 640.9 35.9
L 630.15 35.9 630.15 63.55
Q 630.15 67.15 629.1 69.85 628.1 72.5 626.05 74.4 621.9 78.1 616.3 78.1 610.45 78.1 607.5 74.55 604.6 71 604.6 63.95
L 604.6 35.9 593.85 35.9 593.85 67.2
Q 593.85 77.2 599.15 82.5 604.5 87.75 613.15 87.75 618.45 87.75 623 85.1 625.3 83.7 627.05 81.9 628.85 80.05 630.15 77.65
L 630.15 87 640.9 87 640.9 35.9
M 696.35 45.6
Q 694.95 42 692.1 39.7 689.25 37.45 685.55 36.3 681.9 35.15 677.35 35.15 671.45 35.15 666.2 37.05 660.9 38.85 656.25 42.55
L 661.05 49.25
Q 668.7 44.1 675.85 44.1 681.45 44.1 684.3 46.65 687.15 49.15 687.15 54.3
L 687.15 56.2 673.2 56.2
Q 668.5 56.2 664.75 57.15 660.95 58.1 658.15 59.9 652.6 63.65 652.6 71.2 652.6 75 653.9 78 655.2 81 657.85 83.25 660.4 85.5 663.75 86.65 667.05 87.75 671 87.75 681.7 87.75 688.05 80.2
L 688.05 87 697.8 87 697.8 54.1
Q 697.8 49.15 696.35 45.6
M 687.05 67.95
Q 687.05 70.45 686.1 72.4 685.1 74.35 683.2 75.75 679.35 78.65 674.25 78.65 669.1 78.65 666.25 76.7 663.3 74.7 663.3 70.95 663.3 67.3 666.25 65.5 669.15 63.65 674.95 63.65
L 687.05 63.65 687.05 67.95
M 723.5 15.75
L 712.8 15.75 712.8 87 723.5 87 723.5 15.75 Z"/>
</g>
</defs>

<g transform="matrix( 1.4434356689453125, 0, 0, 1.4434051513671875, -281.2,-20.4) ">
<use xlink:href="#Layer3_0_FILL"/>
</g>
</svg>
