
<svg xmlns="http://www.w3.org/2000/svg" version="1.1" xmlns:xlink="http://www.w3.org/1999/xlink" preserveAspectRatio="none" x="0px" y="0px" width="1045px" height="132px" viewBox="0 0 1045 132">
<defs>
<g id="Layer0_0_FILL">
<path fill="#27272F" stroke="none" d="
M 101 24.65
L 101 0 0 0 0 24.65 36.3 24.65 36.3 127.7 64.75 127.7 64.75 24.65 101 24.65
M 200.9 70.5
Q 200.9 78.25 199.1 84.25 197.3 90.3 193.9 94.7 190.35 99.15 185.5 101.35 180.85 103.65 174.75 103.65 168.65 103.65 163.9 101.35 159.15 99.15 155.55 94.7 148.4 85.85 148.4 70.5
L 148.4 0 119.95 0 119.95 71.4
Q 119.95 85.3 123.85 95.85 127.65 106.5 135.35 114 150.85 128.95 174.75 128.95 186.75 128.95 196.55 125.35 206.35 121.55 213.95 114.1 229.4 99.25 229.4 71.4
L 229.4 0 200.9 0 200.9 70.5
M 349.2 24.65
L 349.2 0 248.2 0 248.2 24.65 284.5 24.65 284.5 127.7 312.95 127.7 312.95 24.65 349.2 24.65
M 491.95 91.75
Q 496.7 79.95 496.7 65.85 496.7 51.75 491.95 39.95 487.1 28.35 477.4 18.85 458 0 429.7 0 401.35 0 382.05 18.85 372.35 28.35 367.45 39.95 362.6 51.75 362.6 65.85 362.6 94.05 382.05 112.85 401.35 131.8 429.7 131.8 458 131.8 477.4 112.85 487.1 103.45 491.95 91.75
M 415.05 27.8
Q 421.8 24.75 429.8 24.75 445.8 24.75 456.75 36.85 467.8 48.9 467.8 65.95 467.8 83.1 456.75 95.05 445.8 107.05 429.8 107.05 421.8 107.05 415.05 104 408.3 101.05 402.9 95.05 391.95 83.1 391.95 65.95 391.95 48.9 402.9 36.85 408.3 30.85 415.05 27.8
M 624.35 42.45
Q 624.35 20.1 611.7 10 605.4 5.05 594.75 2.55 584.2 0 569.25 0
L 520.8 0 520.8 127.7 549.35 127.7 549.35 87 569.05 87 597.3 127.7 632.45 127.7 600.05 82.05
Q 612.25 77.55 618.35 67.65 624.35 57.75 624.35 42.45
M 570.65 24.45
Q 584.35 24.45 589.9 28.35 592.65 30.15 594 33.8 595.4 37.3 595.4 42.55 595.4 52.8 590.1 57.6 587.4 59.95 582.45 61.2 577.4 62.35 570.1 62.35
L 549.35 62.35 549.35 24.45 570.65 24.45
M 682.1 0
L 653.55 0 653.55 127.7 682.1 127.7 682.1 0
M 779.65 0
L 751.95 0 696.85 127.7 727.1 127.7 739 100.1 792.6 100.1 804.4 127.7 834.75 127.7 779.65 0
M 765.85 38
L 781.75 75.1 749.85 75.1 765.85 38
M 878.05 0
L 849.5 0 849.5 127.7 932.5 127.7 932.5 102.3 878.05 102.3 878.05 0
M 1043.2 16.75
Q 1033.65 8.65 1020.9 4.3 1008.15 0 995.3 0 975.7 0 962.65 9.8 949.65 19.7 949.65 37.9 949.65 47 952.2 53.6 954.75 60.25 959.9 64.5 970.3 73 992.55 78.3 1006.65 81.75 1011.3 85.2 1016.15 88.5 1016.15 94.2 1016.15 100 1011.6 103.45 1007.1 106.85 999.3 106.85 981.8 106.85 961.15 88.7
L 944.1 109.55
Q 968.4 132 998.75 132 1009.3 132 1017.75 129.35 1026.25 126.65 1032.6 121.35 1045.45 110.7 1045.45 93.45 1045.45 84.9 1043 78.4 1040.5 71.85 1035.45 67.3 1025.4 58.45 1007.2 53.95 989.15 49.5 984 46.15 979.05 42.85 979.05 37.2 979.05 31.7 983.15 28.35 987.2 24.95 994.35 24.95 1012.15 24.95 1028.7 37.6
L 1043.2 16.75 Z"/>
</g>
</defs>

<g transform="matrix( 1, 0, 0, 1, 0,0) ">
<use xlink:href="#Layer0_0_FILL"/>
</g>
</svg>
