
<svg xmlns="http://www.w3.org/2000/svg" version="1.1" xmlns:xlink="http://www.w3.org/1999/xlink" preserveAspectRatio="none" x="0px" y="0px" width="1608px" height="132px" viewBox="0 0 1608 132">
<defs>
<g id="Layer2_0_FILL">
<path fill="#1B1B21" stroke="none" d="
M 84.6 37.6
L 99.05 16.75
Q 89.55 8.65 76.8 4.3 64.05 0 51.2 0 31.6 0 18.55 9.8 5.5 19.7 5.5 37.9 5.5 47 8.1 53.6 10.65 60.25 15.8 64.55 26.15 73 48.45 78.35 62.55 81.75 67.2 85.2 72.05 88.5 72.05 94.2 72.05 100.05 67.5 103.45 63 106.9 55.2 106.9 37.7 106.9 17.05 88.7
L 0 109.55
Q 24.25 132 54.65 132 65.2 132 73.65 129.35 82.15 126.65 88.5 121.35 101.35 110.7 101.35 93.45 101.35 84.9 98.9 78.4 96.4 71.85 91.35 67.3 81.25 58.45 63.1 53.95 45 49.5 39.9 46.15 34.95 42.85 34.95 37.2 34.95 31.7 39 28.35 43.1 24.95 50.25 24.95 68.05 24.95 84.6 37.6
M 230.2 2.85
L 197.1 73 164.15 2.85 125.6 2.85 125.6 130.6 154.15 130.6 154.15 50.15 188.55 119.9 205.45 119.9 240 50.15 240 130.6 268.55 130.6 268.55 2.85 230.2 2.85
M 366.1 2.85
L 338.4 2.85 283.3 130.6 313.6 130.6 325.5 103 379.05 103 390.85 130.6 421.2 130.6 366.1 2.85
M 368.2 77.95
L 336.35 77.95 352.3 40.85 368.2 77.95
M 622.7 130.6
L 622.7 105.15 568.25 105.15 568.25 2.85 539.7 2.85 539.7 130.6 622.7 130.6
M 518.95 130.6
L 518.95 105.15 464.5 105.15 464.5 2.85 435.95 2.85 435.95 130.6 518.95 130.6
M 786.45 36.65
Q 786.45 24.25 777.9 14.3 773.15 9.05 763.75 5.9 754.3 2.85 741.25 2.85
L 691.6 2.85 691.6 130.6 747.55 130.6
Q 760.7 130.6 769.9 127.65 779.15 124.6 784.45 118.7 793.6 108.5 793.6 95.15 793.6 89.1 791.8 84.15 790 79 786.55 74.9 779.45 66.8 767.65 64.25
L 772.2 62.15 776.65 58.9
Q 786.45 51.6 786.45 36.65
M 733.75 27.05
Q 746.4 27.05 751.75 29.8 756.95 32.45 756.95 40.95 756.95 49.5 751.25 51.95 745.45 54.55 733.65 54.55
L 720.15 54.55 720.15 27.05 733.75 27.05
M 736.9 77.1
Q 751.15 77.1 757.65 79.95 760.85 81.35 762.5 84.25 764.1 87.1 764.1 91.55 764.1 95.95 762.6 99 761.05 101.95 758 103.45 751.95 106.5 739.65 106.5
L 720.15 106.5 720.15 77.1 736.9 77.1
M 925.05 2.85
L 896.6 2.85 896.6 73.4
Q 896.6 81.1 894.75 87.1 892.95 93.15 889.55 97.55 886 102 881.15 104.2 876.5 106.5 870.4 106.5 864.3 106.5 859.55 104.2 854.8 102 851.2 97.55 844.05 88.7 844.05 73.4
L 844.05 2.85 815.6 2.85 815.6 74.25
Q 815.6 88.15 819.5 98.7 823.3 109.35 831 116.85 846.5 131.8 870.4 131.8 882.4 131.8 892.2 128.2 902 124.4 909.6 116.95 925.05 102.1 925.05 74.25
L 925.05 2.85
M 1044.45 16.75
Q 1034.95 8.65 1022.2 4.3 1009.45 0 996.6 0 977 0 963.95 9.8 950.9 19.7 950.9 37.9 950.9 47 953.5 53.6 956.05 60.25 961.2 64.55 971.55 73 993.85 78.35 1007.95 81.75 1012.6 85.2 1017.45 88.5 1017.45 94.2 1017.45 100.05 1012.9 103.45 1008.4 106.9 1000.6 106.9 983.1 106.9 962.45 88.7
L 945.4 109.55
Q 969.65 132 1000.05 132 1010.6 132 1019.05 129.35 1027.55 126.65 1033.9 121.35 1046.75 110.7 1046.75 93.45 1046.75 84.9 1044.3 78.4 1041.8 71.85 1036.75 67.3 1026.7 58.45 1008.5 53.95 990.4 49.5 985.3 46.15 980.35 42.85 980.35 37.2 980.35 31.7 984.4 28.35 988.5 24.95 995.65 24.95 1013.45 24.95 1030 37.6
L 1044.45 16.75
M 1099.6 2.85
L 1071.05 2.85 1071.05 130.6 1099.6 130.6 1099.6 2.85
M 1248.7 2.85
L 1220.25 2.85 1220.25 85.1 1157.55 2.85 1130.9 2.85 1130.9 130.6 1159.45 130.6 1159.45 50.55 1220.25 130.6 1248.7 130.6 1248.7 2.85
M 1372.25 28.25
L 1372.25 2.85 1280.1 2.85 1280.1 130.6 1374.25 130.6 1374.25 105.35 1308.65 105.35 1308.65 78.8 1365.85 78.8 1365.85 54.55 1308.65 54.55 1308.65 28.25 1372.25 28.25
M 1489.5 16.75
Q 1479.95 8.65 1467.2 4.3 1454.45 0 1441.6 0 1422 0 1408.95 9.8 1395.95 19.7 1395.95 37.9 1395.95 47 1398.5 53.6 1401.05 60.25 1406.2 64.55 1416.6 73 1438.85 78.35 1452.95 81.75 1457.6 85.2 1462.45 88.5 1462.45 94.2 1462.45 100.05 1457.9 103.45 1453.4 106.9 1445.6 106.9 1428.1 106.9 1407.45 88.7
L 1390.4 109.55
Q 1414.7 132 1445.05 132 1455.6 132 1464.05 129.35 1472.55 126.65 1478.9 121.35 1491.75 110.7 1491.75 93.45 1491.75 84.9 1489.3 78.4 1486.8 71.85 1481.75 67.3 1471.7 58.45 1453.5 53.95 1435.4 49.5 1430.3 46.15 1425.35 42.85 1425.35 37.2 1425.35 31.7 1429.45 28.35 1433.5 24.95 1440.65 24.95 1458.45 24.95 1475 37.6
L 1489.5 16.75
M 1605.95 16.75
Q 1596.45 8.65 1583.7 4.3 1570.95 0 1558.1 0 1538.5 0 1525.45 9.8 1512.4 19.7 1512.4 37.9 1512.4 47 1515 53.6 1517.55 60.25 1522.7 64.55 1533.05 73 1555.35 78.35 1569.4 81.75 1574.1 85.2 1578.95 88.5 1578.95 94.2 1578.95 100.05 1574.35 103.45 1569.9 106.9 1562.1 106.9 1544.6 106.9 1523.95 88.7
L 1506.9 109.55
Q 1531.15 132 1561.5 132 1572.1 132 1580.55 129.35 1589.05 126.65 1595.4 121.35 1608.25 110.7 1608.25 93.45 1608.25 84.9 1605.8 78.4 1603.3 71.85 1598.25 67.3 1588.15 58.45 1570 53.95 1551.9 49.5 1546.75 46.15 1541.8 42.85 1541.8 37.2 1541.8 31.7 1545.9 28.35 1550 24.95 1557.15 24.95 1574.95 24.95 1591.5 37.6
L 1605.95 16.75 Z"/>
</g>
</defs>

<g transform="matrix( 1, 0, 0, 1, 0,0) ">
<use xlink:href="#Layer2_0_FILL"/>
</g>
</svg>
