
<svg xmlns="http://www.w3.org/2000/svg" version="1.1" xmlns:xlink="http://www.w3.org/1999/xlink" preserveAspectRatio="none" x="0px" y="0px" width="772px" height="132px" viewBox="0 0 772 132">
<defs>
<g id="Layer9_0_FILL">
<path fill="#FFFFFF" stroke="none" d="
M 103.55 45.3
Q 103.55 22.95 90.9 12.85 84.6 7.9 73.95 5.45 63.4 2.85 48.45 2.85
L 0 2.85 0 130.6 28.55 130.6 28.55 89.85 48.25 89.85 76.5 130.6 111.65 130.6 79.3 84.9
Q 91.45 80.45 97.55 70.55 103.55 60.65 103.55 45.3
M 49.9 27.35
Q 63.6 27.35 69.1 31.25 71.85 33.05 73.2 36.65 74.6 40.2 74.6 45.4 74.6 55.7 69.3 60.45 66.6 62.85 61.7 64.05 56.65 65.2 49.3 65.2
L 28.55 65.2 28.55 27.35 49.9 27.35
M 224.9 28.3
L 224.9 2.85 132.75 2.85 132.75 130.6 226.9 130.6 226.9 105.35 161.3 105.35 161.3 78.8 218.5 78.8 218.5 54.55 161.3 54.55 161.3 28.3 224.9 28.3
M 327.65 37.6
L 342.15 16.75
Q 332.6 8.7 319.85 4.3 307.1 0 294.25 0 274.65 0 261.65 9.8 248.6 19.7 248.6 37.9 248.6 47.05 251.15 53.6 253.75 60.25 258.85 64.55 269.25 73 291.5 78.35 305.6 81.75 310.25 85.2 315.1 88.55 315.1 94.25 315.1 100.05 310.55 103.45 306.05 106.9 298.25 106.9 280.75 106.9 260.1 88.7
L 243.05 109.55
Q 267.35 132 297.7 132 308.25 132 316.75 129.35 325.2 126.7 331.6 121.35 344.4 110.7 344.4 93.5 344.4 84.9 341.95 78.45 339.45 71.85 334.45 67.3 324.35 58.45 306.15 54 288.1 49.5 282.95 46.2 278 42.85 278 37.25 278 31.7 282.1 28.4 286.2 24.95 293.3 24.95 311.1 24.95 327.65 37.6
M 476.35 2.85
L 447.85 2.85 447.85 73.4
Q 447.85 81.1 446.05 87.1 444.25 93.2 440.85 97.55 437.3 102.05 432.45 104.25 427.8 106.5 421.7 106.5 415.6 106.5 410.85 104.25 406.1 102.05 402.5 97.55 395.35 88.7 395.35 73.4
L 395.35 2.85 366.9 2.85 366.9 74.25
Q 366.9 88.15 370.8 98.7 374.6 109.35 382.3 116.9 397.8 131.85 421.7 131.85 433.7 131.85 443.5 128.2 453.3 124.4 460.9 117 476.35 102.15 476.35 74.25
L 476.35 2.85
M 648.75 130.6
L 648.75 2.85 610.4 2.85 577.3 73 544.35 2.85 505.85 2.85 505.85 130.6 534.4 130.6 534.4 50.15 568.75 119.95 585.7 119.95 620.2 50.15 620.2 130.6 648.75 130.6
M 772.2 28.3
L 772.2 2.85 680.1 2.85 680.1 130.6 774.2 130.6 774.2 105.35 708.65 105.35 708.65 78.8 765.85 78.8 765.85 54.55 708.65 54.55 708.65 28.3 772.2 28.3 Z"/>
</g>
</defs>

<g transform="matrix( 1, 0, 0, 1, 0,0) ">
<use xlink:href="#Layer9_0_FILL"/>
</g>
</svg>
