
<svg xmlns="http://www.w3.org/2000/svg" version="1.1" xmlns:xlink="http://www.w3.org/1999/xlink" preserveAspectRatio="none" x="0px" y="0px" width="791px" height="132px" viewBox="0 0 791 132">
<defs>
<g id="Layer1_0_FILL">
<path fill="#1B1B21" stroke="none" d="
M 111.45 0
L 81.95 0 81.95 55.1 29.5 55.1 29.5 0 0 0 0 132 29.5 132 29.5 80.05 81.95 80.05 81.95 132 111.45 132 111.45 0
M 173.45 132
L 173.45 0 143.95 0 143.95 132 173.45 132
M 312.85 43.85
Q 312.85 20.75 299.75 10.3 293.25 5.2 282.25 2.65 271.35 0 255.9 0
L 205.8 0 205.8 132 235.3 132 235.3 89.9 255.7 89.9 284.9 132 321.2 132 287.75 84.8
Q 300.35 80.15 306.65 69.95 312.85 59.7 312.85 43.85
M 277.25 29.3
Q 280.1 31.15 281.45 34.9 282.95 38.55 282.95 43.95 282.95 54.6 277.45 59.5 274.65 61.95 269.55 63.25 264.35 64.4 256.75 64.4
L 235.3 64.4 235.3 25.25 257.35 25.25
Q 271.55 25.25 277.25 29.3
M 438.25 26.25
L 438.25 0 343.05 0 343.05 132 440.35 132 440.35 105.95 372.55 105.95 372.55 78.5 431.7 78.5 431.7 53.4 372.55 53.4 372.55 26.25 438.25 26.25
M 664.05 132
L 664.05 0 624.4 0 590.15 72.5 556.15 0 516.3 0 516.3 132 545.8 132 545.8 48.9 581.3 121 598.8 121 634.55 48.9 634.55 132 664.05 132
M 791.65 26.25
L 791.65 0 696.4 0 696.4 132 793.7 132 793.7 105.95 725.9 105.95 725.9 78.5 785.05 78.5 785.05 53.4 725.9 53.4 725.9 26.25 791.65 26.25
M 235.3 -282.95
L 235.3 -165.45 352.8 -165.45 352.8 -282.95 235.3 -282.95 Z"/>

<path fill="#EFF1F4" stroke="none" d="
M 70.5 -165.45
L 70.5 -282.95 -47 -282.95 -47 -165.45 70.5 -165.45 Z"/>

<path fill="#27272F" stroke="none" d="
M 213.5 -282.95
L 96 -282.95 96 -165.45 213.5 -165.45 213.5 -282.95 Z"/>
</g>
</defs>

<g transform="matrix( 1, 0, 0, 1, 0,0) ">
<use xlink:href="#Layer1_0_FILL"/>
</g>
</svg>
