
<svg xmlns="http://www.w3.org/2000/svg" version="1.1" xmlns:xlink="http://www.w3.org/1999/xlink" preserveAspectRatio="none" x="0px" y="0px" width="873px" height="132px" viewBox="0 0 873 132">
<defs>
<g id="Layer3_0_FILL">
<path fill="#000000" fill-opacity="0.7490196078431373" stroke="none" d="
M 44.05 16.65
Q 50.35 16.65 55.95 22.8
L 64.05 9.1
Q 53.75 0 41.35 0 29 0 20.35 8.45 11.55 17 11.55 31.5
L 11.55 38.65 0 38.65 0 54.3 11.55 54.3 11.55 130.65 31 130.65 31 54.3 55.1 54.3 55.1 38.65 31 38.65 31 31.05
Q 31 24.5 34.3 20.65 37.85 16.65 44.05 16.65
M 95 77.15
Q 96.8 70.8 100.4 66.2 104 61.5 109.4 59.15 114.8 56.9 122 56.9
L 123.1 56.9 122.9 37.3
Q 113.9 37.45 105.9 43.05 97.9 48.55 93.1 57.2
L 93.1 38.65 73.85 38.65 73.85 130.65 93.1 130.65 93.1 91.2
Q 93.1 83.4 95 77.15
M 200.35 40.15
Q 192.35 37.3 183 37.3 164.25 37.3 150.4 50.15 143.45 56.45 139.95 65.2 136.5 73.75 136.5 84.55 136.5 95.45 139.95 104.1 143.35 112.75 150.1 119.2 163.7 132 183.05 132 194.95 132 204.7 128.2 214.3 124.35 221.8 116.6
L 210.7 104.55
Q 201.7 115.45 184.5 115.45 179 115.45 174.15 113.9 169.3 112.4 165.05 109.3 156.6 103.1 155.95 93.2
L 228 93.2 228 79.85
Q 228 69.9 224.75 62.15 221.45 54.3 214.85 48.65 208.3 42.95 200.35 40.15
M 173.45 55.55
Q 178.1 53.95 183.45 53.95 194.05 53.95 201.35 60.05 204.95 63.2 206.85 67.7 208.65 72.15 208.65 77.9
L 155.95 77.9
Q 155.95 72.4 158.05 68 160.2 63.65 164.35 60.35 168.55 57.1 173.45 55.55
M 375.3 2.35
L 356.05 2.35 356.05 130.65 375.3 130.65 375.3 2.35
M 334.8 79.85
Q 334.8 69.9 331.55 62.15 328.2 54.3 321.65 48.65 315.05 42.95 307.15 40.15 299.15 37.3 289.75 37.3 271.05 37.3 257.2 50.15 250.25 56.45 246.75 65.2 243.3 73.75 243.3 84.55 243.3 95.45 246.75 104.1 250.15 112.75 256.9 119.2 270.5 132 289.85 132 301.75 132 311.45 128.2 321.1 124.35 328.6 116.6
L 317.5 104.55
Q 308.5 115.45 291.3 115.45 285.8 115.45 280.95 113.9 276.1 112.4 271.85 109.3 263.4 103.1 262.75 93.2
L 334.8 93.2 334.8 79.85
M 262.75 77.9
Q 262.75 72.4 264.85 68 267 63.65 271.15 60.35 275.35 57.1 280.25 55.55 284.9 53.95 290.2 53.95 300.85 53.95 308.15 60.05 311.75 63.2 313.65 67.7 315.45 72.15 315.45 77.9
L 262.75 77.9
M 467.6 45.5
Q 462.45 41.45 455.8 39.35 449.25 37.3 441.05 37.3 430.4 37.3 420.95 40.7 411.4 43.95 403.05 50.6
L 411.7 62.7
Q 425.45 53.4 438.35 53.4 448.4 53.4 453.55 58 458.7 62.5 458.7 71.75
L 458.7 75.2 433.55 75.2
Q 425.1 75.2 418.35 76.9 411.5 78.6 406.45 81.85 396.45 88.6 396.45 102.2 396.45 109.05 398.8 114.45 401.15 119.85 405.9 123.9 410.5 127.95 416.55 130.05 422.5 132 429.6 132 448.85 132 460.3 118.4
L 460.3 130.65 477.85 130.65 477.85 71.4
Q 477.85 62.5 475.25 56.1 472.75 49.6 467.6 45.5
M 421.05 91.95
Q 426.25 88.6 436.7 88.6
L 458.5 88.6 458.5 96.35
Q 458.5 100.85 456.8 104.35 455 107.9 451.55 110.4 444.65 115.6 435.45 115.6 426.2 115.6 421.05 112.1 415.75 108.5 415.75 101.75 415.75 95.2 421.05 91.95
M 579.95 46.85
Q 575.2 42.05 568.8 39.6 562.6 37.3 554.85 37.3 550 37.3 545.6 38.45 541.15 39.7 537.1 42.15 528.9 47 524.15 55.45
L 524.15 38.65 504.9 38.65 504.9 130.65 524.15 130.65 524.15 80.85
Q 524.15 68.1 531.6 61.4 535.3 58.1 539.75 56.45 544.15 54.75 549.1 54.75 570.15 54.75 570.15 80.15
L 570.15 130.65 589.5 130.65 589.5 74.3
Q 589.5 56.3 579.95 46.85
M 679.2 40.9
Q 670.45 37.3 660 37.3 649.65 37.3 640.95 40.6 632.1 43.85 624.8 50.5 610.4 63.75 610.4 84.85 610.4 95.35 613.9 103.9 617.35 112.45 624.25 119.05 631.2 125.5 639.5 128.75 647.75 132 657.25 132 668.2 132 677.95 127.75 687.65 123.55 696.05 115.15
L 684.6 102.65
Q 678.85 108.5 672.8 111.5 666.7 114.35 660.3 114.35 647.4 114.35 638.6 105.6 629.85 96.8 629.85 84.1 629.85 77.7 632 72.5 634.25 67.35 638.7 63.3 647.7 55.3 659.75 55.3 665.8 55.3 671.8 57.9 677.75 60.5 683.8 65.65
L 695.15 51.7
Q 688 44.5 679.2 40.9
M 788.4 48.65
Q 781.85 42.95 773.9 40.15 765.9 37.3 756.55 37.3 737.8 37.3 723.95 50.15 717 56.45 713.5 65.2 710.1 73.75 710.1 84.55 710.1 95.45 713.5 104.1 716.95 112.75 723.7 119.2 737.3 132 756.65 132 768.5 132 778.25 128.2 787.9 124.35 795.35 116.6
L 784.3 104.55
Q 775.25 115.45 758.1 115.45 752.6 115.45 747.7 113.9 742.85 112.4 738.65 109.3 730.15 103.1 729.55 93.2
L 801.55 93.2 801.55 79.85
Q 801.55 69.9 798.3 62.15 795 54.3 788.4 48.65
M 729.55 77.9
Q 729.55 72.4 731.6 68 733.75 63.65 737.9 60.35 742.15 57.1 747 55.55 751.7 53.95 757 53.95 767.6 53.95 774.9 60.05 778.5 63.2 780.4 67.7 782.2 72.15 782.2 77.9
L 729.55 77.9
M 871.9 37.3
Q 862.9 37.45 854.85 43.05 846.85 48.55 842.1 57.2
L 842.1 38.65 822.8 38.65 822.8 130.65 842.1 130.65 842.1 91.2
Q 842.1 83.4 843.95 77.15 845.8 70.8 849.4 66.2 853 61.5 858.4 59.15 863.8 56.9 871 56.9
L 872.05 56.9 871.9 37.3 Z"/>
</g>
</defs>

<g transform="matrix( 1, 0, 0, 1, 0,0) ">
<use xlink:href="#Layer3_0_FILL"/>
</g>
</svg>
