
<svg xmlns="http://www.w3.org/2000/svg" version="1.1" xmlns:xlink="http://www.w3.org/1999/xlink" preserveAspectRatio="none" x="0px" y="0px" width="326px" height="132px" viewBox="0 0 326 132">
<defs>
<g id="Layer1_0_FILL">
<path fill="#EFF1F4" stroke="none" d="
M 76.6 2.85
L 45.6 2.85 0 78.3 0 100 51.3 100 51.3 130.55 78.7 130.55 78.7 100 93.15 100 93.15 75.45 78.7 75.45 78.7 53.1 51.3 53.1 51.3 75.45 33.2 75.45 76.6 2.85
M 216.6 65.95
Q 216.6 35.85 203.45 17.9 190.25 0 163.85 0 137.35 0 124.2 17.9 111.05 35.85 111.05 65.95 111.05 96 124.2 114.1 137.35 132 163.85 132 190.35 132 203.45 114.1 216.6 96 216.6 65.95
M 163.85 23.5
Q 176.65 23.5 182.7 35.2 188.6 46.9 188.6 66.05 188.6 85.25 182.7 96.95 176.65 108.55 163.85 108.55 151.05 108.55 145.05 96.95 138.95 85.25 138.95 66.05 138.95 46.9 145.05 35.2 151.05 23.5 163.85 23.5
M 326.5 100
L 326.5 75.45 312.05 75.45 312.05 53.1 284.65 53.1 284.65 75.45 266.55 75.45 309.95 2.85 278.9 2.85 233.35 78.3 233.35 100 284.65 100 284.65 130.55 312.05 130.55 312.05 100 326.5 100 Z"/>
</g>
</defs>

<g transform="matrix( 1, 0, 0, 1, 0,0) ">
<use xlink:href="#Layer1_0_FILL"/>
</g>
</svg>
