
<svg xmlns="http://www.w3.org/2000/svg" version="1.1" xmlns:xlink="http://www.w3.org/1999/xlink" preserveAspectRatio="none" x="0px" y="0px" width="953px" height="187px" viewBox="0 0 953 187">
<defs>
<g id="Layer3_0_FILL">
<path fill="#1B1B21" stroke="none" d="
M 183.6 122.8
L 182.95 122.8 151.1 4.85 106.45 4.85 74.9 122.8 74.1 122.8 46.05 4.85 0 4.85 50.35 182.2 93.05 182.2 128.15 62.15 128.8 62.15 163.75 182.2 206.3 182.2 256.8 4.85 212.3 4.85 183.6 122.8
M 460 92.8
Q 460 71.55 452.8 54.15 445.5 37.1 432.6 25.05 419.65 13.05 401.9 6.55 384.05 0 363.3 0 342.4 0 324.8 6.55 307.15 13.05 294.25 25.05 281.35 37.1 274.05 54.15 266.85 71.55 266.85 92.8 266.85 113.8 274.05 131.15 281.35 148.65 294.25 161.05 307.15 173.45 324.8 180.25 342.4 187 363.3 187 384.05 187 401.9 180.25 419.65 173.45 432.6 161.05 445.5 148.65 452.8 131.15 460 113.8 460 92.8
M 410.4 71.25
Q 414.2 81.3 414.2 92.8 414.2 104.8 410.4 114.85 406.6 125.05 399.8 132.35 393.05 139.65 383.75 143.8 374.65 147.85 363.3 147.85 351.95 147.85 342.65 143.8 333.55 139.65 326.75 132.35 320.2 125.05 316.45 114.85 312.65 104.8 312.65 92.8 312.65 81.3 316.3 71.25 319.95 61.2 326.6 54.05 333.55 46.85 342.65 42.7 351.95 38.5 363.3 38.5 374.65 38.5 383.9 42.7 393.3 46.85 399.95 54.05 406.6 61.2 410.4 71.25
M 602.5 16.35
Q 592.8 10.05 580.7 7.45 568.7 4.85 555.75 4.85
L 488.3 4.85 488.3 182.2 530.05 182.2 530.05 111.85 544.65 111.85 583.15 182.2 633.3 182.2 586.8 106.25
Q 604.2 101 613.95 88.75 623.6 76.5 623.6 58.35 623.6 43.1 617.9 32.75 612.15 22.6 602.5 16.35
M 571.95 42.95
Q 576.1 45.15 578.75 48.95 581.35 52.85 581.35 59.15 581.35 65.9 578.6 70.2 575.6 74.4 571.05 76.75 566.6 78.95 561 79.75
L 550.15 80.8 529.65 80.8 529.65 39.45 562.7 40.2
Q 567.75 40.85 571.95 42.95
M 696.85 77
L 696.05 77 696.05 4.85 654.3 4.85 654.3 182.2 696.05 182.2 696.05 100.5 696.55 100.5 762.35 182.2 818.3 182.2 737.3 86.55 813.75 4.85 760.25 4.85 696.85 77
M 925.85 5.75
Q 910.2 0.3 895.3 0.3 882.65 0.3 870.4 3.4 858.1 6.55 848.35 13.35 838.55 20.1 832.65 30.55 826.55 41.1 826.55 56 826.55 67.85 830.45 76.35 834.35 84.7 840.65 90.6 847.05 96.6 855.25 100.25
L 887.5 112 899.1 117.2
Q 903.65 120.05 906.25 123.6 908.75 127.1 908.75 132.1 908.75 137.3 906.8 141.1 904.7 144.85 901.3 147.1 897.9 149.45 893.35 150.35
L 884.1 151.4
Q 873.65 151.4 862.95 146.05 852.25 140.55 845.85 132.45
L 817.8 161.2
Q 829.55 173.45 847.3 180.1 865.15 186.75 884.1 186.75 897.25 186.75 909.4 183.25 921.8 179.7 931.2 172.4 940.7 165.2 946.35 154 952.05 142.8 952.05 127.65 952.05 114.35 946.7 105.35 941.5 96.6 933.55 90.45 925.45 84.45 915.65 80.9
L 885.65 70.35 877.05 66.2
Q 873.4 63.85 871.55 60.95 869.75 57.95 869.75 53.4 869.75 48.15 871.95 44.8 874.45 41.4 877.8 39.3 881.5 37.1 885.8 36.4
L 894.4 35.65
Q 902.75 35.65 911.6 39.8 920.5 43.85 925.95 50.9
L 953.4 22.05
Q 941.5 11.25 925.85 5.75 Z"/>
</g>
</defs>

<g transform="matrix( 1, 0, 0, 1, 0,0) ">
<use xlink:href="#Layer3_0_FILL"/>
</g>
</svg>
