
<svg xmlns="http://www.w3.org/2000/svg" version="1.1" xmlns:xlink="http://www.w3.org/1999/xlink" preserveAspectRatio="none" x="0px" y="0px" width="1083px" height="187px" viewBox="0 0 1083 187">
<defs>
<g id="Layer4_0_FILL">
<path fill="#EFF1F4" stroke="none" d="
M 507.9 -214.15
L 507.9 -282.95 480.45 -282.95 480.45 -214.95
Q 480.45 -200.2 473.65 -191.65 466.8 -183.05 455.25 -183.05 443.6 -183.05 436.7 -191.65 429.85 -200.2 429.85 -214.95
L 429.85 -282.95 402.4 -282.95 402.4 -214.15
Q 402.4 -187.45 417.25 -173.05 432.2 -158.65 455.25 -158.65 478.25 -158.65 493 -172.95 507.9 -187.25 507.9 -214.15
M 563.85 -282.95
L 536.3 -282.95 536.3 -159.85 616.3 -159.85 616.3 -184.3 563.85 -184.3 563.85 -282.95
M 75.3 -276.25
Q 62.75 -266.7 62.75 -249.2 62.75 -231.75 72.65 -223.5 82.65 -215.35 104.1 -210.2 117.7 -206.9 122.2 -203.6 126.85 -200.4 126.85 -194.85 126.85 -189.3 122.45 -185.95 118.15 -182.65 110.65 -182.65 93.75 -182.65 73.85 -200.2
L 57.45 -180.1
Q 80.85 -158.45 110.1 -158.45 130.35 -158.45 142.75 -168.7 155.1 -179 155.1 -195.6 155.1 -212.1 145.5 -220.85 135.75 -229.35 118.25 -233.7 100.8 -238 95.85 -241.2 91.1 -244.4 91.1 -249.85 91.1 -255.15 95.05 -258.35 99 -261.65 105.85 -261.65 123 -261.65 139 -249.45
L 152.9 -269.55
Q 143.75 -277.35 131.45 -281.55 119.15 -285.7 106.8 -285.7 87.9 -285.7 75.3 -276.25
M 305.1 -215.35
L 273.35 -282.95 236.2 -282.95 236.2 -159.85 263.7 -159.85 263.7 -237.35 296.85 -170.1 313.15 -170.1 346.45 -237.35 346.45 -159.85 373.95 -159.85 373.95 -282.95 337 -282.95 305.1 -215.35
M 206.05 -282.95
L 178.5 -282.95 178.5 -159.85 206.05 -159.85 206.05 -282.95
M 1033.1 -282.95
L 989.6 -282.95 989.6 -159.85 1031.7 -159.85
Q 1066.9 -159.85 1084.05 -176.6 1101.3 -193.3 1101.3 -222.05 1101.3 -250.75 1083.7 -266.8 1066 -282.95 1033.1 -282.95
M 1017.1 -259
L 1032.45 -259
Q 1053.35 -259 1063.45 -249.2 1073.6 -239.45 1073.6 -221.3 1073.6 -203.15 1063.45 -193.6 1053.35 -184.15 1034.45 -184.15
L 1017.1 -184.15 1017.1 -259
M 700.15 -282.95
L 673.45 -282.95 620.35 -159.85 649.5 -159.85 660.95 -186.45 712.6 -186.45 724 -159.85 753.25 -159.85 700.15 -282.95
M 671.4 -210.55
L 686.85 -246.35 702.15 -210.55 671.4 -210.55
M 963.3 -258.45
L 963.3 -282.95 874.5 -282.95 874.5 -159.85 965.2 -159.85 965.2 -184.15 902 -184.15 902 -209.75 957.15 -209.75 957.15 -233.15 902 -233.15 902 -258.45 963.3 -258.45
M 854.5 -259.2
L 854.5 -282.95 757.2 -282.95 757.2 -259.2 792.15 -259.2 792.15 -159.85 819.55 -159.85 819.55 -259.2 854.5 -259.2 Z"/>
</g>

<g id="Layer4_1_FILL">
<path fill="#EFF1F4" stroke="none" d="
M 603.05 -102.8
Q 603.05 -125.05 590.45 -135.1 577.85 -145.05 548.2 -145.05
L 499.95 -145.05 499.95 -17.85 528.4 -17.85 528.4 -58.45 548 -58.45 576.15 -17.85 611.1 -17.85 578.9 -63.35
Q 603.05 -72.25 603.05 -102.8
M 568.75 -116.8
Q 574.25 -113.05 574.25 -102.7 574.25 -92.45 568.95 -87.7 563.65 -83 549.05 -83
L 528.4 -83 528.4 -120.7 549.6 -120.7
Q 563.25 -120.7 568.75 -116.8
M 472.75 -119.75
L 472.75 -145.05 381.05 -145.05 381.05 -17.85 474.75 -17.85 474.75 -43 409.45 -43 409.45 -69.45 466.4 -69.45 466.4 -93.6 409.45 -93.6 409.45 -119.75 472.75 -119.75
M 259.8 -145.05
L 259.8 -120.5 295.95 -120.5 295.95 -17.85 324.25 -17.85 324.25 -120.5 360.35 -120.5 360.35 -145.05 259.8 -145.05
M 62.25 -145.05
L 62.25 -17.85 90.65 -17.85 90.65 -145.05 62.25 -145.05
M 148.4 -145.05
L 121.85 -145.05 121.85 -17.85 150.25 -17.85 150.25 -97.6 210.85 -17.85 239.15 -17.85 239.15 -145.05 210.85 -145.05 210.85 -63.15 148.4 -145.05
M 950.4 -145.05
L 919.6 -145.05 964.05 -17.85 985.05 -17.85 1012.75 -106.3 1040.6 -17.85 1061.65 -17.85 1106.1 -145.05 1075.4 -145.05 1050.1 -71.9 1027.6 -145.05 998.05 -145.05 975.5 -71.9 950.4 -145.05
M 908.6 -119.75
L 908.6 -145.05 816.85 -145.05 816.85 -17.85 910.6 -17.85 910.6 -43 845.3 -43 845.3 -69.45 902.25 -69.45 902.25 -93.6 845.3 -93.6 845.3 -119.75 908.6 -119.75
M 667.05 -17.85
L 691.2 -17.85 742.3 -145.05 711.5 -145.05 679.15 -64.05 646.75 -145.05 615.95 -145.05 667.05 -17.85
M 785.7 -145.05
L 757.25 -145.05 757.25 -17.85 785.7 -17.85 785.7 -145.05 Z"/>
</g>
</defs>

<g transform="matrix( 0.409454345703125, 0, 0, 0.4095306396484375, -23.5,117) ">
<use xlink:href="#Layer4_0_FILL"/>
</g>

<g transform="matrix( 1.037933349609375, 0, 0, 1.038116455078125, -64.6,206.6) ">
<use xlink:href="#Layer4_1_FILL"/>
</g>
</svg>
