
<svg xmlns="http://www.w3.org/2000/svg" version="1.1" xmlns:xlink="http://www.w3.org/1999/xlink" preserveAspectRatio="none" x="0px" y="0px" width="908px" height="132px" viewBox="0 0 908 132">
<defs>
<g id="Layer1_0_FILL">
<path fill="#1B1B21" stroke="none" d="
M 84.6 37.6
L 99.1 16.75
Q 89.55 8.7 76.8 4.3 64.05 0 51.2 0 31.6 0 18.55 9.8 5.5 19.7 5.5 37.9 5.5 47.05 8.1 53.6 10.65 60.25 15.8 64.55 26.2 73 48.45 78.35 62.55 81.75 67.2 85.2 72.05 88.5 72.05 94.25 72.05 100.05 67.5 103.45 63 106.9 55.2 106.9 37.7 106.9 17.05 88.7
L 0 109.55
Q 24.25 132 54.65 132 65.2 132 73.65 129.35 82.15 126.7 88.5 121.35 101.35 110.7 101.35 93.45 101.35 84.9 98.9 78.45 96.4 71.85 91.35 67.3 81.3 58.45 63.1 54 45 49.5 39.9 46.15 34.95 42.85 34.95 37.25 34.95 31.7 39 28.4 43.1 24.95 50.25 24.95 68.05 24.95 84.6 37.6
M 217.75 28.3
L 217.75 2.85 125.65 2.85 125.65 130.6 219.75 130.6 219.75 105.35 154.2 105.35 154.2 78.8 211.4 78.8 211.4 54.55 154.2 54.55 154.2 28.3 217.75 28.3
M 348.6 45.3
Q 348.6 22.95 335.95 12.85 329.7 7.9 319 5.45 308.45 2.85 293.5 2.85
L 245.05 2.85 245.05 130.6 273.6 130.6 273.6 89.85 293.35 89.85 321.6 130.6 356.7 130.6 324.35 84.9
Q 336.55 80.45 342.65 70.55 348.6 60.65 348.6 45.3
M 294.95 27.35
Q 308.65 27.35 314.15 31.25 316.95 33.05 318.25 36.65 319.7 40.2 319.7 45.4 319.7 55.7 314.35 60.45 311.7 62.85 306.75 64.05 301.7 65.2 294.35 65.2
L 273.6 65.2 273.6 27.35 294.95 27.35
M 457.5 2.85
L 425.05 84.25 392.5 2.85 361.55 2.85 412.85 130.6 437.15 130.6 488.45 2.85 457.5 2.85
M 532 2.85
L 503.45 2.85 503.45 130.6 532 130.6 532 2.85
M 657.65 44
L 675.45 23.9
Q 654.15 0 622.7 0 594.55 0 575.15 18.95 555.6 38 555.6 66.35 555.6 94.8 574.75 113.35 593.9 132 623.4 132 638.15 132 651 125.95 663.75 119.85 674.6 107.55
L 656.4 88.7
Q 643 105.35 622.05 105.35 614.35 105.35 607.8 102.7 601.2 99.95 595.9 94.6 590.45 89.2 587.8 82.05 585.15 74.9 585.15 65.95 585.15 57.1 588 50 590.85 42.85 596.55 37.7 607.95 27.15 624.05 27.15 644.05 27.15 657.65 44
M 789.2 28.3
L 789.2 2.85 697.05 2.85 697.05 130.6 791.2 130.6 791.2 105.35 725.6 105.35 725.6 78.8 782.8 78.8 782.8 54.55 725.6 54.55 725.6 28.3 789.2 28.3
M 891.95 37.6
L 906.45 16.75
Q 896.9 8.7 884.15 4.3 871.4 0 858.55 0 838.95 0 825.9 9.8 812.85 19.7 812.85 37.9 812.85 47.05 815.45 53.6 818 60.25 823.15 64.55 833.55 73 855.8 78.35 869.9 81.75 874.55 85.2 879.4 88.5 879.4 94.25 879.4 100.05 874.85 103.45 870.35 106.9 862.55 106.9 845.05 106.9 824.4 88.7
L 807.35 109.55
Q 831.6 132 862 132 872.55 132 881 129.35 889.5 126.7 895.85 121.35 908.7 110.7 908.7 93.45 908.7 84.9 906.25 78.45 903.75 71.85 898.7 67.3 888.65 58.45 870.45 54 852.35 49.5 847.25 46.15 842.3 42.85 842.3 37.25 842.3 31.7 846.4 28.4 850.45 24.95 857.6 24.95 875.4 24.95 891.95 37.6 Z"/>
</g>
</defs>

<g transform="matrix( 1, 0, 0, 1, 0,0) ">
<use xlink:href="#Layer1_0_FILL"/>
</g>
</svg>
