
<svg xmlns="http://www.w3.org/2000/svg" version="1.1" xmlns:xlink="http://www.w3.org/1999/xlink" preserveAspectRatio="none" x="0px" y="0px" width="513px" height="509px" viewBox="0 0 513 509">
<defs>
<g id="Layer1_0_FILL">
<path fill="#BD2E67" stroke="none" d="
M 358.4 293.4
Q 356.45 291.4 353.65 291.4 350.85 291.4 348.85 293.4 346.9 295.35 346.9 298.15 346.9 300.95 348.85 302.95 350.85 304.95 353.65 304.95 356.45 304.95 358.4 302.95 360.4 300.95 360.4 298.15 360.4 295.4 358.4 293.4 Z"/>
</g>

<g id="Layer1_1_FILL">
<path fill="#BD2E67" stroke="none" d="
M 326.25 301.2
Q 327.9 299.5 327.9 297.15 327.9 294.8 326.25 293.1 324.55 291.4 322.2 291.4 319.85 291.4 318.15 293.1 316.5 294.8 316.5 297.15 316.5 299.5 318.15 301.2 319.85 302.85 322.2 302.85 324.55 302.85 326.25 301.2 Z"/>
</g>

<g id="Layer1_2_FILL">
<path fill="#BD2E67" stroke="none" d="
M 303 379.8
Q 303 376.85 300.9 374.7 298.8 372.6 295.8 372.6 292.85 372.6 290.7 374.7 288.6 376.85 288.6 379.8 288.6 382.8 290.7 384.9 292.85 387 295.8 387 298.8 387 300.9 384.9 303 382.8 303 379.8 Z"/>
</g>

<g id="Layer1_3_FILL">
<path fill="#BD2E67" stroke="none" d="
M 296.9 432.8
Q 296.9 429.65 294.7 427.45 292.45 425.2 289.3 425.2 286.15 425.2 283.95 427.45 281.75 429.65 281.75 432.8 281.75 435.95 283.95 438.2 286.15 440.4 289.3 440.4 292.45 440.4 294.7 438.2 296.9 435.95 296.9 432.8 Z"/>
</g>

<g id="Layer1_4_FILL">
<path fill="#BD2E67" stroke="none" d="
M 338.85 392.45
Q 338.85 390.2 337.25 388.6 335.65 387 333.4 387 331.1 387 329.5 388.6 327.9 390.2 327.9 392.45 327.9 394.75 329.5 396.35 331.1 397.95 333.4 397.95 335.65 397.95 337.25 396.35 338.85 394.75 338.85 392.45 Z"/>
</g>

<g id="Layer1_5_FILL">
<path fill="#BD2E67" stroke="none" d="
M 280.65 346.1
Q 279.55 345 278 345 276.45 345 275.35 346.1 274.25 347.15 274.25 348.7 274.25 350.25 275.35 351.35 276.45 352.45 278 352.45 279.55 352.45 280.65 351.35 281.75 350.25 281.75 348.7 281.75 347.15 280.65 346.1 Z"/>
</g>

<g id="Layer1_6_FILL">
<path fill="#BD2E67" stroke="none" d="
M 288.6 403.25
Q 288.6 401.05 287.05 399.5 285.5 397.95 283.3 397.95 281.1 397.95 279.55 399.5 278 401.05 278 403.25 278 405.45 279.55 407 281.1 408.55 283.3 408.55 285.5 408.55 287.05 407 288.6 405.45 288.6 403.25 Z"/>
</g>

<g id="Layer1_7_FILL">
<path fill="#BD2E67" stroke="none" d="
M 540.9 417.85
Q 540.9 414.9 538.8 412.8 536.7 410.7 533.7 410.7 530.75 410.7 528.6 412.8 526.5 414.9 526.5 417.85 526.5 420.85 528.6 422.95 530.75 425.05 533.7 425.05 536.7 425.05 538.8 422.95 540.9 420.85 540.9 417.85 Z"/>
</g>

<g id="Layer1_8_FILL">
<path fill="#BD2E67" stroke="none" d="
M 554.4 486.05
Q 554.4 483.3 552.4 481.3 550.45 479.3 547.65 479.3 544.85 479.3 542.85 481.3 540.9 483.25 540.9 486.05 540.9 488.85 542.85 490.8 544.85 492.8 547.65 492.8 550.45 492.8 552.4 490.8 554.4 488.85 554.4 486.05 Z"/>
</g>

<g id="Layer1_9_FILL">
<path fill="#BD2E67" stroke="none" d="
M 557.55 433.3
Q 557.55 430.35 555.45 428.25 553.35 426.15 550.4 426.15 547.4 426.15 545.3 428.25 543.2 430.35 543.2 433.3 543.2 436.3 545.3 438.4 547.4 440.5 550.4 440.5 553.35 440.5 555.45 438.4 557.55 436.3 557.55 433.3 Z"/>
</g>

<g id="Layer1_10_FILL">
<path fill="#BD2E67" stroke="none" d="
M 467.3 380.25
Q 467.3 377.55 465.4 375.65 463.5 373.75 460.8 373.75 458.1 373.75 456.2 375.65 454.3 377.55 454.3 380.25 454.3 382.95 456.2 384.9 458.1 386.8 460.8 386.8 463.5 386.8 465.4 384.9 467.3 382.95 467.3 380.25 Z"/>
</g>

<g id="Layer1_11_FILL">
<path fill="#BD2E67" stroke="none" d="
M 524.95 437.55
Q 523.4 436 521.2 436 519 436 517.45 437.55 515.9 439.1 515.9 441.3 515.9 443.5 517.45 445.05 519 446.6 521.2 446.6 523.4 446.6 524.95 445.05 526.5 443.5 526.5 441.3 526.5 439.1 524.95 437.55 Z"/>
</g>

<g id="Layer1_12_FILL">
<path fill="#BD2E67" stroke="none" d="
M 437.75 294.15
Q 435.9 292.3 433.25 292.3 430.65 292.3 428.75 294.15 426.9 296.05 426.9 298.65 426.9 301.25 428.75 303.1 430.6 304.95 433.25 304.95 435.9 304.95 437.75 303.1 439.6 301.25 439.6 298.65 439.6 296.05 437.75 294.15 Z"/>
</g>

<g id="Layer1_13_FILL">
<path fill="#BD2E67" stroke="none" d="
M 355.15 266.65
Q 355.15 263 352.55 260.35 349.95 257.75 346.25 257.75 342.6 257.75 339.95 260.35 337.35 263 337.35 266.65 337.35 270.35 339.95 272.95 342.6 275.55 346.25 275.55 349.95 275.55 352.55 272.95 355.15 270.35 355.15 266.65 Z"/>
</g>

<g id="Layer1_14_FILL">
<path fill="#BD2E67" stroke="none" d="
M 400.15 292.35
Q 400.15 289.75 398.3 287.9 396.5 286.05 393.85 286.05 391.25 286.05 389.4 287.9 387.55 289.75 387.55 292.35 387.55 294.95 389.4 296.8 391.25 298.65 393.85 298.65 396.45 298.65 398.3 296.8 400.15 294.95 400.15 292.35 Z"/>
</g>

<g id="Layer1_15_FILL">
<path fill="#BD2E67" stroke="none" d="
M 482 337.4
Q 482 334.45 479.9 332.3 477.75 330.2 474.8 330.2 471.85 330.2 469.75 332.3 467.65 334.45 467.65 337.4 467.65 340.35 469.75 342.45 471.85 344.55 474.8 344.55 477.75 344.55 479.9 342.45 482 340.35 482 337.4 Z"/>
</g>

<g id="Layer1_16_FILL">
<path fill="#BD2E67" stroke="none" d="
M 545.3 340.75
Q 545.3 338.65 543.85 337.2 542.35 335.7 540.25 335.7 538.15 335.7 536.7 337.2 535.2 338.65 535.2 340.75 535.2 342.85 536.7 344.35 538.15 345.85 540.25 345.85 542.35 345.85 543.85 344.35 545.3 342.85 545.3 340.75 Z"/>
</g>

<g id="Layer1_17_FILL">
<path fill="#BD2E67" stroke="none" d="
M 550.4 316.8
Q 550.4 314.7 548.9 313.25 547.4 311.75 545.3 311.75 543.2 311.75 541.75 313.25 540.25 314.7 540.25 316.8 540.25 318.9 541.75 320.4 543.2 321.85 545.3 321.85 547.4 321.85 548.9 320.4 550.4 318.9 550.4 316.8 Z"/>
</g>

<g id="Layer1_18_FILL">
<path fill="#BD2E67" stroke="none" d="
M 428.8 341.75
Q 428.8 339.25 427 337.45 425.25 335.7 422.75 335.7 420.25 335.7 418.45 337.45 416.7 339.25 416.7 341.75 416.7 344.25 418.45 346.05 420.25 347.8 422.75 347.8 425.25 347.8 427 346.05 428.8 344.25 428.8 341.75 Z"/>
</g>

<g id="Layer1_19_FILL">
<path fill="#BD2E67" stroke="none" d="
M 485.35 306.2
Q 482 309.55 482 314.3 482 319.05 485.35 322.35 488.7 325.7 493.4 325.7 498.15 325.7 501.5 322.35 504.85 319.05 504.85 314.3 504.85 309.55 501.5 306.2 498.15 302.85 493.4 302.85 488.7 302.85 485.35 306.2 Z"/>
</g>

<g id="Layer1_20_FILL">
<path fill="#BD2E67" stroke="none" d="
M 537.95 285.7
Q 537.95 283.35 536.3 281.65 534.6 279.95 532.25 279.95 529.9 279.95 528.2 281.65 526.5 283.35 526.5 285.7 526.5 288.05 528.2 289.75 529.9 291.4 532.25 291.4 534.6 291.4 536.3 289.75 537.95 288.05 537.95 285.7 Z"/>
</g>

<g id="Layer1_21_FILL">
<path fill="#BD2E67" stroke="none" d="
M 557.55 403.15
Q 557.55 399.7 555.15 397.25 552.7 394.8 549.25 394.8 545.8 394.8 543.35 397.25 540.9 399.7 540.9 403.15 540.9 406.6 543.35 409.05 545.8 411.45 549.25 411.45 552.7 411.45 555.15 409.05 557.55 406.6 557.55 403.15 Z"/>
</g>

<g id="Layer1_22_FILL">
<path fill="#BD2E67" stroke="none" d="
M 547.65 259.4
Q 547.65 255.15 544.65 252.2 541.65 249.2 537.45 249.2 533.2 249.2 530.2 252.2 527.2 255.15 527.2 259.4 527.2 263.65 530.2 266.6 533.2 269.6 537.45 269.6 541.65 269.6 544.65 266.6 547.65 263.65 547.65 259.4 Z"/>
</g>

<g id="Layer1_23_FILL">
<path fill="#BD2E67" stroke="none" d="
M 580.5 273.7
Q 580.5 272 579.3 270.8 578.1 269.6 576.4 269.6 574.7 269.6 573.55 270.8 572.35 272 572.35 273.7 572.35 275.4 573.55 276.55 574.7 277.75 576.4 277.75 578.1 277.75 579.3 276.55 580.5 275.4 580.5 273.7 Z"/>
</g>

<path id="Layer0_0_1_STROKES" stroke="#000000" stroke-opacity="0" stroke-width="1" stroke-linejoin="round" stroke-linecap="round" fill="none" d="
M 0 0
L 513 0 513 509 0 509 0 0 Z"/>
</defs>

<g transform="matrix( 1, 0, 0, 1, -131.5,-188.95) ">
<use xlink:href="#Layer1_0_FILL"/>
</g>

<g transform="matrix( 1, 0, 0, 1, -131.5,-188.95) ">
<use xlink:href="#Layer1_1_FILL"/>
</g>

<g transform="matrix( 1, 0, 0, 1, -131.5,-188.95) ">
<use xlink:href="#Layer1_2_FILL"/>
</g>

<g transform="matrix( 1, 0, 0, 1, -131.5,-188.95) ">
<use xlink:href="#Layer1_3_FILL"/>
</g>

<g transform="matrix( 1, 0, 0, 1, -131.5,-188.95) ">
<use xlink:href="#Layer1_4_FILL"/>
</g>

<g transform="matrix( 1, 0, 0, 1, -131.5,-188.95) ">
<use xlink:href="#Layer1_5_FILL"/>
</g>

<g transform="matrix( 1, 0, 0, 1, -131.5,-188.95) ">
<use xlink:href="#Layer1_6_FILL"/>
</g>

<g transform="matrix( 1, 0, 0, 1, -131.5,-188.95) ">
<use xlink:href="#Layer1_7_FILL"/>
</g>

<g transform="matrix( 1, 0, 0, 1, -131.5,-188.95) ">
<use xlink:href="#Layer1_8_FILL"/>
</g>

<g transform="matrix( 1, 0, 0, 1, -131.5,-188.95) ">
<use xlink:href="#Layer1_9_FILL"/>
</g>

<g transform="matrix( 1, 0, 0, 1, -131.5,-188.95) ">
<use xlink:href="#Layer1_10_FILL"/>
</g>

<g transform="matrix( 1, 0, 0, 1, -131.5,-188.95) ">
<use xlink:href="#Layer1_11_FILL"/>
</g>

<g transform="matrix( 1, 0, 0, 1, -131.5,-188.95) ">
<use xlink:href="#Layer1_12_FILL"/>
</g>

<g transform="matrix( 1, 0, 0, 1, -131.5,-188.95) ">
<use xlink:href="#Layer1_13_FILL"/>
</g>

<g transform="matrix( 1, 0, 0, 1, -131.5,-188.95) ">
<use xlink:href="#Layer1_14_FILL"/>
</g>

<g transform="matrix( 1, 0, 0, 1, -131.5,-188.95) ">
<use xlink:href="#Layer1_15_FILL"/>
</g>

<g transform="matrix( 1, 0, 0, 1, -131.5,-188.95) ">
<use xlink:href="#Layer1_16_FILL"/>
</g>

<g transform="matrix( 1, 0, 0, 1, -131.5,-188.95) ">
<use xlink:href="#Layer1_17_FILL"/>
</g>

<g transform="matrix( 1, 0, 0, 1, -131.5,-188.95) ">
<use xlink:href="#Layer1_18_FILL"/>
</g>

<g transform="matrix( 1, 0, 0, 1, -131.5,-188.95) ">
<use xlink:href="#Layer1_19_FILL"/>
</g>

<g transform="matrix( 1, 0, 0, 1, -131.5,-188.95) ">
<use xlink:href="#Layer1_20_FILL"/>
</g>

<g transform="matrix( 1, 0, 0, 1, -131.5,-188.95) ">
<use xlink:href="#Layer1_21_FILL"/>
</g>

<g transform="matrix( 1, 0, 0, 1, -131.5,-188.95) ">
<use xlink:href="#Layer1_22_FILL"/>
</g>

<g transform="matrix( 1, 0, 0, 1, -131.5,-188.95) ">
<use xlink:href="#Layer1_23_FILL"/>
</g>

<g transform="matrix( 1, 0, 0, 1, 0,0) ">
<use xlink:href="#Layer0_0_1_STROKES"/>
</g>
</svg>
