
<svg xmlns="http://www.w3.org/2000/svg" version="1.1" xmlns:xlink="http://www.w3.org/1999/xlink" preserveAspectRatio="none" x="0px" y="0px" width="513px" height="509px" viewBox="0 0 513 509">
<defs>
<g id="Layer3_0_FILL">
<path fill="#6AAB45" stroke="none" d="
M 247.25 291.4
Q 247.25 286.7 243.9 283.3 240.55 279.95 235.8 279.95 231.1 279.95 227.7 283.3 224.35 286.7 224.35 291.4 224.35 296.15 227.7 299.5 231.05 302.85 235.8 302.85 240.55 302.85 243.9 299.5 247.25 296.15 247.25 291.4 Z"/>
</g>

<g id="Layer3_1_FILL">
<path fill="#6AAB45" stroke="none" d="
M 229.4 419.3
Q 229.4 416.6 227.5 414.7 225.6 412.8 222.9 412.8 220.2 412.8 218.3 414.7 216.35 416.6 216.35 419.3 216.35 422 218.3 423.9 220.2 425.8 222.9 425.8 225.6 425.8 227.5 423.9 229.4 422 229.4 419.3 Z"/>
</g>

<g id="Layer3_2_FILL">
<path fill="#74BC4C" stroke="none" d="
M 429.4 369.95
Q 429.4 365.25 426.05 361.9 422.75 358.55 418 358.55 413.3 358.55 409.95 361.9 406.6 365.25 406.6 369.95 406.6 374.7 409.95 378 413.3 381.35 418 381.35 422.75 381.35 426.05 378 429.4 374.7 429.4 369.95 Z"/>
</g>

<g id="Layer3_3_FILL">
<path fill="#7A9134" stroke="none" d="
M 394.3 212.25
Q 394.3 208.6 391.7 206.05 389.15 203.45 385.5 203.45 381.85 203.45 379.3 206.05 376.7 208.6 376.7 212.25 376.7 215.9 379.3 218.45 381.85 221.05 385.5 221.05 389.15 221.05 391.7 218.45 394.3 215.9 394.3 212.25 Z"/>
</g>

<g id="Layer3_4_FILL">
<path fill="#3C8644" stroke="none" d="
M 478.9 222.35
Q 475.4 225.85 475.4 230.8 475.4 235.8 478.9 239.3 482.4 242.8 487.4 242.8 492.35 242.8 495.9 239.3 499.4 235.8 499.4 230.8 499.4 225.85 495.9 222.35 492.35 218.85 487.4 218.85 482.4 218.85 478.9 222.35 Z"/>
</g>

<g id="Layer3_5_FILL">
<path fill="#6AAB45" stroke="none" d="
M 384.7 481.4
Q 384.7 479.5 383.35 478.1 381.95 476.75 380.05 476.75 378.1 476.75 376.75 478.1 375.4 479.5 375.4 481.4 375.4 483.3 376.75 484.7 378.1 486.05 380.05 486.05 381.95 486.05 383.35 484.7 384.7 483.3 384.7 481.4 Z"/>
</g>

<g id="Layer3_6_FILL">
<path fill="#6AAB45" stroke="none" d="
M 514.05 494.65
Q 512.15 492.8 509.5 492.8 506.9 492.8 505 494.65 503.15 496.55 503.15 499.15 503.15 501.8 505 503.7 506.85 505.55 509.5 505.55 512.15 505.55 514.05 503.7 515.9 501.8 515.9 499.15 515.9 496.5 514.05 494.65 Z"/>
</g>

<g id="Layer3_7_FILL">
<path fill="#6AAB45" stroke="none" d="
M 449.15 612.35
Q 449.15 610.35 447.75 608.95 446.35 607.55 444.35 607.55 442.35 607.55 440.95 608.95 439.55 610.35 439.55 612.35 439.55 614.35 440.95 615.75 442.35 617.15 444.35 617.15 446.35 617.15 447.75 615.75 449.15 614.35 449.15 612.35 Z"/>
</g>

<g id="Layer3_8_FILL">
<path fill="#6AAB45" stroke="none" d="
M 442.75 645.95
Q 440.4 645.95 438.7 647.65 437 649.3 437 651.65 437 654 438.7 655.7 440.4 657.35 442.75 657.35 445.1 657.35 446.75 655.7 448.4 654 448.4 651.65 448.4 649.3 446.75 647.65 445.05 645.95 442.75 645.95 Z"/>
</g>

<g id="Layer3_9_FILL">
<path fill="#6AAB45" stroke="none" d="
M 519.65 344.45
Q 519.65 342.6 518.35 341.35 517.05 340.05 515.25 340.05 513.45 340.05 512.15 341.35 510.85 342.6 510.85 344.45 510.85 346.25 512.15 347.55 513.45 348.8 515.25 348.8 517.05 348.8 518.35 347.55 519.65 346.25 519.65 344.45 Z"/>
</g>

<path id="Layer0_0_1_STROKES" stroke="#000000" stroke-opacity="0" stroke-width="1" stroke-linejoin="round" stroke-linecap="round" fill="none" d="
M 0 0
L 513 0 513 509 0 509 0 0 Z"/>
</defs>

<g transform="matrix( 1, 0, 0, 1, -131.5,-188.95) ">
<use xlink:href="#Layer3_0_FILL"/>
</g>

<g transform="matrix( 1, 0, 0, 1, -131.5,-188.95) ">
<use xlink:href="#Layer3_1_FILL"/>
</g>

<g transform="matrix( 1, 0, 0, 1, -131.5,-188.95) ">
<use xlink:href="#Layer3_2_FILL"/>
</g>

<g transform="matrix( 1, 0, 0, 1, -131.5,-188.95) ">
<use xlink:href="#Layer3_3_FILL"/>
</g>

<g transform="matrix( 1, 0, 0, 1, -131.5,-188.95) ">
<use xlink:href="#Layer3_4_FILL"/>
</g>

<g transform="matrix( 1, 0, 0, 1, -131.5,-188.95) ">
<use xlink:href="#Layer3_5_FILL"/>
</g>

<g transform="matrix( 1, 0, 0, 1, -131.5,-188.95) ">
<use xlink:href="#Layer3_6_FILL"/>
</g>

<g transform="matrix( 1, 0, 0, 1, -131.5,-188.95) ">
<use xlink:href="#Layer3_7_FILL"/>
</g>

<g transform="matrix( 1, 0, 0, 1, -131.5,-188.95) ">
<use xlink:href="#Layer3_8_FILL"/>
</g>

<g transform="matrix( 1, 0, 0, 1, -131.5,-188.95) ">
<use xlink:href="#Layer3_9_FILL"/>
</g>

<g transform="matrix( 1, 0, 0, 1, 0,0) ">
<use xlink:href="#Layer0_0_1_STROKES"/>
</g>
</svg>
