
<svg xmlns="http://www.w3.org/2000/svg" version="1.1" xmlns:xlink="http://www.w3.org/1999/xlink" preserveAspectRatio="none" x="0px" y="0px" width="513px" height="509px" viewBox="0 0 513 509">
<defs>
<g id="Layer2_0_FILL">
<path fill="#CB2A30" stroke="none" d="
M 316.5 322.4
Q 316.5 319.15 314.2 316.9 311.9 314.6 308.65 314.6 305.45 314.6 303.15 316.9 300.85 319.2 300.85 322.4 300.85 325.65 303.15 327.9 305.45 330.2 308.65 330.2 311.9 330.2 314.2 327.9 316.5 325.65 316.5 322.4 Z"/>
</g>

<g id="Layer2_1_FILL">
<path fill="#CB2A30" stroke="none" d="
M 319.75 416.05
Q 316.5 419.35 316.5 423.95 316.5 428.6 319.75 431.9 323.05 435.15 327.65 435.15 332.3 435.15 335.6 431.9 338.85 428.6 338.85 423.95 338.85 419.35 335.6 416.05 332.3 412.8 327.65 412.8 323.05 412.8 319.75 416.05 Z"/>
</g>

<g id="Layer2_2_FILL">
<path fill="#CB2A30" stroke="none" d="
M 314.5 443.2
Q 312.55 441.25 309.75 441.25 306.95 441.25 304.95 443.2 303 445.2 303 448 303 450.8 304.95 452.75 306.95 454.75 309.75 454.75 312.55 454.75 314.5 452.75 316.5 450.8 316.5 448 316.5 445.2 314.5 443.2 Z"/>
</g>

<g id="Layer2_3_FILL">
<path fill="#CB2A30" stroke="none" d="
M 323.65 471.35
Q 320.7 471.35 318.6 473.45 316.5 475.55 316.5 478.5 316.5 481.5 318.6 483.6 320.7 485.7 323.65 485.7 326.6 485.7 328.75 483.6 330.85 481.5 330.85 478.5 330.85 475.55 328.75 473.45 326.6 471.35 323.65 471.35 Z"/>
</g>

<g id="Layer2_4_FILL">
<path fill="#CB2A30" stroke="none" d="
M 392.7 393.4
Q 389.7 390.45 385.5 390.45 381.3 390.45 378.35 393.4 375.4 396.35 375.4 400.55 375.4 404.75 378.35 407.75 381.3 410.7 385.5 410.7 389.7 410.7 392.7 407.75 395.65 404.75 395.65 400.55 395.65 396.35 392.7 393.4 Z"/>
</g>

<g id="Layer2_5_FILL">
<path fill="#CB2A30" stroke="none" d="
M 462.25 418.65
Q 462.25 415.35 459.95 413.05 457.6 410.7 454.3 410.7 450.95 410.7 448.65 413.05 446.3 415.35 446.3 418.65 446.3 421.95 448.65 424.3 450.95 426.65 454.3 426.65 457.6 426.65 459.95 424.3 462.25 421.95 462.25 418.65 Z"/>
</g>

<g id="Layer2_6_FILL">
<path fill="#CB2A30" stroke="none" d="
M 439.55 405.75
Q 439.55 402.45 437.25 400.15 434.9 397.85 431.65 397.85 428.35 397.85 426.05 400.15 423.7 402.45 423.7 405.75 423.7 409 426.05 411.35 428.35 413.65 431.65 413.65 434.9 413.65 437.25 411.35 439.55 409 439.55 405.75 Z"/>
</g>

<g id="Layer2_7_FILL">
<path fill="#CB2A30" stroke="none" d="
M 467.3 457.35
Q 467.3 454.65 465.4 452.75 463.5 450.85 460.8 450.85 458.1 450.85 456.2 452.75 454.3 454.65 454.3 457.35 454.3 460.05 456.2 461.95 458.1 463.85 460.8 463.85 463.5 463.85 465.4 461.95 467.3 460.05 467.3 457.35 Z"/>
</g>

<g id="Layer2_8_FILL">
<path fill="#CB2A30" stroke="none" d="
M 485.7 466.4
Q 484 464.7 481.6 464.7 479.25 464.7 477.55 466.4 475.85 468.1 475.85 470.5 475.85 472.9 477.55 474.6 479.25 476.25 481.6 476.25 484 476.25 485.7 474.6 487.4 472.9 487.4 470.5 487.4 468.1 485.7 466.4 Z"/>
</g>

<g id="Layer2_9_FILL">
<path fill="#CB2A30" stroke="none" d="
M 401.1 370.3
Q 401.1 367.05 398.85 364.8 396.55 362.5 393.35 362.5 390.1 362.5 387.8 364.8 385.55 367.05 385.55 370.3 385.55 373.55 387.8 375.8 390.1 378.1 393.35 378.1 396.55 378.1 398.85 375.8 401.1 373.55 401.1 370.3 Z"/>
</g>

<g id="Layer2_10_FILL">
<path fill="#CB2A30" stroke="none" d="
M 485.7 510.75
Q 484 509.05 481.6 509.05 479.25 509.05 477.55 510.75 475.85 512.45 475.85 514.85 475.85 517.2 477.55 518.9 479.25 520.6 481.6 520.6 484 520.6 485.7 518.9 487.4 517.2 487.4 514.85 487.4 512.45 485.7 510.75 Z"/>
</g>

<g id="Layer2_11_FILL">
<path fill="#CB2A30" stroke="none" d="
M 543.2 520.3
Q 543.2 518.05 541.6 516.45 540 514.85 537.7 514.85 535.45 514.85 533.85 516.45 532.25 518.05 532.25 520.3 532.25 522.6 533.85 524.2 535.45 525.8 537.7 525.8 540 525.8 541.6 524.2 543.2 522.6 543.2 520.3 Z"/>
</g>

<g id="Layer2_12_FILL">
<path fill="#CB2A30" stroke="none" d="
M 485.15 536.1
Q 485.15 533.2 483.1 531.2 481.1 529.15 478.2 529.15 475.3 529.15 473.3 531.2 471.25 533.2 471.25 536.1 471.25 538.95 473.3 541 475.3 543.05 478.2 543.05 481.1 543.05 483.1 541 485.15 538.95 485.15 536.1 Z"/>
</g>

<path id="Layer0_0_1_STROKES" stroke="#000000" stroke-opacity="0" stroke-width="1" stroke-linejoin="round" stroke-linecap="round" fill="none" d="
M 0 0
L 513 0 513 509 0 509 0 0 Z"/>
</defs>

<g transform="matrix( 1, 0, 0, 1, -131.5,-188.95) ">
<use xlink:href="#Layer2_0_FILL"/>
</g>

<g transform="matrix( 1, 0, 0, 1, -131.5,-188.95) ">
<use xlink:href="#Layer2_1_FILL"/>
</g>

<g transform="matrix( 1, 0, 0, 1, -131.5,-188.95) ">
<use xlink:href="#Layer2_2_FILL"/>
</g>

<g transform="matrix( 1, 0, 0, 1, -131.5,-188.95) ">
<use xlink:href="#Layer2_3_FILL"/>
</g>

<g transform="matrix( 1, 0, 0, 1, -131.5,-188.95) ">
<use xlink:href="#Layer2_4_FILL"/>
</g>

<g transform="matrix( 1, 0, 0, 1, -131.5,-188.95) ">
<use xlink:href="#Layer2_5_FILL"/>
</g>

<g transform="matrix( 1, 0, 0, 1, -131.5,-188.95) ">
<use xlink:href="#Layer2_6_FILL"/>
</g>

<g transform="matrix( 1, 0, 0, 1, -131.5,-188.95) ">
<use xlink:href="#Layer2_7_FILL"/>
</g>

<g transform="matrix( 1, 0, 0, 1, -131.5,-188.95) ">
<use xlink:href="#Layer2_8_FILL"/>
</g>

<g transform="matrix( 1, 0, 0, 1, -131.5,-188.95) ">
<use xlink:href="#Layer2_9_FILL"/>
</g>

<g transform="matrix( 1, 0, 0, 1, -131.5,-188.95) ">
<use xlink:href="#Layer2_10_FILL"/>
</g>

<g transform="matrix( 1, 0, 0, 1, -131.5,-188.95) ">
<use xlink:href="#Layer2_11_FILL"/>
</g>

<g transform="matrix( 1, 0, 0, 1, -131.5,-188.95) ">
<use xlink:href="#Layer2_12_FILL"/>
</g>

<g transform="matrix( 1, 0, 0, 1, 0,0) ">
<use xlink:href="#Layer0_0_1_STROKES"/>
</g>
</svg>
