
<svg xmlns="http://www.w3.org/2000/svg" version="1.1" xmlns:xlink="http://www.w3.org/1999/xlink" preserveAspectRatio="none" x="0px" y="0px" width="513px" height="509px" viewBox="0 0 513 509">
<defs>
<g id="Layer6_0_FILL">
<path fill="#6E4597" stroke="none" d="
M 191.5 331.9
Q 191.5 327.2 188.15 323.85 184.85 320.5 180.1 320.5 175.4 320.5 172.05 323.85 168.7 327.2 168.7 331.9 168.7 336.65 172.05 339.95 175.4 343.3 180.1 343.3 184.85 343.3 188.15 339.95 191.5 336.65 191.5 331.9 Z"/>
</g>

<g id="Layer6_1_FILL">
<path fill="#6E4597" stroke="none" d="
M 157.75 362.5
Q 157.75 358.3 154.8 355.35 151.8 352.4 147.6 352.4 143.4 352.4 140.45 355.35 137.5 358.3 137.5 362.5 137.5 366.7 140.45 369.65 143.4 372.6 147.6 372.6 151.8 372.6 154.8 369.65 157.75 366.7 157.75 362.5 Z"/>
</g>

<g id="Layer6_2_FILL">
<path fill="#6E4597" stroke="none" d="
M 159.8 385.95
Q 157.75 388 157.75 390.9 157.75 393.8 159.8 395.9 161.85 397.95 164.75 397.95 167.7 397.95 169.75 395.9 171.8 393.85 171.8 390.9 171.8 388 169.75 385.95 167.65 383.9 164.75 383.9 161.85 383.9 159.8 385.95 Z"/>
</g>

<g id="Layer6_3_FILL">
<path fill="#6E4597" stroke="none" d="
M 159.35 304.45
Q 157.75 306.05 157.75 308.35 157.75 310.65 159.35 312.25 160.95 313.85 163.2 313.85 165.5 313.85 167.1 312.25 168.7 310.65 168.7 308.35 168.7 306.05 167.1 304.45 165.5 302.85 163.2 302.85 160.95 302.85 159.35 304.45 Z"/>
</g>

<g id="Layer6_4_FILL">
<path fill="#6E4597" stroke="none" d="
M 185.8 426.3
Q 185.8 423.4 183.75 421.35 181.7 419.3 178.8 419.3 175.9 419.3 173.85 421.35 171.8 423.4 171.8 426.3 171.8 429.25 173.85 431.25 175.9 433.3 178.8 433.3 181.7 433.3 183.75 431.25 185.8 429.2 185.8 426.3 Z"/>
</g>

<g id="Layer6_5_FILL">
<path fill="#855AA3" stroke="none" d="
M 554.4 360.45
Q 554.4 357.2 552.1 354.95 549.8 352.65 546.55 352.65 543.35 352.65 541.05 354.95 538.75 357.25 538.75 360.45 538.75 363.7 541.05 365.95 543.35 368.25 546.55 368.25 549.8 368.25 552.1 365.95 554.4 363.7 554.4 360.45 Z"/>
</g>

<g id="Layer6_6_FILL">
<path fill="#6E4597" stroke="none" d="
M 597.05 304.45
Q 597.05 301.4 594.9 299.3 592.8 297.15 589.75 297.15 586.75 297.15 584.6 299.3 582.45 301.4 582.45 304.45 582.45 307.45 584.6 309.6 586.75 311.75 589.75 311.75 592.8 311.75 594.9 309.6 597.05 307.45 597.05 304.45 Z"/>
</g>

<g id="Layer6_7_FILL">
<path fill="#6E4597" stroke="none" d="
M 606.8 333.55
Q 605.1 331.9 602.75 331.9 600.4 331.9 598.7 333.55 597.05 335.25 597.05 337.6 597.05 339.95 598.7 341.65 600.4 343.3 602.75 343.3 605.1 343.3 606.8 341.65 608.45 339.95 608.45 337.6 608.45 335.25 606.8 333.55 Z"/>
</g>

<g id="Layer6_8_FILL">
<path fill="#6E4597" stroke="none" d="
M 582.45 393.65
Q 582.45 391.55 581 390.1 579.5 388.6 577.4 388.6 575.3 388.6 573.85 390.1 572.35 391.55 572.35 393.65 572.35 395.75 573.85 397.25 575.3 398.7 577.4 398.7 579.5 398.7 581 397.25 582.45 395.75 582.45 393.65 Z"/>
</g>

<g id="Layer6_9_FILL">
<path fill="#6E4597" stroke="none" d="
M 606.5 457.35
Q 602.6 457.35 599.85 460.15 597.05 462.9 597.05 466.8 597.05 470.75 599.85 473.5 602.6 476.25 606.5 476.25 610.45 476.25 613.2 473.5 615.95 470.75 615.95 466.8 615.95 462.9 613.2 460.15 610.45 457.35 606.5 457.35 Z"/>
</g>

<g id="Layer6_10_FILL">
<path fill="#6E4597" stroke="none" d="
M 582.45 421.4
Q 582.45 419.3 581 417.85 579.5 416.35 577.4 416.35 575.3 416.35 573.85 417.85 572.35 419.3 572.35 421.4 572.35 423.5 573.85 425 575.3 426.5 577.4 426.5 579.5 426.5 581 425 582.45 423.5 582.45 421.4 Z"/>
</g>

<g id="Layer6_11_FILL">
<path fill="#6E4597" stroke="none" d="
M 617.35 318.3
Q 617.35 316.45 616.05 315.15 614.75 313.85 612.9 313.85 611.05 313.85 609.75 315.15 608.45 316.45 608.45 318.3 608.45 320.15 609.75 321.45 611.05 322.75 612.9 322.75 614.75 322.75 616.05 321.45 617.35 320.15 617.35 318.3 Z"/>
</g>

<path id="Layer0_0_1_STROKES" stroke="#000000" stroke-opacity="0" stroke-width="1" stroke-linejoin="round" stroke-linecap="round" fill="none" d="
M 0 0
L 513 0 513 509 0 509 0 0 Z"/>
</defs>

<g transform="matrix( 1, 0, 0, 1, -131.5,-188.95) ">
<use xlink:href="#Layer6_0_FILL"/>
</g>

<g transform="matrix( 1, 0, 0, 1, -131.5,-188.95) ">
<use xlink:href="#Layer6_1_FILL"/>
</g>

<g transform="matrix( 1, 0, 0, 1, -131.5,-188.95) ">
<use xlink:href="#Layer6_2_FILL"/>
</g>

<g transform="matrix( 1, 0, 0, 1, -131.5,-188.95) ">
<use xlink:href="#Layer6_3_FILL"/>
</g>

<g transform="matrix( 1, 0, 0, 1, -131.5,-188.95) ">
<use xlink:href="#Layer6_4_FILL"/>
</g>

<g transform="matrix( 1, 0, 0, 1, -131.5,-188.95) ">
<use xlink:href="#Layer6_5_FILL"/>
</g>

<g transform="matrix( 1, 0, 0, 1, -131.5,-188.95) ">
<use xlink:href="#Layer6_6_FILL"/>
</g>

<g transform="matrix( 1, 0, 0, 1, -131.5,-188.95) ">
<use xlink:href="#Layer6_7_FILL"/>
</g>

<g transform="matrix( 1, 0, 0, 1, -131.5,-188.95) ">
<use xlink:href="#Layer6_8_FILL"/>
</g>

<g transform="matrix( 1, 0, 0, 1, -131.5,-188.95) ">
<use xlink:href="#Layer6_9_FILL"/>
</g>

<g transform="matrix( 1, 0, 0, 1, -131.5,-188.95) ">
<use xlink:href="#Layer6_10_FILL"/>
</g>

<g transform="matrix( 1, 0, 0, 1, -131.5,-188.95) ">
<use xlink:href="#Layer6_11_FILL"/>
</g>

<g transform="matrix( 1, 0, 0, 1, 0,0) ">
<use xlink:href="#Layer0_0_1_STROKES"/>
</g>
</svg>
