
<svg xmlns="http://www.w3.org/2000/svg" version="1.1" xmlns:xlink="http://www.w3.org/1999/xlink" preserveAspectRatio="none" x="0px" y="0px" width="69px" height="76px" viewBox="0 0 69 76">
<defs>
<g id="Layer0_0_FILL">
<path fill="#FFFFFF" stroke="none" d="
M 84.45 39.85
Q 84.45 38.6 83.5 37.9
L 51 12.7
Q 50.3 12.15 49.45 12.2 48.55 12.2 47.9 12.75
L 16.45 37.9
Q 15.5 38.6 15.5 39.85
L 15.5 85.35
Q 15.5 86.4 16.25 87.15 16.95 87.85 18 87.85
L 36.7 87.85
Q 37.75 87.85 38.5 87.15 39.2 86.4 39.2 85.35
L 39.2 57.5 60.75 57.5 60.75 85.35
Q 60.75 86.4 61.5 87.15 62.2 87.85 63.25 87.85
L 81.95 87.85
Q 83 87.85 83.75 87.15 84.45 86.4 84.45 85.35
L 84.45 39.85 Z"/>
</g>
</defs>

<g transform="matrix( 1, 0, 0, 1, -15.5,-12.2) ">
<use xlink:href="#Layer0_0_FILL"/>
</g>
</svg>
