
<svg xmlns="http://www.w3.org/2000/svg" version="1.1" xmlns:xlink="http://www.w3.org/1999/xlink" preserveAspectRatio="none" x="0px" y="0px" width="313px" height="37px" viewBox="0 0 313 37">
<defs>
<g id="Mask_logo_dark_svg_Layer_1__Clip_Group__2_0_2_MASK_0_FILL">
<path fill="#FFFFFF" stroke="none" d="
M 20.85 0
L 13.4 4.85 0 54.9 4.4 54.9 17.15 7.45 19.2 6.15 20.85 0 Z"/>
</g>

<g id="logo_dark_svg_Layer_1__Clip_Group__2_0_Layer2_0_MEMBER_0_FILL">
<path fill="#10477D" stroke="none" d="
M 20.85 0
L 0 0 0 54.9 20.85 54.9 20.85 0 Z"/>
</g>

<g id="Mask_logo_dark_svg_Layer_1__Clip_Group__1_0_2_MASK_0_FILL">
<path fill="#FFFFFF" stroke="none" d="
M 28.6 0
L 6.8 6.45 0 32.05 6.1 33.85 19.55 33.85 28.6 0 Z"/>
</g>

<g id="logo_dark_svg_Layer_1__Clip_Group__1_0_Layer2_0_MEMBER_0_FILL">
<path fill="#10477D" stroke="none" d="
M 0 0
L 0 33.85 28.6 33.85 28.6 0 0 0 Z"/>
</g>

<g id="Mask_logo_dark_svg_Layer_1__Clip_Group__0_2_MASK_0_FILL">
<path fill="#FFFFFF" stroke="none" d="
M 525.85 9.4
L 526.1 8.5 14.7 0 0 54.9 0.95 54.9 21.75 9.4 525.85 9.4 Z"/>
</g>

<g id="logo_dark_svg_Layer_1__Clip_Group__0_Layer2_0_MEMBER_0_FILL">
<path fill="#10477D" stroke="none" d="
M 526.1 54.9
L 526.1 0 0 0 0 54.9 526.1 54.9 Z"/>
</g>

<g id="Layer0_0_MEMBER_3_FILL">
<path fill="#10477D" stroke="none" d="
M 412.45 430.8
L 421.35 397.45 396.05 402.1 388.4 430.8 412.45 430.8 Z"/>
</g>

<g id="Layer0_0_MEMBER_4_FILL">
<path fill="#10477D" stroke="none" d="
M 475.6 374.25
L 473.05 383.85 497.05 383.85 499.65 374.25 475.6 374.25 Z"/>
</g>

<g id="Layer0_0_MEMBER_5_MEMBER_0_FILL">
<path fill="#10477D" stroke="none" d="
M 501.15 394.9
L 511.95 394.9 502.35 430.75 526.35 430.75 536 394.9 550.95 394.9 552.65 388.8 537.6 388.8 537.6 388.75 539.8 380.35 561.1 380.35 562.75 374.3 530.35 374.3
Q 524.85 374.3 520.4 377.35 515.8 380.45 514.7 384.6
L 513.55 388.75 513.55 388.8 502.8 388.8 501.15 394.9 Z"/>
</g>

<g id="Layer0_0_MEMBER_5_MEMBER_1_FILL">
<path fill="#10477D" stroke="none" d="
M 558.8 388.8
L 557.15 394.9 571.15 394.9 561.5 430.75 585.4 430.75 594.95 394.9 605.8 394.9 607.5 388.8 596.6 388.8 600.45 374.3 576.65 374.3 572.8 388.8 558.8 388.8 Z"/>
</g>

<g id="Layer0_0_MEMBER_5_MEMBER_2_FILL">
<path fill="#10477D" stroke="none" d="
M 495.7 388.8
L 471.65 388.8 460.45 430.75 484.45 430.75 495.7 388.8 Z"/>
</g>

<g id="Layer0_0_MEMBER_5_MEMBER_3_FILL">
<path fill="#10477D" stroke="none" d="
M 339.55 388.85
Q 334.5 389.1 330.5 391.85 326 394.95 324.8 399.1
L 323 405.75
Q 322.65 406.9 322.65 407.9 322.65 411.5 325.6 413.75 328.15 415.7 331.8 416
L 360.2 416 358.15 423.65 269.65 423.65 277.1 395.95 293.15 395.95 286.1 422.25 311.35 417.6 323 374.25 298.95 374.25 295.05 388.8 267.9 388.8
Q 262.4 388.8 257.95 391.85 253.45 394.95 252.25 399.1
L 246.45 420.5
Q 246.1 421.5 246.1 422.7 246.1 426.25 249.05 428.5 251.6 430.5 255.25 430.8
L 367.4 430.8
Q 372.8 430.8 377.35 427.75 381.85 424.65 383 420.5 383.55 418.5 384.05 416.4 385.1 412.2 385.1 411.75 385.1 408.15 382.15 405.9 379.6 403.95 375.95 403.65
L 347.65 403.65 349.65 395.95 436.2 396 426.85 430.8 450.9 430.8 459.35 399.1
Q 459.7 398.1 459.7 396.9 459.7 393.3 456.75 391.05 454.2 389.1 450.55 388.8
L 423.7 388.8 427.6 374.25 403.55 374.25 399.65 388.8 339.55 388.8 339.55 388.85 Z"/>
</g>

<g id="Layer0_0_MEMBER_5_MEMBER_4_FILL">
<path fill="#10477D" stroke="none" d="
M 39.35 381.75
L 37.95 386.8 58.2 386.75 52.35 390.5 35.65 395.45 26.15 430.8 87.25 430.8 93.55 420.5 58.1 420.5 72.75 366 68.65 366 68.7 366.05
Q 60.3 366.25 53.35 368.8 42.25 372.8 39.35 381.75 Z"/>
</g>

<g id="Layer0_0_MEMBER_5_MEMBER_5_FILL">
<path fill="#10477D" stroke="none" d="
M 121.1 388.75
Q 115.6 388.75 111.15 391.8 106.6 394.9 105.5 399.05
L 99.85 420.5
Q 99.5 421.5 99.5 422.7 99.5 426.35 102.4 428.5 105 430.5 108.6 430.8
L 148.7 430.75
Q 154.1 430.75 158.7 427.65 163.2 424.6 164.3 420.5
L 164.4 420.5 170.15 399.1
Q 170.5 398.1 170.5 396.9 170.5 393.3 167.6 391.05 164.95 389.1 161.4 388.8
L 121.1 388.75
M 130.35 395.95
L 147.05 395.95 139.65 423.45 139.5 423.5 139.45 423.65 122.95 423.65 130.35 395.95 Z"/>
</g>

<g id="Layer0_0_MEMBER_5_MEMBER_6_FILL">
<path fill="#10477D" stroke="none" d="
M 191.7 388.75
L 190.05 394.85 220.05 394.85 218.65 400 190.95 400
Q 185.45 400 181 403.05 176.8 405.95 175.5 409.85
L 175.45 409.85 172.6 420.5 172.55 420.5
Q 172.2 421.5 172.2 422.7 172.2 426.25 175.15 428.5 177.7 430.5 181.35 430.8
L 234.35 430.75 242.9 399.1
Q 243.2 398.05 243.2 396.9 243.2 393.3 240.3 391.05 237.75 389.1 234.1 388.8
L 191.7 388.75
M 216.7 407.15
L 212.25 423.65 195.7 423.65 200.2 407.15 216.7 407.15 Z"/>
</g>
</defs>

<g transform="matrix( 0.5152587890625, 0, 0, 0.5152587890625, 32.2,0) ">
<mask id="Mask_Mask_1">
<g transform="matrix( 1, 0, 0, 1, 0,0) ">
<use xlink:href="#Mask_logo_dark_svg_Layer_1__Clip_Group__2_0_2_MASK_0_FILL"/>
</g>
</mask>

<g mask="url(#Mask_Mask_1)">
<g transform="matrix( 1, 0, 0, 1, 0,0) ">
<use xlink:href="#logo_dark_svg_Layer_1__Clip_Group__2_0_Layer2_0_MEMBER_0_FILL"/>
</g>
</g>
</g>

<g transform="matrix( 0.5152587890625, 0, 0, 0.5152587890625, 0,18.6) ">
<mask id="Mask_Mask_2">
<g transform="matrix( 1, 0, 0, 1, 0,0) ">
<use xlink:href="#Mask_logo_dark_svg_Layer_1__Clip_Group__1_0_2_MASK_0_FILL"/>
</g>
</mask>

<g mask="url(#Mask_Mask_2)">
<g transform="matrix( 1, 0, 0, 1, 0,0) ">
<use xlink:href="#logo_dark_svg_Layer_1__Clip_Group__1_0_Layer2_0_MEMBER_0_FILL"/>
</g>
</g>
</g>

<g transform="matrix( 0.5152587890625, 0, 0, 0.5152587890625, 38.35,0) ">
<mask id="Mask_Mask_3">
<g transform="matrix( 1, 0, 0, 1, 0,0) ">
<use xlink:href="#Mask_logo_dark_svg_Layer_1__Clip_Group__0_2_MASK_0_FILL"/>
</g>
</mask>

<g mask="url(#Mask_Mask_3)">
<g transform="matrix( 1, 0, 0, 1, 0,0) ">
<use xlink:href="#logo_dark_svg_Layer_1__Clip_Group__0_Layer2_0_MEMBER_0_FILL"/>
</g>
</g>
</g>

<g transform="matrix( 0.5152587890625, 0, 0, 0.5152587890625, -0.55,-186) ">
<use xlink:href="#Layer0_0_MEMBER_3_FILL"/>
</g>

<g transform="matrix( 0.5152587890625, 0, 0, 0.5152587890625, -0.55,-186) ">
<use xlink:href="#Layer0_0_MEMBER_4_FILL"/>
</g>

<g transform="matrix( 0.5152587890625, 0, 0, 0.5152587890625, -0.55,-186) ">
<use xlink:href="#Layer0_0_MEMBER_5_MEMBER_0_FILL"/>
</g>

<g transform="matrix( 0.5152587890625, 0, 0, 0.5152587890625, -0.55,-186) ">
<use xlink:href="#Layer0_0_MEMBER_5_MEMBER_1_FILL"/>
</g>

<g transform="matrix( 0.5152587890625, 0, 0, 0.5152587890625, -0.55,-186) ">
<use xlink:href="#Layer0_0_MEMBER_5_MEMBER_2_FILL"/>
</g>

<g transform="matrix( 0.5152587890625, 0, 0, 0.5152587890625, -0.55,-186) ">
<use xlink:href="#Layer0_0_MEMBER_5_MEMBER_3_FILL"/>
</g>

<g transform="matrix( 0.5152587890625, 0, 0, 0.5152587890625, -0.55,-186) ">
<use xlink:href="#Layer0_0_MEMBER_5_MEMBER_4_FILL"/>
</g>

<g transform="matrix( 0.5152587890625, 0, 0, 0.5152587890625, -0.55,-186) ">
<use xlink:href="#Layer0_0_MEMBER_5_MEMBER_5_FILL"/>
</g>

<g transform="matrix( 0.5152587890625, 0, 0, 0.5152587890625, -0.55,-186) ">
<use xlink:href="#Layer0_0_MEMBER_5_MEMBER_6_FILL"/>
</g>
</svg>
