
<svg xmlns="http://www.w3.org/2000/svg" version="1.1" xmlns:xlink="http://www.w3.org/1999/xlink" preserveAspectRatio="none" x="0px" y="0px" width="901px" height="400px" viewBox="0 0 901 400">
<defs>
<g id="Layer0_0_FILL">
<path fill="#EC2765" stroke="none" d="
M 837.45 36.85
L 820.75 36.85 820.75 147.65 837.45 147.65 837.45 36.85
M 740.3 89
Q 752.25 80.95 763.3 80.95 772.05 80.95 776.5 84.9 780.9 88.85 780.9 96.8
L 780.9 99.75 759.25 99.75
Q 751.9 99.75 746.05 101.2 740.15 102.7 735.85 105.5 727.15 111.35 727.15 123.1 727.15 129 729.2 133.65 731.25 138.3 735.35 141.8 739.35 145.3 744.5 147.05 749.6 148.8 755.8 148.8 772.45 148.8 782.25 137.1
L 782.25 147.65 797.5 147.65 797.5 96.5
Q 797.5 88.85 795.25 83.3 793.05 77.7 788.6 74.1 784.15 70.6 778.4 68.8 772.75 67.05 765.65 67.05 756.45 67.05 748.3 69.95 740.05 72.8 732.85 78.55
L 740.3 89
M 779.3 124.9
Q 777.75 127.95 774.75 130.15 768.8 134.7 760.85 134.7 752.85 134.7 748.4 131.6 743.85 128.55 743.85 122.7 743.85 117.05 748.4 114.2 752.9 111.35 761.95 111.35
L 780.75 111.35 780.75 118.05
Q 780.75 121.9 779.3 124.9
M 709 68.2
L 692.3 68.2 692.3 111.2
Q 692.3 116.75 690.7 120.95 689.1 125.15 685.85 128.05 679.45 133.8 670.8 133.8 661.7 133.8 657.1 128.25 652.55 122.8 652.55 111.8
L 652.55 68.2 635.85 68.2 635.85 116.9
Q 635.85 132.4 644.1 140.65 652.4 148.8 665.85 148.8 674.05 148.8 681.15 144.65 684.7 142.55 687.5 139.7 690.25 136.85 692.3 133.15
L 692.3 147.65 709 147.65 709 68.2
M 577.3 68.7
Q 571.75 70.4 567.45 73.65 563.15 77.05 561.05 81.4 558.85 85.85 558.85 91.4 558.85 107.05 583.6 113.75
L 585.45 114.35
Q 593.3 116.75 597.25 119.45 601.25 122.15 601.25 125.15 601.25 129.15 598 131.75 594.7 134.4 589 134.4 576.05 134.4 562.1 123.9
L 554.1 136.95
Q 558.85 140.65 570.6 145.7 579.9 148.8 588.6 148.8 595 148.8 600.25 147.15 605.5 145.45 609.55 142.05 613.75 138.7 615.75 134.1 617.8 129.55 617.8 123.9 617.8 118.3 615.75 114.05 613.8 109.9 609.7 107.2
L 602.2 103.05 595 100.35 578.9 95.4
Q 574.95 93.65 574.95 89.7 574.95 85.4 578.75 83.2 582.45 81.1 588.45 81.1 594.05 81.1 599.35 82.7 604.6 84.3 609.45 87.5
L 615.7 75.15
Q 603.45 67.05 589.75 67.05 582.9 67.05 577.3 68.7
M 537.05 68.2
L 520.35 68.2 520.35 147.65 537.05 147.65 537.05 68.2
M 536.3 37.5
Q 533.2 34.4 528.9 34.4 524.5 34.4 521.35 37.5 518.25 40.65 518.25 44.95 518.25 49.25 521.35 52.4 524.5 55.5 528.9 55.5 533.2 55.5 536.3 52.4 539.45 49.25 539.45 44.95 539.45 40.65 536.3 37.5
M 507.1 68.2
L 489.8 68.2 465.6 128.25 441.4 68.2 424.05 68.2 456.05 147.65 475.15 147.65 507.1 68.2 Z"/>

<path fill="#FFFFFF" stroke="none" d="
M 341.1 78.1
Q 335.35 83.6 332.5 91 329.6 98.4 329.6 107.65 329.6 126.15 340.8 137.5 346.45 143.2 353 145.95 359.55 148.8 367.05 148.8 384.85 148.8 394.1 135.7
L 394.1 147.65 410.8 147.65 410.8 36.85 394.1 36.85 394.1 80.45
Q 389.2 73.75 382.9 70.4 376.45 67.05 368.5 67.05 352.65 67.05 341.1 78.1
M 387.55 89.25
Q 390.95 93.05 392.7 97.8 394.4 102.6 394.4 108.2 394.4 113.9 392.7 118.55 390.95 123.25 387.55 126.8 384.1 130.45 379.9 132.25 375.75 134.1 370.85 134.1 365.9 134.1 361.6 132.25 357.3 130.45 353.65 126.9 346.35 119.75 346.35 108.3 346.35 96.9 353.5 89.25 360.65 81.7 370.65 81.7 380.7 81.7 387.55 89.25
M 310.5 68.2
L 293.8 68.2 293.8 147.65 310.5 147.65 310.5 68.2
M 294.8 37.5
Q 291.7 40.65 291.7 44.95 291.7 49.25 294.8 52.4 297.95 55.5 302.35 55.5 306.65 55.5 309.75 52.4 312.9 49.25 312.9 44.95 312.9 40.65 309.75 37.5 306.65 34.4 302.35 34.4 297.95 34.4 294.8 37.5
M 269.65 68.2
L 252.95 68.2 252.95 111.2
Q 252.95 116.75 251.35 120.95 249.75 125.15 246.5 128.05 240.1 133.8 231.45 133.8 222.35 133.8 217.75 128.25 213.2 122.8 213.2 111.8
L 213.2 68.2 196.5 68.2 196.5 116.9
Q 196.5 132.4 204.75 140.65 213.05 148.8 226.5 148.8 234.7 148.8 241.8 144.65 245.35 142.55 248.15 139.7 250.9 136.85 252.95 133.15
L 252.95 147.65 269.65 147.65 269.65 68.2
M 173.25 176.6
L 173.25 68.2 156.55 68.2 156.55 82.15
Q 146.7 67.05 130.75 67.05 114.8 67.05 103.4 78.1 97.75 83.6 94.9 90.95 92.05 98.3 92.05 107.5 92.05 116.65 94.9 124.1 97.75 131.6 103.35 137.35 108.95 143.15 115.5 145.95 122.1 148.8 129.6 148.8 137.1 148.8 143.85 145.55 150.55 142.25 156.55 135.7
L 156.55 176.6 173.25 176.6
M 150 89.2
Q 153.4 93 155.15 97.7 156.85 102.4 156.85 108.05 156.85 113.75 155.15 118.4 153.4 123.1 150 126.65 146.55 130.3 142.35 132.15 138.2 133.95 133.3 133.95 128.35 133.95 124.05 132.15 119.75 130.3 116.1 126.75 108.8 119.6 108.8 108.15 108.8 96.8 115.95 89.2 119.5 85.5 123.8 83.6 128.1 81.7 133.1 81.7 138.1 81.7 142.35 83.6 146.55 85.5 150 89.2
M 72.95 68.2
L 56.25 68.2 56.25 147.65 72.95 147.65 72.95 68.2
M 57.25 37.5
Q 54.15 40.65 54.15 44.95 54.15 49.25 57.25 52.4 60.4 55.5 64.8 55.5 69.1 55.5 72.2 52.4 75.35 49.25 75.35 44.95 75.35 40.65 72.2 37.5 69.1 34.4 64.8 34.4 60.4 34.4 57.25 37.5
M 32.05 36.85
L 15.35 36.85 15.35 147.65 32.05 147.65 32.05 36.85 Z"/>
</g>
</defs>

<g transform="matrix( 1, 0, 0, 1, 0,0) ">
<use xlink:href="#Layer0_0_FILL"/>
</g>
</svg>
