
<svg xmlns="http://www.w3.org/2000/svg" version="1.1" xmlns:xlink="http://www.w3.org/1999/xlink" preserveAspectRatio="none" x="0px" y="0px" width="802px" height="132px" viewBox="0 0 802 132">
<defs>
<g id="Layer2_0_FILL">
<path fill="#EFF1F4" stroke="none" d="
M 785.8 37.6
L 800.25 16.75
Q 790.75 8.65 778 4.3 765.25 0 752.4 0 732.8 0 719.75 9.8 706.7 19.7 706.7 37.85 706.7 47 709.3 53.6 711.85 60.25 717 64.5 727.35 73 749.65 78.3 763.7 81.75 768.4 85.15 773.25 88.5 773.25 94.2 773.25 100 768.65 103.45 764.2 106.85 756.4 106.85 738.9 106.85 718.25 88.7
L 701.2 109.55
Q 725.45 132 755.85 132 766.4 132 774.85 129.35 783.35 126.65 789.7 121.35 802.55 110.7 802.55 93.45 802.55 84.9 800.1 78.4 797.6 71.85 792.55 67.3 782.45 58.45 764.3 53.95 746.2 49.5 741.05 46.15 736.15 42.8 736.15 37.2 736.15 31.7 740.2 28.35 744.3 24.95 751.45 24.95 769.25 24.95 785.8 37.6
M 101 27.5
L 101 2.85 0 2.85 0 27.5 36.25 27.5 36.25 130.55 64.7 130.55 64.7 27.5 101 27.5
M 225.25 45.3
Q 225.25 22.95 212.6 12.85 206.35 7.9 195.65 5.4 185.1 2.85 170.15 2.85
L 121.7 2.85 121.7 130.55 150.25 130.55 150.25 89.85 169.95 89.85 198.25 130.55 233.35 130.55 201 84.9
Q 213.2 80.4 219.25 70.5 225.25 60.6 225.25 45.3
M 171.6 27.3
Q 185.3 27.3 190.8 31.2 193.6 33 194.9 36.65 196.35 40.15 196.35 45.4 196.35 55.65 191 60.45 188.35 62.8 183.4 64.05 178.35 65.2 171 65.2
L 150.25 65.2 150.25 27.3 171.6 27.3
M 333.65 102.95
L 345.45 130.55 375.8 130.55 320.7 2.85 293.05 2.85 237.9 130.55 268.2 130.55 280.1 102.95 333.65 102.95
M 322.8 77.95
L 290.95 77.95 306.9 40.8 322.8 77.95
M 501.8 39.6
Q 497.25 28 488.2 19.6 469.85 2.85 435.7 2.85
L 390.55 2.85 390.55 130.55 434.25 130.55
Q 452.55 130.55 466.15 126.2 479.75 121.9 488.6 113.15 506.5 95.85 506.5 66.05 506.5 51.2 501.8 39.6
M 419.1 27.7
L 435 27.7
Q 456.7 27.7 467.2 37.85 472.5 42.8 475.2 50.15 477.75 57.4 477.75 66.8 477.75 85.65 467.2 95.55 456.7 105.35 437.1 105.35
L 419.1 105.35 419.1 27.7
M 559.6 2.85
L 531.05 2.85 531.05 130.55 559.6 130.55 559.6 2.85
M 619.45 54.55
L 619.45 28.25 683 28.25 683 2.85 590.9 2.85 590.9 130.55 685 130.55 685 105.35 619.45 105.35 619.45 78.8 676.65 78.8 676.65 54.55 619.45 54.55 Z"/>
</g>
</defs>

<g transform="matrix( 1, 0, 0, 1, 0,0) ">
<use xlink:href="#Layer2_0_FILL"/>
</g>
</svg>
