
<svg xmlns="http://www.w3.org/2000/svg" version="1.1" xmlns:xlink="http://www.w3.org/1999/xlink" preserveAspectRatio="none" x="0px" y="0px" width="993px" height="132px" viewBox="0 0 993 132">
<defs>
<g id="Layer2_0_FILL">
<path fill="#FFFFFF" stroke="none" d="
M 0 130.75
L 30.35 130.75 42.25 103.1 95.9 103.1 107.7 130.75 138.1 130.75 82.95 2.85 55.2 2.85 0 130.75
M 53.1 78.05
L 69.1 40.85 85.05 78.05 53.1 78.05
M 253.25 84.25
Q 251.45 79.1 248 75 240.85 66.9 229.05 64.3
L 233.6 62.2 238.1 58.95
Q 247.9 51.65 247.9 36.65 247.9 24.3 239.35 14.25 234.55 9.05 225.15 5.9 215.7 2.85 202.65 2.85
L 152.9 2.85 152.9 130.75 208.95 130.75
Q 222.1 130.75 231.35 127.8 240.55 124.75 245.9 118.8 255.05 108.65 255.05 95.3 255.05 89.2 253.25 84.25
M 213.1 29.8
Q 218.35 32.5 218.35 40.95 218.35 49.55 212.65 52 206.85 54.6 195 54.6
L 181.5 54.6 181.5 27.05 195.1 27.05
Q 207.8 27.05 213.1 29.8
M 181.5 77.2
L 198.25 77.2
Q 212.55 77.2 219.05 80.05 222.25 81.45 223.9 84.3 225.5 87.2 225.5 91.65 225.5 96.05 224 99.1 222.45 102.05 219.4 103.6 213.3 106.65 201 106.65
L 181.5 106.65 181.5 77.2
M 401.05 40
Q 396.2 28.4 386.5 18.85 367.05 0 338.75 0 310.35 0 291 18.85 281.25 28.4 276.4 40 271.55 51.8 271.55 65.95 271.55 94.15 291 113 310.35 132 338.75 132 367.05 132 386.5 113 396.2 103.6 401.05 91.85 405.85 80.05 405.85 65.95 405.85 51.8 401.05 40
M 324.05 27.8
Q 330.8 24.75 338.85 24.75 354.85 24.75 365.8 36.85 376.85 48.95 376.85 66 376.85 83.2 365.8 95.2 354.85 107.2 338.85 107.2 330.8 107.2 324.05 104.15 317.3 101.2 311.85 95.2 300.9 83.2 300.9 66 300.9 48.95 311.85 36.85 317.3 30.85 324.05 27.8
M 507.4 87.2
Q 505.6 93.3 502.2 97.65 498.65 102.15 493.8 104.35 489.15 106.65 483.05 106.65 476.95 106.65 472.15 104.35 467.4 102.15 463.75 97.65 456.65 88.8 456.65 73.45
L 456.65 2.85 428.15 2.85 428.15 74.3
Q 428.15 88.25 432.05 98.8 435.85 109.5 443.55 117 459.1 132 483.05 132 495.05 132 504.85 128.35 514.65 124.55 522.3 117.1 537.75 102.25 537.75 74.3
L 537.75 2.85 509.25 2.85 509.25 73.45
Q 509.25 81.2 507.4 87.2
M 657.7 27.5
L 657.7 2.85 556.6 2.85 556.6 27.5 592.9 27.5 592.9 130.75 621.4 130.75 621.4 27.5 657.7 27.5
M 869.85 2.85
L 831.45 2.85 798.3 73.1 765.3 2.85 726.7 2.85 726.7 130.75 755.3 130.75 755.3 50.2 789.7 120.05 806.7 120.05 841.25 50.2 841.25 130.75 869.85 130.75 869.85 2.85
M 993.45 28.3
L 993.45 2.85 901.2 2.85 901.2 130.75 995.5 130.75 995.5 105.5 929.8 105.5 929.8 78.9 987.1 78.9 987.1 54.6 929.8 54.6 929.8 28.3 993.45 28.3 Z"/>
</g>
</defs>

<g transform="matrix( 1, 0, 0, 1, 0,0) ">
<use xlink:href="#Layer2_0_FILL"/>
</g>
</svg>
