
<svg xmlns="http://www.w3.org/2000/svg" version="1.1" xmlns:xlink="http://www.w3.org/1999/xlink" preserveAspectRatio="none" x="0px" y="0px" width="1083px" height="132px" viewBox="0 0 1083 132">
<defs>
<g id="Layer2_0_FILL">
<path fill="#EFF1F4" stroke="none" d="
M 29.5 0
L 0 0 0 132 29.5 132 29.5 0
M 183.6 132
L 183.6 0 154.2 0 154.2 84.95 89.4 0 61.85 0 61.85 132 91.35 132 91.35 49.25 154.2 132 183.6 132
M 309.4 25.45
L 309.4 0 205.05 0 205.05 25.45 242.55 25.45 242.55 132 271.95 132 271.95 25.45 309.4 25.45
M 426.1 26.25
L 426.1 0 330.85 0 330.85 132 428.15 132 428.15 105.9 360.4 105.9 360.4 78.45 419.5 78.45 419.5 53.4 360.4 53.4 360.4 26.25 426.1 26.25
M 561.35 43.85
Q 561.35 20.75 548.25 10.3 541.75 5.2 530.75 2.65 519.8 0 504.4 0
L 454.3 0 454.3 132 483.8 132 483.8 89.9 504.2 89.9 533.4 132 569.7 132 536.25 84.75
Q 548.85 80.15 555.15 69.9 561.35 59.7 561.35 43.85
M 529.95 34.9
Q 531.45 38.55 531.45 43.95 531.45 54.55 525.9 59.5 523.15 61.95 518.05 63.2 512.85 64.4 505.25 64.4
L 483.8 64.4 483.8 25.25 505.85 25.25
Q 520 25.25 525.7 29.3 528.55 31.15 529.95 34.9
M 750.85 132
L 750.85 0 721.35 0 721.35 132 750.85 132
M 705.8 0
L 673.85 0 640.3 84.1 606.65 0 574.7 0 627.7 132 652.8 132 705.8 0
M 878.45 26.25
L 878.45 0 783.25 0 783.25 132 880.5 132 880.5 105.9 812.75 105.9 812.75 78.45 871.85 78.45 871.85 53.4 812.75 53.4 812.75 26.25 878.45 26.25
M 1051.55 0
L 1025.3 75.9 1002 0 971.3 0 947.9 75.9 921.8 0 889.85 0 936 132 957.8 132 986.55 40.2 1015.45 132 1037.3 132 1083.45 0 1051.55 0 Z"/>
</g>
</defs>

<g transform="matrix( 1, 0, 0, 1, 0,0) ">
<use xlink:href="#Layer2_0_FILL"/>
</g>
</svg>
