
<svg xmlns="http://www.w3.org/2000/svg" version="1.1" xmlns:xlink="http://www.w3.org/1999/xlink" preserveAspectRatio="none" x="0px" y="0px" width="644px" height="132px" viewBox="0 0 644 132">
<defs>
<g id="Layer10_0_FILL">
<path fill="#27272F" stroke="none" d="
M 28.55 2.85
L 0 2.85 0 130.6 28.55 130.6 28.55 80.35 79.3 80.35 79.3 130.6 107.85 130.6 107.85 2.85 79.3 2.85 79.3 56.15 28.55 56.15 28.55 2.85
M 231.4 28.25
L 231.4 2.85 139.25 2.85 139.25 130.6 233.4 130.6 233.4 105.35 167.8 105.35 167.8 78.8 225 78.8 225 54.55 167.8 54.55 167.8 28.25 231.4 28.25
M 341.7 130.6
L 341.7 105.15 287.25 105.15 287.25 2.85 258.7 2.85 258.7 130.6 341.7 130.6
M 391 2.85
L 362.45 2.85 362.45 130.6 445.45 130.6 445.45 105.15 391 105.15 391 2.85
M 643.65 115.9
Q 643.65 109.15 639.1 104.5 634.45 99.95 627.7 99.95 627.142578125 99.95 626.6 99.95 626.0935546875 100.003515625 625.6 100.05 625.0931640625 100.10703125 624.6 100.2 624.0927734375 100.2861328125 623.6 100.4 623.0923828125 100.5228515625 622.6 100.65 619.0177734375 101.7623046875 616.25 104.5 615.3349609375 105.4150390625 614.6 106.4 614.0494140625 107.1484375 613.6 107.95 613.0142578125 108.98203125 612.6 110.1 611.6 112.769921875 611.6 115.9 611.6 119.0763671875 612.6 121.75 613.0142578125 122.890234375 613.6 123.9 614.0494140625 124.70703125 614.6 125.45 615.3349609375 126.4447265625 616.25 127.35 619.0177734375 130.1482421875 622.6 131.25 623.0923828125 131.4248046875 623.6 131.55 624.0927734375 131.661328125 624.6 131.75 625.0931640625 131.8416015625 625.6 131.9 626.0935546875 131.945703125 626.6 131.95 627.142578125 132 627.7 132 634.45 132 639.1 127.35 643.65 122.75 643.65 115.9
M 568.6 14.4
Q 568.102734375 14.025 567.6 13.6 566.1955078125 12.5392578125 564.75 11.5 564.725 11.508984375 564.7 11.5 564.6501953125 11.459765625 564.6 11.4 564.4005859375 11.2880859375 564.2 11.15 564.175 11.1333984375 564.15 11.1 564.125 11.1068359375 564.1 11.1 564.0501953125 11.05859375 564 11 563.9751953125 11.004296875 563.95 10.95 563.9251953125 10.966796875 563.9 10.95 563.7751953125 10.86640625 563.65 10.75 563.625 10.7666015625 563.6 10.75 563.575 10.73359375 563.55 10.7 563.525 10.708203125 563.5 10.7 563.475 10.6826171875 563.45 10.65 563.425 10.6572265625 563.4 10.65 563.375 10.631640625 563.35 10.6 563.325 10.6060546875 563.3 10.55 563.275 10.55703125 563.25 10.55 563.225 10.5314453125 563.2 10.5 563.1501953125 10.486328125 563.1 10.45 563.075 10.4310546875 563.05 10.4 563.025 10.4048828125 563 10.35 562.975 10.356640625 562.95 10.35 562.925 10.3302734375 562.9 10.3 562.875 10.2828125 562.85 10.25 562.725390625 10.18046875 562.6 10.1 562.2015625 9.84765625 561.8 9.55 561.775 9.5666015625 561.75 9.55 561.725 9.5412109375 561.7 9.5 561.675 9.5158203125 561.65 9.5 561.625 9.4904296875 561.6 9.45 546.00625 0 525.95 0 497.6 0 478.25 18.85 468.55 28.35 463.7 40 458.85 51.8 458.85 65.85 458.85 94.05 478.25 112.85 497.6 131.8 525.95 131.8 546.00625 131.8 561.6 122.25 561.625 122.234765625 561.65 122.2 561.675 122.209375 561.7 122.2 561.725 122.183984375 561.75 122.15 561.775 122.15859375 561.8 122.15 562.2015625 121.879296875 562.6 121.6 562.725390625 121.5455078125 562.85 121.45 562.875 121.4423828125 562.9 121.4 562.925 121.3947265625 562.95 121.35 562.975 121.3685546875 563 121.35 563.025 121.3423828125 563.05 121.3 563.075 121.294140625 563.1 121.25 563.1501953125 121.2390625 563.2 121.2 563.2251953125 121.19375 563.25 121.15 563.2751953125 121.16796875 563.3 121.15 563.325 121.1189453125 563.35 121.1 563.375 121.093359375 563.4 121.05 563.425 121.06796875 563.45 121.05 563.475 121.0423828125 563.5 121 563.525 121.0169921875 563.55 121 563.575 120.9916015625 563.6 120.95 563.625 120.9583984375 563.65 120.95 563.7751953125 120.8591796875 563.9 120.75 563.925 120.7583984375 563.95 120.75 563.975 120.7208984375 564 120.7 564.0501953125 120.6666015625 564.1 120.6 564.125 120.618359375 564.15 120.6 564.175 120.5916015625 564.2 120.55 564.4005859375 120.437890625 564.6 120.3 564.6501953125 120.2654296875 564.7 120.2 564.725 120.216015625 564.75 120.2 566.1955078125 119.191796875 567.6 118.1 568.102734375 117.701953125 568.6 117.3 569.102734375 116.892578125 569.6 116.45 570.102734375 116.05859375 570.6 115.6 571.1029296875 115.175390625 571.6 114.7 572.103125 114.2677734375 572.6 113.8 573.1029296875 113.335546875 573.6 112.85 575.1630859375 111.34296875 576.6 109.75 577.1080078125 109.232421875 577.6 108.65 579.1814453125 106.8701171875 580.6 105 585.28515625 98.781640625 588.2 91.75 592.95 79.95 592.95 65.85 592.95 51.8 588.2 40 585.28515625 32.9984375 580.6 26.75 579.1814453125 24.8890625 577.6 23.05 577.1080078125 22.51015625 576.6 21.95 575.1630859375 20.373046875 573.6 18.85 573.1029296875 18.3669921875 572.6 17.9 572.103125 17.434765625 571.6 16.95 571.1029296875 16.5271484375 570.6 16.1 570.102734375 15.668359375 569.6 15.25 569.102734375 14.834375 568.6 14.4
M 499.1 36.85
Q 504.55 30.85 511.3 27.8 518.05 24.75 526.05 24.75 542.05 24.75 552.95 36.85 558.85078125 43.284765625 561.6 51.15 561.6251953125 51.221875 561.65 51.3 561.6751953125 51.37265625 561.7 51.45 561.725390625 51.5234375 561.75 51.6 561.7751953125 51.673828125 561.8 51.75 562.2455078125 53.0724609375 562.6 54.45 562.731640625 54.96171875 562.85 55.45 562.875390625 55.58984375 562.9 55.7 562.925390625 55.812109375 562.95 55.9 562.975390625 56.034765625 563 56.15 563.025390625 56.258203125 563.05 56.35 563.075390625 56.50390625 563.1 56.6 563.1517578125 56.8728515625 563.2 57.1 563.2255859375 57.2669921875 563.25 57.4 563.2755859375 57.5376953125 563.3 57.65 563.3255859375 57.8306640625 563.35 57.95 563.3755859375 58.1248046875 563.4 58.25 563.42578125 58.442578125 563.45 58.6 563.47578125 58.7603515625 563.5 58.9 563.52578125 59.1009765625 563.55 59.25 563.57578125 59.4650390625 563.6 59.65 563.62578125 59.8474609375 563.65 60.05 563.812890625 61.381640625 563.9 62.75 563.9287109375 63.202734375 563.95 63.65 563.9845703125 64.3990234375 564 65.15
L 564 66.75
Q 563.9845703125 67.5189453125 563.95 68.25 563.9287109375 68.71796875 563.9 69.15 563.812890625 70.5517578125 563.65 71.9 563.62578125 72.100390625 563.6 72.3 563.57578125 72.485546875 563.55 72.65 563.52578125 72.849609375 563.5 73 563.47578125 73.190234375 563.45 73.35 563.42578125 73.5080078125 563.4 73.65 563.3755859375 73.8255859375 563.35 73.95 563.3255859375 74.1197265625 563.3 74.25 563.2755859375 74.4126953125 563.25 74.55 563.2255859375 74.6833984375 563.2 74.8 563.1517578125 75.0779296875 563.1 75.3 563.075390625 75.446484375 563.05 75.55 563.025390625 75.6921875 563 75.8 562.975390625 75.915625 562.95 76 562.925390625 76.13828125 562.9 76.25 562.875390625 76.3607421875 562.85 76.45 562.731640625 76.9904296875 562.6 77.5 562.2455078125 78.8822265625 561.8 80.2 561.7751953125 80.2763671875 561.75 80.35 561.725390625 80.4267578125 561.7 80.5 561.6751953125 80.5775390625 561.65 80.65 561.6251953125 80.7283203125 561.6 80.8 558.85078125 88.691796875 552.95 95.1 542.05 107.05 526.05 107.05 518.05 107.05 511.3 104 504.55 101.05 499.1 95.1 488.15 83.1 488.15 65.95 488.15 48.9 499.1 36.85 Z"/>
</g>
</defs>

<g transform="matrix( 1, 0, 0, 1, 0,0) ">
<use xlink:href="#Layer10_0_FILL"/>
</g>
</svg>
