
<svg xmlns="http://www.w3.org/2000/svg" version="1.1" xmlns:xlink="http://www.w3.org/1999/xlink" preserveAspectRatio="none" x="0px" y="0px" width="781px" height="132px" viewBox="0 0 781 132">
<defs>
<g id="Layer3_0_FILL">
<path fill="#EFF1F4" stroke="none" d="
M 165.25 117
L 165.25 45.75 150.8 45.75 150.8 117 165.25 117
M 242.6 65.35
L 242.6 71.1
Q 236 64.5 227.2 64.5 222.75 64.5 218.75 66.4 214.7 68.25 211.15 72.05 207.55 75.8 205.7 80.6 203.95 85.4 203.95 91.2 203.95 97.1 205.75 101.8 207.65 106.6 211.35 110.35 218.7 117.75 228.6 117.75 236.45 117.75 242.6 112.9
L 242.6 135.6 257.15 135.6 257.15 65.35 242.6 65.35
M 219.35 85.45
Q 220.25 82.85 222.1 80.75 225.75 76.6 230.8 76.6 235.9 76.6 239.4 80.75 241.1 82.85 241.95 85.45 242.8 88.1 242.8 91.2 242.8 97.5 239.4 101.5 237.65 103.5 235.55 104.5 233.4 105.45 230.9 105.45 225.9 105.45 222.15 101.5 218.4 97.5 218.4 91.2 218.4 88.1 219.35 85.45
M 193.25 65.35
L 178.8 65.35 178.8 117 193.25 117 193.25 65.35
M 186 44.35
Q 182.45 44.35 180 46.8 177.6 49.2 177.6 52.8 177.6 56.35 180 58.8 182.45 61.2 186 61.2 189.6 61.2 192 58.8 194.45 56.35 194.45 52.8 194.45 49.2 192 46.8 189.6 44.35 186 44.35
M 270.15 65.35
L 270.15 96.65
Q 270.15 107.1 275.9 112.45 281.65 117.75 290.15 117.75 294.4 117.75 297.9 115.9 301.35 113.95 304.05 110.2
L 304.05 117 318.5 117 318.5 65.35 304.05 65.35 304.05 93.2
Q 304.05 99.15 300.85 102.3 297.7 105.4 293.4 105.4 284.6 105.4 284.6 93.45
L 284.6 65.35 270.15 65.35
M 346.55 65.35
L 332.1 65.35 332.1 117 346.55 117 346.55 65.35
M 364.2 71.8
Q 357.25 79.15 357.25 90.7 357.25 102.25 364.45 109.95 371.65 117.75 380.8 117.75 385.4 117.75 389.2 115.9 393 113.95 396 110.2
L 396 117 410.45 117 410.45 45.75 396 45.75 396 71.1
Q 390.05 64.5 380.7 64.5 371.25 64.5 364.2 71.8
M 372.65 85.55
Q 373.55 82.9 375.4 80.8 379.05 76.6 384.1 76.6 389.2 76.6 392.7 80.75 394.45 82.85 395.35 85.45 396.2 88.1 396.2 91.2 396.2 97.5 392.7 101.5 389.2 105.45 384.2 105.45 379.2 105.45 375.45 101.5 371.7 97.5 371.7 91.25 371.7 88.15 372.65 85.55
M 339.3 44.35
Q 335.75 44.35 333.3 46.8 330.9 49.2 330.9 52.8 330.9 56.35 333.3 58.8 335.75 61.2 339.3 61.2 342.9 61.2 345.3 58.8 347.75 56.35 347.75 52.8 347.75 49.2 345.3 46.8 342.9 44.35 339.3 44.35
M 432.5 65.25
L 417.5 65.25 437.9 117 452.75 117 473.15 65.25 458.15 65.25 445.35 97.8 432.5 65.25
M 494.7 117
L 494.7 65.35 480.25 65.35 480.25 117 494.7 117
M 519.7 65.65
Q 515.95 66.75 513.1 69 507.3 73.5 507.3 80.65 507.3 87.8 513.15 91.45
L 518.3 94.25 524.85 96.55
Q 529.1 97.9 531.35 99.4 533.6 100.95 533.6 102.8 533.6 104.65 531.95 105.7 530.35 106.85 527.55 106.85 523 106.85 518.7 105.3 514.4 103.7 510.35 100.6
L 504.05 109.6
Q 509.05 113.65 515.3 115.7 521.5 117.75 527.3 117.75 535.9 117.75 541.55 113.15 547.15 108.55 547.15 100.9 547.15 93.3 541.75 90.05
L 536.85 87.45 529.85 85.15
Q 525 83.6 522.85 82.45 520.75 81.3 520.75 79.25 520.75 77.45 522.4 76.55 524.1 75.6 527.4 75.6 534.1 75.6 540.85 80.25
L 546.15 70.65
Q 541.6 67.55 537.1 66.05 532.55 64.5 527.95 64.5 523.4 64.5 519.7 65.65
M 493.45 46.8
Q 491.05 44.35 487.45 44.35 483.9 44.35 481.45 46.8 479.05 49.2 479.05 52.8 479.05 56.35 481.45 58.8 483.9 61.2 487.45 61.2 491.05 61.2 493.45 58.8 495.9 56.35 495.9 52.8 495.9 49.2 493.45 46.8
M 591.5 65.35
L 591.5 93.2
Q 591.5 99.15 588.3 102.3 585.15 105.4 580.85 105.4 572.05 105.4 572.05 93.45
L 572.05 65.35 557.6 65.35 557.6 96.65
Q 557.6 107.1 563.35 112.45 569.1 117.75 577.6 117.75 581.85 117.75 585.35 115.9 588.8 113.95 591.5 110.2
L 591.5 117 605.95 117 605.95 65.35 591.5 65.35
M 691 45.75
L 676.55 45.75 676.55 117 691 117 691 45.75
M 649.05 84.3
L 649.05 84.55 638.3 84.55
Q 633.3 84.55 629.35 85.55 625.4 86.55 622.55 88.5 619.65 90.45 618.25 93.4 616.8 96.4 616.8 100.35 616.8 108.3 622.35 113 625.15 115.4 628.6 116.6 632 117.75 636.15 117.75 644.35 117.75 649.9 110.75
L 649.9 117 663.4 117 663.4 84.1
Q 663.4 73.9 657.45 69.2 654.5 66.85 650.65 65.65 646.85 64.5 642.15 64.5 629.05 64.5 618.9 71.85
L 625.3 81.2
Q 628.2 79 632.4 77.5 636.55 76.05 640.3 76.05 644.65 76.05 646.9 78.1 649.05 80.15 649.05 84.3
M 648.95 94.85
L 648.95 97.3
Q 648.95 101.25 646.05 103.6 643.1 105.95 639.25 105.95 635.4 105.95 633.35 104.5 631.25 103 631.25 100.2 631.25 94.85 639.95 94.85
L 648.95 94.85 Z"/>
</g>
</defs>

<g transform="matrix( 1.44659423828125, 0, 0, 1.4465789794921875, -218.15,-64.15) ">
<use xlink:href="#Layer3_0_FILL"/>
</g>
</svg>
