
<svg xmlns="http://www.w3.org/2000/svg" version="1.1" xmlns:xlink="http://www.w3.org/1999/xlink" preserveAspectRatio="none" x="0px" y="0px" width="657px" height="132px" viewBox="0 0 657 132">
<defs>
<g id="Layer2_0_FILL">
<path fill="#27272F" stroke="none" d="
M 0 130.75
L 30.3 130.75 42.2 103.1 95.85 103.1 107.7 130.75 138.1 130.75 82.9 2.85 55.2 2.85 0 130.75
M 53.1 78.05
L 69.1 40.85 85 78.05 53.1 78.05
M 253.2 84.25
Q 251.4 79.1 248 75 240.85 66.9 229 64.3
L 233.6 62.2 238.05 59
Q 247.9 51.65 247.9 36.7 247.9 24.3 239.3 14.3 234.55 9.05 225.1 5.9 215.65 2.85 202.6 2.85
L 152.85 2.85 152.85 130.75 208.9 130.75
Q 222.05 130.75 231.3 127.8 240.55 124.75 245.9 118.85 255.05 108.65 255.05 95.3 255.05 89.2 253.2 84.25
M 213.1 29.8
Q 218.35 32.5 218.35 40.95 218.35 49.55 212.6 52.05 206.8 54.6 195 54.6
L 181.45 54.6 181.45 27.05 195.1 27.05
Q 207.75 27.05 213.1 29.8
M 181.45 77.2
L 198.25 77.2
Q 212.55 77.2 219 80.05 222.25 81.5 223.85 84.35 225.5 87.2 225.5 91.65 225.5 96.05 223.95 99.1 222.45 102.05 219.4 103.6 213.3 106.65 201 106.65
L 181.45 106.65 181.45 77.2
M 401.05 40
Q 396.2 28.4 386.45 18.85 367 0 338.7 0 310.3 0 290.95 18.85 281.25 28.4 276.4 40 271.5 51.85 271.5 65.95 271.5 94.15 290.95 113 310.3 132 338.7 132 367 132 386.45 113 396.2 103.6 401.05 91.85 405.8 80.05 405.8 65.95 405.8 51.85 401.05 40
M 324.05 27.8
Q 330.8 24.75 338.8 24.75 354.8 24.75 365.8 36.85 376.85 49 376.85 66.05 376.85 83.2 365.8 95.2 354.8 107.2 338.8 107.2 330.8 107.2 324.05 104.15 317.25 101.2 311.85 95.2 300.9 83.2 300.9 66.05 300.9 49 311.85 36.85 317.25 30.85 324.05 27.8
M 509.2 73.45
Q 509.2 81.2 507.4 87.2 505.6 93.3 502.15 97.7 498.65 102.15 493.75 104.35 489.1 106.65 483 106.65 476.9 106.65 472.15 104.35 467.35 102.15 463.75 97.7 456.6 88.8 456.6 73.45
L 456.6 2.85 428.1 2.85 428.1 74.35
Q 428.1 88.25 432 98.8 435.85 109.5 443.55 117.05 459.1 132 483 132 495 132 504.85 128.35 514.65 124.55 522.25 117.1 537.7 102.25 537.7 74.35
L 537.7 2.85 509.2 2.85 509.2 73.45
M 556.6 2.85
L 556.6 27.55 592.9 27.55 592.9 130.75 621.4 130.75 621.4 27.55 657.7 27.55 657.7 2.85 556.6 2.85 Z"/>
</g>
</defs>

<g transform="matrix( 1, 0, 0, 1, 0,0) ">
<use xlink:href="#Layer2_0_FILL"/>
</g>
</svg>
