
<svg xmlns="http://www.w3.org/2000/svg" version="1.1" xmlns:xlink="http://www.w3.org/1999/xlink" preserveAspectRatio="none" x="0px" y="0px" width="644px" height="132px" viewBox="0 0 644 132">
<defs>
<g id="Layer2_0_FILL">
<path fill="#EFF1F4" stroke="none" d="
M 28.55 2.85
L 0 2.85 0 130.6 28.55 130.6 28.55 80.35 79.3 80.35 79.3 130.6 107.85 130.6 107.85 2.85 79.3 2.85 79.3 56.15 28.55 56.15 28.55 2.85
M 231.4 28.25
L 231.4 2.85 139.25 2.85 139.25 130.6 233.4 130.6 233.4 105.35 167.8 105.35 167.8 78.8 225 78.8 225 54.55 167.8 54.55 167.8 28.25 231.4 28.25
M 341.7 130.6
L 341.7 105.15 287.25 105.15 287.25 2.85 258.7 2.85 258.7 130.6 341.7 130.6
M 391 2.85
L 362.45 2.85 362.45 130.6 445.45 130.6 445.45 105.15 391 105.15 391 2.85
M 627.7 132
Q 634.45 132 639.1 127.35 643.65 122.75 643.65 115.9 643.65 109.15 639.1 104.5 634.45 99.95 627.7 99.95 620.85 99.95 616.25 104.5 611.6 109.15 611.6 115.9 611.6 122.75 616.25 127.35 620.85 132 627.7 132
M 588.2 40
Q 583.35 28.35 573.6 18.85 554.2 0 525.95 0 497.6 0 478.25 18.85 468.55 28.35 463.7 40 458.85 51.8 458.85 65.85 458.85 94.05 478.25 112.85 497.6 131.8 525.95 131.8 554.2 131.8 573.6 112.85 583.35 103.45 588.2 91.75 592.95 79.95 592.95 65.85 592.95 51.8 588.2 40
M 499.1 36.85
Q 504.55 30.85 511.3 27.8 518.05 24.75 526.05 24.75 542.05 24.75 552.95 36.85 564 48.9 564 65.95 564 83.1 552.95 95.1 542.05 107.05 526.05 107.05 518.05 107.05 511.3 104 504.55 101.05 499.1 95.1 488.15 83.1 488.15 65.95 488.15 48.9 499.1 36.85 Z"/>
</g>
</defs>

<g transform="matrix( 1, 0, 0, 1, 0,0) ">
<use xlink:href="#Layer2_0_FILL"/>
</g>
</svg>
