
<svg xmlns="http://www.w3.org/2000/svg" version="1.1" xmlns:xlink="http://www.w3.org/1999/xlink" preserveAspectRatio="none" x="0px" y="0px" width="559px" height="195px" viewBox="0 0 559 195">
<defs>
<g id="Layer3_0_FILL">
<path fill="#EFF1F4" stroke="none" d="
M 131.15 62.55
L 99.15 62.55 65.6 146.65 32 62.55 0 62.55 53.05 194.55 78.1 194.55 131.15 62.55
M 176.2 194.55
L 176.2 62.55 146.65 62.55 146.65 194.55 176.2 194.55
M 301.9 88.05
L 301.9 62.55 197.5 62.55 197.5 88.05 235 88.05 235 194.55 264.4 194.55 264.4 88.05 301.9 88.05
M 391.8 62.55
L 363.15 62.55 306.2 194.55 337.5 194.55 349.8 166.05 405.15 166.05 417.35 194.55 448.75 194.55 391.8 62.55
M 377.5 101.8
L 393.95 140.15 361 140.15 377.5 101.8
M 559.2 88.8
L 559.2 62.55 464 62.55 464 194.55 561.25 194.55 561.25 168.5 493.5 168.5 493.5 141.05 552.6 141.05 552.6 115.95 493.5 115.95 493.5 88.8 559.2 88.8
M 52.8 47.75
L 44.75 39.4
Q 38.8 46.8 29.5 46.8 26.05 46.8 23.15 45.6 20.25 44.4 17.85 42 15.45 39.6 14.25 36.45 13.1 33.25 13.1 29.3 13.1 25.35 14.35 22.2 15.6 19 18.15 16.75 23.25 12.05 30.35 12.05 39.25 12.05 45.3 19.5
L 53.2 10.6
Q 43.75 0 29.8 0 17.25 0 8.65 8.4 0 16.85 0 29.45 0 42.1 8.5 50.35 16.95 58.65 30.1 58.65 36.65 58.65 42.35 55.95 48 53.2 52.8 47.75
M 110.6 32.95
L 110.6 1.25 97.95 1.25 97.95 32.6
Q 97.95 36 97.15 38.65 96.35 41.4 94.85 43.3 93.25 45.3 91.1 46.3 89.05 47.3 86.35 47.3 83.65 47.3 81.5 46.3 79.4 45.3 77.8 43.3 74.65 39.4 74.65 32.6
L 74.65 1.25 62 1.25 62 32.95
Q 62 39.15 63.75 43.85 65.4 48.55 68.85 51.9 75.75 58.55 86.35 58.55 91.65 58.55 96 56.95 100.4 55.25 103.75 51.95 110.6 45.35 110.6 32.95
M 167.05 31.3
Q 169.7 26.9 169.7 20.1 169.7 10.15 164.1 5.7 161.3 3.5 156.55 2.4 151.85 1.25 145.25 1.25
L 123.7 1.25 123.7 58 136.4 58 136.4 39.9 145.15 39.9 157.7 58 173.3 58 158.9 37.7
Q 164.35 35.7 167.05 31.3
M 145.85 12.1
Q 151.95 12.1 154.4 13.85 155.6 14.65 156.2 16.25 156.85 17.85 156.85 20.15 156.85 24.7 154.5 26.85 153.3 27.9 151.1 28.45 148.85 28.95 145.6 28.95
L 136.4 28.95 136.4 12.1 145.85 12.1
M 228.65 20.1
Q 228.65 10.15 223.05 5.7 220.25 3.5 215.5 2.4 210.85 1.25 204.2 1.25
L 182.7 1.25 182.7 58 195.35 58 195.35 39.9 204.1 39.9 216.65 58 232.25 58 217.9 37.7
Q 223.3 35.7 226 31.3 228.65 26.9 228.65 20.1
M 215.2 16.25
Q 215.8 17.85 215.8 20.15 215.8 24.7 213.45 26.85 212.25 27.9 210.05 28.45 207.85 28.95 204.55 28.95
L 195.35 28.95 195.35 12.1 204.85 12.1
Q 210.9 12.1 213.35 13.85 214.6 14.65 215.2 16.25
M 254.35 58
L 254.35 1.25 241.65 1.25 241.65 58 254.35 58
M 310.15 19.5
L 318.05 10.6
Q 308.55 0 294.6 0 282.1 0 273.5 8.4 264.8 16.85 264.8 29.45 264.8 42.1 273.3 50.35 281.8 58.65 294.9 58.65 301.45 58.65 307.15 55.95 312.85 53.2 317.65 47.75
L 309.6 39.4
Q 303.6 46.8 294.3 46.8 290.9 46.8 288 45.6 285.05 44.4 282.7 42 280.3 39.6 279.1 36.45 277.9 33.25 277.9 29.3 277.9 25.35 279.2 22.2 280.45 19 283 16.75 288.05 12.05 295.2 12.05 304.1 12.05 310.15 19.5
M 375.45 32.95
L 375.45 1.25 362.8 1.25 362.8 32.6
Q 362.8 36 362 38.65 361.2 41.4 359.65 43.3 358.1 45.3 355.95 46.3 353.9 47.3 351.15 47.3 348.45 47.3 346.35 46.3 344.25 45.3 342.65 43.3 339.45 39.4 339.45 32.6
L 339.45 1.25 326.8 1.25 326.8 32.95
Q 326.8 39.15 328.55 43.85 330.25 48.55 333.65 51.9 340.55 58.55 351.15 58.55 356.5 58.55 360.85 56.95 365.2 55.25 368.6 51.95 375.45 45.35 375.45 32.95
M 425.4 58
L 425.4 46.7 401.2 46.7 401.2 1.25 388.55 1.25 388.55 58 425.4 58
M 482.4 1.25
L 469.8 1.25 469.8 32.6
Q 469.8 36 469 38.65 468.2 41.4 466.65 43.3 465.1 45.3 462.95 46.3 460.85 47.3 458.15 47.3 455.45 47.3 453.35 46.3 451.25 45.3 449.6 43.3 446.45 39.4 446.45 32.6
L 446.45 1.25 433.8 1.25 433.8 32.95
Q 433.8 39.15 435.55 43.85 437.25 48.55 440.65 51.9 447.55 58.55 458.15 58.55 463.5 58.55 467.85 56.95 472.2 55.25 475.6 51.95 482.4 45.35 482.4 32.95
L 482.4 1.25
M 559 1.25
L 542 1.25 527.25 32.4 512.65 1.25 495.55 1.25 495.55 58 508.2 58 508.2 22.25 523.45 53.25 531 53.25 546.35 22.25 546.35 58 559 58 559 1.25 Z"/>
</g>
</defs>

<g transform="matrix( 1, 0, 0, 1, 0,0) ">
<use xlink:href="#Layer3_0_FILL"/>
</g>
</svg>
