
<svg xmlns="http://www.w3.org/2000/svg" version="1.1" xmlns:xlink="http://www.w3.org/1999/xlink" preserveAspectRatio="none" x="0px" y="0px" width="764px" height="132px" viewBox="0 0 764 132">
<defs>
<g id="Layer4_0_FILL">
<path fill="#000000" fill-opacity="0.8" stroke="none" d="
M 456.45 31.4
L 440.45 31.4 417.95 87.2 395.5 31.4 379.4 31.4 409.1 105.2 426.8 105.2 456.45 31.4
M 484.25 31.4
L 468.8 31.4 468.8 105.2 484.25 105.2 484.25 31.4
M 469.75 16.75
Q 472.65 19.65 476.7 19.65 480.7 19.65 483.6 16.75 486.5 13.8 486.5 9.85 486.5 5.85 483.6 2.9 480.7 0 476.7 0 472.65 0 469.75 2.9 466.8 5.85 466.8 9.85 466.8 13.8 469.75 16.75
M 551.45 49.4
L 557.3 37.85
Q 545.9 30.35 533.2 30.35 526.85 30.35 521.65 31.9 516.5 33.45 512.45 36.45 508.5 39.65 506.55 43.7 504.55 47.8 504.55 52.9 504.55 67.5 527.5 73.7
L 529.2 74.3
Q 536.5 76.5 540.2 79 543.85 81.5 543.85 84.25 543.85 88 540.85 90.45 537.8 92.85 532.55 92.85 520.5 92.85 507.55 83.1
L 500.15 95.2
Q 504.55 98.7 515.45 103.35 524.1 106.25 532.1 106.25 538.1 106.25 542.95 104.65 547.85 103.15 551.6 100 555.5 96.9 557.35 92.6 559.25 88.45 559.25 83.1 559.25 77.9 557.35 74 555.55 70.1 551.75 67.65
L 544.8 63.75 523.15 56.7
Q 519.45 55 519.45 51.4 519.45 47.35 523 45.35 526.4 43.4 531.95 43.4 537.25 43.4 542.15 44.9 546.95 46.35 551.45 49.4
M 643.9 31.4
L 628.4 31.4 628.4 71.35
Q 628.4 76.5 626.85 80.4 625.4 84.25 622.45 87 616.45 92.35 608.4 92.35 599.95 92.35 595.7 87.2 591.5 82.1 591.5 71.9
L 591.5 31.4 576 31.4 576 76.6
Q 576 91.05 583.65 98.7 591.35 106.25 603.85 106.25 611.5 106.25 618.05 102.45 621.4 100.4 623.9 97.8 626.5 95.15 628.4 91.7
L 628.4 105.2 643.9 105.2 643.9 31.4
M 723.95 45.4
Q 721.9 40.2 717.8 36.9 713.7 33.65 708.35 32 703.1 30.35 696.5 30.35 688 30.35 680.4 33.1 672.75 35.7 666.05 41
L 673 50.7
Q 684.05 43.25 694.35 43.25 702.45 43.25 706.55 46.95 710.65 50.55 710.65 58
L 710.65 60.7 690.5 60.7
Q 683.75 60.7 678.3 62.1 672.85 63.45 668.8 66.05 660.8 71.45 660.8 82.35 660.8 87.85 662.65 92.2 664.55 96.5 668.35 99.75 672.05 103 676.9 104.65 681.65 106.25 687.35 106.25 702.8 106.25 711.95 95.35
L 711.95 105.2 726.05 105.2 726.05 57.7
Q 726.05 50.55 723.95 45.4
M 680.5 90.3
Q 676.25 87.4 676.25 82 676.25 76.75 680.5 74.15 684.65 71.45 693.05 71.45
L 710.5 71.45 710.5 77.7
Q 710.5 81.3 709.15 84.1 707.7 86.9 704.95 88.95 699.4 93.1 692.05 93.1 684.6 93.1 680.5 90.3
M 763.15 2.35
L 747.7 2.35 747.7 105.2 763.15 105.2 763.15 2.35 Z"/>

<path fill="#FFFFFF" stroke="none" d="
M 53.4 31.4
L 37.95 31.4 37.95 105.2 53.4 105.2 53.4 31.4
M 15.45 2.35
L 0 2.35 0 105.2 15.45 105.2 15.45 2.35
M 55.65 9.85
Q 55.65 5.85 52.75 2.9 49.85 0 45.8 0 41.75 0 38.9 2.9 35.9 5.85 35.9 9.85 35.9 13.8 38.9 16.75 41.75 19.65 45.8 19.65 49.85 19.65 52.75 16.75 55.65 13.8 55.65 9.85
M 131.05 31.4
L 131.05 44.35
Q 121.9 30.35 107.1 30.35 92.3 30.35 81.7 40.65 76.4 45.7 73.8 52.55 71.15 59.35 71.15 67.85 71.15 76.45 73.8 83.3 76.4 90.3 81.6 95.65 86.9 101 92.95 103.6 99 106.25 106 106.25 112.95 106.25 119.3 103.25 125.5 100.2 131.05 94.05
L 131.05 132 146.5 132 146.5 31.4 131.05 31.4
M 109.25 44
Q 113.95 44 117.85 45.7 121.75 47.45 124.9 50.9 128.1 54.45 129.75 58.85 131.25 63.15 131.25 68.45 131.25 73.7 129.75 78.05 128.1 82.35 124.9 85.7 121.75 89.1 117.85 90.75 113.95 92.45 109.45 92.45 104.85 92.45 100.9 90.75 96.85 89.1 93.45 85.75 86.75 79.1 86.75 68.5 86.75 58 93.35 50.9 96.6 47.45 100.65 45.7 104.65 44 109.25 44
M 236.05 31.4
L 220.55 31.4 220.55 71.35
Q 220.55 76.5 219 80.4 217.6 84.25 214.6 87 208.65 92.35 200.55 92.35 192.1 92.35 187.85 87.2 183.65 82.1 183.65 71.9
L 183.65 31.4 168.15 31.4 168.15 76.6
Q 168.15 91.05 175.8 98.7 183.5 106.25 196 106.25 203.65 106.25 210.2 102.45 213.55 100.4 216.05 97.8 218.65 95.15 220.55 91.7
L 220.55 105.2 236.05 105.2 236.05 31.4
M 273.95 31.4
L 258.5 31.4 258.5 105.2 273.95 105.2 273.95 31.4
M 276.2 9.85
Q 276.2 5.85 273.3 2.9 270.4 0 266.35 0 262.35 0 259.45 2.9 256.5 5.85 256.5 9.85 256.5 13.8 259.45 16.75 262.35 19.65 266.35 19.65 270.4 19.65 273.3 16.75 276.2 13.8 276.2 9.85
M 341.15 33.45
Q 335.2 30.35 327.85 30.35 313.05 30.35 302.4 40.65 297.05 45.7 294.45 52.65 291.7 59.4 291.7 68 291.7 85.2 302.1 95.8 307.35 101.05 313.4 103.6 319.5 106.25 326.5 106.25 343 106.25 351.6 94.05
L 351.6 105.2 367.05 105.2 367.05 2.35 351.6 2.35 351.6 42.8
Q 347.05 36.55 341.15 33.45
M 350.3 58.9
Q 351.8 63.4 351.8 68.6 351.8 73.85 350.3 78.2 348.65 82.5 345.45 85.85 342.3 89.25 338.4 90.9 334.5 92.6 330 92.6 325.4 92.6 321.45 90.9 317.4 89.25 314 85.9 307.3 79.25 307.3 68.65 307.3 58.1 313.95 51 320.5 44 329.8 44 339.1 44 345.45 51 348.65 54.5 350.3 58.9 Z"/>
</g>
</defs>

<g transform="matrix( 1, 0, 0, 1, 0,0) ">
<use xlink:href="#Layer4_0_FILL"/>
</g>
</svg>
