
<svg xmlns="http://www.w3.org/2000/svg" version="1.1" xmlns:xlink="http://www.w3.org/1999/xlink" preserveAspectRatio="none" x="0px" y="0px" width="768px" height="132px" viewBox="0 0 768 132">
<defs>
<g id="Layer3_0_FILL">
<path fill="#EFF1F4" stroke="none" d="
M 100.95 27.5
L 100.95 2.85 0 2.85 0 27.5 36.25 27.5 36.25 130.6 64.7 130.6 64.7 27.5 100.95 27.5
M 229.55 2.85
L 201 2.85 201 56.15 150.25 56.15 150.25 2.85 121.7 2.85 121.7 130.6 150.25 130.6 150.25 80.35 201 80.35 201 130.6 229.55 130.6 229.55 2.85
M 340.1 103
L 351.9 130.6 382.25 130.6 327.15 2.85 299.5 2.85 244.35 130.6 274.65 130.6 286.55 103 340.1 103
M 297.4 77.95
L 313.35 40.85 329.25 77.95 297.4 77.95
M 514.85 2.85
L 486.4 2.85 486.4 85.1 423.65 2.85 397 2.85 397 130.6 425.55 130.6 425.55 50.55 486.4 130.6 514.85 130.6 514.85 2.85
M 574.8 94.3
L 587.55 80.15 625.05 130.6 658.35 130.6 607.45 59.3 658.35 2.85 622.95 2.85 574.8 55.3 574.8 2.85 546.25 2.85 546.25 130.6 574.8 130.6 574.8 94.3
M 751.45 37.6
L 765.9 16.75
Q 756.4 8.65 743.65 4.3 730.85 0 718.05 0 698.4 0 685.4 9.8 672.35 19.7 672.35 37.9 672.35 47 674.9 53.6 677.5 60.25 682.6 64.55 693 73 715.25 78.35 729.35 81.75 734 85.2 738.85 88.5 738.85 94.2 738.85 100.05 734.3 103.45 729.85 106.9 722 106.9 704.5 106.9 683.85 88.7
L 666.85 109.55
Q 691.1 132 721.45 132 732 132 740.5 129.35 748.95 126.65 755.35 121.35 768.2 110.7 768.2 93.45 768.2 84.9 765.7 78.4 763.25 71.85 758.2 67.3 748.1 58.45 729.9 53.95 711.85 49.5 706.7 46.15 701.75 42.85 701.75 37.2 701.75 31.7 705.85 28.35 709.95 24.95 717.05 24.95 734.85 24.95 751.45 37.6 Z"/>
</g>
</defs>

<g transform="matrix( 1, 0, 0, 1, 0,0) ">
<use xlink:href="#Layer3_0_FILL"/>
</g>
</svg>
