
<svg xmlns="http://www.w3.org/2000/svg" version="1.1" xmlns:xlink="http://www.w3.org/1999/xlink" preserveAspectRatio="none" x="0px" y="0px" width="965px" height="132px" viewBox="0 0 965 132">
<defs>
<g id="Layer2_0_FILL">
<path fill="#EFF1F4" stroke="none" d="
M 101.45 49.4
Q 101.45 25.7 87.95 14.25 81.3 8.55 70.65 5.7 59.9 2.85 45.15 2.85
L 0 2.85 0 130.55 28.55 130.55 28.55 94.95 45.5 94.95
Q 73.85 94.95 87.65 84 94.55 78.5 97.95 69.85 101.45 61.2 101.45 49.4
M 44.85 27.3
Q 58.95 27.3 65.5 31.95 72.15 36.65 72.15 47.65 72.15 53.2 70.9 57.35 69.6 61.55 67.1 64.5 62 70.2 47.8 70.2
L 28.55 70.2 28.55 27.3 44.85 27.3
M 227.2 45.3
Q 227.2 22.9 214.55 12.85 208.25 7.9 197.6 5.4 187.05 2.85 172.1 2.85
L 123.65 2.85 123.65 130.55 152.2 130.55 152.2 89.85 171.9 89.85 200.15 130.55 235.3 130.55 202.9 84.9
Q 215.1 80.4 221.2 70.5 227.2 60.6 227.2 45.3
M 173.5 27.3
Q 187.2 27.3 192.75 31.2 195.5 33 196.85 36.65 198.25 40.15 198.25 45.4 198.25 55.65 192.95 60.4 190.25 62.8 185.3 64.05 180.25 65.2 172.95 65.2
L 152.2 65.2 152.2 27.3 173.5 27.3
M 378.4 91.75
Q 383.15 79.95 383.15 65.85 383.15 51.75 378.4 39.95 373.55 28.35 363.85 18.85 344.45 0 316.15 0 287.8 0 268.5 18.85 258.8 28.35 253.95 39.95 249.1 51.75 249.1 65.85 249.1 94 268.5 112.85 287.8 131.8 316.15 131.8 344.45 131.8 363.85 112.85 373.55 103.45 378.4 91.75
M 354.25 65.95
Q 354.25 83.05 343.2 95.05 332.25 107.05 316.25 107.05 308.25 107.05 301.5 104 294.75 101.05 289.35 95.05 278.4 83.05 278.4 65.95 278.4 48.9 289.35 36.8 294.75 30.8 301.5 27.8 308.25 24.75 316.25 24.75 332.25 24.75 343.2 36.8 354.25 48.9 354.25 65.95
M 412 2.85
L 412 27.3 449.8 27.3 449.8 87.25
Q 449.8 91.9 448.75 95.45 447.7 98.85 445.5 101.25 441.2 105.9 435.15 105.9 428.95 105.9 422.85 102.75 416.85 99.7 411.05 93.45
L 396.3 114
Q 404.85 122.75 414.95 127.25 425.05 131.6 436.55 131.6 445.7 131.6 453.3 128.85 460.85 126 466.75 120.3 478.55 108.95 478.55 86.1
L 478.55 2.85 412 2.85
M 600.9 28.25
L 600.9 2.85 508.8 2.85 508.8 130.55 602.9 130.55 602.9 105.35 537.35 105.35 537.35 78.8 594.55 78.8 594.55 54.5 537.35 54.5 537.35 28.25 600.9 28.25
M 688.95 27.1
Q 708.95 27.1 722.55 43.95
L 740.35 23.85
Q 719 0 687.6 0 659.45 0 640.05 18.9 620.5 37.95 620.5 66.3 620.5 94.75 639.65 113.35 658.8 132 688.3 132 703.05 132 715.9 125.9 728.65 119.8 739.5 107.55
L 721.3 88.7
Q 707.9 105.35 686.95 105.35 679.25 105.35 672.65 102.65 666.1 99.9 660.8 94.6 655.35 89.15 652.7 82 650 74.9 650 65.95 650 57.1 652.9 49.95 655.75 42.8 661.45 37.65 672.85 27.1 688.95 27.1
M 852.25 27.5
L 852.25 2.85 751.3 2.85 751.3 27.5 787.55 27.5 787.55 130.55 816 130.55 816 27.5 852.25 27.5
M 948.45 37.6
L 962.95 16.75
Q 953.4 8.65 940.65 4.25 927.9 0 915.05 0 895.45 0 882.4 9.8 869.4 19.7 869.4 37.85 869.4 47 871.95 53.55 874.55 60.25 879.65 64.5 890.05 73 912.3 78.3 926.4 81.75 931.05 85.15 935.9 88.5 935.9 94.2 935.9 100 931.35 103.45 926.85 106.85 919.05 106.85 901.55 106.85 880.9 88.7
L 863.85 109.55
Q 888.15 132 918.5 132 929.05 132 937.55 129.3 946 126.65 952.35 121.35 965.2 110.65 965.2 93.45 965.2 84.9 962.75 78.4 960.25 71.85 955.25 67.25 945.15 58.4 926.95 53.95 908.9 49.45 903.75 46.15 898.8 42.8 898.8 37.2 898.8 31.7 902.9 28.35 907 24.9 914.1 24.9 931.9 24.9 948.45 37.6 Z"/>
</g>
</defs>

<g transform="matrix( 1, 0, 0, 1, 0,0) ">
<use xlink:href="#Layer2_0_FILL"/>
</g>
</svg>
