
<svg xmlns="http://www.w3.org/2000/svg" version="1.1" xmlns:xlink="http://www.w3.org/1999/xlink" preserveAspectRatio="none" x="0px" y="0px" width="405px" height="122px" viewBox="0 0 405 122">
<defs>
<g id="Layer0_0_MEMBER_0_FILL">
<path fill="#FFFFFF" stroke="none" d="
M 525.6 483
L 519.1 483
Q 517.1 483 517.1 485.1
L 517.1 536.95
Q 517.1 539 519.1 539
L 525.6 539
Q 527.55 539 527.55 536.95
L 527.55 504.1
Q 528.65 507.05 530.85 510.8
L 546.75 538
Q 547.3 539 548.65 539
L 555.15 539
Q 557.1 539 557.1 536.95
L 557.1 485.1
Q 557.1 483 555.15 483
L 548.65 483
Q 546.7 483 546.7 485.1
L 546.7 518
Q 545.25 514.65 543.85 512.25
L 527.3 483.85
Q 526.85 483 525.6 483
M 506 485.2
Q 506 483 504.1 483
L 496.95 483
Q 495 483 495 485.2
L 495 524.25
Q 495 530.45 486.05 530.45 477.25 530.45 477.25 524.25
L 477.25 485.2
Q 477.25 483 475.2 483
L 468.05 483
Q 466 483 466 485.2
L 466 526.25
Q 466 532.05 470.45 535.55 475.6 539.65 486.05 539.65 496.4 539.65 501.6 535.55 506 532.05 506 526.25
L 506 485.2
M 618.9 485.2
Q 618.9 483 616.9 483
L 609.75 483
Q 607.75 483 607.75 485.2
L 607.75 536.85
Q 607.75 539 609.75 539
L 616.9 539
Q 618.9 539 618.9 536.85
L 618.9 485.2
M 579.7 485.2
Q 579.7 483 577.7 483
L 570.55 483
Q 568.55 483 568.55 485.2
L 568.55 536.85
Q 568.55 539 570.3 539
L 598.05 539
Q 600.1 539 600.1 536.95
L 600.1 531.75
Q 600.1 529.8 598.05 529.8
L 579.7 529.8 579.7 485.2
M 702.85 485.2
Q 702.85 483 700.85 483
L 693.7 483
Q 691.7 483 691.7 485.2
L 691.7 536.85
Q 691.7 539 693.7 539
L 700.85 539
Q 702.85 539 702.85 536.85
L 702.85 485.2
M 680.25 485.1
Q 680.25 483 678.3 483
L 671.45 483
Q 670 483 669.55 484
L 657.4 513
Q 656.35 515.45 655.25 518.65 654.15 515.15 653.2 512.9
L 640.6 484.2
Q 640.1 483 638.8 483
L 632.3 483
Q 630.3 483 630.3 485.1
L 630.3 536.95
Q 630.3 539 632.3 539
L 638.8 539
Q 640.75 539 640.75 536.95
L 640.75 505.85
Q 641.2 508.85 642.7 511.9
L 649.65 528.45
Q 650.45 530.5 652.3 530.5
L 658.15 530.5
Q 659.95 530.5 660.85 528.45
L 667.1 513.15 669.5 505.7 669.5 536.95
Q 669.5 539 671.45 539
L 678.3 539
Q 680.25 539 680.25 536.95
L 680.25 485.1
M 756.8 483
Q 754.8 483 754.8 485.2
L 754.8 536.85
Q 754.8 539 756.8 539
L 785.75 539
Q 787.85 539 787.85 536.95
L 787.85 531.75
Q 787.85 529.8 785.75 529.8
L 765.95 529.8 765.95 514.5 783.55 514.5
Q 785.65 514.5 785.65 512.5
L 785.65 507.55
Q 785.65 505.6 783.55 505.6
L 765.95 505.6 765.95 492.25 784.95 492.25
Q 787 492.25 787 490.2
L 787 485.05
Q 787 483 784.95 483
L 756.8 483
M 734.35 492.25
L 746.05 492.25
Q 748.1 492.25 748.1 490.2
L 748.1 485.05
Q 748.1 483 746.05 483
L 711.45 483
Q 709.4 483 709.4 485.05
L 709.4 490.2
Q 709.4 492.25 711.45 492.25
L 723.15 492.25 723.15 536.85
Q 723.15 539 725.2 539
L 732.35 539
Q 734.35 539 734.35 536.85
L 734.35 492.25
M 832.5 487.15
Q 827.3 483 816.9 483
L 798.95 483
Q 796.95 483 796.95 485.2
L 796.95 536.85
Q 796.95 539 798.7 539
L 816.9 539
Q 827.3 539 832.5 534.9 836.95 531.35 836.95 525.6
L 836.95 496.45
Q 836.95 490.65 832.5 487.15
M 825.85 498.4
L 825.85 523.6
Q 825.85 529.8 816.9 529.8
L 808.1 529.8 808.1 492.25 816.9 492.25
Q 825.85 492.25 825.85 498.4 Z"/>
</g>

<g id="Layer0_0_MEMBER_1_FILL">
<path fill="#FFFFFF" stroke="none" d="
M 496.35 441.7
Q 496.35 439.5 494 439.5
L 479 439.5 479 429.25 495.25 429.25
Q 497.6 429.25 497.6 426.95
L 497.6 420.85
Q 497.6 418.6 495.25 418.6
L 468.25 418.6
Q 466 418.6 466 421
L 466 469.9
Q 466 472.25 468.25 472.25
L 496.05 472.25
Q 498.4 472.25 498.4 470
L 498.4 463.8
Q 498.4 461.6 496.05 461.6
L 479 461.6 479 449.75 494 449.75
Q 496.35 449.75 496.35 447.5
L 496.35 441.7
M 546.15 421
Q 546.15 418.6 544 418.6
L 536.25 418.6
Q 533.95 418.6 533.95 421
L 533.95 447.8
Q 532.3 443.8 531.2 441.9
L 517.85 419.55
Q 517.4 418.6 515.9 418.6
L 508.15 418.6
Q 505.9 418.6 505.9 421
L 505.9 469.9
Q 505.9 472.25 508.15 472.25
L 515.9 472.25
Q 518.1 472.25 518.1 469.9
L 518.1 443.05
Q 519.9 447.6 521.5 450.2
L 534.1 471.15
Q 534.75 472.25 536.25 472.25
L 544 472.25
Q 546.15 472.25 546.15 469.9
L 546.15 421
M 567.9 433.75
Q 567.9 428.6 574.45 428.6 581.05 428.6 581.05 433.75
L 581.05 434.3
Q 581.05 436.65 583.4 436.65
L 591.5 436.65
Q 593.7 436.65 593.7 434.3
L 593.7 431.45
Q 593.7 425.7 589.55 422.2 584.55 418 574.3 418 564 418 559.05 422.2 554.9 425.7 554.9 431.45
L 554.9 459.4
Q 554.9 465.2 559.05 468.65 564 472.85 574.3 472.85 584.55 472.85 589.55 468.65 593.7 465.2 593.7 459.4
L 593.7 445.3
Q 593.7 443.05 591.35 443.05
L 574.6 443.05
Q 572.25 443.05 572.25 445.3
L 572.25 451.4
Q 572.25 453.7 574.6 453.7
L 581.05 453.7 581.05 457.1
Q 581.05 462.25 574.45 462.25 567.9 462.25 567.9 457.1
L 567.9 433.75
M 615 421
Q 615 418.6 612.75 418.6
L 604.25 418.6
Q 602 418.6 602 421
L 602 469.9
Q 602 472.25 603.95 472.25
L 630.45 472.25
Q 632.85 472.25 632.85 470
L 632.85 463.8
Q 632.85 461.6 630.45 461.6
L 615 461.6 615 421
M 652.1 421
Q 652.1 418.6 649.85 418.6
L 641.35 418.6
Q 639.1 418.6 639.1 421
L 639.1 469.9
Q 639.1 472.25 641.35 472.25
L 649.85 472.25
Q 652.1 472.25 652.1 469.9
L 652.1 421
M 696.55 436.75
Q 698.85 436.75 698.85 434.4
L 698.85 431.45
Q 698.85 425.65 694.8 422.2 689.9 418 679.85 418 661.15 418 661.15 431.45
L 661.15 436.05
Q 661.15 439.45 663.3 442.45 665.4 445.4 668.45 446.5
L 679.85 450.8
Q 686.6 453.3 686.6 456.05
L 686.6 457.65
Q 686.6 462.6 679.6 462.6 672.65 462.6 672.65 457.65
L 672.65 454.1
Q 672.65 451.75 670.45 451.75
L 662.25 451.75
Q 659.95 451.75 659.95 454.1
L 659.95 459.4
Q 659.95 465.15 664.3 468.65 669.45 472.85 679.75 472.85 690.05 472.85 695.1 468.65 699.4 465.15 699.4 459.4
L 699.4 453.8
Q 699.4 445.2 689.55 441.9
L 676.3 437.4
Q 673.75 436.45 673.75 434
L 673.75 433.2
Q 673.75 428.25 680 428.25 686.15 428.25 686.15 433.2
L 686.15 434.4
Q 686.15 436.75 688.35 436.75
L 696.55 436.75
M 747.15 421
Q 747.15 418.6 745 418.6
L 736.45 418.6
Q 734.15 418.6 734.15 421
L 734.15 439.75 719.9 439.75 719.9 421
Q 719.9 418.6 717.65 418.6
L 709.15 418.6
Q 706.9 418.6 706.9 421
L 706.9 469.9
Q 706.9 472.25 709.15 472.25
L 717.65 472.25
Q 719.9 472.25 719.9 469.9
L 719.9 450.4 734.15 450.4 734.15 469.9
Q 734.15 472.25 736.45 472.25
L 745 472.25
Q 747.15 472.25 747.15 469.9
L 747.15 421 Z"/>
</g>

<g id="Layer0_0_MEMBER_2_FILL">
<path fill="#FFFFFF" stroke="none" d="
M 450.2 525.2
L 448.1 525.2
Q 447.6 525.2 447.6 525.7
L 447.6 527
Q 447.6 527.5 448.1 527.5
L 449.85 527.5
Q 453 527.5 453 532.15 453 536.8 449.85 536.8
L 437.25 536.8
Q 434.05 536.8 434.05 532.15 434.05 527.5 437.25 527.5
L 438.55 527.5
Q 439.05 527.5 439.05 527
L 439.05 525.7
Q 439.05 525.2 438.55 525.2
L 436.85 525.2
Q 432.05 525.2 432.05 532.2 432.05 539.15 436.85 539.15
L 450.2 539.15
Q 455 539.15 455 532.2 455 525.2 450.2 525.2
M 455 513.5
Q 455 506.35 450.2 506.35
L 436.85 506.35
Q 432.05 506.35 432.05 513.5 432.05 520.65 436.85 520.65
L 450.2 520.65
Q 455 520.65 455 513.5
M 449.85 508.7
Q 453 508.7 453 513.5 453 518.3 449.85 518.3
L 437.25 518.3
Q 434.05 518.3 434.05 513.5 434.05 508.7 437.25 508.7
L 449.85 508.7
M 454.75 488.85
Q 454.75 488.4 454.25 488.4
L 453.2 488.4
Q 452.75 488.4 452.75 488.85
L 452.75 498.1 432.8 498.1
Q 432.3 498.1 432.3 498.55
L 432.3 500
Q 432.3 500.45 432.8 500.45
L 454.25 500.45
Q 454.75 500.45 454.75 500.05
L 454.75 488.85
M 432.8 481.65
Q 432.3 481.65 432.3 482.1
L 432.3 483.55
Q 432.3 484 432.8 484
L 454.25 484
Q 454.75 484 454.75 483.6
L 454.75 472.4
Q 454.75 471.95 454.25 471.95
L 453.2 471.95
Q 452.75 471.95 452.75 472.4
L 452.75 481.65 432.8 481.65
M 443.95 456.4
Q 443.95 455.95 443.45 455.95
L 442.5 455.95
Q 442 455.95 442 456.4
L 442 465.25 434.3 465.25 434.3 455.85
Q 434.3 455.35 433.85 455.35
L 432.8 455.35
Q 432.3 455.35 432.3 455.85
L 432.3 467.1
Q 432.3 467.55 432.8 467.55
L 454.25 467.55
Q 454.75 467.55 454.75 467.1
L 454.75 455.45
Q 454.75 454.95 454.25 454.95
L 453.2 454.95
Q 452.75 454.95 452.75 455.45
L 452.75 465.25 443.95 465.25 443.95 456.4
M 455 443.45
Q 455 436.45 450.2 436.45
L 444.4 436.45
Q 443.95 436.45 443.95 436.95
L 443.95 443.15
Q 443.95 443.6 444.4 443.6
L 445.5 443.6
Q 445.95 443.6 445.95 443.15
L 445.95 438.75 449.85 438.75
Q 453 438.75 453 443.4 453 448.05 449.85 448.05
L 437.25 448.05
Q 434.05 448.05 434.05 443.4 434.05 438.75 437.25 438.75
L 438.45 438.75
Q 438.9 438.75 438.9 438.25
L 438.9 436.95
Q 438.9 436.45 438.45 436.45
L 436.85 436.45
Q 432.05 436.45 432.05 443.45 432.05 450.4 436.85 450.4
L 450.2 450.4
Q 455 450.4 455 443.45
M 454.75 418.9
Q 454.75 418.4 454.25 418.4
L 453.2 418.4
Q 452.75 418.4 452.75 418.9
L 452.75 428.7 443.95 428.7 443.95 419.85
Q 443.95 419.4 443.45 419.4
L 442.5 419.4
Q 442 419.4 442 419.85
L 442 428.7 434.3 428.7 434.3 419.3
Q 434.3 418.8 433.85 418.8
L 432.8 418.8
Q 432.3 418.8 432.3 419.3
L 432.3 430.55
Q 432.3 431 432.8 431
L 454.25 431
Q 454.75 431 454.75 430.55
L 454.75 418.9 Z"/>
</g>

<g id="Layer0_1_MEMBER_0_FILL">
<path fill="#FFFFFF" stroke="none" d="
M 525.6 483
L 519.1 483
Q 517.1 483 517.1 485.1
L 517.1 536.95
Q 517.1 539 519.1 539
L 525.6 539
Q 527.55 539 527.55 536.95
L 527.55 504.1
Q 528.65 507.05 530.85 510.8
L 546.75 538
Q 547.3 539 548.65 539
L 555.15 539
Q 557.1 539 557.1 536.95
L 557.1 485.1
Q 557.1 483 555.15 483
L 548.65 483
Q 546.7 483 546.7 485.1
L 546.7 518
Q 545.25 514.65 543.85 512.25
L 527.3 483.85
Q 526.85 483 525.6 483
M 506 485.2
Q 506 483 504.1 483
L 496.95 483
Q 495 483 495 485.2
L 495 524.25
Q 495 530.45 486.05 530.45 477.25 530.45 477.25 524.25
L 477.25 485.2
Q 477.25 483 475.2 483
L 468.05 483
Q 466 483 466 485.2
L 466 526.25
Q 466 532.05 470.45 535.55 475.6 539.65 486.05 539.65 496.4 539.65 501.6 535.55 506 532.05 506 526.25
L 506 485.2
M 618.9 485.2
Q 618.9 483 616.9 483
L 609.75 483
Q 607.75 483 607.75 485.2
L 607.75 536.85
Q 607.75 539 609.75 539
L 616.9 539
Q 618.9 539 618.9 536.85
L 618.9 485.2
M 579.7 485.2
Q 579.7 483 577.7 483
L 570.55 483
Q 568.55 483 568.55 485.2
L 568.55 536.85
Q 568.55 539 570.3 539
L 598.05 539
Q 600.1 539 600.1 536.95
L 600.1 531.75
Q 600.1 529.8 598.05 529.8
L 579.7 529.8 579.7 485.2
M 702.85 485.2
Q 702.85 483 700.85 483
L 693.7 483
Q 691.7 483 691.7 485.2
L 691.7 536.85
Q 691.7 539 693.7 539
L 700.85 539
Q 702.85 539 702.85 536.85
L 702.85 485.2
M 680.25 485.1
Q 680.25 483 678.3 483
L 671.45 483
Q 670 483 669.55 484
L 657.4 513
Q 656.35 515.45 655.25 518.65 654.15 515.15 653.2 512.9
L 640.6 484.2
Q 640.1 483 638.8 483
L 632.3 483
Q 630.3 483 630.3 485.1
L 630.3 536.95
Q 630.3 539 632.3 539
L 638.8 539
Q 640.75 539 640.75 536.95
L 640.75 505.85
Q 641.2 508.85 642.7 511.9
L 649.65 528.45
Q 650.45 530.5 652.3 530.5
L 658.15 530.5
Q 659.95 530.5 660.85 528.45
L 667.1 513.15 669.5 505.7 669.5 536.95
Q 669.5 539 671.45 539
L 678.3 539
Q 680.25 539 680.25 536.95
L 680.25 485.1
M 756.8 483
Q 754.8 483 754.8 485.2
L 754.8 536.85
Q 754.8 539 756.8 539
L 785.75 539
Q 787.85 539 787.85 536.95
L 787.85 531.75
Q 787.85 529.8 785.75 529.8
L 765.95 529.8 765.95 514.5 783.55 514.5
Q 785.65 514.5 785.65 512.5
L 785.65 507.55
Q 785.65 505.6 783.55 505.6
L 765.95 505.6 765.95 492.25 784.95 492.25
Q 787 492.25 787 490.2
L 787 485.05
Q 787 483 784.95 483
L 756.8 483
M 734.35 492.25
L 746.05 492.25
Q 748.1 492.25 748.1 490.2
L 748.1 485.05
Q 748.1 483 746.05 483
L 711.45 483
Q 709.4 483 709.4 485.05
L 709.4 490.2
Q 709.4 492.25 711.45 492.25
L 723.15 492.25 723.15 536.85
Q 723.15 539 725.2 539
L 732.35 539
Q 734.35 539 734.35 536.85
L 734.35 492.25
M 832.5 487.15
Q 827.3 483 816.9 483
L 798.95 483
Q 796.95 483 796.95 485.2
L 796.95 536.85
Q 796.95 539 798.7 539
L 816.9 539
Q 827.3 539 832.5 534.9 836.95 531.35 836.95 525.6
L 836.95 496.45
Q 836.95 490.65 832.5 487.15
M 825.85 498.4
L 825.85 523.6
Q 825.85 529.8 816.9 529.8
L 808.1 529.8 808.1 492.25 816.9 492.25
Q 825.85 492.25 825.85 498.4 Z"/>
</g>

<g id="Layer0_1_MEMBER_1_FILL">
<path fill="#FFFFFF" stroke="none" d="
M 496.35 441.7
Q 496.35 439.5 494 439.5
L 479 439.5 479 429.25 495.25 429.25
Q 497.6 429.25 497.6 426.95
L 497.6 420.85
Q 497.6 418.6 495.25 418.6
L 468.25 418.6
Q 466 418.6 466 421
L 466 469.9
Q 466 472.25 468.25 472.25
L 496.05 472.25
Q 498.4 472.25 498.4 470
L 498.4 463.8
Q 498.4 461.6 496.05 461.6
L 479 461.6 479 449.75 494 449.75
Q 496.35 449.75 496.35 447.5
L 496.35 441.7
M 546.15 421
Q 546.15 418.6 544 418.6
L 536.25 418.6
Q 533.95 418.6 533.95 421
L 533.95 447.8
Q 532.3 443.8 531.2 441.9
L 517.85 419.55
Q 517.4 418.6 515.9 418.6
L 508.15 418.6
Q 505.9 418.6 505.9 421
L 505.9 469.9
Q 505.9 472.25 508.15 472.25
L 515.9 472.25
Q 518.1 472.25 518.1 469.9
L 518.1 443.05
Q 519.9 447.6 521.5 450.2
L 534.1 471.15
Q 534.75 472.25 536.25 472.25
L 544 472.25
Q 546.15 472.25 546.15 469.9
L 546.15 421
M 567.9 433.75
Q 567.9 428.6 574.45 428.6 581.05 428.6 581.05 433.75
L 581.05 434.3
Q 581.05 436.65 583.4 436.65
L 591.5 436.65
Q 593.7 436.65 593.7 434.3
L 593.7 431.45
Q 593.7 425.7 589.55 422.2 584.55 418 574.3 418 564 418 559.05 422.2 554.9 425.7 554.9 431.45
L 554.9 459.4
Q 554.9 465.2 559.05 468.65 564 472.85 574.3 472.85 584.55 472.85 589.55 468.65 593.7 465.2 593.7 459.4
L 593.7 445.3
Q 593.7 443.05 591.35 443.05
L 574.6 443.05
Q 572.25 443.05 572.25 445.3
L 572.25 451.4
Q 572.25 453.7 574.6 453.7
L 581.05 453.7 581.05 457.1
Q 581.05 462.25 574.45 462.25 567.9 462.25 567.9 457.1
L 567.9 433.75
M 615 421
Q 615 418.6 612.75 418.6
L 604.25 418.6
Q 602 418.6 602 421
L 602 469.9
Q 602 472.25 603.95 472.25
L 630.45 472.25
Q 632.85 472.25 632.85 470
L 632.85 463.8
Q 632.85 461.6 630.45 461.6
L 615 461.6 615 421
M 652.1 421
Q 652.1 418.6 649.85 418.6
L 641.35 418.6
Q 639.1 418.6 639.1 421
L 639.1 469.9
Q 639.1 472.25 641.35 472.25
L 649.85 472.25
Q 652.1 472.25 652.1 469.9
L 652.1 421
M 696.55 436.75
Q 698.85 436.75 698.85 434.4
L 698.85 431.45
Q 698.85 425.65 694.8 422.2 689.9 418 679.85 418 661.15 418 661.15 431.45
L 661.15 436.05
Q 661.15 439.45 663.3 442.45 665.4 445.4 668.45 446.5
L 679.85 450.8
Q 686.6 453.3 686.6 456.05
L 686.6 457.65
Q 686.6 462.6 679.6 462.6 672.65 462.6 672.65 457.65
L 672.65 454.1
Q 672.65 451.75 670.45 451.75
L 662.25 451.75
Q 659.95 451.75 659.95 454.1
L 659.95 459.4
Q 659.95 465.15 664.3 468.65 669.45 472.85 679.75 472.85 690.05 472.85 695.1 468.65 699.4 465.15 699.4 459.4
L 699.4 453.8
Q 699.4 445.2 689.55 441.9
L 676.3 437.4
Q 673.75 436.45 673.75 434
L 673.75 433.2
Q 673.75 428.25 680 428.25 686.15 428.25 686.15 433.2
L 686.15 434.4
Q 686.15 436.75 688.35 436.75
L 696.55 436.75
M 747.15 421
Q 747.15 418.6 745 418.6
L 736.45 418.6
Q 734.15 418.6 734.15 421
L 734.15 439.75 719.9 439.75 719.9 421
Q 719.9 418.6 717.65 418.6
L 709.15 418.6
Q 706.9 418.6 706.9 421
L 706.9 469.9
Q 706.9 472.25 709.15 472.25
L 717.65 472.25
Q 719.9 472.25 719.9 469.9
L 719.9 450.4 734.15 450.4 734.15 469.9
Q 734.15 472.25 736.45 472.25
L 745 472.25
Q 747.15 472.25 747.15 469.9
L 747.15 421 Z"/>
</g>

<g id="Layer0_1_MEMBER_2_FILL">
<path fill="#FFFFFF" stroke="none" d="
M 450.2 525.2
L 448.1 525.2
Q 447.6 525.2 447.6 525.7
L 447.6 527
Q 447.6 527.5 448.1 527.5
L 449.85 527.5
Q 453 527.5 453 532.15 453 536.8 449.85 536.8
L 437.25 536.8
Q 434.05 536.8 434.05 532.15 434.05 527.5 437.25 527.5
L 438.55 527.5
Q 439.05 527.5 439.05 527
L 439.05 525.7
Q 439.05 525.2 438.55 525.2
L 436.85 525.2
Q 432.05 525.2 432.05 532.2 432.05 539.15 436.85 539.15
L 450.2 539.15
Q 455 539.15 455 532.2 455 525.2 450.2 525.2
M 455 513.5
Q 455 506.35 450.2 506.35
L 436.85 506.35
Q 432.05 506.35 432.05 513.5 432.05 520.65 436.85 520.65
L 450.2 520.65
Q 455 520.65 455 513.5
M 449.85 508.7
Q 453 508.7 453 513.5 453 518.3 449.85 518.3
L 437.25 518.3
Q 434.05 518.3 434.05 513.5 434.05 508.7 437.25 508.7
L 449.85 508.7
M 454.75 488.85
Q 454.75 488.4 454.25 488.4
L 453.2 488.4
Q 452.75 488.4 452.75 488.85
L 452.75 498.1 432.8 498.1
Q 432.3 498.1 432.3 498.55
L 432.3 500
Q 432.3 500.45 432.8 500.45
L 454.25 500.45
Q 454.75 500.45 454.75 500.05
L 454.75 488.85
M 432.8 481.65
Q 432.3 481.65 432.3 482.1
L 432.3 483.55
Q 432.3 484 432.8 484
L 454.25 484
Q 454.75 484 454.75 483.6
L 454.75 472.4
Q 454.75 471.95 454.25 471.95
L 453.2 471.95
Q 452.75 471.95 452.75 472.4
L 452.75 481.65 432.8 481.65
M 443.95 456.4
Q 443.95 455.95 443.45 455.95
L 442.5 455.95
Q 442 455.95 442 456.4
L 442 465.25 434.3 465.25 434.3 455.85
Q 434.3 455.35 433.85 455.35
L 432.8 455.35
Q 432.3 455.35 432.3 455.85
L 432.3 467.1
Q 432.3 467.55 432.8 467.55
L 454.25 467.55
Q 454.75 467.55 454.75 467.1
L 454.75 455.45
Q 454.75 454.95 454.25 454.95
L 453.2 454.95
Q 452.75 454.95 452.75 455.45
L 452.75 465.25 443.95 465.25 443.95 456.4
M 455 443.45
Q 455 436.45 450.2 436.45
L 444.4 436.45
Q 443.95 436.45 443.95 436.95
L 443.95 443.15
Q 443.95 443.6 444.4 443.6
L 445.5 443.6
Q 445.95 443.6 445.95 443.15
L 445.95 438.75 449.85 438.75
Q 453 438.75 453 443.4 453 448.05 449.85 448.05
L 437.25 448.05
Q 434.05 448.05 434.05 443.4 434.05 438.75 437.25 438.75
L 438.45 438.75
Q 438.9 438.75 438.9 438.25
L 438.9 436.95
Q 438.9 436.45 438.45 436.45
L 436.85 436.45
Q 432.05 436.45 432.05 443.45 432.05 450.4 436.85 450.4
L 450.2 450.4
Q 455 450.4 455 443.45
M 454.75 418.9
Q 454.75 418.4 454.25 418.4
L 453.2 418.4
Q 452.75 418.4 452.75 418.9
L 452.75 428.7 443.95 428.7 443.95 419.85
Q 443.95 419.4 443.45 419.4
L 442.5 419.4
Q 442 419.4 442 419.85
L 442 428.7 434.3 428.7 434.3 419.3
Q 434.3 418.8 433.85 418.8
L 432.8 418.8
Q 432.3 418.8 432.3 419.3
L 432.3 430.55
Q 432.3 431 432.8 431
L 454.25 431
Q 454.75 431 454.75 430.55
L 454.75 418.9 Z"/>
</g>
</defs>

<g transform="matrix( 1, 0, 0, 1, 0,0) ">
<use xlink:href="#Layer0_0_MEMBER_0_FILL"/>
</g>

<g transform="matrix( 1, 0, 0, 1, 0,0) ">
<use xlink:href="#Layer0_0_MEMBER_1_FILL"/>
</g>

<g transform="matrix( 1, 0, 0, 1, 0,0) ">
<use xlink:href="#Layer0_0_MEMBER_2_FILL"/>
</g>

<g transform="matrix( 1, 0, 0, 1, -432.05,-418) ">
<use xlink:href="#Layer0_1_MEMBER_0_FILL"/>
</g>

<g transform="matrix( 1, 0, 0, 1, -432.05,-418) ">
<use xlink:href="#Layer0_1_MEMBER_1_FILL"/>
</g>

<g transform="matrix( 1, 0, 0, 1, -432.05,-418) ">
<use xlink:href="#Layer0_1_MEMBER_2_FILL"/>
</g>
</svg>
