
<svg xmlns="http://www.w3.org/2000/svg" version="1.1" xmlns:xlink="http://www.w3.org/1999/xlink" preserveAspectRatio="none" x="0px" y="0px" width="409px" height="139px" viewBox="0 0 409 139">
<defs>
<linearGradient id="Gradient_1" gradientUnits="userSpaceOnUse" x1="411.675" y1="-26" x2="218.52500000000003" y2="209.8" spreadMethod="pad">
<stop  offset="0%" stop-color="#FA647D"/>

<stop  offset="100%" stop-color="#FFA778"/>
</linearGradient>

<g id="Layer0_0_FILL">
<path fill="url(#Gradient_1)" stroke="none" d="
M 18.35 122.7
Q 17.8 122.7 17.8 123.3
L 17.8 124.75
Q 17.8 125.35 18.35 125.35
L 20.35 125.35
Q 23.95 125.35 23.95 130.65 23.95 136 20.35 136
L 5.95 136
Q 2.3 136 2.3 130.65 2.3 125.35 5.95 125.35
L 7.45 125.35
Q 8 125.35 8 124.75
L 8 123.3
Q 8 122.7 7.45 122.7
L 5.5 122.7
Q 0 122.7 0 130.7 0 138.65 5.5 138.65
L 20.75 138.65
Q 26.25 138.65 26.25 130.7 26.25 122.7 20.75 122.7
L 18.35 122.7
M 20.75 117.5
Q 26.25 117.5 26.25 109.3 26.25 101.15 20.75 101.15
L 5.5 101.15
Q 0 101.15 0 109.3 0 117.5 5.5 117.5
L 20.75 117.5
M 20.35 103.85
Q 23.95 103.85 23.95 109.3 23.95 114.8 20.35 114.8
L 5.95 114.8
Q 2.3 114.8 2.3 109.3 2.3 103.85 5.95 103.85
L 20.35 103.85
M 39.3 82
Q 37.25 82 37.25 84.2
L 37.25 125.25
Q 37.25 131.05 41.7 134.55 46.85 138.65 57.3 138.65 67.65 138.65 72.85 134.55 77.25 131.05 77.25 125.25
L 77.25 84.2
Q 77.25 82 75.35 82
L 68.2 82
Q 66.25 82 66.25 84.2
L 66.25 123.25
Q 66.25 129.45 57.3 129.45 48.5 129.45 48.5 123.25
L 48.5 84.2
Q 48.5 82 46.45 82
L 39.3 82
M 0.85 91.7
Q 0.3 91.7 0.3 92.2
L 0.3 93.9
Q 0.3 94.4 0.85 94.4
L 25.4 94.4
Q 25.95 94.4 25.95 93.95
L 25.95 81.1
Q 25.95 80.6 25.4 80.6
L 24.2 80.6
Q 23.7 80.6 23.7 81.1
L 23.7 91.7 0.85 91.7
M 23.7 62.3
L 23.7 72.9 0.85 72.9
Q 0.3 72.9 0.3 73.4
L 0.3 75.05
Q 0.3 75.55 0.85 75.55
L 25.4 75.55
Q 25.95 75.55 25.95 75.1
L 25.95 62.3
Q 25.95 61.8 25.4 61.8
L 24.2 61.8
Q 23.7 61.8 23.7 62.3
M 0.85 42.8
Q 0.3 42.8 0.3 43.35
L 0.3 56.25
Q 0.3 56.75 0.85 56.75
L 25.4 56.75
Q 25.95 56.75 25.95 56.25
L 25.95 42.9
Q 25.95 42.35 25.4 42.35
L 24.2 42.35
Q 23.7 42.35 23.7 42.9
L 23.7 54.1 13.6 54.1 13.6 44
Q 13.6 43.45 13.05 43.45
L 11.95 43.45
Q 11.4 43.45 11.4 44
L 11.4 54.1 2.55 54.1 2.55 43.35
Q 2.55 42.8 2.05 42.8
L 0.85 42.8
M 5.95 23.8
L 7.3 23.8
Q 7.85 23.8 7.85 23.2
L 7.85 21.75
Q 7.85 21.15 7.3 21.15
L 5.5 21.15
Q 0 21.15 0 29.15 0 37.1 5.5 37.1
L 20.75 37.1
Q 26.25 37.1 26.25 29.15 26.25 21.15 20.75 21.15
L 14.15 21.15
Q 13.6 21.15 13.6 21.75
L 13.6 28.85
Q 13.6 29.35 14.15 29.35
L 15.4 29.35
Q 15.9 29.35 15.9 28.85
L 15.9 23.8 20.35 23.8
Q 23.95 23.8 23.95 29.1 23.95 34.45 20.35 34.45
L 5.95 34.45
Q 2.3 34.45 2.3 29.1 2.3 23.8 5.95 23.8
M 25.95 14.4
L 25.95 1.1
Q 25.95 0.5 25.4 0.5
L 24.2 0.5
Q 23.7 0.5 23.7 1.1
L 23.7 12.3 13.6 12.3 13.6 2.15
Q 13.6 1.65 13.05 1.65
L 11.95 1.65
Q 11.4 1.65 11.4 2.15
L 11.4 12.3 2.55 12.3 2.55 1.55
Q 2.55 0.95 2.05 0.95
L 0.85 0.95
Q 0.3 0.95 0.3 1.55
L 0.3 14.4
Q 0.3 14.9 0.85 14.9
L 25.4 14.9
Q 25.95 14.9 25.95 14.4
M 79 3.75
Q 79 0.8 75.9 0.8
L 40.25 0.8
Q 37.3 0.8 37.3 3.95
L 37.3 68.5
Q 37.3 71.6 40.25 71.6
L 76.95 71.6
Q 80.05 71.6 80.05 68.6
L 80.05 60.45
Q 80.05 57.55 76.95 57.55
L 54.45 57.55 54.45 41.9 74.25 41.9
Q 77.35 41.9 77.35 38.9
L 77.35 31.25
Q 77.35 28.35 74.25 28.35
L 54.45 28.35 54.45 14.85 75.9 14.85
Q 79 14.85 79 11.8
L 79 3.75
M 119.9 82
Q 117.95 82 117.95 84.1
L 117.95 117
Q 116.5 113.65 115.1 111.25
L 98.55 82.85
Q 98.1 82 96.85 82
L 90.35 82
Q 88.35 82 88.35 84.1
L 88.35 135.95
Q 88.35 138 90.35 138
L 96.85 138
Q 98.8 138 98.8 135.95
L 98.8 103.1
Q 99.9 106.05 102.1 109.8
L 118 137
Q 118.55 138 119.9 138
L 126.4 138
Q 128.35 138 128.35 135.95
L 128.35 84.1
Q 128.35 82 126.4 82
L 119.9 82
M 143.05 3.95
Q 143.05 0.8 140.2 0.8
L 130 0.8
Q 126.95 0.8 126.95 3.95
L 126.95 39.3
Q 124.8 34.05 123.35 31.55
L 105.7 2.05
Q 105.1 0.8 103.15 0.8
L 92.9 0.8
Q 89.95 0.8 89.95 3.95
L 89.95 68.5
Q 89.95 71.6 92.9 71.6
L 103.15 71.6
Q 106.05 71.6 106.05 68.5
L 106.05 33.05
Q 108.4 39.05 110.55 42.5
L 127.15 70.15
Q 128 71.6 130 71.6
L 140.2 71.6
Q 143.05 71.6 143.05 68.5
L 143.05 3.95
M 169.3 138
Q 171.35 138 171.35 135.95
L 171.35 130.75
Q 171.35 128.8 169.3 128.8
L 150.95 128.8 150.95 84.2
Q 150.95 82 148.95 82
L 141.8 82
Q 139.8 82 139.8 84.2
L 139.8 135.85
Q 139.8 138 141.55 138
L 169.3 138
M 190.15 84.2
Q 190.15 82 188.15 82
L 181 82
Q 179 82 179 84.2
L 179 135.85
Q 179 138 181 138
L 188.15 138
Q 190.15 138 190.15 135.85
L 190.15 84.2
M 202.9 24.6
Q 205.8 24.6 205.8 21.5
L 205.8 17.75
Q 205.8 10.15 200.3 5.55 193.7 0 180.2 0 166.6 0 160.1 5.55 154.6 10.15 154.6 17.75
L 154.6 54.65
Q 154.6 62.3 160.1 66.85 166.6 72.35 180.2 72.35 193.7 72.35 200.3 66.85 205.8 62.3 205.8 54.65
L 205.8 36
Q 205.8 33.05 202.7 33.05
L 180.6 33.05
Q 177.5 33.05 177.5 36
L 177.5 44.05
Q 177.5 47.1 180.6 47.1
L 189.1 47.1 189.1 51.6
Q 189.1 58.4 180.4 58.4 171.75 58.4 171.75 51.6
L 171.75 20.8
Q 171.75 14 180.4 14 189.1 14 189.1 20.8
L 189.1 21.5
Q 189.1 24.6 192.2 24.6
L 202.9 24.6
M 282.7 82
Q 280.65 82 280.65 84.05
L 280.65 89.2
Q 280.65 91.25 282.7 91.25
L 294.4 91.25 294.4 135.85
Q 294.4 138 296.45 138
L 303.6 138
Q 305.6 138 305.6 135.85
L 305.6 91.25 317.3 91.25
Q 319.35 91.25 319.35 89.2
L 319.35 84.05
Q 319.35 82 317.3 82
L 282.7 82
M 274.1 84.2
Q 274.1 82 272.1 82
L 264.95 82
Q 262.95 82 262.95 84.2
L 262.95 135.85
Q 262.95 138 264.95 138
L 272.1 138
Q 274.1 138 274.1 135.85
L 274.1 84.2
M 251.5 84.1
Q 251.5 82 249.55 82
L 242.7 82
Q 241.25 82 240.8 83
L 228.65 112
Q 227.6 114.45 226.5 117.65 225.4 114.15 224.45 111.9
L 211.85 83.2
Q 211.35 82 210.05 82
L 203.55 82
Q 201.55 82 201.55 84.1
L 201.55 135.95
Q 201.55 138 203.55 138
L 210.05 138
Q 212 138 212 135.95
L 212 104.85
Q 212.45 107.85 213.95 110.9
L 220.9 127.45
Q 221.7 129.5 223.55 129.5
L 229.4 129.5
Q 231.2 129.5 232.1 127.45
L 238.35 112.15 240.75 104.7 240.75 135.95
Q 240.75 138 242.7 138
L 249.55 138
Q 251.5 138 251.5 135.95
L 251.5 84.1
M 254.3 71.6
Q 257.45 71.6 257.45 68.6
L 257.45 60.45
Q 257.45 57.55 254.3 57.55
L 233.9 57.55 233.9 3.95
Q 233.9 0.8 230.95 0.8
L 219.7 0.8
Q 216.75 0.8 216.75 3.95
L 216.75 68.5
Q 216.75 71.6 219.3 71.6
L 254.3 71.6
M 282.85 3.95
Q 282.85 0.8 279.9 0.8
L 268.65 0.8
Q 265.7 0.8 265.7 3.95
L 265.7 68.5
Q 265.7 71.6 268.65 71.6
L 279.9 71.6
Q 282.85 71.6 282.85 68.5
L 282.85 3.95
M 403.75 86.15
Q 398.55 82 388.15 82
L 370.2 82
Q 368.2 82 368.2 84.2
L 368.2 135.85
Q 368.2 138 369.95 138
L 388.15 138
Q 398.55 138 403.75 133.9 408.2 130.35 408.2 124.6
L 408.2 95.45
Q 408.2 89.65 403.75 86.15
M 388.15 91.25
Q 397.1 91.25 397.1 97.4
L 397.1 122.6
Q 397.1 128.8 388.15 128.8
L 379.35 128.8 379.35 91.25 388.15 91.25
M 328.05 82
Q 326.05 82 326.05 84.2
L 326.05 135.85
Q 326.05 138 328.05 138
L 357 138
Q 359.1 138 359.1 135.95
L 359.1 130.75
Q 359.1 128.8 357 128.8
L 337.2 128.8 337.2 113.5 354.8 113.5
Q 356.9 113.5 356.9 111.5
L 356.9 106.55
Q 356.9 104.6 354.8 104.6
L 337.2 104.6 337.2 91.25 356.2 91.25
Q 358.25 91.25 358.25 89.2
L 358.25 84.05
Q 358.25 82 356.2 82
L 328.05 82
M 327.8 21.65
Q 327.8 24.75 330.7 24.75
L 341.5 24.75
Q 344.55 24.75 344.55 21.65
L 344.55 17.75
Q 344.55 10.1 339.2 5.55 332.75 0 319.45 0 294.8 0 294.8 17.75
L 294.8 23.8
Q 294.8 28.3 297.65 32.25 300.4 36.15 304.45 37.6
L 319.45 43.3
Q 328.4 46.6 328.4 50.2
L 328.4 52.3
Q 328.4 58.85 319.15 58.85 309.95 58.85 309.95 52.3
L 309.95 47.65
Q 309.95 44.55 307.05 44.55
L 296.25 44.55
Q 293.2 44.55 293.2 47.65
L 293.2 54.65
Q 293.2 62.2 298.95 66.85 305.75 72.35 319.35 72.35 332.95 72.35 339.6 66.85 345.25 62.2 345.25 54.65
L 345.25 47.25
Q 345.25 35.9 332.25 31.55
L 314.8 25.6
Q 311.4 24.35 311.4 21.1
L 311.4 20.05
Q 311.4 13.5 319.65 13.5 327.8 13.5 327.8 20.05
L 327.8 21.65
M 408.25 3.95
Q 408.25 0.8 405.45 0.8
L 394.15 0.8
Q 391.1 0.8 391.1 3.95
L 391.1 28.7 372.3 28.7 372.3 3.95
Q 372.3 0.8 369.35 0.8
L 358.15 0.8
Q 355.15 0.8 355.15 3.95
L 355.15 68.5
Q 355.15 71.6 358.15 71.6
L 369.35 71.6
Q 372.3 71.6 372.3 68.5
L 372.3 42.75 391.1 42.75 391.1 68.5
Q 391.1 71.6 394.15 71.6
L 405.45 71.6
Q 408.25 71.6 408.25 68.5
L 408.25 3.95 Z"/>
</g>

<path id="Layer0_0_1_STROKES" stroke="#EFF1F4" stroke-width="0.1" stroke-linejoin="round" stroke-linecap="round" fill="none" d="
M 372.3 3.95
Q 372.3 0.8 369.35 0.8
L 358.15 0.8
Q 355.15 0.8 355.15 3.95
L 355.15 68.5
Q 355.15 71.6 358.15 71.6
L 369.35 71.6
Q 372.3 71.6 372.3 68.5
L 372.3 42.75 391.1 42.75 391.1 68.5
Q 391.1 71.6 394.15 71.6
L 405.45 71.6
Q 408.25 71.6 408.25 68.5
L 408.25 3.95
Q 408.25 0.8 405.45 0.8
L 394.15 0.8
Q 391.1 0.8 391.1 3.95
L 391.1 28.7 372.3 28.7 372.3 3.95 Z
M 327.8 21.65
Q 327.8 24.75 330.7 24.75
L 341.5 24.75
Q 344.55 24.75 344.55 21.65
L 344.55 17.75
Q 344.55 10.1 339.2 5.55 332.75 0 319.45 0 294.8 0 294.8 17.75
L 294.8 23.8
Q 294.8 28.3 297.65 32.25 300.4 36.15 304.45 37.6
L 319.45 43.3
Q 328.4 46.6 328.4 50.2
L 328.4 52.3
Q 328.4 58.85 319.15 58.85 309.95 58.85 309.95 52.3
L 309.95 47.65
Q 309.95 44.55 307.05 44.55
L 296.25 44.55
Q 293.2 44.55 293.2 47.65
L 293.2 54.65
Q 293.2 62.2 298.95 66.85 305.75 72.35 319.35 72.35 332.95 72.35 339.6 66.85 345.25 62.2 345.25 54.65
L 345.25 47.25
Q 345.25 35.9 332.25 31.55
L 314.8 25.6
Q 311.4 24.35 311.4 21.1
L 311.4 20.05
Q 311.4 13.5 319.65 13.5 327.8 13.5 327.8 20.05
L 327.8 21.65 Z
M 357 138
Q 359.1 138 359.1 135.95
L 359.1 130.75
Q 359.1 128.8 357 128.8
L 337.2 128.8 337.2 113.5 354.8 113.5
Q 356.9 113.5 356.9 111.5
L 356.9 106.55
Q 356.9 104.6 354.8 104.6
L 337.2 104.6 337.2 91.25 356.2 91.25
Q 358.25 91.25 358.25 89.2
L 358.25 84.05
Q 358.25 82 356.2 82
L 328.05 82
Q 326.05 82 326.05 84.2
L 326.05 135.85
Q 326.05 138 328.05 138
L 357 138 Z
M 388.15 138
Q 398.55 138 403.75 133.9 408.2 130.35 408.2 124.6
L 408.2 95.45
Q 408.2 89.65 403.75 86.15 398.55 82 388.15 82
L 370.2 82
Q 368.2 82 368.2 84.2
L 368.2 135.85
Q 368.2 138 369.95 138
L 388.15 138 Z
M 388.15 91.25
Q 397.1 91.25 397.1 97.4
L 397.1 122.6
Q 397.1 128.8 388.15 128.8
L 379.35 128.8 379.35 91.25 388.15 91.25 Z
M 282.85 3.95
Q 282.85 0.8 279.9 0.8
L 268.65 0.8
Q 265.7 0.8 265.7 3.95
L 265.7 68.5
Q 265.7 71.6 268.65 71.6
L 279.9 71.6
Q 282.85 71.6 282.85 68.5
L 282.85 3.95 Z
M 233.9 3.95
Q 233.9 0.8 230.95 0.8
L 219.7 0.8
Q 216.75 0.8 216.75 3.95
L 216.75 68.5
Q 216.75 71.6 219.3 71.6
L 254.3 71.6
Q 257.45 71.6 257.45 68.6
L 257.45 60.45
Q 257.45 57.55 254.3 57.55
L 233.9 57.55 233.9 3.95 Z
M 251.5 84.1
Q 251.5 82 249.55 82
L 242.7 82
Q 241.25 82 240.8 83
L 228.65 112
Q 227.6 114.45 226.5 117.65 225.4 114.15 224.45 111.9
L 211.85 83.2
Q 211.35 82 210.05 82
L 203.55 82
Q 201.55 82 201.55 84.1
L 201.55 135.95
Q 201.55 138 203.55 138
L 210.05 138
Q 212 138 212 135.95
L 212 104.85
Q 212.45 107.85 213.95 110.9
L 220.9 127.45
Q 221.7 129.5 223.55 129.5
L 229.4 129.5
Q 231.2 129.5 232.1 127.45
L 238.35 112.15 240.75 104.7 240.75 135.95
Q 240.75 138 242.7 138
L 249.55 138
Q 251.5 138 251.5 135.95
L 251.5 84.1 Z
M 274.1 84.2
Q 274.1 82 272.1 82
L 264.95 82
Q 262.95 82 262.95 84.2
L 262.95 135.85
Q 262.95 138 264.95 138
L 272.1 138
Q 274.1 138 274.1 135.85
L 274.1 84.2 Z
M 282.7 82
Q 280.65 82 280.65 84.05
L 280.65 89.2
Q 280.65 91.25 282.7 91.25
L 294.4 91.25 294.4 135.85
Q 294.4 138 296.45 138
L 303.6 138
Q 305.6 138 305.6 135.85
L 305.6 91.25 317.3 91.25
Q 319.35 91.25 319.35 89.2
L 319.35 84.05
Q 319.35 82 317.3 82
L 282.7 82 Z
M 180.6 33.05
Q 177.5 33.05 177.5 36
L 177.5 44.05
Q 177.5 47.1 180.6 47.1
L 189.1 47.1 189.1 51.6
Q 189.1 58.4 180.4 58.4 171.75 58.4 171.75 51.6
L 171.75 20.8
Q 171.75 14 180.4 14 189.1 14 189.1 20.8
L 189.1 21.5
Q 189.1 24.6 192.2 24.6
L 202.9 24.6
Q 205.8 24.6 205.8 21.5
L 205.8 17.75
Q 205.8 10.15 200.3 5.55 193.7 0 180.2 0 166.6 0 160.1 5.55 154.6 10.15 154.6 17.75
L 154.6 54.65
Q 154.6 62.3 160.1 66.85 166.6 72.35 180.2 72.35 193.7 72.35 200.3 66.85 205.8 62.3 205.8 54.65
L 205.8 36
Q 205.8 33.05 202.7 33.05
L 180.6 33.05 Z
M 190.15 84.2
Q 190.15 82 188.15 82
L 181 82
Q 179 82 179 84.2
L 179 135.85
Q 179 138 181 138
L 188.15 138
Q 190.15 138 190.15 135.85
L 190.15 84.2 Z
M 150.95 84.2
Q 150.95 82 148.95 82
L 141.8 82
Q 139.8 82 139.8 84.2
L 139.8 135.85
Q 139.8 138 141.55 138
L 169.3 138
Q 171.35 138 171.35 135.95
L 171.35 130.75
Q 171.35 128.8 169.3 128.8
L 150.95 128.8 150.95 84.2 Z
M 143.05 3.95
Q 143.05 0.8 140.2 0.8
L 130 0.8
Q 126.95 0.8 126.95 3.95
L 126.95 39.3
Q 124.8 34.05 123.35 31.55
L 105.7 2.05
Q 105.1 0.8 103.15 0.8
L 92.9 0.8
Q 89.95 0.8 89.95 3.95
L 89.95 68.5
Q 89.95 71.6 92.9 71.6
L 103.15 71.6
Q 106.05 71.6 106.05 68.5
L 106.05 33.05
Q 108.4 39.05 110.55 42.5
L 127.15 70.15
Q 128 71.6 130 71.6
L 140.2 71.6
Q 143.05 71.6 143.05 68.5
L 143.05 3.95 Z
M 128.35 84.1
Q 128.35 82 126.4 82
L 119.9 82
Q 117.95 82 117.95 84.1
L 117.95 117
Q 116.5 113.65 115.1 111.25
L 98.55 82.85
Q 98.1 82 96.85 82
L 90.35 82
Q 88.35 82 88.35 84.1
L 88.35 135.95
Q 88.35 138 90.35 138
L 96.85 138
Q 98.8 138 98.8 135.95
L 98.8 103.1
Q 99.9 106.05 102.1 109.8
L 118 137
Q 118.55 138 119.9 138
L 126.4 138
Q 128.35 138 128.35 135.95
L 128.35 84.1 Z
M 76.95 71.6
Q 80.05 71.6 80.05 68.6
L 80.05 60.45
Q 80.05 57.55 76.95 57.55
L 54.45 57.55 54.45 41.9 74.25 41.9
Q 77.35 41.9 77.35 38.9
L 77.35 31.25
Q 77.35 28.35 74.25 28.35
L 54.45 28.35 54.45 14.85 75.9 14.85
Q 79 14.85 79 11.8
L 79 3.75
Q 79 0.8 75.9 0.8
L 40.25 0.8
Q 37.3 0.8 37.3 3.95
L 37.3 68.5
Q 37.3 71.6 40.25 71.6
L 76.95 71.6 Z
M 25.95 1.1
Q 25.95 0.5 25.4 0.5
L 24.2 0.5
Q 23.7 0.5 23.7 1.1
L 23.7 12.3 13.6 12.3 13.6 2.15
Q 13.6 1.65 13.05 1.65
L 11.95 1.65
Q 11.4 1.65 11.4 2.15
L 11.4 12.3 2.55 12.3 2.55 1.55
Q 2.55 0.95 2.05 0.95
L 0.85 0.95
Q 0.3 0.95 0.3 1.55
L 0.3 14.4
Q 0.3 14.9 0.85 14.9
L 25.4 14.9
Q 25.95 14.9 25.95 14.4
L 25.95 1.1 Z
M 13.6 28.85
Q 13.6 29.35 14.15 29.35
L 15.4 29.35
Q 15.9 29.35 15.9 28.85
L 15.9 23.8 20.35 23.8
Q 23.95 23.8 23.95 29.1 23.95 34.45 20.35 34.45
L 5.95 34.45
Q 2.3 34.45 2.3 29.1 2.3 23.8 5.95 23.8
L 7.3 23.8
Q 7.85 23.8 7.85 23.2
L 7.85 21.75
Q 7.85 21.15 7.3 21.15
L 5.5 21.15
Q 0 21.15 0 29.15 0 37.1 5.5 37.1
L 20.75 37.1
Q 26.25 37.1 26.25 29.15 26.25 21.15 20.75 21.15
L 14.15 21.15
Q 13.6 21.15 13.6 21.75
L 13.6 28.85 Z
M 25.95 42.9
Q 25.95 42.35 25.4 42.35
L 24.2 42.35
Q 23.7 42.35 23.7 42.9
L 23.7 54.1 13.6 54.1 13.6 44
Q 13.6 43.45 13.05 43.45
L 11.95 43.45
Q 11.4 43.45 11.4 44
L 11.4 54.1 2.55 54.1 2.55 43.35
Q 2.55 42.8 2.05 42.8
L 0.85 42.8
Q 0.3 42.8 0.3 43.35
L 0.3 56.25
Q 0.3 56.75 0.85 56.75
L 25.4 56.75
Q 25.95 56.75 25.95 56.25
L 25.95 42.9 Z
M 0.85 72.9
Q 0.3 72.9 0.3 73.4
L 0.3 75.05
Q 0.3 75.55 0.85 75.55
L 25.4 75.55
Q 25.95 75.55 25.95 75.1
L 25.95 62.3
Q 25.95 61.8 25.4 61.8
L 24.2 61.8
Q 23.7 61.8 23.7 62.3
L 23.7 72.9 0.85 72.9 Z
M 0.85 91.7
Q 0.3 91.7 0.3 92.2
L 0.3 93.9
Q 0.3 94.4 0.85 94.4
L 25.4 94.4
Q 25.95 94.4 25.95 93.95
L 25.95 81.1
Q 25.95 80.6 25.4 80.6
L 24.2 80.6
Q 23.7 80.6 23.7 81.1
L 23.7 91.7 0.85 91.7 Z
M 48.5 84.2
Q 48.5 82 46.45 82
L 39.3 82
Q 37.25 82 37.25 84.2
L 37.25 125.25
Q 37.25 131.05 41.7 134.55 46.85 138.65 57.3 138.65 67.65 138.65 72.85 134.55 77.25 131.05 77.25 125.25
L 77.25 84.2
Q 77.25 82 75.35 82
L 68.2 82
Q 66.25 82 66.25 84.2
L 66.25 123.25
Q 66.25 129.45 57.3 129.45 48.5 129.45 48.5 123.25
L 48.5 84.2 Z
M 20.75 117.5
Q 26.25 117.5 26.25 109.3 26.25 101.15 20.75 101.15
L 5.5 101.15
Q 0 101.15 0 109.3 0 117.5 5.5 117.5
L 20.75 117.5 Z
M 20.35 103.85
Q 23.95 103.85 23.95 109.3 23.95 114.8 20.35 114.8
L 5.95 114.8
Q 2.3 114.8 2.3 109.3 2.3 103.85 5.95 103.85
L 20.35 103.85 Z
M 18.35 122.7
Q 17.8 122.7 17.8 123.3
L 17.8 124.75
Q 17.8 125.35 18.35 125.35
L 20.35 125.35
Q 23.95 125.35 23.95 130.65 23.95 136 20.35 136
L 5.95 136
Q 2.3 136 2.3 130.65 2.3 125.35 5.95 125.35
L 7.45 125.35
Q 8 125.35 8 124.75
L 8 123.3
Q 8 122.7 7.45 122.7
L 5.5 122.7
Q 0 122.7 0 130.7 0 138.65 5.5 138.65
L 20.75 138.65
Q 26.25 138.65 26.25 130.7 26.25 122.7 20.75 122.7
L 18.35 122.7 Z"/>
</defs>

<g transform="matrix( 1, 0, 0, 1, 0,0) ">
<use xlink:href="#Layer0_0_FILL"/>

<use xlink:href="#Layer0_0_1_STROKES"/>
</g>
</svg>
