
<svg xmlns="http://www.w3.org/2000/svg" version="1.1" xmlns:xlink="http://www.w3.org/1999/xlink" preserveAspectRatio="none" x="0px" y="0px" width="409px" height="139px" viewBox="0 0 409 139">
<defs>
<g id="Layer0_0_FILL">
<path fill="#27272F" stroke="none" d="
M 437.05 564.75
Q 437.05 559.45 440.7 559.45
L 442.2 559.45
Q 442.75 559.45 442.75 558.85
L 442.75 557.4
Q 442.75 556.8 442.2 556.8
L 440.25 556.8
Q 434.75 556.8 434.75 564.8 434.75 572.75 440.25 572.75
L 455.5 572.75
Q 461 572.75 461 564.8 461 556.8 455.5 556.8
L 453.1 556.8
Q 452.55 556.8 452.55 557.4
L 452.55 558.85
Q 452.55 559.45 453.1 559.45
L 455.1 559.45
Q 458.7 559.45 458.7 564.75 458.7 570.1 455.1 570.1
L 440.7 570.1
Q 437.05 570.1 437.05 564.75
M 461 543.4
Q 461 535.25 455.5 535.25
L 440.25 535.25
Q 434.75 535.25 434.75 543.4 434.75 551.6 440.25 551.6
L 455.5 551.6
Q 461 551.6 461 543.4
M 455.1 537.95
Q 458.7 537.95 458.7 543.4 458.7 548.9 455.1 548.9
L 440.7 548.9
Q 437.05 548.9 437.05 543.4 437.05 537.95 440.7 537.95
L 455.1 537.95
M 460.15 514.7
L 458.95 514.7
Q 458.45 514.7 458.45 515.2
L 458.45 525.8 435.6 525.8
Q 435.05 525.8 435.05 526.3
L 435.05 528
Q 435.05 528.5 435.6 528.5
L 460.15 528.5
Q 460.7 528.5 460.7 528.05
L 460.7 515.2
Q 460.7 514.7 460.15 514.7
M 460.7 496.4
Q 460.7 495.9 460.15 495.9
L 458.95 495.9
Q 458.45 495.9 458.45 496.4
L 458.45 507 435.6 507
Q 435.05 507 435.05 507.5
L 435.05 509.15
Q 435.05 509.65 435.6 509.65
L 460.15 509.65
Q 460.7 509.65 460.7 509.2
L 460.7 496.4
M 437.3 488.2
L 437.3 477.45
Q 437.3 476.9 436.8 476.9
L 435.6 476.9
Q 435.05 476.9 435.05 477.45
L 435.05 490.35
Q 435.05 490.85 435.6 490.85
L 460.15 490.85
Q 460.7 490.85 460.7 490.35
L 460.7 477
Q 460.7 476.45 460.15 476.45
L 458.95 476.45
Q 458.45 476.45 458.45 477
L 458.45 488.2 448.35 488.2 448.35 478.1
Q 448.35 477.55 447.8 477.55
L 446.7 477.55
Q 446.15 477.55 446.15 478.1
L 446.15 488.2 437.3 488.2
M 442.6 457.3
L 442.6 455.85
Q 442.6 455.25 442.05 455.25
L 440.25 455.25
Q 434.75 455.25 434.75 463.25 434.75 471.2 440.25 471.2
L 455.5 471.2
Q 461 471.2 461 463.25 461 455.25 455.5 455.25
L 448.9 455.25
Q 448.35 455.25 448.35 455.85
L 448.35 462.95
Q 448.35 463.45 448.9 463.45
L 450.15 463.45
Q 450.65 463.45 450.65 462.95
L 450.65 457.9 455.1 457.9
Q 458.7 457.9 458.7 463.2 458.7 468.55 455.1 468.55
L 440.7 468.55
Q 437.05 468.55 437.05 463.2 437.05 457.9 440.7 457.9
L 442.05 457.9
Q 442.6 457.9 442.6 457.3
M 446.7 435.75
Q 446.15 435.75 446.15 436.25
L 446.15 446.4 437.3 446.4 437.3 435.65
Q 437.3 435.05 436.8 435.05
L 435.6 435.05
Q 435.05 435.05 435.05 435.65
L 435.05 448.5
Q 435.05 449 435.6 449
L 460.15 449
Q 460.7 449 460.7 448.5
L 460.7 435.2
Q 460.7 434.6 460.15 434.6
L 458.95 434.6
Q 458.45 434.6 458.45 435.2
L 458.45 446.4 448.35 446.4 448.35 436.25
Q 448.35 435.75 447.8 435.75
L 446.7 435.75
M 576.55 516.1
Q 574.55 516.1 574.55 518.3
L 574.55 569.95
Q 574.55 572.1 576.3 572.1
L 604.05 572.1
Q 606.1 572.1 606.1 570.05
L 606.1 564.85
Q 606.1 562.9 604.05 562.9
L 585.7 562.9 585.7 518.3
Q 585.7 516.1 583.7 516.1
L 576.55 516.1
M 615.75 516.1
Q 613.75 516.1 613.75 518.3
L 613.75 569.95
Q 613.75 572.1 615.75 572.1
L 622.9 572.1
Q 624.9 572.1 624.9 569.95
L 624.9 518.3
Q 624.9 516.1 622.9 516.1
L 615.75 516.1
M 502.95 516.1
Q 501 516.1 501 518.3
L 501 557.35
Q 501 563.55 492.05 563.55 483.25 563.55 483.25 557.35
L 483.25 518.3
Q 483.25 516.1 481.2 516.1
L 474.05 516.1
Q 472 516.1 472 518.3
L 472 559.35
Q 472 565.15 476.45 568.65 481.6 572.75 492.05 572.75 502.4 572.75 507.6 568.65 512 565.15 512 559.35
L 512 518.3
Q 512 516.1 510.1 516.1
L 502.95 516.1
M 561.15 516.1
L 554.65 516.1
Q 552.7 516.1 552.7 518.2
L 552.7 551.1
Q 551.25 547.75 549.85 545.35
L 533.3 516.95
Q 532.85 516.1 531.6 516.1
L 525.1 516.1
Q 523.1 516.1 523.1 518.2
L 523.1 570.05
Q 523.1 572.1 525.1 572.1
L 531.6 572.1
Q 533.55 572.1 533.55 570.05
L 533.55 537.2
Q 534.65 540.15 536.85 543.9
L 552.75 571.1
Q 553.3 572.1 554.65 572.1
L 561.15 572.1
Q 563.1 572.1 563.1 570.05
L 563.1 518.2
Q 563.1 516.1 561.15 516.1
M 513.75 437.85
Q 513.75 434.9 510.65 434.9
L 475 434.9
Q 472.05 434.9 472.05 438.05
L 472.05 502.6
Q 472.05 505.7 475 505.7
L 511.7 505.7
Q 514.8 505.7 514.8 502.7
L 514.8 494.55
Q 514.8 491.65 511.7 491.65
L 489.2 491.65 489.2 476 509 476
Q 512.1 476 512.1 473
L 512.1 465.35
Q 512.1 462.45 509 462.45
L 489.2 462.45 489.2 448.95 510.65 448.95
Q 513.75 448.95 513.75 445.9
L 513.75 437.85
M 577.8 438.05
Q 577.8 434.9 574.95 434.9
L 564.75 434.9
Q 561.7 434.9 561.7 438.05
L 561.7 473.4
Q 559.55 468.15 558.1 465.65
L 540.45 436.15
Q 539.85 434.9 537.9 434.9
L 527.65 434.9
Q 524.7 434.9 524.7 438.05
L 524.7 502.6
Q 524.7 505.7 527.65 505.7
L 537.9 505.7
Q 540.8 505.7 540.8 502.6
L 540.8 467.15
Q 543.15 473.15 545.3 476.6
L 561.9 504.25
Q 562.75 505.7 564.75 505.7
L 574.95 505.7
Q 577.8 505.7 577.8 502.6
L 577.8 438.05
M 635.05 439.65
Q 628.45 434.1 614.95 434.1 601.35 434.1 594.85 439.65 589.35 444.25 589.35 451.85
L 589.35 488.75
Q 589.35 496.4 594.85 500.95 601.35 506.45 614.95 506.45 628.45 506.45 635.05 500.95 640.55 496.4 640.55 488.75
L 640.55 470.1
Q 640.55 467.15 637.45 467.15
L 615.35 467.15
Q 612.25 467.15 612.25 470.1
L 612.25 478.15
Q 612.25 481.2 615.35 481.2
L 623.85 481.2 623.85 485.7
Q 623.85 492.5 615.15 492.5 606.5 492.5 606.5 485.7
L 606.5 454.9
Q 606.5 448.1 615.15 448.1 623.85 448.1 623.85 454.9
L 623.85 455.6
Q 623.85 458.7 626.95 458.7
L 637.65 458.7
Q 640.55 458.7 640.55 455.6
L 640.55 451.85
Q 640.55 444.25 635.05 439.65
M 793 518.15
Q 793 516.1 790.95 516.1
L 762.8 516.1
Q 760.8 516.1 760.8 518.3
L 760.8 569.95
Q 760.8 572.1 762.8 572.1
L 791.75 572.1
Q 793.85 572.1 793.85 570.05
L 793.85 564.85
Q 793.85 562.9 791.75 562.9
L 771.95 562.9 771.95 547.6 789.55 547.6
Q 791.65 547.6 791.65 545.6
L 791.65 540.65
Q 791.65 538.7 789.55 538.7
L 771.95 538.7 771.95 525.35 790.95 525.35
Q 793 525.35 793 523.3
L 793 518.15
M 684.3 516.1
L 677.45 516.1
Q 676 516.1 675.55 517.1
L 663.4 546.1
Q 662.35 548.55 661.25 551.75 660.15 548.25 659.2 546
L 646.6 517.3
Q 646.1 516.1 644.8 516.1
L 638.3 516.1
Q 636.3 516.1 636.3 518.2
L 636.3 570.05
Q 636.3 572.1 638.3 572.1
L 644.8 572.1
Q 646.75 572.1 646.75 570.05
L 646.75 538.95
Q 647.2 541.95 648.7 545
L 655.65 561.55
Q 656.45 563.6 658.3 563.6
L 664.15 563.6
Q 665.95 563.6 666.85 561.55
L 673.1 546.25 675.5 538.8 675.5 570.05
Q 675.5 572.1 677.45 572.1
L 684.3 572.1
Q 686.25 572.1 686.25 570.05
L 686.25 518.2
Q 686.25 516.1 684.3 516.1
M 706.85 516.1
L 699.7 516.1
Q 697.7 516.1 697.7 518.3
L 697.7 569.95
Q 697.7 572.1 699.7 572.1
L 706.85 572.1
Q 708.85 572.1 708.85 569.95
L 708.85 518.3
Q 708.85 516.1 706.85 516.1
M 717.45 516.1
Q 715.4 516.1 715.4 518.15
L 715.4 523.3
Q 715.4 525.35 717.45 525.35
L 729.15 525.35 729.15 569.95
Q 729.15 572.1 731.2 572.1
L 738.35 572.1
Q 740.35 572.1 740.35 569.95
L 740.35 525.35 752.05 525.35
Q 754.1 525.35 754.1 523.3
L 754.1 518.15
Q 754.1 516.1 752.05 516.1
L 717.45 516.1
M 668.65 438.05
Q 668.65 434.9 665.7 434.9
L 654.45 434.9
Q 651.5 434.9 651.5 438.05
L 651.5 502.6
Q 651.5 505.7 654.05 505.7
L 689.05 505.7
Q 692.2 505.7 692.2 502.7
L 692.2 494.55
Q 692.2 491.65 689.05 491.65
L 668.65 491.65 668.65 438.05
M 717.6 438.05
Q 717.6 434.9 714.65 434.9
L 703.4 434.9
Q 700.45 434.9 700.45 438.05
L 700.45 502.6
Q 700.45 505.7 703.4 505.7
L 714.65 505.7
Q 717.6 505.7 717.6 502.6
L 717.6 438.05
M 762.55 455.75
Q 762.55 458.85 765.45 458.85
L 776.25 458.85
Q 779.3 458.85 779.3 455.75
L 779.3 451.85
Q 779.3 444.2 773.95 439.65 767.5 434.1 754.2 434.1 729.55 434.1 729.55 451.85
L 729.55 457.9
Q 729.55 462.4 732.4 466.35 735.15 470.25 739.2 471.7
L 754.2 477.4
Q 763.15 480.7 763.15 484.3
L 763.15 486.4
Q 763.15 492.95 753.9 492.95 744.7 492.95 744.7 486.4
L 744.7 481.75
Q 744.7 478.65 741.8 478.65
L 731 478.65
Q 727.95 478.65 727.95 481.75
L 727.95 488.75
Q 727.95 496.3 733.7 500.95 740.5 506.45 754.1 506.45 767.7 506.45 774.35 500.95 780 496.3 780 488.75
L 780 481.35
Q 780 470 767 465.65
L 749.55 459.7
Q 746.15 458.45 746.15 455.2
L 746.15 454.15
Q 746.15 447.6 754.4 447.6 762.55 447.6 762.55 454.15
L 762.55 455.75
M 838.5 520.25
Q 833.3 516.1 822.9 516.1
L 804.95 516.1
Q 802.95 516.1 802.95 518.3
L 802.95 569.95
Q 802.95 572.1 804.7 572.1
L 822.9 572.1
Q 833.3 572.1 838.5 568 842.95 564.45 842.95 558.7
L 842.95 529.55
Q 842.95 523.75 838.5 520.25
M 822.9 525.35
Q 831.85 525.35 831.85 531.5
L 831.85 556.7
Q 831.85 562.9 822.9 562.9
L 814.1 562.9 814.1 525.35 822.9 525.35
M 828.9 434.9
Q 825.85 434.9 825.85 438.05
L 825.85 462.8 807.05 462.8 807.05 438.05
Q 807.05 434.9 804.1 434.9
L 792.9 434.9
Q 789.9 434.9 789.9 438.05
L 789.9 502.6
Q 789.9 505.7 792.9 505.7
L 804.1 505.7
Q 807.05 505.7 807.05 502.6
L 807.05 476.85 825.85 476.85 825.85 502.6
Q 825.85 505.7 828.9 505.7
L 840.2 505.7
Q 843 505.7 843 502.6
L 843 438.05
Q 843 434.9 840.2 434.9
L 828.9 434.9 Z"/>
</g>
</defs>

<g transform="matrix( 1, 0, 0, 1, -434.75,-434.1) ">
<use xlink:href="#Layer0_0_FILL"/>
</g>
</svg>
