
<svg xmlns="http://www.w3.org/2000/svg" version="1.1" xmlns:xlink="http://www.w3.org/1999/xlink" preserveAspectRatio="none" x="0px" y="0px" width="350px" height="350px" viewBox="0 0 350 350">
<defs>
<radialGradient id="Gradient_1" gradientUnits="userSpaceOnUse" cx="0" cy="0" r="296.00000000000006" fx="0" fy="0" gradientTransform="matrix( 0.9999999999999999, 0, 0, 0.9999999999999999, 240.7,295.8) " spreadMethod="pad">
<stop  offset="0%" stop-color="#8EADE7"/>

<stop  offset="90.58823529411765%" stop-color="#5C7196"/>
</radialGradient>

<filter id="Filter_1" x="-20%" y="-20%" width="140%" height="140%" color-interpolation-filters="sRGB">
<feColorMatrix in="SourceGraphic" type="matrix" values="0.557504 0.39001600000000003 0.052480000000000006 0 0 0.19750399999999999 0.750016 0.052480000000000006 0 0 0.19750399999999999 0.39001600000000003 0.41248 0 0 0 0 0 1 0 " result="result1"/>
</filter>

<g id="Mask_Symbol_92_0_1_MASK_0_FILL">
<path fill="#FFFFFF" stroke="none" d="
M 350 350
L 350 0 0 0 0 350 350 350 Z"/>
</g>

<g id="Symbol_92_0_Layer1_0_FILL">
<path fill="url(#Gradient_1)" stroke="none" d="
M 493.45 350
L 493.45 0 -229.55 0 -229.55 350 493.45 350 Z"/>
</g>

<g id="Symbol_92_0_Layer1_1_FILL">
<path fill="#3D3E53" stroke="none" d="
M 513 736.5
L 513 370.5 -210 370.5 -210 736.5 513 736.5 Z"/>
</g>
</defs>

<g filter="url(#Filter_1)" transform="matrix( 1, 0, 0, 1, 0,0) ">
<g transform="matrix( 1, 0, 0, 1, 0,0) ">
<mask id="Mask_Mask_1">
<g transform="matrix( 1, 0, 0, 1, 0,0) ">
<use xlink:href="#Mask_Symbol_92_0_1_MASK_0_FILL"/>
</g>
</mask>

<g mask="url(#Mask_Mask_1)">
<g transform="matrix( 1, 0, 0, 1, 0,0) ">
<use xlink:href="#Symbol_92_0_Layer1_0_FILL"/>
</g>

<g transform="matrix( 1, 0, 0, 1, 0,0) ">
<use xlink:href="#Symbol_92_0_Layer1_1_FILL"/>
</g>
</g>
</g>
</g>
</svg>
